<?xml version="1.0" encoding="UTF-8" standalone="no"?>
<svg
   xmlns:dc="http://purl.org/dc/elements/1.1/"
   xmlns:cc="http://creativecommons.org/ns#"
   xmlns:rdf="http://www.w3.org/1999/02/22-rdf-syntax-ns#"
   xmlns:svg="http://www.w3.org/2000/svg"
   xmlns="http://www.w3.org/2000/svg"
   viewBox="0 0 100 100"
   height="100"
   width="100"
   xml:space="preserve"
   version="1.1"
   id="svg2"><metadata
     id="metadata8"><rdf:RDF><cc:Work
         rdf:about=""><dc:format>image/svg+xml</dc:format><dc:type
           rdf:resource="http://purl.org/dc/dcmitype/StillImage" /></cc:Work></rdf:RDF></metadata><defs
     id="defs6" /><g
     transform="matrix(1.25,0,0,-1.25,0,100)"
     id="g10"><g
       transform="scale(0.1,0.1)"
       id="g12"><path
         id="path14"
         style="fill:#171717;fill-opacity:1;fill-rule:nonzero;stroke:none"
         d="m 386.109,508.063 c 2.051,2.601 1.793,5.378 2.063,7.996 0.641,6.222 0.984,12.484 1.844,18.671 0.734,5.297 2,10.52 3.074,15.766 0.34,1.656 0.414,1.641 3.707,3.867 0.129,1.242 0.32,2.649 0.414,4.063 0.336,5.047 1.551,9.879 3.66,14.457 1.863,4.027 4.66,7.023 8.938,8.734 5.375,2.153 10.968,3.09 16.636,3.731 5.024,0.57 9.184,2.785 12.719,6.203 1.504,1.453 2.566,3.375 3.762,5.133 0.594,0.875 0.957,1.906 1.582,2.757 0.254,0.348 1.012,0.664 1.363,0.528 0.578,-0.223 1.301,-0.742 1.453,-1.281 0.219,-0.797 0.211,-1.809 -0.094,-2.567 -0.671,-1.644 -1.359,-3.375 -2.441,-4.742 -4.105,-5.149 -9.133,-9.035 -15.719,-10.414 -3.304,-0.699 -6.664,-1.168 -9.996,-1.742 -0.699,-0.118 -1.422,-0.168 -2.097,-0.379 -4.266,-1.317 -8.93,-2.34 -11.434,-6.367 -3.16,-5.067 -4.859,-10.711 -3.813,-16.856 0.032,-0.156 0.18,-0.289 0.481,-0.746 0.66,0.313 1.769,0.48 1.988,1.016 0.61,1.468 0.817,3.097 1.235,4.648 1.886,7.004 6.355,11.43 13.347,13.195 4.492,1.125 9.028,2.075 13.52,3.184 3.812,0.945 7.515,2.203 10.816,4.469 4.696,3.218 8.16,7.39 10.235,12.734 0.644,1.652 1.414,3.27 2.312,4.793 0.274,0.457 1.27,0.828 1.793,0.691 0.551,-0.144 1.195,-0.886 1.324,-1.472 0.188,-0.817 0.11,-1.801 -0.187,-2.586 -0.559,-1.504 -1.481,-2.863 -2.039,-4.363 -4.051,-10.981 -12.86,-16.227 -23.313,-19.36 -4.258,-1.273 -8.648,-2.094 -12.976,-3.125 -7.754,-1.855 -10.907,-5.687 -11.442,-14.211 2.285,-1.425 2.914,-3.832 3.348,-6.597 0.961,-6.016 1.527,-12.039 1.691,-18.125 0.164,-5.93 1.711,-13.758 3.559,-18.547 1.09,-0.16 2.297,-0.473 3.512,-0.492 7.132,-0.114 14.238,-0.438 21.296,-1.579 2.801,-0.453 5.692,-0.418 8.536,-0.418 8.054,-0.003 16.004,-0.867 23.898,-2.453 3.137,-0.625 6.313,-1.105 9.481,-1.597 5.992,-0.922 11.91,-2.133 17.718,-3.946 9.184,-2.859 18.496,-5.32 27.66,-8.238 5.426,-1.726 10.739,-3.851 15.989,-6.062 11,-4.633 21.972,-9.321 32.867,-14.211 8.562,-3.84 15.816,-9.582 22.199,-16.461 2.668,-2.875 5.664,-5.485 8.051,-8.574 3.922,-5.083 7.476,-10.454 11.168,-15.711 1.129,-1.61 2.137,-3.305 3.312,-4.875 8.094,-10.786 13.204,-22.817 15.215,-36.184 0.61,-4.059 1.5,-8.082 2.219,-12.133 0.25,-1.398 0.402,-2.828 0.5,-4.25 0.355,-5.168 0.594,-10.34 1.012,-15.504 0.351,-4.293 0.234,-8.527 -0.27,-12.824 -1.039,-8.906 -2.422,-17.687 -5.551,-26.148 -1.425,-3.848 -2.25,-7.918 -3.632,-11.778 -2.114,-5.879 -4.399,-11.703 -6.758,-17.484 -4.926,-12.078 -10.121,-24.047 -16.145,-35.629 -3.293,-6.344 -6.945,-12.48 -11.336,-18.145 -0.761,-0.988 -1.465,-2.023 -2.117,-3.089 -3.379,-5.493 -7.383,-10.496 -11.637,-15.317 -4.648,-5.269 -10.386,-9.222 -16.043,-13.258 -3.418,-2.441 -7.359,-3.593 -11.566,-3.609 -3.363,-0.016 -6.691,-0.262 -10.094,0.453 -9.093,1.926 -15.715,7.285 -20.992,14.563 -3.68,5.07 -6.578,10.617 -8.988,16.418 -2.117,5.105 -3.789,10.414 -6.809,15.117 -0.472,0.738 -0.762,1.625 -0.988,2.476 -1.524,5.575 -4.399,10.539 -6.953,15.645 -1.36,2.719 -2.824,5.402 -6.262,6.062 -0.621,0.118 -1.219,0.746 -1.676,1.27 -4.699,5.316 -10.472,8.937 -16.941,11.785 -9.305,4.098 -18.531,8.348 -28.281,11.266 -6.825,2.035 -13.645,4.148 -20.586,5.656 -5.899,1.281 -11.973,1.746 -17.965,2.57 -10.098,-0.929 -20.27,-0.746 -30.274,-2.984 -13.429,-3.012 -26.421,-7.25 -39.117,-12.5 -3.293,-1.367 -6.64,-2.606 -9.957,-3.906 -5.945,-2.325 -10.922,-6.02 -14.957,-10.942 -8.375,-10.23 -16.344,-20.777 -22.789,-32.375 -3.117,-5.613 -5.976,-11.379 -8.945,-17.086 -1.067,-2.058 -2.121,-4.133 -3.145,-6.215 -3.09,-6.308 -8.265,-10.695 -13.808,-14.628 -1.649,-1.168 -3.981,-1.368 -5.993,-2.04 -6.039,-2.011 -12.292,-1.871 -18.523,-1.843 -0.863,0.004 -1.793,0.246 -2.562,0.633 -3.821,1.91 -7.629,3.839 -11.375,5.89 -2.809,1.539 -5.516,3.258 -8.262,4.903 -0.613,0.367 -1.285,0.679 -1.797,1.16 -3.606,3.418 -7.438,6.644 -10.691,10.382 -3.141,3.61 -5.801,7.68 -8.461,11.696 -4.426,6.703 -8.84,13.422 -12.973,20.308 -6.52,10.864 -13.523,21.469 -18.648,33.118 -4.333,9.843 -7.481,20.125 -9.399,30.687 -1.465,8.102 -1.379,16.313 0.168,24.52 1.551,8.254 2.656,16.589 5.324,24.586 1.02,3.039 2.231,6.027 3.469,8.988 2,4.762 3.922,9.578 6.195,14.211 4.743,9.66 10.508,18.621 17.879,26.551 5.703,6.136 11.035,12.628 16.465,19.019 1.41,1.656 3.082,2.816 4.887,4.008 7.582,5.019 15.019,10.25 22.445,15.5 4.508,3.191 8.844,6.633 13.363,9.82 2.469,1.746 5.075,3.336 7.75,4.746 9.293,4.903 18.52,9.965 28.012,14.446 9.504,4.476 19.305,8.254 29.676,10.449 8.18,1.73 16.238,4.055 24.379,5.98 3.285,0.774 6.64,1.278 9.976,1.746 6.004,0.836 12.012,1.594 18.028,2.309 4.062,0.484 8.16,0.766 12.222,1.25 2.453,0.285 4.883,0.777 7.082,1.145 m 35.121,-1.204 c -10.207,0.012 -20.296,-1.043 -30.375,-2.195 -3.71,-0.426 -7.363,-1.34 -11.066,-1.84 -9.875,-1.328 -19.773,-2.539 -29.656,-3.84 -3.52,-0.461 -7.129,-0.679 -10.52,-1.644 -10.285,-2.926 -20.75,-5.094 -31.125,-7.617 -8.871,-2.164 -17.258,-5.59 -25.289,-9.953 -6.574,-3.567 -13.222,-6.997 -19.879,-10.415 -5.246,-2.687 -10.3,-5.664 -15.062,-9.148 -9.356,-6.836 -18.68,-13.711 -28.102,-20.449 -4.937,-3.535 -9.718,-7.203 -13.543,-11.996 -2.445,-3.059 -4.863,-6.164 -7.539,-9.016 -6.976,-7.441 -13.398,-15.219 -18.344,-24.262 -6.718,-12.3 -11.984,-25.117 -15.402,-38.699 -0.648,-2.594 -1.058,-5.25 -1.48,-7.894 -1.071,-6.711 -1.918,-13.422 -1.621,-20.27 0.558,-12.902 4.5,-24.93 9.418,-36.648 4.085,-9.731 9.492,-18.813 15.031,-27.762 6.113,-9.867 12.5,-19.559 18.765,-29.328 0.286,-0.449 0.555,-0.918 0.891,-1.332 2.801,-3.473 5.43,-7.106 8.477,-10.34 2.543,-2.695 5.894,-4.547 8.882,-6.723 5.301,-3.867 10.895,-7.465 17.047,-9.953 1.293,-0.527 2.715,-0.996 4.082,-1.012 6.254,-0.078 12.457,0.461 18.477,2.317 1.176,0.363 2.484,0.715 3.387,1.484 4.332,3.711 8.617,7.492 11.261,12.731 2.813,5.582 5.676,11.133 8.457,16.726 3.657,7.371 8.008,14.336 12.727,21.043 4,5.692 8.402,11.094 12.531,16.692 3.91,5.281 8.742,9.425 14.684,12.156 3.875,1.785 7.972,3.082 11.851,4.863 8.45,3.875 17.274,6.699 26.133,9.348 11.606,3.469 23.363,6.394 35.613,6.426 1.957,0.004 3.946,-0.18 5.872,0.078 8.464,1.148 16.687,-0.371 24.843,-2.293 5.192,-1.231 10.328,-2.723 15.403,-4.383 9.293,-3.039 18.816,-5.391 27.691,-9.715 2.938,-1.43 5.887,-3.484 9.539,-2.984 0.43,0.058 0.953,-0.395 1.414,-0.649 7.414,-4.097 13.66,-9.644 19.485,-15.726 2.507,-2.621 4.785,-5.653 5.464,-9.078 1.129,-5.692 3.422,-10.829 5.762,-16.016 1.762,-3.91 3.742,-7.742 5.164,-11.773 1.926,-5.454 4.758,-10.344 7.856,-15.168 3.488,-5.43 8.234,-9.579 13.82,-12.34 7.785,-3.848 16.09,-3.457 23.684,0.527 4.496,2.363 8.527,5.856 12.277,9.367 5.465,5.133 9.855,11.235 14.176,17.387 7.101,10.109 13.308,20.738 18.574,31.887 4.945,10.476 9.297,21.246 13.902,31.886 0.356,0.821 0.688,1.657 0.957,2.504 2.68,8.328 5.481,16.618 7.961,25.004 2.75,9.305 3.977,18.867 3.758,28.582 -0.066,2.852 -0.688,5.692 -0.719,8.539 -0.094,8.985 -1.457,17.821 -3.152,26.582 -2.27,11.692 -6.309,22.649 -13.738,32.215 -4.809,6.192 -9.223,12.699 -13.664,19.18 -4.586,6.687 -10.332,12.273 -16.364,17.562 -2.926,2.575 -6.218,4.84 -9.64,6.684 -6.426,3.461 -12.996,6.656 -19.887,9.141 -4.188,1.511 -8.316,3.175 -12.481,4.754 -11.484,4.355 -22.746,9.347 -34.808,12.039 -1.035,0.23 -2,0.742 -3.031,1.035 -8.543,2.457 -16.829,5.84 -25.7,7.125 -4.226,0.613 -8.468,1.136 -12.668,1.922 -7.558,1.406 -15.132,2.261 -22.839,2.054 -3.539,-0.097 -7.102,0.426 -10.649,0.782 -5.66,0.562 -11.312,1.218 -16.973,1.839 m -28.71,9.536 c -0.489,-2.649 -0.7,-4.696 0.14,-6.934 6.465,0.133 12.711,0.91 19.016,1.734 0.492,2.289 -0.004,4.098 -0.781,5.86 -0.614,0.199 -1.122,0.539 -1.61,0.508 -5.457,-0.344 -10.918,-0.75 -16.765,-1.168 m 17.414,5.718 c 0.117,2.535 -0.172,3.254 -1.61,3.274 -2.461,0.027 -4.933,-0.153 -7.398,-0.254 -2.293,-0.09 -4.598,-0.113 -6.875,-0.356 -0.492,-0.047 -1.305,-0.914 -1.278,-1.363 0.051,-0.762 0.54,-1.574 1.063,-2.184 0.262,-0.32 0.984,-0.289 1.504,-0.339 4.969,-0.512 9.816,0.136 14.594,1.222 m -13.282,23.438 c 3.215,-0.375 6.352,-1.738 9.77,-1.113 1.398,0.253 1.976,1.23 1.793,2.714 -0.184,1.414 -0.985,2.149 -2.25,2.637 -2.457,0.953 -4.883,0.344 -7.297,-0.09 -2.094,-0.375 -2.219,-0.715 -2.016,-4.148 M 409.5,530.719 c -1.832,2.023 -3.586,2.23 -5.301,2.347 -2.965,0.188 -5.941,0.329 -8.91,0.289 -1.226,-0.015 -1.41,-0.757 -1.23,-3.636 4.968,-0.559 9.929,-0.809 15.441,1 m -14.812,7.418 c 4.542,-0.367 8.542,-0.699 12.554,-1.004 0.336,-0.024 0.723,0.055 1.012,0.215 0.269,0.156 0.617,0.511 0.598,0.746 -0.043,0.48 -0.262,1.336 -0.485,1.359 -4.172,0.469 -8.347,0.879 -12.535,1.141 -0.262,0.015 -0.605,-1.266 -1.144,-2.457" /><path
         id="path16"
         style="fill:#171717;fill-opacity:1;fill-rule:nonzero;stroke:none"
         d="m 622.762,374.66 c -0.375,-2.762 -0.668,-5.066 -0.992,-7.363 -1.266,-8.844 -6.192,-14.973 -13.977,-18.981 -4.898,-2.515 -9.793,-5.046 -14.73,-7.488 -7.5,-3.711 -15.032,-7.344 -22.555,-11.008 -5.762,-2.804 -11.442,-5.785 -17.301,-8.371 -12.891,-5.703 -26.262,-9.972 -40.023,-13.039 -5.383,-1.195 -10.735,-2.387 -16.27,-2.785 -3.105,-0.223 -6.027,0.043 -8.93,0.961 -3.218,1.023 -6.379,2.297 -9.648,3.141 -5.734,1.488 -9.828,5.015 -12.551,10.07 -4.387,8.141 -7.101,16.605 -5.336,26.172 0.703,3.781 1.727,7.238 3.696,10.472 3.726,6.086 7.64,11.989 12.847,16.997 4.481,4.316 8.528,9.085 12.848,13.578 3.359,3.496 7.433,6.004 11.551,8.543 8.394,5.171 17.429,8.925 26.504,12.543 6.421,2.562 13.148,4.382 20.046,5.398 5.457,0.805 10.883,1.859 16.34,2.645 2.094,0.296 4.289,0.429 6.375,0.16 6.352,-0.828 12.664,-1.918 19,-2.836 16.907,-2.461 31.293,-19.52 32.688,-33.391 0.191,-1.945 0.304,-3.902 0.418,-5.418 M 497.203,310.223 c 2.645,0.293 5.34,0.367 7.926,0.933 6.598,1.442 13.262,2.766 19.711,4.75 10.363,3.192 20.687,6.59 30.508,11.289 5.945,2.836 11.843,5.77 17.73,8.735 11.121,5.605 22.192,11.312 33.336,16.871 5.863,2.918 9.199,7.551 10.621,13.902 2.442,10.906 0.317,20.547 -7.367,28.793 -1.336,1.438 -2.699,2.844 -4.078,4.238 -5.102,5.141 -11.524,7.653 -18.422,9.032 -4.535,0.902 -9.125,1.593 -13.723,2.101 -3.519,0.387 -7.152,0.86 -10.621,0.399 -7.929,-1.055 -15.886,-2.239 -23.648,-4.121 -12.348,-2.993 -23.731,-8.536 -34.84,-14.641 -6.805,-3.738 -12.676,-8.555 -17.746,-14.414 -2.676,-3.102 -5.496,-6.078 -8.188,-9.172 -2.453,-2.82 -4.742,-5.781 -7.246,-8.559 -4.769,-5.296 -6.898,-11.472 -6.84,-18.578 0.016,-2.324 -0.089,-4.597 0.372,-6.91 0.984,-4.992 2.949,-9.492 5.742,-13.738 2.054,-3.133 4.605,-5.352 8.203,-6.426 3.234,-0.969 6.465,-2.004 9.633,-3.172 2.91,-1.062 5.855,-1.465 8.937,-1.312" /><path
         id="path18"
         style="fill:#171717;fill-opacity:1;fill-rule:nonzero;stroke:none"
         d="m 281.66,429.582 c 4.442,-0.289 8.934,-0.227 13.297,-0.941 7.691,-1.262 14.539,-4.586 20.504,-9.684 4.766,-4.074 8.973,-8.676 12.941,-13.512 0.45,-0.55 0.918,-1.121 1.227,-1.75 3.504,-7.246 6.809,-14.55 7.758,-22.687 0.836,-7.141 0.965,-14.274 -0.059,-21.391 -1.527,-10.609 -5.34,-20.359 -11.406,-29.168 -3.383,-4.902 -7.902,-8.679 -12.91,-11.879 -7.629,-4.871 -16.121,-7.465 -24.801,-9.574 -0.52,-0.129 -1.059,-0.18 -1.586,-0.215 -10.492,-0.644 -20.988,-1.246 -31.437,0.453 -5.114,0.829 -10.094,2.172 -14.747,4.536 -2.539,1.285 -5.168,2.484 -7.5,4.097 -8.953,6.207 -15.355,14.301 -17.492,25.262 -1.023,5.254 -1.531,10.613 -2.668,15.84 -1.254,5.801 0.106,11.379 0.864,17.008 0.867,6.425 3.07,12.476 5.675,18.371 1.735,3.91 3.301,7.968 5.621,11.515 2.715,4.157 6.039,7.914 9.872,11.192 7.41,6.34 16.164,9.5 25.578,11.277 7.054,1.332 14.117,1.859 21.269,1.25 m -0.484,-4.25 c -0.004,-0.051 -0.008,-0.105 -0.008,-0.156 -1.426,0.023 -2.859,-0.043 -4.27,0.094 -6.46,0.621 -12.828,-0.012 -19.054,-1.676 -9.403,-2.528 -18.063,-6.41 -24.813,-13.875 -3.301,-3.649 -5.355,-7.961 -7.633,-12.192 -5.074,-9.414 -7.714,-19.55 -8.824,-30.129 -0.168,-1.574 -0.066,-3.226 0.188,-4.793 0.972,-5.992 2.164,-11.949 3.086,-17.941 0.812,-5.301 3.234,-9.758 6.386,-13.957 5.481,-7.301 13.086,-11.371 21.383,-14.457 5.094,-1.891 10.449,-2.09 15.762,-2.57 11.976,-1.09 23.851,-0.559 35.312,3.429 9.383,3.262 17.926,7.981 23.879,16.329 3.965,5.566 6.629,11.824 8.598,18.335 1.383,4.61 2.215,9.313 2.414,14.204 0.188,4.675 -0.102,9.269 -0.465,13.894 -0.683,8.617 -4.066,16.305 -8.863,23.223 -2.91,4.195 -6.82,7.769 -10.609,11.25 -2.602,2.386 -5.625,4.414 -8.735,6.09 -3.418,1.843 -6.941,3.695 -10.953,4.011 -4.258,0.336 -8.519,0.598 -12.781,0.887" /><path
         id="path20"
         style="fill:#171717;fill-opacity:1;fill-rule:nonzero;stroke:none"
         d="m 489.246,428.297 c -1.48,0.117 -2.555,0.148 -3.609,0.308 -2.121,0.325 -3.453,1.571 -4.184,3.622 -1.84,5.211 -0.109,9.109 4.871,11.433 3.196,1.492 6.637,2.496 10.008,3.582 5.922,1.906 11.856,3.801 17.832,5.531 5.125,1.477 10.297,2.778 15.481,4.012 1.343,0.32 2.886,0.375 4.226,0.063 2.781,-0.645 5.719,-1.508 6.547,-4.723 0.738,-2.898 -1.27,-7.238 -4.039,-8.645 -3.481,-1.761 -7.125,-3.207 -10.75,-4.656 -2.801,-1.121 -5.656,-2.109 -8.531,-3.027 -7.285,-2.313 -14.575,-4.629 -21.907,-6.766 -2.019,-0.59 -4.226,-0.539 -5.945,-0.734 m 1.074,5.023 c 0.438,0.059 1.332,0.125 2.192,0.317 4.5,1 9.078,1.758 13.472,3.113 6.95,2.141 13.793,4.637 20.649,7.086 2.172,0.769 4.277,1.758 6.332,2.809 2.008,1.023 2.863,2.48 2.308,3.687 -0.781,1.703 -2.378,1.949 -4.015,2.016 -0.356,0.015 -0.715,-0.02 -1.063,-0.09 -4.527,-0.903 -9.136,-1.524 -13.558,-2.793 -8.024,-2.293 -15.949,-4.945 -23.887,-7.524 -1.676,-0.546 -3.316,-1.304 -4.832,-2.207 -2.012,-1.191 -2.582,-2.699 -2.02,-4.437 0.43,-1.352 1.711,-1.984 4.422,-1.977" /><path
         id="path22"
         style="fill:#171717;fill-opacity:1;fill-rule:nonzero;stroke:none"
         d="m 420.438,473.527 c 4.628,-0.082 9.257,-0.089 13.882,-0.257 5.332,-0.2 10.664,-0.571 16,-0.801 2.305,-0.102 4.625,0.004 6.938,-0.059 1.16,-0.027 2.039,-0.609 2.308,-1.816 0.278,-1.203 -0.554,-2.582 -1.785,-2.895 -0.676,-0.176 -1.394,-0.25 -2.097,-0.238 -1.243,0.004 -2.489,0.121 -3.735,0.168 -10.672,0.367 -21.34,0.836 -32.008,1.051 -5.859,0.121 -11.714,0.097 -17.589,-0.524 -6.172,-0.644 -12.426,-0.539 -18.649,-0.773 -1.598,-0.067 -3.242,0.031 -4.785,-0.313 -5.031,-1.121 -10.059,-2.3 -15.027,-3.675 -4.282,-1.188 -8.477,-2.633 -12.911,-3.278 -1.71,-0.246 -3.332,-1.16 -4.992,-1.781 -0.836,-0.313 -1.636,-0.746 -2.496,-0.938 -0.937,-0.207 -1.758,0.165 -2.187,1.094 -0.469,0.992 -0.012,1.852 0.816,2.242 2.727,1.297 5.461,2.661 8.313,3.618 4.886,1.64 9.796,3.453 14.839,4.359 7.489,1.348 14.844,3.602 22.598,3.387 3.906,-0.11 7.824,0.375 11.738,0.531 6.942,0.269 13.883,0.496 20.821,0.738 0,0.055 0.004,0.106 0.008,0.16" /><path
         id="path24"
         style="fill:#171717;fill-opacity:1;fill-rule:nonzero;stroke:none"
         d="m 422.512,450.66 c -5.324,0.32 -10.637,0.86 -15.957,0.895 -4.246,0.035 -8.504,-0.485 -12.746,-0.864 -7.434,-0.664 -14.86,-1.402 -22.289,-2.121 -0.528,-0.05 -1.047,-0.222 -1.579,-0.273 -1.195,-0.117 -2.078,0.379 -2.503,1.519 -0.34,0.918 0.386,2.032 1.652,2.301 3.473,0.75 6.976,1.367 10.461,2.086 12.332,2.539 24.777,1.949 37.222,1.414 2.133,-0.09 4.262,-0.015 6.395,-0.125 0.656,-0.031 1.586,-0.215 1.883,-0.668 0.543,-0.828 1.058,-1.953 0.937,-2.859 -0.144,-1.074 -1.234,-1.668 -2.433,-1.668 -0.352,0 -0.707,0.012 -1.063,0.016 0.008,0.117 0.016,0.23 0.02,0.347" /><path
         id="path26"
         style="fill:#171717;fill-opacity:1;fill-rule:nonzero;stroke:none"
         d="m 590.125,398.945 c 9.777,-0.07 17.734,-6.836 19.871,-15.91 1.934,-8.191 -0.148,-15.551 -5.808,-21.226 -7.536,-7.563 -17.77,-10.188 -27.708,-1.875 -3.738,3.129 -6.812,6.777 -7.75,11.82 -0.433,2.32 -0.578,4.656 0.153,6.883 1.379,4.242 2.933,8.394 6.531,11.429 1.758,1.477 3.625,3.094 4.684,5.067 1.211,2.23 2.871,2.957 5.074,3.215 1.941,0.226 3.879,0.465 4.953,0.597 m -0.328,-38.906 c 8.73,0.258 17.203,8.535 16.613,18.133 -0.281,4.516 -2.265,8.117 -5.265,11.383 -4.317,4.699 -11.086,6.3 -16.446,3.175 -5.707,-3.332 -9.933,-8.117 -11.578,-14.718 -0.418,-1.66 -0.523,-3.66 0.008,-5.242 2.562,-7.7 8.836,-12.547 16.668,-12.731" /><path
         id="path28"
         style="fill:#171717;fill-opacity:1;fill-rule:nonzero;stroke:none"
         d="m 513.336,342.211 c -0.012,-4.652 -1.098,-8.602 -2.957,-12.301 -4.234,-8.43 -15.832,-11.687 -23.816,-6.722 -3.618,2.25 -7.286,4.437 -9.715,8.183 -2,3.078 -3.082,6.328 -3.11,10.039 -0.027,4.024 1.121,7.774 2.43,11.449 0.965,2.727 3.039,4.825 5.441,6.446 1.477,0.996 3.016,1.906 4.606,2.691 3.75,1.852 7.629,2.945 11.84,1.692 1.015,-0.301 2.093,-0.461 3.152,-0.555 1.504,-0.125 2.828,-0.68 3.762,-1.797 4.761,-5.664 9.047,-11.563 8.367,-19.125 m -19.277,16.785 c -0.008,0.078 -0.012,0.152 -0.016,0.227 -2.285,-0.274 -4.801,-0.028 -6.797,-0.93 -3.41,-1.551 -6.598,-3.844 -7.644,-7.781 -1.282,-4.824 -2.813,-9.758 -0.211,-14.625 0.746,-1.391 1.781,-2.731 2.984,-3.735 2.055,-1.707 4.23,-3.32 6.547,-4.629 6.266,-3.535 15.621,-0.757 18.258,5.786 2.457,6.101 3.433,12.461 -1.028,18.343 -0.531,0.707 -1.004,1.493 -1.375,2.297 -1.593,3.461 -4.218,5.188 -8.05,5.012 -0.887,-0.043 -1.782,0.019 -2.668,0.035" /><path
         id="path30"
         style="fill:#171717;fill-opacity:1;fill-rule:nonzero;stroke:none"
         d="m 561.066,356.805 c -0.273,-2.758 -0.683,-5.356 -1.66,-7.914 -2.922,-7.664 -7.992,-11.461 -16.156,-11.606 -12.934,-0.226 -20.379,7.867 -21.332,19.844 -0.527,6.625 1.066,12.609 5.285,18.027 5.652,7.258 17.586,8.266 23.684,1.907 2.465,-2.571 4.84,-5.239 7.121,-7.977 0.758,-0.922 1.316,-2.156 1.566,-3.336 0.625,-2.953 1.008,-5.961 1.492,-8.945 m -35.222,3.422 c 0.179,-1.762 0.199,-3.571 0.586,-5.289 0.968,-4.348 3.281,-8.2 7.039,-10.297 5.293,-2.961 11.121,-3.43 16.867,-0.645 1.66,0.801 2.879,1.969 3.82,3.563 3.367,5.742 3.75,17.082 -2.504,22.265 -0.675,0.559 -1.269,1.258 -1.785,1.977 -2.219,3.101 -5.41,4.433 -8.996,5.164 -4.035,0.816 -7.371,-0.274 -9.945,-3.516 -3.067,-3.855 -5.094,-8.125 -5.082,-13.222" /><path
         id="path32"
         style="fill:#171717;fill-opacity:1;fill-rule:nonzero;stroke:none"
         d="m 228.328,376.922 c 2.473,0.656 4.344,1.148 6.645,1.758 0.793,1.437 1.797,3.105 2.636,4.855 2.993,6.203 7.188,11.477 12.305,16.004 1.445,1.281 3.219,2.191 4.871,3.227 2.801,1.757 3.16,2.781 2.082,6.23 -0.105,0.344 -0.355,0.633 -0.441,0.973 -0.305,1.14 0.183,2.156 1.387,2.445 3.968,0.969 7.941,1.945 11.949,2.715 2.789,0.531 5.633,0.742 8.461,1.062 2.535,0.289 3.511,-0.515 3.902,-3.171 0.285,-1.911 -0.199,-3.942 1.07,-6.075 1.172,-0.175 2.532,-0.519 3.895,-0.55 2.773,-0.067 5.207,-1 7.5,-2.465 6.211,-3.973 10.863,-9.153 12.871,-16.45 0.414,-1.519 1.078,-2.968 1.664,-4.546 1.574,-0.243 2.973,-0.399 4.344,-0.684 1.554,-0.324 2.558,-1.32 2.644,-2.937 0.34,-6.77 1.391,-13.516 0.575,-20.309 -0.387,-3.219 -0.637,-3.418 -3.899,-3.969 -0.851,-0.144 -1.695,-0.305 -2.449,-0.437 -1.727,-11.118 -9.047,-16.684 -18.531,-20.231 -0.996,-0.375 -2.032,-0.644 -3.043,-0.98 -0.161,-0.055 -0.301,-0.199 -0.86,-0.586 -0.293,-2.621 -0.625,-5.578 -0.929,-8.293 -1.618,-1.649 -3.454,-1.75 -5.196,-1.692 -4.133,0.133 -8.156,-0.539 -12.183,-1.269 -0.352,-0.067 -0.703,-0.129 -1.055,-0.172 -7.449,-1 -7.539,-0.934 -9.344,6.797 -1.398,0.519 -3.054,1.07 -4.664,1.742 -2.125,0.887 -4.344,1.656 -6.293,2.852 -4.515,2.777 -8.023,6.457 -9.433,11.804 -0.5,1.871 -1.223,3.688 -1.93,5.797 -2.531,-0.203 -4.918,-0.398 -7.234,-0.582 -0.411,0.766 -0.887,1.235 -0.875,1.688 0.238,8.336 -1.11,16.664 -0.442,25.449 m 36.461,-49.957 c 3.074,-1.067 5.828,0.156 8.613,0.433 2.965,0.301 6.036,0.012 9.036,1.153 0.878,2.097 0.921,4.304 0.523,6.355 -1.258,6.524 0.187,13.235 -1.598,19.723 -0.601,2.203 0.465,3.367 2.77,3.57 3.363,0.297 6.75,0.375 10.117,0.641 4.25,0.332 8.5,0.781 12.754,1.137 1.758,0.144 3.59,-0.028 5.176,1.66 0.711,4.929 0.566,10.015 -0.817,15.211 -0.703,0.175 -1.375,0.492 -2.047,0.492 -8.707,-0.027 -17.429,0.633 -26.132,-0.27 -2.317,-0.238 -3.219,0.618 -3.368,2.973 -0.023,0.355 0.016,0.715 0,1.07 -0.3,6.422 -0.515,12.852 -0.945,19.266 -0.219,3.328 -0.203,6.746 -1.711,10.019 -4.394,0.067 -8.617,-0.05 -12.773,-1.23 -1.571,-0.445 -2.461,-1.352 -2.633,-2.957 -0.098,-0.891 -0.16,-1.781 -0.195,-2.672 -0.262,-8.035 -0.5,-16.07 -0.786,-24.109 -0.066,-1.746 0.301,-3.606 -1.097,-5.356 -2.153,-0.984 -4.633,-1.078 -7.106,-0.808 -5.875,0.629 -11.73,0.14 -17.59,-0.149 -0.648,-0.031 -1.277,-0.476 -2.203,-0.844 -0.199,-5.382 -0.086,-10.648 0.754,-15.886 0.801,-0.172 1.34,-0.461 1.801,-0.364 7.629,1.571 15.266,0.579 22.902,0.149 2.329,-0.133 3.075,-0.934 3.364,-3.305 0.082,-0.703 0.047,-1.429 0.093,-2.14 0.43,-6.778 0.84,-13.559 2.176,-20.239 0.238,-1.203 0.617,-2.375 0.922,-3.523 m 18.649,74.75 c -0.485,-3.391 -0.278,-6.41 0.261,-9.367 0.563,-3.09 -0.453,-6.418 1.196,-9.282 7.371,-1.078 13.851,-1.007 18.554,0.168 -1,10.551 -9.859,18.95 -20.011,18.481 m 21.835,-47.352 c -3.179,0.961 -6.066,0.203 -8.992,-0.445 -3.047,-0.68 -6.304,-0.055 -9.218,-1.18 -0.825,-8.613 -0.661,-10.883 1.07,-14.355 1.144,0.199 2.433,0.195 3.527,0.66 4.266,1.82 8.07,4.379 11.051,7.992 1.711,2.067 2.84,4.399 2.562,7.328 m -47.582,-19.922 c 1.137,2.039 0.235,3.77 0.157,5.5 -0.082,1.961 -0.098,3.918 -0.235,5.872 -0.129,1.746 -0.121,3.574 -1.773,5.109 -4.5,0.43 -9.18,1.355 -13.891,0.379 -0.164,-8.86 5.59,-14.992 15.742,-16.86 m -2.14,44.817 c 0.902,4.785 1.012,14.246 0.207,17.715 -3.164,-0.59 -4.68,-1.614 -7.977,-5.387 -4.218,-4.832 -6.551,-9.195 -6.773,-12.723 5.246,-0.84 11.152,-0.679 14.543,0.395" /><path
         id="path34"
         style="fill:#171717;fill-opacity:1;fill-rule:nonzero;stroke:none"
         d="m 271.555,357.875 c -3.254,0.254 -6.012,1.613 -7.965,4.426 -1.055,1.519 -1.496,3.203 -1.059,5.047 0.199,0.863 0.407,1.726 0.633,2.59 1.231,4.812 4.316,6.703 9.078,5.57 3.481,-0.832 6.926,-4.699 7.363,-8.27 0.598,-4.816 -3.273,-9.379 -8.05,-9.363 m -0.465,4.961 c 2.133,-0.035 3.941,1.535 3.973,3.441 0.039,2.485 -2.079,4.614 -4.743,4.762 -2.074,0.117 -3.535,-1.418 -3.55,-3.726 -0.016,-2.379 1.972,-4.438 4.32,-4.477" /></g></g></svg>