<?xml version="1.0" encoding="UTF-8" standalone="no"?>
<svg
   xmlns:dc="http://purl.org/dc/elements/1.1/"
   xmlns:cc="http://creativecommons.org/ns#"
   xmlns:rdf="http://www.w3.org/1999/02/22-rdf-syntax-ns#"
   xmlns:svg="http://www.w3.org/2000/svg"
   xmlns="http://www.w3.org/2000/svg"
   viewBox="0 0 100 100"
   height="100"
   width="100"
   xml:space="preserve"
   version="1.1"
   id="svg2"><metadata
     id="metadata8"><rdf:RDF><cc:Work
         rdf:about=""><dc:format>image/svg+xml</dc:format><dc:type
           rdf:resource="http://purl.org/dc/dcmitype/StillImage" /></cc:Work></rdf:RDF></metadata><defs
     id="defs6" /><g
     transform="matrix(1.25,0,0,-1.25,0,100)"
     id="g10"><g
       transform="scale(0.1,0.1)"
       id="g12"><path
         id="path14"
         style="fill:#1b181a;fill-opacity:1;fill-rule:nonzero;stroke:none"
         d="m 410.34,440.621 c 6.492,0 11.176,-3.558 12.851,-9.762 2.489,-9.226 5.344,-20.187 7.61,-31.492 1.39,-6.894 2.539,-13.953 3.648,-20.777 0.824,-5.094 1.68,-10.36 2.633,-15.516 1.047,-5.691 2.133,-11.574 4.199,-17.008 2.602,-6.851 6.032,-13.535 9.344,-20.007 l 0.406,-0.789 c 1.465,-2.872 3.321,-5.379 5.364,-7.254 3.613,-3.313 7.718,-6.586 12.558,-10 2.348,-1.653 5.082,-2.957 7.695,-3.653 9.047,-2.441 19.004,-3.847 30.442,-4.312 5.613,-0.223 11.336,-0.281 16.859,-0.34 2.727,-0.023 5.446,-0.047 8.164,-0.094 1.004,-0.019 2.004,-0.031 2.996,-0.031 7.52,0 16.313,0.547 24.536,4.574 1.394,0.684 3.246,1.524 5.156,2.028 10.801,2.843 19.976,8.48 30.008,15 12.054,7.835 22.242,18.683 31.16,33.175 4.117,6.707 7.215,14.356 9.449,23.391 0.543,2.187 1.301,4.34 2.031,6.422 0.555,1.566 1.125,3.195 1.59,4.804 0.371,1.27 0.754,2.532 1.141,3.797 1.254,4.121 2.547,8.379 3.222,12.645 1.422,8.863 2.504,17.945 3.539,26.734 l 0.75,6.274 c 0.563,4.699 3.047,8.422 7.383,11.07 1.364,0.824 2.789,1.563 4.168,2.262 1.324,0.687 2.703,1.386 3.988,2.164 0.571,0.347 1.157,0.676 1.739,1.004 2.765,1.582 5.39,3.066 6.922,6.078 4.582,8.976 4.101,18.062 -1.465,27.769 -2.508,4.364 -5.981,7.371 -9.789,8.465 -5.34,1.543 -11.047,3.043 -16.887,3.043 -1.723,0 -3.418,-0.133 -5.031,-0.394 -1.133,-0.18 -2.321,0.023 -3.442,0.23 -0.988,0.184 -1.914,0.356 -2.8,0.266 -0.821,-0.082 -1.649,-0.438 -2.516,-0.817 -0.992,-0.422 -2.008,-0.867 -3.094,-0.918 -7.074,-0.379 -14.242,-0.504 -21.578,-0.605 -9.371,-0.133 -18.75,-0.234 -28.129,-0.344 -7.988,-0.09 -15.98,-0.18 -23.972,-0.285 -1.829,-0.02 -3.661,-0.098 -5.489,-0.176 -2.715,-0.109 -5.527,-0.234 -8.304,-0.16 -5.481,0.125 -10.954,0.32 -16.434,0.512 -8.301,0.301 -16.875,0.605 -25.309,0.648 -13.957,0.074 -28.144,-0.289 -41.879,-0.648 l -2.804,-0.074 c -2.571,-0.067 -5.375,-0.633 -7.883,-1.61 -10.691,-4.148 -22.297,-8.316 -34.746,-10.644 -11.985,-2.239 -24.227,-2.762 -36.762,-3.129 -1.207,-0.039 -2.406,-0.059 -3.601,-0.059 -7.262,0 -13.274,0.723 -18.926,2.277 -1.668,0.461 -3.34,0.942 -5.008,1.411 -4.398,1.25 -8.938,2.539 -13.453,3.543 -15.34,3.39 -29.235,5.039 -42.473,5.039 -1.226,0 -2.445,-0.016 -3.672,-0.043 -2.957,-0.078 -5.91,0.011 -8.863,0.093 -1.152,0.04 -2.305,0.067 -3.453,0.09 -4.086,0.078 -8.168,0.207 -12.25,0.328 -8.875,0.278 -18.047,0.563 -27.063,0.364 -12.535,-0.27 -25.277,-0.95 -37.605,-1.61 -4.621,-0.246 -9.242,-0.496 -13.859,-0.722 l -2.067,-0.106 c -6.805,-0.34 -13.859,-0.687 -20.777,-0.687 -10.137,0 -18.481,0.75 -26.266,2.363 -0.929,0.191 -2.203,0.027 -3.226,-0.141 -0.278,-0.043 -0.543,-0.086 -0.789,-0.117 l -0.969,-2.484 c -1.02,-2.613 -1.934,-4.953 -2.828,-7.309 -0.11,-0.273 -0.223,-0.547 -0.34,-0.82 -0.328,-0.785 -0.649,-1.531 -0.715,-2.274 -0.816,-8.121 -0.309,-14.699 1.59,-20.691 1.113,-3.519 2.82,-5.621 5.355,-6.609 0.645,-0.25 1.289,-0.512 1.934,-0.77 2.898,-1.16 5.887,-2.359 8.91,-2.98 2.113,-0.438 3.527,-1.321 4.719,-2.95 2.652,-3.628 4.324,-7.492 5.121,-11.808 1.961,-10.695 5.226,-20.985 9.711,-30.594 2.203,-4.73 4.359,-9.484 6.504,-14.246 0.418,-0.926 0.808,-1.859 1.195,-2.793 0.555,-1.309 1.109,-2.664 1.738,-3.945 0.938,-1.91 1.926,-3.789 2.922,-5.672 1.883,-3.574 3.828,-7.262 5.324,-11.078 2.957,-7.61 7.504,-14.442 11.911,-21.043 l 1.714,-2.59 c 6.469,-9.777 15.883,-17.945 29.614,-25.68 9.019,-5.082 19.343,-7.59 29.34,-10.019 l 3.39,-0.828 c 4.524,-1.122 9.051,-1.262 12.481,-1.262 1.972,0 3.949,0.051 5.925,0.109 2.469,0.067 4.942,0.125 7.399,0.094 l 0.351,-0.004 c 5.762,0 10.926,1.945 16.395,4.012 1.238,0.465 2.477,0.933 3.73,1.383 10.622,3.781 18.782,8.086 25.688,13.558 4.883,3.863 10.48,8.438 15.148,13.75 8.965,10.215 14.141,22.16 19.977,36.711 4.766,11.887 8.676,24.594 11.965,38.844 1.801,7.805 6.562,14.644 14.554,20.922 0.336,0.261 0.668,0.543 1.008,0.828 1.254,1.066 2.559,2.168 4.086,2.5 4.649,1.004 9.91,2.144 15.106,2.199 l 0.16,0 z m 116.969,-134.894 0,0 c -4.305,0 -8.883,0.187 -14.418,0.601 -8.547,0.641 -17.723,1.375 -26.926,2.465 -6.629,0.781 -12.067,2.883 -16.61,6.406 -5.449,4.231 -11.621,9.024 -15.406,15.989 -1.207,2.23 -2.57,4.882 -3.547,7.628 -0.562,1.606 -1.136,3.2 -1.711,4.793 -2.32,6.469 -4.722,13.161 -6.562,19.895 -1.422,5.199 -2.371,11.086 -3.012,18.519 -1.082,12.786 -4.015,25.352 -7.027,37.028 -0.434,1.679 -0.817,3.371 -1.195,5.066 -0.555,2.418 -1.122,4.926 -1.832,7.328 -2.243,7.7 -9.915,15.985 -21.422,15.985 -1.086,0 -2.203,-0.078 -3.321,-0.223 -8.59,-1.129 -15.992,-4.809 -23.3,-11.594 -6.762,-6.277 -9.043,-14.179 -11.461,-22.543 l -0.403,-1.382 c -4.375,-15.067 -8.461,-28.625 -14.199,-41.922 -2.508,-5.821 -5.922,-11.985 -10.746,-19.399 -10.762,-16.535 -26.688,-28.008 -48.699,-35.058 -10.465,-3.344 -21.59,-4.258 -32.86,-2.692 -23.894,3.324 -42.578,11.778 -57.125,25.86 -5.496,5.308 -10.308,11.867 -14.324,19.488 -1.078,2.047 -2.168,4.082 -3.262,6.121 -4.476,8.352 -9.113,16.988 -12.578,26.082 -2.062,5.414 -4.343,10.859 -6.547,16.129 -2.523,6.019 -5.132,12.246 -7.433,18.473 -1.524,4.113 -2.594,8.457 -3.625,12.652 -0.664,2.703 -1.352,5.492 -2.149,8.191 -0.718,2.403 -1.757,5.45 -3.543,7.7 -1.097,1.398 -3.324,2.183 -5.277,2.882 l -0.312,0.11 c -1.817,0.648 -3.731,1.152 -5.582,1.64 -1.27,0.328 -2.54,0.657 -3.793,1.039 -2.782,0.848 -4.723,2.989 -5.188,5.739 -0.133,0.773 -0.269,1.558 -0.414,2.34 -0.883,4.832 -1.797,9.828 -0.262,14.929 1.246,4.16 2.051,5.727 5.59,5.727 0.684,0 1.508,-0.051 2.695,-0.168 1.989,-0.207 3.981,-0.438 5.961,-0.668 4.907,-0.567 9.981,-1.16 14.965,-1.305 4.492,-0.137 9.059,0.211 13.489,0.543 1.863,0.137 3.722,0.274 5.585,0.383 1.387,0.078 2.778,0.184 4.165,0.285 1.875,0.141 3.75,0.281 5.628,0.363 5.215,0.219 10.434,0.399 15.657,0.575 10.804,0.363 21.976,0.742 32.929,1.527 3.203,0.23 6.582,0.348 10.352,0.348 5.207,0 10.492,-0.223 15.601,-0.43 5.098,-0.211 10.364,-0.43 15.547,-0.43 l 1.508,0 c 9.293,0 19.281,-0.629 30.528,-1.922 7.886,-0.91 16.339,-2.125 24.667,-4.828 8.625,-2.797 18.403,-5.965 28.403,-5.965 l 0.191,0 c 11.133,0.043 21.063,0.422 30.375,1.149 8.379,0.66 16.516,1.812 24.199,3.422 5.196,1.09 10.809,2.918 17.633,5.746 7.996,3.304 16.801,4.933 28.563,5.273 l 4.672,0.129 c 9.738,0.289 19.8,0.578 29.711,0.672 5.093,0.051 10.261,-0.059 15.265,-0.16 3.586,-0.074 7.176,-0.149 10.754,-0.168 5.965,-0.035 11.91,-0.016 17.856,0.004 3.543,0.011 7.086,0.019 10.625,0.019 l 1.019,0 c 3.906,0 7.813,-0.015 11.711,-0.035 6.418,-0.023 12.844,-0.051 19.262,-0.012 2.445,0.012 4.933,0.118 7.347,0.215 3.383,0.137 6.883,0.285 10.321,0.188 5.929,-0.172 11.945,-0.567 17.765,-0.957 2.407,-0.157 4.809,-0.321 7.223,-0.461 0.504,-0.028 1.008,-0.082 1.512,-0.141 0.625,-0.058 1.25,-0.129 1.875,-0.144 0.593,-0.02 1.093,-0.036 1.531,-0.036 2.137,0 2.23,0.192 3.859,3.426 0.094,0.199 0.309,0.356 0.536,0.367 0.89,0.055 1.773,0.079 2.648,0.079 5.598,0 11.336,-0.989 18.602,-3.2 1.324,-0.402 2.628,-0.902 3.261,-1.855 3.426,-5.188 6.489,-10.875 5.723,-17.324 -0.731,-6.164 -3.801,-10.313 -9.121,-12.332 -11.571,-4.399 -17.52,-11.852 -18.192,-22.793 -0.07,-1.125 -0.25,-2.25 -0.425,-3.332 -0.086,-0.528 -0.172,-1.063 -0.246,-1.59 -0.204,-1.469 -0.418,-2.93 -0.633,-4.395 -0.688,-4.738 -1.399,-9.636 -1.633,-14.531 -0.231,-4.844 -1.594,-9.668 -2.914,-14.336 l -0.172,-0.609 c -1.152,-4.086 -2.469,-8.192 -3.738,-12.164 -1.231,-3.856 -2.496,-7.844 -3.633,-11.801 -2.309,-8.149 -6.711,-15.176 -10.652,-21.113 -5.004,-7.551 -10.215,-13.485 -15.938,-18.145 -9.738,-7.937 -20.523,-15.918 -33.441,-20.578 -1.774,-0.633 -3.547,-1.387 -5.258,-2.109 -2.153,-0.903 -4.371,-1.844 -6.625,-2.582 -8.488,-2.79 -17.578,-4.086 -28.617,-4.086" /><path
         id="path16"
         style="fill:#1b181a;fill-opacity:1;fill-rule:nonzero;stroke:none"
         d="m 514.145,474.91 c -0.567,0 -1.149,-0.043 -1.723,-0.074 l -0.246,-0.016 c -2.863,-0.187 -5.727,-0.382 -8.586,-0.586 -6.172,-0.433 -12.559,-0.882 -18.852,-1.148 -6.07,-0.266 -12.246,-0.395 -18.218,-0.527 -4.247,-0.09 -8.493,-0.184 -12.739,-0.317 -3.324,-0.109 -5.453,-1.535 -6.691,-4.48 -1.113,-2.641 -1.106,-5.117 -0.738,-8.278 0.625,-5.285 1.078,-10.671 1.511,-15.882 0.375,-4.411 0.754,-8.969 1.239,-13.43 1.195,-11.117 2.648,-22.242 4.039,-32.613 0.937,-7.043 1.828,-12.411 2.863,-17.403 0.609,-2.918 1.414,-5.855 2.191,-8.699 0.66,-2.422 1.34,-4.93 1.907,-7.43 1.773,-7.91 3.621,-16.086 7.921,-23.371 2.118,-3.562 4.356,-6.527 6.665,-8.793 6.906,-6.773 15.769,-10.781 26.351,-11.914 1.441,-0.156 2.926,-0.222 4.363,-0.285 1.317,-0.062 2.637,-0.109 3.946,-0.234 11.918,-1.125 21.89,-0.434 31.382,2.144 6.731,1.828 13.891,3.977 20.637,7.313 7.535,3.738 14.465,8.23 21.184,13.738 9.187,7.5 16.144,15.676 21.285,24.984 5.797,10.508 9.637,20.965 11.734,31.965 0.703,3.68 1.528,7.403 2.332,10.996 1.676,7.551 3.407,15.356 4.106,23.25 -0.047,2.235 -0.07,4.532 -0.102,6.832 -0.066,5.606 -0.129,11.395 -0.422,17.082 -0.195,3.954 -0.832,7.989 -1.871,11.977 -1.093,4.203 -3.773,6.187 -8.429,6.242 l -0.219,0 c -1.149,0 -2.332,-0.101 -3.469,-0.199 -1.508,-0.125 -3.062,-0.258 -4.621,-0.172 -7.348,0.402 -15.012,0.609 -22.758,0.609 -9.707,0 -19.566,-0.304 -30.152,-0.929 l -0.235,-0.016 c -7.253,-0.426 -14.757,-0.871 -22.156,-0.871 -4.535,0 -8.644,0.164 -12.562,0.5 -0.289,0.023 -0.574,0.035 -0.867,0.035 m 2.347,-149.062 -0.004,0 c -8.761,0 -15.73,0.812 -21.929,2.554 -11.934,3.356 -19.879,10.629 -22.981,21.039 l -0.621,2.086 c -4.269,14.328 -8.684,29.149 -11.219,44.055 -2.605,15.324 -4.297,31.059 -5.933,46.277 -0.653,6.047 -1.301,12.09 -2.008,18.129 -0.129,1.102 -0.035,2.223 0.086,3.52 0.058,0.687 0.125,1.433 0.168,2.273 0.015,0.305 0.25,0.559 0.547,0.59 0.578,0.074 1.132,0.16 1.668,0.238 1.144,0.168 2.222,0.325 3.324,0.379 4.57,0.219 9.137,0.426 13.707,0.629 5.098,0.231 10.195,0.461 15.285,0.711 2.832,0.141 5.656,0.324 8.473,0.516 5.117,0.34 10.398,0.687 15.613,0.742 6.289,0.062 12.715,-0.051 18.918,-0.172 4.582,-0.09 9.332,-0.184 13.996,-0.191 l 0.258,0 c 2.633,0 5.312,0.129 7.906,0.257 2.613,0.125 5.309,0.258 7.973,0.258 l 0.566,0 c 5.539,-0.035 11.176,-0.203 16.617,-0.363 3.145,-0.098 6.289,-0.187 9.438,-0.258 2.148,-0.047 4.308,-0.07 6.465,-0.09 3.343,-0.031 6.797,-0.066 10.195,-0.203 1.199,-0.051 2.387,-0.297 3.531,-0.539 1.086,-0.222 2.11,-0.437 3.157,-0.5 4.035,-0.242 4.722,-3.601 5.089,-5.414 0.391,-1.918 0.461,-3.914 0.528,-5.844 0.14,-4.011 0.281,-8.613 0.32,-13.242 l 0.004,-0.672 c 0.055,-8.183 0.105,-16.648 -1.695,-24.871 -0.371,-1.676 -0.727,-3.359 -1.09,-5.043 -1.426,-6.672 -2.914,-13.578 -4.887,-20.219 -3.215,-10.851 -7.238,-19.14 -12.68,-26.101 -0.855,-1.098 -1.679,-2.223 -2.507,-3.352 -1.965,-2.664 -3.981,-5.418 -6.379,-7.746 -5.063,-4.902 -9.891,-8.906 -14.77,-12.25 -7.758,-5.328 -17.141,-11.093 -27.879,-13.476 -1.371,-0.305 -2.742,-0.629 -4.113,-0.961 -4.969,-1.172 -10.102,-2.391 -15.219,-2.578 -3.094,-0.11 -5.605,-0.168 -7.918,-0.168" /><path
         id="path18"
         style="fill:#1b181a;fill-opacity:1;fill-rule:nonzero;stroke:none"
         d="m 183.121,472.703 c -1.113,0 -2.461,-0.508 -2.828,-1.066 l -0.367,-0.543 c -2.008,-3.031 -4.098,-6.164 -4.117,-10.035 -0.004,-1.7 -0.09,-3.418 -0.176,-5.082 -0.059,-1.075 -0.11,-2.149 -0.145,-3.219 -0.047,-1.473 -0.109,-2.938 -0.168,-4.403 -0.156,-3.82 -0.312,-7.769 -0.261,-11.644 0.093,-7.648 1.531,-14.02 4.527,-20.043 2.105,-4.23 3.574,-8.836 4.992,-13.293 0.695,-2.168 1.406,-4.414 2.184,-6.578 l 0.535,-1.504 c 0.945,-2.672 1.922,-5.438 3.211,-7.953 3.476,-6.77 7.183,-13.559 10.777,-20.129 l 2.004,-3.699 c 0.922,-1.731 1.879,-3.516 3.156,-4.879 2.707,-2.883 5.743,-5.477 8.621,-7.852 1.735,-1.433 3.446,-2.918 5.149,-4.402 4.39,-3.824 8.937,-7.774 13.933,-10.703 11.04,-6.465 20.743,-9.625 30.536,-9.93 1.765,-0.051 3.515,-0.082 5.257,-0.082 10.848,0 19.844,1.231 28.317,3.871 9.863,3.086 17.148,8.985 24.367,15.27 6.867,5.996 12.715,13.937 16.906,22.972 6.692,14.43 11.571,26.395 15.348,37.661 l 0.305,0.929 c 4.004,11.91 8.132,24.219 7.933,37.188 l 0.192,3.73 c 0.136,2.86 0.273,5.719 0.464,8.57 0.192,2.848 -0.691,5.258 -2.425,6.598 l -0.508,0.395 c -3.574,2.781 -7.274,5.656 -11.985,6.05 -8.906,0.735 -15.703,1.204 -22.054,1.524 -5.621,0.277 -11.352,0.453 -16.887,0.621 -2.562,0.078 -5.117,0.152 -7.676,0.242 l -19.656,0.684 c -9.805,0.34 -19.609,0.676 -29.414,1.011 -4.164,0.145 -7.918,0.262 -11.738,0.282 -5.875,0.039 -11.758,0.004 -17.641,-0.063 -0.758,-0.008 -1.551,-0.105 -2.32,-0.195 -1.196,-0.141 -2.446,-0.281 -3.645,-0.145 -3.183,0.379 -6.636,0.563 -10.551,0.563 -3.929,0 -7.937,-0.184 -11.808,-0.363 -3.887,-0.176 -7.902,-0.356 -11.867,-0.356 l -0.477,0 z m 90.024,-139.598 -0.008,0 c -2.645,0 -5.297,0.063 -7.953,0.129 l -0.985,0.032 c -12.551,0.3 -23.879,5.203 -35.664,15.406 l -1.863,1.617 c -3.758,3.25 -7.633,6.617 -11.567,9.766 -5.054,4.039 -8.035,9.539 -10.917,14.863 -0.524,0.961 -1.047,1.926 -1.579,2.883 -4.613,8.25 -7.976,17.179 -11.23,25.828 l -0.481,1.269 c -2.3,6.114 -4.609,12.231 -6.933,18.332 -2.402,6.282 -3.527,13.309 -3.457,21.469 0.062,6.41 0.129,13.672 2.488,20.715 0.078,0.223 0.274,0.383 0.512,0.426 0.441,0.062 0.875,0.14 1.301,0.219 0.929,0.168 1.804,0.332 2.718,0.355 4.102,0.133 8.2,0.285 12.305,0.438 10.426,0.386 21.203,0.785 31.816,0.808 l 1.395,0 c 16.871,0 33.984,-0.519 48.699,-1 12.289,-0.402 25.375,-1.062 41.188,-2.074 5.316,-0.344 10.691,-0.945 15.902,-1.535 2.348,-0.262 4.691,-0.524 7.043,-0.77 0.277,-0.027 0.566,-0.078 0.848,-0.129 0.519,-0.086 1,-0.168 1.441,-0.121 0.246,0.035 0.492,0.074 0.731,0.114 0.562,0.085 1.144,0.183 1.726,0.183 1.254,0 2.234,-0.457 3.063,-1.414 l 0.402,-0.457 c 1.652,-1.883 3.352,-3.832 3.371,-6.703 0.031,-8.082 -0.117,-17.461 -2.344,-26.543 -2.468,-10.078 -4.996,-19.926 -8.742,-29.629 -3.359,-8.766 -7.367,-17.285 -11.902,-25.324 -0.559,-0.996 -1.071,-2.067 -1.563,-3.098 -0.758,-1.594 -1.547,-3.246 -2.57,-4.726 -7.109,-10.297 -15.059,-18.2 -24.293,-24.161 -1.781,-1.156 -3.879,-1.785 -5.906,-2.394 -1.106,-0.336 -2.246,-0.68 -3.313,-1.106 -8.164,-3.23 -16.551,-3.668 -23.679,-3.668" /><path
         id="path20"
         style="fill:#1b181a;fill-opacity:1;fill-rule:nonzero;stroke:none"
         d="m 648.738,478.691 c -1.156,0 -2.355,-0.128 -3.523,-0.261 -4.449,-0.504 -5.86,-2.078 -5.621,-6.235 0.234,-4.152 1.027,-4.828 6.047,-5.093 0.504,0.031 1.004,0.046 1.507,0.066 1.122,0.027 2.184,0.062 3.211,0.27 2.161,0.425 4.219,3.687 4.161,6.582 -0.055,2.437 -1.442,4.078 -3.817,4.511 -0.59,0.11 -1.234,0.16 -1.965,0.16" /><path
         id="path22"
         style="fill:#1b181a;fill-opacity:1;fill-rule:nonzero;stroke:none"
         d="m 151.09,477.5 c -3.625,0 -5.496,-2.164 -5.578,-6.426 -0.059,-3.269 2.406,-5.879 5.722,-6.082 3.684,-0.195 7.325,2.785 7.477,6.086 0.066,1.559 -0.645,3.094 -2,4.324 -1.375,1.239 -3.273,1.996 -5.215,2.086 -0.141,0.004 -0.277,0.012 -0.406,0.012" /><path
         id="path24"
         style="fill:#1b181a;fill-opacity:1;fill-rule:nonzero;stroke:none"
         d="m 575.266,436.238 c -0.075,-0.023 -0.141,-0.043 -0.211,-0.062 -0.477,-0.149 -0.93,-0.289 -1.227,-0.535 -1.172,-0.926 -2.312,-1.887 -3.445,-2.852 -1.449,-1.223 -2.945,-2.488 -4.488,-3.66 -3.25,-2.473 -6.524,-4.914 -9.801,-7.356 -4.766,-3.554 -9.699,-7.226 -14.457,-10.949 -2.879,-2.25 -5.723,-4.656 -8.473,-6.988 -3.641,-3.086 -7.406,-6.273 -11.316,-9.152 -2.77,-2.043 -5.453,-4.332 -8.047,-6.551 -5.969,-5.11 -12.137,-10.391 -20.016,-13.113 -0.402,-0.137 -0.816,-0.598 -1.117,-1.258 -0.527,-1.137 -0.652,-2.621 -0.305,-3.528 0.602,-1.531 2.262,-1.988 4.133,-1.109 2.281,1.066 4.664,2.27 6.637,3.863 4.32,3.504 8.644,7.164 12.824,10.703 2.461,2.079 4.926,4.161 7.402,6.223 l 3.973,3.328 c 6.223,5.199 12.656,10.582 19.106,15.727 2.917,2.324 6.05,4.476 9.066,6.566 1.371,0.945 2.738,1.887 4.09,2.852 1.398,0.992 2.785,2.004 4.176,3.011 3.062,2.227 6.222,4.532 9.457,6.633 4.371,2.84 4.808,3.324 2.039,8.207" /><path
         id="path26"
         style="fill:#1b181a;fill-opacity:1;fill-rule:nonzero;stroke:none"
         d="m 529.891,448.25 c -0.141,-0.047 -0.278,-0.102 -0.418,-0.148 -0.668,-0.247 -1.305,-0.469 -1.746,-0.848 -4.332,-3.734 -8.633,-7.504 -12.934,-11.274 -2.344,-2.058 -4.688,-4.117 -7.043,-6.167 l -2.602,-2.274 c -3.992,-3.488 -8.125,-7.094 -12.281,-10.535 -2.472,-2.047 -2.941,-2.441 -0.113,-5.973 0.578,0.477 1.152,0.934 1.711,1.379 1.512,1.219 2.937,2.363 4.289,3.582 5.43,4.867 9.937,8.934 14.484,13.266 l 0.344,0.324 c 4.074,3.891 8.305,7.91 13.656,10.438 3.461,1.636 4.274,4.117 2.653,8.23" /><path
         id="path28"
         style="fill:#1b181a;fill-opacity:1;fill-rule:nonzero;stroke:none"
         d="m 314.973,448.488 c -0.321,-0.215 -0.614,-0.41 -0.887,-0.586 -0.863,-0.562 -1.481,-0.968 -2.004,-1.461 -1.219,-1.148 -2.391,-2.332 -3.57,-3.511 -1.914,-1.918 -3.887,-3.895 -5.981,-5.692 -2.996,-2.57 -6.121,-5.074 -9.148,-7.492 -2.422,-1.937 -4.832,-3.867 -7.207,-5.851 -11.367,-9.5 -22.746,-19.114 -33.422,-28.153 -3.231,-2.73 -6.207,-5.097 -10.051,-6.437 -1.269,-0.446 -2.328,-1.481 -2.851,-2.766 -0.383,-0.941 -0.403,-1.871 -0.055,-2.555 0.652,-1.308 3.406,-1.742 5.312,-0.675 2.914,1.64 5.579,3.504 7.911,5.539 3.117,2.726 6.23,5.578 9.234,8.324 3.398,3.117 6.906,6.328 10.453,9.387 1.504,1.296 2.996,2.597 4.484,3.902 6.282,5.492 12.774,11.168 19.825,16.031 4.769,3.293 9.101,7.012 13.691,10.953 1.922,1.649 3.848,3.305 5.816,4.934 l -1.55,6.109" /><path
         id="path30"
         style="fill:#1b181a;fill-opacity:1;fill-rule:nonzero;stroke:none"
         d="m 267.297,446.426 c -0.137,-0.028 -0.27,-0.051 -0.399,-0.082 -0.656,-0.129 -1.269,-0.25 -1.609,-0.551 l -1.641,-1.422 c -6.718,-5.824 -13.668,-11.844 -20.316,-17.965 -4.133,-3.801 -8.215,-7.797 -12.172,-11.66 -2.148,-2.105 -4.301,-4.207 -6.469,-6.293 -1.257,-1.207 -1.796,-2.082 -1.738,-2.816 0.067,-0.785 0.797,-1.653 2.367,-2.789 l 2.703,2.695 c 2.856,2.852 5.731,5.727 8.618,8.578 1.351,1.332 2.691,2.672 4.031,4.016 3.676,3.676 7.469,7.476 11.379,11.035 2.957,2.683 6.254,5.051 9.441,7.344 l 1.453,1.039 c 3.371,2.429 5.289,4.797 4.352,8.871" /></g></g></svg>