<?xml version="1.0" encoding="UTF-8" standalone="no"?>
<svg
   xmlns:dc="http://purl.org/dc/elements/1.1/"
   xmlns:cc="http://creativecommons.org/ns#"
   xmlns:rdf="http://www.w3.org/1999/02/22-rdf-syntax-ns#"
   xmlns:svg="http://www.w3.org/2000/svg"
   xmlns="http://www.w3.org/2000/svg"
   viewBox="0 0 100 100"
   height="100"
   width="100"
   xml:space="preserve"
   version="1.1"
   id="svg2"><metadata
     id="metadata8"><rdf:RDF><cc:Work
         rdf:about=""><dc:format>image/svg+xml</dc:format><dc:type
           rdf:resource="http://purl.org/dc/dcmitype/StillImage" /></cc:Work></rdf:RDF></metadata><defs
     id="defs6" /><g
     transform="matrix(1.25,0,0,-1.25,0,100)"
     id="g10"><g
       transform="scale(0.1,0.1)"
       id="g12"><path
         id="path14"
         style="fill:#171717;fill-opacity:1;fill-rule:nonzero;stroke:none"
         d="m 312.465,411.945 c -0.613,1.215 -1.129,2.231 -1.649,3.254 -2.812,5.559 -2.734,11.184 -0.3,16.813 2.125,4.922 5.836,7.972 11.156,9.008 1.441,0.285 2.851,0.691 4.082,0.996 0.73,1.757 -0.082,2.882 -0.742,3.992 -3.606,6.058 -1.418,11.519 1.777,16.828 0.477,0.785 1.445,1.352 2.293,1.84 3.152,1.797 6.348,3.515 9.82,5.426 -0.175,0.589 -0.363,1.351 -0.64,2.082 -0.348,0.929 -0.703,1.871 -1.176,2.746 -3.395,6.238 -1.371,11.894 1.937,17.34 1.395,2.3 3.266,4.195 6.063,4.894 0.777,0.195 1.48,0.676 2.492,1.152 -0.406,1.2 -0.719,2.254 -1.121,3.274 -2.449,6.226 -1.75,12 2.363,17.344 1.149,1.5 2.426,2.527 4.395,2.964 2.879,0.641 5.652,1.735 9.258,2.875 0.757,0.622 0.449,2.274 0.09,3.622 -0.938,3.558 -0.047,7.003 0.714,10.332 0.934,4.054 3.977,6.863 7.567,8.836 4.277,2.347 8.812,3.917 13.859,3.199 0.59,-0.09 1.219,0.136 2.063,0.238 -2.282,4.59 -2.286,9.496 -3.664,14.055 -1.137,3.75 -1.137,7.511 -0.883,11.328 0.219,3.347 0.898,6.664 2.644,9.523 3.817,6.262 9.117,10.965 16.121,13.407 1.977,0.691 4.266,0.531 6.422,0.648 12.082,0.668 22.028,-6.961 25.125,-16.625 1.168,-3.641 2.727,-7.148 2.528,-11.059 -0.137,-2.644 -0.422,-5.273 -0.719,-7.902 -0.184,-1.613 -0.524,-3.219 -0.832,-5.09 1.121,-0.34 2.051,-0.59 2.957,-0.894 5.324,-1.786 8.715,-5.395 9.965,-10.848 0.316,-1.406 0.297,-2.941 0.125,-4.383 -0.153,-1.297 -0.727,-2.535 -1.192,-4.043 0.797,-0.547 1.621,-1.039 2.371,-1.629 1.297,-1.011 2.739,-1.929 3.793,-3.16 4.493,-5.265 7.727,-11.215 9.078,-18.043 0.485,-2.426 0.825,-4.922 0.856,-7.39 0.062,-5.04 -0.41,-5.922 -4.047,-9.684 0.258,-0.402 0.43,-0.918 0.789,-1.195 6.059,-4.68 10.188,-10.879 13.883,-17.422 0.25,-0.43 0.48,-0.875 0.691,-1.328 1.856,-4.02 2.84,-8.11 1.258,-12.508 -0.726,-2 -1.164,-4.106 -1.801,-6.406 1.102,-0.758 2.157,-1.539 3.262,-2.235 2.332,-1.465 4.156,-3.469 5.164,-5.941 1.5,-3.68 2.703,-7.481 3.871,-11.281 0.852,-2.75 0.145,-5.227 -1.914,-7.317 -0.914,-0.926 -1.715,-1.957 -2.789,-3.203 1.481,-1.121 2.77,-2.133 4.098,-3.09 5.394,-3.894 8.168,-9.515 10.207,-15.566 0.355,-1.031 0.289,-2.309 0.07,-3.406 -0.351,-1.762 -0.992,-3.473 -1.605,-5.497 6.371,-3.765 9.257,-9.933 10.781,-17.097 5.125,-3.035 9.309,-7.34 13.633,-11.446 1.422,-1.355 2.551,-3.066 3.629,-4.726 2.347,-3.617 4.578,-7.317 6.941,-11.117 2.02,0.16 3.898,2.73 6.098,0.05 0.035,-0.269 0.277,-0.937 0.172,-1.558 -0.727,-4.25 -1.122,-8.606 -2.375,-12.695 -3.571,-11.594 -6.684,-23.282 -9.692,-35.016 -2.176,-8.5 -5.305,-16.762 -8.273,-25.039 -4.926,-13.742 -9.547,-27.57 -13.914,-41.496 -3.469,-11.082 -7.668,-21.934 -11.43,-32.926 -1.266,-3.699 -3.137,-6.902 -6.5,-9.75 -1.133,0.176 -2.578,0.539 -4.027,0.574 -5.977,0.153 -11.965,0.86 -17.938,-0.113 -0.652,-0.113 -1.324,-0.066 -1.988,-0.055 -11.485,0.278 -22.969,0.571 -34.453,0.809 -1.321,0.039 -2.649,-0.172 -3.977,-0.254 -5.984,-0.379 -11.941,-0.406 -17.922,0.48 -3.398,0.504 -6.937,1.047 -10.343,-0.394 -0.555,-0.223 -1.426,-0.313 -1.899,-0.035 -2.027,1.179 -4.211,0.801 -6.344,0.816 -8.996,0.086 -17.992,-0.203 -26.964,0.715 -1.153,0.121 -2.333,0.02 -3.497,-0.082 -3.496,-0.289 -6.945,-0.301 -10.418,0.516 -1.742,0.41 -3.64,0.359 -5.457,0.242 -5.164,-0.321 -10.304,-0.422 -15.445,0.437 -2.113,0.348 -4.289,0.328 -6.719,0.489 -0.734,1.511 -1.574,2.933 -2.136,4.46 -3.27,8.872 -6.59,17.715 -9.661,26.649 -3.015,8.781 -5.753,17.656 -8.609,26.488 -0.258,0.793 -0.488,1.59 -0.777,2.367 -3.399,9.176 -6.914,18.305 -10.188,27.532 -2.441,6.871 -4.793,13.789 -6.793,20.808 -3.406,11.961 -6.511,24.004 -9.703,36.028 -0.238,0.918 -0.433,2.023 -0.14,2.863 0.652,1.883 2.621,2.465 4.527,1.535 0.859,-0.422 1.652,-0.961 2.558,-1.492 1.797,1.906 2.54,4.14 3.524,6.211 1.992,4.199 3.855,8.437 6.812,12.113 2.504,3.109 4.997,6.168 8.383,8.434 2.895,1.929 5.574,4.172 8.512,6.398 -0.734,4.094 -0.805,8.184 -0.199,12.32 0.558,3.793 1.965,6.938 5.144,9.286 2.379,1.761 4.551,3.793 6.934,5.8 m 30.457,-54.593 c 1.289,-2.293 2.375,-4.723 3.91,-6.829 2.715,-3.73 5.703,-7.261 8.758,-11.105 3.961,3.102 7.68,6.168 10.176,10.785 -1.235,0.492 -2.114,1.004 -3.051,1.199 -4.723,1 -9.176,2.762 -13.664,4.465 -1.973,0.75 -4.172,0.91 -6.266,1.34 -1.39,1.856 -3.582,2.266 -5.551,3.066 -1.539,0.618 -3.234,0.981 -4.601,1.848 -6.223,3.934 -13.067,6.481 -19.805,9.277 -3.848,1.594 -7.566,3.465 -9.805,7.282 -0.218,0.371 -0.738,0.582 -1.257,0.961 -13.032,-6.575 -20.102,-17.707 -24.457,-31.258 2.976,-3.563 7.015,-5.891 10.789,-8.535 1.332,-0.938 2.679,-1.938 4.593,-1.836 0.399,0.468 0.875,0.926 1.243,1.457 2.519,3.699 4.89,7.5 7.554,11.082 1.668,2.25 3.707,4.238 5.692,6.234 0.937,0.938 2.25,0.91 3.109,-0.097 3.106,-3.645 7.063,-6.508 9.508,-10.782 1.625,-2.847 3.976,-5.191 6.84,-7.027 1.715,1.238 2.203,3.059 3.148,4.582 3.426,5.512 6.977,10.922 13.137,13.891 m -34.988,-5.571 c -0.621,-0.422 -1.266,-0.691 -1.664,-1.164 -3.75,-4.469 -6.93,-9.32 -9.676,-14.453 -0.602,-1.121 -0.485,-2.207 -0.102,-3.355 1.246,-3.789 2.539,-7.551 3.645,-11.383 1.148,-3.977 1.976,-8.051 3.16,-12.02 1.652,-5.57 3.601,-11.047 5.246,-16.617 1.461,-4.93 2.742,-9.914 3.961,-14.91 0.621,-2.57 0.758,-5.258 1.402,-7.82 1.305,-5.149 2.735,-10.258 4.246,-15.34 2.082,-7 4.395,-13.922 6.411,-20.934 1.699,-5.89 3.082,-11.875 4.675,-17.805 0.383,-1.433 1.192,-2.757 1.512,-4.207 0.301,-1.39 0.227,-2.863 0.332,-4.484 0.66,-0.09 1.316,-0.312 1.934,-0.242 4.839,0.555 9.578,0.039 14.402,-0.598 4.73,-0.625 9.613,-0.164 14.426,-0.152 0.289,0 0.574,0.262 1.105,0.523 0.047,0.485 0.215,1.118 0.16,1.727 -0.379,4.129 -0.839,8.25 -1.195,12.379 -0.961,11.066 -2.016,22.133 -2.785,33.215 -0.852,12.25 -1.465,24.515 -2.133,36.777 -0.367,6.793 -0.484,13.602 -0.976,20.383 -0.508,6.945 -1.282,13.867 -2.067,20.793 -0.14,1.254 -0.66,2.597 -1.402,3.621 -3.797,5.203 -7.719,10.316 -11.727,15.637 -0.91,-0.75 -1.562,-1.223 -2.136,-1.778 -4.168,-4.011 -6.461,-9.203 -8.922,-14.277 -0.914,-1.871 -0.688,-3.758 -0.121,-5.789 2.996,-10.715 5,-21.637 6.585,-32.641 1.141,-7.879 2.344,-15.75 3.473,-23.633 1.184,-8.207 2.285,-16.433 3.469,-24.64 1.301,-9.028 2.637,-18.051 3.992,-27.071 0.492,-3.277 1.129,-6.539 1.629,-9.816 0.129,-0.863 -0.266,-1.82 -1.195,-1.863 -0.715,-0.028 -1.782,0.379 -2.114,0.933 -0.562,0.946 -0.789,2.153 -0.964,3.274 -0.336,2.129 -0.489,4.285 -0.809,6.41 -0.898,5.898 -1.938,11.773 -2.742,17.684 -0.766,5.585 -1.207,11.214 -1.957,16.804 -1.34,9.86 -2.684,19.727 -4.266,29.547 -1.82,11.293 -3.828,22.567 -5.906,33.82 -0.75,4.067 -2.016,8.028 -2.86,12.075 -0.5,2.386 -1.636,4.281 -3.335,5.961 -2.95,2.933 -5.68,6.015 -8.024,9.503 -1.629,2.411 -3.855,4.5 -6.687,5.926 m 192.058,24.727 c -1.355,-0.363 -2.976,-0.703 -4.531,-1.223 -7.77,-2.613 -15.781,-2.64 -23.695,-1.476 -12.188,1.789 -24.125,4.82 -35.825,8.714 -2.843,0.946 -5.824,1.543 -8.558,2.707 -7.492,3.204 -14.879,6.633 -22.309,9.969 -5.91,2.653 -11.758,5.469 -17.75,7.914 -4.324,1.77 -8.504,3.731 -12.558,6.051 -5.621,3.227 -11.371,6.227 -17.106,9.254 -8.137,4.281 -15.762,9.293 -22.281,15.816 -2.363,2.368 -4.777,4.09 -8.34,2.926 -0.422,-0.133 -0.976,0.195 -1.469,0.195 -6.48,-0.011 -11.05,-3.574 -12.629,-9.843 -0.793,-3.145 -0.769,-6.305 0.536,-9.274 1.621,-3.683 4.472,-6.519 7.433,-9.117 2.102,-1.844 4.641,-3.187 6.973,-4.769 4.254,-2.883 8.164,-6.254 12.89,-8.477 4.051,-1.906 7.829,-4.367 11.805,-6.441 8.531,-4.457 16.727,-9.625 26.086,-12.348 1.266,-0.371 2.414,-1.117 3.656,-1.59 4.196,-1.578 8.348,-3.336 12.633,-4.625 5.082,-1.535 10.363,-2.43 15.43,-4.012 9.355,-2.925 19.039,-4.66 28.316,-7.839 0.781,-0.27 1.602,-0.465 2.414,-0.633 7.164,-1.481 14.289,-3.133 21.66,-3.43 3.524,-0.141 6.977,-0.648 9.668,2.109 3.563,-2.234 3.59,-2.336 7.086,-1.535 3.078,0.699 6.133,1.559 9.129,2.543 4.563,1.5 8.086,4.504 11.149,8.102 1.707,2.012 2.289,4.383 2.328,6.933 0.019,1.426 -0.488,2.582 -2.141,3.399 m -154.074,89.523 c -1.367,-0.32 -2.344,-0.801 -3.273,-0.722 -4.274,0.359 -7.711,-1.407 -11.055,-3.778 -3.727,-2.652 -5.856,-8.125 -4.149,-12.195 1.079,-2.586 2.641,-4.969 4.075,-7.391 0.406,-0.691 1,-1.429 1.687,-1.761 3.512,-1.727 6.086,-4.594 9.016,-7.036 4.871,-4.062 10.16,-7.5 15.695,-10.535 6.555,-3.597 13.16,-7.093 19.797,-10.535 4.117,-2.14 8.227,-4.398 12.547,-6.066 6.996,-2.699 13.597,-6.211 20.445,-9.203 8.524,-3.719 16.914,-7.762 25.902,-10.364 11.336,-3.281 22.661,-6.515 34.356,-8.406 5.5,-0.898 10.937,-0.926 16.402,-0.605 3.633,0.203 7.176,1.164 10.446,3.152 0.304,2.855 1.32,5.715 0.379,8.41 -2.606,7.457 -5.286,10.426 -13.438,11.266 -1.805,0.179 -3.723,0.203 -5.461,-0.219 -3.809,-0.91 -7.586,-0.875 -11.402,-0.336 -3.289,0.465 -6.559,1.063 -9.856,1.426 -5.504,0.597 -10.765,2.09 -15.941,3.969 -12.981,4.711 -25.383,10.746 -37.926,16.468 -0.75,0.344 -1.426,0.848 -2.125,1.297 -5.297,3.406 -10.086,7.625 -15.996,10.063 -0.449,0.191 -0.832,0.554 -1.246,0.832 -7.594,5.09 -14.227,11.41 -21.551,16.847 -0.926,0.684 -1.625,1.668 -2.496,2.43 -4.859,4.277 -9.734,8.535 -14.832,12.992 m 125.949,-62.676 c 4.117,0.348 8.258,0.668 12.391,1.063 0.644,0.059 1.265,0.379 1.89,0.598 3.176,1.097 4.7,3.886 3.633,7.039 -3.133,9.242 -9.515,15.109 -19.054,17.125 -4.704,0.992 -9.575,1.105 -14.364,1.687 -2.972,0.367 -5.992,0.594 -8.867,1.356 -4.976,1.32 -9.887,2.941 -14.773,4.566 -2.516,0.836 -5.032,1.777 -7.391,2.984 -5.93,3.032 -11.781,6.196 -17.625,9.387 -7.629,4.149 -14.793,8.957 -20.797,15.324 -2.844,3.024 -5.906,5.789 -9.297,8.25 -2.668,1.946 -5.336,4.129 -7.312,6.731 -3.895,5.133 -8.735,9.055 -13.992,12.633 -5.188,3.523 -12.364,1.754 -15.289,-3.789 -2.157,-4.082 -2.704,-8.145 -0.301,-12.317 0.406,-0.722 0.719,-1.496 1.043,-2.258 0.808,-1.894 1.863,-3.355 4.047,-4.054 1.523,-0.489 2.89,-1.633 4.179,-2.66 8.825,-7.055 16.496,-15.465 25.887,-21.86 0.543,-0.371 1.004,-0.871 1.488,-1.332 3.254,-3.129 6.969,-5.625 10.907,-7.832 2.894,-1.633 5.812,-3.269 8.527,-5.176 4.226,-2.965 8.574,-5.617 13.266,-7.859 10.21,-4.891 20.636,-9.262 31.074,-13.629 9.82,-4.113 20.199,-5.367 30.73,-5.977 m -100.629,-53.3 c -4.34,-4.754 -8.359,-9.164 -12.383,-13.571 -0.109,-0.125 -0.214,-0.254 -0.332,-0.379 -1.105,-1.171 -1.371,-2.527 -1.168,-4.128 0.54,-4.282 0.985,-8.571 1.411,-12.864 0.445,-4.617 0.918,-9.242 1.203,-13.879 0.351,-5.789 0.457,-11.593 0.785,-17.386 0.773,-13.582 1.574,-27.16 2.441,-40.739 0.614,-9.605 1.309,-19.199 2.809,-28.718 0.496,-3.11 0.762,-6.254 1.195,-9.371 0.129,-0.946 0.469,-1.872 0.793,-3.094 2.258,-0.067 4.391,-0.16 6.528,-0.168 2.168,-0.012 4.328,0.023 6.496,0.097 2.105,0.079 4.281,-0.328 6.609,0.61 0.105,2.078 0.262,4.035 0.285,5.992 0.024,1.484 -0.215,2.984 -0.183,4.473 0.367,15.261 0.718,30.515 1.152,45.773 0.469,16.59 0.867,33.176 -0.734,49.731 -0.114,1.16 -0.207,2.324 -0.153,3.48 0.254,5.164 -0.222,10.262 -0.883,15.387 -0.441,3.429 -1.332,6.355 -4.074,8.691 -1.89,1.606 -3.449,3.594 -5.203,5.36 -1.879,1.894 -3.969,3.503 -6.594,4.703 m 34.735,-0.274 c -4.934,-4.539 -9.571,-8.804 -14.207,-13.062 -1.211,-1.114 -1.516,-2.512 -1.328,-4.086 0.218,-1.813 0.5,-3.625 0.593,-5.445 0.254,-5.125 0.379,-10.262 0.649,-15.395 0.297,-5.797 0.808,-11.59 1.011,-17.395 0.196,-5.468 0.235,-10.949 0.125,-16.425 -0.152,-7.629 -0.523,-15.246 -0.761,-22.871 -0.16,-4.973 -0.012,-9.965 -0.395,-14.926 -0.82,-10.453 -0.496,-20.879 0.211,-31.321 0.055,-0.781 0.348,-1.55 0.496,-2.199 5.422,-1.422 15.656,-2.078 19.656,-1.254 0.27,2.207 0.618,4.493 0.829,6.793 0.519,5.606 0.726,11.266 1.519,16.84 1.629,11.528 2.258,23.113 2.754,34.719 0.102,2.48 0.27,4.965 0.426,7.449 0.445,6.953 0.894,13.899 1.344,20.852 0.609,9.429 1.187,18.875 1.828,28.3 0.347,5.114 0.812,10.215 1.25,15.625 -4.778,4.719 -8.981,10.379 -16,13.801 m 32.761,2.481 c -3.742,-2.969 -6.925,-5.84 -8.714,-9.946 -0.399,-0.902 -0.895,-1.796 -1.512,-2.57 -2.504,-3.133 -3.266,-6.801 -3.528,-10.668 -0.339,-5.133 -0.796,-10.25 -1.132,-15.383 -0.727,-11.09 -1.442,-22.179 -2.086,-33.273 -0.434,-7.457 -0.657,-14.922 -1.125,-22.371 -0.524,-8.27 -1.164,-16.543 -1.856,-24.805 -0.633,-7.594 -1.457,-15.176 -2.062,-22.777 -0.141,-1.731 -0.34,-3.633 0.894,-5.352 l 18.75,0 c 1.403,1.43 1.59,3.043 1.774,4.711 0.613,5.602 1.105,11.223 1.988,16.785 2.535,15.887 4.059,31.899 5.898,47.864 1.211,10.546 2.954,21 4.762,31.449 1.5,8.656 2.656,17.371 4.031,26.051 0.563,3.554 -0.226,6.445 -3.113,8.863 -3.301,2.773 -6.336,5.875 -9.527,8.777 -0.969,0.891 -2.086,1.613 -3.442,2.645 m -71.421,171.914 c 1.449,-0.649 2.511,-1.121 3.578,-1.586 4.531,-1.981 8.16,-5.074 11.054,-9.043 1.078,-1.473 2.075,-3 3.09,-4.524 4.246,-6.382 8.965,-12.363 14.926,-17.277 0.762,-0.625 1.402,-1.402 2.055,-2.152 4.679,-5.399 9.511,-10.625 14.746,-15.504 3.363,-3.137 7.172,-5.344 11.508,-6.735 8.128,-2.621 16.414,-4.207 24.988,-4.257 3.66,-0.016 7.316,-0.285 10.976,-0.438 0.661,-0.031 1.399,-0.285 1.957,-0.066 0.895,0.34 2.118,0.816 2.414,1.558 1.567,3.844 3.176,7.797 1.243,11.985 -2.657,5.746 -5.918,11.101 -10.446,15.644 -2.316,2.332 -4.945,3.907 -8.234,4.246 -3.145,0.336 -6.289,0.582 -9.434,0.918 -3.3,0.36 -6.656,0.496 -9.894,1.196 -7.141,1.519 -12.606,6.035 -17.348,11.16 -5.187,5.601 -9.527,11.859 -12.543,19.019 -2.457,5.84 -6.097,11 -10.89,15.282 -1.391,1.238 -2.844,2.418 -4.719,2.644 -2.117,0.246 -4.324,0.512 -6.414,0.227 -4.383,-0.598 -8.25,-2.512 -11.219,-5.84 -0.848,-0.953 -1.344,-2.278 -1.781,-3.512 -1.512,-4.273 -0.664,-8.48 0.387,-12.945 m 108.164,-91.727 c 4.668,3.598 5.597,6.145 4.136,11.16 -0.324,1.118 -0.761,2.196 -1.066,3.317 -1.539,5.633 -5.176,9.137 -10.82,10.554 -1.926,0.489 -3.887,0.958 -5.856,1.161 -2.808,0.297 -5.644,0.488 -8.469,0.457 -8.922,-0.078 -17.523,1.632 -25.961,4.355 -1.418,0.457 -2.789,1.07 -4.156,1.668 -4.98,2.168 -8.914,5.766 -12.683,9.508 -6.473,6.43 -11.883,13.863 -18.864,19.82 -0.617,0.531 -1.015,1.309 -1.578,1.922 -4.515,4.899 -7.961,10.594 -11.855,15.961 -2.114,2.91 -4.953,4.879 -7.957,6.645 -1.106,0.648 -2.489,1.168 -3.754,1.187 -2.801,0.051 -5.711,0.149 -8.406,-0.48 -5.782,-1.356 -7.747,-3.399 -9.094,-8.664 -0.668,-2.606 -0.469,-5.278 0.836,-7.754 1.386,-2.621 2.746,-5 5.683,-6.59 5.84,-3.16 11.328,-6.953 15.317,-12.481 2.457,-3.398 5.601,-6.179 8.968,-8.578 3.278,-2.336 6.262,-4.957 8.973,-7.859 5.961,-6.403 12.899,-11.399 20.754,-15.211 3.434,-1.668 6.801,-3.481 10.117,-5.367 6.094,-3.465 12.391,-6.407 19.156,-8.301 5.594,-1.566 11.071,-3.59 16.954,-3.969 6.621,-0.43 13.234,-0.969 19.625,-2.461 m -18.848,-227.25 c 1.098,4.922 2.098,9.449 3.113,13.973 2.211,9.871 4.196,19.797 6.719,29.59 1.785,6.894 3.961,13.679 5.328,20.691 1.492,7.641 3.172,15.242 4.719,22.871 1.148,5.68 2.312,11.36 3.308,17.074 1.106,6.364 1.969,12.77 3.055,19.141 0.496,2.93 1.27,5.805 2,9.059 -4.391,4.422 -8.527,9.117 -13.293,13.281 -3.012,-3.094 -5.824,-6.145 -8.816,-9.008 -2.61,-2.504 -4.742,-5.101 -4.164,-9.027 0.07,-0.473 -0.129,-0.985 -0.2,-1.477 -1.171,-8.879 -2.566,-17.711 -4.175,-26.527 -2.192,-12.059 -3.602,-24.266 -5.16,-36.434 -1.637,-12.836 -3.071,-25.695 -4.563,-38.547 -0.77,-6.589 -1.516,-13.179 -2.168,-19.781 -0.152,-1.582 -0.66,-3.301 0.699,-4.918 4.352,-0.574 8.782,-0.601 13.598,0.039 M 435.324,355 c -2.133,1.434 -3.98,2.047 -5.945,2.453 -2.758,0.582 -5.617,0.961 -8.231,1.969 -6.406,2.445 -13.097,3.734 -19.691,5.437 -4.648,1.2 -9.328,2.344 -13.785,4.258 -5.027,2.172 -10.203,4.004 -15.27,6.082 -3.226,1.317 -6.468,2.629 -9.547,4.25 -7.503,3.942 -14.859,8.164 -22.382,12.074 -5.328,2.774 -10.285,6.028 -14.95,9.821 -2.3,1.867 -4.914,3.371 -7.468,4.894 -2.551,1.52 -5.016,1.535 -7.239,-0.793 -0.906,-0.957 -2.003,-1.742 -3.046,-2.562 -1.926,-1.524 -2.957,-3.57 -3.438,-5.899 -1.094,-5.339 -0.777,-10.531 1.434,-15.605 1.191,-2.75 2.914,-4.594 5.871,-5.598 8.027,-2.738 15.816,-6.066 23.234,-10.222 1.004,-0.563 2.117,-0.946 3.207,-1.356 5.289,-1.98 10.68,-3.734 15.863,-5.976 4.02,-1.743 8.301,-2.36 12.411,-3.7 1.105,-0.355 2.261,-0.304 3.3,0.532 0.602,0.48 1.379,0.742 2.071,1.097 3.172,-2.562 6.203,-4.863 9.07,-7.367 2.965,-2.59 4.883,-6.277 8.508,-8.445 6.328,3.953 11.035,9.648 16.832,14.047 0.535,-0.075 1.082,-0.024 1.496,-0.227 3.301,-1.617 6.371,-3.547 8.937,-6.226 1.723,-1.805 3.52,-3.54 5.352,-5.227 0.68,-0.629 1.562,-1.035 2.547,-1.652 1.711,2.57 3.14,5.007 4.859,7.222 1.715,2.203 3.719,4.192 6,6.719 m 67.828,-2.023 c -0.726,-0.438 -1.257,-0.606 -1.543,-0.961 -1.035,-1.297 -1.968,-2.664 -2.98,-3.977 -2.832,-3.684 -5.539,-7.469 -8.602,-10.949 -1.261,-1.442 -2.269,-2.82 -2.625,-4.652 -1.117,-5.688 -2.445,-11.36 -3.25,-17.098 -1.593,-11.336 -3.574,-22.586 -6.183,-33.746 -1.891,-8.071 -3.141,-16.289 -5.211,-24.305 -2.5,-9.633 -5.395,-19.156 -7.289,-28.937 -1.199,-6.18 -2.414,-12.348 -3.61,-18.532 -0.16,-0.812 -0.308,-1.636 -0.359,-2.461 -0.078,-1.332 0.645,-2.211 2.074,-2.254 2.637,-0.082 5.281,-0.007 8.102,0.004 0.574,1.836 1.086,3.395 1.551,4.969 0.847,2.86 1.582,5.758 2.535,8.582 2.054,6.133 4.265,12.211 6.328,18.336 2.957,8.797 5.906,17.59 8.723,26.43 1.914,6.008 3.523,12.101 5.402,18.117 3.308,10.594 6.898,21.105 10.027,31.758 1.961,6.672 3.113,13.57 4.957,20.277 2.203,8.012 1.332,6.875 -2.121,12.379 -1.57,2.484 -3.062,5.133 -5.926,7.02 M 271.164,346.68 c 0.145,-1.328 0.137,-2.129 0.332,-2.879 1.922,-7.375 3.801,-14.766 5.859,-22.106 1.563,-5.582 3.223,-11.152 5.102,-16.636 2.836,-8.317 5.91,-16.551 8.859,-24.821 0.997,-2.812 1.875,-5.664 2.844,-8.484 3.242,-9.406 6.492,-18.805 9.754,-28.199 3.039,-8.766 6.078,-17.539 9.184,-26.285 0.828,-2.336 1.902,-4.594 2.843,-6.887 0.563,-1.363 1.551,-2.098 3.024,-2.235 2.648,-0.242 5.297,-0.519 7.953,-0.722 0.445,-0.035 0.914,0.234 1.383,0.367 -0.793,2.398 -1.66,4.687 -2.305,7.039 -3.348,12.137 -6.418,24.348 -10.359,36.324 -2.219,6.75 -3.871,13.711 -5.442,20.649 -1.867,8.25 -3.554,16.523 -6.312,24.539 -1.457,4.23 -2.969,8.488 -3.867,12.859 -1.414,6.852 -3.918,13.352 -5.852,20.035 -0.441,1.532 -1.187,2.551 -2.617,3.371 -6.352,3.664 -12.223,8.02 -17.906,12.633 -0.598,0.481 -1.344,0.789 -2.477,1.438 m 136.781,248.925 c -2.652,-0.042 -5.465,0.286 -7.769,-1.222 -3.453,-2.266 -6.781,-4.735 -9.985,-7.324 -1.089,-0.891 -1.757,-2.375 -2.418,-3.688 -2.511,-4.973 -2.425,-10.25 -1.515,-15.543 0.551,-3.262 1.312,-6.496 2.172,-9.691 0.371,-1.399 0.914,-2.985 1.91,-3.942 3.035,-2.894 6.683,-4.855 10.871,-5.648 1.949,-0.363 3.926,-0.633 5.906,-0.828 8.5,-0.824 15.149,2.633 20.52,8.949 0.422,0.492 0.707,1.125 0.953,1.738 2.613,6.465 3.496,13.129 1.801,19.93 -0.961,3.863 -2.664,7.445 -5.45,10.461 -4.605,4.98 -10.351,6.961 -16.996,6.808 m -10.504,-51.566 c -0.128,-0.43 -0.261,-0.633 -0.211,-0.742 0.278,-0.582 0.512,-1.223 0.922,-1.703 2.969,-3.422 5.039,-7.414 6.86,-11.485 2.945,-6.582 6.851,-12.515 11.746,-17.742 4.215,-4.5 8.918,-8.527 15.176,-9.98 4.863,-1.129 9.836,-1.496 14.832,-1.449 0.48,0 1.164,0.019 1.41,0.32 1.457,1.715 3.508,1.562 5.426,1.965 2.941,0.617 3.718,1.66 4.019,4.828 0.055,0.496 0.117,0.988 0.098,1.484 -0.414,8.606 -3.582,16.113 -9.356,22.477 -2.84,3.125 -6.5,3.785 -10.5,2.621 -1.117,-0.32 -2.16,-0.867 -3.265,-1.223 -6.196,-2.012 -11.805,-1.043 -16.703,3.348 -1.481,1.328 -2.903,2.722 -4.34,4.101 -1.254,1.192 -2.692,1.754 -4.461,1.879 -3.133,0.223 -6.25,0.719 -9.383,1.09 -0.77,0.094 -1.551,0.149 -2.27,0.211 m 84.051,-338.746 c 1.25,2.594 2.617,4.898 3.504,7.375 4.098,11.391 8.043,22.844 12.07,34.258 3.082,8.754 4.77,17.972 8.856,26.387 0.141,0.292 0.156,0.648 0.266,0.96 1.257,3.598 2.546,7.18 3.781,10.793 2.726,8 5.433,16.008 8.109,24.028 0.418,1.25 0.598,2.586 0.93,3.867 1.808,7.055 2.828,14.293 5.301,21.195 1.332,3.735 2.281,7.614 3.343,11.446 0.43,1.543 0.473,3.128 0.036,4.972 -0.688,-0.472 -1.18,-0.656 -1.438,-1.019 -2.488,-3.547 -5.359,-6.766 -8.512,-9.742 -1.101,-1.051 -1.773,-2.317 -2.105,-3.86 -0.832,-3.887 -1.797,-7.746 -2.727,-11.621 -0.933,-3.867 -1.707,-7.781 -2.871,-11.586 -3.449,-11.254 -7.082,-22.453 -10.578,-33.703 -0.934,-3.008 -1.5,-6.121 -2.441,-9.121 -2.684,-8.543 -5.438,-17.067 -8.243,-25.574 -1.875,-5.672 -3.699,-11.364 -5.882,-16.918 -2.434,-6.207 -4.036,-12.621 -5.645,-19.051 -0.156,-0.617 -0.062,-1.316 0,-1.973 0.024,-0.304 0.25,-0.59 0.492,-1.113 l 3.754,0 z m -3.851,146.402 c 3.613,-4.304 6.734,-7.601 10.492,-10.347 2.601,2.113 4.34,4.543 6.144,6.918 2.207,2.914 4.411,5.832 6.637,8.73 0.82,1.07 1.758,2 3.524,1.922 4.402,-4.102 7.546,-9.387 11.152,-14.488 4.633,1.972 6.086,6.558 9.246,9.793 -2.617,6.699 -6.102,12.742 -10.902,17.824 -2.465,2.605 -4.907,5.621 -8.621,6.953 -0.149,-0.469 -0.25,-0.637 -0.231,-0.781 0.043,-0.328 0.145,-0.649 0.234,-0.969 1.579,-5.379 0.461,-10.012 -3.433,-14.187 -4.957,-5.317 -10.93,-8.559 -18.012,-9.942 -1.758,-0.34 -3.496,-0.793 -6.23,-1.426 m -60.496,191.821 c 4.179,-6.336 9.148,-8.075 15.863,-5.969 2.933,0.918 5.433,2.453 7.777,4.301 2.207,1.742 2.668,3.562 1.641,6.152 -1.008,2.535 -2.598,4.559 -5.09,5.891 -1.801,0.953 -3.504,1.062 -5.176,-0.036 -1.379,-0.91 -2.738,-1.894 -3.945,-3.007 -2.586,-2.387 -5.363,-4.434 -8.629,-5.813 -0.871,-0.363 -1.625,-1.004 -2.441,-1.519 M 446.957,352.16 c 2.016,-3.109 7.078,-7.887 10.379,-9.902 2.691,2.426 5.863,4.465 7.777,7.887 -3.574,1.195 -12.968,2.25 -18.156,2.015" /><path
         id="path16"
         style="fill:#171717;fill-opacity:1;fill-rule:nonzero;stroke:none"
         d="m 392.113,569.035 c -1.164,1.145 -1.523,2.613 -0.718,4.348 1.113,2.394 2.293,4.769 3.222,7.23 0.938,2.461 2.418,4.282 4.821,5.426 1.343,0.641 2.57,1.535 3.898,2.211 1.293,0.656 2.793,-0.277 2.824,-1.762 0.028,-1.148 -0.183,-2.308 -0.238,-3.465 -0.215,-4.468 -0.801,-8.964 0.957,-13.289 0.121,-0.296 0.125,-0.648 0.156,-0.976 0.141,-1.281 -0.781,-2.313 -2.043,-2.219 -0.66,0.043 -1.312,0.195 -1.965,0.328 -3.574,0.707 -7.144,1.418 -10.914,2.168 m 9.532,13.449 c -4.215,-2.125 -4.832,-5.554 -5.575,-9.078 1.868,-1.172 3.567,-2.011 6.028,-1.34 -0.114,3.282 0.007,6.5 -0.453,10.418" /></g></g></svg>