<?xml version="1.0" encoding="UTF-8" standalone="no"?>
<svg
   xmlns:dc="http://purl.org/dc/elements/1.1/"
   xmlns:cc="http://creativecommons.org/ns#"
   xmlns:rdf="http://www.w3.org/1999/02/22-rdf-syntax-ns#"
   xmlns:svg="http://www.w3.org/2000/svg"
   xmlns="http://www.w3.org/2000/svg"
   viewBox="0 0 100 100"
   height="100"
   width="100"
   xml:space="preserve"
   version="1.1"
   id="svg2"><metadata
     id="metadata8"><rdf:RDF><cc:Work
         rdf:about=""><dc:format>image/svg+xml</dc:format><dc:type
           rdf:resource="http://purl.org/dc/dcmitype/StillImage" /></cc:Work></rdf:RDF></metadata><defs
     id="defs6" /><g
     transform="matrix(1.25,0,0,-1.25,0,100)"
     id="g10"><g
       transform="scale(0.1,0.1)"
       id="g12"><path
         id="path14"
         style="fill:#1b181a;fill-opacity:1;fill-rule:nonzero;stroke:none"
         d="m 314.98,257.828 c -1.558,-3.098 -3.101,-5.746 -4.261,-8.555 -5.496,-13.218 -10.938,-26.468 -16.289,-39.742 -1.223,-3.051 -1.938,-6.285 -3.024,-9.379 -2.265,-6.39 -4.625,-12.746 -6.867,-18.918 -3.922,-1.461 -6.934,-0.75 -9.668,1.532 -7.598,6.336 -15.18,12.691 -22.789,19 -2.883,2.39 -4.945,5.07 -3.789,9.082 -0.992,14.879 2.125,29.429 3.449,44.132 1.199,13.325 1.922,26.676 1.11,40.043 -0.508,8.192 -1.508,16.344 -2.2,24.524 -0.265,3.269 -0.511,6.57 -0.41,9.84 0.731,23.254 0.106,46.461 -1.672,69.66 -0.625,8.191 -0.707,16.336 0.055,24.582 0.793,8.625 0.18,17.359 0.605,26.031 0.735,14.789 -0.386,29.535 -0.328,44.317 0.039,9.855 0.149,19.711 0.196,29.57 0.019,3.992 0.195,8.004 -0.129,11.969 -1.395,17.355 -0.559,34.707 -0.36,52.07 0.137,11.246 0.364,22.492 0.547,33.75 0,0.23 -0.008,0.465 0,0.695 0.059,1.602 0.907,2.852 2.422,2.965 0.973,0.063 2.235,-0.621 2.945,-1.363 0.762,-0.805 1.09,-2.047 1.508,-3.141 2.457,-6.363 5.606,-12.387 8.996,-18.316 1.981,-3.465 3.649,-7.113 5.336,-10.719 6.996,-14.914 15.918,-28.766 24.137,-42.996 2.465,-4.273 4.668,-8.684 7.051,-13 1.804,-3.297 3.437,-6.734 5.644,-9.746 1.77,-2.418 4.051,-4.621 6.528,-6.32 3.687,-2.547 7.66,-2.934 12.031,-0.84 10.437,5.004 21.434,8.625 32.598,11.636 4.742,1.278 9.761,1.547 14.621,2.438 6.09,1.109 12.168,1.351 18.316,0.48 2.328,-0.324 4.719,-0.289 7.082,-0.261 13.57,0.168 26.875,-2.121 40.027,-4.918 7.805,-1.668 15.262,-4.93 22.883,-7.43 2.239,-0.734 4.473,-1.605 6.778,-1.945 5.543,-0.817 10.734,0.129 15.609,3.16 5.941,3.676 10.75,8.125 13.969,14.508 3.898,7.742 8.531,15.129 12.812,22.687 1.153,2.047 2.25,4.125 3.211,6.262 5.953,13.289 11.934,26.555 17.727,39.902 1.207,2.781 3.164,4.617 5.523,6.199 1.852,1.243 3.899,0.5 4.426,-1.582 0.402,-1.586 0.727,-3.214 0.887,-4.847 1.422,-14.246 2.66,-28.481 1.847,-42.848 -0.441,-7.949 -0.054,-15.953 -0.211,-23.93 -0.379,-19.937 -0.921,-39.886 -1.246,-59.824 -0.097,-5.855 -0.105,-11.773 0.578,-17.574 1.325,-11.238 1.457,-22.496 1.301,-33.75 -0.156,-11.074 1.367,-22.016 1.914,-33.02 0.293,-5.855 0.473,-11.722 0.699,-17.578 0.02,-0.461 -0.011,-0.933 0.02,-1.398 0.645,-9.125 1.285,-18.242 1.934,-27.359 0.101,-1.407 0.277,-2.805 0.289,-4.215 0.117,-11.727 0,-23.465 0.363,-35.196 0.348,-11.488 1.379,-22.957 1.734,-34.445 0.414,-13.109 1.09,-26.211 -0.004,-39.367 -0.707,-8.625 -0.371,-17.344 -0.48,-26.024 -0.023,-1.64 0.23,-3.316 -0.051,-4.91 -0.187,-1.047 -0.879,-2.511 -1.722,-2.855 -6.985,-2.824 -11.86,-8.418 -17.555,-12.914 -4.617,-3.649 -8.961,-7.653 -13.465,-11.442 -2.359,-1.992 -4.379,-1.465 -5.52,1.352 -0.257,0.648 -0.488,1.324 -0.636,2.004 -3.43,16.082 -8.215,31.797 -13.27,47.433 -1.449,4.465 -2.523,9.051 -3.851,13.555 -0.723,2.465 -1.543,4.93 -2.481,7.328 -0.828,2.102 -2.324,3.438 -4.793,3.547 -12.035,0.512 -24.058,1.586 -36.133,1.106 -3.347,-0.133 -6.515,-0.762 -9.339,-2.817 -3.032,-2.226 -6.29,-4.133 -9.344,-6.328 -8.012,-5.781 -15.891,-11.75 -23.992,-17.398 -2.668,-1.864 -5.829,-3.051 -8.821,-4.422 -2.894,-1.317 -5.547,-0.668 -7.859,1.425 -3.668,3.321 -7.391,6.59 -10.977,9.989 -7.402,7.051 -15.718,12.804 -24.871,17.308 -2.496,1.231 -5.332,1.879 -8.086,2.473 -7.156,1.527 -14.367,2.809 -21.519,4.336 -3.703,0.785 -7.344,1.621 -11.696,0.742 m 196.856,112.965 c -4.836,7.789 -9.773,14.07 -15.863,19.324 -2.403,2.074 -3.379,4.196 -3.348,7.254 0.051,4.688 -0.242,9.375 -0.395,14.055 -0.16,5.16 -0.117,10.34 -0.55,15.472 -0.453,5.364 -0.258,10.692 0.133,16.02 0.382,5.121 0.976,10.227 1.656,15.324 0.097,0.703 1.136,1.676 1.851,1.785 0.688,0.102 1.961,-0.621 2.184,-1.25 0.527,-1.5 0.91,-3.195 0.781,-4.761 -0.773,-9.368 -1.027,-18.715 0.067,-28.082 0.183,-1.61 0.097,-3.297 -0.141,-4.911 -1.039,-7.031 -0.504,-14.035 0.09,-21.066 0.211,-2.519 1.086,-4.504 2.84,-6.219 6.582,-6.449 11.847,-13.968 17.523,-21.168 2.832,-3.605 2.223,-5.617 -2.258,-7.179 -0.437,-0.149 -0.937,-0.129 -1.394,-0.262 -3.02,-0.832 -5.047,-2.434 -4.836,-5.938 0.051,-0.878 -0.285,-1.863 -0.684,-2.687 -3.168,-6.559 -6.148,-13.199 -10.613,-19.066 -2.336,-3.075 -5.074,-5.653 -8.465,-7.348 -10.414,-5.235 -21.066,-6.789 -32.023,-1.5 -4.465,2.148 -9.024,4.113 -13.446,6.34 -2.093,1.054 -4.05,1.23 -6.066,0.156 -1.207,-0.648 -2.309,-1.492 -3.594,-2.336 1.348,-12.535 1.91,-25.023 4.231,-37.187 2.308,-12.09 4.457,-24.375 9.207,-36.227 3.765,-0.137 7.285,-0.238 10.804,-0.398 5.891,-0.25 11.778,-0.516 17.672,-0.805 3.781,-0.176 7.551,-0.485 11.332,-0.582 4.653,-0.133 8.309,1.601 10.242,6.058 1.77,4.082 3.598,8.153 5.18,12.313 1.664,4.383 3.063,8.863 4.602,13.293 1.461,4.207 3.14,8.34 4.375,12.609 1.425,4.91 2.457,9.934 3.742,15.242 1.226,-0.25 2.586,-0.168 3.316,-0.796 0.778,-0.668 1.293,-2.004 1.328,-3.067 0.047,-1.355 -0.418,-2.754 -0.793,-4.098 -2.812,-10.187 -5.464,-20.425 -9.507,-30.23 -0.719,-1.73 -1.43,-3.492 -1.895,-5.297 -2.113,-8.258 -5.312,-15.93 -11.359,-21.515 1.847,-6.903 3.543,-13.239 5.25,-19.567 3.785,-14.043 7.554,-28.09 11.41,-42.117 0.527,-1.918 0.926,-4.047 2.375,-5.391 0.918,0.211 1.469,0.184 1.797,0.446 7.117,5.41 14.437,10.609 21.203,16.425 3.137,2.696 5.226,6.567 5.422,11.09 0.418,9.836 0.965,19.668 1.39,29.508 0.145,3.277 0.168,6.566 0.09,9.848 -0.097,4.222 -0.347,8.429 -0.535,12.644 -0.348,7.981 -0.25,16 -1.176,23.906 -0.715,6.094 -0.879,12.153 -0.953,18.243 -0.066,5.398 0.078,10.8 -0.015,16.195 -0.211,12.199 -0.407,24.402 -0.821,36.586 -0.301,8.91 -0.902,17.805 -1.426,26.699 -0.511,8.902 -1.25,17.789 -1.617,26.692 -0.683,16.878 -1.199,33.769 -1.73,50.66 -0.219,6.789 -0.367,13.601 -0.399,20.39 -0.019,3.512 0.321,7.032 0.45,10.543 0.316,8.672 0.652,17.356 0.882,26.035 0.141,5.153 0.192,10.313 0.11,15.473 -0.117,7.262 -1.043,14.57 -0.438,21.77 0.93,11.082 -0.101,22.043 -0.574,33.047 -0.074,1.632 -0.273,3.308 -0.746,4.855 -0.43,1.41 0.152,3.27 -1.77,4.437 -2.355,-2.343 -3.035,-5.355 -4.234,-8.078 -6.211,-14.203 -12.062,-28.562 -19.637,-42.125 -3.425,-6.152 -7.238,-12.109 -10.472,-18.375 -3.118,-6.039 -7.356,-10.828 -13.192,-14.332 -2.746,-1.648 -5.32,-3.574 -8.539,-5.754 3.137,-2.304 5.809,-4.195 8.371,-6.214 1.84,-1.454 3.696,-2.938 5.262,-4.668 2.246,-2.465 2.145,-5.477 0.078,-8.313 -0.699,-0.965 -2.773,-0.98 -2.969,0.074 -0.714,3.891 -3.781,6.032 -6.543,7.922 -6.222,4.235 -12.546,8.598 -19.421,11.563 -9.067,3.918 -18.379,7.484 -28.122,9.562 -9.246,1.961 -18.562,3.391 -28.011,4.27 -9.453,0.871 -18.899,1.25 -28.324,0.843 -7.754,-0.335 -15.68,-1.011 -23.122,-3.031 -8.836,-2.398 -17.289,-6.254 -25.793,-9.754 -4.335,-1.797 -8.527,-4.023 -12.578,-6.394 -7.148,-4.188 -13.468,-9.504 -19.578,-15.063 -0.867,-0.789 -1.711,-1.633 -2.691,-2.254 -1.074,-0.683 -2.543,-0.738 -3.145,0.383 -0.441,0.813 -0.125,2.168 0.145,3.203 0.156,0.606 0.902,1.039 1.387,1.559 4.832,5.168 10.234,9.691 16.062,13.711 1.074,0.742 1.879,1.851 3.168,3.16 -9.406,5.148 -14.313,13.332 -18.164,22.336 -0.547,1.289 -1.184,2.547 -1.887,3.762 -4.492,7.707 -9.14,15.332 -13.496,23.117 -5.613,10.043 -11.551,19.898 -16.34,30.394 -2.328,5.106 -5.316,9.914 -8.054,14.832 -0.383,0.696 -1.051,1.243 -2.348,2.727 -0.258,-2.43 -0.516,-3.727 -0.5,-5.023 0.059,-5.864 0.059,-11.739 0.336,-17.602 0.543,-11.488 1.508,-22.957 0.316,-34.457 -0.121,-1.156 0.004,-2.344 0.032,-3.52 0.167,-6.8 0.441,-13.601 0.496,-20.41 0.132,-18.769 0.148,-37.551 0.273,-56.328 0.121,-17.371 -0.371,-34.726 -1.391,-52.066 -0.289,-4.903 -0.277,-9.86 -0.027,-14.77 0.402,-7.976 0.922,-15.945 1.754,-23.875 1.617,-15.465 0.965,-30.965 0.785,-46.445 -0.074,-5.883 0.082,-11.711 0.551,-17.547 0.555,-7.023 1.441,-14.016 1.891,-21.039 0.984,-15.262 0.55,-30.488 -1.622,-45.648 -1.695,-11.84 -3.761,-23.625 -3.687,-35.676 0.027,-4.43 1.344,-7.59 4.734,-10.332 6.235,-5.032 12.266,-10.293 18.442,-15.407 1.035,-0.851 2.336,-1.39 4.109,-2.41 0.453,0.758 0.832,1.352 1.152,1.973 2.707,5.227 5.059,10.59 6.45,16.344 0.601,2.5 1.414,4.957 2.32,7.367 5.246,13.832 11.195,27.367 17.465,40.773 1.269,2.715 2.793,5.465 2.265,8.707 -3.007,3.059 -5.988,6.086 -7.054,10.379 -4.16,16.61 -8.321,33.231 -12.453,49.852 -0.231,0.898 -0.469,1.851 -0.399,2.762 0.035,0.574 0.594,1.539 0.981,1.574 0.836,0.074 2.215,-0.094 2.484,-0.602 0.969,-1.851 1.727,-3.836 2.273,-5.855 2.887,-10.645 5.657,-21.321 8.532,-31.973 1.34,-4.984 2.812,-9.934 4.234,-14.898 0.859,-2.985 2.832,-4.743 5.891,-5.43 1.574,-0.352 3.422,-0.555 4.558,-1.52 1.95,-1.656 4.203,-2.054 6.485,-2.554 11.039,-2.446 22.086,-4.848 33.3,-7.301 0.547,1.055 1.004,1.844 1.372,2.668 3.23,7.328 4.91,15.137 7.089,22.789 2.247,7.887 4.477,15.789 6.434,23.746 2.063,8.422 3.852,16.91 5.613,25.406 0.364,1.739 0.051,3.629 0.051,5.203 -4.504,3.383 -7.973,3.079 -12.207,-0.488 -4.246,-3.578 -9.375,-6.414 -14.543,-8.543 -6.617,-2.734 -13.828,-3.222 -20.945,-2.047 -8.914,1.465 -16.75,5.457 -22.406,12.442 -4.262,5.254 -7.942,11.043 -9.407,17.937 -0.82,3.883 -2.386,7.598 -5.031,10.551 -2.437,0.809 -4.727,1.43 -6.891,2.344 -2.136,0.91 -2.882,3.504 -1.5,5.308 1.125,1.477 2.551,2.735 3.957,3.977 1.766,1.539 3.688,2.906 5.454,4.457 3.543,3.094 7.023,6.242 10.523,9.383 2.672,2.402 4.426,5.031 5.16,8.847 0.988,5.133 1.574,10.258 1.332,15.372 -0.289,6.039 -0.73,12 -0.019,18.085 0.613,5.336 0.156,10.782 0.226,16.176 0.012,1.156 0.035,2.41 0.492,3.418 0.309,0.696 1.344,1.446 2.098,1.481 0.734,0.039 1.828,-0.61 2.203,-1.278 0.543,-0.961 0.778,-2.203 0.785,-3.343 0.024,-2.809 -0.172,-5.625 -0.25,-8.442 -0.234,-8.207 -0.476,-16.418 -0.664,-24.613 -0.086,-3.524 0.219,-7.063 -0.129,-10.543 -1.535,-15.418 1.485,-12.332 -12.039,-23.543 -3.25,-2.695 -6.328,-5.539 -9.148,-8.848 0.797,-0.675 1.238,-1.222 1.82,-1.511 6.77,-3.325 13.485,-6.801 20.371,-9.875 12.086,-5.403 24.594,-9.637 37.434,-12.954 7.488,-1.933 15.32,-2.464 22.508,-5.578 2.09,-0.898 4.148,-0.554 6.078,0.696 5.929,3.836 11.883,7.636 17.828,11.453 1.156,0.742 2.305,1.492 3.668,2.379 2.141,-1.297 4.195,-2.426 6.129,-3.743 1.941,-1.324 3.765,-2.824 5.609,-4.281 2.774,-2.183 5.469,-4.484 8.297,-6.594 4.027,-3.019 8.18,-4.003 13.219,-1.816 8.004,3.465 16.285,6.309 24.441,9.441 7.051,2.715 14.086,5.465 21.133,8.2 5.707,2.222 11.418,4.437 17.129,6.648 3.051,1.188 6.094,2.383 9.832,3.84 M 401.227,229.68 c 1.558,0.363 2.796,0.371 3.718,0.91 3.457,2.008 6.918,4.039 10.192,6.336 8.265,5.808 16.41,11.793 24.644,17.648 1.727,1.223 2.606,2.633 2.102,4.754 -0.973,4.094 -1.84,8.227 -2.914,12.305 -4.489,17.055 -7.281,34.371 -8.239,51.972 -0.136,2.567 -0.621,5.114 -0.89,7.68 -0.238,2.27 -1.305,3.903 -3.371,4.996 -5.231,2.789 -9.836,6.438 -14.321,10.266 -0.582,0.5 -1.566,0.527 -2.609,0.84 -1.199,-7.41 -1.32,-14.422 -1.512,-21.438 -0.132,-4.929 0.11,-9.894 -0.504,-14.758 -1.519,-12.117 -1.847,-24.273 -1.96,-36.457 -0.036,-3.742 -0.118,-7.511 -0.567,-11.226 -1.141,-9.535 -2.527,-19.051 -3.734,-28.574 -0.203,-1.575 -0.035,-3.196 -0.035,-5.254 m 1.562,118.191 c -5.453,-1.781 -9.355,-5.226 -13.695,-7.887 -2.629,-1.609 -3.703,-3.91 -3.871,-7.019 -0.387,-7.293 -2.328,-14.305 -4.293,-21.32 -1.84,-6.532 -3.434,-13.137 -5.153,-19.707 -1.187,-4.52 -2.394,-9.051 -3.644,-13.563 -1.942,-6.992 -3.84,-14.008 -5.934,-20.957 -0.867,-2.891 -0.246,-4.984 2.215,-6.707 7.934,-5.531 15.152,-11.914 22.09,-18.621 0.976,-0.953 2.043,-2.012 3.867,-1.418 0.211,0.512 0.598,1.101 0.684,1.742 1.57,11.832 3.117,23.672 4.621,35.52 0.293,2.328 0.738,4.707 0.508,6.996 -0.664,6.566 0.281,13.082 0.281,19.621 0,4.719 0.918,9.312 1.183,13.965 0.719,12.605 1.063,25.254 1.54,37.882 0.007,0.219 -0.11,0.454 -0.399,1.473" /></g></g></svg>