<?xml version="1.0" encoding="UTF-8" standalone="no"?>
<svg
   xmlns:dc="http://purl.org/dc/elements/1.1/"
   xmlns:cc="http://creativecommons.org/ns#"
   xmlns:rdf="http://www.w3.org/1999/02/22-rdf-syntax-ns#"
   xmlns:svg="http://www.w3.org/2000/svg"
   xmlns="http://www.w3.org/2000/svg"
   viewBox="0 0 100 100"
   height="100"
   width="100"
   xml:space="preserve"
   version="1.1"
   id="svg2"><metadata
     id="metadata8"><rdf:RDF><cc:Work
         rdf:about=""><dc:format>image/svg+xml</dc:format><dc:type
           rdf:resource="http://purl.org/dc/dcmitype/StillImage" /></cc:Work></rdf:RDF></metadata><defs
     id="defs6" /><g
     transform="matrix(1.25,0,0,-1.25,0,100)"
     id="g10"><g
       transform="scale(0.1,0.1)"
       id="g12"><path
         id="path14"
         style="fill:#1b181a;fill-opacity:1;fill-rule:nonzero;stroke:none"
         d="m 511.023,308.859 c 0.09,-1.129 0.305,-2.269 0.25,-3.398 -0.492,-10.402 -0.125,-20.77 0.942,-31.137 0.582,-5.625 2.281,-10.793 4.992,-15.66 2.949,-5.285 6.641,-9.992 11.07,-14.113 3.051,-2.832 6.157,-5.629 8.969,-8.699 4.402,-4.793 9.82,-7.989 15.684,-10.332 16.074,-6.418 32.711,-9.582 50.054,-8.008 1.649,0.144 3.309,0.332 4.911,0.711 5.148,1.218 10.312,2.41 15.398,3.863 4.312,1.223 8.391,3.102 12.133,5.644 1.234,0.84 2.445,1.805 3.808,2.356 5.008,2.039 8.379,5.945 11.383,10.187 3.184,4.497 5.992,9.215 7.824,14.504 1.704,4.895 4.008,9.578 5.512,14.528 2.391,7.828 4.852,15.66 5.621,23.902 0.906,9.637 0.141,19.109 -2.664,28.34 -1.996,6.555 -4.285,13.027 -6.629,19.473 -0.847,2.332 -1.953,4.668 -3.422,6.644 -4.988,6.719 -10.464,12.992 -17.695,17.406 -1.258,0.774 -2.422,1.7 -3.777,2.649 0.246,0.922 0.269,1.824 0.691,2.457 1.586,2.359 1.375,4.613 0.195,7.086 -1.144,2.402 -1.98,4.961 -3.07,7.75 1.02,0.843 1.973,1.703 3,2.465 1.477,1.078 2.988,2.101 4.516,3.109 3.484,2.297 3.496,2.648 1.719,6.352 -1.368,2.843 -2.426,5.839 -3.688,8.941 -1.996,1.031 -3.977,0.73 -5.996,-0.348 -3.066,-1.636 -6.176,-3.187 -9.477,-4.879 -1.441,1.043 -2.765,1.989 -4.062,2.961 -3.227,2.434 -4.77,2.629 -8.106,0.473 -8.367,-5.41 -17.027,-10.359 -24.949,-16.473 -2.633,-2.023 -5.492,-3.621 -8.613,-4.89 -5.524,-2.258 -10.746,-5.168 -15.82,-8.364 -7.614,-4.789 -15.625,-8.789 -24.079,-11.832 -0.55,-0.199 -1.203,-0.105 -1.929,-0.16 -0.063,4.281 1.515,7.418 4.883,9.442 3.125,1.879 6.39,3.507 9.601,5.238 2.473,1.332 5.039,2.523 7.418,4.027 1.473,0.934 2.945,1.348 4.633,1.52 1.957,0.215 4.055,0.347 5.793,1.172 5.699,2.699 11.101,5.906 15.598,10.519 3.71,3.817 7.601,7.457 11.441,11.149 3.598,3.461 7.184,6.929 10.852,10.312 2.582,2.383 5.539,4.234 8.691,5.774 9.562,4.668 19.309,8.816 29.883,10.519 1.777,0.285 3.605,0.481 5.394,0.367 2.758,-0.176 5.254,0.598 7.676,1.715 2.465,1.141 3.938,3.192 3.949,5.922 0.012,2.145 -0.281,4.348 -0.808,6.43 -1.067,4.211 -2.379,8.371 -3.606,12.539 -0.469,1.59 -1.238,3.136 -0.535,5.16 0.723,0.285 1.59,0.699 2.5,0.984 3.473,1.086 6.988,2.059 10.438,3.231 1.371,0.465 2.691,1.23 3.875,2.082 1.468,1.066 1.968,2.511 1.339,4.414 -1.308,3.949 -2.441,7.957 -3.566,11.672 -0.508,0.433 -0.73,0.699 -1.012,0.859 -4.593,2.524 -4.64,2.758 -9.797,1.672 -8.578,-1.805 -17.386,-2.258 -25.836,-4.852 -3.296,-1.019 -6.804,-1.597 -10.25,-1.8 -7.472,-0.426 -14.742,-2.055 -22.089,-3.235 -2.934,-0.465 -5.934,-0.597 -8.911,-0.644 -9.136,-0.16 -18.136,-1.602 -27.156,-2.864 -5.902,-0.828 -11.816,-1.558 -17.699,-2.511 -3.266,-0.528 -6.48,-1.352 -9.691,-2.137 -3.313,-0.82 -5.465,-2.828 -6.457,-6.254 -0.93,-3.207 -2.149,-6.332 -3.29,-9.48 -0.757,-2.098 -2.128,-3.704 -3.871,-5.098 -9.332,-7.512 -20.129,-11.348 -31.711,-13.426 -5.781,-1.043 -11.476,-1.109 -17.246,0.086 -4.859,1.016 -9.777,1.734 -14.679,2.531 -4.02,0.661 -7.575,2.286 -10.821,4.746 -3.699,2.817 -7.453,5.555 -11.207,8.29 -2.035,1.488 -3.949,3.113 -5.156,5.355 -1.543,2.875 -3.801,5.059 -6.266,7.059 -4.293,3.472 -8.066,7.441 -11.46,11.808 -4.93,6.348 -10.329,12.211 -16.95,16.82 -2.175,1.52 -4.179,3.278 -6.289,4.895 -2.211,1.699 -4.738,2.27 -7.484,2.086 -4.781,-0.328 -9.621,0.043 -14.34,-1.141 -0.609,-0.152 -1.289,-0.019 -1.969,-0.019 -1.539,2.351 -3.168,4.48 -4.39,6.824 -2.239,4.262 -5.793,6.227 -10.332,6.879 -3.598,0.523 -7.184,1.184 -10.766,1.832 -0.793,0.144 -1.543,0.504 -2.402,0.789 -1.243,9.23 -2.364,18.344 -0.004,27.824 0.683,0.231 1.558,0.629 2.48,0.809 0.969,0.199 2.004,0.07 2.961,0.285 4.074,0.934 5.293,3.109 4.727,6.34 -0.289,1.644 -0.453,3.312 -0.742,4.965 -0.918,5.312 -1.098,10.66 -0.723,16.043 0.047,0.625 -0.172,1.277 -0.274,1.941 -7.175,1.805 -13.078,0.199 -17.832,-5.527 -1.937,-2.34 -2.882,-4.953 -2.531,-7.887 0.578,-4.844 1.301,-9.695 5.293,-13.164 1.828,-1.586 2.336,-3.703 1.953,-5.926 -1.258,-7.351 -0.945,-14.695 -0.316,-22.066 0.066,-0.774 -0.258,-1.586 -0.461,-2.731 -2.285,0.375 -4.414,0.574 -6.461,1.086 -6.496,1.617 -13.133,1.531 -19.738,1.852 -0.66,0.031 -1.332,0 -1.985,-0.102 -3.789,-0.547 -5.738,-2.554 -5.535,-6.41 0.176,-3.328 0.758,-6.66 1.465,-9.93 0.676,-3.093 1.621,-6.148 2.703,-9.132 0.617,-1.7 1.649,-3.27 2.66,-4.79 1.606,-2.41 3.871,-3.496 6.809,-3.281 2.117,0.149 4.254,0.028 6.723,0.028 0.441,-1.692 0.886,-3.403 1.386,-5.321 -1.086,-0.554 -1.886,-1.183 -2.781,-1.386 -8.832,-1.977 -17.656,-2.594 -26.523,-0.012 -5.098,1.484 -10.207,2.855 -14.817,5.64 -0.992,0.598 -2.051,1.278 -3.148,1.446 -3.379,0.504 -4.965,2.855 -6.41,5.597 -3.817,7.247 -7.879,14.364 -11.567,21.672 -1.406,2.797 -2.445,5.918 -2.976,9.024 -1.735,10.14 -1.004,20.039 4.015,29.269 1.91,3.516 4.031,6.918 5.961,10.418 2.172,3.942 4.262,7.938 6.336,11.942 0.602,1.156 0.375,2.3 -0.598,3.195 -3.945,3.641 -8.449,5.746 -13.929,5.539 -2.84,-0.102 -5.192,-1.055 -6.965,-3.242 -1.043,-1.285 -1.883,-2.742 -2.777,-4.149 -3.5,-5.492 -7.047,-10.953 -10.461,-16.5 -6.739,-10.945 -10.5,-23.097 -13.582,-35.472 -0.684,-2.739 -0.977,-5.621 -1.051,-8.453 -0.113,-4.547 -0.731,-9.008 -1.453,-13.473 -1.746,-10.773 -3.071,-21.582 -2.145,-32.539 0.121,-1.5 0.016,-3.012 0.016,-4.664 -2.91,-2.488 -6.508,-3.86 -9.739,-5.836 -8.367,-5.117 -16.718,-10.231 -24.445,-16.336 -3.125,-2.469 -5.133,-5.606 -6.711,-9.176 -1.027,-2.328 -0.636,-4.605 0.047,-6.863 0.481,-1.59 1.766,-2.195 3.508,-2.059 2.961,0.25 5.918,0.453 8.883,0.629 1.992,0.113 3.988,0.172 5.773,1.219 7.817,4.559 16.422,7.062 24.91,9.867 4.403,1.449 8.817,2.867 13.211,4.348 2.77,0.937 5.637,0.965 8.344,0.238 5.273,-1.41 10.453,-3.184 15.652,-4.859 0.582,-0.188 1.063,-0.719 1.766,-1.227 -0.344,-3.035 -1.273,-5.859 -2.285,-8.668 -1.59,-4.402 -3.129,-8.828 -4.817,-13.191 -1.324,-3.422 -2.859,-6.766 -4.257,-10.16 -1.207,-2.938 -2.356,-5.907 -3.528,-8.856 -0.672,-1.695 -1.347,-3.387 -2.043,-5.144 -12.894,3.121 -25.812,4.679 -38.851,5.207 -8.742,0.343 -17.199,-1.246 -25.078,-5.063 -2.875,-1.39 -5.789,-3.156 -7.934,-6.156 0.277,-1.188 0.574,-2.453 0.875,-3.719 -0.211,-0.25 -0.375,-0.664 -0.629,-0.738 -11.281,-3.254 -19.875,-10.379 -27.183,-19.348 -2.422,-2.976 -5.059,-5.82 -7.086,-9.051 -4.829,-7.687 -8.215,-16.058 -10.164,-24.972 -0.825,-3.754 -1.575,-7.543 -2.079,-11.352 -0.902,-6.851 -0.457,-13.683 0.614,-20.515 0.836,-5.313 1.613,-10.622 3.324,-15.715 0.851,-2.524 1.883,-5.012 3.133,-7.356 2.914,-5.453 5.773,-10.968 9.644,-15.808 3.188,-3.981 5.555,-8.668 9.848,-11.723 1.894,-1.34 3.617,-2.93 5.512,-4.277 6.933,-4.926 14.402,-8.895 22.179,-12.258 4.731,-2.043 9.711,-3.289 14.789,-4.086 4.739,-0.738 9.5,-1.332 14.219,-2.18 4.324,-0.769 8.594,-0.429 12.848,0.289 7.996,1.344 16.011,2.684 23.39,6.371 0.743,0.368 1.559,0.625 2.235,1.086 7.933,5.481 16.023,10.735 23.246,17.2 4.027,3.605 7.078,7.941 9.465,12.796 1.543,3.157 3.105,6.297 4.812,9.36 2.805,5.054 3.985,10.648 5.285,16.172 1.907,8.07 1.735,16.312 1.36,24.523 -0.094,1.984 -0.758,3.942 -1.203,5.895 -0.411,1.797 -0.954,3.558 -0.434,5.437 1.586,0.254 2.352,-1.004 3.367,-1.785 1.321,-0.996 2.512,-2.582 3.969,-2.887 2.723,-0.566 3.641,-2.547 4.859,-4.543 5.227,-8.562 10.977,-16.726 17.496,-24.355 5.696,-6.672 12.856,-8.395 21.036,-7.27 5.074,0.7 10.109,1.711 15.191,2.336 6.895,0.852 13.82,1.453 20.73,2.192 6.747,0.726 13.489,1.492 20.231,2.25 4.762,0.531 9.531,1.004 14.281,1.644 4.262,0.574 8.492,1.406 12.754,2.012 12.633,1.777 25.098,4.461 37.328,8.043 7.781,2.277 15.457,4.848 23.395,6.609 6.933,1.539 13.726,3.762 20.582,5.672 1.902,0.527 3.801,1.133 6.054,0.613 m -32.55,73.75 0,0 c 2.3,1.883 4.98,1.864 7.722,2.34 1.785,0.317 3.621,0.449 5.348,0.961 10.785,3.235 21.543,6.578 32.316,9.84 7.133,2.156 14.282,4.258 21.43,6.348 2.242,0.66 4.508,0.925 7.113,0.023 1.395,-5.344 4.036,-10.406 4.45,-16.25 -0.836,-0.512 -1.504,-0.984 -2.223,-1.351 -5.594,-2.911 -11.203,-5.766 -16.789,-8.696 -4.137,-2.164 -6.305,-5.765 -6.992,-10.336 -0.328,-2.129 -0.512,-4.281 -0.793,-6.691 -7.551,-4.039 -14.231,-9.539 -21.211,-14.594 -1.715,-1.238 -1.86,-1.824 -1.317,-3.828 0.516,-1.91 1.77,-3.602 1.684,-5.852 -0.504,-0.394 -0.957,-0.914 -1.527,-1.187 -5.071,-2.43 -10.145,-4.871 -15.258,-7.211 -5.746,-2.637 -11.66,-4.785 -17.938,-5.703 -7.039,-1.035 -14.082,-2.059 -21.14,-2.953 -9.356,-1.184 -18.731,-2.254 -28.098,-3.34 -0.941,-0.113 -1.914,-0.016 -2.781,-0.016 -3.332,9.235 -5.449,18.606 -10.641,26.715 -0.359,0.559 -0.551,1.219 -0.808,1.836 -2.653,6.313 -5.329,12.617 -7.942,18.945 -1.098,2.657 -3.074,3.914 -5.808,3.856 -2.137,-0.055 -4.27,-0.375 -6.407,-0.582 -3.109,-0.297 -6.222,-0.606 -9.175,-0.891 -1.696,1.617 -3.118,2.977 -4.383,4.188 -0.614,0.039 -0.961,0.144 -1.262,0.066 -3.352,-0.859 -6.629,-2.105 -10.215,-1.578 -0.734,0.105 -1.672,-0.246 -2.316,-0.691 -1.715,-1.18 -3.633,-1.414 -5.602,-1.747 -2.762,-0.464 -5.492,-1.152 -8.203,-1.863 -7.137,-1.879 -14.254,-3.816 -21.488,-5.765 -1.399,3.562 -2.66,6.902 -2.965,10.765 1.109,0.141 1.926,0.418 2.699,0.321 5.637,-0.688 10.805,0.738 15.758,3.339 1.609,0.848 3.293,1.551 4.965,2.286 6.59,2.871 12.679,6.492 17.656,11.843 0.879,0.946 1.992,1.668 3.227,2.672 2.687,-1.594 5.289,-3.023 7.777,-4.64 2.535,-1.637 5.125,-3.243 8.086,-3.696 6.68,-1.019 13.34,-2.586 20.183,-1.39 0.961,0.171 1.989,0.066 2.973,-0.043 9.852,-1.079 19.485,0.953 29.117,2.351 6.848,1 13.559,2.988 20.325,4.555 1.476,0.34 2.824,0.168 4.339,-0.125 5.321,-1.035 10.59,-2.637 16.114,-2.231 m -295.317,47.266 c 0.453,3.262 2.324,5.594 4.481,7.582 2.687,2.484 5.515,4.867 8.535,6.898 7.992,5.379 16.09,10.622 24.891,14.61 11.183,5.058 22.05,10.773 32.761,16.785 4.36,2.449 8.903,4.555 13.762,5.68 4.723,1.09 9.406,1.359 13.777,-1.797 2.106,-1.52 4.672,-2.524 7.164,-3.336 3.457,-1.141 7.039,-1.871 10.567,-2.785 4.527,-1.157 9.105,-1.875 13.773,-1.184 3.762,0.551 7.531,1.145 11.246,1.949 4.754,1.036 5.106,1.758 4.008,6.489 -0.363,1.57 -1.297,3.129 -0.172,5.07 4.024,-0.098 8.035,0.801 11.989,1.992 1.738,0.527 3.402,1.164 5.32,0.934 1.281,-0.16 2.004,0.965 1.859,2.343 -0.137,1.29 -1.125,2.122 -2.383,1.977 -0.324,-0.039 -0.644,-0.129 -0.968,-0.187 -6.969,-1.364 -13.868,-3.336 -21.098,-2.215 -1.117,0.172 -2.305,-0.11 -3.461,-0.184 -1.156,-0.07 -2.312,-0.199 -3.469,-0.203 -1.793,-0.02 -3.215,0.719 -4.062,2.375 -0.457,0.895 -0.961,1.777 -1.27,2.723 -1.609,4.949 -2.843,9.98 -3.086,15.207 -0.05,1.121 0.25,2.254 0.352,3.086 2.234,1.687 4.426,1.289 6.558,1.152 2.145,-0.137 4.29,-0.555 6.426,-0.516 4.86,0.102 9.567,-0.777 14.203,-2.07 1.379,-0.387 2.551,-1.625 3.926,-1.883 1.367,-0.262 2.871,0.231 4.317,0.36 0.312,0.027 0.64,-0.149 0.968,-0.2 3.586,-0.601 7.176,-1.218 10.774,-1.8 3.5,-0.559 6.047,-2.321 7.761,-5.559 1.317,-2.504 3.032,-4.785 4.551,-7.176 1.285,-2.019 3.067,-2.164 5.215,-1.711 3.231,0.68 6.492,1.215 9.766,1.629 5.293,0.676 9.797,-0.578 14.211,-4.148 7.168,-5.797 13.761,-12.008 19.386,-19.34 3.442,-4.496 7.192,-8.742 11.789,-12.125 0.782,-0.574 1.817,-1.313 1.969,-2.125 0.336,-1.785 1.551,-2.902 2.403,-4.313 2.73,-4.543 3.343,-10.109 -0.129,-14.589 -4.825,-6.227 -10.254,-11.821 -16.407,-16.719 -2.832,-2.25 -5.816,-3.731 -9.535,-3.547 -1.804,0.086 -3.633,-0.383 -5.445,-0.344 -6.977,0.16 -12.484,-2.734 -16.867,-8.082 -0.211,-0.254 -0.449,-0.492 -0.668,-0.738 -5.641,-6.36 -11.254,-12.738 -16.914,-19.07 -6.817,-7.622 -14.785,-13.387 -24.887,-15.68 -0.805,-0.188 -1.598,-0.434 -2.383,-0.703 -6.523,-2.219 -12.992,-1.914 -19.422,0.41 -9.011,3.258 -17.066,8.223 -24.043,14.754 -7.761,7.273 -15.136,14.961 -22.863,22.652 1.75,5.602 3.441,11.172 5.242,16.707 0.61,1.891 1.121,3.981 2.305,5.473 1.5,1.898 2.383,3.969 3.211,6.152 1.133,2.969 2.215,5.965 3.527,8.848 2.453,5.387 2.516,5.367 8.106,7.086 0.632,0.191 1.273,0.359 1.922,0.492 6.644,1.359 13.281,2.73 19.933,4.043 7.313,1.441 14.641,2.789 21.949,4.238 8.793,1.746 17.621,2.949 26.625,2.719 6.352,-0.16 12.516,-1.121 18.43,-3.504 3.074,-1.23 6.106,-2.574 9.168,-3.848 0.754,-0.312 1.539,-0.632 2.34,-0.726 0.93,-0.106 1.551,0.484 1.68,1.437 0.144,1.094 -0.168,2.051 -1.219,2.496 -1.988,0.836 -4.094,1.407 -6.012,2.372 -11.351,5.695 -23.469,6.992 -35.82,5.921 -8.067,-0.699 -16.082,-2.152 -24.055,-3.625 -11.062,-2.043 -22.07,-4.386 -33.086,-6.675 -2.75,-0.575 -5.461,-1.379 -8.16,-2.184 -1.992,-0.586 -3.41,-1.805 -4.195,-3.91 -1.457,-3.914 -3.098,-7.762 -4.723,-11.606 -0.715,-1.691 -1.316,-3.527 -2.43,-4.914 -3.246,-4 -4.535,-4.074 -8.058,-2.8 -6.543,2.347 -13.157,4.488 -19.68,6.882 -4.98,1.832 -10.012,2.258 -15.117,0.961 -3.84,-0.98 -7.629,-2.199 -11.402,-3.429 -2.672,-0.875 -5.223,-2.2 -7.934,-2.871 -4.035,-1.004 -7.988,-2.157 -11.754,-3.954 -2.238,-1.082 -4.531,-2.031 -6.793,-3.07 -4.187,-1.918 -8.457,-2.656 -13.176,-1.039 m 378.715,-42.293 c -0.457,1.02 -0.769,1.606 -0.984,2.223 -1.586,4.582 -3.274,9.136 -4.672,13.777 -0.746,2.469 -2.207,3.555 -4.602,3.809 -2.836,0.304 -5.633,0.14 -8.367,-0.661 -5.082,-1.496 -10.164,-2.996 -15.211,-4.621 -8.347,-2.687 -16.695,-5.398 -24.992,-8.25 -8.504,-2.921 -17.477,-3.668 -26.094,-6.023 -0.945,-0.262 -1.965,-0.332 -2.945,-0.32 -0.504,0 -1.41,-0.34 -1.434,1.023 0.75,0.441 1.567,0.945 2.41,1.406 4.067,2.211 8.239,4.254 12.192,6.657 7.543,4.582 14.285,10.261 21.004,15.976 4.804,4.086 9.586,8.188 15.125,11.336 5.758,3.277 11.211,7.106 16.914,10.496 3.433,2.043 6.562,4.473 9.719,6.883 2.504,1.926 4.957,3.93 7.543,5.727 1.898,1.32 3.851,2.769 6.003,3.449 6.301,1.984 12.668,3.84 19.106,5.304 4.66,1.067 9.492,1.368 14.23,2.118 4.274,0.687 8.512,1.679 11.985,4.468 6.605,5.309 14.094,9.422 20.156,15.454 1.32,1.32 2.969,1.972 4.844,2.332 7.133,1.378 14.222,2.984 21.359,4.347 2.594,0.5 5.258,0.688 7.899,0.824 2.57,0.133 3.675,-0.586 4.539,-3 0.937,-2.636 1.64,-5.367 2.457,-8.086 -1.809,-1.484 -3.703,-1.929 -5.645,-2.347 -2.742,-0.594 -5.48,-1.227 -8.187,-1.973 -5.887,-1.617 -6.332,-2.597 -4.719,-8.504 1.633,-5.957 3.129,-11.965 4.586,-17.976 0.258,-1.059 0.039,-2.235 0.039,-3.5 -1.598,-0.481 -2.996,-0.965 -4.434,-1.301 -4.668,-1.098 -9.332,-2.27 -14.043,-3.168 -7.05,-1.344 -13.629,-4.066 -20.199,-6.813 -11.105,-4.632 -19.992,-12.371 -28.101,-21.085 -2.473,-2.665 -4.973,-5.274 -7.508,-7.864 -4.176,-4.261 -9.196,-7.078 -14.031,-10.265 -1.7,-1.125 -3.583,-1.575 -5.942,-1.852 m -123.879,60.051 c 0.66,0 1.063,0.125 1.281,-0.02 2.329,-1.593 4.668,-3.156 6.918,-4.855 4.704,-3.543 9.727,-6.125 15.582,-7.352 5.848,-1.218 11.762,-1.828 17.61,-2.91 3.305,-0.605 6.578,-0.926 9.859,-0.531 4.262,0.508 8.567,1.008 12.711,2.058 10.18,2.59 19.82,6.446 28.145,13.192 1.757,1.422 3.09,3 3.816,5.105 1.09,3.16 2.203,6.317 3.184,9.516 0.98,3.195 3.047,5.137 6.238,5.769 6.004,1.196 12.016,2.333 18.039,3.438 2.766,0.5 5.57,0.785 8.336,1.297 7.824,1.453 15.668,2.586 23.66,2.566 3.289,-0.008 6.594,0.438 9.871,0.832 4.762,0.578 9.504,1.309 14.262,1.93 0.375,0.047 0.797,-0.281 1.598,-0.586 -1.024,-1.031 -1.719,-1.937 -2.606,-2.59 -2.812,-2.051 -5.918,-3.758 -8.508,-6.066 -4.281,-3.809 -9.203,-5.754 -14.746,-6.571 -9.492,-1.398 -18.945,-2.898 -28.168,-5.832 -5.652,-1.804 -10.758,-4.328 -15.117,-8.324 -3.457,-3.172 -7.25,-5.832 -11.184,-8.332 -1.253,-0.797 -2.5,-1.64 -3.671,-2.566 -7.59,-5.992 -15.829,-10.949 -24.227,-15.656 -1.437,-0.805 -2.816,-1.786 -4.043,-2.887 -7.168,-6.473 -14.672,-12.5 -22.742,-17.785 -6.985,-4.575 -14.285,-8.41 -22.512,-10.223 -5.492,-1.211 -10.945,-2.609 -16.414,-3.934 -2.414,-0.586 -4.793,-1.398 -7.238,-1.738 -7.211,-1.012 -14.422,-2.125 -21.672,-2.656 -5.918,-0.438 -11.899,-0.293 -17.84,-0.055 -3.617,0.141 -7.207,1.008 -10.82,1.446 -1.692,0.207 -3.375,0.554 -4.547,1.773 -2.281,2.363 -5.125,3.621 -8.035,4.859 -0.696,0.293 -1.285,0.848 -2.153,1.434 5.309,6.441 10.149,12.75 16.254,17.969 2.942,2.515 6.055,3.922 9.856,4.074 3.304,0.133 6.605,0.426 9.914,0.641 1.851,0.117 3.574,0.585 5.062,1.785 2.328,1.875 4.789,3.601 6.989,5.617 5.136,4.723 10.402,9.328 14.019,15.5 1.031,1.754 1.93,3.457 2.188,5.508 0.23,1.757 0.578,3.5 0.851,5.16 m 94.133,-138.285 c 0,-2.258 0.008,-3.743 0,-5.219 -0.027,-4.363 -0.184,-8.723 -0.043,-13.07 0.09,-2.664 0.18,-5.489 1.074,-7.938 2.172,-5.945 4,-12.105 7.723,-17.34 2.703,-3.801 5.559,-7.488 8.453,-11.144 1.438,-1.817 2.992,-3.582 4.699,-5.133 6.828,-6.207 15.305,-9.145 23.774,-12.059 0.308,-0.105 0.652,-0.121 0.98,-0.168 8.11,-1.238 16.153,-0.757 24.172,0.86 5.395,1.086 10.406,3.297 15.484,5.293 10.918,4.3 18.52,12.047 23.071,22.937 1.676,4.008 3.343,8.031 5.261,11.926 2.934,5.937 4.192,12.34 5.282,18.777 0.304,1.77 0.015,3.668 -0.141,5.493 -0.144,1.656 -0.445,3.316 -0.738,4.96 -0.996,5.454 -2.36,10.692 -5.5,15.461 -2.668,4.039 -5.254,8.129 -8.293,11.875 -4.961,6.11 -10.176,11.926 -18,14.477 -2.508,0.812 -4.875,2.07 -7.281,3.184 -0.645,0.293 -1.204,0.793 -2.293,1.531 4.066,1.73 7.644,3.027 11.011,4.746 3.516,1.801 6.828,4.004 10.422,6.144 1.77,-0.875 3.598,-1.656 5.297,-2.656 5.965,-3.519 10.516,-8.601 14.926,-13.859 2.277,-2.731 4.019,-5.715 5.183,-9.078 1.754,-5.059 3.665,-10.059 5.344,-15.141 3.934,-11.852 4.555,-23.961 2.156,-36.191 -1.062,-5.422 -2.472,-10.774 -3.824,-16.129 -2.14,-8.481 -5.301,-16.551 -9.922,-23.989 -2.3,-3.71 -4.691,-7.464 -8.257,-9.949 -5.165,-3.601 -10.422,-7.101 -16.25,-9.613 -5.211,-2.242 -10.645,-3.637 -16.122,-4.941 -7.64,-1.817 -15.39,-2.395 -23.179,-1.563 -10.406,1.109 -20.547,3.582 -30.438,7.004 -6.48,2.242 -12.406,5.484 -17.09,10.773 -1.761,1.985 -3.73,3.848 -5.839,5.446 -3.211,2.445 -5.801,5.453 -8.407,8.496 -4.816,5.605 -7.609,12.203 -8.57,19.457 -1.215,9.133 -1.656,18.355 -1.359,27.59 0.113,3.515 0.425,6.984 2.355,10.379 1.258,0.339 2.664,0.722 3.863,1.039 0.411,-0.305 0.582,-0.379 0.668,-0.512 0.176,-0.266 0.297,-0.566 0.446,-0.852 1.375,-2.617 2.078,-3.031 4.593,-2.523 1.602,0.32 3.188,0.73 5.309,1.219 m -335.613,56.367 c -1.133,-0.539 -2.067,-1.152 -3.086,-1.438 -9.645,-2.703 -18.606,-6.718 -26.824,-12.664 -7.516,-5.437 -12.711,-12.609 -17.059,-20.593 -0.629,-1.153 -0.922,-2.512 -1.277,-3.797 -2.18,-7.856 -2.661,-15.844 -1.68,-23.922 0.828,-6.817 1.762,-13.621 2.75,-20.422 1.043,-7.188 3.34,-13.973 6.519,-20.484 1.352,-2.766 3.176,-5.063 5.473,-7.059 5.461,-4.742 11.496,-8.465 18.309,-10.848 2.972,-1.039 5.914,-2.183 8.937,-3.008 2.703,-0.742 5.531,-0.988 8.254,-1.671 4.715,-1.188 9.418,-1.387 14.262,-0.86 8.226,0.899 16.39,2.129 24.535,3.59 4.965,0.879 9.398,3.141 14.043,4.867 0.902,0.34 1.742,0.992 2.453,1.676 5.438,5.223 9.942,11.188 13.699,17.754 3.524,6.144 4.41,12.957 4.688,19.84 0.297,7.363 0.211,14.75 0.203,22.133 -0.008,3.859 -0.441,7.683 -1.551,11.41 -0.996,3.371 -1.945,6.746 -2.867,10.129 -0.41,1.511 -1.234,3.015 -0.504,4.687 4.383,-1.426 15.391,-8.148 18.285,-11.234 0.649,-0.692 1.223,-1.649 1.395,-2.571 0.785,-4.281 1.488,-8.582 2.097,-12.886 0.735,-5.184 0.231,-10.383 0.024,-15.571 -0.223,-5.585 -1.426,-10.945 -3.32,-16.171 -2.461,-6.793 -5.75,-13.204 -9.344,-19.411 -2.672,-4.621 -6.02,-8.8 -10.543,-11.871 -5.367,-3.632 -10.586,-7.484 -15.942,-11.136 -3.996,-2.731 -8.246,-4.985 -12.984,-6.129 -4.176,-1.012 -8.344,-2.063 -12.543,-2.981 -5.562,-1.219 -11.199,-1.191 -16.809,-0.492 -3.937,0.492 -7.847,1.258 -11.746,2.023 -8.336,1.637 -16.414,4.133 -23.683,8.676 -5.485,3.422 -11.02,6.766 -16.129,10.805 -3,2.379 -5.34,4.875 -5.867,8.988 -2.137,-0.172 -3.7,0.461 -4.559,2.418 -0.394,0.906 -1.105,1.672 -1.687,2.485 -9.082,12.656 -12.875,26.957 -13.2,42.453 -0.152,7.465 0.75,14.734 2.731,21.859 2.297,8.242 5.168,16.305 10.219,23.305 2.336,3.234 5.23,6.043 7.695,9.191 3.758,4.805 8.387,8.531 13.445,11.785 4.235,2.739 8.571,5.102 13.789,5.121 1.149,0.008 2.332,0.215 3.422,0.575 1.582,0.523 2.938,0.152 4.262,-0.641 3.558,-2.129 7.117,-4.273 10.648,-6.449 0.375,-0.235 0.571,-0.762 1.067,-1.461 m 419.097,34.879 c 3.61,-1.707 3.551,-1.739 4.934,-4.11 1.758,-3.023 3.387,-6.171 5.508,-8.929 2.597,-3.383 4.066,-7.219 5.66,-11.086 1.324,-3.203 0.605,-4.184 -1.664,-5.985 -4.422,-3.515 -8.934,-6.914 -14.391,-8.703 -2.355,-0.777 -4.691,-1.636 -6.984,-2.582 -2.293,-0.945 -4.637,-1.859 -6.75,-3.133 -4.547,-2.726 -8.996,-5.625 -13.426,-8.554 -5.812,-3.84 -11.48,-7.914 -17.363,-11.653 -12.914,-8.187 -26.887,-14.336 -40.582,-21 -0.84,-0.406 -1.817,-0.523 -2.395,-0.691 -3.801,3.801 -6.801,7.777 -8.894,12.293 -2.137,4.613 -5.707,8.633 -6.196,14.191 3.11,2.352 6.114,4.688 9.18,6.946 7.242,5.32 14.891,9.863 23.328,13.086 4.926,1.875 9.965,3.629 14.453,6.55 7.114,4.625 14.711,8.309 22.383,11.86 2.086,0.965 4.16,2.148 5.914,3.629 7.664,6.468 16.711,10.793 24.793,16.601 0.793,0.571 1.746,0.895 2.492,1.27 M 519.977,317.07 c -1.016,-0.527 -1.543,-0.937 -2.141,-1.09 -5.77,-1.464 -11.52,-3.05 -17.344,-4.277 -6.668,-1.402 -12.937,-4.133 -19.512,-5.785 -7.714,-1.93 -15.261,-4.367 -22.808,-6.844 -9.938,-3.258 -20.258,-4.84 -30.449,-6.976 -0.961,-0.203 -1.985,-0.11 -2.969,-0.223 -1.313,-0.145 -2.617,-0.363 -3.926,-0.551 -7.523,-1.105 -15.023,-2.465 -22.582,-3.258 -12.344,-1.296 -24.723,-2.164 -37.074,-3.355 -5.102,-0.492 -10.211,-1.106 -15.223,-2.156 -3.277,-0.688 -6.551,-0.852 -9.84,-1.098 -5.336,-0.406 -9.586,1.691 -13.109,5.777 -5.57,6.454 -10.648,13.286 -15.008,20.594 -2.715,4.567 -4.847,9.524 -6.933,14.43 -1.516,3.59 -0.45,6.519 2.796,8.703 2.204,1.469 4.547,2.75 6.891,3.988 3.223,1.692 6.512,3.262 9.774,4.887 1.609,0.797 3.14,1.918 5.316,1.312 0.508,-2.832 1.742,-5.613 1.191,-8.765 -0.961,-0.457 -1.875,-0.832 -2.734,-1.305 -2.316,-1.269 -4.703,-2.457 -6.898,-3.914 -2.762,-1.836 -3.567,-3.715 -2.247,-7.277 3.43,-9.254 8.61,-17.278 15.356,-24.367 2.109,-2.219 4.617,-3.2 7.465,-3.465 1.804,-0.172 3.664,-0.188 5.457,0.043 8.039,1.015 16.168,1.687 24.082,3.367 9.504,2.015 19.23,3.344 28.23,7.402 1.047,0.473 2.219,0.672 3.344,0.946 6.906,1.699 13.816,3.378 20.723,5.082 0.8,0.199 1.582,0.492 2.351,0.785 2.336,0.906 4.731,1.465 7.239,1.59 2.812,0.148 5.613,0.394 8.414,0.628 5.113,0.426 10.234,0.778 15.332,1.344 7.73,0.867 15.437,1.899 23.16,2.836 5.629,0.688 11.062,2.106 16.172,4.594 4.468,2.183 8.832,4.601 13.289,6.82 2.035,1.012 4.183,1.797 6.445,2.754 2.602,-4.414 5.039,-8.555 7.77,-13.176 M 267.398,574.699 c -0.57,-1.578 -0.882,-2.719 -1.375,-3.761 -0.64,-1.352 -1.414,-2.653 -2.152,-3.958 -2.465,-4.359 -5.07,-8.648 -7.375,-13.089 -2.859,-5.532 -4.828,-11.399 -4.922,-17.731 -0.047,-3.347 -0.035,-6.719 0.301,-10.047 0.5,-4.988 1.039,-9.996 3.504,-14.543 2.543,-4.687 4.961,-9.453 7.441,-14.179 1.325,-2.512 2.703,-4.996 3.985,-7.528 0.422,-0.832 0.621,-1.773 0.972,-2.812 -0.882,-0.414 -1.437,-0.754 -2.043,-0.942 -5.863,-1.836 -11.414,-4.414 -16.867,-7.23 -6.629,-3.422 -13.234,-6.891 -19.875,-10.285 -1.433,-0.735 -2.785,-1.899 -4.738,-1.395 -0.914,3.723 -1.164,7.547 -1.149,11.395 0.04,7.73 0.989,15.375 2.071,23.004 0.418,2.976 0.676,5.976 0.945,8.976 0.41,4.5 0.438,9.055 1.824,13.406 1.571,4.942 3.094,9.903 4.868,14.762 1.082,2.973 2.542,5.809 3.941,8.645 1.25,2.551 2.734,4.98 3.976,7.531 3.528,7.242 8.317,13.676 12.766,20.32 1.449,2.168 3.512,3.004 6.02,2.598 1.793,-0.293 3.593,-0.641 5.316,-1.215 0.859,-0.285 1.543,-1.129 2.566,-1.922 M 417.297,313.043 c -1.109,-0.469 -1.961,-0.934 -2.867,-1.191 -5.575,-1.567 -11.16,-3.071 -16.739,-4.61 -5.257,-1.457 -10.461,-3.176 -15.777,-4.34 -7.918,-1.726 -15.891,-3.222 -23.891,-4.515 -5.546,-0.891 -11.168,-1.344 -16.769,-1.852 -4.18,-0.379 -7.863,0.676 -10.473,4.356 -0.672,0.945 -1.609,1.691 -2.386,2.558 -3.95,4.406 -6.7,9.528 -8.688,15.094 -0.531,1.492 -0.711,2.988 0.391,4.273 2.363,2.762 5.195,4.508 9.004,4.137 1.058,-2.078 1.976,-4.035 3.031,-5.922 1.605,-2.886 4.086,-4.301 7.387,-4.121 0.824,0.047 1.66,0.067 2.468,0.227 4.219,0.801 8.434,1.609 12.641,2.476 4.687,0.965 9.348,2.086 14.051,2.973 3.246,0.609 6.531,0.969 9.808,1.375 4.907,0.613 8.895,2.391 10.52,7.68 0.476,1.55 1.426,2.949 2.183,4.472 4.282,0.664 8.356,1.344 12.442,1.899 1.293,0.179 2.625,0.023 3.918,0.023 4.008,-5 8.211,-15.644 9.746,-24.992 m -120.555,20.379 c -0.406,1.644 -0.859,3.398 -1.262,5.156 -0.937,4.094 -2.226,8.082 -4.433,11.656 -3.859,6.254 -7.984,12.34 -13.008,17.707 -4.559,4.868 -9.219,9.645 -15.762,11.844 -0.589,0.199 -1.089,0.692 -1.714,1.106 2.562,7.687 5.058,15.265 7.636,22.816 0.367,1.066 1.106,2.004 1.739,3.109 0.734,-0.437 1.367,-0.691 1.843,-1.125 4.067,-3.668 8.157,-7.289 11.821,-11.429 4.625,-5.231 9.621,-10.102 15.402,-14.11 5.883,-4.082 11.918,-7.867 18.484,-10.695 2.043,-0.887 3.137,-2.25 3.723,-4.309 0.965,-3.367 2.027,-6.703 2.297,-10.253 0.125,-1.622 0.805,-3.215 1.246,-4.813 0.203,-0.754 0.449,-1.492 0.75,-2.477 -2.063,-1.144 -3.875,-2.289 -5.805,-3.195 -7.48,-3.496 -15.308,-6.285 -22.176,-11.055 -0.105,-0.074 -0.324,0.024 -0.781,0.067 m -63.414,-15.188 c 3.871,-4.234 6.399,-8.234 6.969,-13.254 0.695,-6.152 -0.332,-12.207 -2.844,-17.644 -2.519,-5.449 -6.469,-10.156 -11.644,-13.449 -3.09,-1.973 -6.489,-3.766 -10.161,-3.645 -5.468,0.18 -10.984,1.254 -15.82,3.817 -5.301,2.808 -9.672,7.105 -13.023,12.156 -5.047,7.617 -5.684,16 -2.813,24.531 2.321,6.891 6.379,12.516 13.352,15.352 6.429,2.617 13.074,3.496 19.929,2.113 0.403,-0.082 0.739,-0.516 1.325,-0.945 -0.692,-1.235 -1.219,-2.453 -1.981,-3.493 -1.668,-2.289 -3.683,-4.347 -5.16,-6.75 -4.531,-7.394 -8.91,-14.894 -13.285,-22.39 -1.149,-1.965 -0.676,-3.617 1.344,-4.543 3.925,-1.789 7.968,-3.289 12.214,-4.125 0.481,-0.102 0.997,-0.027 1.485,-0.082 2.039,-0.227 3.484,0.539 4.469,2.41 2.336,4.43 4.804,8.781 7.125,13.219 2.777,5.316 5.453,10.699 8.519,16.722 m 96.801,24.258 c 0,2.106 -0.02,3.102 0.004,4.11 0.078,3.574 1.73,6.031 5.105,7.203 2.969,1.023 5.934,2.07 8.934,2.988 2.996,0.922 6.019,1.754 9.058,2.5 3.04,0.742 6.094,1.441 9.172,1.98 3.395,0.602 6.942,0.243 10.164,1.86 0.563,0.285 1.297,0.219 1.95,0.32 1.414,0.238 2.636,-0.082 3.511,-1.301 1.836,-2.57 3.848,-5.031 5.446,-7.75 2.625,-4.48 2.824,-9.586 2.785,-14.593 -0.024,-3.055 -1.656,-5.786 -3.352,-8.25 -0.695,-1.004 -2.019,-1.797 -3.218,-2.172 -2.985,-0.93 -6.04,-1.684 -9.11,-2.297 -5.172,-1.031 -10.492,-1.172 -15.605,-2.715 -2.996,-0.898 -6.114,-1.41 -9.203,-1.957 -1.95,-0.34 -3.942,-0.395 -5.903,-0.641 -2.465,-0.3 -4.008,0.735 -5.109,2.989 -2.899,5.953 -4.504,12.195 -4.629,17.726 m 255.418,-62.461 c -1.129,0.121 -3.414,0.446 -5.711,0.594 -4.547,0.277 -7.746,2.809 -10.059,6.438 -1.597,2.496 -2.773,5.304 -3.855,8.093 -0.918,2.348 -1.227,4.922 -0.356,7.371 1.332,3.77 2.622,7.578 4.348,11.168 1.949,4.067 5.453,6.629 9.563,8.278 2.457,0.984 12.539,1.308 15.125,0.664 7.632,-1.903 11.894,-7.289 14.625,-14.336 2.179,-5.641 0.871,-11.043 -1.782,-15.891 -4.406,-8.066 -11.539,-12.133 -21.898,-12.379 M 203.91,294.594 c 0.235,0.765 0.332,1.437 0.629,1.996 4.117,7.644 8.262,15.262 13.563,22.18 4.269,5.57 7.839,11.597 10.625,18.097 1.187,2.762 2.406,5.524 3.796,8.184 1.493,2.847 2.465,5.836 3.196,8.945 2.379,10.141 6.105,19.809 10,29.418 3.008,7.43 6.242,14.774 9.168,22.231 3.234,8.242 6.215,16.593 9.359,24.871 0.328,0.863 1.02,1.582 1.582,2.429 1.961,-0.687 3.692,-1.218 5.352,-1.918 0.847,-0.351 1.566,-1.019 2.238,-1.48 -2.051,-7.438 -4.914,-14.195 -7.781,-20.965 -1.563,-3.684 -2.77,-7.519 -4.129,-11.277 -1.528,-4.25 -2.606,-8.727 -4.664,-12.688 -3.707,-7.129 -6.824,-14.508 -10.031,-21.855 -1.598,-3.672 -3.61,-7.199 -4.817,-10.989 -4.641,-14.562 -10.973,-28.343 -18.152,-41.765 -1.34,-2.504 -2.543,-5.074 -3.797,-7.625 -1.766,-3.582 -3.504,-7.18 -5.813,-10.672 -3.804,-0.254 -7.187,0.473 -10.324,2.883 m 54.149,82.066 c 1.824,-0.844 3.41,-1.758 5.105,-2.32 3.078,-1.027 5.598,-2.899 7.902,-5.063 3.766,-3.519 7.348,-7.23 10.207,-11.586 1.551,-2.371 3.106,-4.738 4.696,-7.082 3.422,-5.054 5.578,-10.605 6.629,-16.632 0.515,-2.965 1.254,-5.879 1.8,-8.836 0.165,-0.914 0.024,-1.891 0.024,-3.145 -0.883,0.359 -1.531,0.508 -2.043,0.856 -1.645,1.117 -3.293,2.234 -4.844,3.472 -5.719,4.59 -11.672,8.766 -18.351,11.832 -7.114,3.266 -13.536,7.711 -19.813,12.352 -1.855,1.371 -2.058,2.109 -1.152,4.289 2.562,6.172 5.191,12.308 7.859,18.43 0.52,1.199 1.301,2.277 1.981,3.433 m -25.715,-18.023 c -19.117,4.574 -36.582,12.265 -53.074,23.332 3.003,1.644 5.5,3.32 8.218,4.449 6.871,2.855 14.188,3.234 21.446,2.715 8.066,-0.578 16.101,-1.727 24.125,-2.828 2.707,-0.375 5.558,-0.7 7.851,-2.418 -0.527,-3.949 -4.664,-16.141 -8.566,-25.25 m 386.793,-13.231 c 3.886,-1.004 6.441,-3.101 8.863,-5.383 6.113,-5.769 10.805,-12.664 15.172,-19.804 0.433,-0.711 0.836,-1.465 1.09,-2.254 1.375,-4.305 2.617,-8.652 3.152,-13.152 0.172,-1.446 0.664,-2.961 -0.391,-4.602 -0.707,0.254 -1.515,0.414 -2.187,0.812 -7.18,4.215 -15.047,6.868 -22.563,10.317 -3.253,1.496 -6.847,2.508 -9.296,5.265 0.312,10.02 2.543,19.383 6.16,28.801 M 229.512,246.512 c -1.098,-0.426 -1.801,-0.832 -2.551,-0.957 -7.84,-1.325 -15.711,-2.352 -23.672,-2.418 -1.641,-0.004 -3.32,0.133 -4.93,0.472 -3.879,0.813 -7.726,1.774 -11.582,2.704 -0.582,0.14 -1.129,0.441 -1.418,0.558 0.414,1.32 0.965,2.387 1.059,3.492 0.297,3.492 0.301,7.016 0.652,10.504 0.332,3.332 0.887,6.641 1.5,9.922 0.309,1.652 0.93,3.277 3.125,3.391 2.157,-1.446 4.246,-3.137 6.586,-4.336 2.442,-1.258 5.121,-2.039 7.672,-3.016 -0.988,-3.012 -1.398,-3.789 -3.785,-5.851 -3.391,-2.938 -6.859,-5.789 -10.32,-8.637 -2.352,-1.938 -2.375,-1.906 -1.274,-5.516 0.321,-0.066 0.742,-0.297 0.949,-0.172 7.36,4.567 13.176,10.926 19.075,17.293 7.379,-4.675 13.511,-10.3 18.914,-17.433 m -75.645,35.543 c 0.621,0.226 0.934,0.453 1.215,0.425 6.582,-0.707 12.996,-2.062 19.121,-4.718 2.414,-1.055 4.965,-1.778 7.453,-2.657 0.895,-0.312 1.785,-0.632 2.903,-1.027 -0.528,-4.543 -1.114,-8.816 -1.5,-13.101 -0.387,-4.262 -0.579,-8.532 -0.868,-13.02 -5.789,1.852 -10.718,4.797 -15.359,8.289 -4.203,3.156 -7.371,7.145 -9.133,12.18 -1.261,3.617 -2.457,7.25 -3.594,10.914 -0.269,0.879 -0.171,1.871 -0.238,2.715 m 3.352,51.254 c 1.761,4.382 3.543,6.937 8.258,11.218 7.378,6.707 16.105,10.961 25.484,13.957 1.699,0.547 3.391,1.227 5.223,0.661 -0.567,-5.727 -5.903,-23.043 -8.575,-27.86 -10.027,-0.863 -19.89,1.672 -30.39,2.024 m 460.535,-41.153 c 9.457,0.133 18.605,0.266 27.949,0.399 0.11,-3.282 -0.738,-6.153 -1.906,-8.887 -2.219,-5.23 -4.68,-10.348 -6.879,-15.582 -1.582,-3.77 -3.918,-6.977 -6.582,-9.973 -0.582,-0.648 -1.473,-1.008 -2.375,-1.605 -0.633,1.398 -1.172,2.441 -1.582,3.527 -1.774,4.684 -3.758,9.309 -5.188,14.098 -1.472,4.937 -2.425,10.047 -3.519,15.105 -0.195,0.899 0.043,1.899 0.082,2.918 m 1.008,-42.234 c -1.41,-1.977 -3.407,-2.449 -5.188,-3.207 -1.523,-0.641 -3.121,-1.086 -4.683,-1.621 -7.93,-2.707 -16.114,-3.688 -24.442,-3.535 -1.402,0.019 -3.011,-0.254 -4.246,1.476 1.953,2.598 3.86,5.317 5.961,7.867 3.305,4.016 6.117,8.301 8.145,13.129 0.968,2.309 2.168,4.516 3.339,6.727 0.368,0.691 0.981,1.242 1.735,2.168 6.789,-7.598 13.742,-14.66 19.379,-23.004 m -49.387,29.98 c -9.652,-2.347 -19.109,-2.547 -28.352,-5.031 -2.078,4.129 -4.648,7.844 -4.109,12.949 6.641,4.489 13.59,8.618 20.684,12.493 0.82,0.445 1.855,0.5 2.656,0.699 1.129,-3.664 1.914,-7.258 3.348,-10.574 1.496,-3.469 3.617,-6.665 5.773,-10.536 m 1.039,-34.101 c -0.469,0 -0.984,-0.121 -1.43,0.019 -6.004,1.813 -11.187,5.039 -15.332,9.754 -3.183,3.617 -6.027,7.539 -8.972,11.367 -0.563,0.731 -1.313,1.512 -0.879,2.622 4.793,2.484 18.48,4.91 25.551,4.523 0.164,-0.285 0.461,-0.559 0.476,-0.848 0.371,-7.847 0.719,-15.699 1.059,-23.554 0.039,-1 0.043,-2.004 -0.008,-3.004 -0.016,-0.285 -0.289,-0.559 -0.465,-0.879 m -305.633,30.488 c -0.289,0.102 -0.75,0.113 -0.847,0.313 -2.43,4.836 -6.094,8.675 -9.735,12.55 -2.152,2.297 -4.242,4.668 -6.14,7.176 -2.403,3.18 -2.157,3.945 1.125,6.414 5.277,3.981 10.796,7.668 15.336,12.59 0.25,0.281 0.82,0.254 1.656,0.492 1.445,-8.449 1.215,-16.758 1.082,-25.035 -0.106,-6.809 -0.981,-10.824 -2.477,-14.5 M 152.59,292.375 c -0.348,1.078 -0.852,2.125 -1.012,3.23 -0.445,2.977 -0.801,5.965 -1.074,8.961 -0.508,5.532 -0.215,11.032 0.934,16.465 0.23,1.067 0.765,2.067 1.175,3.129 6.778,-3.793 18.305,-14.168 21.094,-18.883 -2.93,-3.359 -15.586,-11.132 -21.117,-12.902 m 87.219,-20.027 c 2.953,0.3 5.363,-0.035 7.824,-0.368 2.597,-0.343 5.262,-0.21 7.898,-0.238 2.391,-0.019 4.848,0.492 7.414,-0.746 -0.476,-1.191 -0.668,-2.191 -1.199,-2.949 -2.777,-3.942 -5.578,-7.863 -8.476,-11.711 -3.696,-4.902 -8.93,-7.238 -14.657,-8.656 -0.277,-0.067 -0.625,0.144 -0.933,0.23 -0.184,0.266 -0.543,0.547 -0.52,0.801 0.606,6.637 1.231,13.281 1.899,19.914 0.117,1.145 0.449,2.266 0.75,3.723 m -18.239,59.746 c -0.972,1.488 -1.632,2.449 -2.238,3.433 -4.527,7.379 -9.047,14.754 -13.559,22.141 -0.605,0.988 -1.226,1.988 -1.703,3.047 -0.312,0.699 -0.836,1.512 0.246,2.512 4.481,-1.051 8.696,-3.348 13.118,-5.016 4.578,-1.723 9.492,-2.617 13.836,-5.227 -0.446,-4.32 -2.801,-7.675 -4.36,-11.296 -1.351,-3.145 -2.578,-6.473 -5.34,-9.594 m 15.657,-5.594 c 0.242,0.938 0.332,1.59 0.574,2.184 2.39,5.859 4.797,11.711 7.242,17.55 0.156,0.379 0.715,0.586 1.141,0.918 2.847,-1.816 5.578,-3.695 8.445,-5.339 2.402,-1.383 4.152,-3.262 5.207,-5.805 1.207,-2.918 2.363,-5.86 3.445,-8.828 0.321,-0.875 0.313,-1.879 0.446,-2.746 -1.77,-1.125 -3.395,-1.09 -5.032,-0.825 -1.465,0.235 -2.937,0.457 -4.371,0.852 -5.133,1.398 -10.336,2.059 -15.652,1.684 -0.305,-0.02 -0.629,0.148 -1.445,0.355 m 338.906,-79.68 c -0.36,1.551 -0.586,2.184 -0.649,2.836 -0.488,5.321 -1.07,10.625 -1.367,15.961 -0.129,2.305 0.223,4.672 0.606,6.969 0.425,2.562 1.527,3.316 4.093,3.242 4.614,-0.137 9.231,-0.265 13.844,-0.445 0.426,-0.02 0.832,-0.371 1.504,-0.692 -3.434,-10.793 -9.875,-19.394 -18.031,-27.871 m 47.262,7.024 c -2.825,0.492 -4.266,2.336 -5.786,4.094 -3.046,3.523 -6.152,7.003 -9.179,10.546 -1.84,2.145 -3.664,4.309 -5.332,6.594 -1.856,2.527 -1.848,3.176 0.343,5.055 3.2,2.726 5.868,5.871 8.137,9.414 0.313,0.484 0.953,0.758 1.793,1.41 0.82,-3.469 1.719,-6.5 2.234,-9.594 0.833,-4.996 2.27,-9.742 4.364,-14.343 1.168,-2.571 2.019,-5.297 2.933,-7.989 0.539,-1.57 0.977,-3.195 0.493,-5.187 m -408.594,80.332 c -3.965,-0.824 -7.653,-0.379 -11.164,-1.117 -3.516,-0.743 -6.934,-1.926 -10.563,-2.965 -0.617,2.648 0.469,4.793 1.106,6.976 0.609,2.094 1.441,4.11 2.086,6.188 0.695,2.238 1.199,4.535 1.933,6.758 0.707,2.117 0.899,4.5 2.946,6.777 5.293,-7.316 10.316,-14.207 13.656,-22.617 m 333.844,-16.504 c 1.992,-2.227 3.55,-3.899 5.039,-5.637 1.515,-1.769 2.656,-3.746 3.011,-6.012 -2.664,-2.316 -13.57,-8.914 -17.902,-10.804 -0.703,-0.309 -1.508,-0.375 -2.414,-0.586 -0.621,3.769 -0.41,7.269 -0.074,10.726 0.406,4.235 2.636,7.469 6.269,9.547 1.985,1.141 4.168,1.91 6.071,2.766 m 39.175,10.379 c 1.243,1.41 1.942,2.64 2.996,3.336 5.262,3.441 10.575,6.804 15.957,10.058 1.926,1.172 4.04,2.086 6.68,2.52 0.098,-2.293 -0.773,-4.117 -1.215,-6.008 -0.488,-2.109 -1.175,-4.176 -1.609,-6.293 -0.399,-1.965 -0.586,-3.969 -0.852,-5.957 -0.281,-2.09 -0.078,-4.309 -1.5,-6.141 -11.222,8.125 -10.898,6.36 -20.457,8.485 m -401.73,-2.285 c -0.465,-2.782 -2.027,-4.387 -2.918,-6.293 -0.844,-1.801 -1.918,-3.5 -2.82,-5.278 -0.93,-1.824 -0.7,-4.14 -2.043,-5.925 -0.707,0.429 -1.164,0.632 -1.524,0.953 -4.211,3.726 -8.402,7.48 -12.613,11.211 -1.856,1.652 -3.797,3.207 -5.586,4.925 -0.621,0.602 -0.906,1.567 -1.641,2.903 10.024,0.054 19.27,-1.559 29.145,-2.496 m -0.652,-45.633 c -2.137,-0.754 -3.852,-0.215 -5.563,0.418 -6.047,2.203 -12.219,3.98 -18.441,5.594 -1.52,0.39 -3.27,0.585 -4.528,2.316 3.188,2.437 6.692,4.273 10.094,6.238 3.52,2.024 6.848,4.446 10.734,6.031 0.938,-3.828 1.496,-7.503 2.762,-10.898 1.254,-3.348 3.231,-6.41 4.942,-9.699 m 392.015,53.195 c 0.832,-1.269 1.422,-2.055 1.895,-2.914 0.523,-0.945 0.937,-1.957 1.332,-2.805 -0.367,-0.406 -0.453,-0.578 -0.59,-0.636 -0.598,-0.27 -1.199,-0.547 -1.82,-0.746 -5.668,-1.766 -9.747,-5.395 -12.332,-10.766 -1.008,-2.094 -1.961,-4.219 -2.997,-6.301 -0.328,-0.656 -0.843,-1.219 -1.461,-2.078 -1.539,2.449 -2.781,4.602 -4.191,6.633 -1.351,1.957 -3.586,3.32 -4.004,5.953 8.047,4.547 15.934,9 24.168,13.66 M 347.926,550.109 c -5.821,-1.23 -9.707,-0.007 -11.942,3.461 -2.222,3.457 -2.789,9.071 -0.847,11.414 2.765,3.329 6.07,5.653 10.832,4.293 0.25,-0.738 0.594,-1.343 0.644,-1.968 0.457,-5.653 0.867,-11.305 1.313,-17.2 M 234.254,275.172 c 2.191,-2.41 1.641,-5.008 1.355,-7.438 -0.515,-4.468 -1.277,-8.91 -2.023,-13.351 -0.152,-0.934 -0.668,-1.797 -0.988,-2.629 -0.559,0.031 -0.996,-0.082 -1.184,0.094 -4.18,3.746 -8.344,7.523 -12.473,11.324 -0.586,0.539 -0.996,1.273 -1.64,2.109 3.078,1.371 6.062,2.407 8.746,3.977 2.812,1.652 5.332,3.816 8.207,5.914 m 1.324,46.726 c 1.34,-0.273 2.395,-0.66 3.457,-0.668 1.305,-0.003 2.606,0.383 3.918,0.461 2.922,0.192 14.285,-1.75 18.242,-3.097 -0.687,-0.977 -1.215,-1.969 -1.953,-2.77 -2.601,-2.789 -10.558,-8.469 -14.445,-10.386 -1.184,2.882 -2.109,5.914 -3.613,8.617 -1.496,2.683 -3.571,5.047 -5.606,7.843 m 403.805,-24.429 c -8.301,-1.36 -20.168,-1.106 -24.633,0.508 -0.074,1.89 -0.281,3.875 -0.187,5.851 0.097,2.063 -1.645,4.008 -0.422,6.391 1.82,-0.711 3.504,-1.332 5.156,-2.031 5.918,-2.489 11.836,-4.985 17.73,-7.543 0.727,-0.313 1.364,-0.926 1.914,-1.524 0.27,-0.285 0.243,-0.851 0.442,-1.652 m -395.07,-2.871 c 4.07,-6.789 10.3,-10.993 14.097,-17.637 -5.937,-2.309 -11.543,-0.414 -17.019,0.082 -1.129,1.129 -2.176,2.176 -2.977,2.973 1.902,4.695 3.75,9.269 5.899,14.582 m 156.695,60.011 c 1.875,-3.668 3.805,-7.109 4.613,-11.046 -0.508,-0.43 -0.836,-0.969 -1.25,-1.04 -4.203,-0.73 -8.418,-1.39 -12.91,-2.117 -0.656,3.918 -1.613,7.543 -1.285,11.321 3.57,1.16 6.699,2.75 10.832,2.882 m 208.051,-6.855 c -1.43,-0.734 -2.45,-1.262 -3.473,-1.781 -7.402,-3.754 -14.734,-7.618 -21.063,-13.137 -0.199,-0.172 -0.621,-0.078 -1.132,-0.133 -0.758,0.906 -1.59,1.899 -2.598,3.11 2.922,2.019 5.637,3.902 8.371,5.773 2.875,1.973 5.699,4.035 8.672,5.848 2.766,1.675 5.25,3.949 8.539,4.914 0.914,-1.567 1.656,-2.832 2.684,-4.594 m 16.32,48.242 c 3.605,2.512 7.019,4.051 10.637,5.602 1.3,-2.137 2.035,-4.25 2.332,-6.66 -2.832,-1.911 -5.235,-4.227 -8.899,-4.692 -1.304,1.852 -2.535,3.59 -4.07,5.75 M 384.832,360.621 c 4.512,0.508 8.211,0.695 11.926,0.567 0.351,-0.012 1,-0.618 0.965,-0.879 -0.071,-0.551 -0.375,-1.336 -0.805,-1.539 -2.828,-1.29 -5.828,-2.004 -9.625,-2.5 -0.145,0.265 -0.449,0.859 -0.777,1.445 -0.399,0.703 -0.809,1.394 -1.684,2.906" /><path
         id="path16"
         style="fill:#1b181a;fill-opacity:1;fill-rule:nonzero;stroke:none"
         d="m 314.328,429.402 c -0.305,6.098 -2.746,10.899 -8.258,13.817 -0.574,0.304 -1.207,0.738 -1.808,0.722 -4.535,-0.089 -8.973,-0.804 -12.164,-4.418 -3.41,-3.855 -3.696,-8.457 -2.02,-13.164 1.145,-3.214 3.465,-5.714 5.953,-7.882 1.16,-1.012 2.946,-1.661 4.496,-1.774 7.809,-0.586 14.371,4.891 13.801,12.699 m -12.937,9.489 c 4.011,0.027 5.511,-0.766 7.07,-3.375 1.219,-2.039 1.84,-4.317 1.769,-6.672 -0.156,-5.336 -6.988,-9.063 -11.355,-6.199 -2.258,1.476 -3.965,3.543 -4.949,6.097 -1.59,4.156 0,7.789 4.082,9.289 1.371,0.5 2.851,0.727 3.383,0.86" /><path
         id="path18"
         style="fill:#1b181a;fill-opacity:1;fill-rule:nonzero;stroke:none"
         d="m 470.996,333.148 c 1.481,0.036 2.418,1.622 1.844,2.286 -0.844,0.98 -1.789,1.992 -2.902,2.57 -5.301,2.781 -10.168,6.211 -14.836,9.941 -3.489,2.789 -6.797,5.825 -10.411,8.438 -5.5,3.965 -11.195,7.676 -16.824,11.465 -0.387,0.257 -0.984,0.472 -1.39,0.351 -0.563,-0.16 -1.161,-0.551 -1.493,-1.023 -0.207,-0.293 -0.101,-1.02 0.125,-1.375 0.356,-0.531 0.891,-0.985 1.43,-1.336 1.672,-1.074 3.332,-2.192 5.094,-3.098 8,-4.121 15.008,-9.621 21.832,-15.465 4.656,-3.984 9.672,-7.547 14.582,-11.222 1.019,-0.762 2.289,-1.192 2.949,-1.532" /><path
         id="path20"
         style="fill:#1b181a;fill-opacity:1;fill-rule:nonzero;stroke:none"
         d="m 491.824,349.262 c 0.242,0.234 0.938,0.601 1.074,1.113 0.133,0.512 -0.117,1.438 -0.515,1.711 -1.77,1.23 -3.703,2.219 -5.485,3.422 -7.835,5.293 -15.679,10.582 -22.98,16.64 -0.504,0.415 -1.059,0.957 -1.641,1.04 -0.746,0.089 -1.703,0 -2.273,-0.422 -0.777,-0.571 -0.539,-1.664 0.062,-2.223 1.442,-1.344 2.946,-2.676 4.59,-3.742 3.199,-2.078 6.649,-3.781 9.75,-5.981 4.461,-3.168 8.731,-6.601 13.028,-10 1.222,-0.965 2.425,-1.73 4.39,-1.558" /><path
         id="path22"
         style="fill:#1b181a;fill-opacity:1;fill-rule:nonzero;stroke:none"
         d="m 480.66,379.879 c -0.086,-0.801 -0.531,-1.852 -0.191,-2.352 0.82,-1.191 1.832,-2.629 3.078,-3.074 7.476,-2.652 14.516,-6.265 21.566,-9.848 3.657,-1.851 7.629,-3.171 10.731,-6.074 0.453,-0.433 1.144,-0.691 1.769,-0.816 0.867,-0.188 1.778,0.133 1.953,1.051 0.137,0.711 0.039,1.851 -0.41,2.214 -1.004,0.813 -2.269,1.305 -3.465,1.852 -6.613,2.988 -13.238,5.953 -19.851,8.949 -4.363,1.973 -8.676,4.035 -12.61,6.832 -0.781,0.559 -1.582,0.907 -2.496,1.266 0,0.004 -0.074,0 -0.074,0" /><path
         id="path24"
         style="fill:#1b181a;fill-opacity:1;fill-rule:nonzero;stroke:none"
         d="m 442.32,327.109 c 0.371,0.539 1.137,1.161 1.157,1.801 0.011,0.664 -0.555,1.711 -1.133,1.957 -2.821,1.199 -4.875,3.422 -7.266,5.199 -1.762,1.313 -3.238,2.844 -4.387,4.719 -0.347,0.567 -0.718,1.133 -1.152,1.633 -0.648,0.758 -1.855,0.793 -2.68,0.078 -0.66,-0.57 -1.14,-1.297 -0.679,-2.187 0.453,-0.887 0.871,-1.911 1.601,-2.496 4.383,-3.54 8.848,-6.973 13.301,-10.415 0.234,-0.179 0.629,-0.156 1.238,-0.289" /><path
         id="path26"
         style="fill:#1b181a;fill-opacity:1;fill-rule:nonzero;stroke:none"
         d="m 232.523,500.727 c 0.153,-3.012 0.235,-6.02 0.497,-9.024 0.113,-1.297 0.5,-2.609 1.003,-3.816 0.172,-0.41 1.114,-0.766 1.629,-0.676 0.52,0.086 1.207,0.672 1.352,1.176 0.211,0.754 0.039,1.625 -0.027,2.437 -0.344,4.336 -0.852,8.656 -1.028,12.996 -0.265,6.586 0.801,12.996 3.012,19.211 0.445,1.258 0.824,2.535 1.215,3.813 0.148,0.48 0.316,0.969 0.347,1.461 0.071,1.113 -0.429,1.929 -1.476,2.328 -0.875,0.336 -1.817,-0.219 -2.242,-1.41 -1.793,-5.039 -3.379,-10.114 -4.059,-15.481 -0.551,-4.359 -0.43,-8.676 -0.223,-13.015" /><path
         id="path28"
         style="fill:#1b181a;fill-opacity:1;fill-rule:nonzero;stroke:none"
         d="m 371.316,354.715 c -2.136,-0.379 -4.992,-0.57 -7.64,-1.418 -5.844,-1.863 -11.66,-3.68 -17.789,-4.332 -0.649,-0.067 -1.547,-0.848 -1.727,-1.473 -0.191,-0.652 0.141,-1.722 0.625,-2.23 0.469,-0.481 1.512,-0.793 2.168,-0.625 3.832,0.972 7.633,2.054 11.422,3.195 4.273,1.289 8.492,2.824 13.055,2.723 0.812,-0.012 1.644,0.152 2.445,0.34 0.891,0.199 1.414,0.851 1.492,1.765 0.082,0.903 -0.844,1.809 -1.91,1.93 -0.492,0.055 -0.988,0.058 -2.141,0.125" /><path
         id="path30"
         style="fill:#1b181a;fill-opacity:1;fill-rule:nonzero;stroke:none"
         d="m 345.973,333.777 c 1.086,-1.453 1.765,-2.359 2.41,-3.218 0.394,-0.043 0.75,-0.192 1.027,-0.098 4.403,1.379 8.754,2.918 13.195,4.152 2.68,0.746 5.489,1.047 8.239,1.528 0.965,0.164 2.058,0.031 2.875,0.464 0.578,0.301 1,1.293 1.078,2.016 0.043,0.391 -0.746,1.129 -1.266,1.246 -0.937,0.223 -1.98,0.246 -2.937,0.094 -3.246,-0.5 -6.508,-0.992 -9.719,-1.719 -4.164,-0.945 -8.285,-2.082 -12.41,-3.207 -0.754,-0.207 -1.418,-0.707 -2.492,-1.258" /></g></g></svg>