<?xml version="1.0" encoding="UTF-8" standalone="no"?>
<svg
   xmlns:dc="http://purl.org/dc/elements/1.1/"
   xmlns:cc="http://creativecommons.org/ns#"
   xmlns:rdf="http://www.w3.org/1999/02/22-rdf-syntax-ns#"
   xmlns:svg="http://www.w3.org/2000/svg"
   xmlns="http://www.w3.org/2000/svg"
   viewBox="0 0 100 100"
   height="100"
   width="100"
   xml:space="preserve"
   version="1.1"
   id="svg2"><metadata
     id="metadata8"><rdf:RDF><cc:Work
         rdf:about=""><dc:format>image/svg+xml</dc:format><dc:type
           rdf:resource="http://purl.org/dc/dcmitype/StillImage" /></cc:Work></rdf:RDF></metadata><defs
     id="defs6" /><g
     transform="matrix(1.25,0,0,-1.25,0,100)"
     id="g10"><g
       transform="scale(0.1,0.1)"
       id="g12"><path
         id="path14"
         style="fill:#1b181a;fill-opacity:1;fill-rule:nonzero;stroke:none"
         d="m 674.828,443.859 c -0.39,5.817 -1.988,11.45 -3.527,16.887 l -0.828,2.93 c -1.528,5.539 -3.59,10.887 -5.938,16.797 -1.91,4.808 -4.129,9.875 -7.426,14.343 -4.054,5.508 -9.531,9.258 -15.265,12.926 -3.387,2.172 -6.957,2.453 -9.696,2.453 -0.562,0 -1.128,-0.015 -1.695,-0.039 -3.484,-0.136 -6.969,-0.711 -10.344,-1.269 l -0.281,-0.051 c -1.301,-0.215 -2.613,-0.41 -3.93,-0.602 -3.964,-0.589 -8.07,-1.199 -11.949,-2.421 -7.144,-2.266 -14.148,-5.266 -20.953,-8.18 -4.348,-1.86 -8.555,-3.754 -12.238,-6.414 -3.887,-2.797 -7.863,-5.992 -10.582,-10.379 -0.633,-1.008 -1.395,-1.934 -2.278,-3.008 -0.117,-0.148 -0.238,-0.297 -0.367,-0.441 l -0.426,0.886 c -0.746,1.551 -1.41,2.934 -2.117,4.289 -0.886,1.684 -1.785,3.356 -2.695,5.028 -1.043,1.926 -2.082,3.847 -3.09,5.785 -0.625,1.211 -1.215,2.445 -1.808,3.68 -0.918,1.918 -1.864,3.902 -2.946,5.789 -3.195,5.554 -6.621,9.465 -10.781,12.304 -2.203,1.508 -4.359,3.188 -6.445,4.809 -1.282,0.992 -2.559,1.988 -3.864,2.961 -0.984,0.726 -1.246,1.375 -0.984,2.453 0.738,3.117 0.109,6.07 -0.496,8.938 -0.203,0.949 -0.402,1.902 -0.555,2.851 -0.183,1.18 -1.019,2.274 -1.746,2.906 -1.574,1.375 -3.199,2.688 -4.832,4.004 l -2.226,1.805 c -1.766,1.453 -3.805,1.641 -5.739,1.703 -5.652,0.188 -11.414,-0.684 -17.746,-2.637 -2.523,-0.777 -5.898,-1.824 -7.355,-5.351 -1.004,0.508 -2.02,1.008 -3.024,1.508 -4.926,2.457 -9.586,4.769 -13.879,7.851 -2.203,1.57 -4.363,3.192 -6.523,4.824 -1.039,0.774 -2.059,1.559 -3.078,2.348 -1.582,1.211 -3.164,2.426 -4.778,3.605 -0.777,0.567 -0.996,1.262 -0.695,2.184 l 0.254,0.785 c 0.586,1.828 1.188,3.711 2.152,5.262 3.379,5.434 5.477,11.668 6.797,20.223 l 0.039,0.246 c 0.438,2.836 0.985,6.367 -1.496,9.097 -2.554,2.817 -5.785,5.739 -10.379,6.051 -2.39,0.164 -4.808,0.102 -7.199,-0.031 -7.863,-0.445 -14.922,-1.039 -21.664,-3.895 -2.051,-0.871 -4.519,-2.293 -5.352,-5.609 -0.113,-0.438 -0.312,-0.859 -0.511,-1.281 -0.281,-0.61 -0.578,-1.242 -0.707,-1.965 -0.086,-0.512 -0.192,-1.031 -0.293,-1.547 -0.403,-1.988 -0.809,-4.043 -0.516,-6.051 0.395,-2.711 1.082,-5.386 1.746,-7.98 0.422,-1.66 0.86,-3.321 1.203,-4.992 0.305,-1.43 0.469,-2.942 0.633,-4.403 0.102,-0.969 0.211,-1.929 0.352,-2.89 0.109,-0.746 -0.051,-1.34 -1.203,-1.805 -1.871,-0.746 -3.746,-1.516 -5.618,-2.289 -4.738,-1.949 -9.64,-3.965 -14.562,-5.563 -7.418,-2.39 -15.082,-4.867 -22.441,-7.898 -3.043,-1.25 -6.118,-2.406 -9.125,-3.531 -1.133,-0.43 -2.254,-0.856 -3.356,-1.274 -0.422,0.395 -0.828,0.77 -1.227,1.129 -1.097,1.027 -2.132,1.977 -3.089,2.992 -5.274,5.559 -11.45,7.743 -18.371,6.465 -0.977,-0.176 -1.95,-0.414 -2.926,-0.648 -1.489,-0.364 -2.899,-0.707 -4.34,-0.848 -3.559,-0.351 -5.363,-2.707 -6.77,-4.879 -0.191,-0.293 -0.351,-0.609 -0.504,-0.922 -0.191,-0.383 -0.371,-0.75 -0.589,-0.98 -2.805,-3 -4.606,-6.594 -5.512,-10.996 -0.254,-1.246 -0.859,-1.989 -2.07,-2.574 -4.5,-2.157 -9.204,-4.665 -13.149,-8.344 -0.691,-0.653 -1.375,-1.328 -2.051,-2.008 -0.98,-0.981 -2,-2.004 -3.058,-2.906 -7.867,-6.7 -14.281,-14.86 -20.485,-22.746 l -1.199,-1.528 c -2.933,-3.726 -5.832,-7.816 -9.117,-12.863 -3.996,-6.141 -8.129,-12.48 -11.621,-19.266 -2.203,-4.269 -4.117,-8.722 -5.539,-12.125 l -0.324,-0.773 c -2.18,-5.215 -4.426,-10.606 -6.293,-16.051 -0.965,-2.82 -1.649,-5.777 -2.305,-8.629 -0.324,-1.406 -0.648,-2.816 -1.008,-4.211 -0.121,-0.468 -0.297,-0.918 -0.457,-1.328 -0.234,0.055 -0.453,0.102 -0.672,0.153 -1.129,0.257 -2.226,0.476 -3.176,0.246 -2.667,-0.653 -5.39,0.691 -7.226,1.898 -4.219,2.777 -7.703,6.773 -10.078,11.555 -2.321,4.679 -3.684,10.25 -4.149,17.043 -0.343,4.871 -0.57,9.754 -0.804,14.633 -0.227,4.878 -0.461,9.753 -0.797,14.625 -0.348,4.972 -1.442,9.992 -3.246,14.898 -1.223,3.32 -2.883,6.441 -4.485,9.453 -0.773,1.453 -1.547,2.91 -2.277,4.395 -4.109,8.359 -10.801,14.957 -20.453,20.168 -1.41,0.765 -2.863,1.453 -4.367,2.16 -0.703,0.328 -1.41,0.66 -2.133,1.008 l -0.477,0.234 -2.816,-1.606 c -1.918,-1.105 -3.914,-2.257 -5.953,-3.324 -1.117,-0.586 -2.281,-1.09 -3.446,-1.594 -1.011,-0.445 -2.035,-0.89 -3.027,-1.386 l -2.43,-1.207 c -5.617,-2.789 -11.418,-5.668 -17.058,-8.641 -3.524,-1.855 -6.891,-3.973 -10.32,-6.156 -0.829,-0.527 -2.114,-1.871 -2.063,-3.223 0.129,-3.344 1.441,-5.75 3.906,-7.152 0.981,-0.555 1.985,-1.063 2.989,-1.567 2.101,-1.054 4.089,-2.046 5.875,-3.546 1.992,-1.672 4.261,-3.008 6.46,-4.293 1.309,-0.774 2.629,-1.543 3.891,-2.395 1.524,-1.019 2.883,-2.383 3.906,-3.457 1.18,-1.242 2.293,-2.555 3.414,-3.855 0.571,-0.676 1.145,-1.344 1.727,-2.008 3.715,-4.235 6.316,-8.34 7.969,-12.543 3.535,-9.031 3.765,-18.832 3.996,-28.313 l 0.019,-0.933 c 0.059,-2.184 0.114,-4.438 -0.211,-6.555 -0.578,-3.832 -1.23,-7.648 -1.878,-11.469 -0.637,-3.679 -1.262,-7.359 -1.829,-11.051 -0.738,-4.878 -1.39,-10.089 -1.976,-15.929 -0.184,-1.793 -0.188,-3.61 -0.192,-5.363 0,-0.965 -0.003,-1.93 -0.035,-2.887 -0.336,-10.356 -0.062,-21.387 4.196,-31.895 0.519,-1.293 1.16,-2.527 1.785,-3.73 l 0.312,-0.613 c 0.406,-0.778 0.793,-1.571 1.188,-2.368 1.015,-2.039 2.054,-4.136 3.304,-6.097 1.95,-3.047 4.164,-5.981 6.301,-8.813 l 0.692,-0.918 c 2.636,-3.496 5.691,-7.008 10.254,-9.023 1.968,-0.867 4.007,-1.856 6.07,-2.934 7.676,-4.015 15.859,-4.914 22.859,-5.269 2.403,-0.121 4.836,0.125 7.184,0.363 0.715,0.074 1.422,0.141 2.137,0.211 0.839,0.066 1.621,0.496 2.292,0.89 2.778,1.649 5.868,2.325 9.586,2.774 l 0.016,-0.047 c 0.188,-0.465 0.375,-0.922 0.5,-1.383 2.453,-9.121 6.777,-17.535 10.965,-25.672 l 1.762,-3.433 c 3.593,-7.082 8.566,-13.199 13.363,-19.114 5.246,-6.46 11.898,-12.179 21.566,-18.566 2.227,-1.473 4.41,-3.055 6.524,-4.59 0.746,-0.547 1.5,-1.094 2.25,-1.625 l -0.02,-0.109 c -0.058,-0.348 -0.109,-0.602 -0.176,-0.852 -1.121,-4.054 -0.398,-7.781 2.204,-11.383 2.398,-3.316 5.613,-6.183 10.132,-9.023 6.95,-4.359 14.477,-7.277 21.575,-9.777 1.503,-0.532 3.078,-0.867 4.433,-1.133 1.727,-0.344 3.477,-0.633 5.223,-0.922 3.578,-0.582 7.277,-1.191 10.707,-2.297 6.492,-2.101 12.832,-4.133 18.418,-4.594 2.433,-0.195 5.008,-0.285 8.363,-0.285 1.555,0 3.106,0.02 4.66,0.035 1.477,0.02 2.961,0.039 4.442,0.039 8.343,0.016 16.687,0.063 25.035,0.106 l 7.715,0.031 4.246,0 c 3.894,0 8.426,0.008 12.879,0.172 7.062,0.246 14.433,0.719 22.523,1.418 3.332,0.281 7.137,2.184 11.137,3.16 5.781,1.422 11.617,3.016 17.254,4.555 l 5.066,1.375 c 2.024,0.535 4.121,1.09 6.102,1.91 5.258,2.188 10.55,4.523 15.664,6.77 l 3.75,1.656 c 3.633,1.597 7.441,3.945 8.086,9.262 0.09,0.757 0.265,1.5 0.437,2.246 0.16,0.687 0.317,1.375 0.422,2.062 0.383,2.453 0.383,5.484 -2.988,7.113 -0.481,0.231 -0.946,0.606 -1.531,1.071 -0.012,0.008 -0.028,0.023 -0.043,0.031 0.336,0.277 0.66,0.562 0.996,0.832 1.382,1.16 2.695,2.25 3.851,3.539 l 1.942,2.141 c 4.129,4.519 8.398,9.199 11.386,14.836 0.532,0.996 1.157,1.929 1.825,2.914 0.492,0.73 0.98,1.468 1.429,2.222 0.965,1.602 1.907,3.215 2.852,4.832 1.211,2.082 2.422,4.157 3.672,6.211 0.246,0.407 0.511,0.789 0.777,1.18 0.918,1.336 1.871,2.723 2.023,4.672 0.012,0.226 0.497,0.758 0.79,1.078 0.168,0.18 0.339,0.363 0.476,0.535 0.734,0.879 1.5,1.738 2.266,2.602 1.574,1.765 3.207,3.605 4.554,5.613 4.766,7.082 10.727,13.234 15.93,18.316 2.988,2.914 6.258,5.668 9.422,8.329 1.203,1.011 2.402,2.023 3.59,3.05 l 0.203,0.172 c 1.094,0.949 2.227,1.926 3.434,2.633 3.277,1.93 6.578,3.828 9.878,5.727 3.77,2.168 7.536,4.332 11.278,6.543 4.047,2.402 8.379,5.101 13.633,8.484 6.535,4.234 12.472,9.41 17.656,15.379 6.098,7.023 10.199,12.816 13.312,18.773 l 0.446,0.86 c 2.828,5.414 5.757,11.011 7.39,17.121 l 0.258,0.949 c 0.695,2.582 1.406,5.254 2.246,7.816 2.375,7.227 3.512,15.016 3.571,24.516 l 0.027,2.668 c 0.047,3.273 0.086,6.652 -0.137,9.98 M 175.285,431.766 c 0.406,9.953 -0.379,18.464 -2.398,26.035 -2.293,8.558 -6.492,16.031 -12.477,22.195 -0.918,0.945 -1.781,1.945 -2.637,2.942 -1.875,2.179 -3.804,4.429 -6.332,6.121 -5.648,3.785 -11.32,7.546 -16.984,11.3 l -0.793,0.532 c -0.449,0.293 -0.914,0.554 -1.387,0.816 l 7.164,3.586 c 6.481,3.156 12.957,6.316 19.446,9.465 1.008,0.492 2.039,0.953 3.078,1.414 2.18,0.973 4.433,1.98 6.492,3.289 2.371,1.512 4.492,1.469 7.609,-0.273 5.075,-2.84 10.809,-6.489 14.868,-12.016 1.761,-2.399 3.25,-4.883 4.425,-7.371 L 196,498.449 c 1.883,-3.969 3.832,-8.074 5.078,-12.269 1.274,-4.289 1.93,-8.774 2.516,-14.184 0.386,-3.562 0.488,-7.238 0.582,-10.797 0.031,-1.254 0.062,-2.5 0.113,-3.75 0.039,-1.035 0.039,-2.066 0.039,-3.101 -0.008,-1.535 -0.008,-3.121 0.117,-4.692 0.325,-4.008 0.7,-7.066 1.231,-9.91 0.703,-3.824 1.679,-7.683 2.625,-11.308 0.242,-0.934 0.804,-1.93 1.722,-3.032 0.688,-0.824 1.36,-1.652 2.028,-2.484 2.176,-2.664 4.41,-5.418 6.902,-7.875 2.094,-2.067 4.789,-3.922 7.805,-5.371 1.508,-0.731 3.199,-0.91 4.84,-1.086 0.683,-0.078 1.379,-0.152 2.047,-0.27 0.367,-0.066 0.738,-0.14 1.195,-0.234 l 0.336,-0.066 -0.125,-1.739 c -0.133,-1.84 -0.266,-3.648 -0.422,-5.457 -0.27,-3.117 -0.543,-6.238 -0.824,-9.359 -0.559,-6.277 -1.121,-12.559 -1.586,-18.844 -0.555,-7.406 0.437,-14.601 1.59,-21.277 0.355,-2.078 0.656,-4.172 0.968,-6.266 0.36,-2.5 0.727,-5.004 1.184,-7.488 0.918,-4.981 1.988,-10.004 3.031,-14.875 l 0.344,-1.629 c 0.605,-2.828 0.605,-2.828 -2.141,-3.496 l -3.285,-0.82 c -3,-0.754 -6.101,-1.532 -9.164,-2.133 -5.648,-1.114 -11.43,-0.75 -17.027,1.078 -5.328,1.726 -10.934,3.781 -15.867,7.086 l -0.473,0.316 c -1.578,1.047 -3.215,2.137 -4.363,3.496 -6.489,7.75 -10.68,14.266 -13.578,21.137 -3.5,8.293 -5.043,17.426 -4.723,27.93 0.394,12.652 1.535,23.027 3.601,32.648 1.645,7.699 2.645,15.578 2.969,23.438 M 310.113,230.434 c 4.235,-1.746 8.617,-3.559 12.446,-6.27 1.05,-0.738 2.238,-1.207 3.386,-1.652 0.996,-0.395 1.946,-0.77 2.75,-1.289 5.809,-3.766 12.383,-5.446 18.746,-7.075 l 1.903,-0.48 c 8.867,-2.305 15.695,-3.703 22.136,-4.547 4.981,-0.652 10.079,-0.769 15.012,-0.883 1.953,-0.039 3.906,-0.082 5.852,-0.164 l 7.004,-0.277 c 7.879,-0.317 16.031,-0.649 24.05,-0.809 2.473,-0.054 4.954,-0.101 7.442,-0.101 4.551,0 8.289,0.156 11.758,0.488 7.246,0.691 14.004,3.184 20.863,5.906 1.195,0.469 2.41,0.914 3.625,1.364 1.769,0.648 3.547,1.304 5.281,2.054 13.789,5.906 26.238,10.391 38.063,13.696 1.586,0.449 2.988,1.351 4.461,2.308 2.468,1.598 2.449,1.629 4.64,-0.195 0.317,-0.266 0.653,-0.504 0.985,-0.746 0.226,-0.168 0.457,-0.332 0.672,-0.496 1.625,-1.286 1.664,-1.813 0.289,-3.731 -1.692,-2.375 -4.215,-3.402 -6.872,-4.492 -0.617,-0.25 -1.23,-0.504 -1.828,-0.762 -2.972,-1.324 -6.093,-2.496 -9.113,-3.617 -2.543,-0.949 -5.094,-1.906 -7.594,-2.961 -4.461,-1.879 -9.226,-3.051 -13.84,-4.187 -1.203,-0.297 -2.402,-0.594 -3.601,-0.903 -4.445,-1.14 -9.094,-2.183 -14.191,-3.203 l -2.067,-0.414 c -3.883,-0.777 -8.129,-2.859 -12.082,-3.172 -3.879,-0.293 -7.859,-0.316 -11.715,-0.34 -2.152,-0.015 -4.32,-0.023 -6.48,-0.089 -1.25,-0.028 -2.504,-0.125 -3.758,-0.227 -1.453,-0.117 -2.91,-0.238 -4.367,-0.242 -3.543,-0.024 -7.086,-0.031 -10.629,-0.031 l -16.945,0.023 c -2.04,0 -4.082,-0.016 -6.122,-0.039 -2.035,-0.016 -4.07,-0.039 -6.101,-0.039 -3.219,0 -5.848,0.055 -8.293,0.152 -7.816,0.36 -16.766,2.426 -25.59,5.621 -2.226,0.793 -4.578,1.227 -6.855,1.637 -1.418,0.258 -2.836,0.52 -4.223,0.863 -2.313,0.575 -4.77,1.364 -7.313,2.344 l -1.91,0.731 c -3.535,1.347 -7.183,2.73 -10.582,4.441 -4.144,2.09 -8.441,4.437 -11.496,8.156 -1.14,1.399 -2.281,3.055 -3.597,5.207 -0.157,0.25 -0.227,0.641 -0.293,1.071 2.019,-0.946 4.082,-1.797 6.093,-2.629 m 192.754,3.945 -0.984,-0.336 c -3.711,-1.297 -7.434,-2.551 -11.156,-3.805 -3.711,-1.254 -7.422,-2.5 -11.122,-3.793 -8.546,-2.984 -17.078,-6.023 -25.585,-9.105 -7.598,-2.746 -15.082,-3.945 -22.946,-3.715 -4.308,0.133 -8.687,0.133 -12.922,0.141 -3.879,0 -7.757,0.011 -11.632,0.109 l -3.516,0.082 c -8.914,0.231 -18.133,0.465 -27.152,1.133 -11.692,0.887 -22.731,4.121 -31.043,6.855 -6.403,2.09 -12.45,5.297 -18.289,8.399 -2.262,1.199 -4.516,2.394 -6.801,3.539 -1.711,0.851 -3.449,1.656 -5.184,2.461 -1.762,0.812 -3.527,1.629 -5.262,2.504 -2.171,1.09 -4.437,2.367 -6.742,3.797 l -0.933,0.574 c -3.395,2.097 -6.907,4.254 -10.207,6.574 -5.914,4.141 -12.09,8.684 -16.938,14.695 -4.957,6.137 -10.074,12.489 -14.012,19.477 -2.148,3.801 -4.046,7.84 -5.878,11.75 -1.024,2.164 -2.043,4.332 -3.102,6.476 -2.309,4.637 -3.844,9.723 -4.688,15.547 -0.421,2.883 -1.113,5.742 -1.789,8.516 -0.441,1.832 -0.886,3.66 -1.25,5.504 -0.859,4.312 -1.839,9.441 -2.597,14.73 -1.028,7.137 -1.934,14.407 -2.707,21.602 -0.196,1.789 -0.075,3.695 0.05,5.535 l 0.09,1.445 c 0.078,1.434 0.207,2.871 0.332,4.301 0.098,1.168 0.2,2.328 0.282,3.492 0.781,11.746 1.687,23.231 4.179,34.66 l 0.535,2.469 c 1.352,6.356 2.754,12.922 5.641,18.906 1.031,2.129 1.84,4.383 2.629,6.555 0.734,2.035 1.496,4.145 2.422,6.106 2,4.25 4.402,8.328 6.707,12.105 2.844,4.66 6.242,10.145 9.922,15.426 2.316,3.32 4.847,6.59 7.293,9.754 1.051,1.351 2.097,2.699 3.136,4.062 0.25,0.321 0.512,0.641 0.778,0.957 0.469,0.575 0.945,1.157 1.351,1.778 4.313,6.578 10.114,11.785 15.692,16.558 3.508,2.996 7.437,6.199 12.355,10.078 0.496,0.383 1.149,0.637 1.985,0.961 0.078,0.032 0.16,0.067 0.246,0.098 0.039,-0.344 0.07,-0.676 0.105,-1 0.164,-1.582 0.32,-3.078 0.664,-4.742 0.352,-1.664 0.742,-3.547 1.836,-4.918 3.281,-4.129 7.238,-7.442 11.778,-9.84 1.335,-0.711 2.433,-1.184 3.402,-1.184 2.117,0 2.859,2.075 3.551,4.575 l 0.199,0.726 -0.641,0.402 c -0.246,0.153 -0.472,0.313 -0.695,0.461 -0.52,0.368 -1.016,0.707 -1.609,0.938 -3.973,1.508 -7.004,4.351 -10.008,7.383 -2.301,2.316 -2.52,5.449 -2.418,8.488 0.094,2.926 0.699,6.195 1.789,9.723 1.547,5.004 4.871,8.125 9.883,9.285 l 0.664,0.148 c 3.168,0.75 6.254,1.274 8.785,0.293 0.82,-0.32 1.598,-0.816 2.426,-1.336 0.57,-0.363 1.144,-0.73 1.738,-1.043 1.777,-0.933 3.574,-1.84 5.5,-2.808 l 0.703,-0.352 c -0.039,-0.015 -0.086,-0.023 -0.133,-0.039 -2.519,-0.687 -5.047,-1.355 -7.578,-1.992 -1.344,-0.336 -3.035,-1.305 -3.469,-3.961 -0.39,-2.41 1.598,-3.406 2.551,-3.883 6.703,-3.375 12.106,-5.519 17.516,-6.969 5.855,-1.566 11.808,-1.66 17.566,-1.75 l 2.992,-0.046 c 2.711,-0.063 5.485,-0.391 8.172,-0.711 2.422,-0.278 4.93,-0.575 7.422,-0.68 4.324,-0.184 8.719,-0.629 12.969,-1.055 5.64,-0.562 11.488,-1.148 17.289,-1.148 1.789,0 3.527,0.054 5.176,0.168 2.23,0.144 4.445,0.168 6.308,0.168 l 4.711,-0.02 c 2.297,0 5.016,0.031 7.707,0.278 2.77,0.25 5.719,0.363 9.301,0.363 2.473,0 4.945,-0.055 7.414,-0.106 2.231,-0.054 4.465,-0.101 6.817,-0.109 4.734,0 9.484,1.102 14.082,2.172 l 0.793,0.18 c 3.203,0.742 5.261,2.343 6.132,4.773 l 2.91,-0.375 0.571,0.437 c 0.219,0.153 0.504,0.34 0.676,0.688 0.851,1.672 1.574,3.426 1.019,4.961 -0.558,1.535 -2.23,2.422 -3.957,3.148 -1.242,0.524 -2.5,0.996 -3.766,1.477 -1.187,0.441 -2.375,0.891 -3.546,1.383 -0.766,0.324 -1.5,0.738 -2.426,1.273 0.047,0.028 0.101,0.055 0.152,0.09 0.996,0.543 1.856,1.023 2.746,1.422 3.938,1.769 8.301,2.043 12.524,2.305 l 2.179,0.144 c 3.985,0.324 8.75,-3.223 10.149,-7.398 1.992,-5.953 1.363,-11.004 -1.981,-15.895 -4.273,-6.25 -10.543,-9.383 -16.597,-12.062 -0.719,-0.317 -1.446,-0.598 -2.172,-0.871 -0.977,-0.375 -1.953,-0.75 -2.895,-1.204 -2.621,-1.269 -1.703,-3.461 -1.156,-4.773 l 0.48,-1.191 0.778,0.097 c 6.551,0.824 12.101,4.043 17.008,6.883 5.121,2.969 9.007,7.176 11.855,12.832 l 3.074,-2.367 c 2.887,-2.219 5.692,-4.379 8.461,-6.582 3.598,-2.863 6.43,-6.235 8.418,-10.02 1.313,-2.511 2.531,-5.078 3.75,-7.64 0.867,-1.836 1.746,-3.676 2.66,-5.5 0.594,-1.188 1.235,-2.348 1.883,-3.512 0.863,-1.559 1.754,-3.172 2.488,-4.801 0.708,-1.562 1.18,-3.363 1.352,-5.199 0.106,-1.203 0.418,-2.539 1.875,-3.301 3.856,-2.047 4.969,-5.953 6.047,-9.726 1.758,-6.18 3.578,-12.762 4.836,-19.399 0.715,-3.781 1.094,-7.711 1.465,-11.512 0.195,-1.996 0.386,-3.996 0.625,-5.984 0.281,-2.254 0.578,-4.504 0.886,-6.75 0.536,-3.992 1.094,-8.125 1.454,-12.191 0.566,-6.403 0.808,-12.887 0.984,-18.946 0.262,-8.683 -0.977,-17.445 -2.168,-25.914 l -0.238,-1.722 c -0.571,-4.102 -1.395,-8.25 -2.184,-12.266 -0.586,-2.941 -1.164,-5.879 -1.656,-8.84 -0.621,-3.621 -1.918,-6.996 -3.11,-9.82 -0.46,-1.098 -0.636,-2.258 -0.816,-3.375 l -0.133,-0.82 c -0.219,-1.274 -0.402,-2.547 -0.586,-3.832 -0.351,-2.473 -0.718,-5.032 -1.328,-7.469 -0.711,-2.805 -1.64,-5.637 -2.539,-8.379 -0.535,-1.625 -1.07,-3.262 -1.566,-4.906 -0.926,-3.055 -2.039,-5.016 -3.727,-6.555 -0.695,-0.645 -1.492,-1.762 -1.625,-2.93 -0.305,-2.812 -1.824,-5.047 -3.437,-7.406 l -0.633,-0.937 c -0.219,-0.321 -0.445,-0.641 -0.68,-0.965 -0.723,-1.016 -1.473,-2.067 -1.918,-3.274 -2.07,-5.554 -5.531,-10.277 -8.648,-14.16 -0.508,-0.633 -0.821,-1.355 -1.11,-2.051 -0.25,-0.582 -0.48,-1.121 -0.797,-1.543 -6.3,-8.195 -13.738,-14.886 -22.101,-19.879 -1.934,-1.152 -4.195,-1.937 -6.387,-2.687 m -81.726,327.91 c 0.004,5.832 -1.094,11.215 -3.274,15.996 -1.562,3.426 -1.793,7.024 -0.758,11.668 0.469,2.09 1.793,3.492 3.723,3.945 l 1.488,0.352 c 3.84,0.91 7.809,1.859 11.735,2.309 3.441,0.398 7.82,0.347 12.05,0.148 2.821,-0.137 4.989,-2.144 6.09,-3.969 0.75,-1.254 0.918,-3.465 0.485,-6.23 -0.953,-6.106 -3.242,-12.008 -6.789,-17.559 -0.926,-1.453 -1.743,-3.183 -2.403,-5.144 -1.355,-4 0.032,-8.071 3.625,-10.625 1.551,-1.102 3.09,-2.223 4.629,-3.344 3.469,-2.516 7.043,-5.121 10.703,-7.492 2.938,-1.899 6.059,-3.571 9.082,-5.184 1.356,-0.722 2.707,-1.445 4.039,-2.191 l 2.477,-1.383 c 2.148,-1.203 4.293,-2.41 6.465,-3.566 0.625,-0.336 1.277,-0.54 1.914,-0.731 0.348,-0.105 0.699,-0.215 1.027,-0.348 0.895,-0.343 1.785,-0.714 2.754,-1.117 l 0.184,-0.074 c -2.625,-2.746 -5.836,-3.027 -9.219,-3.328 l -1.059,-0.102 c -2.582,-0.246 -5.246,-0.289 -7.824,-0.328 -1.437,-0.027 -2.871,-0.051 -4.316,-0.105 -2.313,-0.094 -4.633,-0.207 -6.949,-0.324 -3.114,-0.149 -6.227,-0.301 -9.34,-0.411 -5.883,-0.207 -11.231,-0.324 -16.336,-0.367 -4.977,-0.039 -9.957,-0.019 -14.93,0.121 -1.633,0.051 -3.312,0.242 -4.934,0.43 -0.933,0.105 -1.863,0.215 -2.792,0.297 l -5.633,0.508 c -6.145,0.55 -12.289,1.101 -18.442,1.578 -3.093,0.246 -6.242,0.324 -9.285,0.402 l -1.98,0.055 c -4.766,0.129 -9.075,0.801 -13.176,2.051 -3.328,1.011 -6.66,2.007 -9.992,3.003 l -1.914,0.575 5.363,1.769 c 0.516,0.168 1.047,0.313 1.566,0.465 1.098,0.309 2.227,0.625 3.289,1.125 6.364,2.969 12.45,5.274 18.61,7.055 2.676,0.765 5.32,1.761 7.875,2.726 2.746,1.028 5.582,2.094 8.418,2.868 3.902,1.058 7.695,2.5 11.359,3.894 1.231,0.473 2.465,0.941 3.703,1.395 2.059,0.757 3.852,2.125 5.586,3.445 l 0.926,0.691 c 1.465,1.09 2.172,2.739 2.18,5.051 M 572.559,446.75 c 2.105,2.652 4.281,5.398 6.699,7.855 4.351,4.403 8.847,8.954 15.058,11.239 1.204,0.441 2.372,0.984 3.543,1.527 2.528,1.18 4.918,2.293 7.633,2.359 2.164,0.059 4.184,-0.054 5.844,-0.351 1.809,-0.328 3.644,-0.797 5.418,-1.246 1.164,-0.297 2.328,-0.594 3.504,-0.856 3.715,-0.832 7.144,-2.464 9.93,-4.73 2.335,-1.887 4.386,-4.582 5.648,-7.399 2.367,-5.32 5.094,-12.386 5.137,-19.894 0.019,-3.688 -0.614,-7.43 -1.262,-10.949 -0.609,-3.285 -1.477,-6.508 -2.586,-9.578 -0.566,-1.571 -1.34,-3.051 -2.148,-4.622 -0.567,-1.082 -1.129,-2.171 -1.622,-3.292 -4.925,-11.157 -12.699,-20.352 -23.785,-28.11 -3.05,-2.14 -6.261,-4.187 -9.367,-6.16 -2.586,-1.645 -5.176,-3.297 -7.711,-5.016 -2.449,-1.66 -5.254,-3.636 -7.512,-6.129 -3.23,-3.554 -6.339,-7.312 -9.343,-10.949 -1.203,-1.457 -2.414,-2.914 -3.629,-4.363 0.008,0.172 0.019,0.32 0.055,0.465 1.761,7.769 2.558,15.765 3.335,23.496 l 0.2,1.961 c 0.968,9.586 0.804,19.597 -0.512,31.5 -0.926,8.383 -1.934,17.023 -3.094,26.414 -0.39,3.176 -0.863,6.336 -1.351,9.59 l -0.606,4.101 c 0.836,1.02 1.68,2.071 2.524,3.137 M 562.074,304.641 c 0.985,4.14 2,8.425 3.336,12.5 2.078,6.332 4.469,12.363 7.102,17.906 2.359,4.953 5.144,8.949 8.519,12.199 1.426,1.367 2.782,2.809 4.133,4.246 1.649,1.758 3.356,3.578 5.156,5.203 3.075,2.762 6.414,5.625 10.032,7.797 6.519,3.918 12.496,8.711 18.269,13.344 1.859,1.484 3.715,2.977 5.594,4.437 2.711,2.106 4.805,4.985 6.828,7.762 l 1.066,1.453 c 2.121,2.86 3.977,5.821 5.512,8.809 2.649,5.16 5.606,11.234 7.113,17.898 l 0.614,2.641 c 0.644,2.711 1.304,5.519 1.73,8.332 0.828,5.383 0.586,10.156 -0.707,14.578 -0.371,1.266 -0.703,2.539 -1.039,3.824 -0.602,2.317 -1.223,4.711 -2.078,7 -3.957,10.614 -9.953,16.856 -18.344,19.094 -1.094,0.289 -2.187,0.606 -3.281,0.918 -4.531,1.289 -9.227,2.629 -14.129,2.629 -0.281,0 -0.562,-0.004 -0.848,-0.016 -2.242,-0.074 -4.25,-0.422 -5.968,-1.027 -7.621,-2.711 -13.848,-6.094 -19.039,-10.34 -2.922,-2.398 -5.512,-5.254 -8.012,-8.012 -0.91,-1.007 -1.824,-2.011 -2.75,-2.996 -0.789,-0.843 -1.504,-1.773 -2.332,-2.847 -0.098,-0.137 -0.207,-0.278 -0.313,-0.418 l -1.347,3.718 c -0.508,1.415 -1,2.836 -1.5,4.254 -1.133,3.246 -2.305,6.602 -3.598,9.856 -0.684,1.703 -0.172,2.918 0.867,4.324 4.633,6.25 10.848,11.449 19.012,15.898 5.144,2.809 10.715,4.872 16.09,6.864 2.707,1.004 5.406,2.008 8.066,3.101 2.711,1.106 5.707,1.461 8.887,1.832 1.445,0.172 2.887,0.344 4.297,0.586 l 1.949,0.325 c 1.148,0.191 2.297,0.378 3.445,0.597 7.36,1.399 13.86,-0.238 19.844,-5.008 4.859,-3.89 8.262,-7.816 10.695,-12.379 3.285,-6.144 6.086,-13.085 8.817,-21.859 1.402,-4.516 2.847,-9.379 3.894,-14.355 1.356,-6.446 1.864,-13.055 1.504,-19.633 -0.504,-9.196 -2.594,-17.985 -4.351,-24.613 -1.844,-6.926 -4.762,-14.028 -9.45,-23.02 -2.523,-4.828 -5.191,-8.832 -8.152,-12.23 -3.742,-4.301 -7.984,-8.317 -12.094,-12.2 l -2.539,-2.406 c -2.254,-2.148 -4.683,-4.141 -7.23,-5.922 -1.391,-0.972 -2.895,-1.765 -4.481,-2.601 -0.855,-0.454 -1.711,-0.899 -2.547,-1.383 -1.621,-0.922 -3.226,-1.875 -4.828,-2.821 l -3.156,-1.859 c -0.422,-0.254 -0.848,-0.512 -1.297,-0.699 -6.832,-2.871 -13.445,-6.945 -20.219,-12.457 -5.14,-4.176 -10.285,-8.524 -15.261,-12.719 l -2.539,-2.141 c -0.743,-0.628 -1.344,-1.363 -1.934,-2.082 l -3.969,-4.796 c -1.269,-1.536 -2.535,-3.079 -3.883,-4.618 0.282,1.176 0.567,2.356 0.844,3.532" /></g></g></svg>