<?xml version="1.0" encoding="UTF-8" standalone="no"?>
<svg
   xmlns:dc="http://purl.org/dc/elements/1.1/"
   xmlns:cc="http://creativecommons.org/ns#"
   xmlns:rdf="http://www.w3.org/1999/02/22-rdf-syntax-ns#"
   xmlns:svg="http://www.w3.org/2000/svg"
   xmlns="http://www.w3.org/2000/svg"
   viewBox="0 0 100 100"
   height="100"
   width="100"
   xml:space="preserve"
   version="1.1"
   id="svg2"><metadata
     id="metadata8"><rdf:RDF><cc:Work
         rdf:about=""><dc:format>image/svg+xml</dc:format><dc:type
           rdf:resource="http://purl.org/dc/dcmitype/StillImage" /></cc:Work></rdf:RDF></metadata><defs
     id="defs6" /><g
     transform="matrix(1.25,0,0,-1.25,0,100)"
     id="g10"><g
       transform="scale(0.1,0.1)"
       id="g12"><path
         id="path14"
         style="fill:#1b181a;fill-opacity:1;fill-rule:nonzero;stroke:none"
         d="m 673.949,351.59 c -0.246,6.41 -1.078,12.723 -2.636,18.945 -1.309,5.258 -2.665,10.508 -3.786,15.809 -0.707,3.336 -2.07,6.261 -4.035,8.969 -1.222,1.695 -2.558,3.355 -3.476,5.214 -1.078,2.184 -2.739,3.797 -4.328,5.504 -1.891,2.028 -3.864,3.977 -5.801,5.965 -0.481,0.496 -0.91,1.07 -1.461,1.477 -3.235,2.414 -6.492,4.797 -9.754,7.175 -0.754,0.555 -1.688,0.938 -2.305,1.625 -3.82,4.207 -7.711,4.707 -12.715,7.008 -2.824,1.285 -6.125,2.633 -8.961,3.871 -2.679,1.161 -5.812,2.032 -8.527,3.094 -5.637,2.219 -14.309,4.227 -20.391,4.617 -7.082,0.45 -14.054,0.223 -20.937,-1.601 -1.652,-0.438 -3.262,-1.078 -4.934,-1.434 -7.355,-1.558 -11.277,-3.062 -17.972,-6.41 -0.375,-0.18 -0.77,-0.301 -1.149,-0.445 -0.039,0.25 -0.07,0.425 -0.07,0.425 0,2.02 0.152,3.829 -0.051,5.598 -0.152,1.375 -0.887,2.672 -1.129,4.043 -0.558,3.07 -0.984,6.164 -1.453,9.25 -0.137,0.93 -0.285,1.863 -0.351,2.801 -0.247,3.582 -0.204,7.215 -0.747,10.754 -0.652,4.234 -0.675,8.418 -0.359,12.668 0.211,2.875 0.586,5.738 0.192,8.668 -0.434,3.258 -1.329,6.406 -3.118,9.011 -0.968,1.414 -1.422,2.707 -1.496,4.239 -0.152,3.363 -0.207,6.734 -0.273,10.105 -0.016,0.758 0.058,1.524 0.09,2.125 2.273,0.567 4.324,1.211 6.422,1.559 2.875,0.472 5.789,0.785 8.691,1.035 7.535,0.633 15.066,0.422 22.559,-0.551 1.468,-0.187 2.945,-0.918 4.238,-1.715 3.133,-1.902 4.965,-5.054 7.07,-7.957 2.672,-3.683 2.824,-7.843 2.477,-12.121 -0.063,-0.765 -0.297,-1.57 -0.653,-2.242 -2.343,-4.391 -5.507,-7.871 -10.289,-9.574 -2.238,-0.797 -4.379,-1.895 -6.633,-2.637 -1.738,-0.574 -3.566,-1.031 -5.375,-1.152 -3.003,-0.196 -4.085,-1.426 -3.668,-4.418 0.563,-3.985 2.434,-7.324 4.676,-10.52 0.567,-0.808 1.285,-0.871 2.024,-0.66 2,0.551 4.004,1.117 5.957,1.828 3.836,1.403 7.676,2.793 11.429,4.383 2.758,1.172 5.204,2.883 7.301,5.121 1.879,2.004 3.285,4.332 4.879,6.535 1.836,2.531 2.942,5.371 3.645,8.332 0.511,2.172 0.601,4.492 0.574,6.742 -0.024,2.172 -0.438,4.344 -0.715,6.793 1.887,0.821 3.668,1.758 5.555,2.352 0.965,0.305 2.109,0.012 3.179,-0.027 1.082,-0.043 1.696,-0.676 1.891,-1.719 0.41,-2.203 0.938,-4.395 1.145,-6.617 0.289,-3.106 0.457,-6.235 0.433,-9.356 -0.015,-2.414 -0.281,-4.844 -0.66,-7.23 -0.273,-1.746 0.172,-3.274 0.824,-4.781 0.16,-0.372 0.629,-0.696 1.024,-0.84 1.605,-0.578 3.472,0.187 4.199,1.812 0.473,1.055 0.762,2.203 1.023,3.336 0.242,1.063 0.317,2.168 0.508,3.25 0.656,3.625 1.543,7.231 1.945,10.891 0.532,4.73 -0.336,9.351 -2.027,13.785 -0.348,0.902 -0.426,1.664 0.199,2.402 1.004,1.188 1.942,2.453 3.075,3.504 2.003,1.887 2.511,4.246 2.371,6.84 -0.036,0.57 -0.278,1.246 -0.653,1.656 -2.304,2.524 -4.578,5.094 -7.054,7.43 -2.61,2.461 -5.547,4.281 -9.383,2.906 -0.414,-0.148 -0.926,-0.015 -1.367,-0.109 -1.692,-0.344 -3.579,-0.184 -4.68,-2.02 -0.223,-0.355 -0.758,-0.523 -1.168,-0.746 -2.914,-1.574 -5.793,-3.238 -8.777,-4.66 -1.325,-0.633 -2.813,-1.336 -4.372,-0.34 -2.968,1.899 -5.835,4.012 -9.335,4.867 -1.555,0.383 -3.09,1 -4.665,1.176 -3.585,0.399 -7.183,0.649 -10.785,0.84 -2.14,0.113 -4.324,0.195 -6.453,-0.039 -6.027,-0.664 -12.039,-1.508 -18.054,-2.258 -0.676,-0.086 -1.364,-0.008 -2.024,-0.008 -0.559,1.934 -1.086,3.492 -1.445,5.09 -0.547,2.473 -2.207,3.348 -4.457,3.731 -2.567,0.445 -5.012,-0.188 -7.52,-0.489 -2.621,-0.312 -3.179,-1.808 -3.133,-3.781 0.012,-0.543 0.059,-1.09 0.118,-1.625 0.308,-2.961 0.808,-5.914 0.902,-8.883 0.113,-3.429 -0.137,-6.875 -0.203,-10.312 -0.02,-1.094 -0.004,-2.196 0.09,-3.289 0.3,-3.672 0.675,-7.336 0.957,-11.012 0.086,-1.164 0.211,-2.555 -0.844,-3.289 -1.973,-1.383 -2.145,-3.469 -2.445,-5.547 -0.207,-1.394 -0.352,-2.793 -0.567,-4.187 -0.23,-1.497 -1.062,-2.348 -2.586,-2.551 -1.898,-0.254 -3.789,-0.614 -5.683,-0.906 -5.473,-0.84 -10.934,-1.766 -16.418,-2.489 -5.567,-0.73 -11.16,-1.219 -16.735,-1.898 -3.5,-0.422 -6.984,-0.996 -10.476,-1.508 -5.239,-0.773 -10.52,-1.402 -15.727,-2.375 -7.172,-1.348 -14.281,-3.086 -21.457,-4.414 -5.75,-1.063 -11.551,-1.813 -17.344,-2.606 -6.246,-0.847 -12.515,-1.554 -18.765,-2.382 -5.184,-0.68 -10.348,-1.489 -15.531,-2.172 -4.715,-0.621 -9.489,-0.906 -14.161,-1.77 -7.054,-1.301 -14.156,-1.906 -21.289,-2.324 -1.281,-0.078 -2.566,-0.016 -4.054,-0.016 -0.172,0.692 -0.512,1.43 -0.52,2.168 -0.019,1.551 -0.461,2.871 -1.254,4.196 -0.59,0.976 -0.902,2.164 -1.172,3.297 -0.511,2.132 -0.953,4.281 -1.332,6.441 -0.59,3.398 -1.004,6.832 -1.695,10.203 -0.773,3.758 -1.766,7.465 -2.684,11.191 -1.363,5.555 -2.726,11.114 -4.14,16.653 -0.27,1.043 -0.203,1.91 0.219,2.926 1.05,2.531 -0.106,5.98 -2.286,7.722 -0.472,0.379 -0.789,1.098 -0.964,1.723 -1.012,3.453 -1.864,6.961 -2.958,10.391 -2.703,8.468 -2.96,9.789 -3.042,18.539 -0.004,0.472 -0.098,0.972 0.027,1.406 0.113,0.406 0.383,0.867 0.723,1.094 3.875,2.636 7.769,5.234 11.671,7.828 0.512,0.343 1.047,0.683 1.614,0.894 4.304,1.59 8.769,2.332 13.32,2.633 3.062,0.203 6.164,0.172 9.176,0.695 2.89,0.496 5.969,0.871 7.929,3.735 0.715,1.043 1.364,2.222 0.934,3.222 -0.547,1.286 -1.555,2.571 -2.703,3.325 -1.016,0.668 -2.488,0.8 -3.766,0.836 -3.136,0.074 -6.277,0.031 -9.414,-0.094 -4.066,-0.172 -8.129,-0.59 -12.195,-0.668 -3.762,-0.07 -7.531,0.164 -11.297,0.262 -0.918,0.027 -1.844,0.148 -2.75,0.078 -4.758,-0.36 -9.504,-0.891 -14.262,-1.121 -8.215,-0.395 -16.441,-0.633 -24.664,-0.895 -2.375,-0.074 -4.754,0.016 -7.129,-0.043 -2.531,-0.051 -5.066,-0.098 -7.589,-0.324 -2.5,-0.227 -3.782,-1.762 -3.848,-4.34 -0.043,-1.488 0.074,-2.984 -0.043,-4.465 -0.117,-1.39 0.574,-2.387 1.555,-2.937 1.32,-0.746 2.804,-1.364 4.289,-1.582 2.5,-0.364 5.054,-0.325 7.578,-0.547 1.527,-0.137 3.039,-0.43 4.551,-0.68 3.773,-0.621 6.863,-2.969 10.355,-4.308 1.051,-0.403 2.027,-1.036 2.988,-1.645 0.426,-0.27 0.797,-0.699 1.086,-1.137 0.469,-0.711 0.785,-1.539 1.281,-2.226 1.391,-1.953 2.52,-4.188 4.645,-5.438 1.16,-0.687 1.852,-1.613 2.273,-2.828 1.786,-5.176 3.637,-10.328 5.313,-15.543 0.926,-2.887 1.551,-5.883 2.238,-8.551 -0.687,-0.957 -1.566,-1.617 -1.594,-2.312 -0.07,-1.86 0.149,-3.738 0.407,-5.598 0.164,-1.156 1.113,-1.621 2.195,-1.695 0.441,-0.031 0.891,0.058 1.512,0.109 0.183,-0.734 0.383,-1.394 0.515,-2.07 0.352,-1.766 0.68,-3.535 1.004,-5.309 0.766,-4.238 1.524,-8.476 2.285,-12.715 0.922,-5.171 1.61,-10.402 2.84,-15.496 1.176,-4.875 2.164,-9.769 3.09,-14.695 0.516,-2.746 -0.234,-4.934 -1.828,-6.926 -4.043,-5.039 -8.164,-10.011 -12.238,-15.023 -1.621,-1.996 -3.207,-4.02 -4.809,-6.031 -2.402,-3.02 -4.805,-6.043 -7.344,-9.239 -1.308,0.754 -2.461,1.332 -3.527,2.047 -1.527,1.035 -2.941,2.25 -4.496,3.238 -2.664,1.688 -5.383,3.29 -8.109,4.868 -1.664,0.965 -3.364,1.882 -5.098,2.715 -2.297,1.105 -4.731,1.929 -6.938,3.183 -2.64,1.504 -5.355,2.613 -8.355,3.02 -1.523,0.203 -3.055,0.414 -4.551,0.781 -5.57,1.348 -11.238,1.82 -16.937,1.887 -3.246,0.035 -6.407,0.425 -9.586,1.089 -2.992,0.629 -6.106,1.098 -8.965,-0.8 -0.555,-0.368 -1.301,-0.465 -1.977,-0.594 -5.961,-1.145 -11.961,-2.102 -17.867,-3.469 -2.5,-0.578 -4.805,-2.015 -7.195,-3.07 -3.539,-1.555 -6.828,-3.543 -9.992,-5.777 -4.086,-2.891 -7.875,-6.223 -12.258,-8.676 -0.457,-0.254 -0.781,-0.742 -1.168,-1.121 -1.485,-1.477 -2.985,-2.926 -4.453,-4.414 -2.461,-2.481 -5.164,-4.774 -7.285,-7.528 -2.352,-3.058 -4.164,-6.539 -6.227,-9.832 -1.945,-3.109 -4,-6.152 -5.844,-9.32 -1.328,-2.277 -2.406,-4.715 -3.578,-7.094 -1.074,-2.172 -1.945,-4.469 -3.234,-6.496 -0.942,-1.488 -1.598,-3.012 -2.063,-4.68 -0.758,-2.714 -1.371,-5.5 -2.394,-8.109 -2.203,-5.641 -4.024,-11.359 -4.336,-17.453 -0.227,-4.602 -0.625,-9.242 -0.305,-13.824 0.512,-7.344 1.512,-14.676 3.715,-21.746 1.262,-4.036 2.602,-8.055 3.922,-12.075 0.707,-2.144 1.488,-4.269 2.187,-6.418 0.965,-2.968 1.711,-6.027 2.879,-8.906 1.317,-3.242 2.946,-6.359 4.535,-9.488 1.344,-2.641 2.782,-5.235 4.254,-7.805 0.887,-1.558 1.903,-3.039 2.903,-4.527 1.476,-2.203 2.836,-4.508 4.515,-6.535 2.274,-2.735 4.543,-5.457 7.309,-7.778 3.101,-2.601 6.426,-4.816 9.89,-6.773 2.661,-1.5 5.61,-2.461 8.43,-3.66 1.203,-0.508 2.375,-1.145 3.621,-1.496 4.078,-1.141 8.168,-2.243 12.278,-3.25 4.175,-1.024 8.355,-2.121 12.586,-2.797 4.472,-0.723 9.031,-0.864 13.523,-1.469 3.98,-0.539 7.957,-0.613 11.961,-0.648 2.406,-0.012 4.945,0.472 7.273,-0.793 0.411,-0.215 1.051,-0.075 1.567,0.019 2.035,0.363 4.054,0.996 6.101,1.121 5.551,0.336 10.899,1.586 16.16,3.328 3.942,1.309 7.911,2.555 11.852,3.864 2.859,0.957 5.539,2.269 7.805,4.359 3.25,3 6.523,5.977 9.793,8.953 2.293,2.086 4.867,3.926 6.832,6.293 4.125,4.969 8.156,10.047 11.797,15.383 3.332,4.883 6.105,10.16 9.097,15.281 1.668,2.844 2.907,5.879 3.782,9.074 0.289,1.032 0.726,2.024 1.16,3.211 1.554,-0.289 2.961,-0.539 3.988,-0.73 0.894,-2.375 1.672,-4.406 2.43,-6.438 0.566,-1.519 1.39,-2.957 1.089,-4.707 -0.07,-0.394 0.239,-0.875 0.418,-1.304 1.25,-3.004 3.278,-5.469 5.278,-7.965 1.355,-1.707 2.976,-2.91 5.008,-3.586 2.254,-0.754 4.496,-1.563 6.757,-2.278 2.188,-0.687 4.368,-1.496 6.61,-1.894 3.797,-0.668 7.57,-0.539 11.351,0.57 4.614,1.348 8.93,3.332 13.172,5.555 3.606,1.891 6.891,4.18 8.867,7.918 1.2,2.266 2.188,4.641 3.282,6.961 0.39,0.82 0.504,2 1.64,2.058 2.742,0.129 5.5,0.239 8.16,-0.191 0.293,-0.879 0.512,-1.547 0.739,-2.215 0.672,-1.961 1.558,-2.574 3.609,-2.476 0.539,0.019 1.074,0.082 1.613,0.156 3.817,0.504 7.618,0.976 11.496,0.664 1.575,-0.129 3.231,0.211 4.79,0.602 3.464,0.851 4.261,2.046 4.085,5.636 -0.015,0.313 0.051,0.637 0.004,0.938 -0.601,3.843 -0.304,7.851 -2.296,11.441 -0.633,1.137 -1.309,1.949 -2.532,2.113 -2.508,0.34 -5.023,0.813 -7.539,0.817 -3.137,0.004 -6.273,-0.504 -9.414,-0.613 -1.723,-0.063 -2.973,-0.582 -3.48,-2.508 -2.578,0.457 -5.004,0.836 -7.399,1.367 -0.496,0.113 -1.011,0.723 -1.261,1.226 -0.543,1.106 -0.684,2.469 -1.399,3.407 -1.559,2.066 -1.398,4.531 -2.078,6.468 1.18,1.301 2.078,2.372 3.062,3.36 2.465,2.449 4.969,4.859 7.457,7.293 1.665,1.629 3.278,3.308 4.985,4.894 4.082,3.797 8.48,7.282 12.238,11.379 3.836,4.172 8.449,7.278 12.656,10.918 3.164,2.735 6.227,5.59 9.188,8.555 2.523,2.531 4.691,5.43 7.258,7.902 6.203,5.973 12.543,11.797 18.832,17.672 0.738,0.688 1.562,1.281 2.285,1.992 3.187,3.184 6.324,6.426 9.531,9.586 4.356,4.297 8.922,8.34 13.055,12.922 3.836,4.262 7.726,8.488 11.562,12.762 3.325,3.687 6.973,7.082 10.489,10.59 0.246,0.246 0.601,0.371 1.132,0.687 0.188,-1.625 0.301,-3.008 0.528,-4.375 0.289,-1.738 0.394,-3.508 1.418,-5.035 -0.086,-0.297 -0.168,-0.602 -0.227,-0.945 -0.281,-1.5 -0.742,-2.59 -1.293,-3.407 -0.176,-0.843 -0.691,-1.656 -1.433,-2.16 -2.067,-1.39 -4.278,-2.613 -6.157,-4.23 -2.675,-2.309 -5.004,-5.024 -7.664,-7.344 -4.152,-3.617 -7.406,-8.023 -10.543,-12.48 -2.886,-4.098 -5.183,-8.629 -7.781,-12.95 -0.984,-1.628 -2.101,-3.175 -3.125,-4.785 -0.738,-1.156 -1.562,-2.293 -2.113,-3.547 -1.137,-2.632 -2.012,-5.386 -3.184,-8.004 -1.953,-4.32 -3.156,-8.859 -4.074,-13.496 -1.078,-5.406 -1.891,-10.832 -2.328,-16.347 -0.492,-6.02 -1.113,-12.004 -0.445,-18.035 0.304,-2.782 0.472,-5.594 1.043,-8.321 1.007,-4.875 2.246,-9.695 3.441,-14.527 1.004,-4.051 1.961,-8.113 3.922,-11.856 1.64,-3.152 3.062,-6.418 4.523,-9.664 2.387,-5.332 4.735,-10.668 7.078,-16.015 2.235,-5.082 5.532,-9.473 8.989,-13.688 3.82,-4.648 8.41,-8.472 13.675,-11.379 2.629,-1.453 5.403,-2.683 7.95,-4.261 1.968,-1.227 4.011,-1.961 6.246,-2.286 6.203,-0.917 12.398,-1.835 18.605,-2.707 1.953,-0.277 3.918,-0.613 5.883,-0.625 7.379,-0.066 14.719,-0.168 22.074,1.118 8.481,1.48 16.879,3.222 25.071,5.879 4.082,1.32 8.109,2.847 12.109,4.414 2.953,1.156 5.93,2.336 8.723,3.839 3.414,1.829 8.984,3.946 12.199,6.118 7.418,5 14.262,10.664 19.129,18.429 2.918,4.641 5.847,9.282 8.668,13.977 1.824,3.047 3.527,6.168 5.183,9.312 1.039,1.993 1.973,4.059 2.813,6.153 1.344,3.355 1.176,6.183 3.101,9.176 0.743,1.152 1.254,2.507 1.629,3.839 0.899,3.2 1.84,6.407 2.418,9.676 0.68,3.77 1.426,7.613 1.383,11.418 -0.098,8.035 -0.738,16.059 -1.051,24.094 M 532.277,520.875 c 0.024,0.355 0.672,0.879 1.106,0.969 4.558,0.965 9.125,1.847 13.738,2.566 6.508,1.012 12.899,0.317 19.313,-0.191 3.164,-0.254 6.359,-1.242 9.336,-2.418 1.933,-0.77 3.578,-2.387 5.214,-3.793 1.176,-1.008 2.266,-1.465 3.77,-0.879 0.996,0.391 2.101,0.476 3.133,0.785 2.679,0.797 4.941,2.449 7.343,3.828 3.543,2.043 7.063,4.196 11.379,3.926 0.598,-0.039 1.34,0.082 1.774,-0.223 1.89,-1.332 3.734,-2.734 5.508,-4.226 0.816,-0.696 1.574,-1.555 2.089,-2.496 0.77,-1.403 1.418,-2.903 1.868,-4.438 0.152,-0.512 -0.285,-1.43 -0.735,-1.867 -1.425,-1.402 -2.918,-2.758 -4.504,-3.965 -1.117,-0.848 -1.582,-1.863 -1.496,-3.199 0.028,-0.383 0.129,-0.801 0.325,-1.113 4.05,-6.59 4.023,-13.594 2.085,-20.809 -0.503,-1.891 -0.953,-3.789 -1.441,-5.687 -0.086,-0.325 -0.254,-0.625 -0.566,-0.899 0.976,4.481 0.015,8.902 -0.161,13.328 -0.05,1.328 0.024,2.676 -0.109,4 -0.273,2.633 -0.605,5.27 -0.984,7.899 -0.145,0.949 -0.77,1.484 -1.637,2.058 -2.781,1.832 -5.492,1.328 -8.324,0.336 -1.809,-0.633 -3.696,-1.023 -5.465,-1.75 -1.242,-0.512 -2.586,-1.133 -2.887,-2.722 3.723,-7.536 2.942,-14.622 -1.871,-21.329 -0.18,-0.257 -0.363,-0.511 -0.523,-0.777 -3.184,-5.328 -7.825,-8.695 -13.567,-10.621 -2.851,-0.953 -5.675,-1.973 -8.535,-2.883 -3.148,-1.004 -5.203,0.207 -6.078,3.477 -0.039,0.148 -0.039,0.308 -0.066,0.461 -0.563,2.797 -0.528,2.66 2.207,3.441 2.355,0.672 4.629,1.649 6.906,2.578 1.695,0.692 3.32,1.574 5.004,2.297 5.156,2.211 8.242,6.246 10.219,11.473 1.546,4.074 1.57,8.101 0.628,12.242 -0.101,0.453 -0.203,0.93 -0.414,1.332 -2.824,5.406 -6.425,10.098 -11.691,13.277 -2.281,1.375 -4.824,1.707 -7.324,1.754 -5.301,0.102 -10.606,-0.332 -15.899,-0.148 -4.648,0.164 -9.148,-0.781 -13.711,-1.266 -1.64,-0.172 -3.257,-0.598 -5.004,-0.93 0,2.418 -0.05,4.516 0.047,6.602 m 40.254,-107.906 c -0.242,4.449 -0.414,8.902 -0.59,13.355 -0.113,2.821 0.254,3.305 3.004,3.196 2.391,-0.09 4.762,-0.489 7.133,-0.793 3.656,-0.469 7.344,-0.782 10.949,-1.516 5.125,-1.043 10.125,-2.563 14.868,-4.895 1.691,-0.832 3.55,-1.296 5.3,-2.019 2.668,-1.109 5.313,-2.305 8.039,-3.492 -2.664,-4.453 -5.211,-8.559 -7.605,-12.746 -2.328,-4.067 -4.496,-8.223 -6.746,-12.336 -2.301,-4.192 -4.59,-8.383 -6.93,-12.559 -3.008,-5.371 -6.039,-10.746 -9.086,-16.101 -2.019,-3.547 -4.078,-7.083 -6.121,-10.618 -2.656,-4.574 -5.258,-9.187 -8.012,-13.707 -1.054,-1.726 -2.461,-3.23 -3.707,-4.832 -1.132,8.571 -1.554,16.86 -1.054,25.172 0.062,1.219 -0.024,2.442 -0.055,3.664 -0.121,4.024 -0.309,8.043 -0.328,12.063 -0.012,1.547 0.437,3.086 0.527,4.64 0.434,7.332 0.973,14.672 1.149,22.008 0.097,3.832 -0.528,7.676 -0.735,11.516 m 42.086,-60 c -13.281,-8.141 -26.719,-16.043 -40.637,-24.379 0.59,1.297 0.836,2.187 1.336,2.902 3.387,4.824 6.614,9.742 9.372,15.004 4.156,7.938 8.578,15.727 12.886,23.582 2.555,4.664 5.086,9.332 7.645,13.988 3.308,6.024 6.469,12.129 10.004,18.004 2.465,4.09 5.429,7.864 8.199,11.754 0.344,0.477 0.836,0.844 1.238,1.242 2.957,-0.988 5.231,-2.878 7.426,-4.836 6.168,-5.523 11.172,-12.062 15.609,-19.074 1.528,-2.418 3.235,-4.742 4.559,-7.273 1.195,-2.278 1.98,-4.781 2.973,-7.27 -13.934,-7.66 -27.344,-15.515 -40.61,-23.644 m 41.242,19.472 c 3.301,-14.195 5.118,-28.23 3.329,-42.503 -3.989,-0.18 -7.817,-0.469 -11.641,-0.481 -6.168,-0.019 -12.34,-0.09 -18.496,0.289 -4.321,0.27 -8.528,-0.191 -12.797,-0.629 -5.969,-0.613 -11.977,-0.851 -17.957,-1.297 -1.707,-0.125 -3.426,-0.343 -5.106,-0.66 -4.925,-0.941 -9.882,-0.601 -15.328,-0.562 1.078,1.543 2.367,2.226 3.532,2.925 7.824,4.731 15.687,9.372 23.523,14.079 6.871,4.125 13.84,8.089 20.523,12.527 7.43,4.93 15.457,8.691 23.18,13.035 2.285,1.285 4.793,2.18 7.238,3.277 m -78.14,-57.617 c 4.511,-2.59 9.347,-4.351 14.226,-6.031 0.321,-0.113 0.7,-0.137 0.977,-0.313 4.797,-3.156 10.359,-4.144 15.691,-5.734 5.703,-1.691 11.133,-4.055 16.477,-6.664 5.457,-2.66 10.394,-6.094 14.965,-10.117 0.492,-0.442 1.148,-0.883 1.761,-0.938 0.571,-0.039 1.27,0.325 1.754,0.711 0.637,0.504 0.535,1.254 0.063,1.871 -0.422,0.536 -0.836,1.133 -1.379,1.5 -2.199,1.516 -4.473,2.918 -6.684,4.426 -5.664,3.848 -11.64,7.074 -18.105,9.297 -5.445,1.871 -10.996,3.41 -16.391,5.414 -6.344,2.363 -12.636,4.91 -18.828,7.684 -3.168,1.418 -6.285,3.129 -8.984,5.429 0.011,0.254 0.031,0.504 0.047,0.754 1.129,0.215 2.25,0.528 3.386,0.629 6.067,0.524 12.137,1 18.203,1.457 2.567,0.192 5.153,0.188 7.711,0.426 5.465,0.512 10.918,1.145 16.379,1.684 1.535,0.152 3.082,0.25 4.621,0.218 5.746,-0.117 11.493,-0.347 17.235,-0.425 4.031,-0.051 8.058,0.113 12.09,0.113 1.843,0.004 3.683,-0.156 5.64,-0.242 0.012,-0.582 0.156,-1.368 0.02,-2.11 -1.457,-7.793 -2.656,-15.679 -5.52,-23.097 -4.254,-10.981 -6.73,-20.477 -14.441,-29.231 -4.317,-4.894 -8.723,-9.656 -13.965,-13.519 -2.27,-1.68 -6.949,-3.215 -9.34,-4.719 -0.543,-0.344 -1.254,-0.387 -1.887,-0.582 -0.316,-0.09 -0.746,-0.113 -0.918,-0.328 -2.078,-2.696 -5.222,-3.16 -8.691,-4.668 1.367,2.562 0.02,3.98 -0.762,5.539 -4.117,8.265 -8.257,16.515 -13.281,24.273 -2.922,4.516 -5.984,8.961 -8.621,13.657 -4.18,7.437 -8.535,14.816 -11.16,23.054 -0.449,1.387 -0.945,2.758 -1.367,3.992 0.89,1.055 1.55,0.641 2.261,0.258 2.266,-1.238 4.578,-2.387 6.817,-3.668 m -89.547,26.891 c 5.09,-1.637 10.262,-2.742 15.59,-3.274 3.058,-0.296 6.039,-1.386 9.093,-1.777 6.555,-0.844 13.149,-1.383 19.708,-2.199 5.703,-0.703 11.402,-1.543 17.074,-2.496 2.187,-0.367 4.324,-1.117 6.418,-1.871 1.597,-0.571 1.629,-2.27 2.25,-3.668 -0.551,-0.36 -0.942,-0.715 -1.399,-0.887 -4.593,-1.664 -9.211,-3.25 -13.781,-4.957 -7.73,-2.883 -15.395,-5.91 -23.141,-8.711 -2.476,-0.898 -5.156,-1.203 -7.707,-1.91 -4.39,-1.199 -8.73,-2.57 -13.125,-3.738 -3.644,-0.961 -7.343,-1.735 -11.019,-2.579 -0.227,-0.05 -0.488,0.055 -1,0.129 -0.149,1.68 -0.203,3.403 -0.469,5.09 -0.758,4.918 -1.676,9.817 -2.387,14.746 -0.914,6.309 -1.566,12.633 -0.734,19.27 1.664,-0.418 3.176,-0.703 4.629,-1.168 m -3.297,13.34 c 1.656,4.968 3.758,9.734 6.238,14.359 2.797,5.207 5.242,10.617 7.86,15.93 0.644,1.316 1.367,2.586 2.246,4.238 1.883,-1.644 3.601,-3.027 5.191,-4.551 4.863,-4.676 9.848,-9.234 14.457,-14.16 3.66,-3.91 6.813,-8.308 10.238,-12.449 1.708,-2.055 3.458,-4.082 5.293,-6.008 2.805,-2.945 5.754,-5.754 8.551,-8.703 2.309,-2.438 4.489,-4.992 7.063,-7.871 -1.172,-0.027 -1.891,-0.129 -2.582,-0.047 -7.075,0.801 -14.145,1.648 -21.219,2.437 -1.625,0.184 -3.258,0.262 -4.883,0.321 -4.914,0.16 -9.664,1.344 -14.469,2.242 -2.523,0.477 -5.058,0.867 -7.605,1.27 -5.957,0.941 -11.617,2.898 -17.191,5.019 -0.387,2.883 -0.028,5.453 0.812,7.973 m 7.465,-54 c 4.609,1.289 9.348,2.215 13.816,3.898 3.321,1.238 6.699,2.012 10.078,2.902 5.161,1.356 10.278,2.79 15.09,5.192 1.297,0.648 2.715,1.047 4.094,1.523 6.645,2.309 13.301,4.625 19.965,6.903 1.082,0.371 2.222,0.586 3.832,1.007 -0.535,-0.968 -0.719,-1.449 -1.024,-1.832 -5.461,-6.828 -10.773,-13.781 -16.937,-20.003 -5.172,-5.215 -10.149,-10.649 -15.086,-16.098 -3.309,-3.652 -6.395,-7.504 -9.609,-11.234 -2.594,-3 -5.235,-5.938 -7.844,-8.926 -1.402,-1.602 -1.379,-1.621 0.43,-3.598 1.246,1.242 2.593,2.41 3.722,3.758 4.676,5.59 9.137,11.351 13.942,16.812 5.429,6.176 11.183,12.067 16.73,18.141 4.734,5.18 9.367,10.461 14.078,15.672 1.266,1.394 2.641,2.683 4.438,4.496 0.593,-3.516 0.633,-6.363 0.308,-9.207 -0.89,-7.824 -1.527,-15.645 -1.586,-23.539 -0.043,-6.106 -0.867,-12.199 -1.316,-18.301 -0.231,-3.051 -0.477,-6.101 -0.586,-9.16 -0.156,-4.383 -0.676,-8.684 -1.805,-12.938 -0.648,-2.418 -0.828,-4.96 -1.226,-7.519 -5.215,-0.809 -10.461,-0.723 -15.512,0.742 -4.586,1.34 -8.992,3.34 -13.477,5.055 -0.394,0.156 -0.773,0.387 -1.117,0.64 -1.488,1.09 -2.832,2.477 -4.941,2.211 -0.442,-0.058 -0.977,0.321 -1.399,0.606 -2.589,1.715 -5.203,3.39 -7.726,5.195 -2.426,1.738 -4.121,4.184 -5.684,6.703 -3.355,5.383 -6.773,10.735 -9.98,16.211 -2.715,4.637 -5.453,9.285 -6.254,14.805 -0.25,1.699 -1,3.312 -1.402,4.988 -0.243,1.008 -0.247,2.067 -0.391,3.391 1.516,0.523 2.926,1.094 4.379,1.504 m 68.015,-53.844 c 0.411,2.492 0.797,4.992 1,7.504 0.692,8.535 1.36,17.066 1.911,25.609 0.328,5.145 0.269,10.313 0.664,15.446 0.375,5.05 1.117,10.074 1.679,15.113 0.164,1.449 0.274,2.91 0.829,4.496 1.152,-2.254 2.355,-4.492 3.453,-6.774 1.808,-3.761 3.586,-7.539 5.289,-11.343 3.035,-6.793 7.043,-12.989 11.062,-19.196 1.645,-2.535 2.774,-5.41 4.168,-8.113 1.352,-2.633 2.793,-5.211 4.129,-7.851 2.07,-4.114 4.066,-8.274 6.145,-12.391 0.41,-0.816 1.039,-1.516 1.679,-2.441 -11.765,-4.707 -38.429,-9.602 -43.527,-7.938 0.508,2.613 1.078,5.231 1.519,7.879 m 10.348,140.418 c -0.379,-6.356 -0.883,-12.703 -1.297,-19.051 -0.054,-0.867 0.129,-1.75 0.125,-2.621 -0.027,-5.141 -0.113,-10.289 -0.113,-15.426 0,-2.968 0.105,-5.937 0.172,-8.898 -0.192,-0.055 -0.379,-0.121 -0.574,-0.184 -0.184,0.352 -0.43,0.68 -0.559,1.051 -2.461,7.09 -5.352,13.984 -8.664,20.723 -2.844,5.765 -5.129,11.816 -7.758,17.695 -2.133,4.762 -4.379,9.473 -6.644,14.164 -1.469,3.031 -3.2,5.938 -4.543,9.02 -0.606,1.382 -0.707,3.054 -0.758,4.605 -0.149,3.914 -0.129,7.828 -0.176,11.742 -0.004,0.164 0.063,0.336 0.145,0.778 6.699,2.171 13.468,4.554 20.355,6.535 2.75,0.793 5.738,0.718 8.836,1.062 0.18,-1.172 0.418,-2.187 0.48,-3.211 0.301,-5.234 0.524,-10.472 0.852,-15.711 0.453,-7.425 0.566,-14.851 0.121,-22.273 m -48.742,143.289 c 1.824,-0.039 3.652,-0.332 5.453,-0.648 0.516,-0.094 1.215,-0.59 1.356,-1.055 0.39,-1.254 0.91,-2.664 0.683,-3.883 -0.355,-1.902 0.188,-3.672 0.184,-5.492 -0.016,-5.719 -0.157,-11.43 -0.215,-17.141 -0.024,-1.801 0.168,-3.601 0.066,-5.39 -0.113,-2.11 -0.437,-2.352 -2.437,-2.676 -2.102,-0.34 -4.199,-0.692 -6.492,-1.074 -0.164,2.621 -0.321,5.179 -0.489,7.738 -0.062,0.859 -0.054,1.746 -0.257,2.57 -0.821,3.344 -0.102,6.703 -0.204,10.059 -0.082,2.887 -0.089,5.781 -0.211,8.668 -0.078,1.719 -0.382,3.426 -0.457,5.148 -0.101,2.176 0.84,3.223 3.02,3.176 M 285.66,558.5 c -1.574,0.617 -3.023,1.555 -4.582,2.207 -3.672,1.547 -7.539,2.035 -11.476,1.891 -1.481,-0.051 -2.887,-0.196 -4.293,0.468 -0.512,0.247 -1.192,0.129 -1.793,0.184 -1.473,0.129 -2.696,1.141 -2.805,2.617 -0.102,1.289 0.098,2.598 0.172,4.121 2.722,0.235 5.16,0.543 7.601,0.633 5.602,0.219 11.207,0.492 16.809,0.449 7.395,-0.058 14.754,0.325 22.117,0.871 1.688,0.122 3.363,0.528 5.047,0.559 3.293,0.066 6.594,-0.102 9.891,-0.055 4.218,0.055 8.433,0.328 12.652,0.332 4.992,0.004 9.977,-0.175 14.965,-0.304 0.762,-0.02 1.582,-0.075 2.265,-0.364 0.469,-0.203 0.891,-0.793 1.094,-1.308 0.278,-0.692 -0.16,-1.258 -0.82,-1.438 -2.277,-0.621 -4.57,-1.629 -6.867,-1.656 -3.477,-0.043 -6.867,-0.633 -10.262,-1.109 -3.098,-0.438 -6.133,-1.328 -9.176,-2.114 -1.097,-0.285 -2.222,-0.695 -3.176,-1.304 -2.839,-1.825 -5.605,-3.766 -8.39,-5.676 -1.793,-1.227 -3.555,-2.367 -5.922,-1.945 -0.848,0.152 -1.805,-0.45 -2.699,-0.422 -4.215,0.109 -8.438,0.199 -12.641,0.531 -2.769,0.219 -5.16,1.824 -7.711,2.832 m 7.641,-6.816 c 0.172,0.261 0.203,0.363 0.254,0.375 3.242,0.593 6.472,0.796 9.648,-0.368 0.414,-0.152 0.848,-0.253 1.285,-0.289 0.754,-0.058 1.524,-0.05 2.282,-0.066 0.976,-0.02 1.859,-0.184 2.132,-1.356 0.203,-0.851 -0.406,-2.472 -1.316,-2.769 -2.922,-0.945 -5.996,-2.063 -8.938,-0.606 -2.203,1.098 -4.078,2.899 -5.347,5.079 m 14.668,-34.629 c -0.449,1.566 -0.856,2.894 -1.231,4.238 -0.957,3.461 -1.871,6.93 -2.855,10.379 -0.817,2.855 -1.731,5.687 -2.543,8.543 -0.145,0.496 -0.02,1.074 -0.02,1.719 2.719,0.636 5.243,1.226 7.934,1.855 0.211,-0.59 0.555,-1.137 0.59,-1.707 0.25,-4.137 2.027,-7.848 3.066,-11.762 0.82,-3.097 1.781,-6.16 2.567,-9.265 0.484,-1.899 0.121,-2.235 -1.836,-2.563 -1.129,-0.187 -2.227,-0.562 -3.34,-0.851 -0.715,-0.188 -1.434,-0.364 -2.332,-0.586 m 1.34,-4.914 c -0.344,1.152 0.394,1.445 1.148,1.644 1.969,0.535 3.945,1.035 5.965,1.551 0.664,-1.031 0.473,-1.828 -0.238,-2.023 -2.243,-0.622 -4.434,-1.723 -6.875,-1.172 m 11.449,-224.387 c -2.645,-5.117 -5.215,-10.285 -8.184,-15.203 -2.078,-3.446 -4.715,-6.555 -7.199,-9.742 -2.055,-2.629 -4.195,-5.196 -6.391,-7.704 -1.328,-1.511 -2.796,-2.898 -4.261,-4.269 -4.121,-3.871 -8.25,-7.731 -12.442,-11.52 -0.898,-0.812 -2.008,-1.496 -3.133,-1.918 -3.242,-1.21 -6.527,-2.308 -9.824,-3.363 -3.504,-1.125 -7.015,-2.246 -10.57,-3.172 -1.922,-0.5 -3.953,-0.886 -5.91,-0.785 -2.821,0.145 -5.473,-0.672 -8.188,-1.039 -7.597,-1.039 -15.144,-0.934 -22.726,0.051 -4.504,0.582 -9.032,0.941 -13.535,1.508 -1.895,0.234 -3.77,0.664 -5.625,1.129 -4.024,1.007 -8.024,2.121 -12.051,3.136 -7.313,1.836 -14.348,4.321 -20.746,8.532 -5.668,3.726 -10.715,8.113 -14.637,13.699 -2.723,3.879 -5.422,7.828 -7.629,12.015 -2.941,5.586 -6.148,11.071 -8.117,17.149 -0.578,1.777 -1.402,3.472 -1.992,5.238 -0.356,1.082 -0.356,2.297 -0.735,3.363 -0.933,2.657 -2.027,5.25 -3.011,7.887 -2.188,5.899 -3.512,12.02 -4.641,18.203 -1.145,6.289 -1.344,12.645 -1.328,19 0.015,6.731 1.355,13.246 3.672,19.574 1.234,3.372 2.168,6.864 3.218,10.309 0.45,1.477 0.965,2.863 2.383,2.922 0.871,2.391 1.446,4.605 2.446,6.598 2.621,5.23 5.418,10.367 8.753,15.191 2.7,3.902 5.036,8.078 7.868,11.875 1.992,2.66 4.422,5.027 6.882,7.27 3.083,2.808 6.313,5.476 9.633,8 5.188,3.925 10.516,7.675 16.36,10.539 5.578,2.73 11.519,4.32 17.625,5.257 2.492,0.387 4.945,1.129 7.519,0.758 0.496,-0.074 1.11,0.125 1.547,0.399 1.91,1.175 4.008,1.265 6.027,0.789 4.848,-1.145 9.789,-1.293 14.68,-1.246 6.942,0.07 13.578,-1.516 20.168,-3.246 3.379,-0.887 6.531,-2.711 9.734,-4.227 5.383,-2.551 10.379,-5.789 15.215,-9.285 2.43,-1.75 4.887,-3.488 8.192,-4.063 -1.867,-2.863 -4.203,-5.011 -6.145,-7.379 -0.902,1.028 -1.668,2.063 -2.582,2.926 -4.41,4.149 -8.863,8.297 -14.734,10.184 -5.633,1.801 -11.395,3.183 -16.985,5.094 -6.117,2.085 -12.433,2.847 -18.757,3.718 -3.836,0.535 -7.664,0.407 -11.508,0.18 -2.071,-0.125 -4.156,-0.066 -6.227,-0.203 -1.984,-0.137 -3.961,-0.403 -5.933,-0.637 -0.762,-0.094 -1.555,-0.469 -2.27,-0.34 -1.746,0.313 -3.121,-0.429 -4.551,-1.222 -1.004,-0.555 -2.129,-0.875 -3.14,-1.414 -3.457,-1.836 -7.102,-3.247 -10.465,-5.321 -5.606,-3.449 -11.004,-7.203 -16.203,-11.234 -3.168,-2.453 -5.992,-5.391 -8.239,-8.828 -1.148,-1.754 -2.636,-3.285 -3.711,-5.074 -2.957,-4.946 -5.753,-9.985 -8.656,-14.961 -1.015,-1.743 -2.289,-3.34 -3.187,-5.141 -1.574,-3.137 -3.102,-6.316 -4.364,-9.59 -1.062,-2.75 -1.796,-5.644 -2.539,-8.512 -0.617,-2.418 -1.144,-4.879 -1.515,-7.343 -1.012,-6.703 -0.766,-13.442 -0.301,-20.188 0.156,-2.265 -0.133,-4.574 0.145,-6.816 0.64,-5.188 1.421,-10.356 2.292,-15.512 0.833,-4.945 2.403,-9.699 4.286,-14.336 1.109,-2.746 2.359,-5.437 3.461,-8.195 0.929,-2.317 1.73,-4.68 2.586,-7.02 1.281,-3.523 2.792,-6.914 4.574,-10.207 2.511,-4.621 5.484,-8.898 8.777,-12.961 1.902,-2.343 3.797,-4.718 5.965,-6.789 1.531,-1.457 3.422,-2.625 5.316,-3.566 5.035,-2.508 10.184,-4.762 15.559,-6.426 3.586,-1.109 7.184,-2.199 10.805,-3.176 1.472,-0.394 3.019,-0.613 4.543,-0.668 5.222,-0.195 10.449,-0.336 15.675,-0.375 2.071,-0.015 4.133,0.348 6.203,0.41 1.676,0.055 3.368,-0.023 5.043,-0.14 3.813,-0.258 7.625,-0.606 11.438,-0.84 0.824,-0.047 1.754,0.051 2.496,0.387 2.148,0.976 4.481,0.843 6.699,1.328 3.528,0.769 7.133,1.312 10.551,2.422 2.898,0.945 5.566,2.621 8.387,3.851 3.035,1.332 6.136,2.504 9.191,3.781 3.016,1.262 5.606,3.247 8.039,5.383 4.559,4.008 8.387,8.672 11.637,13.879 2.016,3.227 4.602,6.071 6.656,9.274 2.055,3.199 3.738,6.644 5.633,9.953 1.637,2.851 3.012,5.82 3.996,8.972 0.137,0.442 0.434,0.825 0.785,1.485 1.871,-0.324 3.586,-0.61 5.594,-0.949 -1.199,-2.68 -2.16,-5.141 -3.367,-7.473 m -100.195,39.285 c 0.539,-0.941 1.414,-1.305 2.308,-0.461 0.723,0.684 1.387,0.543 2.082,0.113 1.004,-0.621 1.973,-1.289 3.156,-2.066 -6.601,-2.086 -10.265,2.469 -11.527,7.457 -1.027,4.051 1.574,8.074 5.07,9.66 1.403,0.637 3.004,0.371 4.321,-0.695 0.472,-0.387 0.937,-0.774 1.484,-1.227 -0.277,-0.543 -0.594,-1.152 -0.988,-1.929 -1.731,0.949 -3.227,0.382 -4.746,-0.528 -1.348,-0.804 -2.274,-1.797 -2.516,-3.422 -0.367,-2.48 0.145,-4.777 1.356,-6.902 m 4.898,17.809 c -0.914,0.746 -1.902,0.5 -2.859,0.226 -3.954,-1.144 -6.778,-3.719 -8.372,-7.511 -1.277,-3.043 -1.039,-6.243 0.114,-9.313 0.84,-2.238 2.32,-4.059 4.023,-5.684 1.446,-1.386 3.293,-1.734 5.149,-1.683 2.07,0.051 4.14,0.316 6.187,0.656 0.77,0.125 1.461,0.723 2.395,1.211 1.441,-0.637 3.043,-1.348 4.8,-2.129 -1.113,-1.875 -2.941,-2.195 -4.5,-2.812 -2.617,-1.036 -5.418,-1.274 -8.179,-0.903 -1.481,0.199 -2.989,0.778 -4.321,1.508 -4.855,2.656 -7.835,6.816 -8.847,12.348 -0.262,1.437 -0.219,2.933 0.512,4.343 0.304,0.583 0.32,1.34 0.398,2.036 0.211,1.988 0.727,3.824 1.992,5.429 0.852,1.075 1.434,2.364 2.289,3.442 0.852,1.066 6.5,3.797 7.824,3.855 1.997,0.098 4,0.196 5.989,0.09 1.285,-0.07 2.605,-0.383 3.605,-1.91 -1.332,-1.945 -2.726,-3.965 -4.32,-6.281 -1.485,1.172 -2.692,2.113 -3.879,3.082 m 49.68,-90.879 c -2.215,3.66 -4.219,7.453 -6.297,11.195 -1.731,3.109 -3.41,6.254 -5.184,9.34 -0.887,1.547 -1.941,2.992 -2.906,4.496 -3.086,4.781 -6.09,9.621 -9.285,14.324 -1.438,2.106 -3.231,3.961 -4.946,5.864 -3.136,3.468 -5.804,7.246 -7.656,11.82 0.469,0.597 0.985,1.246 1.621,2.043 2.317,-1.227 4.602,-2.313 6.766,-3.613 4.777,-2.875 9.73,-5.368 14.75,-7.778 3.527,-1.687 6.758,-4.023 10.082,-6.133 3.117,-1.992 6.144,-4.144 9.285,-6.093 4.336,-2.688 8.793,-5.18 13.106,-7.903 2.207,-1.402 4.218,-3.129 6.312,-4.707 0.723,-0.543 1.43,-1.101 2.352,-1.808 -1.336,-1.801 -2.743,-3.637 -4.078,-5.528 -1.079,-1.511 -2.008,-3.14 -3.114,-4.636 -1.476,-2 -2.89,-4.102 -4.633,-5.84 -2.246,-2.239 -4.769,-4.196 -7.226,-6.199 -0.766,-0.622 -1.688,-1.071 -2.59,-1.485 -4.125,-1.91 -8.242,-3.84 -12.41,-5.648 -4.457,-1.942 -9.035,-3.504 -13.86,-4.262 -3.035,-0.48 -6.039,-1.195 -9.089,-1.594 -3.735,-0.488 -7.469,-0.332 -10.957,0.477 -0.102,1.75 -0.121,3.269 -0.297,4.777 -0.598,5.285 -1.309,10.567 -1.871,15.86 -0.688,6.472 -1.243,12.953 -1.899,19.429 -0.254,2.414 -0.746,4.797 -0.933,7.211 -0.309,3.895 -0.446,7.805 -0.668,11.699 -0.129,2.274 -0.297,4.536 -0.422,6.809 -0.039,0.777 -0.004,1.559 -0.004,2.277 1.902,0.653 1.902,0.653 4.281,3.621 0.817,-0.617 1.813,-1.101 2.418,-1.894 1.137,-1.481 2.121,-3.094 3.016,-4.735 1.929,-3.531 4.496,-6.546 7.121,-9.523 1.695,-1.922 3.258,-3.914 4.48,-6.207 1.032,-1.922 2.352,-3.68 3.5,-5.531 3.008,-4.832 6.047,-9.633 8.946,-14.528 1.503,-2.539 2.683,-5.273 4.109,-7.859 0.824,-1.5 1.934,-2.832 2.746,-4.34 0.809,-1.488 1.481,-3.066 2.074,-4.66 0.614,-1.656 1.629,-2.539 3.328,-2.562 0.883,1.257 0.899,2.382 0.032,3.824 m -35.02,63.867 c 0.332,0.305 0.473,0.492 0.527,0.473 2.786,-1.121 5.516,-2.399 8.348,-3.375 3.414,-1.184 6.906,-2.149 10.375,-3.149 3.32,-0.957 6.656,-1.867 9.992,-2.75 2.828,-0.746 5.676,-1.39 8.504,-2.129 5.719,-1.496 11.453,-2.945 17.141,-4.57 4.437,-1.273 8.797,-2.84 13.222,-4.164 1.758,-0.527 3.606,-0.746 5.403,-1.137 0.57,-0.125 1.125,-0.355 1.613,-0.515 -2.488,-4.934 -4.848,-9.754 -7.34,-14.497 -0.961,-1.824 -2.222,-3.496 -3.343,-5.234 -0.2,0.024 -0.399,0.043 -0.598,0.07 0,1.981 -0.949,3.039 -2.703,3.606 -0.91,0.297 -1.645,1.14 -2.485,1.691 -3.543,2.34 -7.019,4.801 -10.672,6.961 -5.925,3.492 -11.812,7.024 -17.394,11.09 -2.871,2.09 -5.797,4.051 -9.207,5.277 -2.953,1.063 -5.727,2.672 -8.508,4.176 -2.855,1.543 -5.66,3.192 -8.418,4.91 -1.543,0.953 -2.945,2.145 -4.457,3.266 m -99.406,22.16 c 2.078,0.59 4.223,0.289 6.336,0.024 2.437,-0.309 4.844,-0.918 7.285,-1.172 2.66,-0.282 5.363,-0.254 8.039,-0.461 4.215,-0.332 8.418,-0.836 12.641,-1.117 4.98,-0.336 9.964,-0.528 14.949,-0.766 4.918,-0.246 9.836,-0.473 14.75,-0.723 0.277,-0.011 0.555,-0.156 0.961,-0.277 -1.754,-2.383 -4.141,-4.32 -3.356,-7.539 -19.347,-6.949 -38.98,-12.137 -58.957,-15.719 -1.761,3.957 -3.625,23.938 -2.648,27.75 m 7.301,34.578 c 1.011,-0.386 2.101,-0.703 3.097,-1.222 2.668,-1.372 5.27,-2.891 7.957,-4.235 0.985,-0.492 2.176,-0.535 3.192,-0.988 1.222,-0.551 2.312,-1.395 3.527,-1.988 3.738,-1.817 7.465,-3.692 11.289,-5.325 2.539,-1.086 5.266,-1.711 7.856,-2.679 3.964,-1.481 7.91,-3.028 11.824,-4.653 1.187,-0.496 2.226,-1.355 3.355,-2.027 2.313,-1.379 4.633,-2.754 6.965,-4.105 1.324,-0.77 2.809,-1.344 3.301,-3.336 -0.574,-0.293 -1.16,-0.602 -1.758,-0.891 -1.855,-0.902 -3.891,-1.488 -5.207,-3.324 -0.281,-0.395 -1.055,-0.578 -1.598,-0.586 -5.289,-0.035 -10.582,0.121 -15.867,-0.039 -4.469,-0.129 -8.844,0.558 -13.254,0.992 -4.121,0.406 -8.25,0.844 -12.379,0.949 -4.031,0.098 -7.953,0.742 -11.882,1.531 -2.551,0.508 -5.071,1.25 -7.864,0.422 -0.59,10.559 2.547,22.094 7.446,31.504 m 1.269,-64.172 c 5.36,1.36 10.723,2.739 16.094,4.075 4.922,1.226 9.879,2.32 14.773,3.636 3.637,0.977 7.176,2.297 10.801,3.332 4.805,1.368 9.645,2.606 14.473,3.887 0.355,0.098 0.758,0.055 1.347,0.082 -0.132,-0.609 -0.214,-1.101 -0.339,-1.578 -0.188,-0.723 -0.602,-1.453 -0.559,-2.156 0.082,-1.422 -0.566,-2.274 -1.547,-3.149 -5.195,-4.648 -10.012,-9.707 -14.941,-14.644 -2.672,-2.672 -5.692,-4.981 -8.578,-7.426 -2.192,-1.859 -4.383,-3.699 -6.629,-5.481 -2.422,-1.925 -4.778,-3.984 -7.395,-5.585 -3.371,-2.067 -6.555,-4.356 -9.609,-6.86 -0.52,-0.43 -1.102,-0.773 -1.946,-1.363 -1.035,2.664 -1.886,4.918 -2.785,7.152 -1.757,4.348 -3.625,8.645 -5.293,13.028 -1.14,2.992 -2.043,6.074 -2.992,9.14 -0.222,0.715 -0.203,1.516 -0.32,2.504 1.914,0.496 3.68,0.957 5.445,1.406 m 9.156,-34.304 c 3.489,2.687 7.043,5.289 10.633,7.828 3.602,2.551 7.258,5 10.321,8.254 0.507,0.543 1.316,0.785 1.89,1.285 2.985,2.562 5.992,5.109 8.899,7.777 2.39,2.196 4.656,4.539 6.968,6.824 0.661,0.657 1.325,1.305 1.93,2.004 3.125,3.625 6.988,6.27 11.137,9.067 0.625,-7.301 1.215,-6.625 5.394,-6.696 0,-0.355 0.09,-0.746 -0.011,-1.07 -2.465,-7.984 -5.11,-15.918 -7.379,-23.957 -1.407,-5 -3.969,-9.441 -5.813,-14.226 -1.312,-3.411 -3.012,-6.661 -4.523,-9.985 -1.84,-4.051 -3.672,-8.105 -5.508,-12.152 -0.352,-0.77 -0.734,-1.524 -1.082,-2.297 -0.563,-1.246 -1.113,-2.5 -1.754,-3.949 -1.578,-0.246 -3.098,0.64 -4.574,1.332 -3.762,1.765 -7.489,3.625 -11.141,5.609 -1.324,0.727 -2.535,1.801 -3.566,2.938 -3.453,3.793 -6.774,7.711 -9.352,12.211 -1.051,1.824 -2.219,3.57 -3.215,5.421 -1.05,1.954 -1.007,2.426 0.746,3.782 m 34.747,-30.188 c 1.148,2.481 2.398,4.906 3.527,7.395 0.746,1.625 1.305,3.343 2.035,4.972 2.227,4.993 4.625,9.911 6.715,14.957 1.785,4.325 3.363,8.746 4.828,13.192 2.523,7.648 4.895,15.355 7.344,23.027 0.183,0.574 0.496,1.113 0.933,2.067 0.45,-0.692 0.653,-1.008 0.856,-1.325 1.332,-2.058 2.34,-2.261 4.363,-0.832 0.563,0.395 1.09,0.848 1.879,1.469 0.277,-0.953 0.727,-1.742 0.691,-2.504 -0.234,-5.59 0.786,-11.086 1.114,-16.633 0.242,-3.992 0.414,-7.992 0.757,-11.972 0.418,-4.844 1.028,-9.668 1.473,-14.504 0.215,-2.332 0.164,-4.688 0.395,-7.008 0.363,-3.738 0.851,-7.461 1.308,-11.191 0.254,-2.153 0.547,-4.301 0.848,-6.625 -13.535,-1.618 -26.656,-1.622 -39.551,3.437 0.176,0.773 0.215,1.481 0.485,2.078 m 38.406,111.742 c 0.16,0.813 0.176,1.336 0.367,1.782 3.301,7.691 6.574,15.39 9.965,23.043 1.297,2.918 2.89,5.699 4.301,8.566 0.683,1.395 1.296,2.836 1.851,4.293 1.781,4.656 4.512,8.734 7.27,12.812 1.613,2.379 2.957,4.95 4.363,7.469 0.617,1.11 0.016,1.914 -1.102,2.801 -0.406,-0.605 -0.808,-1.113 -1.113,-1.676 -1.148,-2.113 -2.152,-4.312 -3.406,-6.351 -2.32,-3.786 -5.024,-7.36 -6.465,-11.625 -1.543,-4.571 -4.062,-8.602 -6.266,-12.825 -2.093,-4.007 -3.847,-8.207 -5.738,-12.328 -1.992,-4.328 -3.894,-8.711 -5.992,-12.984 -0.754,-1.531 -1.094,-2.891 -0.016,-4.582 -1.101,-0.492 -2.054,-0.914 -3.074,-1.367 -0.367,0.414 -0.641,0.781 -0.965,1.086 -1.515,1.429 -2.601,1.304 -3.785,-0.403 -0.559,-0.808 -1.117,-1.621 -1.633,-2.363 -1.347,0.309 -1.914,0.992 -2.343,2.031 -1.723,4.223 -4.208,7.961 -7.176,11.383 -0.805,0.934 -1.457,1.996 -2.207,2.977 -2.473,3.207 -4.672,6.57 -6.547,10.199 -0.977,1.887 -2.715,3.355 -4.106,5.015 -0.601,0.711 -1.363,1.348 -1.757,2.168 -1.168,2.434 -3.004,4.321 -4.649,6.375 -0.91,1.145 -1.601,2.489 -2.355,3.754 -1.653,2.801 -3.516,5.453 -4.551,8.621 -0.625,1.915 -1.727,3.688 -2.75,5.438 -0.899,1.527 -1.731,1.387 -2.578,-0.051 1.496,-2.996 2.801,-5.906 4.375,-8.664 1.734,-3.043 3.679,-5.965 5.605,-8.887 2.481,-3.777 4.848,-7.652 7.602,-11.211 2.308,-2.976 3.89,-6.363 5.984,-9.449 2.762,-4.047 5.625,-8.035 8.27,-12.156 1.59,-2.477 2.847,-5.172 4.414,-8.074 -2.176,-0.914 -4.098,-1.719 -6.227,-2.614 -3.273,1.821 -6.644,3.887 -10.18,5.606 -4.843,2.355 -9.734,4.644 -15.015,5.937 -2.309,0.563 -4.567,1.391 -6.813,2.204 -2.941,1.066 -5.984,1.972 -8.722,3.449 -2.469,1.34 -5.25,1.933 -7.508,3.906 -2.102,1.836 -4.813,2.941 -7.234,4.41 -1.239,0.754 -2.426,1.598 -3.68,2.434 0.16,0.449 0.219,0.762 0.371,1.015 2.601,4.262 5.019,8.657 7.898,12.719 1.539,2.176 2.438,4.672 3.918,6.781 3.118,4.469 6.645,8.618 11.047,11.926 5.27,3.965 10.793,7.5 16.485,10.762 3.214,1.832 6.597,3.375 9.976,4.875 1.235,0.547 2.711,0.473 4.02,0.875 5.769,1.758 11.738,1.348 17.629,1.762 0.207,0.011 0.425,-0.121 0.597,-0.176 0.117,-0.18 0.266,-0.305 0.274,-0.442 0.293,-4.21 0.57,-8.418 0.855,-12.632 0.195,-2.895 0.504,-5.782 0.559,-8.68 0.07,-3.762 0.16,-7.539 -0.168,-11.273 -0.449,-5.184 -0.449,-10.301 0.215,-15.469 0.5,-3.883 0.382,-7.836 0.601,-11.758 0.184,-3.211 0.426,-6.426 0.742,-9.629 0.071,-0.707 0.555,-1.379 0.918,-2.238 1.45,1.187 1.922,2.226 1.41,3.992 -0.558,1.926 -0.57,4.016 -0.765,6.043 -0.137,1.398 -0.141,2.809 -0.266,4.207 -0.265,2.969 -0.613,5.926 -0.844,8.902 -0.265,3.438 -0.593,6.875 -0.613,10.317 -0.015,3.195 0.5,6.398 0.496,9.597 -0.004,4.469 -0.293,8.942 -0.425,13.414 -0.133,4.309 -0.243,8.625 -0.325,12.942 -0.011,0.844 0.149,1.695 0.25,2.777 1.707,-0.074 3.285,-0.16 4.86,-0.219 6.441,-0.25 12.59,-2.128 18.781,-3.671 5.496,-1.379 10.953,-2.993 16.332,-4.797 2.137,-0.723 4.144,-2.071 5.977,-3.453 2.96,-2.231 5.933,-4.481 8.441,-7.286 0.582,-0.66 1.476,-1.039 2.359,-1.629 -1.172,-1.453 -2.258,-2.742 -3.281,-4.078 -2.73,-3.566 -5.375,-7.222 -8.168,-10.738 -4.695,-5.91 -9.508,-11.719 -14.219,-17.613 -2.238,-2.797 -4.285,-5.754 -6.539,-8.528 -3.176,-3.906 -6.472,-7.707 -9.496,-11.293 l -3.765,0 c -1.102,1.192 -1.415,4.071 -4.551,2.547 m 101.043,-44.656 c -0.313,-1.195 -0.754,-2.355 -1.235,-3.855 -2.933,0.898 -5.714,1.746 -8.496,2.593 -0.718,0.215 -1.429,0.465 -2.16,0.625 -1.273,0.286 -1.578,0.653 -1.43,1.926 0.407,3.488 0.977,6.973 1.196,10.477 0.402,6.672 0.218,13.332 -1.25,19.906 -1.125,5.043 -2.02,10.141 -3.086,15.195 -1.196,5.7 -3.578,10.989 -5.563,16.407 -0.164,0.449 -0.39,0.871 -0.5,1.324 -0.8,3.437 -2.703,6.289 -4.703,9.078 -2.672,3.73 -5.371,7.449 -8.133,11.113 -0.972,1.293 -2.16,2.422 -3.382,3.766 1.39,1.953 2.777,3.894 4.16,5.836 2.949,-1.922 4.316,-4.895 5.886,-7.625 3.301,-5.75 6.516,-11.555 9.52,-17.469 1.211,-2.406 1.82,-5.133 2.621,-7.742 0.91,-3 1.688,-6.039 2.602,-9.035 1.644,-5.407 2.914,-10.883 3.449,-16.539 0.301,-3.184 1.004,-6.336 1.48,-9.512 0.453,-3.008 1,-6.016 1.215,-9.051 0.235,-3.191 0.149,-6.414 0.145,-9.625 0,-2.273 -0.145,-4.543 -0.133,-6.816 0.008,-1.223 0.332,-2.356 1.805,-2.797 1.085,0.539 1.558,1.414 1.578,2.758 0.125,8.64 0.105,17.261 -1.258,25.824 -1.102,6.89 -2.067,13.801 -3.254,20.672 -0.371,2.14 -1.305,4.183 -1.934,6.281 -0.98,3.297 -1.972,6.594 -2.875,9.906 -1.199,4.406 -2.757,8.586 -5.32,12.434 -2.059,3.097 -3.516,6.613 -5.324,9.898 -2.106,3.817 -4.121,7.696 -6.91,11.074 -0.192,0.231 -0.305,0.528 -0.524,0.918 6.84,8.817 13.684,17.633 20.68,26.641 0.406,-0.469 0.879,-0.789 1.023,-1.223 0.731,-2.148 1.516,-4.296 2.02,-6.504 1.226,-5.421 2.012,-10.929 2.594,-16.464 0.445,-4.286 1.093,-8.547 1.605,-12.825 0.246,-2.027 0.274,-4.082 0.598,-6.089 0.664,-4.094 1.445,-8.172 2.211,-12.254 0.742,-3.922 1.707,-7.809 2.238,-11.758 0.641,-4.852 2.086,-9.457 3.277,-14.156 1.258,-4.934 1.961,-10.012 2.875,-15.028 0.7,-3.851 1.285,-7.73 2.067,-11.558 0.336,-1.649 -0.004,-2.852 -1.196,-3.957 -1.246,-1.161 -2.507,-2.332 -3.578,-3.661 -2.168,-2.683 -3.726,-5.718 -4.601,-9.109 m -19.989,15.246 c -6.277,0.477 -12.539,1.078 -18.816,1.481 -2.441,0.156 -4.926,-0.293 -7.371,-0.114 -5.356,0.391 -10.699,1.004 -16.051,1.52 -1.836,0.18 -3.683,0.285 -5.515,0.496 -5.497,0.641 -11.004,1.203 -16.481,2.02 -2.156,0.324 -4.234,1.234 -6.828,2.019 0.777,0.59 1.07,0.906 1.43,1.063 4.703,2.14 9.422,4.246 14.129,6.378 3.855,1.747 7.683,3.567 11.57,5.247 2.047,0.878 4.207,1.484 6.285,2.289 0.996,0.386 1.895,1.05 2.898,1.422 1.872,0.691 3.821,1.164 5.672,1.898 2.133,0.848 4.305,1.684 6.27,2.855 4.965,2.954 10.453,4.559 15.746,6.668 1.625,0.653 3.293,1.219 5.144,1.895 4.114,-12.109 6.344,-24.371 6.739,-37.152 -1.805,0 -3.321,-0.094 -4.821,0.015 m 4.082,-3.469 c -0.277,-3.55 -0.546,-7.078 -0.843,-10.96 -0.492,0.031 -1.297,-0.024 -2.055,0.136 -5.328,1.133 -10.629,2.469 -15.992,3.422 -4.176,0.754 -8.141,2.047 -12.113,3.504 -5.051,1.852 -10.207,3.418 -15.364,4.945 -1.746,0.512 -3.636,0.559 -5.465,0.766 -3.605,0.406 -7.031,1.461 -10.332,3.176 1.188,-0.086 2.375,-0.157 3.571,-0.25 1.226,-0.098 2.449,-0.207 3.676,-0.313 5.125,-0.433 10.25,-0.859 15.375,-1.304 1.914,-0.165 3.824,-0.43 5.742,-0.54 1.984,-0.101 3.976,-0.089 5.965,-0.101 2.222,-0.016 4.453,0.09 6.671,-0.016 2.914,-0.144 5.832,-0.347 8.727,-0.695 4.109,-0.504 8.195,-1.156 12.437,-1.77 m -75.3,14.079 c -0.09,0.144 -0.184,0.296 -0.282,0.437 1.18,1.34 2.465,2.606 3.516,4.039 2.867,3.942 6.563,7.016 9.988,10.391 2.321,2.269 4.243,4.961 6.36,7.449 2.769,3.262 5.597,6.469 8.328,9.75 1.625,1.961 3.023,4.121 4.703,6.023 1.586,1.797 3.566,3.235 5.098,5.075 2.437,2.918 4.687,6.004 6.941,9.082 1.738,2.371 3.356,4.836 5.305,7.66 1.82,-1.875 3.617,-3.305 4.875,-5.113 3.113,-4.477 6.07,-9.063 8.914,-13.711 2.203,-3.614 3.441,-7.661 4.547,-12.075 -7.516,-3.418 -15,-6.812 -22.461,-10.246 -7.559,-3.465 -15.199,-6.656 -23.043,-9.414 -7.731,-2.722 -15.199,-6.199 -22.789,-9.347 m 150.195,-50.954 c -0.113,-0.453 -0.309,-0.898 -0.539,-1.293 -1.145,-1.96 -2.281,-3.925 -3.473,-5.843 -1.05,-1.696 -2.515,-2.93 -4.246,-3.895 -4.996,-2.797 -10.117,-5.23 -15.637,-6.781 -3.152,-0.887 -6.253,-0.906 -9.347,-0.055 -4.086,1.125 -8.153,2.364 -11.895,4.453 -1.547,0.871 -3.125,1.711 -4.562,2.746 -0.723,0.512 -1.258,1.383 -1.696,2.196 -1.296,2.402 -2.589,4.82 -3.718,7.312 -0.992,2.203 -1.766,4.504 -2.621,6.77 -0.11,0.289 -0.184,0.613 -0.184,0.922 0,4.082 -0.039,8.164 0.047,12.238 0.078,3.93 1.984,7.203 3.934,10.406 1.738,2.864 3.628,5.633 6.73,7.207 2.047,3.074 5.426,4.032 8.48,5.395 4.653,2.082 9.641,2.398 14.649,2.183 2.215,-0.101 4.461,-0.257 6.621,-0.714 1.465,-0.301 2.855,-1.098 4.215,-1.809 1.769,-0.93 3.547,-1.887 5.183,-3.035 1.118,-0.781 2.207,-1.781 2.961,-2.918 2.657,-4.051 5.172,-8.188 5.875,-13.16 0.11,-0.77 0.426,-1.508 0.618,-2.266 0.539,-2.109 -0.059,-2.668 -2.172,-2.094 -0.625,2.082 -1.184,3.953 -1.746,5.825 -0.067,0.222 -0.125,0.46 -0.239,0.66 -1.652,2.882 -3.281,5.777 -4.98,8.629 -1.52,2.535 -4.024,3.843 -6.504,5.113 -4.289,2.195 -8.992,2.644 -13.66,2.844 -2.399,0.101 -4.793,-0.524 -7.18,-1.383 -3.316,-1.196 -6.172,-3.168 -9.043,-5.008 -2.187,-1.395 -3.781,-3.844 -5.437,-5.992 -2.782,-3.61 -3.645,-7.84 -3.45,-12.371 0.114,-2.59 -0.199,-5.211 0.09,-7.774 0.348,-3.086 0.844,-6.23 1.797,-9.172 1.277,-3.941 4.524,-6.25 7.895,-8.242 3.207,-1.902 6.636,-3.355 10.261,-4.113 2.309,-0.492 4.75,-0.754 7.082,-0.559 2.032,0.168 4.028,1.004 5.973,1.739 4.148,1.554 7.852,3.949 11.418,6.562 1.867,1.363 3.063,3.27 4.039,5.352 0.801,1.718 1.668,2.121 3.305,1.785 1.039,-0.207 1.422,-0.793 1.156,-1.86 m -38.773,53.727 c -1.457,3.992 -2.098,8.199 -2.856,12.336 -1.426,7.785 -2.473,15.648 -3.59,23.488 -0.297,2.082 -0.183,4.227 -0.426,6.321 -0.328,2.859 -0.796,5.699 -1.234,8.55 -0.586,3.797 -1.277,7.578 -1.781,11.383 -1.395,10.582 -3.262,21.082 -5.625,31.485 -0.32,1.417 -0.438,2.886 -0.629,4.253 0.492,0.262 0.687,0.446 0.891,0.457 6.691,0.446 13.199,1.973 19.746,3.305 4.062,0.824 8.211,1.223 12.308,1.875 4.18,0.66 8.332,1.469 12.516,2.09 4.637,0.691 9.293,1.203 13.933,1.871 5.258,0.75 10.5,1.617 15.754,2.367 2.743,0.399 5.5,0.828 8.258,0.93 5.863,0.223 11.621,1.34 17.418,2.062 4.805,0.606 9.578,1.5 14.387,2.161 6.473,0.882 12.961,1.707 19.457,2.48 5.266,0.633 10.57,0.981 15.82,1.762 5.074,0.758 10.082,2.019 15.153,2.84 2.933,0.472 5.937,0.535 8.91,0.718 0.508,0.032 1.035,-0.246 1.816,-0.449 0.207,-2.367 0.637,-4.773 0.531,-7.16 -0.054,-1.09 -1.007,-2.266 -1.812,-3.168 -2.781,-3.144 -5.703,-6.156 -8.52,-9.269 -1.445,-1.594 -2.714,-3.364 -4.203,-4.915 -3.293,-3.406 -6.769,-6.636 -9.996,-10.109 -4.976,-5.336 -9.754,-10.871 -14.719,-16.215 -3.437,-3.695 -7.086,-7.195 -10.601,-10.812 -1.731,-1.782 -3.371,-3.657 -5.086,-5.453 -0.633,-0.668 -1.359,-1.246 -2.035,-1.875 -3.071,-2.84 -6.039,-5.793 -9.211,-8.504 -4.442,-3.801 -7.985,-8.477 -12.117,-12.559 -3.418,-3.383 -6.926,-6.691 -10.539,-9.867 -2.086,-1.84 -4.321,-3.477 -6.172,-5.629 -1.457,-1.691 -3.36,-2.977 -4.981,-4.535 -3.64,-3.492 -7.121,-7.16 -10.859,-10.535 -3.625,-3.27 -7.5,-6.25 -11.235,-9.387 -1.543,-1.293 -3.062,-2.621 -4.507,-4.031 -0.879,-0.852 -1.61,-0.996 -2.621,-0.25 -1.489,1.101 -3.028,2.129 -4.586,3.117 -2.821,1.793 -5.965,2.437 -9.227,2.652 -4.066,0.266 -8.129,0.297 -12.172,-0.347 -1.187,-0.196 -2.379,-0.407 -3.832,-0.657 -0.324,1.379 -0.558,2.364 -0.789,3.34 -0.309,1.305 -0.484,2.641 -0.937,3.883 m 8,-49.793 c 3.316,-1.07 6.726,-1.578 10.23,-1.57 4.07,0.004 8.145,-0.157 12.215,-0.27 0.355,-0.012 0.711,-0.152 1.359,-0.297 -1.222,-2.164 -2.515,-4.035 -4.261,-5.379 -3.77,-2.89 -8.051,-4.953 -12.532,-6.3 -5.742,-1.735 -11.218,-1.032 -16.035,3.089 -1.383,1.184 -3.16,1.879 -4.738,2.833 -3.914,2.359 -5.266,6.175 -5.473,10.503 -0.203,4.145 -0.164,8.297 -0.277,12.45 -0.055,1.882 0.476,3.582 1.426,5.129 1.089,1.785 2.125,3.648 3.5,5.183 1.328,1.481 3.047,2.606 4.625,3.848 2.617,2.058 5.871,2.625 8.863,3.765 1.359,0.516 3.027,0.313 4.551,0.227 3.929,-0.211 7.808,-0.762 11.465,-2.363 2.296,-1.008 4.332,-2.461 5.703,-4.629 1.578,-2.504 3.074,-5.078 4.422,-7.715 0.574,-1.129 0.687,-2.496 1.085,-4.066 -1.472,0 -2.386,-0.043 -3.296,0.011 -4.911,0.285 -9.825,0.539 -14.727,0.918 -2.664,0.203 -5.059,-0.363 -7.383,-1.687 -1.926,-1.098 -2.828,-2.852 -3.39,-4.828 -0.36,-1.266 -0.512,-2.614 -0.598,-3.934 -0.18,-2.676 0.738,-4.094 3.266,-4.918 m 63.543,11.066 c 2.097,-0.492 2.328,-2.437 2.57,-4.039 0.445,-2.988 0.535,-6.043 0.781,-9.136 -1.883,-0.981 -3.777,-1.606 -5.769,-1.688 -3.68,-0.16 -7.372,-0.176 -11.059,-0.262 -0.953,-0.019 -1.902,-0.07 -2.148,1.536 0.718,0.125 1.421,0.265 2.136,0.367 2.121,0.277 4.246,0.613 6.379,0.797 2.086,0.179 2.828,1.668 3.332,3.367 0.309,1.043 0.449,2.144 0.567,3.234 0.261,2.473 -1.188,4.399 -3.594,4.906 -1.543,0.329 -3.078,0.68 -4.613,1.02 3.847,0.488 7.648,0.773 11.418,-0.102 m -26.403,-1.226 c 2.653,-0.442 5.352,-0.613 8,-1.067 3.106,-0.535 6.199,-1.171 9.27,-1.914 0.902,-0.214 1.691,-0.937 2.621,-1.472 -0.891,-1.801 -0.289,-3.895 -2.141,-5.106 -3.031,1.59 -6.277,0.461 -9.433,0.703 -2.368,0.188 -4.766,-0.039 -7.149,-0.011 -5.082,0.066 -10.16,0.117 -15.234,0.3 -5.926,0.223 -11.844,0.583 -17.77,0.883 -0.301,0.016 -0.617,0.028 -0.922,0.075 -1.566,0.226 -3.144,0.632 -3.789,2.265 -0.711,1.82 -0.101,3.586 0.989,5.082 1.039,1.43 2.308,2.227 4.32,2.074 2.812,-0.214 5.672,0.098 8.508,0.219 7.664,0.332 15.199,-0.793 22.73,-2.031 m 119.125,139.937 c -0.519,-1.605 -2.179,-2.867 -3.426,-4.183 -1.386,-1.461 -2.957,-2.75 -4.328,-4.223 -2.679,-2.894 -5.406,-5.769 -7.894,-8.84 -3.082,-3.808 -6.293,-7.484 -9.856,-10.832 -0.168,-0.156 -0.343,-0.32 -0.492,-0.5 -4.109,-4.801 -8.98,-8.785 -13.527,-13.125 -3.203,-3.051 -6.34,-6.176 -9.567,-9.191 -3.515,-3.281 -7.168,-6.414 -10.64,-9.735 -4.184,-4.011 -8.617,-7.75 -12.223,-12.382 -3.84,-4.934 -8.578,-8.942 -13.418,-12.809 -3.266,-2.613 -6.57,-5.195 -9.66,-8.012 -3.32,-3.023 -6.367,-6.351 -9.621,-9.449 -1.961,-1.863 -4.149,-3.476 -6.117,-5.332 -2.813,-2.648 -5.485,-5.445 -8.274,-8.117 -1.777,-1.699 -3.656,-3.281 -5.562,-4.984 -1.555,2.566 -2.989,4.937 -4.496,7.433 2.488,2.715 5.179,5.102 7.953,7.445 5.097,4.286 10.433,8.293 14.894,13.36 1.992,2.262 4.321,4.219 6.539,6.277 2.953,2.746 5.93,5.469 8.918,8.176 1.317,1.195 2.657,2.363 4.051,3.465 4.039,3.183 7.66,6.762 10.789,10.906 2.641,3.488 6.055,6.211 9.289,9.102 3.469,3.097 6.852,6.296 10.168,9.562 4.324,4.25 8.617,8.535 12.789,12.942 4.856,5.132 9.578,10.402 14.352,15.621 4.305,4.711 8.75,9.265 13.312,13.714 2.61,2.543 5.024,5.297 7.516,7.961 2.016,2.161 4.016,4.332 6.027,6.489 0.207,0.222 0.438,0.461 0.715,0.578 1.297,0.554 1.582,1.722 1.496,2.922 -0.25,3.515 -0.554,7.035 -0.961,10.535 -0.187,1.621 -0.55,1.699 -2.09,1.926 -1.433,0.211 -2.675,-0.379 -4.003,-0.637 -2.942,-0.578 -5.907,-1.02 -8.856,-1.578 -4.156,-0.785 -8.281,-1.762 -12.465,-2.406 -5.543,-0.864 -11.125,-1.473 -16.687,-2.219 -7.785,-1.043 -15.559,-2.133 -23.336,-3.168 -2.438,-0.324 -4.899,-0.496 -7.34,-0.836 -3.805,-0.535 -7.582,-1.246 -11.395,-1.719 -5.496,-0.687 -11.011,-1.203 -16.519,-1.836 -5.047,-0.582 -10.082,-1.211 -15.121,-1.824 -6.574,-0.805 -13.149,-1.606 -19.715,-2.426 -1.07,-0.133 -2.121,-0.371 -3.184,-0.547 -4.242,-0.703 -8.492,-1.371 -12.722,-2.109 -2.879,-0.504 -5.727,-1.191 -8.614,-1.641 -5.543,-0.871 -11.078,-1.843 -16.722,-1.793 -0.957,0.012 -1.965,-0.293 -2.867,-0.668 -1.036,-0.433 -1.235,-1.679 -0.879,-2.429 1,-2.129 0.875,-4.434 1.34,-6.637 0.675,-3.223 1.46,-6.418 2.082,-9.648 1.132,-5.922 2.281,-11.844 3.246,-17.797 0.785,-4.868 1.273,-9.782 1.968,-14.664 0.243,-1.7 0.832,-3.336 1.059,-5.036 0.27,-2.015 0.23,-4.078 0.48,-6.101 0.469,-3.789 1.043,-7.567 1.59,-11.352 0.403,-2.793 0.754,-5.597 1.254,-8.375 0.895,-4.922 1.809,-9.851 2.856,-14.742 0.703,-3.289 1.664,-6.531 2.449,-9.808 0.234,-0.973 0.277,-1.993 0.422,-3.063 -2.473,-1.207 -4.813,-2.355 -7.188,-3.527 -0.886,0.84 -0.797,1.929 -0.953,2.89 -1.527,9.453 -3.25,18.856 -5.871,28.075 -1.004,3.531 -1.566,7.191 -2.363,10.777 -0.305,1.383 -0.781,2.723 -1.028,4.109 -0.425,2.383 -0.753,4.789 -1.089,7.199 -0.418,3.024 -0.633,6.094 -1.247,9.079 -1.246,6.089 -1.906,12.242 -2.468,18.425 -0.66,7.27 -1.278,14.563 -3.129,21.649 -0.551,2.109 -1.438,4.129 -2.195,6.176 -0.645,1.753 -1.727,3.101 -3.676,3.816 -0.324,-0.285 -0.883,-0.555 -1.071,-0.988 -1.339,-3.067 -3.796,-5.293 -5.668,-7.957 -2.816,-4.016 -5.668,-8.016 -8.656,-11.899 -3.07,-3.992 -6.355,-7.812 -9.484,-11.761 -2.711,-3.411 -5.418,-6.825 -7.973,-10.356 -2.781,-3.84 -5.347,-7.836 -8.09,-11.703 -0.843,-1.199 -1.968,-2.184 -2.929,-3.293 -1.578,-1.813 -3.129,-3.645 -4.68,-5.469 -1.262,-1.484 -2.481,-2.996 -3.762,-4.453 -2.941,-3.32 -5.875,-6.641 -8.875,-9.906 -3.234,-3.52 -5.949,-7.492 -9.851,-10.445 -3.121,-2.364 -5.414,-5.715 -7.813,-8.872 -0.558,-0.734 -1.14,-1.535 -1.89,-2.019 -2.149,-1.379 -3.676,-3.293 -4.989,-5.453 -0.48,-0.793 -1.125,-1.481 -1.703,-2.215 -0.672,-0.859 -0.715,-1.84 -0.105,-2.543 0.593,-0.688 1.3,-0.598 2.351,0.324 0.172,0.149 0.336,0.317 0.602,0.567 1.398,-0.715 2.804,-1.473 4.254,-2.157 0.972,-0.461 1.984,-0.816 2.988,-1.191 3.605,-1.359 7.258,-2.606 10.816,-4.098 3.45,-1.441 7.055,-2.203 10.688,-2.754 5.183,-0.793 10.223,-1.964 15.078,-4.062 2.75,-1.192 5.66,-2.008 8.535,-2.871 2.352,-0.703 4.766,-1.199 7.145,-1.828 2.449,-0.649 4.879,-1.434 7.351,-2.012 3.438,-0.793 6.934,-1.32 10.356,-2.195 5.129,-1.321 10.218,-2.821 15.316,-4.274 0.664,-0.187 1.281,-0.531 1.985,-0.828 l 0,-7.328 c -2.165,0.312 -4.168,0.605 -6.176,0.91 -0.223,0.031 -0.438,0.184 -0.66,0.188 -6.289,0.093 -12.25,2.05 -18.305,3.398 -3.207,0.715 -6.238,2.219 -9.391,3.211 -5.14,1.605 -10.304,3.156 -15.488,4.598 -3.484,0.972 -7.035,1.703 -10.547,2.574 -3.433,0.851 -6.871,1.695 -10.281,2.625 -3.774,1.015 -7.594,1.918 -11.262,3.254 -3.894,1.418 -7.711,3.082 -11.351,5.176 -3.543,2.031 -7.309,3.652 -10.969,5.472 -0.668,0.332 -1.285,0.762 -2.106,1.246 4.532,6.117 8.828,12.121 13.336,17.946 3.403,4.406 7.129,8.55 10.621,12.882 1.606,1.996 2.981,4.176 4.489,6.25 1.328,1.825 2.703,3.618 4.054,5.418 0.188,0.254 0.356,0.532 0.578,0.739 4.434,3.968 7.411,9.187 11.25,13.672 4.997,5.832 9.536,12.062 14.356,18.046 4.391,5.454 8.918,10.786 13.348,16.204 1.48,1.8 2.781,3.746 4.277,5.539 5.703,6.847 11.449,13.664 17.191,20.484 0.45,0.531 1.028,0.953 1.457,1.5 0.356,0.449 0.594,1 0.856,1.523 0.156,0.325 0.156,0.836 0.398,0.993 1.461,0.941 1.125,2.074 0.688,3.476 -0.742,2.383 -1.211,4.856 -1.781,7.297 -0.836,3.578 -1.715,7.148 -2.477,10.746 -0.582,2.758 -1.012,5.547 -1.504,8.324 -0.48,2.684 -0.945,5.371 -1.449,8.051 -0.317,1.692 -0.695,3.371 -1.043,5.055 -0.836,4.062 -1.672,8.125 -2.508,12.191 -0.059,0.301 -0.062,0.61 -0.113,1.102 2.39,1.437 5.094,1.48 7.926,1.992 0.293,-1.227 0.543,-2.34 0.824,-3.449 0.742,-2.883 1.547,-5.75 2.25,-8.645 1.504,-6.234 2.984,-12.48 4.426,-18.722 0.261,-1.145 0.246,-2.348 0.476,-3.497 0.641,-3.214 1.422,-6.398 2,-9.625 0.817,-4.535 1.527,-9.093 2.219,-13.648 0.254,-1.687 0.59,-2.031 2.5,-1.77 3.805,0.528 7.621,1.09 11.426,1.649 7.761,1.144 15.511,2.383 23.285,3.422 7.164,0.953 14.347,1.699 21.523,2.535 0.535,0.062 1.094,0.039 1.61,0.18 4.722,1.214 9.589,1.242 14.375,1.929 4.191,0.606 8.343,1.438 12.519,2.141 3.719,0.621 7.449,1.109 11.153,1.824 4.687,0.899 9.339,1.965 14.007,2.945 0.828,0.172 1.668,0.27 2.496,0.407 3.184,0.543 6.356,1.125 9.547,1.613 2.047,0.309 4.117,0.461 6.176,0.703 9.621,1.113 19.25,2.207 28.871,3.348 3.281,0.39 6.559,0.89 9.836,1.312 4.25,0.559 8.5,1.141 12.758,1.617 2.363,0.258 3.992,1.637 4.363,4.024 0.317,2.008 0.668,4.027 0.828,6.055 0.121,1.519 0.84,2.418 2.102,3.086 2.613,1.382 5.457,1.574 8.297,1.609 1.242,0.008 2.886,-0.059 3.648,-0.82 1.274,-1.27 2.203,-3.047 2.215,-5.032 0.008,-2.746 0.02,-5.488 -0.113,-8.226 -0.203,-4.156 -0.305,-8.293 0.238,-12.442 0.352,-2.714 0.484,-5.461 0.734,-8.183 0.293,-3.192 0.645,-6.383 0.911,-9.574 0.285,-3.352 0.878,-6.637 1.539,-9.926 0.211,-1.051 0.203,-2.184 0.101,-3.258 -0.207,-2.195 -0.844,-2.926 -3.015,-3.152 -3.977,-0.418 -7.961,-0.539 -11.907,0.339 -0.297,0.071 -0.562,0.231 -1.019,0.422 -0.25,2.68 -0.578,5.403 -0.719,8.137 -0.035,0.688 0.426,1.469 0.824,2.102 0.539,0.855 1.289,1.566 1.86,2.394 0.586,0.86 0.953,1.797 0.25,3.008 -0.481,-0.137 -1.004,-0.188 -1.446,-0.414 -2.109,-1.098 -4.191,-2.024 -5.078,-4.77 m 2.071,-35.433 c 0.761,5.707 1.316,11.453 1.98,17.176 0.066,0.589 0.277,1.175 0.508,2.113 l 14.578,0.297 c 0.211,-2.157 0.57,-4.364 0.605,-6.582 0.079,-3.989 -0.109,-7.981 -0.046,-11.969 0.042,-2.66 0.871,-5.086 2.328,-7.371 1.429,-2.262 2.547,-4.731 3.781,-7.125 1.433,-2.777 3.129,-5.465 4.176,-8.395 1.675,-4.675 4.66,-8.761 5.644,-13.726 0.262,-1.34 1.012,-2.602 1.66,-3.836 3.715,-7.086 7.094,-14.324 9.672,-21.945 1.512,-4.465 3.086,-8.911 4.852,-13.266 0.945,-2.313 0.09,-4.473 0.015,-6.688 -0.039,-1.308 -1.75,-1.75 -3.031,-1.3 -3.762,1.312 -4.793,4.707 -5.867,7.992 -0.277,0.847 -0.574,1.515 -1.07,2.242 -0.825,1.191 -1.559,2.516 -2.043,3.895 -1.867,5.285 -4.395,10.246 -7.129,15.085 -2.399,4.231 -5.09,8.282 -7.571,12.461 -1.785,2.993 -3.328,6.133 -5.171,9.079 -1.75,2.796 -3.766,5.417 -5.668,8.113 -0.25,0.351 -0.59,0.656 -0.778,1.043 -2.148,4.527 -5.695,8.039 -8.445,12.121 -2.109,3.133 -3.52,6.555 -2.98,10.586 m -0.415,-11.324 c 0.157,-0.204 0.282,-0.438 0.395,-0.668 1.445,-2.832 2.82,-5.649 5.281,-7.848 1.489,-1.332 2.395,-3.348 3.586,-5.043 2.488,-3.531 5.113,-6.973 7.449,-10.605 1.965,-3.051 3.547,-6.352 5.379,-9.489 2.227,-3.82 4.567,-7.566 6.805,-11.379 1.039,-1.781 1.957,-3.648 2.93,-5.476 -0.168,-0.18 -0.344,-0.364 -0.516,-0.543 -1.519,1.488 -3.062,2.953 -4.551,4.48 -3.195,3.285 -6.386,6.578 -9.527,9.918 -1.535,1.641 -2.992,3.367 -4.441,5.09 -5.102,6.094 -10.27,12.121 -16.008,17.645 -3.043,2.937 -5.836,6.156 -9.293,8.625 -1.09,0.777 -2.231,1.488 -3.367,2.242 2.464,6.426 8.132,12.765 12.867,14.25 0.093,-0.207 0.304,-0.446 0.273,-0.637 -0.566,-3.922 0.34,-7.437 2.738,-10.562 m 151.372,-79.039 c -0.832,-3.836 -1.993,-7.571 -3.766,-11.122 -1.949,-3.882 -1.215,-7.925 -3.121,-11.832 -2.481,-5.074 -4.949,-10.16 -8.09,-14.867 -0.711,-1.066 -1.121,-2.34 -1.664,-3.515 -0.18,-0.395 -0.274,-0.848 -0.524,-1.18 -3.41,-4.496 -6.773,-9.02 -10.292,-13.418 -4.059,-5.078 -9.25,-8.809 -14.586,-12.348 -2.582,-1.707 -7.356,-3.593 -10.028,-5.16 -2.207,-1.285 -4.543,-2.394 -6.918,-3.324 -3.508,-1.367 -7.113,-2.488 -10.664,-3.746 -5.762,-2.043 -11.609,-3.711 -17.551,-5.153 -6.543,-1.593 -13.179,-2.55 -19.82,-3.101 -5.269,-0.438 -10.629,0.226 -15.937,0.461 -9.965,0.457 -18.989,4.461 -28.188,7.828 -5.601,2.055 -10.379,5.551 -14.621,9.559 -3.469,3.269 -7.293,6.382 -9.617,10.781 -2.957,5.625 -6.043,11.179 -8.235,17.203 -1.222,3.351 -2.515,6.715 -4.21,9.828 -1.852,3.41 -3.29,6.945 -4.36,10.641 -1.668,5.793 -3.348,11.578 -4.801,17.41 -1.336,5.39 -1.554,10.949 -1.273,16.445 0.394,7.332 1.043,14.664 2.027,21.926 0.543,3.937 1.946,7.769 3.137,11.582 1.109,3.57 2.453,7.074 3.785,10.859 2.152,0.157 3.106,1.164 3.664,3.332 0.703,2.735 2.168,5.274 3.356,7.871 0.605,1.332 1.336,2.622 1.988,3.938 4.254,8.609 10.156,15.855 17.152,22.305 2.559,2.355 5.121,4.629 8.024,6.507 0.531,0.352 1.16,0.555 1.965,0.93 0.207,-2.937 0,-5.117 -2.528,-6.785 -5.543,-3.645 -9.816,-8.461 -13.332,-14.289 -4.453,-7.402 -7.785,-15.348 -11.793,-22.953 -1.535,-2.906 -3.199,-5.778 -4.422,-8.821 -1.879,-4.675 -3.793,-9.39 -4.191,-14.527 -0.496,-6.535 -1.023,-13.098 -0.309,-19.633 0.633,-5.902 1.625,-11.765 2.453,-17.644 0.129,-0.949 0.372,-1.914 0.329,-2.86 -0.278,-5.246 1.07,-10.211 2.394,-15.183 0.695,-2.613 1.219,-5.289 2.106,-7.828 0.859,-2.457 1.882,-4.907 3.187,-7.137 3.027,-5.18 6.277,-10.215 9.402,-15.328 0.954,-1.551 1.86,-3.137 2.711,-4.758 2.942,-5.582 7.301,-9.637 12.793,-12.504 0.446,-0.238 0.961,-0.402 1.344,-0.719 4.606,-3.804 10.137,-5.343 15.688,-6.855 1.91,-0.512 3.804,-1.082 5.738,-1.445 2.691,-0.508 5.402,-1.102 8.125,-1.196 7.035,-0.258 14.074,-0.281 21.117,-0.351 4.93,-0.055 9.703,1.074 14.5,2.097 1.504,0.325 3.008,0.676 4.535,0.864 6.11,0.726 11.668,3.425 17.539,4.984 4.235,1.121 7.926,3.273 11.442,5.844 1.527,1.117 3.347,1.836 4.812,3.035 3.813,3.102 9.848,6.328 13.485,9.652 3.433,3.133 6.742,6.426 9.98,9.785 1.496,1.547 0.52,3.282 1.731,5.075 1.992,2.953 4.019,5.898 5.722,9.035 2.199,4.055 3.86,8.387 5.082,12.871 0.731,2.699 1.567,5.379 2.11,8.113 0.949,4.699 1.578,9.469 2.566,14.164 1.508,7.153 1.848,14.407 1.977,21.676 0.074,3.742 -0.282,7.516 -0.598,11.258 -0.285,3.394 -0.723,6.777 -1.195,10.148 -0.282,1.985 -0.754,3.934 -1.168,5.895 -0.586,2.734 -1.254,5.449 -1.77,8.195 -0.484,2.617 -1.297,5.067 -2.84,7.242 -1.699,2.403 -3.406,4.813 -5.039,7.274 -0.707,1.062 -1.191,2.285 -1.867,3.375 -4.398,7.047 -9.781,13.215 -16.125,18.48 -3.063,2.539 -6.473,4.508 -10.199,5.953 -3.918,1.52 -7.731,3.332 -11.641,4.879 -3.668,1.449 -7.359,2.844 -11.109,4.02 -3.02,0.949 -6.11,1.828 -9.235,2.234 -5.07,0.664 -10.203,1.34 -15.293,1.227 -5.371,-0.125 -10.753,-0.981 -16.062,-1.895 -3.024,-0.512 -5.922,-1.742 -8.856,-2.715 -2.613,-0.871 -5.179,-1.863 -7.789,-2.722 -0.742,-0.246 -1.554,-0.246 -2.328,-0.36 -0.402,1.438 0.207,2.016 1.004,2.438 0.914,0.484 1.852,0.93 2.789,1.347 4.391,1.946 8.688,4.168 13.199,5.723 6.313,2.176 9.864,2.602 16.633,2.813 5.957,0.187 11.934,0.82 17.817,-0.582 2.246,-0.536 7.363,-1.829 9.476,-2.75 3.781,-1.649 8.059,-2.918 11.696,-4.864 2.898,-1.55 6.023,-2.507 8.957,-3.898 3.933,-1.863 7.261,-1.969 10.664,-4.918 4.297,-3.734 9.019,-6.961 13.464,-10.524 2.915,-2.332 5.407,-5.121 7.45,-8.3 0.703,-1.082 1.64,-2.008 2.355,-3.09 1.043,-1.578 1.942,-3.262 2.949,-4.863 1.286,-2.047 2.645,-4.043 3.926,-6.086 0.5,-0.801 1.086,-1.621 1.301,-2.516 1.504,-6.203 2.988,-12.406 4.352,-18.641 2.046,-9.425 2.976,-18.972 3.265,-28.629 0.219,-7.445 0.289,-14.859 -1.308,-22.167" /></g></g></svg>