<?xml version="1.0" encoding="UTF-8" standalone="no"?>
<svg
   xmlns:dc="http://purl.org/dc/elements/1.1/"
   xmlns:cc="http://creativecommons.org/ns#"
   xmlns:rdf="http://www.w3.org/1999/02/22-rdf-syntax-ns#"
   xmlns:svg="http://www.w3.org/2000/svg"
   xmlns="http://www.w3.org/2000/svg"
   viewBox="0 0 100 100"
   height="100"
   width="100"
   xml:space="preserve"
   version="1.1"
   id="svg2"><metadata
     id="metadata8"><rdf:RDF><cc:Work
         rdf:about=""><dc:format>image/svg+xml</dc:format><dc:type
           rdf:resource="http://purl.org/dc/dcmitype/StillImage" /></cc:Work></rdf:RDF></metadata><defs
     id="defs6" /><g
     transform="matrix(1.25,0,0,-1.25,0,100)"
     id="g10"><g
       transform="scale(0.1,0.1)"
       id="g12"><path
         id="path14"
         style="fill:#171717;fill-opacity:1;fill-rule:nonzero;stroke:none"
         d="m 406.465,287.395 c 0.558,0.109 1.137,0.191 1.664,0.39 2.48,0.945 4.988,1.836 7.418,2.906 7.137,3.125 14.25,6.329 21.367,9.5 4.34,1.938 8.719,3.778 12.996,5.84 3.192,1.535 5.844,3.864 6.563,7.5 0.843,4.297 1.707,8.672 1.785,13.032 0.137,7.64 -0.313,15.296 -0.52,22.945 -0.07,0.004 -0.14,0.008 -0.215,0.008 0.215,5.55 0.422,11.093 0.661,16.636 0.113,2.696 0.062,5.348 -0.871,7.934 -1.215,3.387 -2.649,4.625 -6.313,4.625 -1.855,0 -3.797,-0.328 -5.551,-0.938 -5.738,-2.027 -11.406,-4.253 -17.109,-6.375 -1.242,-0.46 -2.617,-1.316 -3.777,-1.105 -3.872,0.699 -7.098,-1.043 -10.293,-2.531 -4.477,-2.086 -8.684,-4.735 -13.11,-6.934 -2.09,-1.043 -3.258,-2.609 -3.738,-4.738 -0.383,-1.66 -0.613,-3.387 -0.652,-5.09 -0.133,-5.371 0.371,-10.703 1.367,-15.984 0.961,-5.11 1.074,-10.25 0.375,-15.422 -0.492,-3.598 -1.032,-7.223 -1.047,-10.84 -0.02,-5.16 0.23,-10.336 0.719,-15.477 0.48,-5.07 3.195,-6.832 8.281,-5.882 m -3.27,5.925 c -0.246,5.914 -0.582,11.825 -0.648,17.743 -0.031,2.667 0.426,5.351 0.766,8.015 0.808,6.32 0.57,12.578 -0.434,18.879 -0.695,4.336 -0.723,8.773 -1.121,13.16 -0.293,3.281 1.066,5.469 3.949,6.949 2.883,1.477 5.633,3.215 8.496,4.715 2.027,1.071 4.188,1.606 6.531,1.84 2.61,0.266 5.215,1.055 7.711,1.942 5.563,1.972 11.055,4.148 16.575,6.242 0.714,0.269 1.418,0.578 2.136,0.812 4.711,1.512 6.188,0.477 6.504,-4.621 0.086,-1.332 -0.035,-2.68 -0.043,-4.023 -0.051,-8.43 -0.156,-16.864 -0.121,-25.289 0.024,-4.211 0.57,-8.434 0.395,-12.633 -0.161,-3.797 -0.895,-7.586 -1.567,-11.348 -0.426,-2.406 -2.023,-4.125 -4.156,-5.203 -3.242,-1.625 -6.414,-3.496 -9.824,-4.59 -7.465,-2.414 -14.367,-6.082 -21.543,-9.137 -2.981,-1.269 -5.949,-2.57 -8.953,-3.773 -0.871,-0.348 -1.828,-0.52 -2.758,-0.609 -0.524,-0.047 -1.082,0.246 -1.531,0.363 -0.172,0.262 -0.36,0.406 -0.364,0.566" /><path
         id="path16"
         style="fill:#171717;fill-opacity:1;fill-rule:nonzero;stroke:none"
         d="m 331.156,397.809 c 0.012,-2.086 0.332,-4.184 0.625,-6.262 0.403,-2.871 2.035,-4.934 4.578,-6.192 2.903,-1.433 5.875,-2.71 8.809,-4.082 6.027,-2.828 12.152,-5.468 18.043,-8.57 4.785,-2.523 9.937,-3.797 15.008,-5.379 2.539,-0.797 6.16,0.684 6.883,3.653 0.445,1.843 1.226,3.652 1.363,5.507 0.285,3.821 0.422,7.668 0.289,11.489 -0.414,12.054 -0.91,24.109 -1.527,36.156 -0.168,3.234 -0.735,6.473 -1.375,9.664 -0.707,3.527 -2.676,6.195 -5.868,8.07 -5.293,3.102 -10.781,5.75 -16.656,7.41 -3.754,1.059 -7.066,2.766 -10.172,5.024 -2.468,1.793 -4.972,3.535 -7.418,5.363 -2.57,1.93 -5.312,2.926 -8.804,1.883 -0.637,-0.879 -1.348,-2.012 -2.196,-3.004 -2.261,-2.644 -2.949,-5.644 -2.633,-9.094 0.247,-2.656 -0.007,-5.359 0.02,-8.035 0.031,-3.066 -0.109,-6.156 0.25,-9.183 0.848,-7.243 1.438,-14.473 1.039,-21.774 -0.23,-4.207 -0.285,-8.43 -0.258,-12.644 m 3.75,56.609 c 0.508,1.59 2.004,2.52 3.594,1.926 1.754,-0.649 3.469,-1.535 5.043,-2.571 2.859,-1.875 5.672,-3.847 8.371,-5.953 1.852,-1.449 3.914,-2.23 6.09,-2.98 4.492,-1.547 8.926,-3.262 13.324,-5.063 1.742,-0.711 3.336,-1.816 4.965,-2.793 1.723,-1.031 2.879,-2.511 3.145,-4.546 0.375,-2.84 0.851,-5.68 0.988,-8.536 0.515,-10.89 0.996,-21.785 1.308,-32.683 0.137,-4.969 -0.015,-9.949 -0.261,-14.926 -0.137,-2.688 -1.766,-3.801 -4.282,-3.027 -3.804,1.179 -7.746,2.195 -11.253,4.011 -7.102,3.684 -14.235,7.25 -21.668,10.192 -0.707,0.277 -1.356,0.761 -2.082,0.926 -5.676,1.293 -6.766,5.421 -6.497,10.453 0.153,2.863 0.235,5.738 0.344,8.609 0.266,8.629 -0.363,17.199 -1.094,25.789 -0.539,6.277 -0.359,12.621 -0.449,18.938 -0.012,0.742 0.184,1.515 0.414,2.234" /><path
         id="path18"
         style="fill:#171717;fill-opacity:1;fill-rule:nonzero;stroke:none"
         d="m 463.488,290.055 c -0.601,4.523 -3.582,6.453 -8.16,5.406 -2.586,-0.586 -5.125,-1.43 -7.617,-2.34 -3.938,-1.437 -7.75,-3.238 -11.734,-4.5 -3.403,-1.062 -6.809,-2.117 -10.551,-2.031 -2.551,0.055 -5.262,-0.906 -7.66,-1.965 -3.293,-1.453 -6.336,-3.48 -9.547,-5.152 -3.211,-1.676 -5.508,-4.086 -6.309,-7.7 -0.613,-2.789 -1.367,-5.593 -1.512,-8.421 -0.199,-4.207 0.055,-8.43 0.172,-12.641 0.235,-8.422 0.516,-16.844 0.782,-25.262 -0.082,-0.004 -0.161,-0.011 -0.243,-0.019 -0.148,-3.832 -0.546,-7.676 -0.375,-11.492 0.133,-3.02 0.77,-6.059 1.543,-8.997 0.645,-2.445 2.516,-3.855 5.137,-3.722 1.879,0.097 3.793,0.289 5.602,0.785 4.808,1.301 9.175,3.676 13.586,5.945 4.406,2.274 8.785,4.68 13.41,6.383 6.683,2.465 12.636,6.238 18.82,9.606 2.324,1.269 3.754,3.296 4.074,5.917 0.574,4.758 1.141,9.524 1.418,14.301 0.164,2.856 -0.371,5.739 -0.336,8.61 0.098,8.422 0.442,16.847 0.438,25.269 0,4.012 -0.403,8.039 -0.938,12.02 m -3.285,-43.399 c 0,-5.761 -0.617,-11.449 -2.18,-17.441 -5.878,-4.059 -12.371,-7.555 -19.238,-10.418 -5.258,-2.192 -10.387,-4.692 -15.594,-7.024 -3.293,-1.476 -6.589,-2.968 -9.933,-4.324 -1.922,-0.777 -3.953,-1.242 -6.141,-0.816 -1.64,2.41 -1.765,5.062 -1.711,7.734 0.11,5.363 0.11,10.731 0.453,16.078 0.555,8.641 -0.558,17.211 -0.734,25.817 -0.086,4.402 -0.34,8.754 0.875,13.109 0.785,2.817 2.285,4.777 4.676,6.188 2.629,1.558 5.238,3.132 7.918,4.574 0.969,0.523 2.129,0.972 3.195,0.965 4.473,-0.055 8.613,1.418 12.75,2.769 5.227,1.711 10.359,3.731 15.566,5.504 1.973,0.668 4.032,1.133 6.079,1.5 1.796,0.317 3.015,-0.586 3.207,-2.383 0.382,-3.597 0.816,-7.222 0.851,-10.843 0.086,-10.325 -0.027,-20.657 -0.039,-30.989" /><path
         id="path20"
         style="fill:#171717;fill-opacity:1;fill-rule:nonzero;stroke:none"
         d="m 472.828,397.219 c 2.199,0.562 4.289,1.57 6.363,2.519 4.664,2.149 9.204,4.602 13.95,6.539 7.047,2.871 14.199,5.493 21.367,8.043 5.691,2.024 8.523,6.133 9.18,11.961 0.382,3.418 0.664,6.86 0.898,10.297 0.234,3.438 0.625,6.895 0.484,10.328 -0.261,6.696 -0.703,13.391 -1.347,20.059 -0.535,5.515 -1.328,11.023 -2.27,16.488 -0.918,5.32 -3.148,6.887 -8.41,5.813 -3.145,-0.645 -6.191,-1.832 -9.219,-2.953 -3.386,-1.254 -6.66,-2.825 -10.058,-4.055 -8.594,-3.106 -17.317,-5.914 -24.426,-12.067 -0.551,-0.484 -1.348,-0.679 -2.02,-1.039 -2.73,-1.468 -4.234,-3.761 -4.449,-6.879 -0.148,-2.105 -0.266,-4.21 -0.406,-6.312 -0.328,-4.965 -0.863,-9.934 -0.945,-14.902 -0.094,-5.547 0.218,-11.102 0.355,-16.649 -0.098,0 -0.195,0 -0.293,-0.004 -0.102,-2.679 -0.184,-5.359 -0.316,-8.043 -0.211,-4.23 -0.051,-8.437 0.898,-12.578 1.262,-5.504 5.188,-7.98 10.664,-6.566 m -6.48,54.211 c 0.136,-0.004 0.277,-0.012 0.414,-0.016 0.117,3.059 0.285,6.117 0.347,9.18 0.051,2.508 1.028,4.254 3.278,5.551 7.426,4.293 14.941,8.339 23.097,11.085 3.782,1.274 7.414,2.973 11.172,4.305 3.028,1.082 6.11,2.035 9.231,2.793 1.527,0.367 2.613,-0.457 3.043,-1.945 0.586,-2.012 1.273,-4.055 1.441,-6.125 0.856,-10.473 1.922,-20.945 2.168,-31.438 0.156,-6.461 -0.887,-12.965 -1.668,-19.422 -0.359,-2.972 -1.98,-5.277 -5.121,-6.242 -1.992,-0.609 -3.863,-1.59 -5.809,-2.363 -3.003,-1.191 -5.961,-2.555 -9.05,-3.469 -5.305,-1.562 -10.399,-3.59 -15.344,-6.078 -3.559,-1.793 -7.227,-3.441 -11,-4.668 -3.348,-1.094 -5.145,0.141 -5.711,3.594 -0.527,3.191 -0.887,6.465 -0.856,9.695 0.094,8.797 0.731,17.586 0.059,26.399 -0.23,3.031 0.184,6.105 0.309,9.164" /><path
         id="path22"
         style="fill:#171717;fill-opacity:1;fill-rule:nonzero;stroke:none"
         d="m 342.363,302.738 c 4.024,-1.707 7.864,-3.867 11.914,-5.488 4.086,-1.645 7.965,-3.582 11.684,-5.957 3.848,-2.465 7.777,-4.848 11.852,-6.902 3.878,-1.953 6.82,-0.739 8.05,3.406 2.121,7.133 4.899,14.191 4.098,19.859 -0.395,7.981 -0.465,13.938 -1.043,19.84 -0.742,7.613 -1.855,15.192 -2.871,22.781 -0.469,3.5 -2.469,5.75 -5.578,7.442 -11.231,6.094 -22.629,11.808 -34.254,17.097 -2.246,1.024 -4.531,1.985 -6.848,2.844 -2.863,1.074 -5.918,-0.48 -6.812,-3.43 -0.282,-0.906 -0.403,-1.886 -0.403,-2.835 0.012,-4.204 -0.257,-8.457 0.227,-12.622 1.652,-14.293 2.57,-28.613 2.445,-43.003 -0.008,-0.579 -0.062,-1.157 0.016,-1.723 0.687,-4.992 2.496,-9.164 7.523,-11.309 m -5.527,66.028 c -0.055,0.922 0.23,1.855 0.387,2.972 3.14,0.418 5.765,-0.976 8.211,-2.062 11.136,-4.949 21.984,-10.528 32.804,-16.153 2.02,-1.054 3.039,-2.585 3.481,-4.886 2.719,-14.383 3.722,-28.867 2.941,-43.489 -0.297,-5.382 -1.828,-10.464 -3.816,-16.152 -1.875,0.692 -3.188,0.969 -4.285,1.617 -3.442,2.035 -6.829,4.176 -10.188,6.344 -4.031,2.606 -8.433,4.391 -12.836,6.219 -3.332,1.383 -6.555,3.039 -9.805,4.617 -2.207,1.074 -3.609,2.754 -3.738,5.348 -0.058,1.144 -0.359,2.281 -0.379,3.418 -0.16,7.093 -0.136,14.187 -0.441,21.269 -0.231,5.356 -0.887,10.688 -1.305,16.035 -0.387,4.961 -0.734,9.934 -1.031,14.903" /><path
         id="path24"
         style="fill:#171717;fill-opacity:1;fill-rule:nonzero;stroke:none"
         d="m 392.996,384.711 c 0.227,-3.242 0.824,-6.453 1.262,-9.68 0.398,-2.949 2.105,-4.691 4.82,-5.82 2.555,-1.066 4.871,-0.539 7.176,0.441 5.961,2.516 11.894,5.09 17.824,7.68 8.352,3.66 16.285,8.285 24.973,11.203 0.359,0.117 0.707,0.274 1.066,0.41 4.238,1.641 6.192,4.821 6.278,9.313 0.046,2.488 0.187,4.969 0.285,7.453 -0.137,0.008 -0.274,0.012 -0.407,0.016 0.106,2.675 0.372,5.363 0.29,8.031 -0.333,10.14 -0.801,20.269 -1.157,30.406 -0.109,3.055 0.059,6.121 -0.062,9.172 -0.067,1.699 -0.293,3.441 -0.766,5.074 -0.699,2.43 -2.508,3.68 -5,4.078 -2.43,0.383 -4.476,-0.621 -6.551,-1.562 -10.386,-4.742 -20.785,-9.395 -31.797,-12.586 -4.871,-1.414 -9.742,-3.133 -13.71,-6.735 -3.153,-2.863 -5.09,-6.308 -5.321,-10.433 -0.351,-6.488 -0.273,-13.004 -0.34,-19.508 -0.027,-2.488 0,-4.976 0.114,-7.469 0.293,-6.5 0.57,-13 1.023,-19.484 m 3.879,44.437 c 0.426,6.586 2.242,9.598 8.582,11.961 4.629,1.727 9.402,3.071 13.992,4.875 6.723,2.649 13.356,5.528 19.996,8.368 3.118,1.336 6.164,2.859 9.723,3.492 1.91,-2.52 1.898,-4.801 1.969,-7.117 0.367,-11.86 0.855,-23.715 1.183,-35.575 0.141,-5.168 -0.039,-10.336 0.012,-15.5 0.031,-3.332 -1.535,-5.461 -4.578,-6.5 -8.863,-3.011 -16.977,-7.73 -25.574,-11.343 -5.434,-2.282 -10.93,-4.426 -16.407,-6.621 -0.703,-0.282 -1.421,-0.567 -2.164,-0.723 -2.996,-0.629 -4.757,0.562 -5.207,3.656 -0.437,3.031 -0.882,6.07 -1.039,9.125 -0.332,6.313 -0.519,12.625 -0.679,18.945 -0.2,7.653 -0.301,15.297 0.191,22.957" /><path
         id="path26"
         style="fill:#171717;fill-opacity:1;fill-rule:nonzero;stroke:none"
         d="m 588.93,476.395 c -0.543,7.64 -1.16,15.277 -1.793,22.914 -0.403,4.773 -0.739,9.566 -1.395,14.304 -0.558,3.996 -1.054,5.133 -6.09,5.059 -2.941,-0.047 -6.023,-1.016 -8.781,-2.199 -7.699,-3.289 -15.269,-6.891 -22.871,-10.414 -1.383,-0.633 -2.598,-1.829 -4.023,-2.141 -4.739,-1.047 -7.754,-4.754 -11.559,-7.223 -0.754,-0.496 -1.273,-1.386 -1.852,-2.136 -2.937,-3.813 -2.843,-8.293 -2.308,-12.664 1.074,-8.793 1.133,-17.586 1.051,-26.422 -0.192,-4.789 -0.442,-9.571 -0.543,-14.364 -0.082,-3.652 0.183,-7.293 1.562,-10.73 1.172,-2.926 2.692,-3.793 5.789,-3.266 4.352,0.739 8.461,2.211 12.363,4.305 7.391,3.98 15.004,7.422 23.129,9.668 3.102,0.852 6.106,2.129 9.102,3.336 4.57,1.863 7.16,5.141 8.125,10.203 1.394,7.305 0.617,14.516 0.094,21.77 m -4.961,-22.754 c -0.356,-2.133 -1.879,-3.325 -3.617,-4.133 -2.239,-1.039 -4.551,-1.965 -6.911,-2.656 -9.144,-2.692 -17.925,-6.274 -26.398,-10.664 -3.531,-1.825 -7.141,-3.622 -11.609,-3.696 -0.422,0.899 -1.176,1.848 -1.286,2.856 -0.308,2.847 -0.457,5.722 -0.472,8.593 -0.02,5.356 -0.004,10.719 0.187,16.075 0.285,8.043 0.067,16.047 -0.847,24.058 -0.789,6.953 2.941,12.078 9.605,14.235 2.152,0.695 4.149,1.863 6.199,2.847 4.282,2.055 8.504,4.239 12.84,6.184 4.504,2.023 9.106,3.84 13.672,5.726 1.781,0.731 3.59,1.301 6.207,-0.074 0.555,-5.535 1.469,-11.019 1.586,-16.527 0.223,-10.336 1.172,-20.606 2.156,-30.883 0.387,-4.074 -0.664,-7.984 -1.312,-11.941" /><path
         id="path28"
         style="fill:#171717;fill-opacity:1;fill-rule:nonzero;stroke:none"
         d="m 393.023,246.082 c -0.019,6.715 -0.761,13.356 -2.054,19.945 -0.856,4.344 -2.649,7.879 -7.067,9.649 -2.101,0.84 -3.992,2.222 -6.066,3.164 -1.887,0.859 -3.84,1.762 -5.856,2.09 -3.292,0.539 -6.257,1.746 -8.812,3.785 -4.848,3.883 -10.625,5.875 -16.164,8.363 -2.27,1.024 -4.699,1.543 -7.434,0.274 -0.406,-0.797 -1.047,-1.762 -1.406,-2.817 -1.746,-5.168 -2.047,-10.5 -1.508,-15.883 0.735,-7.226 1.629,-14.441 2.242,-21.687 0.629,-7.426 1.247,-14.863 1.387,-22.309 0.098,-4.89 2.352,-7.871 6.403,-9.922 1.019,-0.519 2.015,-1.093 3.074,-1.511 6.562,-2.59 12.758,-5.899 18.754,-9.625 4.035,-2.512 8.16,-4.883 12.3,-7.231 1.473,-0.828 3.059,-1.551 4.676,-2.043 3.668,-1.125 6.934,0.735 7.793,4.516 0.418,1.828 0.52,3.789 0.465,5.676 -0.129,4.777 -0.551,9.547 -0.637,14.324 -0.129,7.074 -0.066,14.164 -0.09,21.242 M 383,206.617 c -3.824,2.11 -7.648,4.254 -11.352,6.574 -6.3,3.95 -12.812,7.469 -19.621,10.446 -1.043,0.461 -2.062,0.98 -3.105,1.433 -2.692,1.2 -3.969,3.102 -4.067,6.227 -0.21,6.683 -0.71,13.355 -1.253,20.023 -0.649,8 -1.422,15.996 -2.223,23.981 -0.461,4.621 -0.352,9.121 1.805,13.515 0.855,-0.125 1.648,-0.082 2.308,-0.359 5.426,-2.289 10.828,-4.539 15.66,-8.098 2.379,-1.742 5.344,-2.937 8.227,-3.671 3.164,-0.813 6.215,-1.594 8.91,-3.551 1.059,-0.762 2.371,-1.203 3.606,-1.684 2.562,-0.992 3.902,-2.961 4.418,-5.551 1.23,-6.195 2.203,-12.429 2.164,-18.773 -0.024,-4.59 -0.067,-9.184 0,-13.774 0.109,-7.265 0.3,-14.523 0.457,-21.785 0.007,-0.382 0.039,-0.769 0.039,-1.152 -0.032,-5.453 -1.364,-6.34 -5.973,-3.801" /><path
         id="path30"
         style="fill:#171717;fill-opacity:1;fill-rule:nonzero;stroke:none"
         d="m 318.844,469.219 c -2.301,1.332 -4.688,2.574 -7.172,3.504 -3.602,1.34 -6.828,3.273 -10.078,5.293 -4.688,2.91 -9.461,5.73 -14.414,8.136 -7.227,3.504 -15.192,-1.164 -15.922,-9.074 -0.195,-2.098 -0.262,-4.211 -0.27,-6.312 -0.023,-7.09 -0.093,-14.18 0.047,-21.266 0.172,-8.605 0.524,-17.207 0.824,-25.809 0.094,-2.64 1.141,-4.875 3.34,-6.355 2.367,-1.578 4.789,-3.113 7.313,-4.418 9.968,-5.148 20.472,-9.27 29.773,-15.707 0.473,-0.324 0.977,-0.598 1.496,-0.844 2.887,-1.312 5.125,-0.851 7.032,1.75 0.996,1.363 1.839,2.946 2.289,4.563 0.664,2.379 1.136,4.863 1.296,7.328 0.368,5.734 0.5,11.484 0.614,14.441 -0.395,11.989 -0.653,21.176 -1.016,30.36 -0.109,2.668 -0.461,5.336 -0.812,7.98 -0.371,2.848 -1.922,5.035 -4.34,6.43 m 0.957,-56.067 c -0.149,-3.375 -1.145,-6.734 -1.891,-10.07 -0.148,-0.644 -0.898,-1.152 -1.527,-1.918 -0.895,0.223 -1.32,0.223 -1.613,0.422 -10.493,6.988 -22.055,11.891 -33.301,17.406 -3.457,1.696 -5.106,4.141 -5.09,8.098 0.012,4.578 -0.461,9.152 -0.723,13.73 -0.054,0.953 -0.14,1.91 -0.14,2.868 0.004,9.941 0.019,19.89 0.05,29.832 0.004,1.144 0.075,2.296 0.207,3.437 0.524,4.473 4.813,6.785 8.309,5.023 3.731,-1.875 7.641,-3.468 11.156,-5.687 5.95,-3.766 11.782,-7.688 18.477,-10.039 3.39,-1.188 5.223,-3.508 5.308,-7.281 0.204,-8.59 0.629,-17.18 0.809,-25.77 0.137,-6.683 0.254,-13.379 -0.031,-20.051" /><path
         id="path32"
         style="fill:#171717;fill-opacity:1;fill-rule:nonzero;stroke:none"
         d="m 287.402,330.563 c 8.868,-3.485 17.055,-8.399 24.653,-14.235 0.898,-0.691 1.804,-1.43 2.82,-1.91 2.988,-1.395 5.703,-0.68 7.41,2.145 0.969,1.605 1.637,3.441 2.164,5.257 1.719,5.926 2.235,12.008 2.239,18.168 0,4.207 0.292,8.41 0.46,12.617 -0.058,0 -0.121,0.008 -0.179,0.008 0.043,1.149 0.097,2.289 0.133,3.442 0.207,6.304 0.636,12.613 0.539,18.918 -0.082,5.457 -1.778,9.968 -7.852,11.867 -4.496,1.398 -8.855,3.441 -13.012,5.687 -4.836,2.614 -9.382,5.774 -14.054,8.688 -1.778,1.109 -3.547,2.226 -5.34,3.305 -4.746,2.863 -10.528,0.355 -11.246,-5.067 -0.348,-2.617 -0.082,-5.328 -0.004,-7.992 0.047,-1.512 0.43,-3.031 0.398,-4.539 -0.254,-11.859 -0.597,-23.719 -0.832,-35.574 -0.043,-2.274 0.028,-4.618 0.496,-6.832 1.368,-6.512 4.575,-11.348 11.207,-13.953 m -6.718,20.742 c 0.074,11.855 0.195,23.703 0.214,35.558 0.008,2.477 -0.414,4.957 -0.589,7.438 -0.161,2.281 -0.411,4.586 0.976,7.027 0.781,-0.164 1.723,-0.168 2.473,-0.547 2.027,-1.035 4.019,-2.156 5.945,-3.371 4.512,-2.832 8.918,-5.84 13.485,-8.582 2.593,-1.558 5.382,-2.797 8.14,-4.062 3.281,-1.504 6.617,-2.883 9.973,-4.336 1.09,-2.114 1.637,-4.282 1.594,-6.625 -0.047,-2.489 0.05,-4.981 -0.047,-7.461 -0.391,-10.328 -0.887,-20.653 -1.227,-30.985 -0.144,-4.453 -1.273,-8.687 -2.484,-12.91 -0.297,-1.027 -1.063,-1.918 -1.899,-3.359 -1.574,0.98 -2.562,1.531 -3.476,2.18 -7.614,5.425 -15.563,10.269 -24.133,14.011 -0.348,0.157 -0.672,0.383 -1.027,0.504 -5.211,1.762 -7.188,5.879 -7.797,10.942 -0.184,1.511 -0.129,3.05 -0.121,4.578" /><path
         id="path34"
         style="fill:#171717;fill-opacity:1;fill-rule:nonzero;stroke:none"
         d="m 333.824,524.313 c -1.148,0 -2.281,-0.301 -3.461,-0.903 -3.097,-1.597 -6.429,-3.254 -9.843,-4.582 -4.153,-1.609 -8.391,-3.191 -12.497,-4.719 -4.468,-1.66 -9.089,-3.379 -13.605,-5.152 -4.457,-1.754 -8.426,-4.316 -11.797,-7.637 -0.801,-0.789 -1.191,-1.578 -1.164,-2.343 0.031,-0.739 0.453,-1.454 1.258,-2.129 1.683,-1.414 3.937,-3.203 6.465,-4.438 2.554,-1.242 5.246,-2.324 7.847,-3.367 1.407,-0.566 2.805,-1.129 4.196,-1.715 6.007,-2.551 12.004,-5.117 18.007,-7.687 l 4.016,-1.719 c 2.602,-1.117 4.762,-1.637 6.789,-1.637 2.317,0 4.41,0.699 6.406,2.129 0.641,0.465 1.399,0.746 2.133,1.027 0.176,0.067 0.348,0.129 0.516,0.2 2.566,1.015 5.133,2.019 7.699,3.027 5.473,2.148 11.141,4.367 16.672,6.633 3.527,1.445 7.016,3.195 10.262,4.875 1.961,1.012 3.582,2.621 4.683,4.64 0.239,0.426 0.41,0.875 0.633,1.446 0.094,0.238 0.195,0.492 0.313,0.765 -0.188,0.278 -0.368,0.567 -0.547,0.864 -0.446,0.726 -0.903,1.48 -1.532,1.929 l -0.343,0.246 c -5.633,4.051 -11.461,8.235 -18.172,10.735 -7.254,2.707 -14.363,5.594 -21.121,8.582 -1.434,0.629 -2.641,0.93 -3.813,0.93 m -3.566,-42.926 c -1.574,0 -3.27,0.394 -5.172,1.203 -1.301,0.551 -2.594,1.129 -3.883,1.703 -1.461,0.648 -2.969,1.32 -4.465,1.949 -7.152,3.012 -15.621,6.559 -24.207,10.086 l -0.172,0.07 c -1.55,0.637 -3.148,1.29 -4.328,3.489 l -0.109,0.203 0.164,0.164 c 2.539,2.551 5.531,3.812 8.629,4.976 2.305,0.868 4.613,1.731 6.922,2.59 5.605,2.09 11.402,4.25 17.054,6.485 2.45,0.965 4.84,2.222 7.161,3.437 0.675,0.356 1.347,0.711 2.027,1.059 2.012,1.039 3.902,1.051 6.238,0.015 6.301,-2.781 12.77,-5.476 19.024,-8.086 l 1.929,-0.804 c 5.567,-2.328 10.731,-5.293 15.348,-8.832 0.23,-0.172 0.332,-0.449 0.457,-0.805 0.063,-0.176 0.137,-0.379 0.238,-0.613 l 0.102,-0.231 -0.199,-0.148 c -0.289,-0.219 -0.575,-0.461 -0.868,-0.703 -0.683,-0.571 -1.382,-1.156 -2.195,-1.559 -2.242,-1.117 -4.64,-2.176 -7.332,-3.222 -3.742,-1.469 -7.504,-2.907 -11.258,-4.348 -3.515,-1.344 -7.027,-2.692 -10.531,-4.063 -1.922,-0.75 -3.902,-1.523 -5.644,-2.589 -1.579,-0.965 -3.188,-1.426 -4.93,-1.426" /><path
         id="path36"
         style="fill:#171717;fill-opacity:1;fill-rule:nonzero;stroke:none"
         d="m 330.582,266.91 c 0.066,9.613 -1.211,19.082 -2.312,28.586 -0.516,4.438 -2.59,7.508 -6.598,9.25 -3.836,1.668 -7.746,3.168 -11.567,4.867 -2.07,0.914 -4.16,1.899 -6,3.2 -3.277,2.332 -6.66,4.382 -10.414,5.851 -2.113,0.828 -4.07,2.051 -6.089,3.109 -0.84,0.434 -1.622,1.024 -2.497,1.36 -1.992,0.762 -3.964,0.035 -4.75,-1.926 -0.632,-1.578 -1.105,-3.281 -1.32,-4.973 -0.746,-5.894 -0.851,-11.812 -0.25,-17.75 0.774,-7.617 1.633,-15.211 1.403,-22.91 -0.168,-5.531 -0.094,-11.094 1.035,-16.586 0.84,-4.062 3.015,-6.922 6.797,-8.574 8.39,-3.66 16.125,-8.547 24.035,-13.105 3.781,-2.176 7.644,-4.207 11.664,-6.414 5.371,2.199 7.707,5.964 8.113,10.832 0.301,3.601 0.027,7.257 -0.184,10.882 -0.277,4.774 -1.097,9.539 -1.066,14.301 m -6.039,-29.305 c -0.266,-0.25 -0.645,-0.375 -1.238,-0.714 -3.266,0.57 -5.953,2.824 -8.91,4.464 -7.993,4.434 -15.868,9.079 -23.93,13.364 -2.828,1.5 -4.469,3.418 -4.774,6.535 -0.3,3.051 -0.839,6.105 -0.793,9.152 0.137,8.832 -0.183,17.614 -1.261,26.391 -0.797,6.453 -0.758,12.953 0.172,19.742 1.191,-0.101 2.203,0.07 2.953,-0.297 5.457,-2.664 11.14,-4.773 16.246,-8.289 3.871,-2.664 8.504,-4.25 12.898,-6.051 7.379,-3.039 7.246,-3.129 8.532,-11.121 1.585,-9.894 1.214,-19.875 1.98,-29.793 0.344,-4.398 0.828,-8.793 0.926,-13.195 0.082,-3.605 0.207,-7.383 -2.801,-10.188" /><path
         id="path38"
         style="fill:#171717;fill-opacity:1;fill-rule:nonzero;stroke:none"
         d="m 464.488,524.625 c -0.691,0 -1.515,-0.098 -2.203,-0.297 -1.535,-0.453 -3.004,-0.644 -4.406,-1.211 -1.297,-0.531 -2.59,-1.172 -3.832,-1.793 -1.059,-0.527 -2.152,-1.07 -3.254,-1.543 -1.645,-0.711 -3.34,-1.379 -4.984,-2.027 -2.977,-1.176 -6.055,-2.387 -8.918,-3.891 -1.719,-0.898 -3.426,-1.816 -5.133,-2.734 -4.797,-2.574 -9.762,-5.234 -14.817,-7.512 -2.437,-1.097 -3.054,-2.328 -2.644,-5.262 0.277,-1.937 1.453,-3.125 2.57,-4.031 2.504,-2.023 5.492,-3.207 8.391,-4.347 0.515,-0.204 1.035,-0.411 1.555,-0.622 2.515,-1.023 5.085,-2.042 7.57,-3.023 5.539,-2.199 11.265,-4.469 16.797,-6.934 2.343,-1.046 4.437,-1.55 6.398,-1.55 1.606,0 3.145,0.328 4.723,1.004 0.304,0.132 0.617,0.246 0.922,0.355 0.218,0.078 0.437,0.156 0.656,0.242 l 9.266,3.621 c 6.824,2.668 13.656,5.336 20.476,8.004 1.133,0.438 2.266,0.871 3.402,1.301 1.801,0.688 3.668,1.398 5.489,2.137 2.222,0.902 4.246,2.41 6.172,4.605 0.761,0.871 0.89,1.914 0.371,2.946 -2.082,4.113 -4.594,6.191 -8.153,6.742 -1.871,0.297 -3.832,0.656 -5.429,1.547 -2.407,1.336 -4.989,2.414 -7.489,3.457 -3.425,1.433 -6.964,2.914 -10.117,5.082 l -0.351,0.242 c -1.407,0.969 -2.86,1.965 -4.403,2.656 -2.035,0.902 -4.136,1.461 -6.187,2.223 -0.848,0.312 -1.594,0.613 -2.438,0.613 m -6.218,-41.773 c -1.961,0 -4.004,0.503 -6.434,1.586 -5.141,2.281 -10.434,4.464 -15.551,6.578 -2.543,1.043 -5.082,2.093 -7.613,3.16 -0.379,0.16 -0.762,0.312 -1.145,0.476 -2.543,1.047 -5.179,2.137 -8.234,4.125 l -0.227,0.145 0.215,0.156 c 0.629,0.461 1.149,0.867 1.606,1.227 0.84,0.648 1.496,1.164 2.211,1.539 l 1.785,0.941 c 7.375,3.863 14.996,7.86 23.012,10.758 2.886,1.039 5.707,2.437 8.437,3.785 0.898,0.449 1.813,0.899 2.719,1.336 3.199,1.539 6.496,1.504 9.855,-0.105 0.18,-0.086 0.36,-0.168 0.539,-0.254 0.657,-0.309 1.336,-0.629 1.973,-1.02 0.969,-0.609 1.937,-1.273 2.867,-1.922 1.953,-1.347 3.965,-2.734 6.133,-3.633 2.937,-1.21 6.344,-2.656 9.617,-4.429 1.762,-0.949 3.727,-1.61 5.625,-2.246 0.367,-0.117 0.727,-0.239 1.09,-0.364 0.496,-0.171 1.02,-0.32 1.527,-0.468 1.809,-0.516 3.68,-1.063 5.364,-2.66 l 0.132,-0.125 -0.128,-0.137 c -0.235,-0.246 -0.446,-0.5 -0.657,-0.746 -0.418,-0.512 -0.812,-0.992 -1.336,-1.219 -3.91,-1.719 -8.07,-3.453 -12.375,-5.164 -5.863,-2.336 -11.839,-4.676 -17.621,-6.945 l -5.789,-2.266 c -0.433,-0.172 -0.875,-0.328 -1.316,-0.484 -0.602,-0.207 -1.227,-0.426 -1.821,-0.684 -1.468,-0.633 -2.925,-0.941 -4.46,-0.941" /><path
         id="path40"
         style="fill:#171717;fill-opacity:1;fill-rule:nonzero;stroke:none"
         d="m 227.453,360.027 c 8.145,-3.675 16.031,-7.836 23.824,-12.199 2.645,-1.476 5.508,-2.613 8.379,-3.582 4.864,-1.641 7.559,-0.113 9.016,4.895 0.371,1.265 0.531,2.629 0.582,3.949 0.066,1.719 -0.063,3.445 -0.129,5.164 -0.32,8.789 -0.648,17.574 -0.973,26.363 0.125,0 0.25,0.012 0.375,0.02 0.129,1.523 0.184,3.062 0.411,4.57 0.851,5.75 0.359,11.445 -0.524,17.145 -0.359,2.371 -1.379,4.242 -3.027,5.992 -2.321,2.457 -5.321,3.609 -8.254,4.933 -3.285,1.489 -6.61,2.883 -9.867,4.422 -7.207,3.41 -14.364,6.922 -21.575,10.317 -3.519,1.656 -6.98,0.015 -7.972,-3.746 -1.375,-5.211 -1.938,-10.567 -1.735,-15.926 0.489,-12.61 1.125,-25.223 1.871,-37.817 0.391,-6.617 3.473,-11.734 9.598,-14.5 m -6.191,63.711 c 0.133,1.473 0.742,2.895 1.183,4.532 5.258,-2.555 10.168,-5.008 15.137,-7.348 6.188,-2.918 12.398,-5.793 18.641,-8.59 7.078,-3.18 7.355,-3.094 8.507,-11.918 0.293,-2.25 0.11,-4.601 -0.132,-6.883 -1.008,-9.547 -1.145,-19.086 -0.465,-28.672 0.312,-4.382 0.199,-8.812 0.012,-13.203 -0.11,-2.535 -1.657,-3.375 -3.922,-2.441 -2.285,0.945 -4.567,1.914 -6.758,3.043 -4.395,2.265 -8.699,4.695 -13.094,6.965 -3.547,1.836 -7.101,3.672 -10.758,5.257 -4.672,2.024 -7.125,5.211 -7.304,10.528 -0.422,12.238 -1.278,24.465 -1.731,36.703 -0.148,3.996 0.328,8.031 0.684,12.027" /><path
         id="path42"
         style="fill:#171717;fill-opacity:1;fill-rule:nonzero;stroke:none"
         d="m 526.074,317.629 c -0.945,6.051 -4.164,8.207 -10.058,6.91 -0.371,-0.078 -0.743,-0.187 -1.094,-0.332 -3.695,-1.519 -7.477,-2.867 -11.067,-4.609 -7.187,-3.5 -14.257,-7.246 -21.414,-10.832 -2.039,-1.02 -4.289,-1.649 -6.269,-2.758 -3.953,-2.238 -7.106,-5.149 -7.297,-10.192 -0.113,-3.046 -0.379,-6.093 -0.461,-9.14 -0.156,-5.555 -0.637,-11.149 -0.211,-16.66 0.461,-6.121 0.672,-12.227 0.828,-18.352 0.09,-3.609 0.422,-7.312 1.371,-10.769 1.661,-6.047 4.071,-5.625 8.485,-5.469 1.285,0.051 2.593,0.597 3.801,1.137 1.558,0.699 3.007,1.644 4.531,2.441 5.051,2.648 10.129,5.262 15.176,7.926 5.714,3.015 11.421,6.047 17.105,9.129 3.668,1.988 5.344,5.296 5.77,9.347 0.14,1.332 0.25,2.672 0.312,4.012 0.133,2.68 0.219,5.363 0.32,8.043 0.141,-0.008 0.282,-0.012 0.418,-0.02 0.133,3.442 0.375,6.883 0.383,10.325 0.02,7.668 -0.051,15.332 -0.156,22.996 -0.027,2.289 -0.117,4.605 -0.473,6.867 m -3.648,-27.277 c -0.012,-3.825 -0.274,-7.653 -0.426,-11.481 -0.066,0.008 -0.133,0.008 -0.203,0.012 -0.125,-3.258 -0.277,-6.512 -0.375,-9.774 -0.16,-4.992 -2.047,-8.613 -6.863,-10.89 -5.5,-2.598 -10.766,-5.692 -16.348,-8.172 -4.52,-2.016 -8.828,-4.504 -13.273,-6.695 -2.047,-1.008 -4.137,-1.969 -6.297,-2.668 -1.977,-0.641 -3.496,0.14 -3.961,2.152 -0.641,2.781 -1.313,5.66 -1.242,8.48 0.265,11.508 -1.508,22.973 -0.52,34.493 0.293,3.414 -0.355,6.836 0.461,10.296 0.68,2.875 1.879,4.922 4.695,5.93 9.375,3.363 17.711,8.871 26.649,13.141 3.425,1.637 7.015,2.941 10.558,4.32 0.867,0.34 1.86,0.414 2.801,0.484 1.938,0.145 2.988,-0.394 3.531,-2.175 0.489,-1.621 0.789,-3.352 0.836,-5.047 0.063,-2.485 -0.285,-4.985 -0.273,-7.469 0.027,-4.98 0.262,-9.957 0.25,-14.937" /><path
         id="path44"
         style="fill:#171717;fill-opacity:1;fill-rule:nonzero;stroke:none"
         d="m 273.895,292.039 c -0.04,4.406 0.187,8.813 0.21,13.211 0.04,7.094 -0.16,14.168 -1.722,21.141 -0.539,2.386 -1.695,4.16 -3.649,5.578 -5.879,4.285 -11.984,8.117 -19.086,10.051 -1.085,0.3 -2.109,0.855 -3.16,1.293 -6.472,2.726 -12.949,5.449 -19.531,8.218 -4.859,-2.129 -5.883,-6.019 -5.969,-10.136 -0.105,-4.973 0.203,-9.954 0.457,-14.918 0.18,-3.625 0.524,-7.243 0.864,-10.864 0.761,-8.183 1.351,-16.402 2.425,-24.554 0.754,-5.727 3.332,-10.293 9.125,-12.84 5.028,-2.203 9.809,-5.071 14.446,-8.039 5.191,-3.328 10.679,-5.895 16.578,-7.508 6.777,-1.859 8.82,-1.063 10.347,7.07 0.071,0.371 0.125,0.762 0.106,1.145 -0.27,4.57 -0.531,9.152 -0.844,13.726 -0.164,2.481 -0.574,4.953 -0.597,7.426 m -4.625,-24.633 c -4.93,-0.066 -8.997,2.106 -13.137,3.934 -1.559,0.683 -2.977,1.695 -4.473,2.531 -5.312,2.969 -10.488,6.227 -15.988,8.793 -4.551,2.125 -6.617,5.563 -7.137,10.211 -0.68,6.086 -1.316,12.188 -1.719,18.297 -0.593,8.973 -0.992,17.965 -1.39,26.953 -0.11,2.438 -0.289,4.949 1.242,7.488 1.293,-0.273 2.609,-0.367 3.777,-0.836 7.758,-3.14 15.41,-6.539 23.239,-9.488 4.722,-1.777 8.593,-4.84 12.777,-7.445 1.391,-0.871 1.887,-2.317 2.012,-3.922 0.355,-4.578 0.972,-9.145 1.054,-13.715 0.09,-5.348 -0.382,-10.699 -0.39,-16.047 -0.008,-3.051 0.519,-6.097 0.652,-9.152 0.211,-4.961 0.344,-9.922 0.387,-14.891 0.008,-0.871 -0.571,-1.746 -0.906,-2.711" /><path
         id="path46"
         style="fill:#171717;fill-opacity:1;fill-rule:nonzero;stroke:none"
         d="m 477.781,319.195 c 0.711,0.27 1.422,0.535 2.125,0.844 4.356,1.91 8.684,3.91 13.082,5.727 3.684,1.531 7.446,2.906 11.2,4.254 3.945,1.414 7.804,2.886 11.496,4.992 4.726,2.691 7.332,6.636 8.222,11.765 0.68,3.946 0.992,7.977 1.18,11.977 0.187,4.211 0.027,8.426 0.023,12.641 l 0.067,0 c 0.074,1.91 0.25,3.824 0.203,5.738 -0.18,7.469 -0.367,14.945 -0.672,22.414 -0.156,3.848 -1.945,5.457 -5.824,5.461 -1.129,0 -2.305,-0.11 -3.383,-0.434 -7.285,-2.187 -14.562,-4.347 -21.195,-8.324 -4.399,-2.641 -8.996,-4.93 -14.219,-5.66 -5.074,-0.715 -9.16,-3.652 -13.066,-6.731 -1.875,-1.472 -2.692,-3.711 -2.668,-6.121 0.027,-2.105 0.203,-4.207 0.386,-6.308 0.27,-3.055 0.801,-6.094 0.883,-9.149 0.27,-10.152 0.363,-20.308 0.57,-30.461 0.036,-2.105 -0.031,-4.281 0.489,-6.281 1.39,-5.25 4.976,-8.691 11.101,-6.344 m -8.914,59.047 c 0.047,0.735 0.231,1.653 0.707,2.137 2.821,2.851 5.727,5.941 10.039,5.918 3.395,-0.024 6.371,0.992 9.34,2.269 2.094,0.907 4.121,2 6.102,3.145 5.984,3.473 12.527,5.562 19.011,7.773 1.719,0.586 3.598,1.34 6.043,0.243 0.196,-1.52 0.485,-2.84 0.516,-4.164 0.172,-7.465 0.344,-14.934 0.398,-22.395 0.036,-4.797 -0.066,-9.59 -0.218,-14.383 -0.102,-3.058 -0.356,-6.121 -0.633,-9.168 -0.414,-4.519 -2.652,-7.816 -6.469,-10.277 -3.094,-1.988 -6.363,-3.481 -9.84,-4.512 -4.758,-1.422 -9.332,-3.191 -13.808,-5.406 -4.422,-2.188 -9.133,-3.817 -13.793,-5.469 -2.946,-1.047 -4.746,0.129 -5.367,3.211 -0.262,1.297 -0.184,2.664 -0.239,4.004 -0.179,4.207 -0.41,8.418 -0.515,12.633 -0.153,5.746 -0.129,11.504 -0.344,17.246 -0.16,4.402 -0.59,8.793 -0.867,13.187 -0.082,1.332 -0.153,2.684 -0.063,4.008" /><path
         id="path48"
         style="fill:#171717;fill-opacity:1;fill-rule:nonzero;stroke:none"
         d="m 357.93,576.555 c 0.836,-2.403 2.16,-3.637 3.48,-4.614 4.09,-3.031 8.176,-5.836 13.188,-6.847 5.343,-1.074 10.711,-2.996 16.89,-6.059 0.778,-0.383 1.61,-0.711 2.414,-1.023 0.914,-0.356 1.856,-0.727 2.739,-1.188 2.078,-1.09 4.257,-1.613 6.66,-1.613 2.402,0 4.961,0.504 8.289,1.641 5.277,1.804 10.578,3.836 15.707,5.796 1.922,0.739 3.848,1.473 5.777,2.204 0.485,0.179 0.977,0.359 1.461,0.539 1.758,0.648 3.574,1.32 5.266,2.16 3.754,1.851 7.117,3.551 10.301,5.578 2.07,1.32 2.531,2.824 1.703,5.555 -0.953,3.14 -2.727,5.25 -5.422,6.445 -0.375,0.168 -0.758,0.332 -1.141,0.5 -1.668,0.723 -3.402,1.473 -4.902,2.519 -7.672,5.372 -16.004,8.536 -23.149,10.918 -4.578,1.528 -8.589,1.192 -12.668,-1.07 -2.398,-1.332 -4.871,-2.625 -7.261,-3.875 -2.489,-1.301 -5.067,-2.648 -7.551,-4.039 -5.391,-3.008 -11.273,-5.047 -17.492,-6.047 -4.176,-0.672 -7.836,-2.699 -11.375,-4.652 l -0.864,-0.473 c -0.546,-0.305 -0.976,-0.902 -1.429,-1.531 -0.199,-0.274 -0.403,-0.555 -0.621,-0.824 m 46.144,-16.828 c -1.91,0 -3.738,0.445 -5.449,1.316 -1.059,0.539 -2.187,0.996 -3.281,1.437 -1.121,0.458 -2.285,0.926 -3.379,1.489 -5.297,2.722 -10.223,4.574 -15.067,5.66 -3.613,0.812 -8.281,2.32 -12.39,6.879 l -0.305,0.336 0.426,0.156 c 0.832,0.305 1.57,0.598 2.258,0.871 1.332,0.531 2.48,0.988 3.672,1.266 10.093,2.351 20.07,6.429 31.39,12.836 4.067,2.304 6.137,3.41 8.641,3.41 1.836,0 3.937,-0.586 7.418,-1.555 5.535,-1.543 10.722,-3.871 15.898,-7.137 0.754,-0.48 1.504,-0.972 2.254,-1.464 2.465,-1.618 5.02,-3.289 7.828,-4.403 1.465,-0.586 2.887,-1.426 3.395,-3.597 l 0.039,-0.168 -0.121,-0.121 c -0.176,-0.172 -0.352,-0.379 -0.539,-0.602 -0.457,-0.543 -0.985,-1.156 -1.668,-1.492 -3.582,-1.746 -7.653,-3.719 -11.739,-5.328 -4.761,-1.871 -9.648,-3.645 -14.378,-5.356 -1.676,-0.613 -3.36,-1.222 -5.036,-1.836 l -0.988,-0.363 c -1.582,-0.582 -3.211,-1.188 -4.855,-1.645 -1.403,-0.39 -2.754,-0.589 -4.024,-0.589" /><path
         id="path50"
         style="fill:#171717;fill-opacity:1;fill-rule:nonzero;stroke:none"
         d="m 530.957,357.027 c 0.109,-1.507 0.356,-3.043 0.824,-4.472 1.387,-4.266 3.059,-5.465 7.567,-5.446 3.851,0.012 7.59,0.93 11.054,2.536 9.493,4.39 18.871,9.043 28.368,13.445 3.031,1.398 4.726,3.648 5.753,6.699 1.727,5.152 2.504,10.438 1.965,15.844 -0.453,4.605 -0.187,9.172 0.16,13.762 0.692,9 0.09,17.984 -0.492,26.968 -0.078,1.317 -0.414,2.657 -0.859,3.91 -0.926,2.618 -3.086,4.024 -5.82,3.411 -3.332,-0.739 -6.778,-1.469 -9.809,-2.954 -10.066,-4.937 -20.051,-10.089 -29.922,-15.421 -4.367,-2.36 -7.012,-6.52 -8.203,-11.27 -0.727,-2.91 -0.566,-6.07 -0.621,-9.121 -0.086,-4.215 0.004,-8.43 0.019,-12.125 -0.05,-1.285 -0.035,-2.051 -0.117,-2.813 -0.859,-7.656 -0.422,-15.308 0.133,-22.953 m 4.348,39.219 c -0.09,6.57 1.988,12.024 7.191,16.106 0.891,0.695 1.887,1.382 2.945,1.687 3.887,1.129 7.223,3.363 10.793,5.121 6.145,3.028 12.465,5.695 18.743,8.449 1.738,0.762 3.593,1.161 5.836,0.735 0.328,-1.055 0.843,-2.078 0.949,-3.141 0.855,-8.973 1.183,-17.941 0.355,-26.957 -0.344,-3.789 -0.047,-7.641 0.059,-11.461 0.148,-5.195 0.035,-10.332 -1.735,-15.32 -0.828,-2.324 -2.238,-3.875 -4.5,-4.867 -9.066,-3.965 -18.125,-7.969 -27.144,-12.051 -3.742,-1.692 -7.508,-2.664 -12.231,-1.449 -0.371,1.511 -0.914,2.781 -0.964,4.074 -0.239,6.125 -0.45,12.254 -0.481,18.391 -0.031,6.89 0.281,13.792 0.184,20.683" /><path
         id="path52"
         style="fill:#171717;fill-opacity:1;fill-rule:nonzero;stroke:none"
         d="m 523.852,549.039 c -1.977,0 -3.801,-0.469 -5.563,-1.426 -0.43,-0.234 -0.867,-0.457 -1.305,-0.679 -0.898,-0.446 -1.832,-0.914 -2.644,-1.489 -1.242,-0.871 -2.586,-1.609 -3.891,-2.328 -2.289,-1.25 -4.648,-2.551 -6.445,-4.582 -0.399,-0.449 -0.996,-0.672 -1.578,-0.883 -0.188,-0.07 -0.375,-0.14 -0.551,-0.214 l -2.133,-0.918 c -3.242,-1.411 -6.594,-2.864 -9.914,-4.254 -2.906,-1.223 -5.012,-2.907 -6.433,-5.153 -1.239,-1.937 -0.899,-3.73 0.945,-5.047 1.387,-0.98 2.66,-1.711 3.898,-2.23 2.024,-0.848 4.098,-1.668 6.102,-2.457 2.683,-1.063 5.461,-2.16 8.148,-3.34 3.438,-1.504 6.684,-3.16 9.657,-4.937 3.957,-2.364 8.273,-3.477 11.593,-4.184 0.446,-0.047 0.922,-0.074 1.395,-0.074 1.894,0 3.746,0.41 5.672,1.254 0.582,0.254 1.16,0.515 1.742,0.781 1.48,0.668 3.012,1.355 4.566,1.922 2.457,0.898 4.934,1.883 7.332,2.828 6.297,2.496 12.809,5.074 19.653,6.387 2.992,0.57 5.836,2 8.449,4.242 1.082,0.93 1.656,1.871 1.695,2.797 0.039,0.875 -0.383,1.777 -1.265,2.679 l -0.18,0.188 c -2.067,2.133 -4.203,4.332 -6.734,5.48 -7.348,3.34 -14.969,6.395 -22.344,9.344 l -3.399,1.359 c -1.808,0.731 -3.703,1.364 -5.527,1.973 -1.539,0.516 -3.125,1.047 -4.672,1.637 -2.336,0.89 -4.387,1.324 -6.269,1.324 m 1.32,-38.875 c -3.234,0 -6.379,0.902 -9.348,2.676 -4.433,2.656 -9.215,4.668 -13.844,6.617 -2.234,0.941 -4.542,1.91 -6.785,2.941 -0.289,0.133 -0.582,0.258 -0.882,0.387 -1.602,0.68 -3.415,1.449 -4.961,3.727 l -0.207,0.301 0.328,0.156 c 0.586,0.277 1.132,0.547 1.656,0.812 1.129,0.551 2.191,1.074 3.254,1.539 8.461,3.688 15.648,7.61 21.98,11.981 1.617,1.121 3.578,1.879 5.157,2.484 2.003,0.781 4.054,0.66 6.312,-0.379 1.195,-0.551 2.496,-0.968 3.746,-1.375 0.879,-0.281 1.781,-0.574 2.66,-0.906 1.867,-0.719 3.739,-1.434 5.61,-2.148 6.886,-2.633 14.011,-5.356 20.945,-8.215 2.617,-1.078 5.312,-2.332 6.965,-4.774 l 0.055,-0.082 -0.004,-0.101 c -0.032,-1.426 -0.938,-1.825 -1.664,-2.141 -0.137,-0.059 -0.27,-0.117 -0.395,-0.184 -0.969,-0.5 -1.891,-0.843 -2.75,-1.023 -8.824,-1.812 -17.234,-5.352 -25.363,-8.769 -1.367,-0.575 -2.731,-1.149 -4.086,-1.715 -2.899,-1.203 -5.719,-1.809 -8.379,-1.809" /><path
         id="path54"
         style="fill:#171717;fill-opacity:1;fill-rule:nonzero;stroke:none"
         d="m 466.887,574.688 c -0.938,-0.415 -1.801,-0.797 -2.617,-1.157 -1.629,-0.718 -3.036,-1.34 -4.454,-1.988 -3.343,-1.547 -6.683,-3.102 -10.031,-4.648 -4.281,-1.993 -8.558,-3.977 -12.847,-5.946 -1.786,-0.82 -3.61,-1.609 -5.375,-2.371 -1.215,-0.523 -2.426,-1.047 -3.637,-1.586 -0.383,-0.168 -0.766,-0.34 -1.153,-0.508 -1.269,-0.55 -2.578,-1.117 -3.789,-1.804 -2.625,-1.504 -3.164,-3.047 -1.996,-5.703 0.371,-0.852 0.996,-1.094 2.297,-2.086 l 1.809,-1.145 c 2.051,-1.566 3.969,-2.902 6.484,-3.945 3.031,-1.254 5.488,-2.363 8.461,-3.449 1.094,-0.399 3.426,-1.25 4.52,-1.645 2.05,-0.738 3.777,-1.461 5.832,-2.215 l 4.254,-1.922 c 2.718,-1.004 5.441,-2.007 8.164,-3 3.339,-1.222 6.879,-1.023 10.546,0.586 5.61,2.461 10.5,4.711 14.946,6.871 3.875,1.887 7.773,3.903 11.543,5.852 1.367,0.707 2.726,1.414 4.094,2.109 0.167,0.094 0.343,0.176 0.515,0.27 0.797,0.394 1.617,0.812 2.317,1.344 1.191,0.91 1.941,2.218 2.109,3.675 0.18,1.532 -0.281,3.063 -1.301,4.309 -1.906,2.332 -4.445,3.488 -7.137,4.715 -0.347,0.16 -0.699,0.32 -1.046,0.48 -0.985,0.461 -2,0.91 -2.985,1.348 -2.805,1.242 -5.715,2.531 -8.324,4.211 -6.023,3.863 -12.957,6.922 -21.199,9.348 m 0.551,-40.782 c -2.446,0 -4.879,0.555 -7.227,1.649 -4.992,2.336 -10.262,4.207 -15.356,6.011 -3.691,1.317 -7.511,2.672 -11.199,4.196 -1.945,0.801 -3.797,1.918 -5.582,2.992 l -0.215,0.125 c -0.402,0.238 -0.668,0.66 -0.972,1.152 -0.153,0.239 -0.301,0.485 -0.489,0.735 l -0.117,0.156 0.172,0.105 c 3.985,2.446 8.164,4.637 12.797,6.692 1.484,0.66 3,1.308 4.477,1.937 2.32,0.996 4.726,2.028 7.05,3.117 1.395,0.657 2.766,1.426 4.102,2.168 1.176,0.657 2.394,1.336 3.625,1.942 3.754,1.828 5.633,2.754 7.633,2.754 1.843,0 3.84,-0.797 7.461,-2.246 3.812,-1.52 7.66,-3.434 11.773,-5.848 3.324,-1.953 6.879,-3.645 10.317,-5.281 0.957,-0.457 1.91,-0.91 2.859,-1.371 0.418,-0.2 0.851,-0.387 1.266,-0.567 1.55,-0.66 3.156,-1.347 4.105,-2.906 l 0.02,-0.082 c 0.089,-1.406 -0.848,-1.871 -1.614,-2.242 l -0.094,-0.055 c -3.058,-1.519 -6.117,-3.027 -9.179,-4.535 -5.371,-2.641 -10.922,-5.375 -16.332,-8.149 -3.172,-1.625 -6.293,-2.449 -9.281,-2.449" /><path
         id="path56"
         style="fill:#171717;fill-opacity:1;fill-rule:nonzero;stroke:none"
         d="m 394.109,495.945 c -0.132,-0.015 -1.121,-0.097 -2.093,-0.234 -3.985,-0.59 -7.883,-2.086 -12.653,-4.859 -3.898,-2.27 -7.375,-4.094 -10.633,-5.586 -2.57,-1.168 -5.234,-2.231 -7.816,-3.254 -1.777,-0.707 -3.613,-1.438 -5.402,-2.199 -0.383,-0.165 -0.766,-0.325 -1.149,-0.485 -2.218,-0.926 -4.511,-1.887 -6.55,-3.168 -1.723,-1.074 -2.711,-2.844 -2.653,-4.722 0.055,-1.809 1.098,-3.438 2.781,-4.348 l 0.954,-0.524 c 5.585,-3.039 11.371,-6.183 17.636,-8.039 2.844,-0.843 5.75,-2.109 8.403,-3.672 3.632,-2.14 7.488,-3.23 11.566,-4.382 l 0.094,-0.028 c 0.929,-0.257 1.82,-0.386 2.734,-0.386 1.086,0 2.168,0.179 3.309,0.558 1.722,0.571 3.054,1.125 4.183,1.742 4.137,2.27 8.582,3.961 12.879,5.594 1.324,0.504 2.653,1.008 3.969,1.531 6.715,2.653 13.406,5.7 19.879,8.645 l 0.516,0.238 c 1.628,0.742 2.652,1.824 2.976,3.145 0.344,1.402 -0.121,2.98 -1.348,4.551 -2.855,3.656 -6.711,6.085 -11.781,7.425 -6.09,1.614 -12.004,4.364 -18.609,8.657 -3.028,1.968 -6.164,3.738 -11.192,3.8 z m -4.363,-40.652 c -1.285,0 -2.555,0.25 -3.887,0.77 -0.535,0.207 -1.074,0.417 -1.609,0.625 -2.598,1 -5.281,2.039 -7.871,3.253 -3.594,1.68 -7.344,3.204 -10.965,4.668 -1.598,0.653 -3.199,1.301 -4.789,1.961 -3.477,1.45 -6.309,3.016 -8.852,5.95 l -0.164,0.195 0.231,0.101 c 1.426,0.645 2.812,1.282 4.172,1.907 2.968,1.363 5.773,2.652 8.636,3.855 5.829,2.445 11.848,4.977 17.122,8.938 2.878,2.168 6.363,2.894 9.695,3.363 3.047,0.43 6.113,-0.242 9.418,-2.063 4.172,-2.296 8.898,-4.902 13.59,-7.23 1.586,-0.789 3.312,-1.359 4.988,-1.914 0.629,-0.207 1.266,-0.414 1.891,-0.641 0.304,-0.101 0.613,-0.207 0.914,-0.312 3.257,-1.125 6.625,-2.289 9.343,-5.496 l 0.121,-0.141 -0.144,-0.121 c -0.305,-0.27 -0.543,-0.5 -0.75,-0.707 -0.375,-0.371 -0.641,-0.637 -0.984,-0.758 -3.539,-1.273 -6.997,-2.922 -10.332,-4.516 -3.915,-1.871 -7.961,-3.8 -12.2,-5.148 -3.433,-1.09 -6.793,-2.652 -10.047,-4.164 -0.839,-0.395 -1.679,-0.781 -2.519,-1.168 -1.82,-0.824 -3.414,-1.207 -5.008,-1.207" /><path
         id="path58"
         style="fill:#171717;fill-opacity:1;fill-rule:nonzero;stroke:none"
         d="m 586.934,319.871 c -0.016,4.789 0.281,9.594 -0.145,14.344 -0.277,3.074 -0.422,6.066 -0.105,9.125 0.277,2.652 0.382,5.332 0.394,8.008 0.008,2.203 -1.32,3.656 -3.351,4.062 -1.629,0.324 -3.426,0.387 -5.032,0.031 -1.625,-0.378 -3.14,-1.332 -4.632,-2.164 -4.493,-2.492 -8.84,-5.261 -13.438,-7.511 -6.145,-3.004 -12.461,-5.551 -18.098,-9.618 -2.082,-1.503 -4.437,-2.835 -6.675,-4.23 -4.399,-2.742 -5.754,-6.785 -5.567,-11.738 0.16,-4.016 0.024,-8.039 0.012,-13.414 -0.953,-8.625 -0.227,-18.536 1.266,-28.399 0.316,-2.066 0.73,-4.14 1.355,-6.129 1.102,-3.515 3.715,-5.304 7.285,-5.343 2.629,-0.02 5.305,0.007 7.809,1.179 4.82,2.246 9.668,4.414 14.511,6.598 1.907,0.863 3.844,1.656 5.754,2.508 2.942,1.312 5.836,2.769 8.828,3.929 4.985,1.938 7.192,5.844 8.368,10.789 1.574,6.586 1.91,13.227 1.55,19.954 -0.136,2.664 -0.078,5.347 -0.089,8.019 m -3.704,8.996 c 0.086,-0.762 0.188,-1.531 0.172,-2.293 -0.156,-8.23 -0.238,-16.469 -0.566,-24.687 -0.117,-2.848 -0.867,-5.664 -1.316,-8.5 -0.622,-3.93 -3.059,-6.496 -6.317,-8.391 -1.312,-0.769 -2.687,-1.457 -4.086,-2.051 -5.945,-2.55 -11.879,-5.101 -17.863,-7.539 -2.645,-1.078 -5.383,-1.898 -8.094,-2.789 -0.715,-0.242 -1.476,-0.375 -2.23,-0.457 -4.629,-0.512 -5.918,0.309 -6.504,4.961 -1.098,8.738 -2.153,17.477 -1.754,26.328 0.262,5.739 0.32,11.496 0.195,17.239 -0.074,3.363 0.891,5.968 3.66,7.882 0.786,0.539 1.395,1.387 2.239,1.774 6.394,2.957 11.832,7.566 18.461,10.219 5.976,2.394 11.543,5.835 17.285,8.824 1.996,1.035 3.898,2.535 6.308,1.246 0.938,-1.899 0.598,-3.817 0.371,-5.707 -0.64,-5.36 -0.531,-10.711 0.039,-16.059" /><path
         id="path60"
         style="fill:#171717;fill-opacity:1;fill-rule:nonzero;stroke:none"
         d="m 222.043,441.691 c 2.527,-1.277 4.824,-3.019 7.254,-4.503 2.43,-1.493 4.844,-3.032 7.359,-4.356 6.059,-3.187 12.352,-5.957 18.215,-9.461 5.027,-2.996 10.492,0.258 11.106,4.676 0.531,3.769 1.011,7.582 1.07,11.387 0.062,5.14 -0.301,10.296 -0.395,13.097 1.254,11.977 -0.765,21.438 -1.156,30.985 -0.258,6.375 -3.816,10.593 -9.219,13.445 -1.172,0.617 -2.433,1.074 -3.66,1.586 -2.633,1.105 -5.234,2.273 -7.91,3.269 -7.297,2.723 -14.598,5.442 -21.949,8.008 -2.141,0.746 -4.434,1.117 -6.684,1.406 -2.031,0.262 -3.711,-0.91 -4.429,-2.867 -0.391,-1.062 -0.692,-2.211 -0.754,-3.336 -0.243,-4.39 -0.504,-8.781 -0.512,-13.179 -0.02,-11.305 1.473,-22.489 2.969,-33.66 0.379,-2.825 1.254,-5.594 2.027,-8.348 1.031,-3.676 3.188,-6.383 6.668,-8.149 m -7.117,40.711 c -0.719,4.965 -0.567,9.922 -0.297,14.899 0.137,2.676 0.039,4.097 0.191,6.769 0.133,2.305 1.871,3.395 4.008,2.543 1.934,-0.761 3.84,-1.617 5.703,-2.554 7.16,-3.606 14.867,-5.825 22.278,-8.801 3.718,-1.496 7.207,-3.399 10.468,-5.762 1.477,-1.07 2.493,-2.308 2.868,-4.094 0.238,-1.121 0.683,-2.214 0.808,-3.347 0.981,-8.934 2.594,-16.575 1.11,-27.508 0.093,-3.477 0.371,-8.82 0.332,-14.164 -0.024,-3.235 -0.481,-6.477 -0.832,-9.703 -0.293,-2.715 -2.77,-4.2 -5.399,-2.739 -6.316,3.512 -12.902,6.536 -19.223,10.039 -4.812,2.68 -9.375,5.817 -14.058,8.731 -2.293,1.426 -3.153,3.711 -3.817,6.164 -1.644,6.121 -2.246,12.41 -2.996,18.676 -0.437,3.609 -0.613,7.254 -1.144,10.851" /><path
         id="path62"
         style="fill:#171717;fill-opacity:1;fill-rule:nonzero;stroke:none"
         d="m 396.82,505.418 c 0.907,-0.176 1.77,-0.262 2.649,-0.262 3.812,0 8.144,1.602 13.222,4.891 1.922,1.238 4.024,2.187 5.641,2.879 6.676,2.84 12.215,5.133 17.43,7.219 2.804,1.117 4.843,2.246 6.301,4.39 1.484,2.188 1.996,3.559 1.757,4.742 -0.234,1.172 -1.273,2.282 -3.461,3.711 -0.519,0.34 -1.086,0.641 -1.632,0.938 -0.282,0.148 -0.559,0.301 -0.84,0.457 -5.645,3.195 -11.801,5.476 -17.75,7.676 -3.688,1.367 -7.5,2.777 -11.16,4.39 -3.766,1.664 -7.625,1.531 -11.309,-0.379 -2.09,-1.09 -4.301,-2.027 -6.43,-2.941 -1.168,-0.5 -2.332,-1 -3.484,-1.524 -7.473,-3.398 -13.402,-5.671 -19.231,-7.375 -3.457,-1.007 -6.781,-2.753 -9.992,-4.433 l -0.343,-0.184 c -1.469,-0.773 -2.727,-2.195 -3.653,-3.347 -1.285,-1.598 -1.148,-3.231 0.383,-4.727 1.094,-1.066 2.109,-1.84 3.098,-2.355 0.882,-0.461 1.765,-0.934 2.64,-1.411 2.934,-1.574 5.973,-3.207 9.11,-4.332 5.062,-1.824 9.742,-3.718 14.304,-5.804 3.41,-1.567 6.778,-2.266 10.91,-2.266 0.598,0 1.208,0.016 1.84,0.047 m 0.723,4.348 c -3.07,0 -6.191,0.636 -9.273,1.89 -1.774,0.723 -3.555,1.434 -5.336,2.149 -5.188,2.07 -10.551,4.211 -15.707,6.613 l -0.528,0.242 c -2.207,1.024 -4.492,2.082 -6.316,4.074 l -0.18,0.2 0.168,0.211 c 2.227,2.75 5.348,3.73 8.098,4.593 6.793,2.125 13.976,5.071 22.621,9.278 l 2.098,1.019 c 1.699,0.82 3.39,1.645 5.085,2.477 1.809,0.89 3.747,1.031 5.774,0.429 0.137,-0.043 0.273,-0.07 0.414,-0.105 0.234,-0.051 0.477,-0.106 0.711,-0.199 2.551,-1.035 5.172,-2.032 7.707,-2.996 8.281,-3.161 16.844,-6.418 24.496,-11.411 0.184,-0.128 0.234,-0.335 0.281,-0.523 0.012,-0.062 0.028,-0.133 0.047,-0.195 l 0.02,-0.051 0,-0.063 c -0.055,-1.421 -1.09,-1.82 -2,-2.175 -0.157,-0.059 -0.309,-0.118 -0.457,-0.18 -1.778,-0.77 -3.563,-1.531 -5.34,-2.293 -4.266,-1.824 -8.668,-3.707 -12.973,-5.641 -2.914,-1.316 -5.707,-2.875 -8.055,-4.234 -3.582,-2.059 -7.402,-3.109 -11.355,-3.109" /><path
         id="path64"
         style="fill:#171717;fill-opacity:1;fill-rule:nonzero;stroke:none"
         d="m 341.609,572.223 c -2.289,0 -4.687,-0.512 -7.332,-1.551 -4.851,-1.91 -9.843,-3.692 -14.675,-5.41 -1.903,-0.68 -3.801,-1.356 -5.696,-2.039 -0.918,-0.336 -1.832,-0.688 -2.742,-1.039 -2.25,-0.864 -4.574,-1.762 -6.937,-2.34 -3.805,-0.922 -7.446,-2.301 -11.129,-4.215 -1.637,-0.848 -2.539,-1.754 -2.762,-2.77 -0.207,-0.925 0.156,-1.972 1.105,-3.195 0.829,-1.062 1.868,-1.957 2.922,-2.508 1.469,-0.769 3.145,-1.414 5.27,-2.043 12.547,-3.703 21.887,-7.347 30.281,-11.812 2.121,-1.133 4.344,-1.633 6.484,-2.117 0.665,-0.149 1.317,-0.297 1.965,-0.461 0.317,-0.028 0.668,-0.047 1.02,-0.047 2.187,0 4.531,0.625 7.836,2.082 6.804,3 14.926,6.398 23.519,8.867 3.809,1.094 7.742,2.605 11.688,4.488 1.828,0.871 2.953,2.219 3.176,3.789 0.226,1.633 -0.528,3.309 -2.133,4.723 -3.11,2.742 -6.824,5.766 -11.574,6.934 -1.903,0.461 -3.754,1.175 -5.36,2.07 -4.601,2.543 -9.629,4.238 -14.488,5.871 -1.688,0.57 -3.442,1.16 -5.149,1.781 -1.75,0.633 -3.48,0.942 -5.289,0.942 m -1.621,-37.086 c -2.25,0 -4.64,0.617 -7.117,1.836 -11.367,5.605 -21.93,9.734 -32.285,12.617 -0.156,0.051 -0.316,0.086 -0.477,0.129 -1.468,0.39 -3.125,0.828 -4.07,2.777 l -0.07,0.152 0.136,0.086 c 3.118,2.039 6.598,3.907 10.911,3.789 0.152,-0.003 0.304,-0.007 0.464,-0.007 0.614,0 1.481,0.043 2.036,0.414 3.148,2.113 6.718,3.297 10.168,4.441 1.347,0.442 2.734,0.902 4.074,1.414 1.855,0.703 3.773,1.332 5.621,1.942 1.875,0.617 3.805,1.25 5.672,1.961 3.816,1.453 7.117,1.562 10.644,0.371 l 1.442,-0.485 c 5.902,-1.976 12.008,-4.027 17.64,-7.043 1.082,-0.578 2.266,-1.015 3.414,-1.445 0.434,-0.164 0.868,-0.328 1.297,-0.496 4.539,-1.793 7.84,-4.039 10.7,-7.289 l 0.14,-0.156 -0.172,-0.122 c -3.054,-2.097 -5.883,-2.976 -9,-3.835 -6.66,-1.829 -13.117,-4.524 -19.363,-7.129 -0.832,-0.348 -1.656,-0.696 -2.488,-1.043 -0.434,-0.18 -0.871,-0.344 -1.309,-0.512 -0.793,-0.301 -1.605,-0.613 -2.367,-0.996 -1.797,-0.91 -3.691,-1.371 -5.641,-1.371" /><path
         id="path66"
         style="fill:#171717;fill-opacity:1;fill-rule:nonzero;stroke:none"
         d="m 279.305,547.16 c -1.617,0 -3.211,-0.25 -4.739,-0.746 -2.937,-0.949 -5.851,-2.195 -8.66,-3.402 -0.64,-0.274 -1.281,-0.547 -1.914,-0.817 l -1.476,-0.625 c -8.145,-3.445 -16.563,-7.007 -25.403,-8.929 -3.09,-0.676 -5.867,-2.188 -8.554,-3.649 -1.071,-0.582 -2.18,-1.187 -3.297,-1.73 -0.407,-0.199 -0.821,-0.52 -1.305,-1.004 -2.125,-2.125 -2.152,-4.68 -0.07,-6.832 2.347,-2.434 5.261,-5.133 9.07,-6.711 2.047,-0.852 4.102,-1.766 6.094,-2.649 2.801,-1.242 5.699,-2.531 8.601,-3.652 1.211,-0.469 2.418,-0.996 3.59,-1.5 3.52,-1.519 6.852,-2.961 10.184,-3.035 3.617,-0.332 6.582,0.121 10.191,1.523 1.531,0.602 3.067,1.176 4.606,1.754 1.496,0.563 2.988,1.125 4.472,1.703 1.16,0.45 2.356,0.879 3.508,1.289 2.742,0.973 5.574,1.985 8.117,3.399 6.332,3.512 12.879,6.359 20.168,9.457 1.492,0.629 2.969,1.625 4.172,2.797 0.676,0.656 1.309,2.082 1.074,2.867 -0.996,3.379 -2.125,7.207 -6.195,8.902 -2.465,1.028 -4.949,2.121 -7.359,3.18 -6.489,2.855 -13.196,5.809 -20.176,7.75 -1.594,0.438 -3.176,0.66 -4.699,0.66 m -15.469,-41.078 c -1.965,0 -3.77,0.371 -5.527,1.133 -0.407,0.172 -1.032,0.414 -1.559,0.375 -0.305,-0.031 -0.609,-0.047 -0.91,-0.047 -2.727,0 -4.777,1.145 -6.953,2.352 -0.809,0.449 -1.653,0.914 -2.551,1.335 -4.316,2.008 -8.594,4.266 -12.738,6.446 -1.172,0.617 -2.34,1.234 -3.516,1.847 -1.105,0.579 -2.094,1.356 -2.828,1.965 -0.176,0.149 -0.367,0.289 -0.555,0.43 -0.836,0.629 -1.785,1.34 -1.277,2.445 0.363,0.789 0.941,1.157 1.836,1.157 0.207,0 0.433,-0.016 0.695,-0.055 0.301,-0.043 0.61,-0.067 0.891,-0.067 0.511,0 1.203,0.071 1.617,0.403 2.738,2.203 6.019,2.984 9.191,3.742 1.024,0.242 2.082,0.492 3.098,0.793 7.668,2.23 15.129,5.109 22.809,8.805 2.207,1.058 4.046,1.839 5.789,2.453 4.695,1.636 8.988,1.691 13.5,0.195 6.269,-2.086 12.332,-4.887 18.191,-7.601 1.93,-0.887 3.926,-1.813 5.902,-2.7 2.082,-0.933 3.297,-2.636 3.821,-5.363 l 0.027,-0.141 -0.129,-0.062 c -1.683,-0.82 -3.351,-1.645 -5.019,-2.469 -11.75,-5.781 -22.852,-11.25 -34.793,-15.426 -2.696,-0.937 -5.828,-1.945 -9.012,-1.945" /></g></g></svg>