<?xml version="1.0" encoding="UTF-8" standalone="no"?>
<svg
   xmlns:dc="http://purl.org/dc/elements/1.1/"
   xmlns:cc="http://creativecommons.org/ns#"
   xmlns:rdf="http://www.w3.org/1999/02/22-rdf-syntax-ns#"
   xmlns:svg="http://www.w3.org/2000/svg"
   xmlns="http://www.w3.org/2000/svg"
   viewBox="0 0 100 100"
   height="100"
   width="100"
   xml:space="preserve"
   version="1.1"
   id="svg2"><metadata
     id="metadata8"><rdf:RDF><cc:Work
         rdf:about=""><dc:format>image/svg+xml</dc:format><dc:type
           rdf:resource="http://purl.org/dc/dcmitype/StillImage" /></cc:Work></rdf:RDF></metadata><defs
     id="defs6" /><g
     transform="matrix(1.25,0,0,-1.25,0,100)"
     id="g10"><g
       transform="scale(0.1,0.1)"
       id="g12"><path
         id="path14"
         style="fill:#050607;fill-opacity:1;fill-rule:nonzero;stroke:none"
         d="m 335.086,395.082 c 2.777,49.731 17.051,78.777 28.543,94.387 13.008,17.672 29.863,28.215 45.074,28.207 11.258,0.039 19.199,-3.949 24.145,-11.668 8.261,-12.891 5.832,-34.34 -0.836,-48.871 -22.547,-49.133 -68.992,-61.293 -94.688,-64.176 l -2.371,-0.266 0.133,2.387 z m 62.066,-160.164 c 5.836,-0.191 11.739,-0.102 17.555,0.262 42.676,2.672 79.078,17.703 108.184,44.668 19.257,17.832 27.273,35.996 27.105,41.32 -0.137,4.414 -16.941,18.602 -23.851,18.828 -4.032,-0.016 -6.961,-3.301 -10.356,-7.105 -1.359,-1.528 -2.777,-3.106 -4.324,-4.571 -26.91,-25.457 -58.5,-40.004 -91.352,-42.054 -2.765,-0.176 -5.539,-0.215 -8.23,-0.129 -33.766,1.109 -59.481,22.445 -70.563,58.543 l -0.738,2.41 2.516,0.191 c 126.281,9.672 168.718,87.145 165.797,133.711 -3.735,59.856 -54.356,82.719 -96.555,84.106 -5.106,0.168 -10.43,0.082 -15.82,-0.258 -43.395,-2.715 -82.133,-23.762 -109.075,-59.258 -27.015,-35.594 -40.148,-83.004 -36.98,-133.508 3.828,-61.176 44.551,-133.797 146.687,-137.156" /></g></g></svg>