<?xml version="1.0" encoding="UTF-8" standalone="no"?>
<svg
   xmlns:dc="http://purl.org/dc/elements/1.1/"
   xmlns:cc="http://creativecommons.org/ns#"
   xmlns:rdf="http://www.w3.org/1999/02/22-rdf-syntax-ns#"
   xmlns:svg="http://www.w3.org/2000/svg"
   xmlns="http://www.w3.org/2000/svg"
   viewBox="0 0 100 100"
   height="100"
   width="100"
   xml:space="preserve"
   version="1.1"
   id="svg2"><metadata
     id="metadata8"><rdf:RDF><cc:Work
         rdf:about=""><dc:format>image/svg+xml</dc:format><dc:type
           rdf:resource="http://purl.org/dc/dcmitype/StillImage" /></cc:Work></rdf:RDF></metadata><defs
     id="defs6" /><g
     transform="matrix(1.25,0,0,-1.25,0,100)"
     id="g10"><g
       transform="scale(0.1,0.1)"
       id="g12"><path
         id="path14"
         style="fill:#231f20;fill-opacity:1;fill-rule:nonzero;stroke:none"
         d="m 344.813,567.102 c -3.485,0.183 -6.379,0.543 -9.254,0.425 -2.27,-0.089 -4.586,-0.558 -6.739,-1.285 -0.804,-0.273 -1.527,-1.699 -1.703,-2.699 -0.273,-1.578 0.75,-3.133 2.231,-3.211 4.3,-0.219 8.644,-0.254 12.937,0.086 2.348,0.184 2.828,1.828 2.528,6.684 z m -5.211,-107.926 c 0.117,9.957 0.386,19.019 0.285,28.074 -0.121,10.816 0.027,21.691 -1.039,32.43 -0.953,9.633 -1.914,19.179 -1.231,28.855 0.094,1.356 -0.504,2.789 -0.957,4.125 -0.109,0.328 -0.945,0.606 -1.418,0.559 -0.465,-0.043 -1.23,-0.461 -1.285,-0.809 -0.273,-1.695 -0.465,-3.422 -0.484,-5.14 -0.227,-20.165 1.16,-40.329 -0.024,-60.493 -0.136,-2.332 -0.269,-4.679 -0.168,-7.011 0.285,-6.641 -0.054,-13.328 1.016,-20.305 1.773,-0.094 3.148,-0.168 5.305,-0.285 z m 202.683,-76.969 c 0.426,0.781 1.117,1.508 1.195,2.297 0.59,6.086 1.165,12.18 1.547,18.281 0.551,8.735 0.551,17.524 1.469,26.219 1.836,17.406 3.981,34.793 6.317,52.144 1.046,7.786 0.648,15.747 2.933,23.395 0.461,1.535 0.02,3.344 0,4.648 -2.863,1.879 -5.269,2.653 -8.531,1.43 -0.496,-1.273 -1.36,-2.812 -1.68,-4.453 -0.844,-4.289 -1.574,-8.609 -2.125,-12.945 -2.051,-16.219 -4,-32.45 -6.012,-48.672 -1.003,-8.113 -2.843,-16.211 -2.906,-24.328 -0.082,-11.239 -1.98,-22.055 -4.629,-32.852 -0.254,-1.031 -0.004,-2.187 0.02,-3.598 3.523,-0.691 6.633,-1.359 9.765,-1.878 0.817,-0.137 1.707,0.187 2.637,0.312 z m 21.949,132.731 c 1.786,7.031 1.641,13.722 1.832,20.398 0.207,7.012 0.481,14.031 1.055,21.023 0.238,2.868 1.172,5.727 2.125,8.477 0.93,2.691 2.555,3.684 5.477,3.234 3.453,-0.527 6.882,-1.351 10.246,-2.316 4.058,-1.16 8.09,-1.414 12.105,-0.16 5.528,1.722 7.317,5.344 5.75,10.836 -0.961,3.359 -3.484,4.547 -6.511,5.019 -9.532,1.492 -19.051,3.059 -28.618,4.305 -12.445,1.617 -25.05,1.867 -37.254,5.504 -4.671,1.394 -9.832,1.316 -14.789,1.547 -3.468,0.164 -5.468,-1.567 -6.562,-4.746 -1.656,-4.813 -0.031,-8.356 4.91,-10.543 5.672,-2.508 11.598,-4.032 17.816,-4.321 2.34,-0.105 4.696,-0.066 7.02,-0.32 4.758,-0.516 6.945,-2.418 7.258,-7.187 0.207,-3.137 -0.465,-6.364 -0.969,-9.512 -1.762,-10.973 -3.852,-21.914 -3.738,-33.086 0.019,-1.883 0.871,-3.758 1.222,-5.184 7.375,-1.011 13.989,-1.922 21.625,-2.968 z m -219.836,37.261 c -1.636,-11.051 -1.925,-21.121 1.274,-30.898 11.226,-4.028 20.773,-3.93 30.891,0.363 6.175,2.621 12.347,5.266 18.406,8.145 4.836,2.3 9.828,3.367 15.16,3.785 4.801,0.375 9.273,-0.715 13.844,-1.598 2.863,-0.555 5.707,-1.203 8.562,-1.805 3.055,-0.64 6.113,-1.277 9.524,-1.988 0.179,3.289 -1.196,4.875 -3.141,6.348 -5.867,4.437 -12.051,8.222 -19.27,10.054 -1.8,0.458 -3.273,1.297 -3.406,3.403 -0.129,2.066 1.18,3.258 2.852,3.965 3.195,1.351 6.39,2.789 9.715,3.746 4.379,1.258 8.968,1.836 13.648,4.566 -1.695,0.813 -2.656,1.508 -3.719,1.735 -3.418,0.734 -6.879,1.265 -10.312,1.925 -15.051,2.907 -29.766,1.903 -43.485,-5.172 -8.589,-4.429 -17.546,-6.085 -26.964,-6.351 -4.321,-0.121 -8.649,-0.145 -13.579,-0.223 z M 571.5,250.492 c 0.859,0.5 1.254,0.59 1.316,0.789 5.02,15.633 8.547,31.52 8.739,48.051 0.129,11.563 -5.035,20.176 -14.301,26.531 -5.527,3.789 -11.27,7.27 -16.957,10.825 -4.68,2.929 -6.91,6.785 -5.774,12.511 1.079,5.426 1.758,10.938 2.442,16.434 0.242,1.941 -0.02,3.945 -0.047,5.816 -7.246,4.25 -14.375,5.688 -22.555,3.899 -1.093,-4.793 -1.953,-9.364 -3.207,-13.825 -1.648,-5.882 -3.457,-11.734 -5.472,-17.5 -1.84,-5.257 -5.848,-8.601 -10.778,-10.933 -4.472,-2.117 -8.847,-4.469 -13.418,-6.332 -8.636,-3.52 -15.187,-9.723 -21.597,-16.153 -4.43,-4.445 -6.993,-9.894 -8.989,-15.824 -3.035,-9.015 -3.304,-18.328 -4.011,-27.633 -0.219,-2.89 0.539,-5.214 2.992,-6.796 1.652,-1.071 3.426,-1.954 5.121,-2.903 10.273,7.246 21.539,11.094 33.164,14.321 3.191,-1.762 6.27,-3.415 9.301,-5.145 6.219,-3.551 12.722,-5.719 20.047,-5.098 2.875,0.243 5.875,0.024 8.703,-0.55 3.379,-0.684 6.394,0.078 9.355,1.371 2.102,0.918 4.071,2.14 6.203,3.281 7.625,-3.754 12.883,-10.258 19.723,-15.137 z m -131.949,7.481 c 0.09,2.492 0.16,5.394 0.301,8.293 0.382,7.953 -1.457,15.714 -1.985,23.57 -1.234,18.387 -1.898,36.812 -2.816,55.223 -0.16,3.218 -0.172,6.464 -0.668,9.636 -2.219,14.2 -3.367,28.473 -3.582,42.84 -0.059,4.086 -0.543,8.168 -0.871,12.25 -0.442,5.535 -0.965,11.067 -1.36,16.602 -0.226,3.211 0.153,6.515 -0.457,9.64 -2.324,11.903 -1.742,23.899 -1.703,35.891 0.008,2.551 -0.394,5.102 -0.629,7.906 -3.008,0.434 -5.515,1.395 -8.429,-0.832 -0.582,-3.277 -1.086,-7.023 -1.946,-10.683 -0.84,-3.586 -4.531,-5.793 -8.836,-5.657 -2.98,0.094 -5.855,2.715 -6.515,6.168 -0.325,1.711 -0.215,3.504 -0.481,5.239 -0.34,2.257 -0.855,4.492 -1.32,6.867 -4.223,1.176 -7.82,0.492 -11.535,-0.758 -1.969,-4.609 -2.059,-9.262 -2.332,-13.914 -0.203,-3.484 0.152,-7.449 -1.395,-10.301 -2.621,-4.82 -1.996,-9.57 -1.789,-14.48 0.512,-11.985 1.113,-23.961 1.535,-35.95 0.434,-12.273 0.512,-24.562 1.094,-36.828 0.359,-7.582 1.746,-15.121 2.016,-22.699 0.492,-14.035 0.523,-28.086 0.691,-42.133 0.039,-3.508 -0.019,-7.027 -0.258,-10.527 -0.211,-3.129 -1.996,-4.953 -4.097,-4.602 -1.77,0.293 -2.879,2.102 -2.918,4.786 -0.008,0.585 0.07,1.168 0.074,1.753 0.105,9.36 0.203,18.715 0.316,28.075 0.032,2.336 -0.082,4.699 0.207,7.007 0.961,7.614 0.61,15.172 -0.304,22.762 -1.887,15.692 -3.813,31.387 -2.993,47.254 0.254,4.969 0.614,9.953 0.469,14.914 -0.305,10.535 -0.879,21.063 -1.418,31.59 -0.086,1.668 -0.574,3.313 -0.926,5.246 -3.597,-0.23 -6.785,-0.535 -9.976,-0.613 -4.086,-0.098 -8.199,-0.297 -12.262,0.051 -9.933,0.843 -19.836,0.996 -29.808,0.589 -7.571,-0.312 -15.184,0.368 -22.774,0.676 -2.898,0.117 -5.808,0.66 -8.93,-0.738 -0.414,-1.18 -0.972,-2.508 -1.351,-3.887 -2.582,-9.402 -2.402,-19.136 -3.004,-28.73 -0.84,-13.422 -0.719,-26.903 -1.141,-40.356 -0.269,-8.476 -1.019,-16.941 -1.132,-25.414 -0.219,-16.668 -0.766,-33.359 1.64,-49.945 0.293,-2.02 0.277,-4.09 0.281,-6.137 0,-0.836 -0.129,-1.801 -0.562,-2.469 -0.43,-0.66 -1.281,-1.332 -2.02,-1.421 -0.718,-0.086 -1.976,0.367 -2.207,0.914 -0.656,1.566 -1.203,3.289 -1.277,4.972 -0.629,14.617 -1.313,29.242 -1.625,43.871 -0.148,7.008 0.508,14.032 0.727,21.047 0.183,5.848 0.226,11.703 0.394,17.551 0.426,14.891 -0.965,29.879 2.438,44.609 0.199,0.852 0.277,1.747 0.269,2.622 -0.144,12.648 1.856,25.082 4.059,37.46 0.879,4.911 0.105,9.192 -1.965,13.7 -3.129,1.261 -6.082,1.636 -9.09,-0.606 -0.301,-4.215 -0.309,-8.316 -0.945,-12.316 -0.992,-6.254 -3.496,-8.539 -9.59,-9.617 -4.137,-0.731 -6.863,1.101 -7.422,5.257 -0.504,3.77 -0.652,7.586 -1.137,11.36 -0.25,1.953 -0.89,3.859 -1.332,5.679 -3.363,0.86 -6.16,0.969 -9.332,-1.152 -1.164,-6.562 -2.91,-13.383 -3.476,-20.301 -0.907,-11.062 -0.989,-22.187 -1.504,-33.285 -0.446,-9.644 -1.074,-19.277 -1.496,-28.926 -0.536,-12.273 -0.786,-24.562 -1.442,-36.832 -0.734,-13.73 -1.988,-27.437 -2.64,-41.171 -0.496,-10.52 -0.77,-21.079 -0.426,-31.594 0.203,-6.168 0.367,-12.246 -0.524,-18.364 -0.375,-2.562 -0.851,-5.234 0.832,-7.691 0.774,-0.309 1.559,-0.805 2.403,-0.93 6.812,-1.007 11.91,-4.254 15.164,-10.55 1.582,-3.063 3.488,-3.457 6.648,-2.407 1.66,0.551 3.203,1.457 4.867,1.981 4.739,1.48 9.481,2.988 14.286,4.215 4.375,1.117 8.046,-0.164 10.644,-4.043 0.801,-1.192 1.695,-2.317 2.805,-3.821 1.859,1.352 3.601,2.368 5.047,3.704 4.281,3.968 9.242,5.988 15.093,6.101 2.618,0.051 5.313,0.238 7.813,0.934 5.348,1.488 9.809,0.73 13.258,-3.934 3.812,-5.168 9.035,-4.648 14.301,-3.242 1.949,0.516 3.703,1.726 5.566,2.574 6.648,3.02 13.543,5.332 19,7.051 5.863,-1.09 10.144,-1.996 14.465,-2.652 3.929,-0.598 7.304,-1.661 9.156,-5.719 2.02,-4.426 5.824,-5.219 10.324,-4.539 3.641,0.547 6.594,2.222 9.364,4.48 3.523,2.867 7.222,4.742 12.093,3.383 4.703,-1.312 8.539,0.875 12.313,4.473 z M 295.973,239.395 c 3.324,0.449 4.922,0.617 6.5,0.882 6.535,1.098 12.843,0.813 18.59,-2.976 0.726,-0.485 1.703,-0.824 2.105,-1.504 0.547,-0.918 0.988,-2.141 0.859,-3.156 -0.214,-1.7 -1.742,-2.411 -3.25,-2.203 -1.691,0.234 -3.527,0.64 -4.922,1.55 -4.324,2.825 -8.75,3.176 -13.347,1.063 -4.422,-2.031 -8.004,-0.684 -11.074,2.566 -3.399,3.602 -6.641,7.352 -10.11,11.211 -4.152,0.36 -7.929,-1.211 -11.715,-2.687 -3.265,-1.278 -6.457,-2.786 -9.789,-3.864 -5.168,-1.672 -7.441,-0.902 -10.746,3.239 -1.273,1.597 -2.277,3.418 -3.625,4.949 -3.844,4.367 -8.64,6.344 -14.148,3.844 -6.016,-2.735 -10.817,-2.993 -15.356,2.941 -2.886,3.77 -7.406,3.77 -11.945,1.016 -2.988,-1.809 -5.633,-4.18 -8.441,-6.282 -2.868,-2.148 -5.196,-2.488 -6.016,-0.789 -1.242,2.578 0.914,3.711 2.461,4.903 3.008,2.32 6.078,4.558 9.215,6.695 6.031,4.109 12.094,3.582 18.082,-0.145 0.992,-0.617 1.887,-1.39 2.875,-2.019 3.414,-2.164 5.457,-1.344 5.941,2.824 0.578,4.93 1,9.922 0.903,14.875 -0.504,26.063 0.476,52.074 2.472,78.051 1.031,13.422 1.86,26.828 1.59,40.309 -0.117,5.828 0.801,11.671 1.133,17.515 0.367,6.426 0.57,12.86 0.906,19.285 0.164,3.211 0.469,6.41 0.711,9.617 0.285,3.79 0.965,7.598 0.785,11.368 -0.418,8.906 1.547,17.465 3.293,26.05 1.235,6.047 2.778,7.165 8.856,7.696 10.168,0.886 12.437,-1.207 12.539,-11.559 0.031,-3.457 -1.313,-6.98 0.472,-10.355 4.7,-0.246 6.032,0.207 6.594,3.308 0.676,3.719 0.832,7.535 1.086,11.321 0.516,7.597 1.391,8.562 8.699,9.168 9.293,0.769 12.348,-1.266 14.196,-10.215 0.695,-3.371 0.605,-6.926 0.652,-10.403 0.035,-2.582 -0.289,-5.168 -0.449,-7.671 7.754,-1.848 25.629,-1.926 33.957,-0.098 0.375,2.601 1.121,5.441 1.133,8.285 0.058,13.156 -0.094,26.316 -0.157,39.477 -0.062,12.582 -0.109,25.164 -0.172,37.746 -0.019,4.386 -0.187,8.422 -4.007,11.894 -2.911,2.649 -2.661,7.086 -1.723,10.828 0.648,2.606 2.602,4.711 5.512,5.059 3.472,0.418 6.98,0.543 10.48,0.699 2.625,0.117 5.258,0.152 7.887,0.11 3.957,-0.063 6.734,-2.598 6.797,-6.446 0.035,-2.301 -0.43,-4.613 -0.723,-7.414 1.824,-0.316 3.434,-0.777 5.059,-0.855 8.621,-0.407 16.886,0.98 24.703,4.84 16.672,8.23 34.097,9.718 52.129,5.691 3.996,-0.891 8.082,-1.402 12.035,-2.43 3.816,-0.992 4.715,-2.383 4.961,-6.195 0.269,-4.215 -0.086,-5.094 -4.008,-6.711 -3.77,-1.551 -7.707,-2.684 -11.547,-4.07 -1.285,-0.461 -2.496,-1.129 -4.707,-2.149 3.977,-2.605 7.063,-4.703 10.223,-6.679 3.062,-1.915 5.308,-4.383 6.836,-7.743 1.793,-3.949 5.277,-8.547 4.933,-10.605 -0.343,-2.059 -1.625,-3.449 -3.105,-3.789 -1,-0.231 -2.27,0.398 -3.336,0.844 -9.012,3.765 -18.754,4.445 -28.152,6.519 -8.2,1.809 -16.254,-0.211 -23.852,-3.789 -4.227,-1.988 -8.652,-3.598 -12.731,-5.844 -10.015,-5.511 -20.55,-6.16 -31.503,-4.097 -0.801,0.152 -1.661,-0.004 -2.438,-0.016 -1.379,-5.883 -1.984,-36.984 -1.059,-53.664 1.434,-0.445 3.04,-1.375 4.629,-1.356 6.719,0.086 13.434,0.426 20.149,0.727 3.707,0.168 5.918,2.316 6.855,5.742 0.532,1.946 0.789,3.985 1.004,5.996 0.375,3.493 0.649,6.996 0.922,10.496 0.203,2.618 1.625,4.34 3.926,5.36 5.562,2.465 11.336,2.742 17.148,1.203 2.442,-0.649 3.891,-2.559 4.231,-5.106 0.344,-2.613 0.496,-5.25 0.871,-7.855 0.191,-1.352 0.676,-2.66 0.984,-3.816 2.5,-0.313 3.059,1.128 3.367,2.476 0.391,1.703 0.407,3.485 0.649,5.227 0.765,5.504 3.668,8.359 9.031,8.742 2.625,0.187 5.266,0.258 7.899,0.199 4.109,-0.094 5.414,-1.23 5.367,-5.18 -0.078,-6.726 -0.52,-13.453 -0.625,-20.179 -0.078,-4.957 -0.059,-9.934 0.246,-14.879 1.125,-18.098 2.683,-36.176 3.496,-54.289 0.641,-14.332 1.84,-28.582 3.672,-42.797 0.187,-1.449 0.312,-2.91 0.39,-4.371 0.84,-15.488 1.672,-30.973 2.489,-46.461 0.351,-6.703 0.136,-13.418 2.07,-20.02 0.883,-3.004 0.379,-6.394 0.637,-9.601 0.14,-1.723 0.316,-3.524 0.965,-5.09 0.332,-0.809 1.679,-1.422 2.675,-1.629 0.446,-0.094 1.328,0.918 1.688,1.602 0.387,0.742 0.453,1.675 0.555,2.543 0.675,5.812 1.214,11.648 2.011,17.441 0.52,3.75 1.282,7.477 2.153,11.16 2.312,9.758 7.953,17.086 15.421,23.817 8.864,7.988 18.743,13.949 29.45,18.687 6.105,2.703 10.16,6.98 11.945,13.152 1.945,6.731 3.445,13.61 4.77,20.496 0.73,3.805 1.355,7.356 4.5,10.137 1.148,1.016 1.554,3.067 1.929,4.731 2.379,10.562 4.485,21.121 4.66,32.07 0.121,7.559 1.532,15.102 2.5,22.637 1.454,11.297 3.055,22.574 4.543,33.867 1.414,10.715 2.77,21.437 4.141,32.16 0.34,2.656 0.414,5.266 -1.43,7.52 -2.222,2.726 -2.218,5.988 -1.957,9.21 0.832,10.196 1.696,20.391 2.703,30.575 0.371,3.761 1.227,7.484 0.008,11.148 -3.09,1.891 -6.387,1.703 -9.547,1.649 -7.644,-0.137 -14.293,3.015 -20.765,6.343 -6.09,3.133 -8.207,10.364 -5.614,16.672 3.145,7.668 7.461,10.461 15.743,9.426 6.949,-0.871 13.812,-2.438 20.746,-3.48 8.953,-1.348 17.941,-2.477 26.914,-3.719 9.851,-1.367 19.699,-2.754 29.547,-4.133 0.867,-0.121 1.754,-0.184 2.605,-0.383 10.492,-2.437 15.414,-12.418 10.906,-22.316 -0.562,-1.242 -1.664,-2.481 -2.839,-3.164 -6.813,-3.977 -13.958,-6.067 -21.782,-3.051 -2.722,1.047 -5.461,2.031 -8.961,1.609 -0.562,-1.551 -1.476,-3.074 -1.629,-4.672 -0.711,-7.566 -1.312,-15.148 -1.765,-22.734 -0.414,-7.004 -0.563,-14.027 -0.906,-21.035 -0.059,-1.129 -0.52,-2.238 -0.86,-3.625 -2.219,-0.684 -4.387,-1.352 -6.383,-1.965 -0.453,-0.664 -0.879,-1.098 -1.082,-1.617 -1.953,-4.942 -2.66,-10.133 -3.25,-15.383 -1.332,-11.91 -3.179,-23.77 -4.242,-35.699 -1.656,-18.61 -5.578,-37.059 -4.168,-55.906 0.195,-2.602 -0.117,-5.278 -0.48,-7.875 -0.657,-4.676 -0.942,-9.118 1.867,-13.43 1.808,-2.781 1.258,-6.18 0.75,-9.418 -0.957,-6.07 -1.719,-12.172 -2.617,-18.25 -0.535,-3.629 0.789,-6.102 3.992,-7.969 4.539,-2.648 8.797,-5.777 13.344,-8.41 6.55,-3.801 10.929,-9.633 15.187,-15.59 3.543,-4.957 4.742,-10.715 4.59,-16.648 -0.191,-7.305 -0.863,-14.543 -2.598,-21.735 -2.722,-11.316 -4.804,-22.785 -7.117,-33.988 1.445,-2.68 4.024,-2.547 6.192,-3.211 3.902,-1.199 7.839,-2.297 11.71,-3.59 1.047,-0.351 2.215,-1.066 2.77,-1.957 0.512,-0.82 0.684,-2.332 0.25,-3.125 -0.453,-0.824 -1.84,-1.633 -2.766,-1.578 -1.379,0.078 -2.718,0.902 -4.062,1.445 -4.356,1.75 -8.731,3.235 -13.535,3.411 -4.59,0.168 -9.051,1.964 -11.067,6.058 -3.465,7.043 -10.074,10.324 -15.722,15.313 -1.422,-0.426 -2.883,-0.645 -4.129,-1.282 -4.637,-2.363 -9.442,-2.82 -14.504,-1.843 -2,0.382 -4.082,0.566 -6.117,0.5 -9.09,-0.305 -17.344,2.453 -24.957,7.086 -3.864,2.347 -7.418,2.91 -11.563,1 -5.035,-2.325 -10.262,-4.239 -15.293,-6.575 -1.762,-0.82 -3.187,-2.371 -4.719,-3.55 2.09,-3.68 4.047,-6.942 5.805,-10.305 1.102,-2.106 0.559,-3.746 -1.152,-4.418 -1.86,-0.738 -3.465,-0.34 -4.629,1.289 -0.848,1.188 -1.524,2.492 -2.289,3.742 -3.028,4.942 -7.567,8.039 -12.735,10.328 -4.039,1.793 -7.851,1.821 -11.449,-1.293 -1.754,-1.515 -3.883,-2.605 -5.867,-3.843 -3.605,-2.25 -7.535,-3.567 -11.703,-2.289 -3.66,1.125 -6.168,-0.293 -8.695,-2.579 -3.598,-3.253 -7.977,-4.601 -12.743,-5.293 -5.777,-0.835 -10.336,0.997 -14.113,5.219 -1.359,1.524 -2.66,3.102 -4.09,4.77 -1.375,0.238 -2.859,0.324 -4.23,0.765 -10.606,3.403 -20.254,0.77 -29.285,-4.851 -4.2,-2.617 -8.661,-3.285 -13.399,-3.387 -3.422,-0.074 -6.34,0.813 -8.531,3.594 -0.723,0.918 -1.566,1.742 -2.328,2.629 -2.082,2.429 -4.645,3.32 -7.836,2.797 -4.328,-0.715 -8.672,-1.461 -13.039,-1.797 -5.153,-0.395 -8.582,-3.043 -12.41,-8.992" /><path
         id="path16"
         style="fill:#231f20;fill-opacity:1;fill-rule:nonzero;stroke:none"
         d="m 402.906,212.277 c 2.973,-0.175 5.379,-2.902 5.211,-5.906 -0.129,-2.308 -2.242,-4.246 -4.687,-4.301 -2.555,-0.054 -4.66,2.934 -4.485,6.364 0.114,2.101 2.02,3.957 3.961,3.843" /><path
         id="path18"
         style="fill:#231f20;fill-opacity:1;fill-rule:nonzero;stroke:none"
         d="m 547.207,214.352 c -0.109,-0.872 0.012,-1.563 -0.277,-1.95 -1.012,-1.355 -2.043,-2.746 -3.297,-3.863 -1.371,-1.223 -3.106,-1.449 -4.731,-0.398 -1.515,0.984 -1.797,3.672 -0.687,5.414 1.555,2.445 4.004,3.574 6.531,2.703 0.981,-0.336 1.738,-1.324 2.461,-1.906" /><path
         id="path20"
         style="fill:#231f20;fill-opacity:1;fill-rule:nonzero;stroke:none"
         d="m 350.77,205.508 c -0.051,-3.606 -2.125,-5.801 -5.18,-5.477 -2.055,0.219 -3.485,2.071 -3.32,4.293 0.214,2.836 2.125,4.848 4.89,5.145 1.906,0.207 3.645,-1.699 3.61,-3.961" /><path
         id="path22"
         style="fill:#231f20;fill-opacity:1;fill-rule:nonzero;stroke:none"
         d="m 463.09,212.355 c -0.891,-3.429 -2.457,-5.777 -4.985,-7.449 -1.339,-0.883 -3.886,0.496 -4.003,2.133 -0.262,3.738 2.218,7.164 5.789,7.359 1.043,0.055 2.168,-1.347 3.199,-2.043" /><path
         id="path24"
         style="fill:#231f20;fill-opacity:1;fill-rule:nonzero;stroke:none"
         d="m 509.223,218.328 c 2.246,0.184 3.925,-2.223 3.343,-4.176 -0.851,-2.851 -3.16,-4.011 -5.699,-4.574 -0.851,-0.187 -2.312,0.594 -2.875,1.379 -0.551,0.766 -0.664,2.215 -0.351,3.16 0.902,2.746 3.238,3.801 5.582,4.211" /><path
         id="path26"
         style="fill:#231f20;fill-opacity:1;fill-rule:nonzero;stroke:none"
         d="m 579.066,209.977 c 0.266,-3.86 -3.746,-6.43 -6.859,-5.094 -0.258,0.109 -0.496,0.332 -0.676,0.555 -1.074,1.343 -0.785,2.773 0.012,4.05 1.102,1.762 2.488,3.61 4.844,2.895 1.183,-0.36 2.039,-1.801 2.679,-2.406" /><path
         id="path28"
         style="fill:#231f20;fill-opacity:1;fill-rule:nonzero;stroke:none"
         d="m 489.105,234.305 c 0.993,-0.684 2.274,-1.125 2.719,-1.996 0.438,-0.856 0.27,-2.235 -0.078,-3.223 -0.621,-1.773 -2.039,-2.738 -3.98,-2.934 -1.821,-0.183 -4.172,0.879 -4.149,2.34 0.02,1.309 0.551,2.903 1.43,3.824 0.914,0.965 2.512,1.278 4.058,1.989" /><path
         id="path30"
         style="fill:#231f20;fill-opacity:1;fill-rule:nonzero;stroke:none"
         d="m 202.18,239.379 c 1.043,-1.113 2.109,-1.785 2.425,-2.715 0.336,-0.996 0.122,-2.269 -0.125,-3.355 -0.652,-2.883 -2.269,-4.223 -3.91,-3.438 -2.144,1.024 -3.394,3.754 -2.222,5.817 0.777,1.367 2.328,2.292 3.832,3.691" /><path
         id="path32"
         style="fill:#231f20;fill-opacity:1;fill-rule:nonzero;stroke:none"
         d="m 276.719,231.699 c 0.066,-3.418 -2.461,-6.375 -4.547,-6.09 -1.871,0.262 -3.606,2.258 -3.703,4.262 -0.106,2.242 2.207,4.602 4.523,4.094 1.469,-0.32 2.723,-1.625 3.727,-2.266" /><path
         id="path34"
         style="fill:#231f20;fill-opacity:1;fill-rule:nonzero;stroke:none"
         d="m 553.512,239.324 c 0.453,-0.312 1.765,-0.75 2.101,-1.578 0.325,-0.808 -0.32,-2.027 -0.601,-3.047 -0.063,-0.234 -0.383,-0.406 -0.602,-0.59 -2.789,-2.367 -4.617,-2.773 -6.906,-1.265 -0.578,0.383 -1.125,1.441 -1.035,2.101 0.371,2.746 2.929,4.399 7.043,4.379" /><path
         id="path36"
         style="fill:#231f20;fill-opacity:1;fill-rule:nonzero;stroke:none"
         d="m 370.133,234.34 c 0.824,-0.785 2.5,-1.672 2.984,-2.996 0.852,-2.309 -1.488,-5.285 -4.039,-5.574 -1.656,-0.188 -2.75,0.863 -3.101,2.386 -0.629,2.746 1.101,5.657 4.156,6.184" /><path
         id="path38"
         style="fill:#231f20;fill-opacity:1;fill-rule:nonzero;stroke:none"
         d="m 438.402,218.047 c -0.246,-2.387 -2.461,-4.406 -4.66,-4.25 -1.742,0.121 -3.355,1.832 -3.265,3.457 0.171,3.148 2.484,5.871 4.488,5.285 1.961,-0.574 3.617,-2.738 3.437,-4.492" /><path
         id="path40"
         style="fill:#231f20;fill-opacity:1;fill-rule:nonzero;stroke:none"
         d="m 520.973,241.469 c 1.718,-0.145 3.445,-2.434 3.367,-4.469 -0.078,-1.977 -1.996,-3.629 -4.137,-3.559 -1.789,0.055 -3.433,1.653 -3.371,3.274 0.094,2.473 2.219,4.914 4.141,4.754" /><path
         id="path42"
         style="fill:#231f20;fill-opacity:1;fill-rule:nonzero;stroke:none"
         d="m 234.914,233.813 c -0.043,-2.461 -2.059,-4.661 -4.332,-4.438 -1.531,0.145 -2.652,1.145 -2.836,2.801 -0.266,2.449 1.527,4.664 3.875,4.887 1.649,0.156 3.328,-1.5 3.293,-3.25" /><path
         id="path44"
         style="fill:#231f20;fill-opacity:1;fill-rule:nonzero;stroke:none"
         d="m 392.688,223.977 c -0.176,-2.754 -2.168,-4.692 -3.954,-4.539 -1.617,0.136 -2.832,1.796 -2.738,3.742 0.121,2.433 1.934,4.437 3.586,3.636 1.348,-0.652 2.316,-2.086 3.106,-2.839" /><path
         id="path46"
         style="fill:#231f20;fill-opacity:1;fill-rule:nonzero;stroke:none"
         d="m 497.727,251.336 c 2.304,-0.074 4.175,-2.285 3.933,-4.648 -0.168,-1.649 -1.722,-2.973 -3.555,-3.036 -2.371,-0.082 -4.031,1.926 -3.789,4.586 0.157,1.746 1.704,3.153 3.411,3.098" /><path
         id="path48"
         style="fill:#231f20;fill-opacity:1;fill-rule:nonzero;stroke:none"
         d="m 259.746,208.246 c -1.023,0.766 -1.922,1.129 -2.308,1.785 -1.458,2.489 0.351,6.266 3.171,6.598 0.7,0.082 1.688,-0.402 2.196,-0.949 1.379,-1.492 1.027,-3.278 0.004,-4.731 -0.754,-1.07 -2,-1.793 -3.063,-2.703" /><path
         id="path50"
         style="fill:#231f20;fill-opacity:1;fill-rule:nonzero;stroke:none"
         d="m 342.902,226.305 c -0.675,0.84 -2.175,1.898 -2.457,3.222 -0.453,2.129 1.926,4.145 4.453,4.067 1.532,-0.047 2.75,-0.93 2.903,-2.586 0.203,-2.223 -1.867,-4.457 -4.899,-4.703" /><path
         id="path52"
         style="fill:#231f20;fill-opacity:1;fill-rule:nonzero;stroke:none"
         d="m 448.035,237.648 c 0.149,-2.265 -1.601,-4.625 -3.758,-5.058 -1.461,-0.297 -3.355,1.207 -3.683,2.918 -0.414,2.176 1.429,4.058 4.222,4.308 1.543,0.137 3.137,-0.933 3.219,-2.168" /><path
         id="path54"
         style="fill:#231f20;fill-opacity:1;fill-rule:nonzero;stroke:none"
         d="m 417.086,229.102 c 0.227,-2.856 -1.984,-5.196 -4.211,-5.258 -1.211,-0.031 -2.555,1.539 -2.531,2.969 0.039,2.335 1.433,4.656 3.121,4.394 1.418,-0.223 2.672,-1.516 3.621,-2.105" /><path
         id="path56"
         style="fill:#231f20;fill-opacity:1;fill-rule:nonzero;stroke:none"
         d="m 317.621,212.777 c -0.476,0.27 -1.383,0.508 -1.812,1.094 -0.418,0.574 -0.473,1.508 -0.442,2.274 0.02,0.507 0.403,1.058 0.758,1.48 1.941,2.305 4.184,2.973 5.801,1.691 0.383,-0.304 0.746,-0.933 0.726,-1.398 -0.109,-2.59 -2.14,-4.719 -5.031,-5.141" /><path
         id="path58"
         style="fill:#231f20;fill-opacity:1;fill-rule:nonzero;stroke:none"
         d="m 292.125,200.363 c -0.559,0.707 -1.789,1.598 -1.996,2.684 -0.324,1.699 0.426,3.351 2.293,4.008 1.305,0.461 3.719,-1.184 3.887,-2.532 0.218,-1.722 -1.594,-3.82 -4.184,-4.16" /><path
         id="path60"
         style="fill:#231f20;fill-opacity:1;fill-rule:nonzero;stroke:none"
         d="m 223.918,214.945 c -1.207,-1.297 -1.91,-2.621 -2.98,-3.062 -1.633,-0.672 -3.254,0.961 -3.219,2.859 0.035,1.926 1.578,3.715 3.074,3.16 1.09,-0.402 1.844,-1.691 3.125,-2.957" /><path
         id="path62"
         style="fill:#231f20;fill-opacity:1;fill-rule:nonzero;stroke:none"
         d="m 371.492,208.148 c -0.304,0.594 -1.152,1.497 -1.176,2.422 -0.05,2.246 1.676,3.66 4.079,3.243 0.773,-0.133 1.945,-1.489 1.894,-2.208 -0.172,-2.324 -1.988,-3.664 -4.797,-3.457" /><path
         id="path64"
         style="fill:#231f20;fill-opacity:1;fill-rule:nonzero;stroke:none"
         d="m 284.883,213.406 c -1.09,1.274 -2.078,1.965 -2.367,2.875 -0.512,1.614 1.187,3.004 3.23,2.867 1.418,-0.093 2.223,-1.16 1.863,-2.246 -0.375,-1.144 -1.531,-2.031 -2.726,-3.496" /><path
         id="path66"
         style="fill:#231f20;fill-opacity:1;fill-rule:nonzero;stroke:none"
         d="m 570.309,282.695 c -0.036,-0.406 0.031,-2.488 -0.45,-4.437 -0.211,-0.844 -1.531,-1.934 -2.375,-1.957 -0.925,-0.031 -2.199,0.84 -2.742,1.687 -0.57,0.899 -0.531,2.227 -0.633,3.379 -0.257,2.906 -0.254,5.848 -0.699,8.719 -2.582,16.73 -16.828,25.445 -31.719,22.836 -3.738,-0.656 -7.511,-1.551 -11.269,-1.563 -4.219,-0.015 -8.043,-0.918 -11.899,-2.476 -8.05,-3.25 -14.855,-8.117 -20.257,-14.903 -2.914,-3.664 -5.668,-7.453 -8.586,-11.113 -0.883,-1.113 -2.012,-2.058 -3.149,-2.926 -0.343,-0.261 -1.238,-0.214 -1.605,0.063 -0.641,0.48 -1.488,1.246 -1.485,1.891 0.004,1.097 0.375,2.339 0.985,3.261 6.148,9.305 12.824,18.149 22.347,24.364 7.961,5.195 16.387,8.851 26.196,8.597 2.875,-0.07 5.793,0.668 8.656,1.211 15.168,2.871 28.801,-6.105 34.328,-17.34 3.625,-7.371 4.024,-8.402 4.356,-19.293" /></g></g></svg>