<?xml version="1.0" encoding="UTF-8" standalone="no"?>
<svg
   xmlns:dc="http://purl.org/dc/elements/1.1/"
   xmlns:cc="http://creativecommons.org/ns#"
   xmlns:rdf="http://www.w3.org/1999/02/22-rdf-syntax-ns#"
   xmlns:svg="http://www.w3.org/2000/svg"
   xmlns="http://www.w3.org/2000/svg"
   viewBox="0 0 100 100"
   height="100"
   width="100"
   xml:space="preserve"
   version="1.1"
   id="svg2"><metadata
     id="metadata8"><rdf:RDF><cc:Work
         rdf:about=""><dc:format>image/svg+xml</dc:format><dc:type
           rdf:resource="http://purl.org/dc/dcmitype/StillImage" /></cc:Work></rdf:RDF></metadata><defs
     id="defs6" /><g
     transform="matrix(1.25,0,0,-1.25,0,100)"
     id="g10"><g
       transform="scale(0.1,0.1)"
       id="g12"><path
         id="path14"
         style="fill:#231f20;fill-opacity:1;fill-rule:nonzero;stroke:none"
         d="m 373.48,481.137 c 1.977,2.379 1.997,4.523 0.801,6.629 -0.336,0.589 -1.449,0.933 -2.238,0.988 -0.387,0.027 -1.133,-0.813 -1.215,-1.336 -0.363,-2.316 -0.199,-4.531 2.652,-6.281 z m -1.265,13.519 c 0.433,-0.129 0.898,-0.191 1.293,-0.398 6.781,-3.574 6.91,-7.785 4.078,-15.004 -1.227,-3.129 -4.633,-3.902 -7.371,-1.895 -1.238,0.907 -2.453,2.18 -3.043,3.559 -1.086,2.551 -1.133,5.289 -0.109,7.98 0.988,2.594 1.964,5.153 5.152,5.758" /><path
         id="path16"
         style="fill:#231f20;fill-opacity:1;fill-rule:nonzero;stroke:none"
         d="m 259.977,503.781 c -0.762,-0.922 -1.645,-1.812 -2.258,-2.859 -0.149,-0.258 0.457,-1.234 0.929,-1.504 0.457,-0.266 1.317,-0.27 1.782,-0.004 1.355,0.766 1.656,2.043 0.906,3.391 -0.188,0.332 -0.672,0.496 -1.359,0.976 z m 7.097,-1.484 c -0.531,-1.633 -0.797,-3.469 -1.672,-4.949 -3.011,-5.094 -9.75,-4.825 -12.589,0.441 -0.391,0.731 -0.614,1.793 -0.403,2.559 0.418,1.488 0.879,3.179 1.899,4.238 1.859,1.93 4.046,3.582 6.261,5.117 1.778,1.238 3.309,0.629 4.25,-1.512 0.809,-1.828 1.438,-3.734 2.254,-5.894" /><path
         id="path18"
         style="fill:#231f20;fill-opacity:1;fill-rule:nonzero;stroke:none"
         d="m 449.77,267.246 c 5.007,2.18 9.953,2.277 15.691,2.359 -2.035,-3.414 -5.094,-2.66 -7.375,-3.289 -4.844,-1.332 -5.125,-1.117 -8.316,0.93" /><path
         id="path20"
         style="fill:#231f20;fill-opacity:1;fill-rule:nonzero;stroke:none"
         d="m 586.695,304.281 c 5.25,-1.504 9.129,-4.57 13.61,-8.152 -3.742,-1.344 -5.621,1.184 -7.782,2.148 -4.585,2.047 -4.668,2.395 -5.828,6.004" /><path
         id="path22"
         style="fill:#231f20;fill-opacity:1;fill-rule:nonzero;stroke:none"
         d="m 353.805,262.781 c -4.2,-1.093 -8.223,-0.195 -12.09,1.715 -0.332,0.164 -0.352,1.231 -0.274,1.844 0.043,0.316 0.606,0.586 0.965,0.824 0.18,0.117 0.461,0.195 0.657,0.145 3.667,-1.016 7.332,-2.051 10.996,-3.082 -0.086,-0.481 -0.172,-0.965 -0.254,-1.446" /><path
         id="path24"
         style="fill:#231f20;fill-opacity:1;fill-rule:nonzero;stroke:none"
         d="m 565.793,314.707 c -3.586,1.43 -6.547,3.293 -9.445,4.988 0.031,1.914 1.211,2.086 2.34,1.965 4.789,-0.5 5.703,-1.383 7.105,-6.953" /><path
         id="path26"
         style="fill:#231f20;fill-opacity:1;fill-rule:nonzero;stroke:none"
         d="m 527.168,280.262 c -0.637,-1.184 -0.832,-2.11 -1.242,-2.219 -3.16,-0.84 -6.289,-2.426 -9.496,-1.148 -0.66,1.546 0.215,2.222 0.98,2.406 3.039,0.719 6.149,0.832 9.758,0.961" /><path
         id="path28"
         style="fill:#231f20;fill-opacity:1;fill-rule:nonzero;stroke:none"
         d="m 436.504,267.793 c -3.762,-3.113 -7.965,-3.461 -13.883,-2.859 5.164,2.593 8.832,3.375 13.883,2.859" /><path
         id="path30"
         style="fill:#231f20;fill-opacity:1;fill-rule:nonzero;stroke:none"
         d="m 560.09,282.746 c -3.735,-3.152 -9.328,-3.152 -12.633,-0.238 4.309,1.644 8.477,0.305 12.633,0.238" /><path
         id="path32"
         style="fill:#231f20;fill-opacity:1;fill-rule:nonzero;stroke:none"
         d="m 405.875,262.328 c -4.32,-1.152 -8.742,-2.656 -12.723,0.61 4.309,1.21 8.551,1.453 12.723,-0.61" /><path
         id="path34"
         style="fill:#231f20;fill-opacity:1;fill-rule:nonzero;stroke:none"
         d="m 498.16,274.023 c -0.109,-0.414 -0.168,-1.168 -0.34,-1.195 -3.8,-0.625 -7.605,-1.187 -11.422,-1.687 -0.304,-0.039 -0.992,0.531 -0.964,0.754 0.078,0.601 0.293,1.507 0.714,1.691 2.653,1.144 6.418,1.207 12.012,0.437" /><path
         id="path36"
         style="fill:#231f20;fill-opacity:1;fill-rule:nonzero;stroke:none"
         d="m 271.934,296.438 c -0.645,-0.563 -0.989,-1.106 -1.282,-1.079 -2.773,0.243 -5.242,1.332 -7.343,3.125 -0.344,0.293 -0.289,1.239 -0.161,1.829 0.067,0.3 0.696,0.636 1.094,0.675 0.653,0.067 1.391,0.047 1.981,-0.203 2.105,-0.883 4.156,-1.902 5.711,-4.347" /><path
         id="path38"
         style="fill:#231f20;fill-opacity:1;fill-rule:nonzero;stroke:none"
         d="m 327.676,269.438 c -1.321,-3.032 -3.504,-1.559 -5.25,-1.415 -1.86,0.157 -3.531,0.856 -4.031,2.934 -0.082,0.336 0.199,0.891 0.488,1.148 0.285,0.25 0.867,0.458 1.187,0.34 2.496,-0.933 4.957,-1.949 7.606,-3.007" /><path
         id="path40"
         style="fill:#231f20;fill-opacity:1;fill-rule:nonzero;stroke:none"
         d="m 308.645,276.266 c -0.782,-0.153 -1.711,-0.657 -2.313,-0.395 -2.352,1.024 -5.504,0.805 -6.945,4.141 4.054,1.765 6.504,-0.778 9.258,-3.746" /><path
         id="path42"
         style="fill:#231f20;fill-opacity:1;fill-rule:nonzero;stroke:none"
         d="m 289.707,283.871 c -4.414,1.293 -7.051,2.91 -9.129,6.59 1.445,0.078 2.41,0.414 3.09,0.113 2.492,-1.109 4.797,-2.515 6.039,-6.703" /><path
         id="path44"
         style="fill:#231f20;fill-opacity:1;fill-rule:nonzero;stroke:none"
         d="m 382.145,263.891 c -3.997,-2.543 -7.844,-2.118 -12.098,0.714 0.965,0.426 1.695,1.055 2.328,0.973 2.863,-0.379 5.703,-0.961 9.77,-1.687" /><path
         id="path46"
         style="fill:#231f20;fill-opacity:1;fill-rule:nonzero;stroke:none"
         d="m 571.125,284.402 c 2.262,2.86 2.547,2.871 10.086,0.493 -0.844,-0.684 -1.414,-1.547 -2.039,-1.586 -2.699,-0.168 -5.34,0.339 -8.047,1.093" /><path
         id="path48"
         style="fill:#231f20;fill-opacity:1;fill-rule:nonzero;stroke:none"
         d="m 587.195,286.828 c 4.207,1.395 7.09,1.965 10.7,0.699 -0.954,-0.906 -1.489,-1.871 -2.122,-1.937 -2.449,-0.262 -5.05,-1.297 -8.578,1.238" /><path
         id="path50"
         style="fill:#231f20;fill-opacity:1;fill-rule:nonzero;stroke:none"
         d="m 541.227,329.895 c 1.718,0.132 2.89,0.593 3.597,0.207 1.926,-1.063 2.77,-2.731 1.649,-4.981 -2.532,0.281 -3.746,1.793 -5.246,4.774" /><path
         id="path52"
         style="fill:#231f20;fill-opacity:1;fill-rule:nonzero;stroke:none"
         d="m 577.953,308.016 c -2.316,0.656 -3.961,1.57 -4.859,3.879 1.824,1.261 3.281,0.406 4.636,-0.618 1.004,-0.754 1.161,-1.785 0.223,-3.261" /><path
         id="path54"
         style="fill:#231f20;fill-opacity:1;fill-rule:nonzero;stroke:none"
         d="m 464.02,502.379 c -1.348,-2.543 -0.079,-4.293 1.601,-5.887 0.266,-0.254 0.988,-0.422 1.203,-0.25 0.453,0.36 0.977,0.949 1.008,1.477 0.16,2.57 -0.883,4.289 -3.812,4.66 z m 8.035,-6.371 c 0.254,-2.785 -2.035,-4.688 -4.825,-4.012 -3.664,0.891 -8.117,6.203 -8.199,9.969 -0.015,0.832 0.317,1.828 0.824,2.492 1.833,2.398 5.711,2.656 7.895,0.648 1.297,-1.191 4.129,-7.175 4.305,-9.097" /><path
         id="path56"
         style="fill:#231f20;fill-opacity:1;fill-rule:nonzero;stroke:none"
         d="m 452.621,394.496 c 0.656,-9.824 2.07,-19.535 3.344,-29.277 0.078,-0.582 0.133,-1.168 0.195,-1.754 1.168,0.711 2.324,1.437 3.461,2.187 -0.406,5.02 -0.902,10.024 -1.363,15.039 -0.684,7.399 -1.645,14.786 -1.949,22.192 -1.25,-1.621 -2.575,-3.195 -3.934,-4.738 0.082,-1.215 0.164,-2.43 0.246,-3.649" /><path
         id="path58"
         style="fill:#231f20;fill-opacity:1;fill-rule:nonzero;stroke:none"
         d="m 614.109,280.352 c -4.5,-0.766 -9.011,-1.797 -13.543,-1.961 -11.464,-0.426 -22.683,-2.586 -33.992,-4.137 -9.953,-1.367 -19.886,-2.863 -29.832,-4.301 -9.043,-1.305 -18.086,-2.609 -27.129,-3.906 -1.355,-0.195 -2.722,-0.473 -4.082,-0.465 -7.84,0.043 -15.394,-1.809 -23.039,-3.191 -14.137,-2.555 -28.219,-5.45 -42.652,-6.211 -10.254,-0.539 -20.457,-1.996 -30.699,-2.856 -3.856,-0.324 -7.758,-0.168 -11.641,-0.136 -5.477,0.042 -10.953,0.097 -16.426,0.296 -2.492,0.094 -4.965,0.614 -7.457,0.825 -7.281,0.609 -14.562,1.351 -21.859,1.683 -10.113,0.453 -19.934,2.5 -29.594,5.27 -12.09,3.468 -23.703,8.301 -35.039,13.722 -8.66,4.145 -17.168,8.692 -24.629,14.778 -5.828,4.758 -11.187,10.09 -16.723,15.203 -1.82,1.683 -3.531,3.476 -5.293,5.219 0.149,0.367 0.297,0.73 0.45,1.097 4.168,-0.976 8.32,-2.011 12.504,-2.914 2.671,-0.578 5.367,-1.121 8.082,-1.41 7.972,-0.848 15.738,-2.59 23.48,-4.668 4.375,-1.172 8.996,-1.766 13.535,-1.934 9.805,-0.371 19.606,-1.23 29.438,-0.082 10.457,1.223 20.988,0.852 31.484,0.79 18.297,-0.106 36.547,0.566 54.766,2.273 2.953,0.277 5.929,0.426 8.898,0.48 9.188,0.168 18.11,2.161 27.121,3.641 12.875,2.113 25.231,6.305 37.887,9.285 6.652,1.571 13.324,3.168 19.801,5.324 5.601,1.868 11.121,4.188 16.32,6.973 3.629,1.945 6.406,5.172 6.676,9.777 0.047,0.872 0.285,1.735 0.469,2.778 1.136,-0.289 2.082,-0.364 2.875,-0.754 7.566,-3.754 15.16,-7.453 22.64,-11.371 11.52,-6.039 23.078,-12.024 34.387,-18.438 7.734,-4.386 15.125,-9.39 22.551,-14.297 1.859,-1.226 3.543,-2.941 4.836,-4.769 3.226,-4.563 1.218,-10.621 -4.571,-11.613 z m -385.347,38.91 c -0.84,-0.336 -2.254,0.062 -3.117,0.597 -11.875,7.309 -23.856,14.461 -34.332,23.797 -3.161,2.817 -5.129,6.008 -6.34,10.215 -2.809,9.789 -3.977,19.645 -3.852,29.789 0.07,5.926 -0.617,11.867 -1.047,17.793 -0.363,5.074 0.403,10.004 1.375,14.965 1.977,10.117 4.856,19.957 8.203,29.695 3.434,9.977 7.731,19.489 13.551,28.309 2.891,4.375 5.621,8.855 8.43,13.285 0.242,0.387 0.457,0.809 0.773,1.133 7.668,7.832 15.344,15.652 24.981,21.168 6.148,3.515 12.222,7.164 18.437,10.555 7.817,4.265 15.727,8.429 24.285,10.988 8.969,2.676 18.071,4.914 27.114,7.336 0.437,0.121 0.886,0.254 1.34,0.285 10.234,0.711 20.472,1.41 31.058,2.133 0.649,-2.95 1.133,-5.137 1.719,-7.793 -1.117,-0.676 -2.442,-1.465 -3.754,-2.278 -11.277,-6.984 -22.402,-14.16 -31.77,-23.707 -4.48,-4.566 -9.035,-9.062 -13.507,-13.64 -6.571,-6.723 -10.204,-15.192 -13.02,-23.86 -2.109,-6.496 -2.09,-13.484 -1.969,-20.382 0.125,-7.075 -0.195,-14.153 -0.257,-21.235 -0.114,-13.012 -1.016,-26.043 -0.598,-39.023 0.269,-8.496 0.144,-16.813 -0.824,-25.25 -0.723,-6.313 -0.121,-12.778 -0.121,-19.172 0,-9.824 0.011,-19.652 -0.051,-29.477 -0.008,-1.554 -0.395,-3.101 -0.645,-4.922 -1.336,-0.07 -2.422,-0.242 -3.492,-0.164 -12.18,0.852 -23.82,4.106 -35.293,8.071 -2.379,0.824 -4.621,1.843 -7.277,0.789 z m 118.195,213.426 c 7.758,-2.512 15.883,-2.125 23.996,-0.133 2.145,0.527 4.047,-0.094 5.883,-1.176 5.504,-3.25 10.969,-6.578 16.551,-9.688 7.758,-4.316 15.781,-8.144 22.777,-13.746 1.938,-1.55 4.332,-2.535 6.531,-3.754 6.141,-3.398 11,-8.187 14.719,-14.066 1.445,-2.285 2.691,-4.855 3.34,-7.465 1.742,-7.062 3.527,-14.117 4.73,-21.285 1.645,-0.676 3.262,-1.437 4.864,-2.27 -0.934,6.997 -2.524,13.883 -3.868,20.817 -2.472,12.742 -9.695,21.945 -20.781,28.269 -5.363,3.055 -10.73,6.047 -15.519,10.012 -1.719,1.426 -3.903,2.36 -5.981,3.277 -8.176,3.61 -15.609,8.54 -23.34,12.938 -0.539,0.309 -0.875,0.973 -1.605,1.82 1.051,0.645 1.961,1.688 2.793,1.633 9.781,-0.652 19.551,-1.469 29.32,-2.254 0.453,-0.035 0.906,-0.14 1.348,-0.262 12.551,-3.398 25.133,-6.699 37.633,-10.281 2.797,-0.801 5.343,-2.531 7.953,-3.929 6.844,-3.665 13.648,-7.403 20.5,-11.055 1.406,-0.746 2.91,-1.34 4.422,-1.856 14.465,-4.925 25.218,-14.531 33.078,-27.277 2.566,-4.168 3.586,-9.344 5.027,-14.144 2.141,-7.106 2.059,-14.379 1.348,-21.715 -0.571,-5.903 -1.024,-11.844 -1.039,-17.77 -0.032,-11.223 -1.328,-22.34 -2.278,-33.488 -0.156,-1.817 -0.382,-3.649 -0.304,-5.461 0.465,-10.945 0.293,-21.918 1.476,-32.836 0.297,-2.77 0.449,-5.465 2.535,-7.602 0.305,-0.312 0.473,-0.777 0.664,-1.187 3.282,-7.066 2.59,-11.75 -4.617,-15.395 -4.453,-2.25 -9.168,-4.136 -13.961,-5.527 -11.398,-3.305 -22.906,-6.246 -34.386,-9.273 -2.399,-0.629 -4.871,-0.981 -8.207,-1.637 -0.504,8.301 -1.121,16.219 -1.579,24.004 -1.015,-0.528 -2.042,-1.035 -3.093,-1.504 0.183,-3.035 0.383,-6.063 0.652,-9.09 0.426,-4.848 0.195,-9.547 -1.156,-14.383 -4.332,-2.203 -9.102,-2.722 -13.789,-3.562 -15.117,-2.699 -30.403,-3.305 -45.707,-3.989 -13.489,-0.605 -26.961,-0.66 -40.442,-0.39 -2.511,0.051 -5.019,0.344 -7.527,0.402 -2.508,0.063 -5.063,0.266 -7.52,-0.109 -15.914,-2.418 -31.867,-2.367 -47.859,-1.02 -5.043,0.422 -9.844,1.657 -14.562,3.457 -0.043,4.52 -0.094,8.164 -0.11,11.809 -0.062,13.476 -0.199,26.953 -0.121,40.426 0.02,3.867 0.504,7.757 1.067,11.59 0.742,5.042 0.503,10.035 -0.243,15.023 -0.715,4.777 -0.656,9.539 -0.199,14.344 0.414,4.304 0.578,8.636 0.754,12.961 0.211,5.25 0.336,10.504 0.457,15.757 0.148,6.391 0.457,12.786 0.32,19.172 -0.136,6.457 0.86,12.762 2.094,19.024 0.473,2.402 1.969,4.597 2.93,6.914 3.652,8.801 8.965,16.355 16.23,22.601 4.153,3.571 7.973,7.528 11.942,11.313 0.828,0.789 1.543,1.742 2.48,2.359 8.567,5.629 15.871,13.078 25.297,17.477 1.379,0.644 2.469,1.898 4.082,3.18 z m 1.035,8.472 c 4.242,1.621 8.442,3.617 12.852,4.485 5.312,1.043 10.394,0.035 13.832,-5.598 -0.735,-0.621 -1.285,-1.457 -1.996,-1.625 -5.075,-1.184 -10.094,-3.211 -15.364,-2.606 -3.691,0.426 -7.707,0.465 -11.207,3.313 0.758,0.848 1.196,1.769 1.883,2.031 z M 621.57,296.59 c -1.578,1.902 -3.55,3.578 -5.613,4.957 -5.121,3.43 -10.332,6.734 -15.637,9.875 -3.711,2.203 -7.644,4.035 -11.457,6.074 -1.203,0.649 -2.32,1.453 -3.504,2.145 -2.949,1.726 -5.879,3.488 -8.882,5.117 -3.207,1.746 -6.489,3.355 -9.739,5.023 -9.953,5.117 -19.894,10.258 -29.875,15.328 -1.617,0.825 -3.347,1.52 -5.105,1.954 -3.676,0.906 -5.301,3.621 -5.781,6.89 -0.829,5.629 -1.532,11.313 -1.715,16.992 -0.235,7.063 -0.059,14.153 0.258,21.215 0.238,5.242 1.168,10.445 1.464,15.688 0.793,13.91 1.36,27.832 2.125,41.742 0.321,5.769 -0.359,11.426 -1.468,17.035 -1.328,6.742 -2.899,13.512 -6.84,19.246 -8.746,12.715 -19.918,22.504 -34.852,27.442 -0.863,0.285 -1.73,0.597 -2.531,1.027 -7.258,3.863 -14.508,7.746 -21.746,11.644 -4.024,2.164 -8.031,4.227 -12.563,5.329 -9.535,2.316 -18.984,4.992 -28.476,7.496 -6.434,1.699 -12.988,2.496 -19.629,2.832 -6.816,0.339 -13.621,0.957 -20.207,1.437 -6.781,8.391 -14.945,9.649 -24.262,6.102 -2.562,-0.973 -5.14,-1.907 -7.738,-2.774 -1.504,-0.5 -3.109,-1.293 -4.59,-1.148 -8.047,0.789 -15.949,-0.926 -23.934,-1.11 -6.628,-0.156 -13.144,-1.148 -19.675,-2.437 -17.684,-3.492 -34.039,-10.332 -49.75,-18.895 -6.211,-3.386 -12.262,-7.062 -18.364,-10.644 -1.375,-0.809 -2.746,-1.668 -3.957,-2.692 -3.492,-2.949 -6.961,-5.929 -10.328,-9.015 -4.719,-4.332 -9.293,-8.789 -12.301,-14.602 -1.046,-2.015 -2.535,-3.8 -3.742,-5.742 -7.136,-11.465 -13.601,-23.172 -17.39,-36.328 -2.528,-8.781 -4.942,-17.57 -7.082,-26.449 -1.297,-5.375 -1.938,-10.758 -1.59,-16.293 0.39,-6.149 1.078,-12.336 0.754,-18.461 -0.657,-12.352 2,-24.074 5.769,-35.629 0.672,-2.063 2.168,-4.117 3.824,-5.543 4.149,-3.563 8.465,-6.977 12.981,-10.063 7.73,-5.289 15.691,-10.238 23.484,-15.433 1.953,-1.305 3.926,-2.277 6.266,-2.527 1.648,-0.172 2.949,-0.926 4.078,-2.235 8.398,-9.722 18.125,-18.043 27.977,-26.222 1.75,-1.454 3.582,-2.86 5.55,-3.985 15.293,-8.726 30.879,-16.699 47.848,-21.93 12.535,-3.863 25.152,-6.558 38.223,-7.425 7.976,-0.532 15.922,-1.469 23.886,-2.207 1.133,-0.106 2.282,-0.118 3.422,-0.141 5.477,-0.109 10.949,-0.266 16.422,-0.281 4.113,-0.016 8.242,-0.047 12.332,0.297 11.844,1 23.668,2.175 35.496,3.308 1.364,0.129 2.711,0.422 4.071,0.621 3.832,0.571 7.652,1.328 11.511,1.657 8.887,0.761 17.649,2.257 26.383,4.015 4.242,0.856 8.535,1.488 12.824,2.094 5.2,0.73 10.422,1.289 15.625,1.98 16.766,2.227 33.535,4.399 50.282,6.747 14.265,2 28.554,3.828 42.937,4.582 3.824,0.199 7.227,1.367 10.441,2.945 8.196,4.019 9.899,12.375 4.09,19.375" /><path
         id="path60"
         style="fill:#231f20;fill-opacity:1;fill-rule:nonzero;stroke:none"
         d="m 399.469,378.082 c 10.808,3.18 21.011,5.414 30.82,9.207 7.781,3.008 13.875,7.992 19.113,13.992 5.903,6.758 9.797,14.828 12.446,23.43 2.535,8.25 1.015,15.82 -4.387,22.457 -6.566,8.074 -15.535,11.73 -25.609,12.875 -3.618,0.406 -7.301,0.285 -10.957,0.281 -8.258,-0.011 -15.606,-2.293 -22.055,-7.82 -5.586,-4.785 -10.606,-10.035 -15.336,-15.606 -2.703,-3.175 -4.645,-6.832 -5.609,-10.871 -2.125,-8.875 -4.247,-17.757 -5.969,-26.714 -0.727,-3.762 -0.778,-7.739 -0.524,-11.575 0.332,-5 1.137,-9.98 1.993,-14.925 0.855,-4.954 1.824,-9.981 5.687,-13.665 4.789,-4.57 9.391,-9.425 14.668,-13.371 5.445,-4.07 11.414,-7.457 18.656,-7.836 4.309,-0.222 8.578,-1.257 12.848,-2.023 5.723,-1.027 11.355,-0.672 16.941,0.836 13.028,3.519 24.332,10.156 34.399,19.039 2.871,2.535 4.437,5.746 5.054,9.469 0.516,3.105 -1.648,5.468 -4.753,4.91 -1.762,-0.32 -3.586,-0.945 -5.09,-1.895 -5.399,-3.402 -10.746,-6.894 -15.969,-10.554 -10.305,-7.211 -21.602,-10.547 -34.18,-9.325 -4.429,0.434 -8.316,1.954 -11.875,4.762 -3.304,2.613 -5.679,5.836 -8.054,9.219 -3.446,4.902 -3.801,10.023 -2.258,15.703 z m 4.668,-3.641 c -1.539,-6.054 1.804,-10.183 5.312,-14.105 5.043,-5.641 11.403,-7.926 19.035,-7.477 6.516,0.379 12.411,1.926 18.192,5.137 7,3.887 13.883,7.797 20.113,12.887 2.231,1.82 5.121,2.937 7.852,4.015 1.41,0.555 3.16,0.567 4.703,0.379 4.719,-0.558 7.316,-3.57 7.336,-8.304 0.019,-5.016 -1.473,-9.453 -5.239,-12.942 -7.918,-7.332 -16.316,-13.957 -26.539,-17.879 -2.769,-1.058 -5.582,-2.019 -8.304,-3.187 -7.66,-3.277 -15.528,-3.375 -23.559,-1.844 -3.586,0.684 -7.187,1.492 -10.812,1.695 -10.957,0.614 -19.356,6.231 -27.047,13.325 -2.352,2.164 -4.367,4.73 -6.867,6.687 -4.973,3.899 -7.586,9.11 -8.758,15.059 -1.86,9.422 -2.961,18.949 -2.953,28.574 0,0.457 -0.051,0.93 0.046,1.367 2.528,11.59 4.02,23.457 8.864,34.434 1.093,2.48 2.398,4.965 4.082,7.062 5.886,7.356 12.765,13.68 20.57,18.996 5.856,3.993 12.313,5.907 19.356,5.95 2.289,0.015 4.601,-0.223 6.855,0.046 10.059,1.196 18.91,-2.164 27.352,-7.07 10.566,-6.141 17.496,-20.484 12.933,-33.062 -1.945,-5.364 -3.644,-10.957 -6.551,-15.786 -3.14,-5.214 -7.3,-9.898 -11.488,-14.375 -5.058,-5.406 -11.266,-9.058 -18.48,-11.324 -4.75,-1.492 -9.266,-3.808 -14.133,-5.097 -3.746,-0.989 -7.488,-1.993 -11.871,-3.161" /><path
         id="path62"
         style="fill:#231f20;fill-opacity:1;fill-rule:nonzero;stroke:none"
         d="m 401.305,397.059 c 1.73,0.375 3.156,0.355 4.215,0.964 4.335,2.512 8.664,5.063 12.8,7.879 4.75,3.235 8.727,7.254 11.828,12.192 3.598,5.726 4.223,12.019 3.762,18.426 -0.351,4.902 -2.851,6.789 -7.66,6.976 -6.879,0.27 -11.258,-3.769 -14.047,-9.226 -3.519,-6.887 -6.371,-14.133 -9.199,-21.344 -1.93,-4.922 -1.836,-10.172 -1.699,-15.867 z m -4.77,0.875 c 0.223,3.406 0.293,6.832 0.719,10.211 0.285,2.238 0.824,4.515 1.691,6.589 3.067,7.34 6.02,14.758 9.586,21.86 4.766,9.492 12.703,12.715 21.953,11.23 4.028,-0.644 6.645,-3.461 7.403,-7.215 1.59,-7.902 1.621,-15.656 -2.508,-23.175 -4.332,-7.895 -10.633,-13.512 -18.152,-18.055 -2.532,-1.527 -5.039,-3.102 -7.539,-4.688 -2.739,-1.738 -5.61,-2.98 -8.946,-2.878 -3.097,0.097 -4.066,0.996 -4.129,4.058 -0.015,0.684 0.047,1.367 0.078,2.051 -0.05,0.004 -0.101,0.008 -0.156,0.012" /></g></g></svg>