<?xml version="1.0" encoding="UTF-8" standalone="no"?>
<svg
   xmlns:dc="http://purl.org/dc/elements/1.1/"
   xmlns:cc="http://creativecommons.org/ns#"
   xmlns:rdf="http://www.w3.org/1999/02/22-rdf-syntax-ns#"
   xmlns:svg="http://www.w3.org/2000/svg"
   xmlns="http://www.w3.org/2000/svg"
   viewBox="0 0 100 100"
   height="100"
   width="100"
   xml:space="preserve"
   version="1.1"
   id="svg2"><metadata
     id="metadata8"><rdf:RDF><cc:Work
         rdf:about=""><dc:format>image/svg+xml</dc:format><dc:type
           rdf:resource="http://purl.org/dc/dcmitype/StillImage" /></cc:Work></rdf:RDF></metadata><defs
     id="defs6" /><g
     transform="matrix(1.25,0,0,-1.25,0,100)"
     id="g10"><g
       transform="scale(0.1,0.1)"
       id="g12"><path
         id="path14"
         style="fill:#171717;fill-opacity:1;fill-rule:nonzero;stroke:none"
         d="m 198.242,383.805 c -0.566,13.031 0.031,23.144 1.219,33.222 0.191,1.641 0.656,3.254 0.977,4.875 1.863,9.578 3.714,19.172 6.609,28.516 1.742,5.621 3.527,11.301 6.035,16.617 5.82,12.356 11.047,24.996 17.727,36.953 4.152,7.43 8.668,14.641 14.156,21.203 7.98,9.543 16.219,18.903 25.691,27.043 7.606,6.547 15.266,13.079 24.254,17.875 9.731,5.18 19.309,10.637 29.051,15.809 3.934,2.082 7.805,4.441 12.305,5.336 0.543,0.109 1.214,0.242 1.55,0.609 3.926,4.239 9.446,4.262 14.5,4.891 10.239,1.258 20.536,2.266 30.84,2.734 11.813,0.535 23.657,1 35.453,-0.519 1.485,-0.196 2.977,-0.391 4.469,-0.559 4.844,-0.551 9.699,-1.055 14.535,-1.656 3.91,-0.484 7.825,-0.984 11.7,-1.68 4.972,-0.902 9.945,-1.894 14.867,-3.066 3.64,-0.867 7.265,-1.895 10.785,-3.16 9.328,-3.352 18.992,-6.114 27.297,-11.649 6.824,-4.551 13.406,-9.492 19.812,-14.605 7.285,-5.809 14.297,-11.946 21.336,-18.043 2.242,-1.946 4.278,-4.145 6.274,-6.344 4.004,-4.391 8.027,-8.781 11.863,-13.312 8.746,-10.344 14.57,-22.172 19.027,-34.86 3.422,-9.73 7.223,-19.34 10.278,-29.207 1.472,-4.75 3.132,-9.469 4.203,-14.308 2.027,-9.172 3.367,-18.454 4.328,-27.817 1.152,-11.183 2.762,-22.316 2.578,-33.594 -0.074,-4.593 -0.402,-9.187 -0.652,-13.789 -0.141,-2.574 -0.207,-5.164 -0.559,-7.711 -0.883,-6.347 -1.527,-12.718 -4.523,-18.644 -3.758,-7.422 -7.051,-15.063 -10.618,-22.578 -4.523,-9.555 -10.324,-18.403 -16.132,-27.215 -2.426,-3.684 -5.672,-6.859 -8.563,-10.25 -4.828,-5.645 -9.551,-11.379 -14.531,-16.891 -4.848,-5.383 -9.953,-10.527 -14.953,-15.773 -1.539,-1.621 -3.149,-3.176 -4.633,-4.84 -7.016,-7.84 -15.332,-14.047 -24.524,-19.219 -7,-3.945 -13.953,-7.961 -20.832,-12.105 -3.562,-2.141 -7.55,-3.227 -11.324,-4.832 -4.644,-1.981 -9.437,-3.61 -14.129,-5.492 -3.496,-1.403 -7.062,-2.336 -10.804,-2.965 -7.227,-1.215 -14.461,-2.313 -21.778,-2.692 -4.113,-0.215 -8.246,-0.078 -12.371,0.024 -3.187,0.086 -6.375,0.562 -9.558,0.535 -11.594,-0.082 -22.747,2.047 -33.649,5.824 -4.414,1.539 -9.062,2.395 -13.5,3.863 -11.027,3.645 -22.004,7.434 -32.976,11.235 -2.122,0.73 -4.286,1.519 -6.153,2.711 -7.445,4.695 -15.39,8.457 -23.246,12.414 -11.312,5.699 -21.18,13.254 -29.832,22.383 -5.883,6.207 -12.062,12.16 -17.734,18.543 -4.426,4.984 -8.41,10.367 -12.336,15.761 -3.707,5.086 -7.059,10.426 -10.61,15.614 -9.511,13.91 -16.371,28.98 -20.433,45.234 -0.934,3.726 -1.223,7.633 -1.539,11.473 -0.578,6.976 -0.957,13.976 -1.227,18.078 m 43.727,41.027 c -0.766,-0.586 -1.18,-0.746 -1.336,-1.043 -3.039,-5.75 -5.82,-11.559 -5.434,-18.301 0.086,-1.461 -0.168,-2.937 -0.164,-4.406 0,-7.742 0.25,-15.461 1.629,-23.121 0.871,-4.832 3.508,-7.965 8.348,-9.426 3.222,-0.976 6.316,-2.351 9.535,-3.351 3.566,-1.121 7.148,-2.414 10.832,-2.93 6.672,-0.953 13.414,-1.664 20.152,-1.973 8.617,-0.383 17.262,-0.254 25.899,-0.355 9.199,-0.11 18.418,0.109 27.593,-0.418 16.512,-0.934 33.036,-0.668 49.555,-0.738 9.578,-0.032 19.16,0.207 28.735,-0.008 13.925,-0.313 27.785,0.476 41.621,1.843 16.086,1.594 31.961,4.536 47.742,7.864 9.894,2.09 19.676,4.754 29.418,7.461 4.855,1.351 9.527,3.363 14.269,5.113 3.727,1.367 5.516,4.16 6.114,7.922 1.121,7.125 1.304,14.293 1.046,21.484 -0.269,7.555 -2.402,14.492 -7.152,20.547 -0.797,1.02 -1.746,1.965 -2.398,3.067 -1.809,3.066 -4.418,4.109 -7.996,3.992 -4.489,-0.157 -8.997,0.093 -13.485,0.347 -8.816,0.485 -17.617,1.063 -26.426,1.637 -11.597,0.758 -23.199,1.547 -34.796,2.328 -0.375,0.024 -0.743,0.102 -1.114,0.153 -8.562,1.207 -17.172,1.875 -25.82,2.054 -6.547,0.137 -13.137,-0.551 -19.617,0.961 -0.547,0.125 -1.125,0.137 -1.688,0.125 -8.07,-0.125 -16.164,0.035 -24.218,-0.484 -16.672,-1.059 -33.325,-2.446 -49.977,-3.785 -3.172,-0.254 -6.336,-0.805 -9.449,-1.469 -8.434,-1.766 -16.797,-3.883 -25.434,-4.594 -0.742,-0.066 -1.496,-0.195 -2.199,-0.426 -4.727,-1.476 -9.582,-1.699 -14.484,-1.672 -1.872,0.008 -3.801,0 -5.594,-0.425 -5.473,-1.309 -10.887,-2.836 -16.332,-4.254 -1.438,-0.371 -2.903,-0.653 -4.356,-1 -2.547,-0.606 -5.199,-0.946 -7.609,-1.887 -5.059,-1.969 -10.106,-2.648 -15.41,-0.832 m 310.086,-48.535 c -1.961,-0.645 -3.219,-1.012 -4.446,-1.469 -11.41,-4.297 -23.441,-6.504 -35.101,-9.976 -2.832,-0.852 -5.906,-0.946 -8.871,-1.368 -0.926,-0.136 -1.875,-0.144 -2.789,-0.324 -10.485,-2.047 -20.934,-4.262 -31.52,-5.773 -5.945,-0.84 -11.859,-1.86 -17.902,-1.86 -2.43,0.008 -4.86,-0.324 -7.293,-0.5 -9.168,-0.672 -18.281,-1.972 -27.539,-1.14 -4.086,0.367 -8.246,-0.024 -12.371,-0.059 -2.625,-0.015 -5.285,-0.246 -7.879,0.043 -10.121,1.106 -20.266,0.875 -30.391,0.434 -7.133,-0.297 -14.215,-0.418 -21.367,-0.102 -13.316,0.586 -26.668,0.824 -39.992,0.602 -10.172,-0.176 -20.274,0.222 -30.371,1.199 -4.102,0.391 -8.285,0.566 -12.25,1.551 -6.719,1.675 -13.289,3.898 -19.922,5.902 -1.028,0.309 -2.039,0.645 -3.321,1.055 -0.457,-1.106 -0.953,-1.903 -1.097,-2.75 -0.399,-2.364 -0.715,-4.742 -0.949,-7.117 -0.789,-7.879 0.093,-15.836 -1.168,-23.707 -0.551,-3.493 0.894,-6.422 3.504,-8.926 4.027,-3.864 7.8,-7.973 11.839,-11.821 2.418,-2.3 5.071,-4.371 7.743,-6.382 4.015,-3.032 8.082,-6.024 12.242,-8.848 2.301,-1.563 4.758,-2.965 7.301,-4.086 2.234,-0.984 4.699,-0.832 7.179,-0.703 2.535,0.141 4.61,-2.059 7.449,-1.777 3.844,0.39 7.375,1.476 10.567,3.484 8.801,5.535 18.633,8.633 28.48,11.656 2.309,0.715 4.77,1.035 7.184,1.266 3.098,0.297 6.004,-0.434 8.379,-2.531 2.64,-2.336 5.316,-4.653 7.805,-7.133 2.894,-2.887 5.558,-5.992 8.402,-8.942 2.691,-2.777 6.008,-4.277 9.957,-4.55 11.789,-0.805 23.539,-2.18 35.418,-1.547 7.859,0.418 15.715,0.453 23.551,1.562 11.254,1.598 21.293,5.078 29.355,13.578 4.977,5.242 11.371,9 18.063,12.075 5.406,2.488 10.816,2.843 16.25,0.085 1.996,-1.011 4.007,-2.003 6.004,-3.015 3,-1.528 5.91,-3.25 9.007,-4.543 4.715,-1.953 9.618,-3.156 14.817,-2.055 0.914,0.195 1.875,0.34 2.797,0.281 4.078,-0.261 7.14,1.684 10.129,4.079 3.589,2.894 5.8,6.699 7.894,10.621 1.828,3.422 3.293,7.097 5.555,10.222 5.121,7.059 7.41,15.227 10.207,23.215 1.273,3.645 0.965,7.25 -0.664,10.758 -2.407,5.187 -4.746,10.402 -7.219,15.566 -0.613,1.274 -1.645,2.352 -2.656,3.77 m -18.426,66.492 c 3.269,0 5.519,0.055 7.777,-0.008 5.735,-0.144 9.696,2.438 11.957,7.516 0.664,1.504 1.129,3.133 1.414,4.738 1.25,7.176 0.766,14.317 -0.668,21.434 -0.254,1.258 -0.671,2.511 -0.714,3.785 -0.153,4.508 -1.864,8.629 -3.161,12.848 -0.718,2.328 -2.015,4.39 -4.32,5.578 -3.316,1.715 -6.566,3.617 -10.027,4.984 -6.086,2.41 -12.301,4.52 -18.489,6.668 -2.293,0.797 -4.644,1.484 -7.019,2.02 -4.356,0.984 -8.438,0.39 -12.524,-1.622 -8.726,-4.289 -17.605,-8.281 -26.437,-12.347 -5.211,-2.403 -9.805,-1.598 -13.785,2.43 -1.164,1.179 -2.137,2.562 -3.086,3.929 -0.734,1.063 -1.246,2.27 -1.938,3.356 -3.796,6.011 -8.836,9.961 -16.496,9.715 -3.734,-0.122 -7.519,-0.375 -11.226,0 -7.02,0.703 -13.867,-0.477 -20.739,-1.286 -8.949,-1.05 -17.824,-2.687 -26.89,-2.629 -2.75,0.024 -5.375,0.082 -8.149,-1.285 -2.621,-1.281 -5.527,-2.062 -7.879,-3.929 -1.898,-1.512 -3.75,-3.075 -5.675,-4.551 -3.258,-2.481 -6.387,-5.195 -9.891,-7.305 -3.809,-2.273 -7.851,-4.523 -12.535,-4.387 -5.641,0.161 -11.328,0.633 -16.449,3.2 -4.407,2.199 -9.137,3.328 -13.801,4.711 -2.516,0.75 -5.113,1.25 -7.586,2.097 -3.883,1.336 -7.445,0.672 -10.727,-1.476 -2.964,-1.946 -5.937,-3.942 -8.613,-6.223 -6.785,-5.816 -13.473,-11.742 -20.058,-17.781 -1.598,-1.461 -3.094,-3.336 -3.832,-5.317 -0.754,-2.004 -1.067,-3.836 -3.692,-4.168 -0.516,-0.058 -1.07,-1.004 -1.336,-1.648 -0.922,-2.207 -1.84,-4.434 -2.539,-6.715 -2.707,-8.891 -2.359,-17.824 -0.16,-26.766 0.598,-2.429 1.797,-3.589 4.269,-3.507 2.04,0.058 4.102,0.453 6.083,0.961 7.804,2.004 15.57,4.144 23.371,6.156 3.617,0.933 7.257,2.234 10.937,2.387 6.781,0.289 13.481,0.738 20.074,2.41 1.629,0.41 3.34,0.492 5.008,0.738 3.899,0.57 7.832,0.969 11.676,1.766 10.492,2.191 21.121,3.414 31.789,4.297 6.168,0.519 12.391,0.519 18.555,1.113 15.738,1.547 31.515,1.265 47.289,1.187 2.437,-0.008 4.89,-0.441 7.312,-0.297 9.809,0.586 19.512,-0.753 29.239,-1.468 9.171,-0.668 18.292,-1.918 27.46,-2.598 8.61,-0.645 17.25,-0.855 25.879,-1.281 3.375,-0.172 6.746,-0.391 10.125,-0.637 3.743,-0.266 7.485,-0.578 10.227,-0.793 m 4.551,-175.926 c 1.308,0.875 2.015,1.188 2.492,1.703 2.277,2.45 4.641,4.844 6.695,7.457 4.129,5.266 8.375,10.403 13.074,15.192 2.192,2.234 4.004,4.883 5.684,7.523 3.68,5.774 7.227,11.625 10.691,17.528 1.582,2.687 3.457,5.449 4.075,8.414 0.672,3.191 1.777,5.925 3.75,8.465 0.785,1.019 1.515,2.148 1.945,3.335 2.957,8.118 6.898,15.829 8.301,24.551 1.789,11.149 3.008,22.227 2.148,33.532 -0.84,11.011 -2.637,21.921 -3.461,32.945 -0.761,10.281 -3.594,20.328 -6.844,30.144 -3.531,10.672 -7.386,21.243 -11.324,31.782 -4.218,11.293 -9.449,22.101 -17.422,31.382 -4.839,5.637 -9.871,11.118 -14.851,16.618 -5.387,5.953 -11.649,10.945 -18.031,15.82 -2.95,2.25 -5.84,4.586 -8.825,6.937 -2.886,0.332 -5.64,-0.027 -7.328,-2.769 -2.332,-3.785 -4.535,-7.641 -5.199,-12.141 -0.621,-4.195 -1.488,-8.34 -2.117,-12.535 -0.711,-4.703 -1.617,-9.441 0.531,-14.266 0.91,-0.132 1.813,-0.312 2.719,-0.378 3.57,-0.282 7.062,-0.911 10.441,-2.11 5.106,-1.816 10.176,-3.734 15.356,-5.32 4.488,-1.375 8.703,-3.399 13.07,-5.004 7.227,-2.648 10.578,-7.801 11.859,-14.801 0.231,-1.262 0.633,-2.512 0.809,-3.785 1.062,-7.66 2.203,-15.309 3.07,-22.996 0.668,-5.949 -0.086,-11.785 -3.125,-17.125 -1.531,-2.699 -3.222,-5.309 -4.832,-7.93 1.196,-2.14 2.235,-4.332 3.571,-6.32 4.375,-6.52 6.054,-13.957 6.738,-21.43 0.988,-10.828 1.289,-21.761 -4.309,-31.691 0.641,-1.594 1.149,-2.981 1.746,-4.328 2.399,-5.403 4.778,-10.809 7.262,-16.168 1.457,-3.153 1.793,-6.324 1.121,-9.707 -1.555,-7.844 -4.754,-15.086 -8.324,-22.196 -2.492,-4.949 -5.188,-9.804 -7.797,-14.699 -1.047,-1.961 -2.117,-3.894 -3.168,-5.855 -2.598,-4.867 -6.324,-8.629 -11.211,-11.328 -1.269,-0.7 -2.375,-1.684 -3.449,-2.465 1.035,-4.406 2.187,-8.481 2.906,-12.617 0.711,-4.118 0.988,-8.313 1.563,-13.364 m -256.801,17.45 c -4.328,0.925 -8.191,2.343 -11.504,4.804 -8.055,5.985 -16.902,10.973 -23.891,18.324 -3.32,3.5 -6.828,6.836 -10.343,10.157 -3.621,3.422 -5.286,7.511 -4.883,12.429 0.074,0.918 0.07,1.836 0.133,2.762 0.324,4.77 0.523,9.551 1.011,14.316 0.551,5.297 1.2,10.614 2.145,15.86 0.527,2.922 0.824,5.547 -0.363,8.484 -1.161,2.86 -1.426,6.078 -1.93,9.16 -1.531,9.332 -0.918,18.743 -0.828,28.125 0.039,3.965 4.644,14.782 7.441,17.594 1.344,1.36 1.832,2.742 1.692,4.43 -0.137,1.64 -0.465,3.269 -0.739,4.91 -0.949,5.652 -1.425,11.352 -0.554,17.031 1.402,9.172 5.972,16.906 11.699,24.11 3.031,3.812 6.93,6.699 10.418,10.019 6.203,5.899 12.633,11.496 19.722,16.371 2.157,1.477 4.165,3.082 6.805,3.711 2.086,0.5 2.918,2.043 3.246,4.051 1.227,7.512 1.52,15.027 0.106,22.543 -0.977,5.172 -3.223,9.816 -6.782,13.746 -2.964,3.285 -7.589,3.719 -11.203,1.188 -1.058,-0.747 -1.976,-1.688 -2.937,-2.563 -6.613,-6.047 -12.465,-12.77 -18.328,-19.488 -8.489,-9.715 -15.305,-20.481 -20.824,-32.028 -3.821,-8 -7.297,-16.152 -11.235,-24.082 -3.055,-6.156 -5.582,-12.464 -7.605,-18.996 -3.227,-10.418 -5.118,-21.117 -7.118,-31.797 -1.531,-8.168 -2.582,-16.39 -2.207,-24.718 0.465,-10.301 0.942,-20.61 1.536,-30.903 0.156,-2.75 0.5,-5.535 1.183,-8.199 3.028,-11.84 7.43,-23.133 13.617,-33.777 4.856,-8.34 10.805,-15.949 16.028,-24.032 1.902,-2.957 3.984,-5.792 6.109,-8.601 8.414,-11.141 18.484,-20.828 28.359,-30.68 2.094,-2.09 4.532,-3.855 6.852,-5.722 0.699,-0.551 1.484,-1.192 2.777,-0.391 0.196,5.121 0.25,10.426 0.645,15.699 0.391,5.274 1.125,10.524 1.75,16.153 m 149.172,-12.036 c 1.039,-4.047 2.234,-7.922 3.019,-11.879 3.098,-15.546 9.375,-29.851 17.27,-43.55 1.281,-2.223 2.621,-4.493 5.265,-5.657 0.891,0.231 1.825,0.375 2.692,0.7 8.93,3.379 17.832,6.816 26.25,11.328 3.789,2.019 7.465,4.242 11.25,6.281 10.117,5.441 19.098,12.32 27.047,20.516 2.719,2.793 5.359,5.664 8.031,8.515 1.051,1.121 1.645,2.336 1.492,3.985 -0.195,2.179 -0.094,4.379 -0.129,6.578 -0.082,4.976 -0.488,9.945 -1.8,14.765 -0.868,3.188 -1.973,6.301 -4.336,8.536 -2.786,0 -5.219,-0.161 -7.633,0.027 -5.297,0.406 -10.281,1.898 -14.938,4.5 -3.746,2.086 -7.578,4.051 -11.429,5.941 -3.372,1.664 -6.758,1.621 -10.321,0.223 -4.578,-1.816 -8.781,-4.188 -12.57,-7.227 -4.066,-3.261 -8.137,-6.539 -11.922,-10.105 -3.375,-3.176 -7.277,-5.152 -11.695,-6.289 -3.985,-1.02 -7.996,-1.922 -11.953,-2.871 -1.094,-1.317 -2.161,-2.59 -3.59,-4.317 M 285.5,246.473 c 10.074,-6.692 29.793,-18.66 70.426,-31.246 4.398,-1.368 8.804,-2.727 13.359,-3.235 0.805,3.395 1.305,6.469 2.266,9.406 2.242,6.829 4.648,13.586 5.726,20.739 1.375,9.086 2.926,18.144 4.325,27.23 0.246,1.586 0.578,3.285 -0.637,5.153 -3.031,0.543 -6.285,1.394 -9.59,1.664 -4.566,0.382 -8.258,2.218 -11.355,5.41 -1.293,1.332 -2.555,2.699 -3.813,4.058 -2.266,2.453 -4.387,5.051 -6.797,7.356 -7.469,7.133 -8.711,8.211 -20.058,4.609 -9.239,-2.929 -18.422,-6.222 -26.649,-11.582 -3.492,-2.277 -7.508,-3.277 -11.75,-3.297 -1.476,-0.008 -2.949,-0.133 -4.558,-0.218 -2.364,-5.555 -2.008,-11.321 -2.387,-16.93 -0.434,-6.414 -0.738,-12.875 1.492,-19.117 m 149.027,345.672 c -7.523,0.867 -14.574,2.019 -21.66,2.375 -8.422,0.445 -16.879,0.121 -25.316,0.257 -13.946,0.227 -27.688,-1.734 -41.442,-3.523 -3.031,-0.402 -3.925,-2.293 -2.617,-5.156 3.219,-7.055 6.551,-14.063 9.649,-21.16 1.691,-3.879 3.254,-7.856 4.441,-11.907 3.113,-10.613 6.609,-21.082 10.836,-31.312 0.918,-2.227 2.254,-3.27 4.602,-3.219 6.558,0.152 13.117,-0.094 19.656,0.934 10.906,1.707 21.836,3.336 32.933,3.277 0.317,0 0.641,0.332 1.2,0.637 0.152,0.703 0.441,1.57 0.511,2.461 0.61,7.523 1.41,15.031 1.703,22.562 0.426,10.859 1.055,21.672 3.485,32.317 0.808,3.578 1.281,7.226 2.019,11.457 m -1.785,-68.493 c 1.992,-1.273 3.914,-0.867 5.754,-0.925 5.113,-0.168 9.606,-1.817 13.074,-5.551 1.75,-1.887 3.297,-4 4.688,-6.156 1.711,-2.668 3.441,-5.301 5.988,-7.27 2.535,-1.953 5.141,-2.582 8.336,-1.047 6.231,3 12.633,5.649 18.93,8.52 2.695,1.23 5.273,2.691 7.633,4.738 -0.286,1.758 -0.668,3.371 -0.786,5.008 -0.168,2.379 -0.515,4.824 -0.132,7.14 1.144,7.09 2.32,14.207 4.039,21.18 1.324,5.375 3.703,10.426 8.203,14.172 0.629,0.527 1.183,1.144 1.793,1.738 -8.992,7.789 -16.078,11.719 -26.649,15.828 -11.402,4.426 -23.199,7.364 -35.144,9.852 -2.543,0.527 -5.133,1.164 -7.637,0.5 -2.137,-1.774 -2.715,-4.117 -3.258,-6.461 -2.367,-10.266 -3.89,-20.641 -3.855,-31.195 0.004,-1.844 -0.133,-3.688 -0.227,-5.52 -0.351,-7.183 -0.73,-14.359 -1.043,-21.535 -0.047,-1.055 0.199,-2.113 0.293,-3.016 m -96.519,63.582 c -1.547,-0.636 -2.793,-1.035 -3.922,-1.636 -12.824,-6.895 -25.676,-13.731 -38.414,-20.77 -4.395,-2.43 -8.469,-5.402 -11.758,-9.57 0.953,-0.797 1.781,-1.512 2.629,-2.207 3.055,-2.531 5.433,-5.52 7.027,-9.172 1.492,-3.395 2.602,-6.879 3.317,-10.512 1.152,-5.824 1.32,-11.676 0.711,-17.578 -0.282,-2.699 -0.954,-5.426 -0.141,-8.312 1.621,-0.551 3.176,-1.247 4.801,-1.614 6.785,-1.484 13.25,-3.843 19.726,-6.3 9.469,-3.583 18.742,-3.047 27.063,3.39 1.765,1.356 3.468,2.809 5.218,4.203 3.051,2.426 6.122,4.84 9.192,7.25 0.844,0.672 1.715,1.309 2.805,2.141 -0.536,1.883 -0.946,3.66 -1.536,5.367 -2.101,6.094 -4.347,12.141 -6.394,18.254 -1.52,4.535 -2.481,9.281 -4.293,13.695 -3.785,9.215 -7.895,18.293 -12.035,27.352 -0.969,2.113 -2.594,3.949 -3.996,6.019 m 50.984,-312.558 c -0.293,-2.141 -0.496,-3.571 -0.676,-5.004 -0.879,-6.945 -1.293,-13.984 -2.734,-20.82 -1.832,-8.625 -3.613,-17.313 -6.664,-25.661 -1.453,-3.98 -2.399,-8.074 -3.11,-12.253 1.954,-1.672 4.215,-1.977 6.368,-2.461 6.976,-1.547 14.031,-2.414 21.187,-2.793 13.735,-0.739 27.414,-0.758 41,1.679 1.992,0.356 4.027,0.543 5.914,1.817 -1,3.16 -2.683,5.808 -4.144,8.578 -2.336,4.406 -4.782,8.777 -6.805,13.332 -6.184,13.89 -9.156,28.672 -12.473,43.805 -10.441,0.765 -21.101,-0.348 -31.754,-0.129 -1.851,0.043 -3.707,-0.051 -6.109,-0.09" /><path
         id="path16"
         style="fill:#171717;fill-opacity:1;fill-rule:nonzero;stroke:none"
         d="m 397.051,389.746 c -1.199,0.543 -2.84,0.84 -3.801,1.809 -3.668,3.675 -4.676,9.019 0.531,12.855 1.848,1.352 3.992,2.074 6.301,2.113 4.09,0.086 7.352,-3.453 6.41,-7.25 -0.859,-3.464 -2.75,-6.46 -5.961,-8.39 -0.922,-0.543 -2.086,-0.695 -3.48,-1.137" /></g></g></svg>