<?xml version="1.0" encoding="UTF-8" standalone="no"?>
<svg
   xmlns:dc="http://purl.org/dc/elements/1.1/"
   xmlns:cc="http://creativecommons.org/ns#"
   xmlns:rdf="http://www.w3.org/1999/02/22-rdf-syntax-ns#"
   xmlns:svg="http://www.w3.org/2000/svg"
   xmlns="http://www.w3.org/2000/svg"
   viewBox="0 0 100 100"
   height="100"
   width="100"
   xml:space="preserve"
   version="1.1"
   id="svg2"><metadata
     id="metadata8"><rdf:RDF><cc:Work
         rdf:about=""><dc:format>image/svg+xml</dc:format><dc:type
           rdf:resource="http://purl.org/dc/dcmitype/StillImage" /></cc:Work></rdf:RDF></metadata><defs
     id="defs6" /><g
     transform="matrix(1.25,0,0,-1.25,0,100)"
     id="g10"><g
       transform="scale(0.1,0.1)"
       id="g12"><path
         id="path14"
         style="fill:#171717;fill-opacity:1;fill-rule:nonzero;stroke:none"
         d="m 593.156,432.07 c -1.226,9.067 -2.742,18.664 -6.578,27.668 -2.293,5.367 -5.316,11.504 -10.406,16.266 -0.496,0.469 -0.949,1.023 -1.387,1.559 -0.387,0.48 -0.789,0.976 -1.234,1.421 -0.66,0.657 -1.313,1.313 -1.961,1.977 -2.25,2.266 -4.57,4.617 -6.996,6.769 -3.992,3.547 -7.981,6.852 -11.848,9.825 -6.527,5.008 -12.5,7.457 -18.805,7.718 -2.214,0.094 -4.464,0.243 -6.632,0.395 -4.153,0.277 -8.43,0.566 -12.696,0.457 -1.558,-0.043 -3.121,0 -4.687,0.039 -1.121,0.027 -2.246,0.059 -3.375,0.059 -1.922,0 -4.453,-0.075 -7.082,-0.645 -0.09,0.324 -0.18,0.625 -0.27,0.906 -0.203,0.672 -0.383,1.25 -0.437,1.817 l -0.157,1.597 c -0.328,3.375 -0.671,6.864 -0.824,10.297 -0.015,0.356 -0.035,0.711 -0.054,1.067 -0.18,3.511 -0.364,7.136 2.023,10.343 l 0.156,0.215 -0.195,0.184 c -1.816,1.711 -2.531,3.726 -2.313,6.531 0.157,1.985 0.133,4.008 0.102,5.961 -0.016,1.059 -0.027,2.121 -0.02,3.176 0.036,2.723 -0.761,5.223 -2.425,7.648 -1.059,1.528 -2.352,2.321 -3.965,2.41 -0.285,0.012 -0.567,0.024 -0.856,0.028 -0.464,0.015 -0.941,0.023 -1.402,0.078 -4.023,0.441 -6.445,2.148 -7.613,5.359 -0.293,0.801 -0.703,1.571 -1.102,2.313 -0.504,0.949 -0.976,1.847 -1.238,2.82 -1.219,4.512 -3.578,8.27 -7.223,11.488 -2.215,1.957 -3.562,3.067 -5.41,3.067 -1.199,0 -2.601,-0.461 -4.473,-1.207 -0.171,-0.067 -0.339,-0.141 -0.503,-0.215 -0.18,-0.078 -0.36,-0.156 -0.54,-0.231 -1.792,-0.691 -3.351,-1.027 -4.769,-1.027 -2.906,0 -5.34,1.418 -7.914,4.645 -1.309,1.636 -2.664,3.336 -4.402,4.41 -4.332,2.676 -8.434,3.976 -12.543,3.976 -0.352,0 -0.707,-0.007 -1.067,-0.023 -4.683,-0.254 -8.648,-1.277 -12.137,-3.129 -4.929,-2.617 -9.402,-2.312 -14.117,0.965 -2.906,2.023 -6.019,3.848 -9.031,5.601 -0.879,0.516 -1.762,1.032 -2.633,1.551 -2.875,1.707 -6.062,2.11 -9.554,1.219 -3.098,-0.785 -6.282,-1.48 -9.36,-2.145 -0.945,-0.203 -1.887,-0.406 -2.832,-0.613 -1.148,-0.254 -2.094,-0.375 -2.961,-0.375 -1.656,0 -3.101,0.465 -4.402,1.41 -3.406,2.477 -7.512,2.961 -12.231,1.438 -2.976,-0.961 -5.886,-1.953 -8.964,-3.004 -1.344,-0.457 -2.7,-0.918 -4.075,-1.387 -0.566,0.207 -1.14,0.426 -1.73,0.653 -1.43,0.543 -2.895,1.105 -4.422,1.531 -2.293,0.644 -4.359,0.953 -6.316,0.953 -4.832,0 -8.743,-1.93 -11.946,-5.91 -0.664,-0.824 -1.515,-1.535 -2.336,-2.223 -0.754,-0.637 -1.531,-1.289 -2.187,-2.035 -1.75,-1.996 -3.852,-2.969 -6.434,-2.969 -1.109,0 -2.316,0.176 -3.683,0.539 -1.879,0.489 -3.758,1.11 -5.575,1.711 l -0.933,0.309 c -2.02,0.668 -4.125,1.004 -6.258,1.004 -2.18,0 -4.402,-0.332 -6.789,-1.024 -2.531,-0.718 -4.859,-1.976 -7.555,-4.062 -2.582,-2 -5.508,-4.27 -9.222,-5.164 -8.481,-2.051 -15.45,-5.106 -21.321,-9.356 -1.265,-0.914 -2.5,-1.91 -3.695,-2.871 -0.531,-0.426 -1.059,-0.851 -1.59,-1.269 -0.101,0 -0.207,-0.004 -0.305,-0.004 l -0.355,-0.008 c -0.137,0 -0.266,0.008 -0.398,0.016 -0.504,0.035 -1.016,0.054 -1.52,0.054 -7.625,0 -13.883,-4.066 -15.574,-10.121 -0.031,-0.109 -0.078,-0.211 -0.125,-0.312 -0.028,-0.059 -0.059,-0.121 -0.082,-0.184 -0.992,-2.441 -2.508,-3.75 -5.082,-4.379 -4.45,-1.098 -5.821,-2.848 -5.871,-7.496 -0.02,-1.508 -0.039,-3.012 -0.071,-4.52 -0.093,-6.16 -0.199,-12.531 0.246,-18.765 0.543,-7.824 0.539,-15.781 0.536,-23.477 -0.004,-4.609 -0.008,-9.375 0.109,-14.066 0.109,-4.625 0.133,-9.328 0.156,-13.883 0.024,-5.152 0.047,-10.476 0.207,-15.715 0.211,-7.086 0.578,-14.285 0.938,-21.246 0.179,-3.527 0.359,-7.058 0.519,-10.586 0.031,-0.652 -0.054,-1.336 -0.129,-1.996 l -0.027,-0.219 c -0.57,-4.714 -0.473,-9.785 0.312,-15.961 0.383,-3.019 0.735,-6.097 1.071,-9.07 0.488,-4.266 0.988,-8.668 1.594,-12.984 0.82,-5.817 1.953,-11.723 2.953,-16.801 1.367,-6.934 2.812,-13.969 4.203,-20.773 0.676,-3.29 1.355,-6.575 2.019,-9.868 1.293,-6.363 2.868,-13.156 5.606,-19.695 2.554,-6.105 4.527,-12.527 6.433,-18.734 l 0.512,-1.676 c 2.637,-8.563 5.445,-17.223 8.16,-25.602 l 0.832,-2.582 c 0.453,-1.394 1.035,-2.761 1.598,-4.093 0.176,-0.407 0.348,-0.805 0.512,-1.219 3.129,-7.524 6.261,-15.051 9.41,-22.567 0.148,-0.355 0.347,-0.679 0.539,-0.988 0.109,-0.176 0.219,-0.348 0.312,-0.527 0.45,-0.824 0.911,-1.645 1.364,-2.465 1.082,-1.953 2.207,-3.981 3.254,-6 l 0.773,-1.488 c 1.723,-3.317 3.504,-6.746 5.066,-10.204 1.84,-4.082 4.829,-6.675 8.879,-7.718 0.809,-0.203 1.621,-0.422 2.426,-0.637 3.707,-0.996 7.543,-2.023 11.539,-2.176 8.153,-0.304 15.578,-0.746 22.692,-1.351 8.804,-0.746 17.804,-0.914 26.511,-1.078 3.621,-0.067 7.367,-0.137 11.043,-0.247 1.375,-0.043 2.746,-0.07 4.121,-0.105 2.567,-0.051 5.211,-0.113 7.813,-0.246 1.469,-0.07 2.969,-0.223 4.418,-0.371 2.066,-0.207 4.203,-0.426 6.305,-0.426 0.21,0 0.425,0.008 0.636,0.012 13.485,0.289 29.442,0.679 45.524,1.383 3.34,0.152 6.715,0.554 9.976,0.949 3.223,0.394 6.559,0.797 9.84,0.945 3.828,0.172 7.551,0.977 11.145,1.754 2.367,0.512 4.804,1.035 7.23,1.375 l 0.133,0.02 0.07,0.101 c 4.852,6.832 7.004,14.281 8.477,20.66 1.023,4.473 2.023,8.953 3.015,13.438 1.172,5.242 2.371,10.66 3.618,15.972 0.996,4.301 2.086,8.657 3.132,12.864 0.817,3.257 1.629,6.515 2.414,9.777 0.61,2.551 1.098,5.176 1.571,7.715 l 0.121,0.656 c 0.445,2.379 1.683,4.227 3.402,6.262 3.988,4.703 9.102,7.812 14.895,11.109 3.476,1.985 7.043,3.949 10.492,5.856 3.074,1.695 6.262,3.457 9.371,5.211 8.668,4.906 16.488,11.246 24.047,17.386 l 1.73,1.403 c 5.578,4.515 11.043,9.347 16.325,14.023 3.519,3.113 7.16,6.332 10.8,9.426 4.063,3.461 7.653,7.75 10.957,13.125 0.508,0.828 1.008,1.66 1.508,2.492 0.754,1.258 1.539,2.566 2.344,3.824 4.195,6.571 6.816,14.153 7.777,22.532 0.153,1.335 0.317,2.671 0.473,4.007 1.09,9.043 2.215,18.391 0.945,27.793 M 317.227,246.43 c -0.778,7.808 -2.934,15.136 -5.926,23.738 -2.235,6.418 -3.348,13.07 -4.383,19.891 -0.566,3.75 -1.133,7.5 -1.676,11.246 -0.605,4.218 -0.394,7.738 0.664,11.093 2.176,6.899 7.082,11.067 15.434,13.11 1.969,0.48 4.109,0.484 6.18,0.488 0.742,0 1.484,0.004 2.218,0.027 0.953,0.028 1.914,0.036 2.867,0.036 0.75,0 1.5,-0.004 2.254,-0.008 0.657,-0.008 1.313,-0.012 1.965,-0.012 l 0.004,-0.184 0.293,0 c 1.082,0 2.16,-0.007 3.242,-0.011 2.524,-0.008 5.043,-0.02 7.563,0.027 l 0.172,0.004 c 2.425,0 4.468,-1.074 5.898,-3.113 1.445,-2.051 2.606,-4.203 3.449,-6.391 0.899,-2.348 1.508,-4.797 1.754,-7.086 0.692,-6.48 1.41,-13.18 1.653,-19.793 0.324,-9 -0.512,-18.097 -1.325,-26.898 -0.382,-4.188 -0.781,-8.52 -1.047,-12.785 -0.078,-1.176 -0.253,-2.36 -0.414,-3.364 -0.894,-5.504 -3.945,-8.957 -9.32,-10.55 -3.984,-1.184 -8.187,-1.79 -12.48,-1.79 -3.668,0 -7.563,0.442 -11.567,1.313 -3.269,0.711 -5.429,2.75 -6.422,6.074 -0.558,1.86 -0.898,3.473 -1.05,4.938 m 70.785,-9.496 c 0.547,1.004 1.226,2.25 0.117,3.418 -1.227,1.3 -1.348,2.832 -1.371,4.554 -0.11,7.742 -1.274,15.262 -2.278,20.942 -0.476,2.707 -0.679,5.558 -0.632,8.98 0.023,2.348 -0.196,4.731 -0.41,7.035 -0.153,1.598 -0.305,3.246 -0.375,4.867 l -0.094,2.192 c -0.207,4.676 -0.418,9.512 -0.258,14.25 0.184,5.43 2.215,10.902 6.387,17.23 2.593,3.942 6.675,6.172 11.793,6.453 0.746,0.043 1.558,0.063 2.48,0.063 0.758,0 1.457,-0.012 2.063,-0.023 0.449,-0.012 0.839,-0.02 1.207,-0.016 2.14,0.332 4.007,0.492 5.718,0.492 2.297,0 4.422,-0.297 6.489,-0.914 7.523,-2.25 11.129,-7.117 11.347,-15.309 0.055,-2.035 -0.183,-4.125 -0.418,-6.14 -0.089,-0.774 -0.175,-1.539 -0.25,-2.309 -0.246,-2.535 -0.464,-5.074 -0.691,-7.613 -0.551,-6.215 -1.121,-12.641 -1.965,-18.918 -0.555,-4.129 -1.359,-8.309 -2.137,-12.344 -0.668,-3.457 -1.355,-7.027 -1.886,-10.566 -0.735,-4.883 -2.801,-9.18 -4.934,-13.094 -2.902,-5.348 -7.492,-7.832 -14.434,-7.832 -0.332,0 -0.656,0.004 -0.992,0.016 -2.738,0.09 -5.402,0.277 -7.91,0.562 -1.98,0.227 -3.824,0.59 -5.484,1.078 -0.84,0.254 -1.332,0.578 -1.508,0.996 -0.188,0.446 -0.043,1.082 0.426,1.95 m -155.961,79.468 c 0.691,0.778 1.351,1.512 2.148,2.004 8.563,5.239 17.875,6.871 27.586,4.832 4.039,-0.843 7.281,-3.601 9.914,-8.422 5.227,-9.57 8.77,-18.882 10.828,-28.476 2.075,-9.664 3.2,-18.485 3.438,-26.957 0.058,-2.125 0.383,-4.266 0.695,-6.34 l 0.07,-0.461 c 0.5,-3.332 0.305,-6.414 -0.601,-9.422 -0.777,-2.578 -2.352,-4.226 -4.684,-4.91 -2.769,-0.809 -5.636,-1.641 -8.629,-1.641 -1.023,0 -1.988,0.094 -2.945,0.293 -2.543,0.524 -5.113,0.918 -7.836,1.34 -1.183,0.18 -2.39,0.367 -3.64,0.571 l -3.102,7.402 c -3.129,7.461 -6.195,14.785 -9.25,22.109 l -0.055,0.141 c -0.484,1.156 -0.984,2.351 -1.242,3.562 -1.48,6.903 -3.754,13.676 -5.953,20.231 -1.531,4.57 -3.117,9.297 -4.422,14.015 -0.574,2.11 -1.336,4.137 -2.141,6.282 -0.347,0.945 -0.707,1.906 -1.062,2.894 0.309,0.309 0.594,0.637 0.883,0.953 m 31.258,-84.918 c 0.004,0.079 0.011,0.161 0.015,0.246 1.188,0.465 2.625,0.325 4.125,0.083 0.348,-0.059 0.696,-0.118 1.051,-0.165 1.801,-0.238 3.453,-0.351 5.051,-0.351 5.375,0 9.832,1.348 13.605,4.109 1.735,1.27 3.571,1.848 6.137,1.934 l 0.145,0 c 0.367,0 0.742,-0.047 1.132,-0.094 0.325,-0.035 0.645,-0.074 0.965,-0.09 1.848,-0.074 3.723,-0.297 5.543,-0.511 2.281,-0.262 4.637,-0.543 6.961,-0.543 1.981,0 3.742,0.203 5.391,0.617 0.347,-0.332 0.675,-0.645 0.992,-0.942 0.707,-0.675 1.34,-1.273 1.957,-1.894 2.789,-2.805 6.191,-4.25 10.402,-4.406 1.356,-0.051 2.739,-0.231 4.078,-0.403 1.817,-0.226 3.711,-0.469 5.559,-0.402 3.121,0.113 6.273,0.641 9.316,1.156 0.661,0.11 1.321,0.219 1.977,0.324 2.879,0.465 6.519,1.403 9.168,4.52 1.281,1.516 2.976,2.195 5.5,2.195 0.312,0 0.637,-0.012 0.961,-0.031 4.449,-0.227 8.801,-0.398 13.414,-0.582 1.769,-0.07 3.551,-0.141 5.344,-0.215 0.062,-0.074 0.129,-0.144 0.203,-0.226 0.211,-0.231 0.461,-0.497 0.488,-0.723 0.469,-4.235 2.965,-6.586 7.422,-6.988 1.262,-0.11 2.547,-0.172 3.793,-0.243 2.293,-0.117 4.672,-0.23 6.937,-0.664 0.868,-0.168 1.719,-0.242 2.606,-0.242 2.086,0 4.062,0.442 6.398,1.102 4.618,1.312 8.102,3.617 10.649,7.035 l 23.961,0.777 c 2.39,-2.875 5.535,-4.328 9.347,-4.328 1.465,0 3.075,0.211 4.786,0.637 0.976,-1.41 0.605,-2.649 0.246,-3.836 l -0.118,-0.406 c -0.242,-0.84 -0.472,-1.684 -0.703,-2.532 -1.273,-4.679 -2.586,-9.511 -5.89,-13.535 -0.7,-0.105 -1.399,-0.191 -2.106,-0.277 -2.586,-0.317 -5.265,-0.645 -7.664,-2.07 -0.367,-0.219 -0.887,-0.278 -1.387,-0.332 l -0.14,-0.016 c -2.293,-0.254 -4.574,-0.535 -6.86,-0.824 -5.152,-0.637 -10.48,-1.297 -15.742,-1.578 -2.301,-0.125 -4.605,-0.258 -6.91,-0.387 -9.918,-0.559 -20.176,-1.141 -30.277,-1.141 -2.25,0 -4.465,0.035 -6.578,0.086 l -1.774,0.047 c -4.055,0.098 -8.25,0.203 -12.363,0.844 -1.223,0.191 -2.551,0.281 -4.188,0.281 -0.996,0 -1.992,-0.031 -2.992,-0.062 -1.222,-0.043 -2.445,-0.079 -3.66,-0.059 l -5.734,0.09 c -7.075,0.105 -14.379,0.219 -21.563,0.453 l -1.519,0.051 c -5.071,0.156 -10.321,0.312 -15.379,1.57 -0.758,0.187 -1.614,0.273 -2.692,0.273 -0.547,0 -1.101,-0.023 -1.648,-0.039 -0.477,-0.019 -0.945,-0.035 -1.414,-0.043 l -0.582,-0.004 c -6.539,0 -13.289,0.961 -21.25,3.016 -1.008,0.262 -1.863,0.859 -2.77,1.5 -1.097,0.77 -2.23,1.567 -3.715,1.762 -0.187,0.023 -0.703,0.265 -1.519,1.957 -2.16,4.512 -4.207,8.973 -6.473,13.926 -0.062,0.129 -0.039,0.355 -0.015,0.593 m 184.961,8.594 c -1.379,2.762 -1.782,5.684 -1.204,8.684 1.028,5.269 1.684,10.679 2.321,15.914 0.758,6.23 1.543,12.672 2.949,18.91 0.746,3.32 1.102,6.781 1.445,10.129 0.074,0.765 0.157,1.523 0.239,2.285 0.671,6.191 1.664,13.473 3.941,20.563 1.863,5.804 5.934,9.207 12.109,10.109 0.274,0.043 0.567,0.062 0.879,0.062 0.824,0 1.774,-0.144 2.883,-0.445 0.641,-0.168 1.238,-0.465 1.879,-0.781 0.559,-0.281 1.148,-0.567 1.758,-0.758 0.719,-0.227 1.5,-0.309 2.316,-0.395 0.305,-0.027 0.613,-0.058 0.942,-0.097 -0.086,-0.75 -0.157,-1.473 -0.231,-2.188 -0.164,-1.726 -0.324,-3.351 -0.672,-4.937 -0.668,-3.07 -1.433,-6.168 -2.172,-9.172 -0.547,-2.242 -1.121,-4.563 -1.648,-6.859 -0.957,-4.125 -1.887,-8.329 -2.789,-12.395 -0.602,-2.695 -1.199,-5.394 -1.809,-8.09 -0.34,-1.504 -0.652,-3.019 -0.965,-4.535 -0.746,-3.613 -1.511,-7.348 -2.668,-10.879 -1.375,-4.183 -2.359,-8.508 -3.308,-12.687 -0.418,-1.832 -0.836,-3.664 -1.281,-5.485 -0.508,-2.035 -1.028,-4.066 -1.539,-6.062 l -0.622,-2.442 c -2.343,-1.132 -4.343,-1.882 -6.433,-1.882 -1.102,0 -2.16,0.21 -3.227,0.648 -1.508,0.617 -2.433,1.449 -3.093,2.785 m 12.984,88.637 c -3.352,-2.395 -5.578,-5.43 -7.008,-9.539 -2.582,-7.453 -4.262,-15.781 -5.297,-26.227 -0.254,-2.535 -0.648,-5.105 -1.035,-7.582 l -0.301,-1.976 c -0.308,-2.043 -0.629,-4.086 -0.949,-6.129 -0.387,-2.438 -0.773,-4.875 -1.133,-7.324 -0.211,-1.411 -0.379,-2.856 -0.539,-4.25 -0.316,-2.68 -0.637,-5.458 -1.265,-8.11 -1.305,-5.527 -1.872,-10.207 -1.782,-14.715 0.004,-0.297 -0.109,-0.625 -0.238,-1.004 -0.055,-0.168 -0.113,-0.332 -0.168,-0.515 -3.086,-0.969 -6.426,-1.422 -10.488,-1.422 -2.184,0 -4.324,0.129 -6.321,0.269 -0.066,0.129 -0.136,0.258 -0.195,0.368 -0.09,0.164 -0.211,0.382 -0.211,0.449 1.996,5.707 3.199,11.699 4.364,17.484 0.417,2.074 0.851,4.215 1.308,6.317 0.883,4.015 1.227,8.136 1.559,12.121 0.133,1.593 0.269,3.238 0.441,4.855 l 0.512,4.852 c 0.808,7.691 1.648,15.64 2.359,23.476 0.223,2.43 -0.078,4.946 -0.359,6.867 -1.078,7.317 -5.449,12.286 -13.004,14.754 -3.359,1.098 -6.301,1.512 -9.086,1.282 -1.98,-0.161 -3.957,-0.309 -5.938,-0.453 -2.523,-0.184 -5.132,-0.375 -7.699,-0.602 -5.644,-0.504 -10.351,-3.535 -13.605,-8.754 -2.313,-3.695 -3.973,-7.605 -5.906,-12.336 -0.661,-1.613 -1,-3.656 -1.032,-6.238 -0.109,-9.117 0.129,-17.688 0.739,-26.192 0.601,-8.457 1.461,-16.218 2.632,-23.73 0.387,-2.465 0.621,-4.676 0.715,-6.754 0.067,-1.414 0.004,-2.84 -0.058,-4.219 -0.024,-0.523 -0.043,-1.039 -0.063,-1.55 -2.265,-0.801 -5.062,-1.192 -8.523,-1.192 -3.028,0 -6.61,0.317 -10.657,0.938 -0.027,0.238 -0.058,0.484 -0.093,0.73 -0.094,0.699 -0.196,1.422 -0.145,2.117 0.274,3.879 0.563,7.762 0.856,11.641 0.293,3.879 0.589,7.762 0.855,11.641 0.156,2.242 0.27,4.523 0.383,6.73 0.18,3.566 0.363,7.258 0.73,10.867 0.746,7.414 -0.246,14.801 -1.199,21.945 -0.137,1.016 -0.273,2.04 -0.406,3.055 -0.449,3.473 -1.57,6.895 -2.645,10.207 l -0.265,0.813 c -0.446,1.367 -1.313,2.824 -2.653,4.457 -1.91,2.332 -4.66,5.004 -8.984,5.004 -0.141,0 -0.273,-0.004 -0.422,-0.008 -1.707,-0.059 -3.457,0.066 -5.152,0.191 -1.09,0.082 -2.219,0.168 -3.328,0.199 -1.024,0.032 -2.055,0.036 -3.082,0.036 l -2.063,0 c -1.883,0 -3.465,0.019 -5.058,0.125 -7.274,0.492 -14.172,-1.496 -21.125,-6.102 -0.782,-0.512 -1.895,-1.316 -2.598,-2.363 -3.91,-5.832 -7.617,-12.203 -6.281,-20.266 0.398,-2.387 0.64,-4.848 0.867,-7.226 0.277,-2.832 0.558,-5.758 1.113,-8.594 1.117,-5.758 2.649,-11.899 4.68,-18.781 0.558,-1.883 1.168,-3.786 1.765,-5.622 1.809,-5.593 3.68,-11.375 4.145,-17.402 0.047,-0.621 0.105,-1.234 0.184,-1.965 l 0.093,-1.004 c -0.297,-0.117 -0.59,-0.242 -0.886,-0.371 -0.813,-0.347 -1.586,-0.679 -2.391,-0.804 -0.852,-0.133 -1.992,-0.075 -3.051,0.007 -0.289,0.02 -0.574,0.043 -0.859,0.063 -3.879,0.234 -7.887,0.5 -11.918,0.781 -0.496,0.035 -0.996,0.133 -1.438,0.219 -0.129,0.023 -0.261,0.047 -0.382,0.07 -0.055,0.102 -0.102,0.188 -0.149,0.262 -0.047,0.082 -0.101,0.18 -0.105,0.203 0.183,7.852 -0.641,15.762 -1.434,23.414 -0.324,3.121 -0.66,6.348 -0.922,9.527 -0.68,8.258 -2.656,16.786 -6.055,26.071 -2.144,5.883 -4.437,10.984 -7.003,15.601 -1.102,1.985 -2.465,4.27 -4.2,6.129 -2.574,2.77 -5.562,4.504 -8.875,5.153 -3.164,0.621 -6.218,0.937 -9.07,0.937 -5.453,0 -10.371,-1.098 -15.035,-3.351 -2.309,-1.11 -4.578,-2.262 -6.969,-3.485 -1.039,-0.527 -2.094,-1.062 -3.18,-1.613 -0.066,0.129 -0.132,0.246 -0.203,0.379 -0.281,0.504 -0.574,1.023 -0.695,1.578 -0.648,2.836 -1.246,5.742 -1.828,8.555 l -0.527,2.566 c -0.067,0.328 -0.125,0.656 -0.18,0.988 -0.102,0.606 -0.207,1.227 -0.387,1.832 -1.875,6.27 -3.105,12.805 -4.293,19.129 -0.672,3.574 -1.367,7.274 -2.172,10.891 -1.148,5.137 -1.816,10.476 -2.461,15.648 -0.214,1.719 -0.433,3.438 -0.668,5.157 -0.738,5.441 -1.574,11.773 -2.168,18.062 -0.207,2.215 -0.183,4.492 -0.156,6.699 0.008,0.981 0.02,1.965 0.012,2.946 -0.024,2.914 -0.024,5.828 -0.02,8.738 0.012,6.66 0.016,13.547 -0.328,20.305 l -0.074,1.511 c -0.328,6.395 -0.668,13.012 -0.641,19.532 0.024,6.187 0.02,12.378 0.012,18.753 0,2.774 -0.008,5.582 -0.008,8.446 l 0.063,0.054 c 0.23,0.231 0.656,0.661 0.988,1.149 3.297,4.887 7.922,7.168 14.566,7.168 1.18,0 2.407,-0.074 3.75,-0.219 2.981,-0.316 6.176,-0.867 10.063,-1.738 5.973,-1.34 10.504,-4.735 13.461,-10.078 3.445,-6.239 5.875,-12.633 7.211,-19.008 0.719,-3.445 0.734,-7.106 0.754,-10.699 0.047,-9.364 -1.457,-17.313 -4.586,-24.321 -1.348,-3.023 -3.293,-6.304 -7.453,-7.738 -1.547,-0.531 -3.055,-1.25 -4.508,-1.941 -0.902,-0.434 -1.84,-0.875 -2.777,-1.274 -3.504,-1.48 -6.34,-1.429 -9.04,0.129 -0.457,0.274 -0.953,0.414 -1.394,0.414 -0.703,0 -1.211,-0.367 -1.434,-1.035 -0.265,-0.848 0.137,-2.145 0.696,-2.816 1.894,-2.305 4.632,-3.305 7.425,-2.727 3.301,0.691 7.047,1.477 10.375,3.031 8.54,3.996 9.735,5.653 13.305,14.117 l 0.172,0.411 c 0.605,1.437 1.234,2.922 1.578,4.457 4.317,19.355 2.84,34.734 -4.652,48.39 l -0.055,0.106 c -0.168,0.297 -0.324,0.578 -0.441,0.879 -3.438,8.605 -10.153,13.695 -20.532,15.558 -3.265,0.59 -7.589,1.266 -12.027,1.266 -0.734,0 -1.469,-0.02 -2.176,-0.055 -4.394,-0.219 -7.523,-1.324 -10.156,-3.57 -0.531,-0.453 -1.164,-0.809 -1.894,-1.223 -0.297,-0.172 -0.61,-0.347 -0.938,-0.547 -0.574,1.114 -0.543,2.215 -0.512,3.282 0.008,0.464 0.02,0.941 -0.019,1.41 l -0.098,1.144 c -0.133,1.481 -0.262,3.016 -0.332,4.524 -0.047,1.133 -0.035,2.281 -0.023,3.496 0.007,0.5 0.011,1.015 0.011,1.547 6.219,2.675 12.047,4.258 17.825,4.828 1.324,0.133 2.941,-0.016 4.433,-0.172 1.328,-0.145 2.696,-0.289 4.047,-0.215 3.996,0.211 8.047,0.594 11.969,0.957 1.687,0.16 3.371,0.317 5.058,0.465 6.676,0.578 13.446,1.367 19.989,2.129 11.234,1.308 22.855,2.664 34.371,2.996 3.554,0.098 7.168,0.301 10.66,0.492 2.324,0.129 4.644,0.258 6.969,0.36 3.57,0.156 7.414,0.414 11.336,1.238 1.781,0.371 3.789,0.543 6.324,0.543 1.101,0 2.211,-0.031 3.25,-0.063 1.777,-0.058 3.672,-0.117 5.539,-0.117 3.613,0 6.559,0.219 9.281,0.688 0.996,0.171 2.074,0.254 3.414,0.254 0.934,0 1.891,-0.04 2.813,-0.079 l 1.105,-0.043 c 3.047,-0.105 6.094,-0.242 9.141,-0.375 4.644,-0.203 9.453,-0.414 14.183,-0.511 3.422,-0.075 6.907,0.121 10.274,0.308 0.758,0.039 1.512,0.086 2.262,0.121 2.027,0.11 4.089,0.258 6.078,0.403 3.218,0.23 6.554,0.472 9.832,0.535 6.375,0.125 12.859,0.148 19.133,0.168 3.468,0.008 6.941,0.019 10.41,0.047 0.695,0.004 1.398,0.082 2.078,0.156 0.625,0.062 1.265,0.133 1.898,0.145 0.871,0.019 1.75,0.046 2.629,0.078 1.348,0.047 2.742,0.089 4.11,0.089 1.285,0 2.418,-0.039 3.464,-0.125 6.637,-0.542 13.375,-1.269 19.887,-1.98 l 3.328,-0.359 c 0.699,-0.078 1.406,-0.293 2.211,-0.547 0.36,-0.11 0.735,-0.227 1.137,-0.34 0.668,-8.555 1.418,-18.469 1.808,-28.203 -0.851,-0.422 -1.429,-0.082 -2.007,0.355 -0.118,0.09 -0.227,0.18 -0.344,0.258 -0.266,0.184 -0.535,0.359 -0.805,0.535 -0.664,0.446 -1.359,0.903 -1.98,1.403 -3.824,3.082 -8.071,4.574 -12.989,4.574 -2.582,0 -5.308,-0.41 -8.328,-1.262 -5.164,-1.441 -8.14,-5.629 -10.379,-9.527 -2.73,-4.77 -3.96,-9.977 -4.964,-16.324 -0.219,-1.422 -0.352,-2.879 -0.473,-4.29 -0.07,-0.839 -0.145,-1.683 -0.238,-2.523 -0.379,-3.355 0.09,-6.68 0.543,-9.898 0.195,-1.407 0.398,-2.864 0.531,-4.297 0.148,-1.735 0.555,-3.469 0.953,-5.145 0.332,-1.426 0.672,-2.894 0.859,-4.359 0.793,-6.246 5.102,-9.313 10.223,-12.414 0.367,-0.223 0.82,-0.336 1.301,-0.336 0.93,0 1.972,0.465 2.051,1.34 0.082,0.886 -0.301,2.011 -0.903,2.668 -0.468,0.507 -1.082,0.867 -1.668,1.214 -0.398,0.235 -0.808,0.477 -1.156,0.758 -3.266,2.61 -5.094,5.657 -5.598,9.317 -0.277,2.004 -0.621,4.031 -0.949,6 -0.539,3.183 -1.094,6.48 -1.375,9.738 -0.613,7.023 0.34,14.152 2.84,21.172 0.371,1.043 0.699,1.883 1.035,2.625 1.762,3.902 4.024,7.695 8.578,8.945 2.649,0.731 4.942,1.078 7.008,1.078 3.094,0 5.758,-0.769 8.149,-2.371 2.269,-1.508 4.414,-3.273 6.488,-4.984 0.914,-0.754 1.824,-1.504 2.746,-2.227 0.027,-0.422 0.062,-0.816 0.098,-1.187 0.07,-0.844 0.132,-1.574 0.132,-2.301 -0.007,-2.75 -0.011,-5.5 -0.015,-8.25 -0.012,-7.563 -0.016,-15.387 -0.168,-23.074 -0.156,-7.891 -0.418,-15.91 -0.676,-23.668 -0.137,-4.055 -0.27,-8.11 -0.387,-12.168 -0.031,-1.106 -0.035,-2.215 -0.035,-3.321 0,-1.335 0,-2.718 -0.062,-4.078 -0.145,-3.183 -0.356,-6.425 -0.563,-9.554 l -0.246,-3.774 c -0.328,-5.117 -0.672,-10.406 -1.047,-15.613 -1.25,-17.387 -4.074,-35.191 -8.625,-54.434 -0.047,-0.183 -0.144,-0.367 -0.312,-0.679 -0.075,-0.141 -0.164,-0.301 -0.258,-0.496 -0.207,0.062 -0.399,0.117 -0.57,0.164 -0.415,0.113 -0.739,0.203 -0.989,0.359 -2.543,1.602 -5.16,2.41 -7.769,2.41 -3.34,0 -6.782,-1.289 -10.508,-3.945 m 31.062,211.633 c -0.101,-1.5 -0.203,-3.051 -0.183,-4.551 -0.637,-0.629 -1.227,-0.711 -1.676,-0.711 -0.289,0 -0.586,0.043 -0.875,0.074 -0.203,0.035 -0.398,0.063 -0.598,0.074 -2.418,0.18 -4.839,0.383 -7.254,0.586 -4.871,0.41 -9.917,0.832 -14.886,1.035 -2.867,0.118 -5.785,-0.05 -8.606,-0.21 -1.84,-0.11 -3.742,-0.219 -5.609,-0.243 -3.816,-0.066 -7.695,-0.078 -11.449,-0.093 -4.832,-0.028 -9.828,-0.051 -14.742,-0.161 -4.325,-0.097 -8.719,-0.32 -12.965,-0.535 -2.5,-0.125 -5,-0.254 -7.5,-0.355 -0.985,-0.039 -1.965,-0.086 -2.957,-0.129 -3.317,-0.16 -6.75,-0.316 -10.118,-0.254 -6.843,0.133 -13.566,0.465 -21.011,0.844 -1.758,0.09 -3.352,0.136 -4.879,0.136 -2.977,0 -5.676,-0.167 -8.254,-0.515 -1.465,-0.199 -3.047,-0.293 -4.977,-0.293 -0.601,0 -1.203,0.008 -1.8,0.023 -1.094,0.028 -2.184,0.043 -3.27,0.043 -5.094,0 -9.289,-0.351 -13.219,-1.101 -3.769,-0.723 -7.726,-0.918 -11.547,-1.11 -1.054,-0.047 -2.101,-0.101 -3.148,-0.16 -2.895,-0.176 -5.844,-0.297 -8.695,-0.418 -3.672,-0.156 -7.473,-0.312 -11.203,-0.582 -6.653,-0.472 -13.403,-1.109 -19.93,-1.726 l -3.899,-0.368 c -2.808,-0.261 -5.613,-0.554 -8.421,-0.847 -2.668,-0.278 -5.336,-0.563 -8.004,-0.813 -4.582,-0.429 -8.664,-0.761 -12.477,-1.011 -1.32,-0.086 -2.641,-0.188 -3.965,-0.293 -3.136,-0.246 -6.39,-0.5 -9.605,-0.5 -0.985,0 -1.949,0.019 -2.86,0.07 -4.07,0.211 -8.25,-0.449 -12.996,-2.02 -1.34,-0.441 -2.691,-0.812 -4.133,-1.199 -0.601,-0.164 -1.214,-0.328 -1.839,-0.504 -0.106,0.117 -0.219,0.231 -0.321,0.336 -0.261,0.27 -0.507,0.528 -0.535,0.742 -0.844,6.289 -0.793,12.516 -0.738,19.114 l 0.012,1.746 1.566,0.277 c 1.07,0.192 2.016,0.356 2.965,0.524 2.234,0.386 3.734,1.5 4.594,3.402 0.277,0.617 0.593,1.23 0.898,1.828 0.469,0.902 0.945,1.844 1.313,2.813 0.941,2.488 2.66,4.093 5.41,5.066 1.332,0.469 2.633,0.891 3.89,0.891 1.055,0 2.004,-0.293 2.903,-0.899 0.179,-0.121 0.382,-0.137 0.547,-0.137 0.121,0 0.265,0.008 0.425,0.024 0.203,0.015 0.442,0.035 0.715,0.035 l 0.113,0 0.086,0.078 c 0.297,0.27 0.621,0.551 0.961,0.848 0.797,0.699 1.7,1.492 2.543,2.324 3.66,3.613 8.157,6.371 13.364,8.187 1.183,0.418 2.339,0.934 3.461,1.43 2.417,1.086 4.917,2.203 7.722,2.293 1.063,0.035 2.07,0.746 3.051,1.438 0.199,0.144 0.402,0.285 0.602,0.418 1.578,1.054 3.144,2.179 4.664,3.269 0.613,0.445 1.234,0.891 1.855,1.34 4.34,3.082 8.949,3.992 13.758,2.727 3.113,-0.829 5.473,-1.493 7.656,-2.161 1.984,-0.609 3.883,-0.918 5.625,-0.918 4.133,0 7.719,1.731 10.664,5.153 1.278,1.484 2.688,2.953 4.317,4.5 4.058,3.859 8.48,4.777 13.218,2.738 1.571,-0.676 3.141,-1.363 4.754,-2.066 l 2.235,-0.973 0.117,0.047 c 1.125,0.484 2.25,0.957 3.379,1.437 2.484,1.051 5.05,2.133 7.547,3.282 2.339,1.07 4.445,1.589 6.425,1.589 3.114,0 5.821,-1.3 8.27,-3.972 0.183,-0.199 0.41,-0.328 0.758,-0.52 0.191,-0.113 0.429,-0.242 0.722,-0.426 l 0.106,-0.062 2.965,0.742 c 3.922,0.981 8.039,2.016 12.156,3.047 0.449,0.113 0.898,0.211 1.351,0.313 0.836,0.187 1.696,0.382 2.528,0.644 1.578,0.492 3.285,0.301 4.742,-0.516 0.922,-0.523 1.863,-1.027 2.809,-1.535 3.199,-1.726 6.511,-3.508 9.175,-5.894 2.903,-2.602 6.106,-3.867 9.789,-3.867 1.625,0 3.356,0.238 5.293,0.726 1.789,0.449 3.508,1.242 5.172,2.008 0.407,0.184 0.809,0.371 1.215,0.551 5.406,2.422 10.996,2.277 16.813,-0.422 2.207,-1.027 3.547,-2.258 4.351,-3.996 2.117,-4.598 6.278,-6.125 11.086,-7.52 0.32,-0.09 0.672,-0.14 1.051,-0.14 1.094,0 2.258,0.371 3.387,0.726 0.23,0.07 0.457,0.145 0.679,0.207 1.52,0.457 3.008,1.047 4.45,1.625 0.574,0.223 1.144,0.453 1.714,0.676 4.848,-3.359 7.317,-6.648 8.243,-10.977 0.57,-2.691 1.957,-5.043 3.296,-7.312 0.661,-1.121 1.348,-2.277 1.918,-3.453 0.614,-1.266 2.555,-1.981 3.368,-2.227 2.175,-0.672 4.394,-1.207 6.746,-1.773 0.906,-0.223 1.84,-0.446 2.8,-0.684 1.317,-3.605 1.071,-7.308 0.836,-10.894 m 6.063,-84.571 c 0.48,3.711 2.039,7.438 4.496,10.77 1.078,1.453 3.035,2.449 4.484,3.027 6.332,2.516 13.114,3.094 18.309,3.313 0.086,0 0.172,0.004 0.254,0.004 1.695,0 3.476,-0.692 5.207,-1.364 0.488,-0.187 0.98,-0.382 1.461,-0.55 0.98,-0.352 1.949,-0.817 2.879,-1.262 1.097,-0.524 2.222,-1.063 3.39,-1.438 3.996,-1.285 7.422,-3.761 10.793,-7.789 4.602,-5.5 7.305,-10.508 8.512,-15.765 0.379,-1.641 0.945,-3.282 1.688,-4.883 2.402,-5.188 3.152,-9.285 2.339,-12.973 -0.222,-8.426 -2.05,-16.297 -5.769,-24.769 -2.332,-5.317 -5.719,-10.606 -10.356,-16.18 -5.711,-6.863 -11.929,-14.027 -19.636,-19.617 -4.403,-3.192 -8.946,-6.156 -13.2,-8.887 -3.3,-2.113 -7.132,-2.848 -10.105,-3.246 -3.754,-0.508 -6.215,0.766 -7.602,3.941 -1.39,3.176 -2.714,7.071 -1.968,11.875 1.023,6.621 1.543,13.43 2.05,20.012 0.168,2.215 0.336,4.43 0.524,6.641 0.894,10.453 1.039,21.105 1.18,31.414 0.074,5.371 0.152,10.929 0.332,16.394 0.125,3.727 0.254,7.586 0.738,11.332 M 483.188,309.441 c 1.617,5.504 2.652,11.164 3.066,16.829 0.184,2.457 0.707,4.949 1.215,7.351 0.187,0.899 0.379,1.793 0.551,2.695 0.957,4.981 1.828,9.36 2.675,13.391 0.145,0.707 0.395,1.402 0.66,2.141 0.094,0.257 0.188,0.519 0.286,0.797 0.144,-0.079 0.273,-0.149 0.406,-0.211 0.367,-0.184 0.66,-0.332 0.844,-0.536 2.246,-2.46 4.949,-3.656 8.277,-3.656 1.562,0 3.242,0.266 5.156,0.805 5.059,1.433 9.926,3.754 14.887,7.082 9.656,6.48 18.695,14.785 27.637,25.391 6.847,8.109 11.937,16.875 15.144,26.054 2.727,7.813 3.762,16.481 3.164,26.508 l -0.011,0.113 c -0.016,0.36 -0.04,0.739 -0.165,1.094 -0.703,1.988 -1.367,4.035 -2,6.016 -2.437,7.601 -4.96,15.457 -10.644,21.816 -4.477,5.004 -8.539,8.047 -13.172,9.859 -2.246,0.883 -4.641,2.114 -7.535,3.872 -1.555,0.937 -3.699,2.035 -6.078,1.761 l -1.496,-0.164 c -6.953,-0.769 -14.137,-1.566 -20.84,-4.195 -1.52,-0.594 -2.953,-1.434 -4.481,-2.324 -0.629,-0.371 -1.281,-0.754 -1.976,-1.141 -1.016,7.309 -0.621,14.406 -0.231,21.27 0.118,2.109 0.239,4.285 0.317,6.414 2.566,2.125 5.363,2.304 7.789,2.304 0.293,0 0.586,-0.004 0.879,-0.007 6.918,-0.094 13.914,-0.446 20.437,-0.809 4.723,-0.27 10.071,-0.57 14.778,-3.137 0.375,-0.207 0.753,-0.406 1.128,-0.605 1.442,-0.766 2.934,-1.551 4.188,-2.563 l 1.43,-1.152 c 7.644,-6.156 15.543,-12.524 22.297,-20.008 5.906,-6.539 10.078,-14.328 13.535,-25.254 1.59,-5.012 2.48,-10.058 2.66,-15.012 0.039,-1.265 0.18,-2.542 0.312,-3.781 0.149,-1.363 0.301,-2.769 0.328,-4.156 0.055,-3.137 -0.054,-6.363 -0.316,-9.602 -0.269,-3.257 -0.664,-6.566 -1.047,-9.761 -0.101,-0.887 -0.211,-1.774 -0.312,-2.657 -0.946,-8.043 -3.453,-15.578 -7.457,-22.398 -3.953,-6.727 -8.356,-13.746 -14.848,-19.125 -4.23,-3.504 -8.422,-7.195 -12.48,-10.758 -5.469,-4.808 -11.118,-9.769 -16.918,-14.347 -8.262,-6.52 -17.18,-13.301 -27.34,-18.27 -4.938,-2.41 -8.664,-4.367 -12.082,-6.344 -2.106,-1.215 -4.153,-2.601 -6.133,-3.937 -1.129,-0.766 -2.262,-1.528 -3.406,-2.27 -0.926,-0.594 -1.875,-1.14 -2.973,-1.765 -0.41,-0.239 -0.844,-0.485 -1.297,-0.75 -0.031,2.734 0.543,4.937 1.192,7.132" /><path
         id="path16"
         style="fill:#171717;fill-opacity:1;fill-rule:nonzero;stroke:none"
         d="m 338.211,492.453 c 7.328,-11.012 9.68,-20.832 7.394,-30.902 -0.71,-3.137 -1.187,-6.293 -1.554,-8.973 -0.906,-6.519 -4.461,-11.75 -7.457,-15.582 -0.617,-0.793 -1.539,-1.398 -2.438,-1.984 -0.191,-0.129 -0.386,-0.254 -0.574,-0.379 -2.574,-1.746 -5.477,-2.149 -9.297,-2.52 l -0.273,-0.031 0.004,-0.277 c 0.082,-3.535 2.285,-4.063 3.593,-4.063 l 0.125,0 c 4.993,0.117 8.621,1.492 11.082,4.211 3.7,4.082 7.661,9.145 9,15.77 1.067,5.222 2.278,11.308 3.227,17.336 0.363,2.324 0.41,4.832 0.129,7.449 -0.77,7.23 -3.5,14.238 -8.859,22.715 -0.594,0.945 -1.426,1.738 -2.235,2.507 -0.301,0.29 -0.598,0.575 -0.883,0.864 -1.937,1.98 -4.406,2.961 -6.797,3.914 -1.089,0.43 -2.207,0.879 -3.261,1.41 -4.192,2.129 -8.903,3.117 -14.832,3.117 -2.473,0 -4.922,-0.164 -6.992,-0.324 -1.004,-0.078 -1.993,-0.418 -2.829,-0.742 -1.687,-0.656 -3.386,-1.356 -5.031,-2.028 -0.961,-0.39 -1.918,-0.785 -2.883,-1.175 -3.336,-1.34 -6.152,-3.489 -8.621,-6.559 -7.558,-9.414 -10.851,-20 -9.789,-31.449 0.633,-6.805 1.598,-14.86 3.981,-22.961 1.929,-6.567 6.023,-11.035 9.769,-14.535 1.606,-1.504 3.617,-2.352 5.828,-2.457 l 0.059,0 c 0.512,0 1.562,0.398 1.668,0.941 0.121,0.652 0.043,1.641 -0.418,2.281 -0.344,0.481 -0.906,0.766 -1.453,1.039 -0.168,0.086 -0.34,0.176 -0.5,0.27 -3.754,2.148 -6.531,5.156 -8.25,8.926 l -0.184,0.406 c -1.664,3.637 -3.383,7.398 -3.953,11.242 l -0.059,0.391 c -0.906,6.121 -1.855,12.441 -1.812,18.781 0.051,8.981 3.191,17.055 9.586,24.691 0.898,1.075 1.894,1.938 2.883,2.497 6.308,3.566 12.457,5.304 18.789,5.304 1.484,0 3,-0.105 4.496,-0.304 5.281,-0.692 10.469,-2.618 16.824,-6.239 1.109,-0.636 2.129,-1.57 2.797,-2.578 m -40.414,-67.348 0,-0.003 0,0.003" /><path
         id="path18"
         style="fill:#171717;fill-opacity:1;fill-rule:nonzero;stroke:none"
         d="m 427.367,491.191 c 5.004,-8.293 6.699,-17.625 5.035,-27.738 -0.547,-3.348 -1.484,-6.703 -2.39,-9.949 -0.196,-0.703 -0.399,-1.41 -0.59,-2.121 -2.074,-7.582 -6.133,-12.473 -12.391,-14.934 -0.535,-0.211 -0.961,-0.633 -1.539,-1.211 -0.308,-0.308 -0.672,-0.675 -1.125,-1.074 l -0.418,-0.367 0.539,-0.145 c 2.356,-0.613 3.809,-0.867 5.024,-0.867 1.918,0 3.23,0.688 4.73,1.805 3.738,2.781 6.473,6.461 8.117,10.941 0.633,1.719 1.196,3.492 1.743,5.211 0.363,1.145 0.73,2.293 1.117,3.434 3.48,10.269 3.633,20.48 0.445,30.355 -1.879,5.817 -4.883,13.133 -11.48,18.129 -6.118,4.633 -11.539,7.645 -18.282,7.328 -5.015,-0.242 -10.089,-0.886 -14.992,-1.504 l -0.844,-0.105 c -1.339,-0.176 -2.648,-0.887 -3.753,-1.566 -11.118,-6.833 -17.809,-17.133 -19.887,-30.61 -1.176,-7.633 -0.035,-15.098 1.34,-22.711 1.422,-7.863 6.437,-13.594 11.648,-18.617 1.316,-1.266 3.02,-1.883 5.203,-1.883 0.613,0 1.266,0.047 1.992,0.145 0.766,0.101 1.719,0.879 1.891,1.543 0.164,0.644 -0.477,1.715 -1.098,2.113 -0.5,0.32 -1.089,0.469 -1.664,0.609 -0.351,0.086 -0.711,0.176 -1.035,0.301 -0.242,0.102 -0.492,0.192 -0.75,0.281 -0.808,0.282 -1.64,0.582 -2.187,1.102 -5.446,5.219 -8.543,10.348 -9.743,16.137 -1.164,5.601 -1.562,11.699 -1.253,19.183 0.144,3.489 0.902,6.489 2.304,9.18 0.305,0.582 0.606,1.168 0.903,1.75 1.066,2.082 2.168,4.23 3.441,6.219 5.242,8.164 11.434,12.164 19.477,12.57 0.945,0.051 1.894,0.168 2.816,0.285 0.754,0.09 1.523,0.188 2.285,0.246 10.965,0.801 19.5,-3.726 25.371,-13.465" /><path
         id="path20"
         style="fill:#171717;fill-opacity:1;fill-rule:nonzero;stroke:none"
         d="m 388.152,392.324 c -0.472,1.274 -0.961,2.586 -1.375,3.895 -2.734,8.441 -8.679,14.094 -17.195,16.34 -6.027,1.589 -12.859,3.386 -19.836,3.386 -0.687,0 -1.383,-0.015 -2.058,-0.047 -8.571,-0.437 -15.872,-4.636 -19.52,-11.226 -2.262,-4.09 -4.133,-8.469 -5.934,-12.711 l -0.523,-1.227 c -0.668,-1.562 -1.027,-3.371 -1.02,-5.097 0.02,-3.899 0.235,-7.25 0.637,-10.25 0.09,-0.66 0.176,-1.317 0.258,-1.977 0.559,-4.371 1.137,-8.894 3.223,-13 2.531,-4.965 5.699,-10.562 11.316,-14.16 1.051,-0.668 2.305,-1.402 3.641,-1.703 0.507,-0.117 0.964,-0.176 1.402,-0.176 2.039,0 3.371,1.234 4.316,4.008 l 0.11,0.324 -0.336,0.063 c -0.223,0.039 -0.449,0.109 -0.668,0.172 -0.52,0.148 -1.09,0.289 -1.559,0.191 -0.379,-0.078 -0.758,-0.125 -1.117,-0.125 -1.918,0 -3.387,1.164 -4.73,2.355 -4.754,4.211 -7.946,9.274 -9.473,15.055 -0.941,3.551 -1.672,7.563 -2.227,12.258 -0.734,6.168 0.164,11.332 2.743,15.793 0.718,1.246 1.32,2.578 1.894,3.863 0.418,0.93 0.852,1.887 1.32,2.801 2.664,5.184 7.297,8.269 13.391,8.937 8.953,0.977 18.254,-0.574 27.617,-4.609 3.906,-1.684 6.875,-4.699 8.828,-8.961 4.512,-9.844 6.399,-19.375 5.77,-29.141 -0.258,-4.019 -1.113,-7.769 -2.602,-11.476 -1.847,-4.574 -4.465,-6.414 -8.675,-6.086 -0.2,0.016 -0.391,0.023 -0.586,0.023 -1.45,0 -2.493,-0.507 -3.196,-1.562 l -0.058,-0.094 0.015,-0.105 c 0.16,-1.446 1.106,-2.485 2.735,-2.992 1.129,-0.356 2.277,-0.536 3.402,-0.536 3.141,0 5.918,1.426 7.613,3.918 2.641,3.879 5.145,8.145 5.59,13.086 0.742,8.258 1.094,17.071 -1.336,25.547 -0.515,1.777 -1.168,3.543 -1.797,5.246" /><path
         id="path22"
         style="fill:#171717;fill-opacity:1;fill-rule:nonzero;stroke:none"
         d="m 303.543,385.996 c -0.246,1.117 -0.488,2.234 -0.73,3.356 -1.04,4.89 -3.793,9.293 -8.407,13.441 -1.871,1.684 -3.988,3.133 -6.035,4.535 l -0.375,0.258 c -6.168,4.223 -11.73,5.199 -17.426,3.121 -0.695,-0.258 -1.437,-0.375 -2.222,-0.504 -0.539,-0.086 -1.098,-0.176 -1.641,-0.316 -9.84,-2.532 -16.711,-7.985 -20.426,-16.219 -3.125,-6.91 -5.883,-14.441 -4.922,-22.672 0.164,-1.426 0.215,-2.894 0.258,-4.316 0.043,-1.192 0.082,-2.426 0.196,-3.633 0.511,-5.676 2.019,-11.637 4.613,-18.211 1.429,-3.629 4.164,-5.746 8.367,-6.477 0.824,-0.144 1.48,-0.211 2.012,-0.211 1.277,0 2,0.407 2.328,1.336 0.265,0.743 0.211,1.461 -0.149,2.082 -0.347,0.59 -1.136,1.36 -2.953,1.676 -3.738,0.641 -5.261,3.02 -6.504,6.637 -2.929,8.551 -3.636,17.309 -3.925,23.976 -0.079,1.77 0.07,3.208 0.453,4.411 l 0.472,1.504 c 1.243,3.949 2.528,8.035 4.2,11.871 1.925,4.418 5.566,8.05 10.519,10.519 4.352,2.16 8.914,3.348 13.567,3.524 0.324,0.015 0.656,0.023 0.988,0.023 2.054,0 3.687,-0.269 4.984,-0.816 4.699,-1.973 8.754,-4.739 12.051,-8.211 2.793,-2.946 4.68,-6.457 5.766,-10.742 2.449,-9.661 2.742,-18.278 0.894,-26.34 -1.516,-6.606 -3.863,-11.192 -10.426,-12.102 -0.175,-0.027 -0.336,-0.094 -0.48,-0.152 l -0.121,-0.043 c -0.895,-0.336 -2.567,-0.965 -2.395,-2.563 0.078,-0.726 0.531,-1.371 1.016,-2.05 0.199,-0.29 0.41,-0.583 0.586,-0.887 l 0.121,-0.207 0.226,0.07 c 0.668,0.211 1.297,0.426 1.911,0.633 1.296,0.437 2.519,0.848 3.754,1.101 2.214,0.457 3.898,1.633 5.148,3.598 l 0.566,0.891 c 1.957,3.043 3.977,6.199 4.664,9.906 l 0.102,0.578 c 1.125,6.09 2.281,12.383 1.191,18.719 -0.515,2.988 -1.175,5.996 -1.816,8.906" /><path
         id="path24"
         style="fill:#171717;fill-opacity:1;fill-rule:nonzero;stroke:none"
         d="m 465.891,414.625 c -1.118,1.023 -2.532,1.852 -3.989,2.34 -5.445,1.836 -10.859,2.762 -16.093,2.762 -4.813,0 -9.618,-0.789 -14.282,-2.34 -7.105,-2.367 -12.64,-7.485 -16.457,-15.223 -2.593,-5.258 -3.859,-11.234 -3.66,-17.273 0.035,-1.055 0.059,-2.11 0.074,-3.168 0.039,-1.953 0.075,-3.969 0.211,-5.953 0.762,-10.821 4.946,-19.645 12.434,-26.235 0.93,-0.816 2.176,-1.316 3.035,-1.617 0.059,-0.023 0.125,-0.031 0.191,-0.031 0.567,0 1.313,0.758 1.454,0.91 0.296,0.312 0.379,1.055 0.152,1.41 -0.379,0.602 -0.832,1.16 -1.277,1.707 -0.141,0.176 -0.286,0.356 -0.426,0.535 -0.711,0.899 -1.438,1.778 -2.16,2.66 -1.657,2.012 -3.36,4.086 -4.797,6.278 -1.317,2.011 -2.27,4.379 -2.684,6.676 -0.59,3.265 -0.941,6.648 -1.281,9.91 -0.145,1.382 -0.289,2.765 -0.449,4.113 -0.125,5.582 0.527,10.34 1.984,14.559 2.645,7.648 7.317,12.796 13.883,15.304 9.086,3.469 18.809,3.375 28.726,-0.269 1.297,-0.477 2.719,-1.559 3.899,-2.957 4.16,-4.942 6.566,-10.039 7.344,-15.59 0.586,-4.164 0.679,-7.563 0.293,-10.692 -0.18,-1.461 -0.426,-2.949 -0.657,-4.382 -0.281,-1.7 -0.566,-3.457 -0.757,-5.196 -0.329,-3.05 -1.508,-5.883 -3.61,-8.675 -1.273,-1.684 -2.605,-3.368 -3.894,-4.997 l -0.653,-0.824 c -0.152,-0.195 -0.332,-0.371 -0.5,-0.547 -0.226,-0.222 -0.457,-0.453 -0.648,-0.722 -0.852,-1.2 -0.527,-2.926 0.746,-3.922 1.055,-0.821 2.5,-0.602 3.41,0.539 0.387,0.48 0.774,0.957 1.16,1.437 1.508,1.856 3.067,3.778 4.414,5.797 1.493,2.227 2.508,4.235 3.11,6.149 3.722,11.789 4.133,22.492 1.258,32.711 -1.543,5.5 -4.739,10.48 -9.504,14.816" /><path
         id="path26"
         style="fill:#171717;fill-opacity:1;fill-rule:nonzero;stroke:none"
         d="m 447.027,558.633 c -0.445,0.203 -0.953,0.23 -1.347,0.23 -0.196,0 -0.395,-0.011 -0.59,-0.015 -0.145,-0.008 -0.285,-0.012 -0.426,-0.012 -2.25,-0.035 -4.5,-0.082 -6.754,-0.129 -4.129,-0.086 -8.406,-0.176 -12.609,-0.187 -7.649,-0.02 -15.301,-0.024 -22.949,-0.024 l -30.903,0.008 0,-0.129 c -1.207,0 -2.418,0.016 -3.629,0.023 -1.308,0.016 -2.617,0.024 -3.925,0.024 -1.797,0 -3.286,-0.024 -4.692,-0.067 -7.004,-0.246 -14.133,-0.535 -21.023,-0.808 -5.508,-0.223 -11.016,-0.442 -16.52,-0.645 -2.637,-0.093 -5.32,-0.14 -7.918,-0.179 -4.883,-0.078 -9.929,-0.16 -14.867,-0.602 -3.426,-0.301 -6.918,-0.461 -10.293,-0.609 -5.008,-0.223 -10.184,-0.457 -15.266,-1.176 -5.75,-0.809 -11.644,-1.328 -17.347,-1.824 -3.035,-0.27 -6.172,-0.543 -9.254,-0.856 -1.68,-0.172 -3.375,-0.547 -5.043,-1.101 -0.66,-0.219 -0.984,-1.485 -1.012,-2.11 -0.019,-0.519 0.563,-1.035 1.141,-1.465 0.328,-0.253 0.801,-0.289 1.054,-0.289 0.083,0 0.165,0.004 0.243,0.008 1.394,0.125 2.789,0.239 4.183,0.352 3.469,0.285 7.051,0.57 10.551,1.07 10.352,1.481 21.203,2.469 32.27,2.945 1.707,0.079 3.418,0.145 5.121,0.207 4.297,0.157 8.734,0.317 13.09,0.653 18.035,1.394 36.64,2.086 56.886,2.105 4.906,0.004 9.887,0.09 14.711,0.168 1.547,0.028 3.098,0.055 4.649,0.078 1.746,0.028 3.488,0.071 5.234,0.121 0.906,0.028 1.816,0.047 2.73,0.075 2.415,0.054 4.997,0.086 7.875,0.086 3.723,0 7.516,-0.051 11.184,-0.094 3.664,-0.047 7.461,-0.098 11.191,-0.098 5.922,0 10.782,0.121 15.29,0.383 1.289,0.078 2.597,0.02 3.867,-0.035 0.793,-0.031 1.586,-0.067 2.371,-0.07 l 0.449,-0.012 c 0.191,0 0.383,-0.004 0.57,-0.004 0.586,0 1.266,0.031 1.879,0.262 0.637,0.242 1.399,1.222 1.344,1.937 -0.047,0.688 -0.824,1.492 -1.516,1.805" /></g></g></svg>