<?xml version="1.0" encoding="UTF-8" standalone="no"?>
<svg
   xmlns:dc="http://purl.org/dc/elements/1.1/"
   xmlns:cc="http://creativecommons.org/ns#"
   xmlns:rdf="http://www.w3.org/1999/02/22-rdf-syntax-ns#"
   xmlns:svg="http://www.w3.org/2000/svg"
   xmlns="http://www.w3.org/2000/svg"
   viewBox="0 0 100 100"
   height="100"
   width="100"
   xml:space="preserve"
   version="1.1"
   id="svg2"><metadata
     id="metadata8"><rdf:RDF><cc:Work
         rdf:about=""><dc:format>image/svg+xml</dc:format><dc:type
           rdf:resource="http://purl.org/dc/dcmitype/StillImage" /></cc:Work></rdf:RDF></metadata><defs
     id="defs6" /><g
     transform="matrix(1.25,0,0,-1.25,0,100)"
     id="g10"><g
       transform="scale(0.1,0.1)"
       id="g12"><path
         id="path14"
         style="fill:#171717;fill-opacity:1;fill-rule:nonzero;stroke:none"
         d="m 520.555,457.383 c -4.489,-0.379 -8.989,-0.629 -13.457,-1.18 -1.84,-0.234 -3.34,0.559 -4.938,0.969 -0.582,0.148 -1.07,1.406 -1.246,2.234 -0.898,4.16 -0.648,8.301 0.141,12.477 0.383,2.047 0.383,4.172 0.418,6.265 0.054,3.957 0.019,7.907 0,11.856 -0.008,1.684 -0.047,3.367 -0.129,5.043 -0.125,2.574 0.609,3.484 3.144,3.422 8.715,-0.242 17.395,0.504 26.086,0.836 4.172,0.164 8.344,0.054 12.52,0.125 2.133,0.039 4.261,0.25 6.394,0.289 2.387,0.051 4.77,-0.008 7.153,-0.031 1.031,-0.008 1.82,-0.415 2.117,-1.469 0.5,-1.758 1.226,-3.512 1.426,-5.313 0.476,-4.328 0.836,-8.676 1.004,-13.019 0.207,-5.203 0.148,-10.41 0.234,-15.621 0.019,-1.25 0.144,-2.508 0.277,-3.758 0.281,-2.637 -0.34,-3.235 -2.929,-3.778 -6.2,-1.296 -12.375,-0.023 -18.559,-0.085 -0.254,-0.008 -0.516,0.14 -0.758,0.109 -5.812,-0.844 -11.574,-0.133 -17.344,0.473 -0.504,0.054 -1.023,-0.039 -1.531,-0.071 -0.012,0.078 -0.019,0.149 -0.023,0.227 m -15.992,38.113 c -0.055,-1.781 -0.145,-3.187 -0.133,-4.59 0.047,-4.695 0.183,-9.398 0.175,-14.09 0,-1.753 -0.292,-3.507 -0.457,-5.261 -0.265,-2.825 -0.957,-5.617 -0.527,-8.5 0.391,-2.641 1.465,-3.649 4.18,-3.485 1.953,0.118 3.894,0.489 5.847,0.535 4.254,0.102 8.52,0.133 12.774,0.063 2.031,-0.031 4.058,-0.457 6.094,-0.512 5.531,-0.125 11.062,-0.226 16.589,-0.172 2.95,0.024 5.961,-0.285 9.055,0.817 0.024,0.719 0.07,1.457 0.067,2.195 -0.032,4.942 0.007,9.891 -0.125,14.84 -0.133,4.941 -0.422,9.883 -0.696,14.824 -0.039,0.731 -0.426,1.438 -0.562,2.172 -0.297,1.531 -1.289,2.043 -2.746,2.043 -3.328,-0.016 -6.653,0.09 -9.969,-0.008 -6.133,-0.187 -12.277,0.379 -18.391,-0.414 -0.672,-0.09 -1.371,0.039 -2.05,0.024 -2.293,-0.055 -4.586,-0.122 -6.883,-0.176 -2.379,-0.063 -4.75,-0.117 -7.125,-0.18 -1.61,-0.039 -3.211,-0.078 -5.117,-0.125" /><path
         id="path16"
         style="fill:#171717;fill-opacity:1;fill-rule:nonzero;stroke:none"
         d="m 506.246,455.637 c -1.086,0.031 -2.055,0.347 -2.992,0.652 -0.402,0.133 -0.809,0.262 -1.227,0.371 -1.093,0.281 -1.574,2.391 -1.629,2.633 -0.82,3.824 -0.777,7.848 0.137,12.684 0.348,1.843 0.375,3.816 0.403,5.714 l 0.007,0.465 c 0.051,3.414 0.032,6.883 0.012,10.235 l -0.008,1.613 c -0.011,1.84 -0.054,3.476 -0.129,5.012 -0.074,1.558 0.164,2.531 0.77,3.152 0.598,0.609 1.496,0.867 2.918,0.82 6.148,-0.164 12.387,0.164 18.426,0.481 2.543,0.133 5.078,0.265 7.621,0.363 2.515,0.094 5.07,0.094 7.539,0.094 1.664,0 3.328,0 4.992,0.031 1.074,0.016 2.144,0.086 3.219,0.148 1.054,0.063 2.117,0.125 3.172,0.141 1.867,0.039 3.761,0.016 5.593,-0.008 l 1.578,-0.023 0.004,0 c 1.758,-0.055 2.383,-1.031 2.614,-1.848 0.144,-0.527 0.316,-1.054 0.484,-1.574 0.398,-1.234 0.809,-2.516 0.957,-3.824 0.52,-4.696 0.848,-8.969 1.008,-13.067 0.133,-3.336 0.152,-6.722 0.176,-10.007 0.011,-1.875 0.027,-3.747 0.054,-5.618 0.02,-1.222 0.145,-2.449 0.278,-3.714 0.324,-3.024 -0.594,-3.778 -3.344,-4.344 -2.359,-0.496 -4.856,-0.668 -8.094,-0.567 -1.426,0.039 -2.867,0.133 -4.262,0.215 -2.105,0.141 -4.207,0.274 -6.308,0.25 -0.184,0.016 -0.352,0.039 -0.481,0.078 -0.078,0.016 -0.156,0.032 -0.199,0.039 -2.273,-0.332 -4.707,-0.457 -7.445,-0.371 -2.953,0.09 -5.938,0.403 -8.824,0.711 l -1.211,0.125 c -0.309,0.039 -0.629,0 -0.946,-0.023 -0.171,-0.016 -0.336,-0.031 -0.507,-0.039 l -0.508,-0.032 -0.016,0.211 c -1.121,-0.093 -2.242,-0.179 -3.363,-0.265 -3.137,-0.231 -6.387,-0.481 -9.555,-0.867 -0.308,-0.039 -0.617,-0.055 -0.914,-0.047 m 50.457,43.523 -1.644,0.024 c -1.825,0.019 -3.711,0.046 -5.563,0.011 -1.043,-0.019 -2.09,-0.082 -3.133,-0.144 -1.086,-0.063 -2.172,-0.125 -3.261,-0.149 -1.668,-0.023 -3.34,-0.023 -5.008,-0.023 -2.461,0 -5.004,0 -7.5,-0.102 -2.535,-0.093 -5.071,-0.222 -7.606,-0.363 -6.058,-0.316 -12.32,-0.644 -18.511,-0.473 -1.09,0.024 -1.766,-0.132 -2.133,-0.503 -0.387,-0.399 -0.535,-1.133 -0.473,-2.368 0.078,-1.55 0.121,-3.211 0.129,-5.066 l 0.008,-1.606 c 0.019,-3.359 0.035,-6.835 -0.012,-10.25 l -0.008,-0.472 c -0.023,-1.946 -0.05,-3.953 -0.418,-5.895 -0.89,-4.687 -0.933,-8.59 -0.144,-12.265 0.211,-0.969 0.66,-1.77 0.867,-1.832 0.434,-0.114 0.859,-0.254 1.285,-0.387 1.145,-0.379 2.207,-0.731 3.453,-0.574 3.196,0.394 6.457,0.644 9.61,0.879 1.293,0.097 2.582,0.191 3.871,0.3 l 0.523,0.039 0.024,-0.218 c 0.367,0.031 0.742,0.07 1.101,0.023 l 1.219,-0.125 c 2.867,-0.301 5.828,-0.617 8.738,-0.703 2.68,-0.086 5.055,0.031 7.262,0.355 l 0.187,0.008 c 0.161,0 0.305,-0.039 0.426,-0.07 0.074,-0.016 0.16,-0.039 0.207,-0.039 2.145,0.016 4.301,-0.113 6.387,-0.246 1.41,-0.094 2.82,-0.188 4.23,-0.227 3.153,-0.101 5.579,0.071 7.844,0.543 2.43,0.512 2.762,0.934 2.516,3.211 -0.133,1.289 -0.258,2.547 -0.278,3.813 -0.031,1.867 -0.05,3.746 -0.062,5.621 -0.02,3.273 -0.043,6.656 -0.176,9.976 -0.152,4.067 -0.48,8.317 -1.004,12.989 -0.129,1.203 -0.508,2.375 -0.906,3.613 -0.172,0.539 -0.348,1.082 -0.496,1.613 -0.203,0.723 -0.68,1.059 -1.551,1.082 m -49.68,-40.133 0,0 c -2.347,0.071 -3.523,1.258 -3.921,3.95 -0.325,2.171 -0.036,4.289 0.246,6.336 0.101,0.761 0.207,1.531 0.277,2.296 0.051,0.536 0.113,1.071 0.176,1.606 0.137,1.187 0.277,2.414 0.281,3.601 0.004,2.887 -0.047,5.825 -0.098,8.657 -0.031,1.808 -0.062,3.617 -0.078,5.425 -0.011,0.954 0.028,1.883 0.071,2.954 0.019,0.527 0.043,1.07 0.062,1.66 l 0.016,0.496 15.336,0.39 c 1.429,0.04 2.859,0.075 4.285,0.106 0.289,0 0.574,-0.016 0.867,-0.031 0.379,-0.024 0.754,-0.043 1.125,0 3.98,0.511 8.023,0.468 11.934,0.414 2.136,-0.032 4.343,-0.063 6.507,0.008 2.137,0.058 4.301,0.039 6.387,0.023 1.203,-0.008 2.402,-0.023 3.598,-0.016 l 0.215,-0.007 c 1.718,-0.055 2.75,-0.887 3.05,-2.461 0.055,-0.286 0.149,-0.567 0.243,-0.844 0.148,-0.445 0.304,-0.902 0.328,-1.399 l 0.066,-1.164 c 0.25,-4.484 0.512,-9.113 0.629,-13.675 0.102,-3.594 0.109,-7.239 0.113,-10.762 0.004,-1.363 0.004,-2.731 0.016,-4.094 0.004,-0.504 -0.02,-1.016 -0.039,-1.523 l -0.039,-1.055 -0.336,-0.113 c -2.594,-0.926 -5.106,-0.895 -7.531,-0.864 -0.571,0.016 -1.133,0.024 -1.692,0.016 -5.719,-0.055 -11.363,0.055 -16.613,0.18 l -0.129,0 c -0.977,0.031 -1.957,0.144 -2.906,0.254 -0.926,0.109 -1.887,0.218 -2.817,0.25 l -0.242,0 c -4.043,0.062 -8.332,0.039 -12.746,-0.063 -1.074,-0.031 -2.18,-0.156 -3.242,-0.277 -0.848,-0.102 -1.723,-0.203 -2.59,-0.258 -0.289,-0.016 -0.555,-0.023 -0.809,-0.016 m -1.949,35.957 c -0.015,-0.402 -0.031,-0.796 -0.047,-1.171 -0.047,-1.063 -0.078,-1.977 -0.074,-2.903 0.024,-1.805 0.055,-3.613 0.082,-5.414 0.051,-2.848 0.098,-5.785 0.094,-8.68 0,-1.25 -0.149,-2.507 -0.285,-3.714 -0.059,-0.532 -0.121,-1.067 -0.168,-1.594 -0.078,-0.781 -0.184,-1.559 -0.289,-2.34 -0.282,-2.066 -0.543,-4.02 -0.246,-6.035 0.328,-2.199 1.089,-2.996 2.914,-3.051 0.222,-0.008 0.461,-0.008 0.715,0.008 0.839,0.055 1.699,0.156 2.531,0.258 1.09,0.121 2.211,0.254 3.336,0.277 4.429,0.109 8.734,0.133 12.793,0.07 l 0.258,-0.007 c 0.972,-0.032 1.953,-0.141 2.902,-0.254 0.926,-0.102 1.883,-0.219 2.816,-0.243 l 0.121,-0.007 c 5.243,-0.118 10.875,-0.227 16.578,-0.172 0.571,0 1.137,-0.008 1.715,-0.016 2.227,-0.023 4.528,-0.062 6.828,0.684 l 0.016,0.332 c 0.02,0.492 0.039,0.984 0.035,1.476 -0.008,1.364 -0.011,2.731 -0.011,4.102 -0.008,3.515 -0.016,7.152 -0.11,10.73 -0.125,4.547 -0.383,9.176 -0.633,13.645 l -0.062,1.164 c -0.024,0.359 -0.145,0.723 -0.281,1.125 -0.106,0.328 -0.211,0.652 -0.278,0.984 -0.211,1.098 -0.804,1.571 -2.047,1.602 l -0.179,0.008 c -1.203,-0.008 -2.403,0.007 -3.61,0.019 -2.078,0.02 -4.23,0.031 -6.343,-0.027 -2.192,-0.063 -4.411,-0.039 -6.559,-0.012 -3.871,0.059 -7.875,0.11 -11.781,-0.402 -0.438,-0.055 -0.883,-0.031 -1.328,0 -0.262,0.015 -0.52,0.031 -0.778,0.023 -1.426,-0.031 -2.851,-0.066 -4.277,-0.109 l -14.348,-0.356" /><path
         id="path18"
         style="fill:#171717;fill-opacity:1;fill-rule:nonzero;stroke:none"
         d="m 477.055,477.086 c -1.16,-0.008 -2.043,-0.129 -2.891,-0.008 -6.223,0.871 -12.426,1.824 -18.754,1.621 -4.695,-0.136 -9.402,0.012 -14.101,-0.027 -0.813,-0.012 -1.629,-0.281 -2.446,-0.422 -1.769,-0.301 -2.379,0.039 -3.187,1.684 -0.762,1.539 -1.164,3.105 -0.953,4.855 0.547,4.5 0.968,9.024 1.511,13.531 0.231,1.918 0.829,2.004 2.661,1.575 2.503,-0.59 5.089,-0.915 7.66,-1.086 2.082,-0.137 4.191,0.093 6.285,0.211 3.348,0.171 6.695,0.378 10.047,0.582 0.25,0.015 0.508,0.14 0.742,0.101 3.144,-0.558 6.301,-0.469 9.476,-0.39 2.243,0.054 3.188,-1.286 3.211,-3.872 0.016,-1.765 -0.222,-3.535 -0.132,-5.296 0.191,-3.524 0.535,-7.036 0.796,-10.551 0.051,-0.66 0.04,-1.321 0.075,-2.508 m -37.852,19.426 c -1.187,-4.274 -1.723,-8.485 -1.433,-12.77 0.117,-1.715 0.937,-2.226 3.007,-2.265 5.118,-0.075 10.227,-0.153 15.344,-0.2 2.059,-0.015 4.117,0.078 6.442,0.118 -2.618,4.964 -2.047,10.402 -3.836,15.515 -2.2,-0.18 -4.329,-0.351 -6.778,-0.558 0.274,-2.258 0.434,-4.239 0.754,-6.2 0.32,-1.972 0.82,-3.925 1.188,-5.894 0.144,-0.778 0.035,-1.688 -0.895,-1.778 -0.476,-0.054 -1.172,0.497 -1.496,0.961 -0.355,0.52 -0.477,1.243 -0.574,1.903 -0.426,2.812 -0.785,5.644 -1.219,8.469 -0.125,0.792 -0.418,1.542 -0.648,2.382 -2.039,-0.031 -3.825,-0.062 -5.969,-0.093 0.574,-3.786 1.094,-7.247 1.64,-10.707 0.172,-1.118 -0.003,-1.969 -1.617,-2.325 -0.461,1.047 -1.125,2.039 -1.328,3.118 -0.433,2.304 -0.574,4.664 -0.945,6.984 -0.188,1.168 -0.129,2.527 -1.637,3.34 m 22.461,0.07 c 0.969,-5.281 1.887,-10.332 2.824,-15.461 1.293,-0.101 2.313,-0.187 3.207,-0.258 -0.343,4.672 -0.804,8.992 -0.925,13.332 -0.071,2.653 -0.887,2.731 -3.094,2.66 -0.496,-0.015 -0.988,-0.125 -2.012,-0.273 m 7.836,-0.535 c -0.082,-2.746 -0.285,-5.336 -0.207,-7.918 0.074,-2.563 0.434,-5.106 0.68,-7.781 1.101,-0.11 2.218,-0.227 3.488,-0.352 0.055,0.684 0.117,1.086 0.109,1.481 -0.066,3.933 -0.144,7.867 -0.222,11.8 -0.051,2.676 -0.727,3.196 -3.848,2.77" /><path
         id="path20"
         style="fill:#171717;fill-opacity:1;fill-rule:nonzero;stroke:none"
         d="m 437.77,477.621 c -1.313,0.047 -1.938,0.793 -2.567,2.082 -0.89,1.801 -1.211,3.438 -1,5.149 0.277,2.32 0.527,4.648 0.777,6.976 0.235,2.18 0.469,4.375 0.731,6.555 0.144,1.195 0.477,2.297 1.93,2.25 0.339,-0.008 0.738,-0.078 1.375,-0.227 2.254,-0.527 4.734,-0.875 7.578,-1.07 1.543,-0.102 3.133,0.008 4.679,0.109 0.516,0.032 1.032,0.071 1.543,0.094 2.645,0.141 5.286,0.301 7.93,0.457 l 2.106,0.133 c 0.07,0 0.148,0.023 0.218,0.039 0.145,0.039 0.309,0.078 0.496,0.07 l 0.157,-0.015 c 1.289,-0.235 2.699,-0.368 4.308,-0.418 1.571,-0.047 3.18,-0.008 4.742,0.027 l 0.321,0.008 c 2.469,0.062 3.719,-1.426 3.746,-4.399 0.004,-0.781 -0.035,-1.566 -0.074,-2.336 -0.051,-0.968 -0.11,-1.968 -0.055,-2.937 0.125,-2.344 0.324,-4.727 0.512,-7.027 0.097,-1.164 0.195,-2.336 0.281,-3.5 0.035,-0.438 0.043,-0.871 0.051,-1.446 0.004,-0.308 0.011,-0.664 0.023,-1.093 l 0.012,-0.536 -0.531,-0.007 c -0.383,0 -0.739,-0.016 -1.067,-0.032 -0.703,-0.031 -1.308,-0.054 -1.894,0.032 l -1.145,0.156 c -4.57,0.652 -9.305,1.32 -13.988,1.461 -1.219,0.035 -2.406,0.035 -3.543,0.004 -2.895,-0.09 -5.84,-0.067 -8.692,-0.051 -1.804,0.016 -3.609,0.027 -5.414,0.016 -0.488,-0.008 -0.992,-0.118 -1.519,-0.243 -0.281,-0.054 -0.563,-0.125 -0.844,-0.172 -0.48,-0.078 -0.855,-0.117 -1.183,-0.109 m -0.161,21.957 c -0.406,0.016 -0.695,0.024 -0.851,-1.32 -0.266,-2.18 -0.5,-4.36 -0.735,-6.547 -0.246,-2.328 -0.5,-4.66 -0.777,-6.988 -0.183,-1.5 0.106,-2.95 0.899,-4.555 0.621,-1.258 0.996,-1.469 1.656,-1.488 0.254,-0.008 0.57,0.019 0.976,0.09 0.262,0.046 0.524,0.101 0.786,0.164 0.566,0.125 1.144,0.257 1.746,0.265 1.808,0.016 3.621,0 5.429,-0.015 2.844,-0.016 5.778,-0.039 8.653,0.046 1.156,0.04 2.367,0.032 3.601,0 4.75,-0.148 9.508,-0.824 14.106,-1.468 l 1.144,-0.164 c 0.524,-0.067 1.074,-0.043 1.699,-0.024 0.184,0.02 0.375,0.024 0.575,0.024 -0.004,0.218 -0.008,0.406 -0.012,0.582 -0.008,0.55 -0.016,0.965 -0.051,1.375 -0.086,1.164 -0.18,2.336 -0.277,3.5 -0.188,2.308 -0.387,4.699 -0.516,7.058 -0.055,1.024 0,2.055 0.051,3.047 0.043,0.754 0.082,1.524 0.078,2.274 -0.027,2.886 -1.242,3.312 -2.422,3.351 -0.082,0 -0.164,0 -0.25,0 l -0.32,-0.008 c -1.574,-0.039 -3.203,-0.078 -4.797,-0.023 -1.66,0.047 -3.117,0.187 -4.461,0.43 -0.051,0 -0.144,-0.02 -0.226,-0.039 -0.137,-0.032 -0.266,-0.063 -0.399,-0.071 l -2.105,-0.125 c -2.645,-0.164 -5.293,-0.328 -7.942,-0.465 -0.508,-0.023 -1.015,-0.054 -1.523,-0.093 -1.578,-0.102 -3.215,-0.211 -4.821,-0.102 -2.902,0.195 -5.433,0.551 -7.746,1.094 -0.394,0.094 -0.839,0.187 -1.168,0.195 m 36.34,-20.156 -4.465,0.441 -0.039,0.438 c -0.074,0.812 -0.16,1.629 -0.242,2.426 -0.199,1.847 -0.383,3.593 -0.437,5.382 -0.051,1.809 0.023,3.586 0.109,5.465 0.035,0.821 0.074,1.645 0.098,2.489 l 0.015,0.441 0.442,0.062 c 0.781,0.11 1.375,0.149 1.859,0.141 2.106,-0.07 2.543,-1.305 2.582,-3.414 0.082,-3.934 0.156,-7.875 0.227,-11.801 0.007,-0.277 -0.02,-0.558 -0.055,-0.922 -0.02,-0.179 -0.035,-0.379 -0.055,-0.613 l -0.039,-0.535 z m -3.496,1.406 2.535,-0.258 c 0.004,0.039 0.004,0.071 0.008,0.102 0.031,0.316 0.055,0.558 0.051,0.801 -0.067,3.929 -0.149,7.863 -0.227,11.797 -0.039,2.011 -0.402,2.343 -1.562,2.382 -0.332,0.008 -0.738,-0.015 -1.246,-0.07 -0.028,-0.699 -0.059,-1.383 -0.086,-2.055 -0.082,-1.863 -0.16,-3.617 -0.11,-5.386 0.055,-1.75 0.235,-3.473 0.43,-5.305 0.07,-0.66 0.141,-1.328 0.207,-2.008 m -29.863,0.133 c -1.902,0.051 -3.199,0.547 -3.344,2.754 -0.285,4.172 0.192,8.406 1.453,12.945 l 0.176,0.637 0.582,-0.317 c 1.527,-0.832 1.695,-2.167 1.832,-3.238 0.024,-0.16 0.043,-0.324 0.07,-0.488 0.161,-1.024 0.282,-2.063 0.403,-3.094 0.148,-1.281 0.301,-2.605 0.539,-3.871 0.125,-0.668 0.457,-1.32 0.804,-2.012 0.102,-0.191 0.2,-0.386 0.297,-0.586 0.852,0.293 0.942,0.766 0.809,1.622 -0.395,2.496 -0.773,4.988 -1.168,7.601 l -0.566,3.707 6.98,0.109 0.106,-0.394 c 0.074,-0.258 0.152,-0.516 0.226,-0.762 0.18,-0.566 0.348,-1.101 0.434,-1.676 0.23,-1.496 0.445,-2.992 0.652,-4.5 0.184,-1.324 0.371,-2.652 0.57,-3.98 0.086,-0.559 0.188,-1.238 0.493,-1.684 0.265,-0.386 0.769,-0.726 0.992,-0.734 0.226,0.023 0.308,0.102 0.351,0.16 0.141,0.188 0.18,0.563 0.09,1.004 -0.152,0.836 -0.336,1.676 -0.516,2.512 -0.242,1.109 -0.488,2.25 -0.671,3.398 -0.219,1.36 -0.371,2.731 -0.524,4.184 -0.074,0.656 -0.148,1.332 -0.226,2.039 l -0.071,0.535 7.723,0.637 0.137,-0.383 c 0.777,-2.219 1.121,-4.516 1.453,-6.734 0.457,-3.047 0.887,-5.934 2.355,-8.711 l 0.399,-0.75 -0.856,-0.02 c -0.746,-0.012 -1.461,-0.035 -2.16,-0.051 -1.484,-0.047 -2.891,-0.078 -4.301,-0.07 -5.113,0.047 -10.226,0.121 -15.343,0.199 l -0.18,0.012 z m -1.074,14.684 c -1.078,-4.145 -1.477,-8.032 -1.223,-11.864 0.082,-1.203 0.426,-1.715 2.324,-1.765 l 0.168,-0.008 c 5.113,-0.086 10.227,-0.164 15.336,-0.203 1.391,-0.008 2.785,0.023 4.266,0.062 0.433,0.016 0.883,0.024 1.34,0.039 -1.254,2.707 -1.68,5.547 -2.094,8.293 -0.305,2.039 -0.617,4.141 -1.274,6.153 l -5.824,-0.473 c 0.059,-0.524 0.113,-1.027 0.168,-1.508 0.152,-1.441 0.301,-2.801 0.52,-4.125 0.179,-1.117 0.425,-2.258 0.66,-3.351 0.187,-0.848 0.363,-1.692 0.523,-2.54 0.141,-0.742 0.039,-1.394 -0.281,-1.824 -0.25,-0.332 -0.625,-0.535 -1.074,-0.578 l -0.153,-0.008 c -0.746,0.024 -1.519,0.743 -1.828,1.2 -0.441,0.636 -0.566,1.492 -0.664,2.121 -0.203,1.324 -0.386,2.66 -0.574,3.996 -0.207,1.488 -0.418,2.984 -0.648,4.472 -0.075,0.496 -0.231,1.004 -0.395,1.532 -0.043,0.129 -0.082,0.261 -0.121,0.394 l -4.969,-0.07 0.379,-2.52 c 0.399,-2.609 0.777,-5.105 1.168,-7.59 0.18,-1.117 0.109,-2.449 -2.019,-2.929 l -0.422,-0.086 -0.176,0.387 c -0.137,0.324 -0.301,0.636 -0.461,0.953 -0.363,0.722 -0.746,1.468 -0.902,2.289 -0.246,1.304 -0.399,2.644 -0.551,3.941 -0.113,1.024 -0.235,2.039 -0.395,3.059 -0.027,0.168 -0.05,0.34 -0.074,0.519 -0.098,0.789 -0.183,1.489 -0.73,2.032 m 28.75,-15.36 -4.223,0.348 -2.996,16.398 0.547,0.071 c 0.363,0.054 0.66,0.101 0.914,0.14 0.461,0.078 0.801,0.133 1.152,0.141 0.387,0.015 0.735,0.023 1.043,0.008 1.875,-0.055 2.531,-0.856 2.594,-3.18 0.082,-3.012 0.328,-6.008 0.59,-9.164 0.117,-1.356 0.23,-2.731 0.332,-4.141 l 0.047,-0.621 z m -3.336,1.332 2.195,-0.176 c -0.09,1.192 -0.187,2.364 -0.285,3.52 -0.262,3.176 -0.512,6.176 -0.598,9.219 -0.054,2.039 -0.496,2.125 -1.57,2.156 -0.289,0.016 -0.617,0.008 -0.984,-0.008 -0.282,-0.008 -0.575,-0.055 -1.016,-0.125 -0.121,-0.015 -0.25,-0.039 -0.391,-0.062 l 2.649,-14.524" /><path
         id="path22"
         style="fill:#171717;fill-opacity:1;fill-rule:nonzero;stroke:none"
         d="m 284.965,479.555 c 5.492,0.133 10.441,0.093 15.363,0.418 5.676,0.367 11.332,1.015 16.988,1.621 1.762,0.195 2.18,0.054 2.141,-1.692 -0.098,-4.777 -0.363,-9.554 -0.418,-14.343 -0.023,-1.825 0.254,-3.661 0.574,-5.461 0.45,-2.543 -0.125,-3.164 -2.742,-3.086 -1.312,0.039 -2.687,-0.157 -3.965,-0.496 -4.187,-1.121 -8.484,-0.809 -12.73,-1.133 -1.75,-0.133 -3.52,-0.078 -5.27,-0.211 -2.593,-0.195 -4.945,0.766 -7.363,1.426 -1.129,0.304 -1.586,0.965 -1.656,2.172 -0.285,4.945 -0.66,9.878 -1.024,14.812 -0.082,1.164 -0.316,2.32 -0.312,3.473 0,0.863 0.273,1.73 0.414,2.5 m 24.348,-12.871 c 0.425,3.839 -1.051,6.843 -4.122,8.418 -1.531,0.785 -4.007,0.644 -4.996,-0.262 -2.429,-2.242 -3.543,-5.059 -3.554,-8.32 -0.008,-2.274 0.632,-4.149 3.132,-4.84 0.641,-0.176 1.204,-0.614 1.832,-0.836 3.918,-1.422 7.274,0.719 7.622,4.832 0.027,0.332 0.058,0.676 0.086,1.008 m -12.036,9.812 c -2.937,0.524 -6.89,0.211 -9.808,-0.68 -0.34,-4.843 0.16,-9.66 0.937,-14.453 0.153,-0.929 0.453,-1.769 1.422,-2.211 2.738,-1.257 5.567,-0.996 8.481,-0.668 -4.055,1.77 -4.957,5.137 -4.743,8.922 0.188,3.282 1.02,6.438 3.711,9.09 m 19.235,-16.461 c -0.176,6.395 0.215,12.297 -0.09,18.223 -2.934,-0.285 -5.535,-0.551 -8.641,-0.852 2.426,-2.793 4.711,-5.129 4.707,-8.527 0,-3.234 0.426,-6.586 -2.086,-9.356 0.129,-0.14 0.25,-0.269 0.375,-0.41 1.836,0.301 3.668,0.59 5.735,0.922" /><path
         id="path24"
         style="fill:#171717;fill-opacity:1;fill-rule:nonzero;stroke:none"
         d="m 293.906,454.621 c -1.761,0.063 -3.422,0.559 -5.031,1.039 -0.492,0.149 -0.98,0.293 -1.473,0.426 -1.324,0.363 -1.953,1.18 -2.043,2.652 -0.234,4.098 -0.539,8.254 -0.836,12.274 l -0.183,2.531 c -0.031,0.441 -0.086,0.875 -0.141,1.316 -0.09,0.715 -0.179,1.454 -0.176,2.204 0,0.66 0.149,1.312 0.278,1.886 0.051,0.242 0.101,0.473 0.148,0.699 l 0.074,0.418 0.43,0.016 c 1.727,0.039 3.402,0.07 5.035,0.094 3.571,0.047 6.946,0.101 10.305,0.316 4.949,0.328 9.977,0.871 14.84,1.399 l 2.125,0.23 c 0.508,0.047 0.844,0.07 1.109,0.063 1.535,-0.047 1.645,-1.157 1.617,-2.289 -0.046,-2.102 -0.121,-4.196 -0.199,-6.29 -0.094,-2.64 -0.187,-5.371 -0.222,-8.054 -0.02,-1.797 0.257,-3.645 0.566,-5.367 0.195,-1.102 0.293,-2.227 -0.328,-2.942 -0.621,-0.726 -1.778,-0.797 -2.934,-0.758 -1.199,0.036 -2.519,-0.132 -3.824,-0.484 -2.957,-0.781 -5.988,-0.883 -8.922,-0.969 -1.281,-0.039 -2.609,-0.078 -3.906,-0.176 -0.899,-0.07 -1.813,-0.085 -2.695,-0.109 -0.86,-0.016 -1.719,-0.039 -2.575,-0.101 -0.347,-0.024 -0.695,-0.032 -1.039,-0.024 m -8.511,24.414 c -0.024,-0.101 -0.043,-0.211 -0.071,-0.308 -0.121,-0.551 -0.25,-1.129 -0.25,-1.672 -0.004,-0.672 0.078,-1.348 0.168,-2.063 0.055,-0.457 0.11,-0.914 0.145,-1.371 l 0.183,-2.523 c 0.297,-4.028 0.606,-8.2 0.844,-12.297 0.055,-1.008 0.387,-1.457 1.266,-1.699 0.5,-0.129 1,-0.286 1.5,-0.434 1.918,-0.574 3.715,-1.117 5.687,-0.969 0.871,0.063 1.75,0.078 2.629,0.102 0.867,0.023 1.766,0.039 2.641,0.109 1.316,0.098 2.66,0.137 3.953,0.176 2.871,0.086 5.844,0.18 8.683,0.941 1.407,0.371 2.829,0.547 4.106,0.512 1.211,-0.039 1.863,0.074 2.129,0.387 0.258,0.301 0.285,0.961 0.09,2.078 -0.321,1.769 -0.606,3.672 -0.586,5.555 0.031,2.699 0.129,5.437 0.226,8.086 0.075,2.085 0.153,4.179 0.196,6.265 0.023,1.203 -0.133,1.203 -0.598,1.219 -0.223,0.008 -0.508,-0.008 -0.965,-0.063 l -2.129,-0.222 c -4.871,-0.528 -9.906,-1.078 -14.883,-1.399 -3.386,-0.222 -6.773,-0.269 -10.355,-0.324 -1.496,-0.023 -3.031,-0.047 -4.609,-0.086 m 8.668,-21.336 -0.004,0 c -1.672,0.047 -3.129,0.367 -4.45,0.973 -1.242,0.566 -1.57,1.691 -1.722,2.613 -0.949,5.856 -1.239,10.348 -0.942,14.57 l 0.028,0.356 0.347,0.109 c 2.996,0.914 7.153,1.211 10.047,0.7 l 1,-0.18 -0.726,-0.723 c -2.235,-2.211 -3.332,-4.902 -3.551,-8.75 -0.246,-4.367 1.117,-6.961 4.43,-8.394 l 1.808,-0.789 -1.961,-0.219 c -1.465,-0.164 -2.898,-0.313 -4.304,-0.266 m -6.094,17.711 c -0.25,-4.023 0.047,-8.347 0.961,-13.957 0.16,-1.019 0.476,-1.535 1.121,-1.828 1.203,-0.551 2.488,-0.828 4.039,-0.879 l 0.004,0 c 0.801,-0.019 1.621,0.016 2.457,0.086 -2.617,1.738 -3.742,4.516 -3.508,8.598 0.129,2.359 0.613,5.722 3.156,8.687 -2.519,0.274 -5.75,-0.008 -8.23,-0.707 m 22.617,-16.855 -0.891,0.961 0.321,0.355 c 2.05,2.274 2.004,4.938 1.961,7.762 -0.008,0.41 -0.016,0.828 -0.016,1.246 0,2.949 -1.871,5.082 -4.035,7.562 l -1.207,1.391 10.199,1.008 0.027,-0.559 c 0.172,-3.258 0.129,-6.445 0.086,-9.82 -0.039,-2.715 -0.07,-5.523 0.012,-8.41 l 0.012,-0.465 -6.469,-1.031 z m -1.734,18.425 c 2.156,-2.468 4.164,-4.828 4.164,-8.109 -0.004,-0.402 0.004,-0.812 0.011,-1.226 0.043,-2.692 0.09,-5.477 -1.769,-7.918 l 4.719,0.757 c -0.067,2.739 -0.032,5.403 0.003,7.985 0.04,3.172 0.083,6.168 -0.054,9.215 l -7.074,-0.704 z m -5.09,-17.101 0,0 c -0.762,0.023 -1.547,0.18 -2.332,0.469 -0.309,0.105 -0.598,0.261 -0.887,0.418 -0.313,0.164 -0.613,0.316 -0.91,0.402 -3.168,0.879 -3.528,3.477 -3.52,5.352 0.016,3.507 1.266,6.433 3.727,8.707 0.664,0.613 1.855,0.953 3.191,0.906 0.887,-0.024 1.739,-0.223 2.399,-0.567 3.293,-1.683 4.859,-4.855 4.406,-8.945 l -0.082,-0.992 c -0.305,-3.535 -2.707,-5.848 -5.992,-5.75 M 303,475.086 c -1.031,0.031 -1.992,-0.219 -2.449,-0.637 -2.235,-2.062 -3.371,-4.73 -3.383,-7.937 -0.012,-2.496 0.809,-3.793 2.746,-4.328 0.41,-0.118 0.77,-0.301 1.121,-0.489 0.246,-0.132 0.492,-0.269 0.75,-0.355 0.684,-0.258 1.36,-0.391 2.012,-0.41 2.726,-0.078 4.652,1.797 4.906,4.785 l 0.086,1.008 c 0.399,3.629 -0.965,6.437 -3.836,7.914 -0.527,0.261 -1.219,0.426 -1.953,0.449" /><path
         id="path26"
         style="fill:#171717;fill-opacity:1;fill-rule:nonzero;stroke:none"
         d="m 401.004,483.504 c -0.274,-5.508 -2.824,-8.766 -6.395,-11.406 -2.707,-2.008 -5.773,-2.789 -9.129,-3.071 -4.355,-0.355 -9.75,3.047 -11.296,7.309 -2.422,6.672 -2.114,13.047 2.261,18.883 1.993,2.652 4.575,4.422 8.067,4.445 1.156,0.008 2.269,0.215 3.402,0.418 1.328,0.242 2.981,-0.336 4.242,-1.016 1.899,-1.031 3.555,-2.5 5.364,-3.711 1.507,-1.015 2.273,-2.566 2.574,-4.179 0.519,-2.801 0.683,-5.672 0.91,-7.672 m -11.895,14.18 c -0.992,-0.27 -1.777,-0.668 -2.578,-0.68 -5.965,-0.133 -8.336,-3.336 -10.203,-8.652 -1,-2.848 -0.39,-5.688 -0.07,-8.489 0.375,-3.312 4.055,-7.035 7.301,-7.508 1.445,-0.21 2.988,0.118 4.464,0.325 5.485,0.8 9.672,5.539 9.758,11.074 0.028,1.836 -0.125,3.684 -0.215,5.519 -0.082,1.637 -0.933,2.872 -2.179,3.821 -2.059,1.558 -4.164,3.047 -6.278,4.59" /><path
         id="path28"
         style="fill:#171717;fill-opacity:1;fill-rule:nonzero;stroke:none"
         d="m 384.57,468.484 c -4.515,0.141 -9.394,3.575 -10.882,7.664 -2.637,7.278 -1.852,13.793 2.339,19.379 2.332,3.121 5.106,4.641 8.481,4.664 1.07,0 2.113,0.188 3.207,0.387 l 0.105,0.024 c 0.282,0.046 0.582,0.07 0.895,0.062 1.476,-0.047 2.945,-0.73 3.691,-1.141 1.231,-0.668 2.371,-1.511 3.469,-2.335 0.637,-0.473 1.273,-0.954 1.938,-1.395 1.468,-0.984 2.433,-2.555 2.796,-4.523 0.383,-2.067 0.582,-4.192 0.739,-5.907 0.062,-0.648 0.117,-1.254 0.175,-1.797 -0.304,-6.449 -3.687,-9.738 -6.597,-11.894 -2.488,-1.836 -5.473,-2.84 -9.399,-3.164 -0.312,-0.024 -0.632,-0.031 -0.957,-0.024 m 4.114,31.125 c -0.243,0.008 -0.469,-0.007 -0.676,-0.046 l -0.102,-0.024 c -1.097,-0.195 -2.226,-0.394 -3.39,-0.402 -3.028,-0.016 -5.524,-1.407 -7.653,-4.239 -4.011,-5.359 -4.726,-11.371 -2.187,-18.386 1.422,-3.914 6.539,-7.305 10.765,-6.957 3.774,0.308 6.504,1.226 8.86,2.965 4.101,3.039 5.949,6.328 6.172,11.015 -0.051,0.457 -0.114,1.07 -0.172,1.731 -0.164,1.785 -0.352,3.8 -0.723,5.808 -0.316,1.715 -1.109,3.004 -2.351,3.84 -0.676,0.457 -1.329,0.949 -1.985,1.43 -1.066,0.797 -2.172,1.629 -3.34,2.258 -1.129,0.613 -2.3,0.984 -3.218,1.007 m -4.383,-27.843 0,0 c -0.274,0.007 -0.547,0.031 -0.817,0.07 -3.511,0.512 -7.351,4.461 -7.754,7.973 -0.042,0.421 -0.101,0.839 -0.152,1.265 -0.316,2.414 -0.64,4.918 0.25,7.457 1.863,5.297 4.399,8.86 10.692,8.996 0.453,0.008 0.933,0.172 1.496,0.36 0.3,0.101 0.613,0.211 0.957,0.301 l 0.242,0.07 2.105,-1.528 c 1.473,-1.062 2.938,-2.125 4.379,-3.218 1.508,-1.141 2.309,-2.551 2.395,-4.207 0.019,-0.465 0.047,-0.93 0.074,-1.387 0.078,-1.367 0.164,-2.785 0.137,-4.176 -0.082,-5.769 -4.469,-10.75 -10.203,-11.582 l -0.727,-0.105 c -1.004,-0.157 -2.051,-0.321 -3.074,-0.289 m 4.707,25.343 c -0.231,-0.078 -0.449,-0.144 -0.66,-0.214 -0.61,-0.211 -1.192,-0.407 -1.809,-0.422 -5.73,-0.121 -7.906,-3.133 -9.715,-8.293 -0.808,-2.301 -0.515,-4.567 -0.207,-6.973 0.059,-0.426 0.113,-0.855 0.16,-1.281 0.344,-3.047 3.809,-6.602 6.86,-7.051 0.226,-0.031 0.461,-0.055 0.695,-0.062 0.93,-0.024 1.926,0.132 2.879,0.281 l 0.738,0.105 c 5.231,0.762 9.231,5.301 9.309,10.559 0.019,1.359 -0.063,2.746 -0.141,4.097 -0.023,0.465 -0.054,0.922 -0.078,1.387 -0.066,1.352 -0.711,2.477 -1.973,3.43 -1.433,1.086 -2.898,2.141 -4.367,3.207 l -1.691,1.23" /><path
         id="path30"
         style="fill:#171717;fill-opacity:1;fill-rule:nonzero;stroke:none"
         d="m 509.648,465.574 c 0.102,3.438 0.04,6.703 0.34,9.922 0.434,4.703 0.672,9.363 -0.23,14.027 -0.238,1.25 0.562,2.165 1.875,1.946 5.957,-0.985 11.867,0.172 17.797,0.328 3.933,0.101 7.871,0.047 11.808,0 2.262,-0.031 4.524,-0.172 6.782,-0.297 0.894,-0.047 1.781,-0.168 2.738,-0.254 0.164,-1.375 0.258,-2.527 0.449,-3.68 0.629,-3.808 1.445,-7.586 1.887,-11.41 0.308,-2.722 0.277,-5.515 0.133,-8.261 -0.125,-2.196 -0.426,-2.282 -2.723,-2.5 -0.285,-0.028 -0.68,-0.176 -0.813,-0.395 -0.898,-1.551 -2.39,-1.395 -3.804,-1.324 -2.586,0.137 -5.168,0.48 -7.758,0.543 -5.199,0.121 -10.399,0.078 -15.594,0.168 -1.328,0.023 -2.656,0.32 -3.988,0.433 -2.836,0.258 -5.676,0.493 -8.899,0.754 m 3.426,3.035 c 2.059,-0.32 3.692,-0.574 5.328,-0.816 3.664,-0.543 7.352,-0.34 11.036,-0.355 5.601,-0.024 11.203,-0.282 16.804,-0.434 1.137,-0.031 2.274,-0.07 3.352,-0.109 1.511,7.382 -0.797,14.281 -1.672,21.339 -4.977,0.407 -9.813,0.801 -14.652,1.157 -0.747,0.054 -1.504,-0.125 -2.254,-0.168 -5.184,-0.305 -10.368,-0.59 -15.551,-0.903 -0.641,-0.039 -1.274,-0.191 -1.793,-0.277 -0.199,-6.504 -0.395,-12.777 -0.598,-19.434" /><path
         id="path32"
         style="fill:#171717;fill-opacity:1;fill-rule:nonzero;stroke:none"
         d="m 546.648,463.109 c -0.203,0.008 -0.414,0.024 -0.625,0.032 l -0.164,0.007 c -1.089,0.063 -2.187,0.153 -3.281,0.247 -1.375,0.125 -2.801,0.25 -4.195,0.289 l -0.27,0.007 c -2.859,0.067 -5.777,0.082 -8.593,0.102 -2.332,0.012 -4.665,0.027 -6.997,0.066 l -0.136,0.008 c -0.797,0.024 -1.59,0.133 -2.356,0.242 -0.508,0.071 -1.023,0.149 -1.535,0.196 -1.969,0.175 -3.945,0.34 -6.051,0.508 l -3.336,0.281 0.008,0.496 c 0.035,1.078 0.055,2.133 0.071,3.172 0.035,2.336 0.07,4.547 0.277,6.789 0.476,5.168 0.621,9.504 -0.223,13.871 -0.14,0.746 0.012,1.43 0.43,1.918 0.465,0.551 1.191,0.789 2.047,0.648 1.242,-0.207 2.535,-0.324 3.953,-0.371 2.683,-0.078 5.422,0.141 8.07,0.36 1.856,0.136 3.774,0.293 5.676,0.347 3.816,0.094 7.695,0.047 11.445,0.008 l 0.383,-0.008 c 1.859,-0.023 3.711,-0.125 5.567,-0.234 l 1.234,-0.063 c 0.621,-0.031 1.242,-0.097 1.883,-0.168 l 1.3,-0.132 0.047,-0.418 c 0.059,-0.446 0.102,-0.871 0.145,-1.274 0.09,-0.836 0.172,-1.613 0.301,-2.383 0.211,-1.269 0.441,-2.543 0.675,-3.816 0.454,-2.488 0.922,-5.059 1.215,-7.625 0.27,-2.367 0.313,-5.02 0.137,-8.348 -0.145,-2.597 -0.785,-2.761 -3.199,-2.996 -0.172,-0.012 -0.367,-0.097 -0.41,-0.152 -0.864,-1.485 -2.25,-1.645 -3.493,-1.606 m -8.234,1.629 c 1.426,-0.047 2.867,-0.172 4.258,-0.297 1.078,-0.086 2.164,-0.183 3.246,-0.238 l 0.164,-0.008 c 0.199,-0.015 0.402,-0.023 0.602,-0.031 1.191,-0.039 1.992,0.133 2.558,1.102 0.262,0.449 0.883,0.621 1.207,0.648 2.149,0.211 2.149,0.211 2.246,2.012 0.18,3.265 0.141,5.867 -0.125,8.168 -0.293,2.531 -0.757,5.082 -1.211,7.558 -0.226,1.278 -0.461,2.551 -0.671,3.832 -0.133,0.782 -0.215,1.582 -0.309,2.434 -0.031,0.281 -0.063,0.551 -0.094,0.84 l -0.469,0.055 c -0.621,0.07 -1.222,0.128 -1.824,0.167 l -1.238,0.063 c -1.836,0.102 -3.684,0.203 -5.524,0.227 l -0.378,0.007 c -3.743,0.047 -7.614,0.094 -11.407,-0.007 -1.871,-0.047 -3.777,-0.204 -5.621,-0.348 -2.676,-0.211 -5.441,-0.438 -8.183,-0.352 -1.465,0.039 -2.805,0.172 -4.094,0.379 -0.465,0.078 -0.848,-0.023 -1.074,-0.285 -0.207,-0.25 -0.278,-0.621 -0.2,-1.047 0.868,-4.484 0.727,-8.906 0.243,-14.16 -0.211,-2.203 -0.243,-4.391 -0.278,-6.711 -0.015,-0.883 -0.027,-1.781 -0.05,-2.683 l 2.343,-0.196 c 2.11,-0.176 4.086,-0.34 6.063,-0.515 0.531,-0.055 1.054,-0.125 1.586,-0.204 0.773,-0.109 1.5,-0.21 2.238,-0.234 l 0.125,0 c 2.328,-0.039 4.652,-0.055 6.98,-0.066 2.825,-0.02 5.743,-0.039 8.618,-0.102 l 0.273,-0.008 z m -15.789,2.18 c -1.605,0.047 -3.012,0.16 -4.301,0.348 -1.101,0.164 -2.203,0.336 -3.433,0.527 l -2.356,0.363 0.625,20.336 0.43,0.071 c 0.148,0.023 0.312,0.054 0.48,0.085 0.41,0.075 0.883,0.168 1.364,0.2 3.289,0.195 6.582,0.382 9.871,0.574 l 5.679,0.324 c 0.266,0.016 0.536,0.051 0.801,0.09 0.434,0.051 0.887,0.105 1.34,0.09 l 0.184,-0.008 c 3.644,-0.262 7.289,-0.559 10.996,-0.859 l 4.086,-0.329 0.05,-0.433 c 0.235,-1.906 0.586,-3.84 0.926,-5.719 0.914,-5.07 1.863,-10.316 0.738,-15.785 l -0.085,-0.434 -12.352,0.387 c -2.258,0.07 -5.234,0.149 -8.234,0.164 -0.829,0 -1.657,-0.008 -2.485,-0.015 -1.418,-0.008 -2.879,-0.024 -4.324,0.023 m -9.012,2.141 1.438,-0.227 c 1.226,-0.184 2.328,-0.355 3.429,-0.519 1.247,-0.184 2.614,-0.293 4.18,-0.34 1.422,-0.047 2.875,-0.039 4.278,-0.024 0.832,0.008 1.667,0.016 2.5,0.008 3.011,-0.008 5.996,-0.086 8.257,-0.164 l 7.207,-0.223 2.629,-0.078 1.629,-0.054 c 0.949,5.121 0.043,10.117 -0.828,14.957 -0.316,1.746 -0.644,3.55 -0.879,5.351 l -3.238,0.266 c -3.699,0.293 -7.34,0.59 -10.981,0.859 l -0.14,0 c -0.375,0.016 -0.766,-0.031 -1.18,-0.086 -0.289,-0.039 -0.578,-0.066 -0.867,-0.086 l -5.684,-0.332 c -3.285,-0.187 -6.574,-0.379 -9.867,-0.574 -0.414,-0.023 -0.828,-0.102 -1.23,-0.18 -0.028,-0.008 -0.055,-0.015 -0.082,-0.015 l -0.571,-18.539" /><path
         id="path34"
         style="fill:#171717;fill-opacity:1;fill-rule:nonzero;stroke:none"
         d="m 599.855,310.129 c -0.3,1.391 -0.613,2.777 -0.925,4.16 -0.653,2.871 -1.328,5.848 -1.84,8.789 -0.695,3.981 -1.176,7.906 -1.43,11.692 -0.328,4.832 -0.558,9.765 -0.781,14.531 -0.125,2.543 -0.238,5.082 -0.375,7.625 -0.098,1.879 -0.219,3.762 -0.332,5.648 -0.149,2.313 -0.289,4.621 -0.402,6.934 -0.079,1.746 -0.129,3.5 -0.184,5.254 -0.066,2.242 -0.133,4.566 -0.273,6.847 -0.11,1.801 -0.235,3.594 -0.36,5.387 -0.418,5.895 -0.851,11.992 -0.594,18.008 0.09,2.094 0.09,4.219 0.082,6.273 -0.003,1.614 -0.003,3.219 0.039,4.832 0.032,1.188 0.051,2.368 0.071,3.555 0.062,3.707 0.125,7.547 0.496,11.289 0.98,9.985 1.324,18.09 1.078,25.508 -0.207,6.273 0.074,12.008 0.859,17.523 0.743,5.2 0.875,9.465 0.422,13.461 -0.23,2.032 -0.445,4.063 -0.656,6.106 -0.289,2.762 -0.586,5.625 -0.934,8.429 -0.168,1.391 -0.527,2.758 -0.871,4.083 l -0.234,0.91 c -0.656,2.566 -2.055,4.031 -4.281,4.468 -0.742,0.137 -1.492,0.34 -2.223,0.528 -1.297,0.34 -2.629,0.687 -3.992,0.765 l -0.496,0.039 c -8.086,0.497 -16.453,1.016 -24.696,1.172 -5.574,0.102 -11.242,-0.007 -16.726,-0.125 -2.492,-0.047 -4.992,-0.101 -7.484,-0.132 l -3.575,-0.043 c -7.3,-0.094 -14.593,-0.18 -21.886,-0.266 -2.489,-0.024 -5.309,-0.055 -8.036,0.016 l -1.488,0.046 c -1.719,0.055 -3.441,0.118 -5.164,0.176 -3.242,0.125 -6.488,0.25 -9.734,0.289 -7.082,0.094 -14.285,0.117 -21.25,0.149 l -12.571,0.054 c -6.125,0.039 -12.25,0.071 -18.375,0.075 -3.644,0.007 -7.281,0 -10.921,-0.004 -4.93,-0.02 -9.86,-0.024 -14.786,0 l -1.543,0 c -5.89,0.031 -11.984,0.05 -17.968,0.238 l -1.157,0.039 c -4.441,0.148 -8.957,0.41 -13.328,0.66 -2.847,0.168 -5.699,0.332 -8.554,0.473 -3.528,0.164 -7.059,0.293 -10.594,0.426 -2.133,0.086 -4.266,0.164 -6.403,0.25 l -0.164,0.007 c -1.078,0.032 -1.902,-0.062 -2.437,-0.605 -0.559,-0.559 -0.637,-1.457 -0.578,-2.715 0.133,-2.863 0.246,-5.93 0.164,-9.015 -0.059,-2.461 -1.129,-3.622 -3.692,-4.028 l -1.464,-0.23 c -2.043,-0.328 -4.157,-0.66 -6.235,-0.942 -0.609,-0.086 -1.242,-0.086 -1.972,-0.078 -0.219,0 -0.442,0 -0.676,0 l -0.031,0.973 c -0.032,0.984 -0.059,1.875 -0.114,2.769 -0.039,0.766 -0.082,1.536 -0.121,2.305 -0.109,2.219 -0.226,4.516 -0.488,6.762 -0.231,2.019 -1.219,2.871 -3.426,2.941 -1.695,0.055 -3.422,0.016 -5.047,-0.023 -2.765,-0.071 -5.527,-0.137 -8.293,-0.227 -2.019,-0.051 -4.043,-0.105 -6.066,-0.16 -1.672,-0.039 -3.348,-0.07 -5.024,-0.102 -3.726,-0.062 -7.578,-0.125 -11.359,-0.363 -3.469,-0.226 -4.984,-0.965 -5.414,-4.98 -0.188,-1.785 -0.168,-3.61 -0.152,-5.364 0.007,-0.66 0.015,-1.316 0.011,-1.976 -0.004,-0.613 0.032,-1.219 0.075,-1.918 0.011,-0.168 0.019,-0.356 0.031,-0.543 l -2.719,-0.063 c -3,-0.074 -5.891,-0.136 -8.844,-0.191 -0.199,0.008 -0.726,0.023 -0.851,1 -0.086,0.699 -0.149,1.395 -0.203,2.094 -0.078,0.879 -0.153,1.793 -0.289,2.683 l -0.157,1.071 c -0.265,1.871 -0.543,3.812 -1.058,5.664 -0.59,2.109 -1.535,2.957 -3.375,3.011 -0.379,0.008 -0.813,-0.007 -1.332,-0.062 -0.762,-0.078 -1.532,-0.117 -2.321,-0.156 -0.226,-0.016 -0.453,-0.024 -0.683,-0.039 l -0.071,0.359 c -0.097,0.449 -0.171,0.813 -0.238,1.176 -0.543,2.933 -1.258,4.105 -4.652,4.043 -1.645,-0.031 -3.309,-0.141 -4.918,-0.246 -1.356,-0.094 -2.75,-0.188 -4.125,-0.235 -1.774,-0.054 -3.879,0.016 -5.949,0.133 -0.696,0.047 -1.414,0.199 -2.106,0.348 -0.324,0.07 -0.644,0.133 -0.965,0.195 l -0.238,0.047 -0.184,-0.156 c -1.472,-1.172 -1.5,-2.715 -1.527,-4.082 -0.015,-0.743 -0.027,-1.465 -0.269,-2.078 l -0.227,-0.055 c -0.324,-0.07 -0.641,-0.149 -0.961,-0.184 -1.414,-0.187 -2.391,-0.461 -2.898,-1.187 -0.508,-0.723 -0.422,-1.707 -0.121,-3.074 0.101,-0.442 0.214,-0.883 0.336,-1.325 0.253,-0.957 0.496,-1.855 0.542,-2.769 0.04,-0.676 0.11,-1.367 0.188,-2.059 0.215,-1.984 0.43,-4.031 -0.293,-6.105 -0.262,-0.024 -0.523,-0.039 -0.77,-0.063 -0.746,-0.051 -1.433,-0.105 -2.117,-0.199 -1.199,-0.164 -2.465,-0.227 -3.871,-0.18 -1.988,0.063 -4.015,0.328 -5.972,0.575 -1.102,0.14 -2.207,0.289 -3.309,0.394 -0.633,0.063 -1.262,0.102 -1.879,0.125 -2.75,0.086 -5.043,-0.332 -7.211,-1.309 -1.168,-0.519 -1.922,-1.117 -2.101,-2.492 -0.106,-0.832 -0.219,-1.652 -0.332,-2.472 -0.215,-1.563 -0.442,-3.176 -0.606,-4.766 -0.266,-2.551 -0.754,-5.113 -1.227,-7.594 -0.636,-3.351 -1.292,-6.812 -1.425,-10.328 -0.067,-1.765 -0.211,-3.566 -0.356,-5.32 -0.172,-2.133 -0.351,-4.336 -0.386,-6.516 -0.168,-10.109 -0.215,-20.39 -0.262,-30.328 l -0.008,-1.969 c -0.027,-5.254 -0.004,-10.504 0.02,-15.75 l 0.011,-4.195 c 0.008,-1.402 0.028,-2.816 0.047,-4.227 0.031,-2.414 0.067,-4.921 0.024,-7.371 -0.09,-5.082 -0.211,-10.156 -0.329,-15.238 -0.117,-5.012 -0.23,-10.023 -0.324,-15.027 l -0.015,-0.891 c -0.086,-4.762 -0.172,-9.687 -0.008,-14.523 0.211,-6.184 0.523,-12.457 0.824,-18.532 0.16,-3.246 0.32,-6.48 0.469,-9.722 0.066,-1.473 0.101,-2.953 0.133,-4.438 0.066,-2.926 0.132,-5.949 0.472,-8.906 0.356,-3.102 0.336,-6.168 -0.062,-9.371 -0.559,-4.469 1.972,-8.586 6.297,-10.246 4.503,-1.731 9.293,-2.641 14.199,-2.707 l 1.5,-0.028 c 2.855,-0.035 5.711,-0.074 8.558,-0.214 2.215,-0.102 4.426,-0.25 6.641,-0.387 2.605,-0.172 5.293,-0.352 7.945,-0.457 l 0.293,-0.012 c 1.356,-0.035 2.715,0.012 4.039,0.063 1.141,0.047 2.321,0.086 3.469,0.07 4.738,-0.07 8.93,-0.152 12.813,-0.277 1.093,-0.032 2.191,-0.071 3.289,-0.11 3.492,-0.125 6.98,-0.289 10.472,-0.441 3.301,-0.156 6.606,-0.313 9.907,-0.438 4.019,-0.144 8.089,-0.23 12.847,-0.277 2.133,-0.016 4.297,0.031 6.391,0.07 0.98,0.016 1.965,0.039 2.949,0.047 2.309,0.031 4.617,0.063 6.926,0.094 5.25,0.055 10.68,0.113 16.015,0.238 4.227,0.102 8.512,0.328 12.661,0.551 l 1.191,0.07 c 4.707,0.25 9.414,0.52 14.121,0.793 2.84,0.168 5.684,0.332 8.524,0.496 l 4.898,0.27 c 4.57,0.273 9.297,0.551 13.949,0.746 5.711,0.25 11.528,0.402 17.156,0.551 l 7.125,0.203 c 5.989,0.168 12.176,0.348 18.258,0.394 4.176,0.032 8.426,0 12.539,-0.039 4.895,-0.047 9.957,-0.086 14.934,-0.015 3.707,0.054 7.465,0.261 11.105,0.465 3.047,0.171 6.196,0.339 9.293,0.433 3.668,0.094 7.407,0.063 11.02,0.031 2.035,-0.015 4.074,-0.031 6.109,-0.023 l 5,0.008 c 6.946,0.015 14.125,0.023 21.188,0.125 7.191,0.094 13.039,0.269 18.394,0.566 6.391,0.348 12.879,0.793 19.153,1.219 2.914,0.199 5.824,0.402 8.734,0.59 1.523,0.101 3.078,0.109 4.586,0.125 2.887,0.015 5.871,0.039 8.809,0.672 1.113,0.242 2.285,0.367 3.418,0.492 0.996,0.098 2.027,0.207 3.035,0.402 1.375,0.254 2.851,0.723 4.39,1.371 0.711,0.305 1.301,1.196 1.465,1.879 1.235,5.203 1.906,10.512 2.449,15.477 0.051,0.472 -0.035,0.961 -0.129,1.41 m -310.582,188.656 -1.558,0.227 -0.172,2.117 c -0.164,2.004 -0.324,3.98 -0.441,5.949 -0.075,1.227 0.277,1.871 1.23,2.145 0.461,-2.336 0.598,-4.703 0.734,-7.203 0.063,-1.063 0.122,-2.133 0.207,-3.235 M 206.578,299.844 c 0,0.574 -0.004,1.156 0,1.722 0.024,2.086 0.438,2.504 2.457,2.52 0.293,0 0.586,-0.008 0.887,-0.016 0.82,-0.023 1.683,-0.082 2.558,-0.199 1.321,-0.164 2.731,-0.266 4.305,-0.32 1.949,-0.055 3.93,-0.024 5.836,0.008 2.836,0.046 5.91,0.07 8.434,-0.137 5.785,-0.492 10.558,-0.785 15.027,-0.926 l 0.27,-0.008 c 4.148,-0.133 8.472,-0.101 12.851,0.078 5.574,0.243 11.227,0.543 16.699,0.84 3.328,0.176 6.657,0.356 9.989,0.52 l 4.414,0.215 c 8.609,0.425 17.511,0.879 26.269,1.234 7.039,0.297 14.203,0.512 21.125,0.73 l 5.559,0.168 c 1.488,0.047 2.98,0.094 4.469,0.149 4.636,0.164 9.425,0.324 14.136,0.344 2.821,0.004 5.649,-0.133 8.473,-0.274 1.711,-0.086 3.422,-0.172 5.129,-0.226 l 0.461,-0.008 c 4.98,-0.137 9.965,-0.254 14.949,-0.379 6.504,-0.156 13,-0.309 19.574,-0.504 1.778,-0.055 3.582,-0.195 5.336,-0.324 1.75,-0.141 3.559,-0.281 5.403,-0.336 3.996,-0.125 7.96,-0.078 11.796,-0.031 7.368,0.086 13.371,0.187 18.907,0.328 5.172,0.121 11.996,0.308 18.882,0.609 8.024,0.352 16.497,0.77 26.672,1.328 1.981,0.11 3.993,0.274 5.938,0.434 1.789,0.148 3.578,0.297 5.371,0.406 5.613,0.324 11.625,0.664 17.594,0.899 4.226,0.164 8.457,0.289 12.687,0.41 3.406,0.093 6.817,0.195 10.227,0.32 10.855,0.387 20.664,0.742 30.699,1.199 2.652,0.117 5.187,0.461 7.547,0.996 1.648,0.371 3.23,0.953 4.91,1.567 0.613,0.23 1.242,0.457 1.891,0.691 0.918,-2.351 1.476,-4.379 1.273,-6.465 -0.16,-1.683 -0.434,-3.39 -0.695,-5.043 -0.258,-1.605 -0.524,-3.273 -0.692,-4.925 -0.203,-2.032 -1.222,-2.969 -3.519,-3.243 -1.906,-0.222 -3.805,-0.488 -5.703,-0.75 -4.157,-0.582 -8.453,-1.187 -12.743,-1.312 -9.675,-0.274 -19.167,-1.016 -27.179,-1.707 -7.434,-0.637 -15,-0.621 -22.321,-0.606 l -6.558,0.016 c -10.578,0.016 -21.516,0.031 -32.27,-0.172 -4.617,-0.074 -9.3,-0.332 -13.828,-0.574 -3.554,-0.192 -7.23,-0.395 -10.844,-0.504 -3.066,-0.102 -6.191,-0.055 -9.218,-0.016 -1.965,0.032 -3.93,0.055 -5.891,0.047 l -4.828,-0.015 c -8.332,-0.039 -16.941,-0.071 -25.406,-0.223 -4.797,-0.094 -9.668,-0.328 -14.375,-0.551 -1.844,-0.086 -3.692,-0.18 -5.535,-0.258 l -5.305,-0.23 c -5.606,-0.235 -11.402,-0.485 -17.098,-0.801 -2.48,-0.133 -5,-0.344 -7.429,-0.543 -2.918,-0.242 -5.934,-0.488 -8.903,-0.621 -10.426,-0.449 -20.133,-0.777 -29.676,-0.992 -8.972,-0.195 -17.761,-0.36 -26.691,-0.195 -4.902,0.093 -9.883,0.335 -14.699,0.582 -3.766,0.187 -7.656,0.378 -11.488,0.496 l -1,0.031 c -4.747,0.125 -9.579,0.148 -14.247,0.18 -4,0.015 -8.14,0.039 -12.207,0.132 -4.086,0.082 -8.222,0.356 -12.234,0.621 l -4.605,0.286 c -3.512,0.218 -7.153,0.441 -10.696,0.875 -2.594,0.32 -5.191,1.101 -7.484,1.785 -2.289,0.699 -3.938,3.359 -3.738,6.074 0.113,1.535 0.109,3.09 0.101,4.594 m -1.609,103.109 c -0.016,1.481 -0.035,2.973 -0.047,4.461 l -0.031,2.91 c -0.024,1.887 -0.043,3.77 -0.039,5.656 0.007,6.165 0.039,12.333 0.062,18.508 l 0.012,1.172 c 0,0.203 0.019,0.41 0.043,0.598 l 2.832,0.156 c 2.402,0.141 4.777,0.277 7.152,0.402 1.43,0.071 2.856,0.149 4.285,0.227 3.864,0.207 7.856,0.434 11.778,0.504 5.632,0.113 11.371,0.101 16.918,0.086 l 3.98,-0.02 c 0.688,0 1.379,-0.004 2.066,-0.027 1.168,-0.031 2.2,-0.102 3.145,-0.219 1.645,-0.195 3.387,-0.316 5.332,-0.371 2.68,-0.086 5.398,-0.031 8.035,0.016 2.406,0.047 4.895,0.09 7.328,0.039 9.797,-0.219 21.352,-0.461 32.778,-0.528 3.226,-0.015 6.5,0.114 9.672,0.239 2.152,0.086 4.3,0.172 6.453,0.218 4.382,0.086 8.765,0.137 13.148,0.184 3.008,0.039 6.016,0.078 9.027,0.125 0.598,0.008 1.196,0.07 1.774,0.125 0.496,0.055 0.992,0.109 1.492,0.125 0.57,0.016 1.145,0.047 1.719,0.074 1.644,0.078 3.344,0.157 4.996,0.039 3.434,-0.254 6.879,-0.144 10.859,0.313 0.348,0.039 0.7,0.055 1.164,0.086 l -0.058,-0.102 c -0.364,-0.621 -0.672,-1.14 -0.977,-1.652 -4.336,-7.262 -8.07,-13.871 -9.941,-21.328 -1.059,-4.203 -1.738,-8.75 -2.031,-13.512 -0.657,-10.793 0.277,-21.375 2.785,-31.449 0.922,-3.703 2.07,-8.313 3.429,-12.649 0.707,-2.257 1.844,-4.39 2.954,-6.468 1.175,-2.203 2.39,-4.477 3.949,-6.52 2.433,-3.18 4.558,-5.598 6.679,-7.601 3.172,-2.993 6.118,-5.399 9.008,-7.344 9.453,-6.379 18.629,-9.621 28.055,-9.906 l 0.125,-0.008 c 8.152,-0.227 16.644,-0.328 25.969,-0.321 3.168,0.008 6.312,0.418 9.355,0.817 1.117,0.144 2.195,0.551 3.235,0.937 0.308,0.118 0.617,0.235 0.921,0.332 0.864,0.305 1.735,0.598 2.598,0.887 2.371,0.805 4.824,1.629 7.16,2.652 2.684,1.18 5.184,2.723 7.52,4.204 2.308,1.468 4.246,2.91 5.918,4.398 2.734,2.43 5.078,4.742 7.168,7.055 3.3,3.652 6.41,7.367 9.843,11.504 3.161,3.8 6.125,7.593 7.68,12.242 0.027,0.086 0.067,0.152 0.109,0.23 l 0.083,0.18 c 3.117,6.891 4.578,14.344 5.992,21.543 l 0.113,0.574 c 0.68,3.461 1.223,7.309 1.664,11.762 0.301,3.043 0.277,6.058 0.219,8.609 -0.121,4.899 -0.531,10.637 -2.719,16.18 -1.434,3.629 -2.769,7.273 -4.187,11.129 -0.559,1.508 -1.122,3.043 -1.704,4.601 0.868,0 1.719,-0.007 2.571,-0.007 2.558,-0.008 4.972,-0.016 7.437,-0.094 1.071,-0.031 2.168,-0.129 3.227,-0.231 1.078,-0.109 2.195,-0.211 3.297,-0.242 l 1.816,-0.047 c 4.691,-0.093 9.539,-0.191 14.313,-0.062 3.492,0.094 7.035,0.297 10.461,0.492 2.996,0.16 6.089,0.34 9.132,0.441 3.078,0.102 6.219,0.032 9.258,-0.039 l 2.289,-0.047 c 4.77,-0.086 9.539,-0.195 14.305,-0.382 2.207,-0.082 4.387,-0.239 6.695,-0.403 0.883,-0.062 1.774,-0.117 2.684,-0.179 -0.059,-0.711 -0.121,-1.395 -0.188,-2.071 -0.168,-1.808 -0.324,-3.508 -0.398,-5.218 -0.266,-5.844 -0.418,-10.575 -0.496,-14.899 -0.024,-1.418 -0.047,-2.836 -0.078,-4.266 -0.11,-5.39 -0.223,-10.968 -0.059,-16.453 0.324,-10.394 0.898,-20.961 1.457,-31.172 l 0.086,-1.621 c 0.148,-2.691 0.387,-5.429 0.613,-8.078 0.207,-2.379 0.422,-4.847 0.571,-7.265 0.14,-2.368 0.214,-4.789 0.289,-7.125 0.062,-2.133 0.132,-4.329 0.254,-6.493 0.125,-2.343 0.359,-4.707 0.578,-6.996 0.093,-0.937 0.187,-1.879 0.273,-2.816 0.016,-0.164 0.051,-0.328 0.09,-0.488 0.023,-0.086 0.051,-0.188 0.062,-0.274 0.536,-3.879 -0.222,-5.172 -3.859,-6.601 -2.703,-1.063 -5.703,-1.676 -8.933,-1.84 -13.102,-0.649 -24.793,-1.188 -35.743,-1.625 -4.566,-0.18 -9.14,-0.328 -13.711,-0.469 -5.656,-0.176 -11.504,-0.355 -17.254,-0.621 -4.632,-0.207 -9.335,-0.535 -13.886,-0.852 -3.25,-0.226 -6.504,-0.449 -9.762,-0.636 -11.68,-0.676 -22.133,-1.227 -31.949,-1.692 -2.711,-0.133 -5.477,-0.148 -8.153,-0.164 -1.218,0 -2.441,-0.008 -3.667,-0.023 -1.309,-0.024 -2.629,-0.043 -3.946,-0.082 -2.914,-0.063 -5.926,-0.125 -8.883,-0.071 -3.519,0.071 -7.039,0.207 -10.558,0.356 -2.457,0.101 -4.914,0.195 -7.367,0.269 l -1.454,0.043 c -6.351,0.168 -12.703,0.309 -19.058,0.45 -4.91,0.109 -9.82,0.214 -14.734,0.339 l -0.559,0.008 c -1.301,0.039 -2.606,0.11 -3.91,0.172 -2.035,0.11 -4.074,0.199 -6.117,0.207 -6.723,0.024 -13.336,-0.066 -18.914,-0.164 -6,-0.098 -13.083,-0.246 -20.176,-0.484 l -0.235,-0.02 c -11.16,-0.379 -22.691,-0.781 -34.035,-1.332 -5.179,-0.25 -10.445,-0.566 -15.535,-0.879 -6.129,-0.371 -12.465,-0.758 -18.699,-1.023 -7.477,-0.317 -14.887,-0.043 -22.039,0.832 -1.418,0.172 -2.93,0.269 -4.77,0.332 -1.312,0.039 -2.629,0.047 -3.945,0.055 -1.309,0.007 -2.621,0.023 -3.93,0.062 l -0.254,0.008 c -4.632,0.156 -9.269,0.316 -13.976,0.488 l -5.606,0.203 c -0.031,0.207 -0.062,0.41 -0.093,0.606 -0.106,0.66 -0.204,1.222 -0.243,1.797 l -0.093,1.218 c -0.469,6.45 -0.957,13.114 -1.395,19.668 -0.164,2.551 -0.258,5.184 -0.281,8.043 -0.043,4.469 -0.051,8.938 -0.059,13.407 l -0.015,5.773 c -0.008,2.188 -0.02,4.383 -0.036,6.578 -0.027,5.121 -0.058,10.41 -0.015,15.61 0.015,1.921 0.137,3.871 0.254,5.769 0.109,1.816 0.226,3.695 0.25,5.555 0.047,3.562 0.004,7.183 -0.043,10.691 m 58.039,94.942 c -0.348,-0.008 -0.688,-0.024 -1.024,-0.047 -5.722,-0.371 -11.539,-0.684 -17.168,-0.977 l -4.898,-0.266 c -0.531,-0.031 -1.066,-0.039 -1.598,-0.023 l -0.359,0.016 c -0.137,0.007 -0.297,0.054 -0.465,0.117 l -1.371,11.832 c 1.449,0.519 2.91,0.558 4.164,0.519 0.5,-0.015 1,-0.046 1.5,-0.07 0.32,-0.023 0.645,-0.039 0.965,-0.055 2.094,-0.101 4.191,-0.156 6.285,-0.187 3.598,-0.047 7.191,-0.055 10.785,-0.07 0.727,0 1.446,0.023 2.172,0.039 0.453,0.015 0.902,0.023 1.352,0.031 1.367,0.031 1.816,-0.082 2.293,-1.527 0.234,-0.723 0.382,-1.567 0.453,-2.582 0.097,-1.469 0.156,-2.942 0.215,-4.485 l 0.066,-1.652 c -0.949,-0.535 -2.129,-0.574 -3.367,-0.613 m -24.34,-5.516 c 7.473,0.527 13.543,0.898 19.098,1.172 1.461,0.078 2.922,0.144 4.382,0.222 7.504,0.399 15.262,0.801 22.918,0.567 l 1.118,-0.039 c 1.976,-0.055 3.988,0 5.929,0.062 2.575,0.078 5.227,0.157 7.844,-0.047 4.973,-0.378 10.055,-0.558 14.84,-0.703 1.41,-0.039 2.84,0.008 4.215,0.055 1.097,0.035 2.234,0.074 3.347,0.066 l 0.125,0 c 0.575,-0.015 1.153,-0.121 1.766,-0.238 0.398,-0.07 0.797,-0.148 1.195,-0.195 0.094,-0.008 0.192,-0.024 0.297,-0.039 0.586,-0.102 1.164,-0.121 1.512,0.109 2.199,1.449 4.648,1.637 7.238,1.824 0.824,0.071 1.656,0.125 2.477,0.231 1.558,0.203 3.121,0.359 4.746,0.519 1.605,0.164 2.519,1.133 3.199,2.059 1.676,2.289 2.344,4.988 2.098,8.469 -0.102,1.484 -0.114,2.996 -0.125,4.461 -0.008,0.48 -0.016,0.964 -0.02,1.445 1.285,-0.039 2.555,-0.07 3.813,-0.109 3.289,-0.086 6.508,-0.172 9.722,-0.329 1.774,-0.082 3.575,-0.238 5.321,-0.386 1.957,-0.16 3.976,-0.325 5.976,-0.403 3.66,-0.148 7.379,-0.203 10.973,-0.257 1.379,-0.024 2.762,-0.036 4.141,-0.059 2.851,-0.055 5.699,-0.109 8.546,-0.164 7.114,-0.141 14.469,-0.285 21.707,-0.352 4.114,-0.035 8.289,0 12.332,0.039 3.114,0.028 6.231,0.055 9.34,0.055 13.016,-0.016 27,-0.047 41.075,-0.16 4.363,-0.031 8.792,-0.242 13.082,-0.445 l 1.003,-0.047 c 8.329,-0.395 16.817,-0.153 24.723,0.14 3.774,0.149 7.613,0.125 11.328,0.102 2.266,-0.016 4.531,-0.031 6.789,-0.008 2.016,0.016 4.028,0.07 6.039,0.133 2.809,0.07 5.715,0.156 8.567,0.125 2.238,-0.024 4.609,-0.07 7.047,-0.141 2.953,-0.093 6.074,-0.226 9.547,-0.394 3.566,-0.188 7.187,-0.457 10.691,-0.731 1.539,-0.117 3.078,-0.234 4.613,-0.34 l 0.399,-0.027 c 0.355,-0.019 0.711,-0.043 1.062,-0.098 2.41,-0.421 3.715,-1.57 4.102,-3.617 0.093,-0.48 0.218,-0.953 0.347,-1.418 0.161,-0.605 0.317,-1.172 0.391,-1.746 l 0.402,-2.996 c 0.539,-4.008 1.102,-8.152 1.485,-12.242 0.367,-3.871 -0.067,-7.805 -0.489,-11.606 -0.171,-1.519 -0.343,-3.093 -0.464,-4.652 -0.321,-4.09 -0.43,-8.262 -0.528,-12.305 l -0.027,-1.039 c -0.067,-2.39 -0.074,-4.816 -0.086,-7.16 -0.012,-1.652 -0.02,-3.304 -0.047,-4.957 -0.008,-0.461 -0.082,-0.933 -0.176,-1.476 -0.023,-0.153 -0.047,-0.317 -0.074,-0.481 l -2.594,0.039 c -2.281,0.039 -4.527,0.078 -6.777,0.102 -1.813,0.023 -3.625,0.031 -5.438,0.031 -3.445,0.016 -7.003,0.031 -10.5,0.141 l -0.222,0.007 c -5.133,0.153 -10.317,-0.164 -15.324,-0.468 -2.637,-0.16 -5.368,-0.325 -8.047,-0.418 -2.094,-0.078 -4.231,-0.086 -6.293,-0.102 -2.395,-0.015 -4.875,-0.027 -7.309,-0.137 -1.597,-0.07 -3.293,-0.078 -5.176,-0.023 -2.621,0.086 -5.285,0.277 -7.863,0.473 -3.633,0.261 -7.398,0.543 -11.105,0.496 -2.43,-0.024 -3.758,0.73 -5.09,2.926 -1.067,1.746 -2.426,3.328 -3.738,4.847 -1.016,1.18 -2.067,2.399 -2.958,3.676 -4.023,5.742 -9.89,8.836 -16.054,11.762 -6.621,3.133 -13.84,3.871 -20.211,4.515 -2.805,0.285 -5.602,0.614 -8.399,0.938 -2.195,0.258 -4.394,0.504 -6.593,0.746 -1.774,0.187 -3.395,0.301 -4.946,0.355 -5.097,0.157 -9.5,-0.449 -13.453,-1.851 -2.863,-1.02 -5.715,-1.692 -8.394,-2.297 -7.914,-1.801 -15.145,-5.184 -21.481,-10.063 -1.625,-1.257 -3.238,-2.539 -4.847,-3.808 -1.911,-1.524 -3.883,-3.09 -5.856,-4.594 -2.473,-1.867 -4.266,-4.351 -5.75,-6.523 -0.637,-0.93 -1.34,-1.305 -2.492,-1.336 -1.586,-0.039 -3.191,-0.129 -4.746,-0.227 -1.496,-0.082 -3.039,-0.176 -4.555,-0.215 -1.664,-0.039 -3.359,-0.031 -5,-0.031 -1.734,0.008 -3.527,0.016 -5.297,-0.039 -2.418,-0.07 -4.867,-0.195 -7.238,-0.301 -2.035,-0.101 -4.066,-0.203 -6.102,-0.273 -2.808,-0.102 -5.617,-0.168 -8.429,-0.238 -2.645,-0.071 -5.293,-0.141 -7.946,-0.235 -1.703,-0.055 -3.406,-0.14 -5.109,-0.226 -2.691,-0.137 -5.477,-0.278 -8.211,-0.301 -2.371,-0.008 -4.738,0.086 -7.109,0.179 -1.992,0.083 -3.985,0.161 -5.977,0.184 -4.824,0.031 -9.644,0.047 -14.469,0.055 -6.484,0.015 -13.187,0.031 -19.785,0.117 -3.351,0.039 -6.703,0.187 -10.054,0.324 -3.786,0.164 -7.571,0.328 -11.36,0.344 -5.058,0.031 -10.203,-0.203 -15.176,-0.418 l -3.476,-0.156 c -2.09,-0.086 -4.211,-0.227 -6.262,-0.36 -2.015,-0.129 -4.035,-0.261 -6.055,-0.347 -1.031,-0.047 -2.347,0 -3.773,0.07 -0.488,0.023 -0.988,0.047 -1.5,0.062 -0.008,0.418 -0.02,0.836 -0.027,1.258 -0.028,1.285 -0.051,2.496 -0.032,3.731 0.043,2.535 0.125,5.25 0.258,8.308 l 0.008,0.164 c 0.313,7.454 0.645,15.157 1.949,22.629 0.504,2.864 1.074,5.766 1.633,8.563 0.262,1.328 0.527,2.644 0.785,3.972 0.012,0.071 0.016,0.141 0.02,0.258 0.058,0.332 0.09,0.711 0.117,1.094 0.039,0.582 0.102,1.379 0.336,1.559 0.766,0.574 2.086,0.699 3.273,0.738 l 0.336,0.016 c 1.008,0.031 2.047,0.074 3.063,0.043 1.519,-0.051 2.758,-0.247 3.898,-0.618 0.594,-0.195 1.399,-0.187 2.196,-0.132 0.246,0.015 0.492,0.039 0.726,0.039 1.102,0.023 2.199,0.062 3.301,0.093 1.414,0.035 2.824,0.075 4.242,0.102 l 0.231,0.004 c 0.828,0.023 1.566,0.047 2.203,-0.582 0.738,-0.719 1.742,-0.727 2.949,0.047 0.781,0.511 1.562,0.816 2.203,0.863 m 54.535,6.586 -0.926,10.769 3.161,-0.093 1.859,-10.801 -4.094,0.125 z m 201.61,-56.32 c 2.597,-4.059 4.289,-7.543 5.328,-10.95 0.558,-1.804 1.316,-3.574 2.05,-5.281 0.641,-1.492 1.305,-3.027 1.817,-4.578 1.949,-5.863 2.703,-11.895 2.242,-17.922 -0.082,-1.078 -0.145,-2.148 -0.207,-3.226 -0.137,-2.481 -0.289,-5.059 -0.703,-7.524 -0.707,-4.207 -1.637,-8.457 -2.535,-12.57 -0.301,-1.387 -0.602,-2.778 -0.899,-4.164 -0.308,-1.457 -0.691,-2.918 -1.133,-4.336 -0.328,-1.063 -0.769,-2.125 -1.199,-3.16 l -0.129,-0.301 c -0.121,-0.305 -0.277,-0.598 -0.429,-0.887 -0.235,-0.457 -0.485,-0.93 -0.641,-1.449 -1.113,-3.738 -3.285,-6.832 -6.211,-10.324 -3.777,-4.516 -7.637,-9.024 -11.246,-13.219 -2.461,-2.856 -5.512,-5.145 -8.461,-7.356 -1.074,-0.808 -2.144,-1.613 -3.195,-2.445 -5.188,-4.109 -11.43,-5.949 -17.465,-7.726 l -0.93,-0.27 c -5.062,-1.496 -10.433,-1.492 -15.07,-1.375 l -2.035,0.063 -0.008,0.085 -0.5,-0.007 c -1.356,-0.024 -2.715,-0.071 -4.066,-0.118 -2.961,-0.093 -6.012,-0.195 -9.012,-0.054 -6.703,0.304 -13.801,0.855 -20.367,4.004 -1.094,0.527 -2.223,1 -3.321,1.457 -1.847,0.769 -3.761,1.566 -5.504,2.633 -4.449,2.714 -8.55,6.05 -12.546,10.199 -7.075,7.347 -11.532,16.531 -13.622,28.078 -0.257,1.41 -0.586,2.84 -0.902,4.211 -0.476,2.086 -0.973,4.25 -1.226,6.387 -0.833,7.199 -1.508,14.941 -0.805,22.785 0.777,8.672 3.613,17.211 8.672,26.117 1.465,2.586 2.836,4.805 4.199,6.805 0.469,0.683 1.094,1.281 1.754,1.91 0.316,0.285 0.625,0.59 0.922,0.898 0.109,0.117 0.238,0.219 0.371,0.332 0.371,0.313 0.793,0.668 0.894,1.18 0.469,2.266 1.871,3.894 3.832,5.641 3.86,3.437 7.379,6.492 11.368,8.992 0.886,0.558 1.722,1.211 2.535,1.84 1.191,0.921 2.324,1.796 3.593,2.402 4.04,1.926 8.426,3.75 13.415,5.562 1.492,0.543 3.175,0.746 4.808,0.942 0.504,0.051 1.012,0.105 1.508,0.176 2.527,0.347 5.066,0.66 7.598,0.961 l 3.461,0.429 c 0.164,0.016 0.386,0.031 0.593,0.145 1.121,0.644 2.371,0.918 3.938,0.871 0.867,-0.024 1.773,-0.149 2.652,-0.266 0.836,-0.105 1.711,-0.23 2.574,-0.262 l 0.621,-0.023 c 0.965,-0.031 1.93,-0.031 2.899,-0.039 l 0.262,0 c 2.457,0 4.757,-0.211 6.836,-0.645 1.929,-0.402 3.921,-0.582 5.847,-0.753 1.215,-0.098 2.465,-0.207 3.68,-0.379 l 0.523,-0.071 c 2.035,-0.269 4.137,-0.558 6.055,-1.203 2.562,-0.859 5.316,-2.015 8.664,-3.637 1.828,-0.89 3.699,-2.023 5.719,-3.476 1.453,-1.047 3.121,-2.324 4.41,-3.871 l 0.93,-1.11 c 2.711,-3.226 5.515,-6.562 7.797,-10.128 M 324.129,500.5 c -0.031,-0.742 -0.066,-1.512 -0.094,-2.305 l -3.711,-0.215 -0.679,12.141 c 0.007,0.008 0.015,0.016 0.023,0.024 1.039,0.062 1.824,0.097 2.453,0.085 1.817,-0.054 1.977,-0.382 2.113,-4.375 0.063,-1.73 -0.019,-3.484 -0.105,-5.355 m -16.527,-2.211 -6.411,0.195 -1.656,11.442 0.824,0.078 c 0.789,0.062 1.438,0.125 2.114,0.164 0.843,0.055 1.515,0.094 2.015,0.074 1.266,-0.035 1.395,-0.246 1.934,-3.187 0.379,-2.063 0.625,-4.141 0.887,-6.336 0.093,-0.801 0.187,-1.606 0.293,-2.43 m 4.394,-0.117 c -0.832,1.949 -0.93,3.996 -1.031,6.152 -0.086,1.848 -0.176,3.754 -0.77,5.625 0.91,0.235 1.84,0.328 2.883,0.293 0.445,-0.012 0.887,-0.051 1.309,-0.09 0.168,-0.047 0.593,-0.574 0.695,-0.976 0.848,-3.406 1.234,-6.961 1.211,-11.125 l -4.297,0.121 z m -64.93,15.223 c -1.031,0.039 -2.039,0.117 -3.003,0.242 -0.657,0.082 -1.336,0.039 -1.985,-0.008 -0.281,-0.016 -0.558,-0.039 -0.844,-0.051 -0.226,-0.004 -0.425,-0.012 -0.597,-0.004 -0.371,0.016 -0.43,0.071 -0.43,0.071 -0.09,0.097 -0.082,0.671 -0.059,1.168 0.032,0.007 0.067,0.007 0.102,0.015 0.359,0.055 0.684,0.11 0.977,0.047 1.668,-0.355 3.668,-0.207 5.496,-0.023 0.539,0.062 1.086,0.117 1.625,0.156 1.894,0.148 3.882,0.18 6.078,0.117 l 0.633,-0.023 c 0.425,-0.016 0.988,-0.11 1.261,-0.426 0.121,-0.149 0.188,-0.352 0.196,-0.598 -3.036,-0.422 -6.258,-0.777 -9.45,-0.683" /><path
         id="path36"
         style="fill:#171717;fill-opacity:1;fill-rule:nonzero;stroke:none"
         d="m 478.094,452.813 c -0.918,0.542 -1.871,1.101 -2.758,1.707 -2.785,1.871 -5.648,3.164 -8.742,3.964 -1.031,0.262 -2.063,0.551 -3.09,0.844 -1.902,0.527 -3.867,1.078 -5.84,1.485 -3.434,0.691 -6.941,1.253 -10.34,1.816 -1.047,0.168 -2.09,0.34 -3.14,0.512 -0.371,0.058 -0.762,0.039 -1.153,0 -0.144,-0.008 -0.293,-0.024 -0.437,-0.024 l -13.828,-0.488 c -4.289,1.031 -8.879,0.672 -14.973,-1.227 -0.031,-0.007 -0.098,-0.007 -0.156,-0.015 -0.102,-0.008 -0.196,-0.016 -0.289,-0.032 -4.782,-0.992 -8.852,-3.429 -12.95,-6.042 -2.949,-1.887 -5.98,-4.043 -8.199,-7.055 -0.211,-0.285 -0.535,-0.528 -0.879,-0.781 -0.187,-0.141 -0.371,-0.282 -0.543,-0.426 -0.367,-0.313 -0.746,-0.613 -1.129,-0.91 -0.871,-0.68 -1.765,-1.387 -2.492,-2.25 -1.855,-2.219 -3.664,-4.532 -5.414,-6.774 -0.777,-0.992 -1.551,-1.984 -2.336,-2.969 -0.273,-0.347 -0.57,-0.683 -0.863,-1.015 -0.594,-0.676 -1.203,-1.375 -1.66,-2.164 -1.934,-3.375 -3.731,-6.696 -5.324,-9.879 -0.586,-1.164 -0.95,-2.504 -1.016,-3.793 -0.316,-5.641 -1.625,-11.203 -2.891,-16.57 -1.761,-7.469 -1.992,-14.7 -0.679,-21.481 1.461,-7.57 4.047,-15.144 7.675,-22.484 0.207,-0.426 0.415,-0.852 0.622,-1.278 0.878,-1.832 1.789,-3.718 3.011,-5.355 3.657,-4.902 7.84,-8.438 12.793,-10.828 2.36,-1.133 4.707,-2.406 6.977,-3.649 1.734,-0.937 3.523,-1.906 5.32,-2.824 1.688,-0.851 3.5,-1.719 5.418,-2.078 3.469,-0.645 7.102,-1.125 11.109,-1.457 0.688,-0.055 1.375,-0.125 2.067,-0.188 1.758,-0.164 3.566,-0.324 5.351,-0.386 1.625,-0.047 3.051,0 4.368,0.156 1.523,0.176 3.082,0.309 4.597,0.434 5.035,0.41 10.246,0.836 15.063,3.156 0.074,0.039 0.191,0.055 0.32,0.086 0.102,0.015 0.211,0.039 0.309,0.062 4.906,1.328 10.543,3.196 15.179,7.051 1.664,1.383 3.426,2.707 5.133,3.996 4.629,3.492 9.41,7.098 12.817,12.18 0.632,0.945 1.339,1.871 2.027,2.762 1.512,1.968 3.082,4.011 4.008,6.476 0.351,0.942 0.824,1.863 1.277,2.758 0.328,0.641 0.652,1.285 0.941,1.937 0.231,0.512 0.461,1.016 0.696,1.528 0.82,1.816 1.676,3.703 2.328,5.625 1.117,3.312 2.031,6.633 3.031,10.308 0.215,0.809 0.457,1.614 0.699,2.422 0.696,2.313 1.418,4.703 1.543,7.121 0.391,7.743 -0.328,16.043 -2.281,26.106 -0.16,0.824 -0.355,1.691 -0.715,2.492 l -0.918,2.047 c -1.289,2.91 -2.625,5.902 -4.082,8.789 -2.621,5.207 -6.39,9.82 -11.207,13.73 -1.355,1.102 -2.883,2.004 -4.355,2.872 m 5.949,-10.125 c 4.359,-4.973 7.316,-10.961 9.75,-16.192 1.93,-4.141 2.531,-8.836 2.863,-12.875 0.375,-4.5 0.602,-9.387 0.715,-15.383 0.035,-1.832 -0.414,-3.765 -0.812,-5.238 -0.301,-1.133 -0.594,-2.273 -0.891,-3.406 -0.996,-3.856 -2.023,-7.852 -3.469,-11.59 -2.551,-6.633 -4.836,-11.449 -7.41,-15.625 -3.711,-6.035 -9.027,-11.293 -16.726,-16.555 -0.704,-0.48 -1.364,-1.031 -2,-1.558 -0.5,-0.418 -1.008,-0.84 -1.532,-1.219 -4.343,-3.188 -9.265,-5.02 -13.933,-6.625 -6.465,-2.219 -12.981,-2.684 -17.938,-2.848 -1.887,-0.062 -3.765,-0.172 -5.414,-0.269 -0.68,-0.047 -1.312,-0.078 -1.801,-0.117 -1.492,0.171 -2.949,0.316 -4.379,0.449 -4.503,0.441 -8.757,0.851 -12.851,2.203 -2.551,0.848 -4.945,2.101 -7.262,3.312 -0.836,0.442 -1.68,0.883 -2.527,1.305 -1.942,0.969 -3.86,2.086 -5.715,3.164 -0.902,0.527 -1.809,1.055 -2.719,1.567 -3.129,1.761 -5.781,4.265 -7.89,7.457 -3.266,4.949 -5.797,10.347 -7.532,16.05 -0.414,1.356 -0.851,2.7 -1.293,4.047 -0.679,2.074 -1.382,4.231 -1.957,6.363 -1.277,4.762 -1.504,9.758 -0.664,14.856 0.5,3.066 1.035,6.129 1.571,9.187 l 0.66,3.793 c 0.133,0.789 0.293,1.59 0.449,2.383 0.34,1.711 0.691,3.481 0.832,5.25 0.543,6.703 4.422,11.934 8.176,16.989 l 0.125,0.164 c 2.531,3.414 5.461,6.64 8.336,9.812 l 0.375,0.422 c 2.074,2.281 4.215,4.644 6.633,6.531 3.707,2.895 7.718,5.84 12.402,7.363 l 0.82,0.262 c 4.274,1.391 8.692,2.824 13.301,2.801 0.137,0 0.25,0.031 0.43,0.07 1.339,-0.25 2.761,-0.394 4.339,-0.441 2.161,-0.063 4.344,0.055 6.461,0.18 1.586,0.089 3.231,0.183 4.844,0.191 4.559,0.023 9.141,-0.48 13.715,-1.52 0.828,-0.187 1.656,-0.367 2.492,-0.543 3.699,-0.8 7.531,-1.621 11.043,-3.234 0.582,-0.266 1.168,-0.527 1.754,-0.777 0.856,-0.379 1.703,-0.75 2.547,-1.156 1.109,-0.543 2.211,-1.118 3.305,-1.692 l 1.097,-0.574 c 3.043,-1.59 5.367,-4.086 7.68,-6.734" /><path
         id="path38"
         style="fill:#171717;fill-opacity:1;fill-rule:nonzero;stroke:none"
         d="m 474.43,422.512 c -1.438,3.59 -2.895,6.215 -4.586,8.222 -3.02,3.614 -6.606,6.516 -10.66,8.633 -0.954,0.496 -1.946,0.942 -2.911,1.367 -0.703,0.317 -1.41,0.629 -2.097,0.969 -0.578,0.281 -1.133,0.59 -1.692,0.902 -0.523,0.286 -1.046,0.583 -1.586,0.852 -1.277,0.629 -2.589,0.746 -3.589,0.785 -0.489,0.008 -0.973,0.008 -1.461,0 -0.473,-0.008 -0.946,-0.015 -1.418,0.008 l -0.16,0 c -0.36,0.016 -0.723,0.027 -1.082,0.035 -8.813,0.274 -16.668,-0.586 -24.016,-2.621 -4.016,-1.109 -7.219,-2.715 -9.789,-4.918 -3.121,-2.668 -5.801,-5.617 -8.192,-9 -3.16,-4.476 -6.628,-9.93 -8.449,-16.422 l -0.062,-0.238 c 0.351,1.277 -0.66,-1.16 -1.153,-2.43 -0.257,-0.66 -1.05,-1.972 -1.265,-2.586 -0.145,-0.394 -0.547,-1.535 -0.696,-1.929 -0.863,-2.313 -1.187,-3.676 -1.332,-6.278 -0.007,-0.152 -0.015,-0.418 -0.074,-0.679 -0.051,-0.204 -0.094,-0.399 -0.113,-0.59 -0.285,-2.895 -0.512,-6.246 0.449,-9.457 1.219,-4.074 2.762,-8.102 4.121,-11.66 1.289,-3.368 2.879,-6.868 5.801,-9.629 1.121,-1.063 2.297,-2.102 3.43,-3.106 1.39,-1.222 2.824,-2.496 4.168,-3.808 1.773,-1.739 3.937,-2.723 6.031,-3.676 1.086,-0.496 2.203,-1.008 3.23,-1.613 1.871,-1.094 4.118,-1.582 5.86,-1.879 2.105,-0.371 4.226,-0.582 6.683,-0.821 1.125,-0.109 2.317,-0.234 3.614,-0.375 l 0.039,-0.007 2.004,0.109 c 1.839,0.109 4.043,0.226 6.25,0.336 4.867,0.23 9.351,2.062 13.168,3.754 5.707,2.527 9.601,7.176 13.371,11.668 0.695,0.824 1.382,1.652 2.093,2.465 0.121,0.148 0.18,0.304 0.227,0.429 0.012,0.039 0.023,0.078 0.047,0.114 0.605,1.082 1.234,2.16 1.863,3.23 2.02,3.441 4.113,7.004 5.457,10.898 l 0.223,0.653 c 0.687,1.961 1.394,3.988 1.398,6.027 l -0.004,0.848 c -0.011,1.386 -0.019,2.691 0.243,4.015 0.542,2.731 1.117,6.356 0.683,10.164 -0.746,6.625 -2.074,12.266 -4.066,17.239 m -34.313,17.886 c 0.567,-0.011 1.137,-0.035 1.703,-0.066 1.895,-0.117 3.825,-0.328 5.692,-0.535 l 1.394,-0.156 c 0.117,-0.008 0.293,-0.11 0.461,-0.203 0.094,-0.055 0.184,-0.102 0.278,-0.137 l 1.871,-0.918 c 1.113,-0.535 2.218,-1.078 3.336,-1.613 4.871,-2.321 8.324,-4.832 10.863,-7.915 2.156,-2.621 3.566,-5.203 4.316,-7.902 0.293,-1.043 0.66,-2.074 1.016,-3.066 0.476,-1.332 0.965,-2.707 1.258,-4.082 0.672,-3.149 1.386,-6.864 1.593,-10.539 0.106,-1.887 -0.218,-3.86 -0.535,-5.766 -0.101,-0.629 -0.203,-1.25 -0.297,-1.871 -0.148,-1.063 -0.371,-2.141 -0.589,-3.18 -0.141,-0.668 -0.278,-1.336 -0.403,-2.008 -0.019,-0.109 -0.047,-0.226 -0.074,-0.351 -0.125,-0.551 -0.262,-1.18 0,-1.699 0.805,-1.606 0.168,-3 -0.504,-4.485 -0.121,-0.254 -0.238,-0.519 -0.348,-0.773 -2.05,-4.852 -4.687,-9.324 -7.839,-13.297 -2.895,-3.656 -5.891,-7.434 -9.914,-9.992 l -0.383,-0.25 c -1.035,-0.664 -2.11,-1.356 -3.227,-1.739 -4.558,-1.55 -9.285,-3.156 -14.269,-2.843 -3.59,0.222 -7.825,0.504 -12.039,0.875 -1.036,0.093 -2.102,0.465 -3.004,0.812 -0.844,0.336 -1.711,0.637 -2.571,0.949 -2.992,1.047 -5.82,2.047 -8.168,4.172 -0.726,0.66 -1.531,1.243 -2.308,1.801 -0.992,0.723 -1.93,1.402 -2.731,2.234 -0.472,0.489 -0.961,0.977 -1.441,1.465 -2.926,2.95 -5.695,5.727 -6.758,9.907 -0.754,2.941 -1.758,5.867 -2.726,8.691 -0.438,1.258 -0.868,2.504 -1.278,3.762 -0.574,1.754 -0.656,3.652 -0.277,6.074 0.906,2.894 1.312,5.246 1.801,8.324 0.023,4.352 1.332,6.27 3.144,8.914 0.91,1.328 1.942,2.84 2.942,4.887 2.265,4.648 5.418,8.992 9.91,13.66 3.551,3.688 8.07,6.024 14.226,7.348 5.387,1.164 10.731,1.676 15.879,1.511" /></g></g></svg>