<?xml version="1.0" encoding="UTF-8" standalone="no"?>
<svg
   xmlns:dc="http://purl.org/dc/elements/1.1/"
   xmlns:cc="http://creativecommons.org/ns#"
   xmlns:rdf="http://www.w3.org/1999/02/22-rdf-syntax-ns#"
   xmlns:svg="http://www.w3.org/2000/svg"
   xmlns="http://www.w3.org/2000/svg"
   viewBox="0 0 100 100"
   height="100"
   width="100"
   xml:space="preserve"
   version="1.1"
   id="svg2"><metadata
     id="metadata8"><rdf:RDF><cc:Work
         rdf:about=""><dc:format>image/svg+xml</dc:format><dc:type
           rdf:resource="http://purl.org/dc/dcmitype/StillImage" /></cc:Work></rdf:RDF></metadata><defs
     id="defs6" /><g
     transform="matrix(1.25,0,0,-1.25,0,100)"
     id="g10"><g
       transform="scale(0.1,0.1)"
       id="g12"><path
         id="path14"
         style="fill:#0f0e0d;fill-opacity:1;fill-rule:nonzero;stroke:none"
         d="m 542.055,369.883 c 1.363,-1.219 2.781,-2.383 4.062,-3.68 1.746,-1.746 3.395,-3.586 5.055,-5.41 2.836,-3.105 5.707,-6.184 8.441,-9.375 1.203,-1.395 2.067,-3.074 3.164,-4.563 1.192,-1.605 2.508,-3.121 3.723,-4.71 1.156,-1.516 2.375,-3.016 3.355,-4.649 2.43,-4.031 4.954,-8.031 7.028,-12.238 1.844,-3.746 3.164,-7.75 4.64,-11.664 0.379,-1.016 0.653,-2.125 0.676,-3.199 0.024,-0.864 -0.312,-1.774 -0.687,-2.567 -0.137,-0.305 -0.883,-0.578 -1.25,-0.484 -4.828,1.258 -9.485,2.972 -13.758,5.597 -1.957,1.207 -3.832,2.582 -5.887,3.606 -1.508,0.75 -3.246,1.058 -5.316,1.699 0.375,-1.73 0.347,-3.297 1.027,-4.461 2.488,-4.258 4.391,-8.754 6.129,-13.347 1.742,-4.61 3.668,-9.149 5.426,-13.754 1.336,-3.5 2.703,-6.996 3.73,-10.579 0.5,-1.753 0.301,-3.718 0.336,-5.589 0.016,-0.782 -0.066,-1.606 -0.293,-2.356 -0.586,-1.894 -1.668,-2.172 -3.468,-1.265 -1.622,0.808 -3.45,1.234 -5.028,2.117 -1.758,0.988 -3.328,2.297 -4.988,3.457 -1.652,1.16 -3.313,2.285 -4.953,3.449 -4.699,3.324 -9.571,6.355 -14.774,8.844 -0.324,0.156 -0.664,0.261 -1.382,0.535 0.359,-1.422 0.511,-2.641 0.964,-3.734 1.145,-2.786 2.539,-5.477 3.614,-8.29 0.945,-2.464 1.539,-5.046 1.308,-7.753 -0.183,-2.125 -0.051,-4.293 -0.402,-6.383 -0.32,-1.883 -1.828,-2.293 -3.559,-1.399 -0.75,0.387 -1.668,0.664 -2.5,0.645 -3.949,-0.106 -7.726,0.707 -11.367,2.117 -2.91,1.137 -5.73,2.516 -8.594,3.785 -1.66,0.731 -3.332,1.453 -4.984,2.211 -0.789,0.352 -1.551,0.774 -2.316,1.156 -0.082,-0.086 -0.164,-0.175 -0.243,-0.261 1.246,-2.219 2.536,-4.414 3.735,-6.661 1.117,-2.101 2.344,-4.179 3.172,-6.402 1.418,-3.805 2.613,-7.703 3.808,-11.59 0.571,-1.824 -0.211,-2.914 -2.078,-2.988 -3.504,-0.137 -7.027,-0.375 -10.457,0.641 -0.723,0.211 -1.457,0.453 -2.117,0.8 -2.086,1.09 -4.121,2.282 -6.211,3.372 -2.5,1.3 -5.031,2.539 -7.559,3.792 -1.57,0.778 -3.14,1.579 -4.761,2.25 -0.348,0.145 -1.078,-0.058 -1.321,-0.359 -0.632,-0.766 -1.07,-1.699 -1.629,-2.531 -2.066,-3.094 -4.195,-6.149 -6.218,-9.27 -1.164,-1.789 -2.25,-3.636 -3.254,-5.523 -1.754,-3.266 -3.465,-6.563 -5.11,-9.887 -1.382,-2.805 -2.507,-5.75 -4.004,-8.488 -1.417,-2.598 -2.519,-5.484 -5.277,-7.149 -1.551,-0.937 -3.242,-0.902 -4.922,-1.019 -0.652,-0.051 -1.32,0.07 -1.984,0.098 -1.516,0.066 -2.973,0.277 -4.207,1.296 -0.402,0.336 -0.895,0.688 -1.391,0.766 -1.617,0.246 -2.414,1.527 -3.414,2.547 -1.383,1.43 -2.625,3.004 -4.097,4.324 -0.446,0.41 -1.504,0.465 -2.157,0.266 -2.554,-0.778 -4.593,-2.281 -6.238,-4.469 -2.152,-2.859 -4.457,-5.625 -6.824,-8.309 -0.93,-1.058 -2.164,-1.894 -3.375,-2.656 -0.457,-0.293 -1.371,-0.328 -1.828,-0.062 -1.914,1.117 -3.883,2.23 -5.563,3.668 -1.918,1.629 -3.66,3.5 -5.281,5.437 -2.34,2.793 -4.496,5.746 -6.731,8.625 -0.906,1.168 -3.32,1.512 -4.89,0.344 -1.473,-1.102 -2.727,-2.527 -3.946,-3.926 -1.886,-2.164 -3.492,-4.586 -5.527,-6.59 -1.332,-1.312 -3.269,-2.008 -4.836,-3.109 -1.262,-0.895 -2.73,-1.379 -3.992,-0.758 -1.766,0.867 -3.594,1.981 -4.832,3.453 -3.027,3.602 -5.715,7.492 -8.598,11.215 -0.73,0.938 -1.625,1.758 -2.527,2.531 -1.434,1.227 -3.148,1.164 -4.391,-0.203 -1.871,-2.058 -4.285,-3.234 -6.734,-4.39 -0.828,-0.391 -1.621,-0.848 -2.438,-1.262 -1.671,-0.852 -3.503,-0.973 -5.226,-0.582 -1.016,0.23 -2.109,1.043 -2.734,1.91 -2.149,2.953 -4.368,5.91 -6.071,9.129 -1.633,3.094 -2.703,6.48 -3.051,10.043 -0.285,2.988 -0.714,5.961 -1.097,8.945 -0.031,0.258 -0.153,0.508 -0.27,0.875 -2.355,-0.902 -4.004,-2.578 -5.765,-4.168 -1.426,-1.297 -3.11,-2.312 -4.688,-3.441 -0.219,-0.16 -0.547,-0.215 -0.711,-0.414 -1.316,-1.61 -3.281,-2.047 -5.062,-2.797 -1.309,-0.551 -2.582,-0.434 -3.7,0.586 -1.39,1.258 -3.011,2.383 -3.109,4.476 -0.043,0.989 0,2.082 0.391,2.957 1.722,3.934 3.418,7.895 5.449,11.672 1.594,2.965 3.691,5.657 5.496,8.52 0.641,1.019 1.059,2.179 1.711,3.535 -0.766,-0.012 -1.258,0.117 -1.629,-0.043 -2.516,-1.086 -5,-2.238 -7.504,-3.352 -1.547,-0.691 -3.125,-1.304 -4.652,-2.023 -2.934,-1.391 -5.813,-2.898 -8.762,-4.238 -4.766,-2.168 -9.387,-4.727 -14.609,-5.742 -1.043,-0.204 -3.766,1.375 -4.492,2.582 -1.274,2.125 -0.633,4.32 0.046,6.343 1.211,3.633 2.606,7.219 4.981,10.336 1.113,1.461 1.808,3.153 2.012,5.188 -1.125,-0.403 -2.11,-0.739 -3.067,-1.106 -3.301,-1.265 -6.691,-2.336 -9.851,-3.867 -3.293,-1.601 -6.305,-3.769 -9.551,-5.465 -2.113,-1.109 -4.426,-1.84 -6.652,-2.726 -1.282,-0.508 -2.54,-1.086 -3.856,-1.446 -1.453,-0.394 -2.965,-0.593 -4.453,-0.847 -0.137,-0.024 -0.352,0.136 -0.461,0.269 -0.852,0.992 -1.754,1.953 -2.5,3.016 -1.008,1.433 -0.656,3.148 -0.375,4.64 0.352,1.852 1.246,3.606 1.937,5.391 1.981,5.109 3.969,10.211 5.961,15.313 1.977,5.07 4.836,9.629 7.969,14.046 1.399,1.981 2.672,4.051 4,6.071 0.633,0.965 0.094,1.5 -0.765,1.441 -2.383,-0.148 -4.75,-0.504 -7.129,-0.726 -2.969,-0.278 -5.235,-2.235 -7.887,-3.278 -1.895,-0.742 -3.695,-1.746 -5.574,-2.547 -1.739,-0.738 -3.543,-0.605 -5.27,0.055 -1.449,0.559 -1.984,1.777 -1.687,3.34 0.746,3.875 2.945,6.945 5.363,9.949 2.543,3.164 5.066,6.36 7.391,9.688 3.109,4.465 5.972,9.09 9.015,13.597 2.438,3.602 4.821,7.258 7.547,10.633 2.293,2.836 5.047,5.301 7.59,7.934 0.473,0.488 0.926,1.004 1.543,1.679 -0.52,0.122 -0.836,0.25 -1.164,0.266 -3.711,0.227 -7.422,0.574 -11.137,0.606 -4.574,0.035 -9.152,-0.122 -13.726,-0.34 -4.793,-0.239 -9.122,1.05 -13.137,3.554 -1.293,0.809 -1.711,2.594 -0.867,3.852 0.504,0.75 1.148,1.445 1.843,2.023 1.825,1.528 3.633,3.102 5.602,4.43 1.605,1.086 3.348,2.106 5.176,2.719 6.164,2.062 12.363,4.039 18.613,5.836 3.953,1.136 8.02,1.902 12.035,2.84 1.824,0.429 3.645,0.898 5.477,1.3 3.215,0.711 6.441,1.375 9.656,2.098 1.387,0.309 2.77,0.648 4.117,1.098 1.289,0.429 1.285,1.726 1.438,2.757 0.23,1.579 0.148,3.2 0.359,4.778 0.629,4.754 0.164,9.48 -0.453,14.168 -0.34,2.629 -1.262,5.195 -2.078,7.742 -1.348,4.219 -3.77,7.91 -6.442,11.34 -2.699,3.461 -6.218,6.074 -10.629,7.105 -2.078,0.481 -4.207,0.754 -6.328,1.059 -1.066,0.148 -1.718,-0.465 -2.343,-1.324 -1.465,-2.012 -2.989,-4 -4.633,-5.875 -0.977,-1.114 -2.367,-1.868 -3.336,-2.989 -2.918,-3.351 -6.805,-5.504 -10.098,-8.379 -2.711,-2.363 -5.07,-5.132 -7.738,-7.55 -3.051,-2.762 -6.266,-5.344 -9.426,-7.981 -0.801,-0.668 -1.683,-1.234 -2.5,-1.886 -3.402,-2.723 -7.43,-3.942 -11.633,-4.5 -3.375,-0.454 -6.828,-0.872 -10.218,-0.086 -1.434,0.336 -2.754,0.941 -3.786,2.222 -2.578,3.203 -5.414,6.203 -7.953,9.446 -1.097,1.406 -1.824,3.152 -2.515,4.828 -1.614,3.953 -3.231,7.914 -4.606,11.953 -0.906,2.683 -1.367,5.519 -2.101,8.265 -1.047,3.961 -2.278,7.875 -3.203,11.864 -0.442,1.902 -0.352,3.925 -0.524,5.894 -0.023,0.254 -0.043,0.61 -0.211,0.746 -1.512,1.207 -1.519,3.055 -1.863,4.672 -0.832,3.981 -1.746,7.996 -2,12.039 -0.199,3.274 -0.918,6.407 -1.324,9.61 -0.364,2.894 -0.184,5.863 -0.383,8.785 -0.297,4.535 -1.059,8.953 -2.496,13.328 -1.043,3.18 -2.539,6.406 -1.949,10.004 0.429,2.609 0.457,5.277 0.902,7.883 0.367,2.187 0.996,4.339 1.644,6.461 0.848,2.742 1.711,5.488 2.782,8.14 0.64,1.59 1.617,3.059 2.586,4.481 0.746,1.082 1.64,2.09 2.605,2.984 2.074,1.926 4.234,3.75 6.359,5.617 1.204,1.055 2.336,2.203 3.618,3.156 3.121,2.333 6.152,4.844 9.507,6.774 2.993,1.715 6.313,2.93 9.594,4.039 2.676,0.898 4.891,2.441 7.168,3.977 3.008,2.023 6.039,4.003 9.063,6.003 3.011,1.989 5.933,4.122 9.05,5.926 2.801,1.614 5.762,3.004 8.754,4.246 3.676,1.528 7.469,2.77 11.196,4.176 4.629,1.742 9.211,3.606 13.871,5.266 5.59,1.984 11.375,3.23 17.265,3.957 1.317,0.164 2.653,0.242 3.957,0.449 3.18,0.508 6.207,-0.402 9.246,-0.977 3.086,-0.578 5.344,-2.652 7.168,-5.046 2.086,-2.719 4.067,-5.547 5.793,-8.508 1.582,-2.707 2.653,-5.715 4.149,-8.477 2.035,-3.769 3.265,-7.816 4.422,-11.894 0.316,-1.114 1.082,-1.153 1.929,-0.985 3.602,0.696 7.215,1.356 10.793,2.164 3.93,0.891 7.789,2.082 11.739,2.832 1.902,0.36 3.957,0.133 5.914,-0.054 3.535,-0.336 6.801,0.82 10.152,1.539 5.125,1.101 10.309,1.797 15.559,1.703 5.886,-0.098 11.769,-0.313 17.656,-0.551 4.094,-0.16 8.176,-0.523 12.266,-0.637 4.773,-0.125 9.554,0.114 14.32,-0.136 6.738,-0.352 13.437,-1.086 20.09,-2.442 5.797,-1.183 11.699,-1.859 17.547,-2.804 1.312,-0.207 2.601,-0.559 3.894,-0.887 0.902,-0.231 1.199,0.09 1.289,1.004 0.336,3.363 0.653,6.734 1.203,10.066 0.305,1.824 1.235,3.547 1.582,5.371 0.817,4.375 3.371,7.719 6.133,10.977 0.176,0.211 0.426,0.379 0.547,0.609 1.816,3.504 5.043,5.078 8.559,6.184 3.75,1.187 7.504,2.422 11.32,3.34 4.336,1.035 8.758,1.796 13.203,0.527 3.867,-1.102 7.699,-2.316 11.555,-3.441 3.605,-1.051 7.226,-2.055 10.832,-3.09 2.277,-0.649 4.523,-1.461 6.84,-1.946 4.714,-0.98 9.472,-1.757 14.203,-2.675 5.437,-1.059 10.89,-2.075 16.285,-3.321 2.613,-0.605 5.168,-1.582 7.66,-2.597 4.231,-1.715 8.496,-3.375 12.344,-5.891 3.691,-2.402 7.679,-4.477 10.988,-7.324 3.352,-2.883 6.363,-6.266 8.594,-10.207 1.461,-2.59 3.34,-5 4.422,-7.731 1.281,-3.23 1.91,-6.722 2.816,-10.101 0.531,-1.981 1.215,-3.934 1.547,-5.953 0.613,-3.676 1.187,-7.383 1.469,-11.11 0.414,-5.508 0.644,-11.035 0.789,-16.558 0.086,-3.25 -0.117,-6.5 -0.25,-9.746 -0.125,-3.09 -0.485,-6.172 -0.442,-9.258 0.051,-3.965 0.575,-7.918 0.567,-11.879 -0.004,-3.289 -0.395,-6.578 -0.77,-9.852 -0.281,-2.441 -0.746,-4.871 -1.234,-7.285 -0.727,-3.531 -1.692,-7.019 -2.274,-10.574 -0.503,-3.067 -0.945,-6.203 -0.824,-9.293 0.145,-3.531 -0.816,-6.727 -2.222,-9.774 -1.352,-2.917 -3.286,-5.558 -4.852,-8.382 -1.949,-3.508 -4.684,-6.321 -7.887,-8.625 -1.66,-1.2 -3.621,-1.914 -5.914,-1.36 -2.117,0.508 -4.363,0.45 -6.519,0.828 -3.965,0.696 -7.778,1.782 -11.5,3.504 -4.047,1.868 -7.688,4.274 -11.231,6.868 -1.996,1.453 -3.633,3.402 -5.574,4.953 -2.609,2.082 -5.422,3.929 -8.023,6.031 -1.317,1.058 -2.411,2.406 -3.532,3.691 -1.918,2.196 -3.746,4.477 -5.679,6.66 -2.02,2.286 -4.145,4.481 -6.192,6.747 -0.605,0.668 -1.101,0.992 -1.957,0.316 -0.512,-0.41 -1.207,-0.617 -1.847,-0.852 -3.004,-1.074 -4.633,-3.777 -6.844,-5.785 -2.453,-2.226 -4.949,-4.449 -7.082,-6.965 -1.602,-1.882 -2.867,-4.125 -3.906,-6.375 -1.688,-3.668 -3.141,-7.453 -4.543,-11.242 -0.465,-1.258 -0.469,-2.679 -0.696,-4.031 -0.199,-1.207 -0.297,-2.453 -0.656,-3.613 -0.965,-3.071 -0.563,-6.094 0.297,-9.055 0.172,-0.594 1.254,-1.16 1.992,-1.297 2.293,-0.426 4.637,-0.574 6.949,-0.933 3.391,-0.528 6.774,-1.165 10.164,-1.727 2.309,-0.387 4.641,-0.641 6.934,-1.102 3.008,-0.601 5.98,-1.351 8.969,-2.035 2.238,-0.508 4.55,-0.801 6.699,-1.562 4,-1.41 7.98,-2.879 11.871,-4.637 4.207,-1.902 7.887,-4.43 11.258,-7.484 1.539,-1.391 3.179,-2.786 2.183,-5.262 -0.773,-1.93 -1.605,-3.695 -3.707,-4.668 -2.461,-1.141 -4.949,-1.473 -7.609,-1.371 -1.477,0.058 -2.957,-0.438 -4.441,-0.477 -3.196,-0.078 -6.387,0.012 -9.582,-0.031 -2.411,-0.039 -4.813,-0.203 -7.219,-0.266 -0.582,-0.011 -1.176,0.188 -1.766,0.231 -0.781,0.058 -1.57,0.062 -2.359,0.09 -0.039,-0.211 -0.082,-0.418 -0.121,-0.629 m 35.383,-56.313 c -0.25,0.871 -0.395,1.582 -0.665,2.25 -0.535,1.356 -1.191,2.676 -1.714,4.035 -1.418,3.692 -3.493,7.008 -5.809,10.184 -1.258,1.723 -2.574,3.402 -3.75,5.176 -3.238,4.89 -6.23,9.953 -10.215,14.32 -3.887,4.266 -7.414,8.86 -12.008,12.461 -2.976,2.344 -5.703,5.02 -8.718,7.301 -1.27,0.957 -1.27,2.019 -0.895,3.062 0.274,0.774 1.113,1.504 1.883,1.891 0.824,0.41 1.859,0.496 2.812,0.547 3.653,0.199 7.301,0.351 10.957,0.473 7.289,0.253 14.579,0.476 21.872,0.722 0.406,0.012 0.871,0.059 1.203,0.254 0.621,0.371 1.418,0.77 1.664,1.352 0.156,0.371 -0.407,1.312 -0.895,1.64 -2.734,1.852 -5.465,3.754 -8.359,5.336 -2.539,1.391 -5.274,2.434 -7.961,3.543 -1.86,0.766 -3.754,1.485 -5.684,2.051 -1.82,0.543 -3.722,0.797 -5.554,1.297 -3.129,0.867 -6.207,1.918 -9.504,1.984 -1.258,0.028 -2.532,0.149 -3.774,0.371 -1.957,0.348 -3.883,0.942 -5.851,1.207 -4.535,0.614 -9.078,1.137 -13.629,1.578 -1.391,0.133 -2.813,-0.089 -4.219,-0.203 -0.719,-0.062 -1.422,-0.347 -2.141,-0.371 -2.683,-0.097 -5.371,-0.097 -8.05,-0.203 -0.899,-0.039 -1.793,-0.316 -2.692,-0.441 -2.25,-0.309 -4.496,-0.68 -6.758,-0.86 -3.687,-0.304 -7.386,-0.609 -11.086,-0.679 -3.371,-0.071 -6.773,0.39 -9.921,-1.297 -1.161,-0.617 -2.262,-0.348 -2.801,0.707 -0.582,1.129 -0.078,2.027 0.918,2.5 1.734,0.82 3.527,1.519 5.328,2.172 0.758,0.269 1.601,0.363 2.414,0.406 3.711,0.176 7.437,0.199 11.141,0.504 2.269,0.18 4.5,0.914 6.765,1.144 4.789,0.489 9.586,0.786 14.379,1.215 0.324,0.035 0.817,0.485 0.875,0.813 0.156,0.793 0.16,1.625 0.117,2.441 -0.05,1.043 -0.375,2.098 -0.281,3.121 0.188,1.953 0.484,3.906 0.914,5.824 1.391,6.266 2.5,12.61 5.219,18.512 1.859,4.028 4.25,7.676 7.414,10.789 2.086,2.051 4.328,3.953 6.297,6.11 2.121,2.328 4.41,4.472 7.293,5.64 3.117,1.27 6.402,2.129 9.652,3.02 2.024,0.551 4.137,0.769 6.188,1.234 1.429,0.324 2.832,0.813 4.242,1.219 0.012,0.129 0.027,0.262 0.039,0.387 -1.563,0.992 -3.024,2.211 -4.699,2.933 -3.883,1.676 -7.805,3.297 -11.832,4.582 -3.364,1.078 -6.879,1.711 -10.352,2.403 -3.699,0.734 -7.551,0.687 -11.027,2.531 -1.125,0.601 -1.18,1.234 -0.848,2.168 1.938,5.414 5.895,9.363 9.789,13.347 1.953,1.997 3.977,3.915 5.953,5.883 3.078,3.063 6.117,6.157 9.223,9.192 1.527,1.492 3.164,2.879 4.828,4.386 -1.758,1.297 -3.578,1.645 -5.43,1.954 -5.91,0.988 -11.84,1.644 -17.84,1.64 -4.335,0 -8.675,0.215 -13.007,0.406 -1.231,0.051 -3.407,2.825 -3.293,4.016 0.015,0.172 0.125,0.344 0.222,0.484 1.485,2.118 2.848,4.336 4.493,6.317 1.742,2.101 3.781,3.961 5.636,5.972 1.114,1.207 2.028,2.61 3.199,3.75 3.208,3.141 6.508,6.192 9.774,9.266 2.156,2.031 4.328,4.051 6.48,6.09 1.043,0.988 2.168,1.926 3.032,3.055 0.394,0.519 0.246,1.457 0.336,2.203 -0.598,0.066 -1.223,0.254 -1.809,0.172 -1.313,-0.192 -2.602,-0.52 -3.902,-0.782 -4.895,-0.98 -9.68,-2.23 -14.121,-4.64 -2.356,-1.278 -4.891,-2.219 -7.36,-3.293 -0.996,-0.438 -2.051,-0.758 -3.019,-1.254 -2.598,-1.328 -5.11,-2.836 -7.75,-4.07 -3.364,-1.567 -6.547,-3.36 -9.176,-6.012 -0.313,-0.309 -0.535,-0.813 -0.594,-1.246 -0.168,-1.336 -0.723,-1.891 -2.117,-1.996 -0.266,-0.024 -0.59,-0.067 -0.762,-0.227 -0.945,-0.91 -1.867,-1.844 -2.765,-2.797 -1.727,-1.847 -3.411,-3.734 -5.141,-5.57 -3.16,-3.356 -6.367,-6.664 -9.5,-10.031 -1.27,-1.371 -2.344,-2.911 -3.613,-4.266 -1.106,-1.168 -2.871,-0.98 -3.618,0.371 -0.738,1.344 -1.476,2.734 -1.906,4.192 -1.187,4.019 -2.301,8.07 -3.273,12.144 -0.899,3.766 -1.508,7.606 -2.387,11.379 -0.375,1.629 -1.043,3.199 -1.726,4.727 -0.2,0.441 -0.887,0.804 -1.407,0.886 -0.25,0.043 -0.687,-0.605 -0.91,-1.015 -0.238,-0.43 -0.406,-0.938 -0.453,-1.426 -0.453,-4.977 -0.859,-9.949 -1.305,-14.926 -0.3,-3.352 -0.554,-6.719 -0.988,-10.055 -0.277,-2.105 -0.602,-4.261 -1.348,-6.238 -1.339,-3.566 -3.027,-7.004 -5.507,-9.965 -1.012,-1.215 -2.02,-2.469 -3.235,-3.449 -0.683,-0.562 -1.879,-1.094 -2.668,-0.039 -0.719,0.973 -0.39,1.887 0.653,2.555 0.328,0.214 0.574,0.589 0.808,0.922 2.668,3.785 4.902,7.804 6.356,12.214 1.136,3.45 1.757,6.973 1.863,10.618 0.105,3.695 0.402,7.39 0.695,11.082 0.219,2.781 0.403,5.582 0.91,8.312 0.313,1.703 0.848,3.594 1.914,4.887 2.266,2.758 6.243,2.012 8.118,-1.348 2.394,-4.285 3.015,-9.098 3.574,-13.836 0.605,-5.179 2.09,-10.07 3.738,-14.965 0.25,-0.722 0.734,-1.109 1.293,-0.484 1.863,2.078 4.746,3.152 5.102,6.695 0.312,3.176 0.695,6.309 0.464,9.496 -0.078,1.047 -0.339,2.082 -0.425,3.121 -0.137,1.727 -0.168,3.461 -0.317,5.188 -0.168,2.039 -0.515,4.07 -0.601,6.109 -0.149,3.516 -0.18,7.028 -0.203,10.539 -0.004,0.844 -0.321,1.278 -1.09,1.473 -3.035,0.789 -6.039,1.734 -9.114,2.34 -3.468,0.695 -7,1.094 -10.5,1.617 -4.468,0.672 -8.925,1.379 -13.39,2.012 -1.891,0.265 -3.797,0.398 -5.699,0.562 -2.946,0.25 -5.891,0.571 -8.84,0.68 -1.914,0.07 -3.836,-0.254 -5.754,-0.262 -2.484,0 -4.965,0.121 -7.445,0.223 -3.301,0.133 -6.594,0.312 -9.891,0.43 -4.035,0.148 -8.078,0.324 -12.121,0.347 -3.207,0.024 -6.422,-0.039 -9.613,-0.304 -2.887,-0.243 -5.821,-0.539 -8.59,-1.313 -4.008,-1.109 -8.047,-1.808 -12.168,-1.691 -4.301,0.121 -8.356,-0.973 -12.446,-1.965 -2.168,-0.524 -4.296,-1.246 -6.484,-1.664 -2.402,-0.469 -4.863,-0.656 -7.285,-1.047 -0.441,-0.074 -1.164,-0.527 -1.168,-0.813 -0.031,-1.414 0.098,-2.824 0.25,-4.23 0.496,-4.777 1.019,-9.543 1.535,-14.313 0.344,-3.171 0.668,-6.347 1.055,-9.519 0.222,-1.844 0.832,-3.691 0.738,-5.504 -0.07,-1.395 0.254,-2.223 1.293,-2.988 0.766,-0.567 1.445,-1.25 2.188,-1.852 1.332,-1.066 1.621,-1.019 2.207,0.637 1.328,3.773 2.64,7.555 3.851,11.371 0.656,2.078 0.953,4.277 1.641,6.34 0.761,2.289 1.804,4.476 2.676,6.734 0.476,1.219 1.761,2.199 2.839,1.875 1.125,-0.336 1.371,-1.363 1.332,-2.406 -0.187,-4.996 1.489,-9.645 2.985,-14.262 1.488,-4.586 3.539,-8.984 5.351,-13.465 1.403,-3.457 2.883,-6.886 4.211,-10.367 1.172,-3.078 2.196,-6.219 3.285,-9.328 0.426,-1.219 0.008,-2.211 -1.078,-2.547 -0.882,-0.269 -1.808,0.524 -2.074,1.715 -0.176,0.793 -0.375,1.598 -0.691,2.348 -0.575,1.39 -1.262,2.73 -1.852,4.109 -0.871,2.059 -1.683,4.145 -2.555,6.195 -1.128,2.664 -2.347,5.286 -3.429,7.965 -0.832,2.059 -1.496,4.188 -2.274,6.27 -0.605,1.617 -1.351,3.187 -1.898,4.82 -0.797,2.418 -1.465,4.871 -2.223,7.305 -0.082,0.273 -0.367,0.484 -0.683,0.875 -0.293,-0.633 -0.567,-1.098 -0.723,-1.598 -0.578,-1.871 -1.051,-3.777 -1.688,-5.629 -1.257,-3.668 -2.613,-7.301 -3.898,-10.965 -0.883,-2.519 -1.086,-4.961 0.574,-7.351 0.934,-1.34 0.602,-2.305 -0.597,-3.328 -0.329,-0.282 -0.543,-0.782 -0.664,-1.215 -0.278,-0.988 -0.59,-1.805 -1.856,-1.82 -1.719,-0.028 -2.949,1.75 -2.5,3.574 0.258,1 0.637,2.117 0.414,3.054 -0.609,2.606 -2.457,4.579 -4.258,6.403 -1.476,1.508 -3.418,2.562 -5.172,3.785 -1.949,1.355 -3.964,2.601 -5.847,4.039 -1.477,1.125 -2.637,2.738 -4.211,3.66 -3.414,1.992 -6.922,3.867 -10.555,5.434 -4.719,2.047 -9.547,3.855 -14.402,5.543 -2.871,0.996 -5.903,1.519 -8.832,2.347 -2.004,0.567 -3.938,1.364 -5.942,1.914 -2.023,0.559 -4.086,0.977 -6.144,1.375 -1.262,0.243 -2.555,0.332 -4.11,0.524 0.329,-0.621 0.426,-0.996 0.665,-1.242 1.519,-1.571 3.226,-2.993 4.578,-4.703 3,-3.793 5.8,-7.75 8.722,-11.61 2.821,-3.722 5.618,-7.465 8.563,-11.086 1.93,-2.379 4.168,-4.5 6.133,-6.855 0.992,-1.188 2.32,-2.262 2.308,-4.078 -0.015,-1.539 -0.851,-2.266 -2.347,-1.914 -0.625,0.144 -1.231,0.476 -1.856,0.503 -3.926,0.176 -7.855,0.215 -11.777,0.438 -3.668,0.207 -7.102,-0.945 -10.598,-1.695 -2.391,-0.512 -4.734,-1.285 -7.062,-2.059 -2.141,-0.711 -4.25,-1.531 -6.332,-2.387 -0.629,-0.257 -1.149,-0.804 -1.715,-1.214 -0.012,-0.172 -0.024,-0.34 -0.039,-0.508 1.757,-0.825 3.511,-1.66 5.277,-2.477 2.984,-1.383 6.145,-2.484 8.93,-4.199 4.566,-2.809 8.539,-6.395 12.465,-10.078 2.843,-2.66 5.796,-5.137 8.05,-8.356 1.086,-1.554 0.723,-3.168 -1.011,-3.488 -0.477,-0.086 -0.989,0.039 -1.469,-0.043 -2.453,-0.445 -4.902,-0.941 -7.36,-1.391 -3.472,-0.621 -6.777,-1.671 -9.871,-3.414 -3.39,-1.906 -6.89,-3.629 -10.281,-5.531 -2.426,-1.363 -4.765,-2.875 -7.109,-4.375 -0.313,-0.203 -0.418,-0.726 -0.621,-1.101 0.355,-0.172 0.699,-0.426 1.066,-0.493 1.27,-0.226 2.563,-0.308 3.813,-0.578 4.98,-1.07 9.957,-2.168 14.918,-3.297 3.488,-0.796 7.074,-1.332 10.39,-2.57 4.598,-1.711 8.313,-4.961 11.117,-8.891 2.137,-3.007 4.18,-6.132 5.625,-9.652 2.344,-5.711 3.786,-11.523 3.707,-17.707 -0.035,-2.535 0.047,-5.078 0,-7.621 -0.035,-1.738 -0.281,-3.469 -0.3,-5.199 -0.02,-2.207 0.425,-2.571 2.644,-2.274 1.313,0.168 2.602,0.543 3.922,0.7 3.004,0.359 6.016,0.761 9.039,0.91 2.313,0.117 4.649,-0.067 6.965,-0.227 1.508,-0.098 3.008,-0.64 4.488,-0.574 3.949,0.18 7.879,0.141 11.805,-0.266 1.762,-0.179 2.504,-1.039 2.277,-2.726 -0.187,-1.375 -1.406,-1.965 -3.004,-1.742 -2.086,0.289 -4.191,0.484 -6.3,0.539 -2.454,0.058 -4.946,-0.36 -7.368,-0.075 -4.375,0.528 -8.726,1 -13.117,0.454 -4.164,-0.516 -8.305,-1.165 -12.457,-1.754 -0.949,-0.133 -1.902,-0.215 -2.84,-0.395 -3.3,-0.652 -6.593,-1.332 -9.886,-2.008 -2.571,-0.531 -5.141,-1.07 -7.711,-1.617 -4.219,-0.898 -8.442,-1.75 -12.641,-2.734 -3.09,-0.723 -6.137,-1.606 -9.195,-2.465 -2.766,-0.785 -5.551,-1.535 -8.266,-2.481 -3.707,-1.285 -7.121,-3.129 -9.922,-5.937 -1.027,-1.027 -0.933,-1.609 0.5,-2.031 1.707,-0.496 3.481,-0.911 5.246,-1.012 2.332,-0.145 4.688,0.129 7.028,0.082 3.718,-0.074 7.433,-0.273 11.144,-0.398 4.867,-0.165 9.727,-0.282 14.586,-0.481 2.012,-0.078 3.051,-2.102 1.801,-3.695 -1.637,-2.094 -3.285,-4.27 -5.317,-5.949 -3.226,-2.676 -6.214,-5.575 -8.781,-8.829 -2.898,-3.675 -5.426,-7.652 -8.09,-11.515 -2.718,-3.938 -5.406,-7.903 -8.113,-11.848 -1.523,-2.211 -3.031,-4.418 -4.605,-6.586 -1.543,-2.137 -3.188,-4.207 -4.727,-6.347 -0.367,-0.512 -0.496,-1.196 -0.734,-1.801 0.093,-0.121 0.183,-0.239 0.277,-0.356 0.91,0.196 1.898,0.227 2.719,0.61 1.953,0.902 3.894,1.855 5.719,2.988 2.578,1.598 5.421,2.074 8.328,2.527 3.41,0.524 6.769,0.485 10.105,-0.355 1.637,-0.414 2.219,-1.313 1.781,-2.93 -0.332,-1.223 -0.734,-2.484 -1.394,-3.555 -2.621,-4.203 -5.379,-8.324 -8.031,-12.511 -0.965,-1.532 -1.911,-3.106 -2.641,-4.758 -2.523,-5.699 -5.008,-11.41 -7.383,-17.176 -0.765,-1.867 -1.32,-3.879 -1.601,-5.875 -0.239,-1.66 1.132,-2.457 2.718,-1.855 2.399,0.914 4.801,1.8 7.18,2.754 1.902,0.769 3.844,1.484 5.641,2.457 4.707,2.531 9.121,5.574 14.359,7.101 3.016,0.883 5.856,2.363 8.758,3.613 2.027,0.872 3.312,0.09 3.258,-2.105 -0.016,-0.895 -0.16,-1.82 -0.457,-2.66 -0.953,-2.699 -1.903,-5.426 -3.067,-8.039 -0.804,-1.821 -2.086,-3.426 -2.945,-5.227 -0.859,-1.801 -1.527,-3.715 -2.156,-5.617 -0.332,-1 0.132,-1.617 1.293,-1.418 0.765,0.137 1.574,0.176 2.281,0.469 3.59,1.515 7.164,3.066 10.723,4.66 5.195,2.32 10.32,4.809 15.57,6.992 2.812,1.172 5.789,2.086 8.785,2.609 1.188,0.204 2.727,-0.796 3.906,-1.554 1.032,-0.66 0.125,-1.664 0,-2.574 -0.57,-4.032 -3.289,-6.868 -5.363,-10.067 -1.211,-1.871 -2.684,-3.582 -3.805,-5.504 -1.304,-2.246 -2.394,-4.617 -3.508,-6.972 -0.453,-0.95 -0.769,-1.969 -1.046,-2.985 -0.375,-1.398 0.461,-2.277 1.875,-1.945 0.707,0.164 1.437,0.434 2.019,0.855 2.356,1.719 4.606,3.594 6.992,5.266 3.27,2.273 6.535,4.566 9.973,6.563 4.309,2.503 8.77,4.753 13.199,7.042 1.293,0.672 2.563,0.172 3.18,-1.019 0.426,-0.82 -0.035,-2.453 -1.035,-2.973 -2.371,-1.234 -4.821,-2.32 -7.207,-3.535 -1.895,-0.961 -3.754,-2.008 -5.594,-3.066 -0.254,-0.145 -0.465,-0.602 -0.457,-0.91 0.008,-1.637 -0.024,-3.293 0.18,-4.914 0.359,-2.852 0.804,-5.708 1.375,-8.528 0.285,-1.418 0.699,-2.902 1.457,-4.109 1.906,-3.055 4.047,-5.961 6.082,-8.942 1.09,-1.597 1.886,-1.996 3.738,-1.351 3.68,1.281 7.055,3.078 9.652,6.117 0.496,0.586 1.325,1.305 1.977,1.281 2.879,-0.109 5.68,-0.629 7.68,-3.054 0.785,-0.957 1.644,-1.868 2.382,-2.852 2.516,-3.379 4.84,-6.906 7.536,-10.121 2.582,-3.066 3.023,-3.395 6.519,-1.133 2.785,1.801 4.594,4.492 6.461,7.07 2.445,3.387 5.387,5.856 9.645,6.372 1.167,0.144 2.468,0.25 3.539,-0.114 0.929,-0.316 1.683,-1.258 2.382,-2.047 1.532,-1.722 3.118,-3.425 4.43,-5.312 2.504,-3.59 5.094,-7.094 8.551,-9.832 1.676,-1.324 2.476,-1.266 3.848,0.355 2.578,3.035 5.097,6.117 7.625,9.196 2.578,3.144 5.937,4.675 9.964,4.668 0.895,-0.008 1.965,-0.34 2.637,-0.895 1.531,-1.273 3.055,-2.637 4.254,-4.215 2.375,-3.117 5.484,-4.461 9.281,-4.301 0.86,0.039 1.903,0.52 2.492,1.149 0.95,1.012 1.719,2.25 2.34,3.504 2.532,5.101 4.782,10.367 7.516,15.351 2.148,3.899 4.066,7.938 6.851,11.512 2.254,2.891 3.868,6.281 5.813,9.414 0.406,0.656 0.25,1.141 -0.203,1.531 -1.406,1.215 -2.813,2.446 -4.32,3.52 -1.024,0.734 -1.594,1.926 -1.024,2.805 1.031,1.597 3.18,1.957 4.512,0.503 2.277,-2.472 5.308,-3.695 8.129,-5.265 3.187,-1.777 6.386,-3.524 9.644,-5.164 2.656,-1.332 5.485,-2.344 8.082,-3.781 2.141,-1.188 4.403,-1.5 6.723,-1.766 1.484,-0.172 1.844,0.215 1.59,1.648 -0.172,0.946 -0.356,1.914 -0.746,2.774 -1.102,2.457 -2.293,4.867 -3.496,7.269 -1.082,2.157 -2.129,4.34 -3.36,6.414 -1.781,3.008 -3.75,5.911 -5.558,8.903 -0.653,1.07 -0.731,2.34 0.109,3.347 0.801,0.957 1.984,0.907 3.047,0.454 1.808,-0.782 3.566,-1.672 5.344,-2.52 3.793,-1.816 7.578,-3.664 11.382,-5.449 1.157,-0.539 2.477,-0.785 3.563,-1.422 3.844,-2.262 7.898,-3.359 12.379,-2.785 1.09,0.136 1.621,0.472 1.769,1.625 0.469,3.508 -0.871,6.551 -2.261,9.597 -0.911,1.985 -2.024,3.895 -2.782,5.934 -0.66,1.781 -0.921,3.711 -1.398,5.566 -0.348,1.317 -0.813,2.602 -1.145,3.926 -0.539,2.18 1.032,3.746 3.118,3.051 0.652,-0.223 1.14,-0.879 1.757,-1.242 3.516,-2.082 7.039,-4.149 10.559,-6.211 2.535,-1.477 5.18,-2.801 7.586,-4.465 2.969,-2.059 5.727,-4.426 8.625,-6.598 1.367,-1.027 2.906,-1.722 4.824,-1.664 0.07,0.66 0.352,1.356 0.172,1.891 -1.461,4.176 -2.984,8.328 -4.539,12.469 -0.953,2.558 -2.063,5.07 -2.984,7.64 -0.848,2.387 -1.418,4.879 -2.344,7.231 -0.613,1.551 -1.727,2.894 -2.477,4.402 -1.285,2.598 -2.566,5.211 -3.652,7.899 -0.902,2.226 -1.559,4.554 -2.242,6.863 -0.153,0.504 -0.133,1.203 0.109,1.656 0.699,1.313 1.93,1.664 3.414,1.133 0.645,-0.235 1.27,-0.582 1.934,-0.715 3.371,-0.687 6.418,-2.176 9.398,-3.789 2.461,-1.328 4.813,-2.856 7.317,-4.09 1.714,-0.851 3.414,-2.058 5.797,-1.551 m -33.532,139.418 c 0.199,-0.402 0.239,-0.535 0.321,-0.636 2.664,-3.25 5.242,-6.579 8.027,-9.719 2.293,-2.598 4.773,-5.043 7.297,-7.43 1.387,-1.312 3.109,-2.269 4.531,-3.547 5.156,-4.656 10.539,-9.027 16.746,-12.199 2.492,-1.277 5.258,-2.129 7.985,-2.812 2.609,-0.653 5.339,-0.825 8.011,-1.215 2.071,-0.297 4.117,-0.563 5.696,1.343 1.359,1.645 2.957,3.114 4.152,4.86 1.547,2.258 2.973,4.633 4.121,7.109 1.164,2.5 1.969,5.176 2.84,7.801 0.523,1.594 1.015,3.227 1.269,4.883 0.352,2.289 0.391,4.625 0.707,6.922 0.282,2.07 0.871,4.105 1.118,6.179 0.492,4.172 0.628,8.391 1.32,12.524 0.801,4.746 1.23,9.488 1.191,14.293 -0.039,4.562 -0.039,9.129 -0.062,13.691 -0.008,2.477 0.047,4.953 -0.039,7.422 -0.207,5.996 -0.481,11.984 -0.727,17.977 -0.203,4.839 -0.469,9.668 -1.793,14.371 -0.258,0.918 -0.484,1.847 -0.687,2.781 -0.559,2.582 -1.039,5.18 -1.66,7.742 -1.188,4.856 -3.93,8.953 -6.754,12.945 -3.696,5.231 -7.996,9.875 -13.848,12.852 -3.316,1.691 -6.465,3.738 -9.84,5.301 -5.25,2.426 -10.871,3.758 -16.551,4.765 -2.968,0.528 -5.957,0.903 -8.929,1.403 -1.969,0.324 -3.922,0.75 -5.879,1.117 -4.754,0.898 -9.567,1.57 -14.246,2.754 -4.793,1.203 -9.465,2.871 -14.172,4.394 -3.031,0.981 -5.996,2.207 -9.063,3.039 -2.277,0.618 -4.703,1.204 -7.019,1.059 -4.926,-0.305 -9.711,-1.57 -14.379,-3.215 -1.844,-0.652 -3.707,-1.242 -5.512,-1.992 -1.207,-0.5 -2.551,-1.02 -3.433,-1.918 -1.633,-1.672 -3.243,-3.477 -4.368,-5.492 -1.605,-2.887 -3.031,-5.938 -4.035,-9.074 -0.789,-2.477 -0.937,-5.184 -1.168,-7.805 -0.332,-3.684 -0.672,-7.391 -0.644,-11.086 0.043,-5.805 0.363,-11.609 0.617,-17.41 0.066,-1.402 0.406,-2.793 0.508,-4.195 0.175,-2.375 0.25,-4.754 0.398,-7.129 0.027,-0.453 0.215,-0.903 0.324,-1.348 0.164,-0.082 0.325,-0.16 0.493,-0.238 3.058,3.074 6.136,6.136 9.152,9.258 0.301,0.308 0.34,1.023 0.254,1.515 -0.363,2.098 -0.953,4.16 -1.207,6.266 -0.485,4.164 -0.875,8.34 -1.168,12.519 -0.223,3.094 0.082,6.184 0.656,9.227 0.617,3.262 2.492,5.926 4.633,8.285 1.98,2.184 4.418,2.766 6.933,0.816 1.075,-0.828 2.012,-1.871 2.879,-2.929 2.543,-3.121 3.774,-6.883 4.571,-10.711 0.629,-3.016 0.664,-6.153 0.961,-9.242 0.093,-0.973 0.191,-1.95 0.308,-3.133 0.86,0.336 1.504,0.539 2.113,0.828 1.274,0.609 2.504,1.316 3.801,1.887 3.098,1.359 6.219,2.66 9.336,3.992 2.274,0.976 4.469,2.238 6.832,2.859 4.285,1.129 8.66,1.926 13.024,2.75 2.855,0.539 4.379,-1.07 3.953,-3.937 -0.18,-1.27 -0.258,-2.551 -0.418,-3.821 -0.067,-0.539 -0.059,-1.199 -0.367,-1.574 -1.266,-1.547 -2.539,-3.113 -4,-4.465 -1.996,-1.855 -4.168,-3.523 -6.262,-5.289 -2.16,-1.824 -4.313,-3.672 -6.473,-5.504 -0.906,-0.769 -1.902,-1.449 -2.718,-2.308 -3.555,-3.742 -7.083,-7.496 -10.551,-11.321 -0.856,-0.937 -1.438,-2.128 -2.141,-3.207 0.082,-0.16 0.164,-0.32 0.254,-0.48 2.266,-0.133 4.527,-0.328 6.793,-0.375 2.434,-0.051 4.887,0.242 7.297,0.012 4.562,-0.434 9.129,-0.95 13.637,-1.762 3.722,-0.672 7.378,-1.766 11.031,-2.797 1.691,-0.48 2.664,-3.121 1.594,-4.215 -1.211,-1.234 -2.473,-2.539 -3.969,-3.347 -3.496,-1.883 -5.797,-5.09 -8.801,-7.5 -1.66,-1.336 -3.09,-2.946 -4.641,-4.418 -1.769,-1.68 -3.589,-3.321 -5.328,-5.036 -1.425,-1.41 -2.617,-3.105 -4.191,-4.32 -1.731,-1.328 -2.695,-3.086 -3.551,-4.93 -0.68,-1.464 -0.473,-1.699 1.125,-2 1.938,-0.367 3.899,-0.597 5.848,-0.937 8.586,-1.492 16.808,-4.07 24.461,-8.309 2.476,-1.367 4.769,-3.004 6.672,-5.14 1.027,-1.145 1.132,-2.028 0.367,-3.434 -0.192,-0.348 -0.293,-0.738 -0.36,-0.906 -5.101,-1.317 -10.113,-2.613 -15.203,-3.934 m -217.152,70.551 c 0.199,0.137 0.402,0.281 0.605,0.418 -0.097,0.832 -0.164,1.672 -0.308,2.492 -0.332,1.864 -0.883,3.707 -1.016,5.582 -0.312,4.231 -0.269,8.496 -0.668,12.715 -0.351,3.793 -0.992,7.57 -1.691,11.32 -0.613,3.262 -1.281,6.543 -2.301,9.688 -0.937,2.875 -2.328,5.609 -3.613,8.355 -2.012,4.309 -4.41,8.383 -7.274,12.188 -1.453,1.926 -3.297,3.359 -5.605,3.894 -2.68,0.625 -5.395,1.309 -8.211,0.989 -2.129,-0.242 -4.285,-0.293 -6.395,-0.645 -2.464,-0.414 -4.922,-0.937 -7.324,-1.64 -4.648,-1.348 -9.269,-2.805 -13.871,-4.317 -2.117,-0.699 -4.137,-1.683 -6.23,-2.445 -1.618,-0.59 -3.332,-0.903 -4.914,-1.559 -4.04,-1.683 -8.043,-3.437 -12.012,-5.25 -1.778,-0.812 -3.492,-1.777 -5.16,-2.789 -1.438,-0.867 -2.75,-1.93 -4.153,-2.859 -3.593,-2.406 -7.215,-4.774 -10.808,-7.176 -3.215,-2.152 -6.133,-4.645 -10.211,-5.445 -2.688,-0.528 -5.281,-2.039 -7.656,-3.532 -3.008,-1.882 -5.833,-4.101 -8.602,-6.339 -3.195,-2.594 -6.273,-5.336 -9.332,-8.075 -1.848,-1.656 -3.461,-3.593 -4.227,-5.964 -1.804,-5.61 -3.586,-11.235 -4.191,-17.137 -0.148,-1.406 -0.473,-2.867 -0.219,-4.211 0.555,-2.906 1.422,-5.762 2.184,-8.633 0.293,-1.101 0.789,-2.172 0.91,-3.293 0.336,-3.129 0.535,-6.266 0.754,-9.402 0.211,-2.946 0.297,-5.91 0.578,-8.848 0.293,-3.074 0.75,-6.129 1.137,-9.183 0.39,-3.118 0.336,-6.266 1.32,-9.333 0.898,-2.828 1.297,-5.82 1.949,-8.726 0.199,-0.887 0.555,-1.738 0.789,-2.617 1.461,-5.524 2.75,-11.098 4.418,-16.555 1.426,-4.664 2.27,-9.512 4.387,-13.965 1.129,-2.387 2.039,-4.941 3.508,-7.109 1.996,-2.938 4.422,-5.586 6.683,-8.344 0.895,-1.094 2.098,-1.621 3.504,-1.644 1.563,-0.028 3.125,-0.106 4.684,-0.012 5.711,0.344 10.652,2.785 14.988,6.25 4.285,3.418 8.227,7.273 12.27,10.992 1.883,1.738 3.468,3.855 5.531,5.328 3.359,2.406 6.84,4.543 9.203,8.11 0.91,1.359 2.453,2.296 3.731,3.406 1.05,0.918 1.863,1.957 2.214,3.39 -1.023,0.371 -1.906,0.801 -2.839,1.004 -5.036,1.133 -10.094,2.16 -15.118,3.352 -0.871,0.203 -2.058,0.863 -2.289,1.574 -0.386,1.184 -0.043,2.477 1.25,3.328 2.27,1.477 4.426,3.117 6.684,4.61 1.894,1.257 3.848,2.449 5.828,3.586 1.336,0.773 2.809,1.312 4.121,2.105 2.055,1.254 3.938,2.812 6.059,3.91 3.383,1.754 6.949,3.059 10.785,3.559 1.359,0.183 2.676,0.711 4.344,1.176 -0.735,0.859 -1.145,1.457 -1.661,1.941 -2.25,2.113 -4.582,4.137 -6.789,6.297 -2.972,2.918 -6.472,5.07 -10.097,7.039 -1.379,0.75 -2.895,1.246 -4.328,1.914 -1.887,0.879 -3.774,1.769 -5.629,2.723 -1.77,0.918 -3.52,1.875 -5.207,2.925 -0.442,0.27 -0.758,0.914 -0.91,1.45 -0.418,1.535 0.425,2.66 1.632,3.308 2.61,1.403 5.235,2.848 8.004,3.867 4.582,1.696 9.289,3.063 13.938,4.567 0.48,0.156 0.941,0.441 1.429,0.465 4.442,0.187 8.883,0.324 13.332,0.488 0.325,0.012 0.645,0.105 1.235,0.211 -1.684,2.207 -3.168,4.242 -4.738,6.211 -2.743,3.429 -5.547,6.816 -8.305,10.234 -0.402,0.492 -0.75,1.043 -1.039,1.606 -0.656,1.281 -1.125,2.687 -1.918,3.867 -0.809,1.179 -1.949,2.129 -2.887,3.226 -2.492,2.899 -5.816,5.016 -7.824,8.364 -0.067,0.109 -0.234,0.152 -0.32,0.257 -0.711,0.832 -1.563,1.602 -2.098,2.54 -1.164,2.042 0.277,3.48 1.789,3.664 1.906,0.238 3.902,0.574 5.754,0.25 4.961,-0.875 9.883,-2.032 14.785,-3.196 2.723,-0.644 5.367,-1.613 8.078,-2.277 1.508,-0.367 1.883,0.062 1.942,1.601 0.101,2.454 0.214,4.911 0.253,7.364 0.047,2.422 -0.042,4.847 0.012,7.269 0.074,3.016 0.817,5.731 3.235,7.86 1.867,1.656 4.023,2.453 6.402,2.84 0.332,0.054 0.707,-0.122 1.055,-0.219 3.086,-0.93 5.156,-3.035 6.765,-5.727 2.52,-4.215 4.485,-8.582 4.098,-13.652 -0.164,-2.235 -0.539,-4.473 -0.5,-6.699 0.043,-2.543 0.629,-5.082 0.648,-7.618 0.02,-2.339 0.926,-3.863 2.969,-4.882 0.684,-0.336 1.223,-0.957 1.852,-1.418 2.277,-1.653 4.574,-3.289 6.863,-4.934 m -16.574,25.926 c 0.019,4.848 -1.793,9.023 -5.09,12.543 -0.535,0.574 -1.629,0.976 -2.422,0.918 -3.348,-0.274 -4.777,-3.113 -4.816,-6.059 -0.039,-2.972 0.148,-5.949 0.093,-8.922 -0.043,-2.351 -0.293,-4.695 -0.465,-7.039 -0.046,-0.664 -0.074,-1.207 0.762,-1.515 3.528,-1.309 7.024,-2.7 10.543,-4.024 0.817,-0.301 1.184,-0.027 1.07,0.934 -0.207,1.758 -0.468,3.535 -0.406,5.289 0.102,2.613 0.473,5.223 0.731,7.875 M 490.285,537.75 c 0.844,0.547 1.403,0.852 1.895,1.238 0.914,0.723 1.707,1.625 2.695,2.211 1.617,0.942 3.375,1.645 5.008,2.555 0.383,0.215 0.734,0.863 0.722,1.301 -0.042,1.449 -0.214,2.898 -0.417,4.336 -0.493,3.511 -0.833,7.058 -1.622,10.504 -0.597,2.609 -1.8,5.07 -3.878,6.96 -0.942,0.864 -1.805,0.883 -2.747,-0.015 -2.8,-2.664 -3.656,-6.117 -3.625,-9.75 0.028,-4.426 0.321,-8.856 0.692,-13.266 0.164,-1.957 0.797,-3.879 1.277,-6.074" /><path
         id="path16"
         style="fill:#0f0e0d;fill-opacity:1;fill-rule:nonzero;stroke:none"
         d="m 440.082,339.16 c -0.562,-1.914 -1.008,-3.867 -1.703,-5.73 -1.539,-4.149 -3.223,-8.246 -5.738,-11.926 -2.282,-3.336 -4.489,-6.77 -7.098,-9.844 -2.582,-3.035 -6.133,-4.375 -10.207,-4.305 -3.496,0.067 -7.012,-0.214 -10.496,-0.015 -2.035,0.117 -4.031,0.898 -6.051,1.355 -2.351,0.543 -4.172,1.961 -5.918,3.508 -2.73,2.43 -4.726,5.395 -6.305,8.649 -1.187,2.433 -1.886,5.07 -2.941,7.574 -1.285,3.051 -1.625,6.515 -2.195,9.836 -0.321,1.875 -0.461,3.828 -0.36,5.722 0.219,3.789 2.309,6.547 5.618,8.176 3.355,1.649 6.816,3.137 10.359,4.324 1.988,0.661 4.23,0.649 6.363,0.782 2.383,0.144 4.793,0.328 7.153,0.093 5.515,-0.546 11.039,-1.168 16.492,-2.113 1.843,-0.316 3.812,-1.371 5.183,-2.66 2.278,-2.148 4.321,-4.617 6.075,-7.219 1.179,-1.734 1.925,-3.863 1.433,-6.152 0.109,-0.02 0.227,-0.039 0.336,-0.055 m -27.57,-27.012 c 0.004,0.094 0.004,0.188 0.011,0.282 1.051,-0.032 2.118,-0.137 3.168,-0.094 1.926,0.078 3.829,0.207 5.379,1.633 2.559,2.379 4.918,4.914 6.707,7.922 2.762,4.632 5.352,9.343 6.993,14.519 0.918,2.887 0.761,5.481 -1.368,7.778 -0.339,0.371 -0.64,0.781 -0.949,1.179 -2.242,2.949 -5.187,4.75 -8.855,5.352 -0.672,0.109 -1.352,0.148 -2.024,0.242 -1.812,0.266 -3.609,0.644 -5.429,0.789 -2.77,0.223 -5.559,0.211 -8.332,0.43 -3.997,0.308 -7.938,1.015 -11.782,-1.059 -2.343,-1.269 -4.992,-1.965 -7.453,-3.039 -1.918,-0.844 -3.027,-2.519 -3.019,-4.551 0,-4.554 0.636,-9.023 2.777,-13.152 0.293,-0.57 0.508,-1.176 0.773,-1.762 1.528,-3.414 2.481,-7.101 5,-10.015 1.219,-1.399 2.227,-3.254 3.77,-4.047 2.184,-1.129 4.742,-1.696 7.215,-2.078 2.426,-0.383 4.941,-0.239 7.418,-0.329" /><path
         id="path18"
         style="fill:#0f0e0d;fill-opacity:1;fill-rule:nonzero;stroke:none"
         d="m 401.375,403.074 c 1.191,0.086 2.387,0.125 3.574,0.266 2.153,0.254 4.164,-0.195 6.203,-0.856 2.27,-0.726 4.618,-1.187 6.942,-1.718 3.722,-0.848 7.109,-2.575 10.203,-4.649 3.254,-2.183 6.191,-4.867 9.117,-7.496 1.539,-1.387 0.68,-4.527 -1.297,-5.101 -0.539,-0.161 -1.437,0.097 -1.875,0.496 -2.351,2.144 -4.457,4.593 -6.957,6.547 -1.906,1.488 -4.262,2.41 -6.433,3.55 -3.008,1.575 -6.317,2.035 -9.61,2.582 -0.39,0.067 -0.75,0.325 -1.121,0.508 -3.156,1.555 -6.523,1.344 -9.805,0.82 -3.48,-0.55 -6.937,-1.378 -10.32,-2.386 -3.34,-1 -6.203,-2.891 -8.543,-5.567 -0.789,-0.91 -1.781,-1.718 -2.84,-2.3 -1.062,-0.582 -2.074,-0.204 -2.746,0.933 -0.562,0.934 -0.496,2.223 0.391,2.981 1.883,1.609 3.883,3.074 5.711,4.742 3.527,3.215 8.008,4.312 12.371,5.609 2.258,0.664 4.656,0.895 6.992,1.317 0.016,-0.094 0.027,-0.18 0.043,-0.278" /><path
         id="path20"
         style="fill:#0f0e0d;fill-opacity:1;fill-rule:nonzero;stroke:none"
         d="m 346.785,443.348 c 2.16,-0.258 4.449,-0.274 6.578,-0.871 2.035,-0.563 3.219,-2.547 3.465,-4.43 0.485,-3.656 1,-7.344 -1.863,-10.664 -2.488,-2.891 -7.137,-4.82 -10.641,-3.528 -0.738,0.278 -1.515,0.758 -1.996,1.364 -1.297,1.636 -2.594,3.32 -3.586,5.144 -0.512,0.95 -0.566,2.258 -0.508,3.383 0.075,1.445 0.317,2.922 0.762,4.297 1.402,4.293 3.242,5.5 7.789,5.305" /><path
         id="path22"
         style="fill:#0f0e0d;fill-opacity:1;fill-rule:nonzero;stroke:none"
         d="m 469.004,439.754 c -0.063,-1.789 0.109,-3.641 -0.258,-5.363 -0.383,-1.848 -0.609,-4 -2.812,-4.86 -2.496,-0.984 -4.95,-1.644 -7.797,-1.199 -3.293,0.523 -5.68,2.055 -6.824,4.969 -2.09,5.351 -0.973,10.871 5.632,12.875 3.785,1.144 6.977,-0.078 10.106,-2.199 1.676,-1.137 1.832,-2.536 1.953,-4.223" /><path
         id="path24"
         style="fill:#0f0e0d;fill-opacity:1;fill-rule:nonzero;stroke:none"
         d="m 419.219,274.402 c -1.352,-0.172 -2.696,-0.386 -4.051,-0.507 -4.691,-0.418 -9.359,-0.547 -14.031,0.335 -2.93,0.551 -5.778,1.286 -8.453,2.598 -0.364,0.184 -0.719,0.41 -1.012,0.692 -1.285,1.218 -2.457,2.574 -3.836,3.679 -1.371,1.098 -1.328,2.309 -0.445,3.582 0.785,1.137 2.324,1.184 3.539,0.219 1.297,-1.027 2.461,-2.301 3.894,-3.047 1.875,-0.965 3.918,-1.73 5.973,-2.195 2.5,-0.563 5.082,-0.867 7.641,-1.008 2.285,-0.129 4.589,0.047 6.878,0.215 2.778,0.207 5.614,0.285 8.313,0.902 2.601,0.598 5.109,1.696 7.57,2.781 1.645,0.727 2.914,0.79 3.535,-0.304 0.77,-1.34 0.129,-3.52 -1.379,-4.09 -3.417,-1.305 -6.867,-2.551 -10.351,-3.649 -1.176,-0.367 -2.512,-0.226 -3.777,-0.32 0,0.039 0,0.078 -0.008,0.117" /></g></g></svg>