<?xml version="1.0" encoding="UTF-8" standalone="no"?>
<svg
   xmlns:dc="http://purl.org/dc/elements/1.1/"
   xmlns:cc="http://creativecommons.org/ns#"
   xmlns:rdf="http://www.w3.org/1999/02/22-rdf-syntax-ns#"
   xmlns:svg="http://www.w3.org/2000/svg"
   xmlns="http://www.w3.org/2000/svg"
   viewBox="0 0 100 100"
   height="100"
   width="100"
   xml:space="preserve"
   version="1.1"
   id="svg2"><metadata
     id="metadata8"><rdf:RDF><cc:Work
         rdf:about=""><dc:format>image/svg+xml</dc:format><dc:type
           rdf:resource="http://purl.org/dc/dcmitype/StillImage" /></cc:Work></rdf:RDF></metadata><defs
     id="defs6" /><g
     transform="matrix(1.25,0,0,-1.25,0,100)"
     id="g10"><g
       transform="scale(0.1,0.1)"
       id="g12"><path
         id="path14"
         style="fill:#171717;fill-opacity:1;fill-rule:nonzero;stroke:none"
         d="m 420.609,150.066 c -7.711,0.993 -15.406,1.391 -23.175,0.875 -5.739,-0.378 -11.524,-0.253 -17.297,0.313 -4.949,0.488 -9.938,0.703 -14.914,0.836 -6,0.16 -11.649,1.68 -17.125,3.996 -3.864,1.633 -7.66,3.379 -11.102,5.855 -1.59,1.137 -3.351,2.075 -5.125,2.907 -2.578,1.207 -4.617,2.98 -6.18,5.32 -1.675,2.504 -3.41,4.984 -4.89,7.605 -0.957,1.692 -1.399,3.665 -2.266,5.415 -2.015,4.05 -2.769,8.441 -3.64,12.812 -0.758,3.77 -0.856,7.574 -0.563,11.363 0.578,7.5 2.379,14.727 5.199,21.719 1.629,4.016 3.645,7.828 5.602,11.691 2.242,4.438 4.476,8.868 7.094,13.106 3.023,4.91 4.214,10.41 4.898,16.051 0.156,1.297 0.145,2.64 0.477,3.898 1.418,5.438 0.5,10.738 -1.223,15.856 -2.797,8.312 -5.262,16.754 -8.957,24.754 -1.317,2.843 -2.426,5.8 -3.434,8.777 -1.234,3.652 -1.203,7.484 -1.133,11.297 0.106,5.851 2.083,11.203 5.559,15.703 4.688,6.058 10.828,9.906 18.961,9.187 5.773,-0.504 11.418,-1.543 16.715,-4.097 2.59,-1.246 5.269,-2.352 7.988,-3.293 1.449,-0.508 3.067,-0.707 4.61,-0.707 1.921,0 3.246,1.457 2.972,3.386 -0.308,2.153 0.242,4.149 0.434,6.219 0.312,3.383 0.242,6.805 0.254,10.215 0.015,8.266 0.062,16.523 -0.047,24.781 -0.071,4.977 -0.047,9.949 -0.528,14.934 -0.472,4.953 -0.242,9.965 -0.406,14.949 -0.242,7.203 -0.554,14.406 -0.859,21.609 -0.262,6.157 -0.586,12.313 -0.84,18.469 -0.164,3.93 -0.258,7.867 -0.359,11.805 -0.207,7.867 -0.399,15.734 -0.602,23.601 -0.215,8.266 -0.715,16.516 -0.363,24.786 0.234,5.5 0.578,11 0.808,16.5 0.118,2.75 0.024,5.515 0.164,8.261 0.184,3.399 0.442,6.797 0.801,10.18 0.219,2.086 -0.64,3.504 -2.191,4.727 -1.336,1.039 -2.645,2.128 -3.883,3.285 -1.25,1.172 -1.582,2.683 -1.215,4.34 0.172,0.765 0.375,1.523 0.61,2.273 3.839,12.395 7.554,24.824 10.8,37.391 1.797,6.972 3.883,13.882 5.801,20.832 0.418,1.515 0.57,3.105 1.024,4.605 0.679,2.25 1.367,4.52 2.332,6.656 1.804,4 7.039,6.329 11.699,3.911 2.742,-1.422 5.097,-3.196 6.566,-5.993 1.903,-3.601 1.391,-7.55 -1.383,-10.55 -0.976,-1.059 -1.957,-2.114 -2.914,-3.196 -2.308,-2.605 -2.707,-5.636 -1.703,-8.832 0.504,-1.605 1.266,-3.168 2.125,-4.625 3.012,-5.101 3.922,-10.433 2.449,-16.25 -1.039,-4.109 -2.648,-7.953 -4.738,-11.586 -1.601,-2.777 -2.437,-5.66 -2.898,-8.851 -0.938,-6.477 -0.184,-12.805 0.531,-19.192 0.379,-3.382 0.48,-6.804 0.582,-10.211 0.156,-5.375 0.223,-10.75 0.293,-16.125 0.027,-2.359 -0.109,-4.722 -0.035,-7.078 0.082,-2.754 0.328,-5.492 0.472,-8.238 0.493,-9.563 0.961,-19.121 1.457,-28.68 0.055,-1.047 0.172,-2.097 0.36,-3.125 2.234,-12.441 2.633,-25.027 3.019,-37.621 0.114,-3.668 0.403,-7.332 0.637,-10.988 0.289,-4.445 0.633,-8.891 0.899,-13.336 0.214,-3.535 0.324,-7.082 0.535,-10.609 0.191,-3.137 0.465,-6.274 0.691,-9.407 0.059,-0.781 0.098,-1.566 0.113,-2.347 0.118,-5.114 0.239,-10.231 0.336,-15.344 0.078,-3.93 0.055,-7.867 0.2,-11.797 0.234,-6.418 0.566,-12.828 0.871,-19.246 0.156,-3.406 0.332,-6.813 0.5,-10.215 0.191,-3.801 0.461,-7.601 0.558,-11.402 0.102,-3.922 3.613,-8.649 8.106,-10.188 1.414,-0.488 2.855,-0.277 4.254,0.207 5.574,1.953 9.871,5.426 12.441,10.782 1.125,2.355 2,4.847 2.773,7.339 1.368,4.391 3.071,8.637 5.043,12.778 1.954,4.097 5.489,5.394 9.696,5.429 1.547,0.012 2.699,-0.91 3.773,-1.91 5.277,-4.89 7.891,-10.929 8.141,-18.125 0.242,-6.902 -1.082,-13.558 -2.676,-20.199 -1.836,-7.648 -4,-15.195 -6.57,-22.648 -2.375,-6.875 -2.207,-13.953 -0.446,-20.946 1.543,-6.132 4.336,-11.793 7.09,-17.453 1.379,-2.828 2.781,-5.64 4.16,-8.469 3.039,-6.238 5.711,-12.66 9.493,-18.511 1.976,-6.102 6.191,-11.27 7.433,-17.684 0.098,-0.512 0.36,-1.019 0.356,-1.523 -0.028,-4.848 0.5,-9.703 -0.34,-14.528 -0.406,-2.328 -0.785,-4.652 -1.207,-6.976 -1.098,-6.028 -3.735,-11.457 -6.606,-16.766 -1.051,-1.941 -2.457,-3.75 -3.961,-5.367 -2.675,-2.887 -5.5,-5.633 -8.371,-8.32 -1.234,-1.157 -2.648,-2.196 -4.136,-2.977 -5.485,-2.871 -11.192,-5.195 -17.379,-6.031 -5.582,-0.766 -11.188,-1.422 -16.797,-1.985 -2.071,-0.21 -4.184,-0.039 -6.278,-0.039 m -41.918,102.153 c -1.156,0 -1.914,0.011 -2.675,0 -3.411,-0.059 -6.821,-0.082 -10.231,-0.18 -2.926,-0.082 -5.734,0.434 -8.492,1.383 -0.938,0.32 -1.598,0.91 -1.891,1.84 -0.398,1.246 -0.761,2.511 -1.074,3.781 -1.258,5.113 -1.726,10.336 -2.086,15.566 -0.265,3.809 0.145,7.59 0.344,11.391 0.332,6.465 1.453,12.809 3.332,18.934 2.199,7.121 4.789,14.16 7.68,21.035 3.007,7.152 8.144,12.754 14.504,17.199 2.086,1.449 2.246,1.859 1.402,4.879 -0.246,0.058 -0.5,0.191 -0.742,0.172 -4.028,-0.383 -7.762,0.414 -11.391,2.281 -5.391,2.77 -11.148,4.469 -17.16,5.418 -4.199,0.664 -8.078,0.117 -11.816,-1.84 -4.957,-2.594 -8.461,-6.398 -10.528,-11.687 -2.332,-5.985 -2.711,-12.071 -1.012,-18.11 1.313,-4.644 3.465,-9.051 5.254,-13.551 0.536,-1.339 1.184,-2.64 1.653,-4 1.871,-5.457 3.617,-10.953 5.554,-16.386 1.34,-3.75 1.7,-7.668 2.243,-11.555 0.109,-0.769 0.035,-1.574 -0.075,-2.348 -0.39,-2.73 -0.761,-5.457 -1.261,-8.168 -1.121,-6.074 -2.567,-12.023 -5.668,-17.488 -3.176,-5.578 -6.168,-11.269 -9.2,-16.93 -0.679,-1.269 -1.23,-2.609 -1.773,-3.945 -2.785,-6.824 -4.945,-13.785 -5.758,-21.176 -0.758,-6.898 -0.226,-13.644 1.828,-20.211 1.801,-5.753 4.215,-11.265 7.879,-16.168 1.375,-1.835 2.93,-3.324 4.918,-4.425 2.637,-1.465 5.278,-2.926 7.848,-4.504 5.535,-3.383 11.531,-5.621 17.754,-7.321 1.125,-0.304 2.316,-0.425 3.484,-0.507 6.02,-0.41 12.063,-0.614 18.063,-1.203 6.429,-0.625 12.84,-0.309 19.257,-0.114 5.641,0.184 11.258,0.348 16.887,-0.39 3.238,-0.418 6.551,-0.563 9.813,-0.426 4.453,0.18 8.898,0.664 13.328,1.18 6.445,0.75 12.512,2.855 18.387,5.515 3.765,1.711 6.507,4.785 9.585,7.442 6,5.168 9.422,11.925 11.954,19.125 2.402,6.812 3.437,13.933 3.437,21.25 0,5.418 -1.25,10.355 -3.703,15.089 -0.781,1.512 -1.441,3.09 -2.164,4.625 -0.555,1.188 -1.078,2.387 -1.688,3.539 -1.039,1.973 -2.207,3.875 -3.191,5.875 -2.375,4.817 -4.668,9.68 -7.027,14.512 -0.5,1.028 -1.145,1.996 -1.743,3.035 -2.367,-0.164 -4.578,0.844 -6.886,-0.418 0.105,-1.16 0.226,-2.308 0.316,-3.461 0.258,-3.261 0.844,-6.539 0.688,-9.781 -0.317,-6.715 0.316,-13.379 0.882,-20.027 0.493,-5.766 0.676,-11.52 0.61,-17.277 -0.047,-4.059 -0.356,-8.122 -0.692,-12.168 -0.246,-2.93 -1.355,-5.555 -3.171,-7.926 -1.567,-2.039 -3.602,-3.082 -6.075,-3.063 -1.539,0.02 -3.089,0.446 -4.613,0.782 -2.75,0.593 -4.309,2.492 -4.922,5.078 -1.531,6.453 -1.961,12.996 -0.551,19.496 0.426,1.953 0.668,3.863 0.676,5.816 0.008,1.699 -0.191,3.402 -0.179,5.102 0.074,11.16 -1.114,22.269 -1.403,33.418 -0.019,0.722 -0.324,1.449 -0.476,2.093 -9.84,0.821 -13.993,0.832 -17.098,0.039 -0.895,-2.332 -0.828,-4.835 -0.777,-7.304 0.152,-7.473 0.406,-14.942 0.562,-22.418 0.031,-1.293 -0.043,-2.633 -0.344,-3.887 -0.859,-3.59 -2.765,-4.734 -6.55,-4.57 -6.676,0.301 -13.352,0.566 -20.016,-0.5 -2.301,-0.367 -4.715,-0.145 -7.063,-0.031 -0.875,0.043 -1.796,0.402 -2.57,0.843 -1.125,0.633 -2.137,1.461 -3.125,2.157 -0.191,2.621 -0.191,5.128 -0.598,7.558 -0.718,4.293 -0.839,8.594 -0.699,12.938 0.153,4.836 0.035,9.675 0.035,15.078 m 82.172,6.297 c -0.871,2.101 -1.39,3.714 -2.179,5.191 -1.871,3.484 -3.215,7.172 -4.352,10.93 -0.68,2.25 -1.348,4.566 -1.519,6.886 -0.559,7.508 0.027,14.883 2.75,22.04 2.984,7.855 4.945,16.011 6.66,24.226 1.156,5.543 1.5,11.156 0.793,16.809 -0.59,4.648 -2.879,8.343 -6.082,11.605 -1.024,1.035 -2.168,1.277 -3.579,1.031 -1.921,-0.336 -3.472,-1.171 -4.507,-2.828 -0.621,-1 -1.196,-2.027 -1.711,-3.082 -1.977,-4.011 -3.231,-8.281 -4.508,-12.554 -2.242,-7.477 -6.375,-13.434 -13.723,-16.747 -0.121,-0.054 -0.222,-0.132 -0.34,-0.195 -4.55,-2.297 -8.851,-1.875 -12.89,1.207 -0.625,0.473 -1.18,1.035 -1.754,1.574 -0.484,0.461 -0.957,0.914 -1.5,0.536 -0.621,-2.016 -1.195,-3.875 -1.762,-5.743 -0.148,-0.496 -0.351,-0.992 -0.379,-1.492 -0.144,-2.742 -0.09,-5.465 0.547,-8.152 1.25,-0.481 2.348,-0.875 3.426,-1.317 1.039,-0.425 1.637,-1.277 2.019,-2.293 0.754,-2.015 0.129,-4.066 -1.843,-5.531 -1.024,-0.754 -2.196,-1.312 -3.157,-1.879 0.407,-11.863 0.813,-23.5 1.219,-35.316 0.977,-0.293 1.942,-0.652 2.938,-0.867 1.429,-0.313 2.293,-1.157 2.742,-2.512 0.363,-1.109 0.777,-2.203 1.144,-3.238 4.266,-0.688 15.075,-0.754 18.137,-0.117 0.406,1.21 0.738,2.48 1.258,3.671 2.398,5.516 8.109,6.743 12.508,2.692 0.851,-0.789 1.543,-1.77 2.234,-2.719 0.445,-0.602 0.758,-1.309 1.039,-1.816 l 6.371,0 z m -76.008,59.394 c -2.699,2.043 -3.445,5.188 -3.808,8.496 -0.063,0.524 -0.09,1.043 -0.121,1.571 -0.227,3.519 -0.446,7.043 -0.699,10.562 -0.016,0.195 -0.297,0.363 -0.629,0.738 -0.856,-0.582 -1.782,-1.058 -2.496,-1.746 -1.797,-1.718 -3.657,-3.41 -5.211,-5.34 -2.7,-3.359 -5.278,-6.804 -6.661,-11.027 -1.429,-4.348 -3.136,-8.598 -4.722,-12.894 -0.5,-1.348 -1.164,-2.661 -1.469,-4.051 -0.988,-4.469 -1.996,-8.946 -2.715,-13.465 -1.472,-9.254 -1.504,-18.524 0.422,-27.731 0.473,-2.269 0.817,-4.644 2.391,-6.886 1.644,-0.285 3.422,-0.719 5.218,-0.864 2.215,-0.168 4.458,-0.183 6.676,-0.085 2.461,0.113 4.977,-0.192 7.535,0.726 0.278,3.891 2.672,6.012 6.18,6.844 1.469,9.336 1.508,30.222 0.078,35.933 -1.094,0.539 -2.312,1.028 -3.414,1.704 -1.789,1.097 -2.441,5.531 -1.047,7.085 0.403,0.45 1.094,0.657 1.676,0.926 0.918,0.418 1.856,0.805 2.816,1.219 l 0,8.285 z m 9.989,241.094 c -0.094,-0.465 -0.274,-0.969 -0.281,-1.477 -0.11,-4.851 -0.258,-9.699 -0.258,-14.554 0.008,-6.821 0.09,-13.645 0.23,-20.465 0.102,-5.11 0.215,-10.231 0.555,-15.324 0.519,-7.719 1.332,-15.407 1.14,-23.164 -0.125,-5.11 0.051,-10.227 0.2,-15.336 0.152,-5.246 0.437,-10.493 0.668,-15.731 0.035,-0.785 0.082,-1.574 0.16,-2.355 0.914,-8.875 1.57,-17.766 1.363,-26.707 -0.105,-4.594 -0.105,-9.188 0.07,-13.778 0.407,-10.75 0.993,-21.492 1.411,-32.242 0.148,-3.801 -0.055,-7.605 0.058,-11.414 0.223,-7.211 0.52,-14.414 0.856,-21.625 0.152,-3.273 0.437,-6.539 0.714,-9.812 0.29,-3.399 0.618,-6.79 0.969,-10.18 0.11,-1.016 0.36,-2.016 0.574,-3.188 1.481,0.008 2.875,-0.222 3.735,1 0.805,1.145 1.703,2.305 1.738,3.879 0.047,2.227 0.352,4.453 0.336,6.68 -0.027,4.457 -0.16,8.914 -0.324,13.363 -0.278,7.602 -0.653,15.192 -0.906,22.789 -0.282,8.399 -0.477,16.789 -0.711,25.18 -0.094,3.41 -0.161,6.816 -0.305,10.227 -0.121,2.878 -0.371,5.753 -0.508,8.632 -0.144,3.141 -0.148,6.297 -0.344,9.434 -0.527,8.644 -1.254,17.277 -1.668,25.922 -0.406,8.383 -0.628,16.773 -1.468,25.14 -0.25,2.477 -0.172,5.008 -0.649,7.438 -0.867,4.394 -1.234,8.828 -1.469,13.285 -0.246,4.582 -0.535,9.164 -0.804,13.75 -0.348,5.891 -0.817,11.781 -0.992,17.684 -0.282,9.175 -0.379,18.355 -0.512,27.539 -0.024,1.605 -0.379,3.105 -0.938,4.586 -0.5,1.34 -1.449,1.297 -2.64,0.824 m -2.742,-238.152 c 0.468,1.898 0.132,3.828 -0.329,5.718 -0.949,3.848 -1.203,7.75 -1.32,11.7 -0.301,10.488 -0.781,20.972 -1.176,31.457 -0.214,5.761 -0.48,11.535 -0.566,17.3 -0.125,8.266 0.019,16.524 -0.191,24.782 -0.254,9.703 -0.731,19.398 -1.176,29.093 -0.36,7.731 -0.934,15.45 -1.207,23.18 -0.25,7.211 -0.282,14.426 -0.317,21.645 -0.054,11.796 -0.968,23.589 -0.121,35.378 0.645,8.942 -0.707,17.813 -0.836,26.727 -0.043,2.879 -0.449,5.746 -0.699,8.617 -0.047,0.614 -0.141,1.231 -0.211,1.805 -1.543,0.23 -2.594,-0.094 -2.816,-1.606 -0.266,-1.808 -0.551,-3.632 -0.645,-5.457 -0.355,-7.074 -0.793,-14.144 -0.902,-21.226 -0.086,-5.504 -0.672,-10.981 -0.36,-16.508 0.415,-7.328 0.442,-14.676 0.692,-22.008 0.25,-7.347 0.57,-14.687 0.848,-22.027 0.05,-1.309 0.066,-2.625 0.085,-3.934 0.059,-3.664 0.02,-7.332 0.18,-10.996 0.168,-3.926 0.598,-7.847 0.77,-11.781 0.277,-6.41 0.777,-12.793 0.457,-19.246 -0.266,-5.348 0.511,-10.735 0.742,-16.11 0.187,-4.183 0.312,-8.375 0.332,-12.566 0.019,-4.32 -0.184,-8.629 -0.18,-12.949 0.008,-4.457 0.074,-8.914 0.262,-13.375 0.23,-5.461 -1.242,-10.934 0.129,-16.391 0.058,-0.242 0.027,-0.527 -0.008,-0.781 -0.684,-4.848 -0.195,-9.691 0.008,-14.523 0.133,-3.282 0.359,-6.547 0.687,-9.809 0.157,-1.531 0.645,-3.031 0.926,-4.305 4.192,-2.375 4.192,-2.375 6.942,-1.804 m 4.828,242.652 c 0.054,0.988 0.172,1.762 0.129,2.523 -0.297,5.235 -0.254,10.434 0.515,15.661 0.34,2.281 0.91,4.277 2.129,6.195 2.266,3.551 3.727,7.457 4.945,11.488 1.61,5.328 0.993,10.309 -1.781,15.133 -1.027,1.797 -1.894,3.773 -2.383,5.781 -1.031,4.274 -0.515,8.336 2.61,11.75 0.972,1.063 2.027,2.059 2.922,3.184 1.41,1.785 1.785,3.922 0.859,5.933 -1.141,2.461 -3.266,4.121 -5.867,4.864 -2.664,0.765 -5.063,-0.243 -6.32,-2.715 -1.055,-2.082 -1.852,-4.332 -2.485,-6.59 -1.695,-6.051 -3.183,-12.156 -4.859,-18.215 -1.953,-7.066 -4.059,-14.086 -6.016,-21.148 -2.199,-7.942 -4.223,-15.926 -6.969,-23.707 -0.539,-1.524 -0.312,-2.832 1.004,-3.856 0.625,-0.484 1.246,-0.969 1.899,-1.414 1.777,-1.215 3.078,-2.801 3.867,-4.82 0.226,-0.578 0.598,-1.102 0.945,-1.715 4.895,0.547 9.664,1.082 14.856,1.668 m -9.477,-4.617 c -0.332,-4.032 -0.172,-7.785 0.285,-11.559 0.157,-1.293 0.242,-2.601 0.282,-3.91 0.082,-3.012 0.078,-6.031 0.179,-9.047 0.086,-2.484 0.418,-4.969 0.391,-7.457 -0.094,-8.516 -0.383,-17.043 -0.426,-25.559 -0.035,-6.683 0.188,-13.375 0.289,-20.062 0.067,-4.066 0.043,-8.129 0.188,-12.188 0.379,-10.617 1.336,-21.203 1.297,-31.843 -0.012,-2.883 0.085,-5.77 0.277,-8.641 0.953,-14.402 1.125,-28.82 1.117,-43.25 0,-4.976 0.148,-9.969 0.352,-14.937 0.375,-9.176 1.191,-18.34 1.152,-27.508 -0.031,-7.285 1.172,-14.328 2.43,-21.41 0.043,-0.223 0.297,-0.403 0.57,-0.754 1.289,-0.207 2.664,-0.164 3.945,0.32 0.77,1.426 0.465,2.734 0.336,4.02 -0.48,4.699 -1.215,9.371 -1.429,14.078 -0.543,11.922 -1.438,23.832 -1.122,35.777 0.071,2.484 -0.046,4.984 -0.199,7.465 -0.773,12.832 -1.41,25.66 -1.258,38.523 0.082,6.821 -0.058,13.629 -0.609,20.434 -0.809,9.934 -1.305,19.891 -1.719,29.848 -0.293,7.066 -0.125,14.156 -0.359,21.23 -0.145,4.316 -0.801,8.613 -0.984,12.922 -0.27,6.414 -0.317,12.84 -0.477,19.262 -0.137,5.238 -0.352,10.476 -0.438,15.714 -0.093,5.247 -0.062,10.493 -0.113,15.735 -0.012,1.004 -0.168,2.004 -0.273,3.254 -1.403,-0.172 -2.528,-0.317 -3.684,-0.457 m 67.402,-344.473 c 0,0.527 0.083,1.84 -0.011,3.149 -0.656,9.152 -1.602,18.281 -1.352,27.488 0.129,4.781 -1.289,9.324 -2.804,13.781 -1.227,3.613 -5.293,4.367 -7.821,1.516 -0.746,-0.844 -1.293,-2.004 -1.543,-3.11 -0.347,-1.515 -0.433,-3.117 -0.437,-4.683 -0.028,-8.391 0.043,-16.778 0.871,-25.133 0.156,-1.57 0.18,-3.145 0.215,-4.723 0.129,-5.367 0.211,-10.742 0.367,-16.109 0.047,-1.477 0.168,-2.848 -1.254,-3.887 -0.422,-0.312 -0.629,-1.168 -0.625,-1.769 0.012,-4.329 0.016,-8.649 1.133,-12.887 0.562,-2.133 1.711,-3.371 3.941,-3.813 2.391,-0.472 4.379,-0.23 6.02,1.758 1.742,2.11 2.617,4.535 2.8,7.207 0.461,6.801 1.153,13.594 0.5,21.215 m -70.234,2.656 c 2.887,-0.48 5.473,-0.465 8.09,-0.109 1.941,0.262 3.902,0.496 5.855,0.508 4.719,0.023 9.438,-0.117 14.157,-0.117 0.73,0 1.761,0.128 2.136,0.609 1.411,1.781 2.082,3.824 1.094,6.109 -1.488,0 -2.789,-0.023 -4.094,0.008 -1.171,0.031 -2.375,-0.019 -3.515,0.223 -8.352,1.762 -16.676,1.109 -25,-0.215 -0.207,-0.031 -0.379,-0.316 -0.578,-0.496 -0.75,-2.457 1.101,-4.145 1.855,-6.52 m 24.371,46.289 c 0.121,1.133 0.289,2.032 0.297,2.934 0.074,10.203 -0.211,20.395 -1.086,30.566 -0.051,0.598 -0.426,1.168 -0.633,1.727 -1.445,-0.016 -2.777,0.445 -3.961,-0.633 -0.406,-2.879 0.243,-5.73 0.223,-8.586 -0.027,-2.879 -0.211,-5.75 -0.227,-8.625 -0.019,-3 0.122,-6.008 0.114,-9.015 -0.004,-2.832 -0.102,-5.664 -0.16,-8.579 1.804,-0.683 3.425,-0.421 5.433,0.211 m -16.336,-0.738 c 1.071,1.465 0.938,2.813 0.957,4.106 0.075,4.968 0.098,9.941 0.125,14.91 0.028,4.32 0.059,8.633 0.024,12.949 -0.008,1.004 -0.27,2.008 -0.418,3.019 -1.723,0.399 -3.211,0.743 -4.864,0.243 -0.082,-0.582 -0.218,-1.086 -0.207,-1.586 0.114,-4.578 0.262,-9.153 0.387,-13.735 0.039,-1.437 0.106,-2.875 0.051,-4.308 -0.172,-4.438 -0.426,-8.883 -0.586,-13.324 -0.027,-0.723 0.234,-1.461 0.375,-2.274 l 4.156,0 z m 8.676,-33.894 c 0.184,0.843 0.336,1.214 0.332,1.589 -0.086,7.989 -0.16,15.981 -0.32,23.965 -0.031,1.528 -0.086,3.114 -0.836,4.727 -1.477,-0.039 -2.91,0.433 -4.004,-0.738 -0.16,-3.633 -0.324,-7.161 -0.469,-10.692 -0.226,-5.359 -0.461,-10.715 -0.629,-16.078 -0.023,-0.863 0.285,-1.73 0.449,-2.629 0.864,-0.058 1.508,-0.133 2.157,-0.144 1.031,-0.016 2.062,0 3.32,0 m 2.383,30.328 c 0.121,-10.395 0.238,-20.309 0.355,-30.36 1.774,-0.601 3.278,-1.312 5.141,-0.507 0.199,2.183 -0.063,4.242 -0.188,6.32 -0.14,2.34 -0.363,4.722 -0.121,7.039 0.575,5.508 0.145,10.98 -0.066,16.469 -0.016,0.351 -0.289,0.699 -0.438,1.039 l -4.683,0 z m -3.055,4.168 c 0.102,0.843 0.238,1.488 0.242,2.136 0.032,10.336 0.051,20.664 0.039,31.004 0,0.598 -0.281,1.2 -0.449,1.867 -1.086,-0.078 -1.996,-0.125 -2.894,-0.226 -0.371,-0.047 -0.727,-0.238 -1.305,-0.438 0.129,-3.886 0.383,-7.793 0.355,-11.699 -0.031,-3.781 -0.765,-7.566 -0.117,-11.347 0.66,-3.872 -1.031,-7.747 -0.09,-11.614 1.465,-0.441 2.711,-0.472 4.219,0.317 m -7.914,-34.371 c 0.082,5.109 0.125,9.675 0.242,14.246 0.055,2.086 0.266,4.168 0.383,6.25 0.133,2.215 0.27,4.433 0.348,6.644 0.027,0.758 -0.106,1.516 -0.184,2.492 -1.808,0.27 -3.402,0.59 -5.219,-0.199 -0.246,-5.008 -0.132,-9.953 -0.168,-14.89 -0.035,-4.926 -0.238,-9.856 0.243,-15.028 1.535,0.176 2.789,0.313 4.355,0.485 m 19.274,30.019 c -0.043,-1.488 -0.153,-3.047 -0.122,-4.601 0.114,-5.239 0.29,-10.477 -0.496,-15.692 -0.097,-0.633 0,-1.301 0.051,-1.945 0.129,-1.699 0.274,-3.391 0.426,-5.09 0.101,-1.148 0.23,-2.301 0.375,-3.676 0.969,0 1.738,-0.09 2.484,0.02 1.16,0.152 1.59,0.668 1.676,1.797 0.027,0.39 0.016,0.781 0.008,1.175 -0.16,7.864 -0.317,15.723 -0.5,23.582 -0.027,1.039 -0.106,2.098 -0.344,3.11 -0.359,1.547 -1.043,1.789 -3.558,1.32 m -30.114,-31.094 c 2.61,0.114 2.864,0.254 3.004,1.559 0.074,0.644 0.074,1.309 0.082,1.957 0.113,7.855 0.242,15.711 0.321,23.566 0.011,1.121 -0.223,2.243 -0.364,3.551 -1.976,-0.328 -2.781,-1.398 -2.89,-2.949 -0.145,-2.09 -0.11,-4.184 -0.161,-6.281 -0.128,-5.231 -0.296,-10.465 -0.363,-15.696 -0.023,-1.812 0.227,-3.617 0.371,-5.707 m 6.157,81.754 c 1.851,-0.593 3.343,-0.574 4.964,-0.097 0.848,2.394 -0.023,4.593 -0.304,7.097 -1.508,0.082 -2.879,0.157 -4.285,0.231 -0.985,-2.473 -0.985,-4.711 -0.375,-7.231 m 15.421,7.93 c -0.871,-4.523 -0.89,-5.145 -0.222,-7.91 1.363,-0.352 2.722,-0.328 4.359,0.465 -0.457,2.617 0.125,5.343 -1.125,8.089 -1.117,-0.234 -2.101,-0.445 -3.012,-0.644 m -7.66,-0.773 c 0.168,-2.622 0.301,-4.797 0.473,-6.969 0.016,-0.215 0.289,-0.403 0.484,-0.656 0.852,0 1.742,-0.032 2.629,0.015 0.207,0.016 0.406,0.289 0.735,0.535 0.273,2.293 0.648,4.676 0.027,7.367 -1.356,-0.093 -2.59,-0.175 -4.348,-0.292 m -7.316,-10.961 c -0.793,-3.403 -0.567,-3.813 1.937,-4.075 0.512,-0.054 1.032,-0.093 1.539,-0.054 0.696,0.054 1.211,0.425 1.348,1.144 0.164,0.895 0.313,1.801 -0.805,2.754 -1.074,0.059 -2.449,0.137 -4.019,0.231 m 15.148,-3.399 c 1.34,-0.254 2.649,0.027 4.09,0.695 -0.129,0.954 -0.238,1.774 -0.375,2.809 -1.496,-0.117 -2.742,-0.219 -3.863,-0.305 -0.637,-1.226 -0.731,-2.179 0.148,-3.199 m -7.351,-0.371 c 1.191,0 2.082,-0.105 2.941,0.023 0.918,0.137 1.164,0.907 1.156,1.743 -0.007,0.929 -0.5,1.468 -1.418,1.457 -0.851,-0.012 -1.703,-0.16 -2.679,-0.266 l 0,-2.957 z m -11.133,2.293 c -0.621,0.328 -1.051,0.75 -1.371,0.676 -0.375,-0.086 -0.821,-0.559 -0.922,-0.942 -0.156,-0.593 0.691,-1.285 1.191,-1.004 0.371,0.204 0.598,0.668 1.102,1.27 m 27.269,1.426 c -0.984,0.281 -1.656,-0.055 -1.64,-0.719 0.012,-0.414 0.234,-1.07 0.539,-1.203 0.687,-0.297 1.203,0.25 1.367,0.863 0.094,0.352 -0.195,0.805 -0.266,1.059" /><path
         id="path16"
         style="fill:#171717;fill-opacity:1;fill-rule:nonzero;stroke:none"
         d="m 363.652,595.469 c -0.097,2.976 1.875,4.937 4.844,4.863 1.496,-0.039 2.824,-0.539 3.988,-1.422 2.387,-1.785 2.239,-5.406 -0.277,-6.957 -0.66,-0.406 -1.41,-0.676 -2.133,-0.973 -3.754,-1.531 -6.191,1.247 -6.422,4.489" /><path
         id="path18"
         style="fill:#171717;fill-opacity:1;fill-rule:nonzero;stroke:none"
         d="m 364.109,576.773 c -2.906,0.02 -4.8,2.852 -3.886,5.801 1.195,3.844 6.168,5.172 9.148,2.449 1.059,-0.964 1.402,-2.089 0.969,-3.507 -1.004,-3.325 -2.856,-4.766 -6.231,-4.743" /><path
         id="path20"
         style="fill:#171717;fill-opacity:1;fill-rule:nonzero;stroke:none"
         d="m 383.285,639.5 c -0.258,0.016 -0.519,0.02 -0.777,0.039 -3.141,0.266 -4.567,2.449 -3.543,5.41 1.004,2.914 3.422,4.137 6.109,4.867 0.567,0.157 1.75,-0.339 1.981,-0.839 0.797,-1.739 1.562,-3.579 1.84,-5.454 0.257,-1.71 -1.809,-3.679 -3.665,-3.953 -0.636,-0.097 -1.296,-0.019 -1.945,-0.019 l 0,-0.051" /><path
         id="path22"
         style="fill:#171717;fill-opacity:1;fill-rule:nonzero;stroke:none"
         d="m 378.391,608.992 c 0.047,-2.351 -1.039,-4.097 -3.078,-4.98 -3.067,-1.321 -6.547,0.886 -6.696,4.261 -0.015,0.379 0.024,0.786 0.145,1.141 0.625,1.828 3.539,3.848 5.476,3.832 2.391,-0.019 4.106,-1.781 4.153,-4.254" /><path
         id="path24"
         style="fill:#171717;fill-opacity:1;fill-rule:nonzero;stroke:none"
         d="m 384.398,632.246 c -0.058,-2.191 -2.031,-4.57 -3.968,-4.894 -0.25,-0.039 -0.52,-0.032 -0.774,0.003 -2.312,0.317 -4.351,2.192 -4.902,4.469 -0.301,1.27 0.031,2.301 1.051,3.125 2.332,1.875 4.867,1.953 7.156,0.199 1,-0.757 1.527,-1.742 1.437,-2.902" /><path
         id="path26"
         style="fill:#171717;fill-opacity:1;fill-rule:nonzero;stroke:none"
         d="m 376.246,625.578 c 2.195,0.004 5.234,-2.594 5.305,-4.535 0.078,-2.113 -2.668,-4.977 -4.77,-4.977 -2.441,-0.007 -4.734,2.196 -4.621,4.418 0.129,2.504 2.199,5.09 4.086,5.094" /><path
         id="path28"
         style="fill:#171717;fill-opacity:1;fill-rule:nonzero;stroke:none"
         d="m 387.258,605.59 c 0.265,0 0.402,0.027 0.523,0 1.551,-0.449 2.508,-3.305 1.532,-4.559 -0.907,-1.148 -1.86,-1.617 -2.618,-1.289 -1.023,0.446 -1.742,1.68 -1.457,2.934 0.196,0.847 0.676,1.652 1.137,2.422 0.172,0.281 0.648,0.371 0.883,0.492" /><path
         id="path30"
         style="fill:#171717;fill-opacity:1;fill-rule:nonzero;stroke:none"
         d="m 393.16,629.383 c 1.278,0.031 2.477,-0.668 2.77,-1.574 0.332,-1.02 0.406,-2.059 -0.328,-2.981 -0.707,-0.875 -2.383,-0.824 -3.129,0.094 -0.723,0.879 -0.938,2.758 -0.317,3.691 0.262,0.391 0.785,0.61 1.004,0.77" /><path
         id="path32"
         style="fill:#171717;fill-opacity:1;fill-rule:nonzero;stroke:none"
         d="m 378.141,576.883 c -0.078,1.277 0.98,2.73 2.129,2.91 1.05,0.172 2.128,-0.918 2.214,-2.238 0.086,-1.278 -0.746,-2.45 -1.863,-2.617 -1.18,-0.18 -2.406,0.785 -2.48,1.945" /><path
         id="path34"
         style="fill:#171717;fill-opacity:1;fill-rule:nonzero;stroke:none"
         d="m 395.277,639.559 c 0.246,0.363 0.547,1.121 1.102,1.546 0.644,0.504 1.668,0.063 2.379,-0.785 0.937,-1.109 0.953,-2.308 0.043,-3.148 -0.731,-0.672 -1.793,-0.844 -2.539,-0.391 -0.926,0.559 -0.953,1.489 -0.985,2.778" /><path
         id="path36"
         style="fill:#171717;fill-opacity:1;fill-rule:nonzero;stroke:none"
         d="m 384.371,591.875 c 1.133,-0.082 2.172,-1.594 1.981,-2.883 -0.122,-0.804 -1.125,-1.496 -2.051,-1.402 -1.449,0.144 -2.672,1.328 -2.528,2.426 0.141,1.047 1.403,1.945 2.598,1.859" /><path
         id="path38"
         style="fill:#171717;fill-opacity:1;fill-rule:nonzero;stroke:none"
         d="m 391.277,617.621 c 1.825,-0.156 3.094,-2.375 2.219,-3.805 -0.277,-0.461 -0.992,-0.789 -1.558,-0.894 -0.817,-0.16 -1.516,0.273 -1.934,1.012 -0.57,1.004 -0.414,2.398 0.398,3.242 0.243,0.254 0.657,0.34 0.875,0.445" /><path
         id="path40"
         style="fill:#171717;fill-opacity:1;fill-rule:nonzero;stroke:none"
         d="m 447.563,198.828 c 0.253,-0.058 0.546,-0.051 0.753,-0.18 1.657,-1.011 1.735,-2.835 2.098,-4.425 0.25,-1.106 -0.555,-1.985 -1.473,-2.571 -0.421,-0.265 -0.972,-0.418 -1.472,-0.449 -1.746,-0.082 -3.356,1.926 -3.356,4.113 -0.004,1.938 1.61,3.575 3.45,3.512" /><path
         id="path42"
         style="fill:#171717;fill-opacity:1;fill-rule:nonzero;stroke:none"
         d="m 450.66,226.168 c 0.059,-2.449 -1.387,-3.625 -3.703,-3.02 -1.375,0.36 -2.262,2.301 -1.922,4.196 0.285,1.551 1.567,2.636 2.961,2.508 1.641,-0.157 2.613,-1.504 2.664,-3.684" /><path
         id="path44"
         style="fill:#171717;fill-opacity:1;fill-rule:nonzero;stroke:none"
         d="m 449.789,247.258 c -0.289,-0.621 -0.496,-1.387 -0.949,-1.965 -0.973,-1.227 -2.672,-1.121 -3.684,0.117 -0.867,1.067 -1.164,2.289 -0.91,3.641 0.234,1.246 1.152,2.179 2.274,2.336 1.089,0.16 2.281,-0.532 2.738,-1.735 0.273,-0.707 0.34,-1.496 0.531,-2.394" /></g></g></svg>