<?xml version="1.0" encoding="UTF-8" standalone="no"?>
<svg
   xmlns:dc="http://purl.org/dc/elements/1.1/"
   xmlns:cc="http://creativecommons.org/ns#"
   xmlns:rdf="http://www.w3.org/1999/02/22-rdf-syntax-ns#"
   xmlns:svg="http://www.w3.org/2000/svg"
   xmlns="http://www.w3.org/2000/svg"
   viewBox="0 0 100 100"
   height="100"
   width="100"
   xml:space="preserve"
   version="1.1"
   id="svg2"><metadata
     id="metadata8"><rdf:RDF><cc:Work
         rdf:about=""><dc:format>image/svg+xml</dc:format><dc:type
           rdf:resource="http://purl.org/dc/dcmitype/StillImage" /></cc:Work></rdf:RDF></metadata><defs
     id="defs6" /><g
     transform="matrix(1.25,0,0,-1.25,0,100)"
     id="g10"><g
       transform="scale(0.1,0.1)"
       id="g12"><path
         id="path14"
         style="fill:#231f20;fill-opacity:1;fill-rule:nonzero;stroke:none"
         d="m 611.445,392.289 c -2.562,-0.902 -5.246,-1.516 -7.703,-2.637 -2.137,-0.976 -2.195,-3.054 -0.191,-4.504 1.855,-1.343 3.894,-2.468 5.949,-3.496 2.227,-1.117 4.648,-1.867 6.867,-3.882 -5.137,-3.579 -9.25,-7.668 -12.672,-12.672 1.473,-5.414 7.532,-6.879 10.52,-11.524 -4.832,-2.75 -10.442,-0.406 -14.813,-3.414 0.864,-4.469 5.618,-4.863 7.762,-7.605 -0.281,-1.653 -1.5,-1.567 -2.449,-1.762 -3.391,-0.707 -6.172,-2.559 -8.945,-4.5 -2.594,-1.816 -2.165,-4.441 0.285,-6.18 1.011,-0.718 2.285,-1.062 3.355,-1.715 1.41,-0.859 2.738,-1.851 4.106,-2.785 -2.364,-3.343 -2.371,-3.332 -5.075,-4.226 -1.382,-0.457 -3.164,-0.578 -4.046,-1.524 -3.77,-4.058 -8.559,-4.152 -13.387,-3.652 -3.813,0.391 -7.5,0.824 -11.129,-0.856 -0.707,-0.328 -1.656,-0.343 -2.457,-0.234 -2.777,0.383 -5.434,0.027 -8.074,-0.875 -1.844,-0.633 -3.168,0.184 -4.336,1.676 -1.219,1.555 -1.485,4.547 -4.153,4.101 -1.683,-0.281 -3.152,-1.867 -4.722,-2.863 -0.356,-0.222 -0.723,-0.422 -1.196,-0.695 -2.789,-0.274 -5.332,0.805 -7.535,2.43 -6.238,4.609 -13.156,4.238 -19.922,2.273 -5.437,-1.578 -10.625,-2.363 -16.062,-0.586 -1.856,0.606 -3.664,0.449 -5.539,-0.168 -3.817,-1.254 -7.656,-1.703 -11.778,-1.41 -4.132,0.297 -8.417,-0.301 -12.519,-1.106 -2.949,-0.582 -5.371,-0.214 -7.746,1.43 -1.367,0.945 -2.766,1.836 -3.895,2.582 -2.715,-0.207 -4.004,-1.961 -5.593,-3.305 -1.418,-1.203 -3.036,-2.167 -4.629,-3.285 -1.535,0.793 -2.934,1.305 -4.075,2.157 -1.937,1.449 -3.855,1.484 -5.902,0.445 -0.75,-0.379 -1.484,-0.793 -2.176,-1.27 -1.566,-1.082 -3.074,-1.14 -4.644,0.024 -0.836,0.617 -1.746,1.148 -2.672,1.625 -1.602,0.82 -3.215,0.816 -4.832,-0.043 -2.043,-1.086 -4.113,-2.117 -6.363,-3.274 -2.895,0.704 -5.762,1.602 -9.079,0.977 -2.71,-0.512 -5.73,0.629 -9.187,1.117 0.215,0.074 -0.266,0.043 -0.559,-0.207 -5.304,-4.441 -4.375,-3.766 -9.55,0.317 -1.891,-0.856 -3.922,-1.875 -6.032,-2.7 -2.308,-0.902 -3.453,-0.457 -4.707,1.7 -0.726,1.25 -1.304,2.585 -2.097,4.179 -1.289,-0.277 -2.446,-0.527 -3.606,-0.773 -2.281,-0.489 -3.754,0.215 -4.383,2.297 -0.605,2.011 -0.937,4.105 -1.558,6.113 -0.903,2.914 -3.266,3.742 -5.914,2.066 -1.574,-0.996 -3.016,-2.207 -4.864,-3.582 -1.179,1.438 -2.257,2.645 -3.218,3.946 -0.961,1.3 -1.797,2.695 -2.535,3.812 -2.813,0.059 -3.801,-1.773 -4.79,-3.277 -2.671,-4.086 -6.46,-5.219 -10.957,-4.387 -7.468,1.383 -15.035,1.523 -22.578,2.059 -3.172,0.226 -6.289,0.757 -8.457,3.582 0.188,0.605 0.336,1.203 0.547,1.773 1.442,3.942 3.567,7.777 4.168,11.844 0.602,4.062 -0.414,8.351 -0.531,12.547 -0.117,4.078 -1.195,7.984 -2.738,11.601 -2.907,6.801 -3.016,13.875 -3.332,21.032 -0.332,7.566 -1.122,15.085 -4.852,21.949 -2.926,5.375 -7.145,8.609 -13.453,8.941 -5.18,0.274 -9.379,-1.777 -13.188,-4.98 -0.32,-0.27 -0.636,-0.571 -0.871,-0.91 -2.879,-4.149 -6.64,-7.403 -10.843,-10.758 -0.899,0.601 -1.934,1.222 -2.887,1.945 -3.434,2.606 -4.262,2.656 -7.789,0.32 -0.688,-0.457 -1.348,-0.957 -2.34,-1.668 -1.34,1 -2.637,1.969 -3.93,2.942 -3.672,2.758 -5.058,2.629 -7.89,-0.813 -1.192,-1.437 -2.313,-2.933 -3.559,-4.519 -2.664,1.136 -5.148,2.191 -7.383,3.144 -3.781,-0.922 -3.738,-5.332 -6.754,-6.508 -0.519,0.09 -1.027,0.028 -1.3,0.25 -5.098,4.184 -5.094,4.192 -11.219,4.024 -1.082,2.625 -2.262,5.301 -3.293,8.031 -1.344,3.543 -2.789,7.008 -4.863,10.219 -1.7,2.633 -2.719,5.578 -3.485,9.648 2.348,-1.48 3.809,-2.507 5.367,-3.355 1.684,-0.914 3.598,0.133 3.602,2.051 0.008,2.73 -0.199,5.465 -0.379,8.191 -0.164,2.481 -0.52,4.957 0.027,7.906 1.403,-0.336 2.703,-0.34 3.618,-0.937 1.57,-1.02 2.859,-2.461 4.332,-3.637 1.597,-1.273 3.492,-0.691 3.918,1.242 0.41,1.844 0.578,3.739 0.898,5.606 0.16,0.957 0.422,1.898 0.687,3.078 2.782,-0.707 4.082,-2.746 5.821,-4.18 1.547,-1.277 2.812,-3.59 5.254,-2.574 2.179,0.902 1.347,3.316 1.742,5.074 0.64,2.867 1.023,5.793 1.664,8.664 0.207,0.946 0.867,1.789 1.559,3.141 1.21,-1.047 2.25,-1.695 2.957,-2.606 1.675,-2.152 3.105,-4.496 4.8,-6.632 1.559,-1.965 3.434,-1.77 4.414,0.433 1.282,2.879 2.36,5.848 3.555,8.766 0.457,1.113 0.988,2.191 1.535,3.39 2.512,-1.074 4.117,-2.539 4.989,-4.875 0.585,-1.562 1.265,-3.16 2.269,-4.46 0.523,-0.688 1.898,-1.172 2.762,-1.02 0.816,0.145 1.902,1.137 2.101,1.941 0.649,2.645 0.938,5.375 1.379,8.071 0.434,2.64 0.43,5.406 2.313,8.508 0.961,-2.422 1.695,-4.243 2.41,-6.067 0.996,-2.547 1.851,-5.156 3.031,-7.613 0.379,-0.785 1.594,-1.61 2.426,-1.61 0.789,0.004 1.914,0.899 2.301,1.688 1.195,2.449 2.054,5.059 3.156,7.555 0.66,1.488 1.535,2.882 2.312,4.32 3.11,-0.172 4.059,-3.418 7.09,-3.801 2.895,1.219 3.602,4.61 5.356,7.074 1.676,2.356 2.941,5 4.515,7.039 1.758,0.215 1.649,-0.91 1.965,-1.57 0.364,-0.754 0.539,-1.598 0.883,-2.363 0.77,-1.715 1.438,-3.508 2.441,-5.078 1.231,-1.926 3.555,-1.684 4.457,0.426 1.821,4.246 3.536,8.542 5.247,12.835 0.691,1.739 0.98,3.684 3.117,5.082 0.918,-1.242 1.812,-2.523 2.785,-3.746 1.691,-2.132 3.289,-4.367 5.187,-6.3 1.629,-1.664 3.454,-1.059 4.446,1.082 1.32,2.851 2.679,5.687 4.093,8.492 0.364,0.715 0.997,1.289 1.625,2.074 3.875,-1.152 4.364,-6.523 9.208,-6.703 3.621,5.172 5.984,11.578 10.695,16.711 4.226,-3.629 3.711,-10.192 8.652,-12.758 1.961,-0.141 2.711,1.16 3.52,2.398 1.597,2.442 2.648,5.25 5.187,7.645 0.996,-1.523 1.856,-2.887 2.766,-4.219 1.062,-1.551 2.078,-3.144 3.285,-4.578 0.789,-0.937 2.781,-0.48 3.191,0.676 0.418,1.176 0.649,2.418 0.934,3.637 1.062,4.531 2.691,8.816 5.562,13.113 1.118,-1.234 2.196,-2.164 2.958,-3.309 2.453,-3.668 4.75,-7.441 7.203,-11.109 0.539,-0.809 1.472,-1.352 2.453,-2.215 4.34,3.824 7.168,9.039 12.812,11.668 0.746,-1.527 1.352,-2.781 1.965,-4.027 0.465,-0.938 0.856,-1.918 1.422,-2.785 0.891,-1.379 2.699,-1.497 3.73,-0.157 1.407,1.832 2.649,3.793 3.938,5.715 0.906,1.356 1.773,2.738 2.957,4.574 1,-1.644 1.676,-2.894 2.48,-4.054 1.907,-2.758 3.75,-5.571 5.864,-8.168 1.187,-1.461 3.351,-0.949 4.14,0.812 2.578,5.754 5.078,11.543 7.641,17.305 0.754,1.687 1.625,3.32 2.391,4.875 2.453,-0.399 2.961,-2.207 3.507,-3.664 1.411,-3.731 2.559,-7.563 3.778,-11.363 0.707,-2.204 1.23,-4.469 2.051,-6.629 1.109,-2.914 2.886,-3.493 5.359,-1.75 1.711,1.203 3.238,2.675 4.887,3.976 0.636,0.504 1.379,0.871 2.199,1.379 3.008,-3.094 2.613,-8.254 6.992,-10.484 4.117,2.304 5.719,8.054 11.586,8.461 0.48,-0.914 1.32,-1.91 1.535,-3.028 0.524,-2.679 0.61,-5.445 1.16,-8.117 0.274,-1.305 1.2,-2.472 1.969,-3.984 5.922,2.508 9.742,8.054 15.941,8.781 1.707,-1.086 0.633,-2.352 0.532,-3.484 -0.309,-3.36 1.23,-4.739 4.465,-3.707 1.785,0.57 3.453,1.523 5.164,2.32 1.125,0.519 2.234,1.07 3.683,1.769 0.164,-1.136 0.399,-1.921 0.36,-2.691 -0.071,-1.465 -0.379,-2.922 -0.446,-4.387 -0.25,-5.675 1.274,-6.605 6.754,-4.464 3.711,1.449 7.516,2.679 11.305,3.925 0.949,0.313 2.004,0.309 3.367,0.496 -0.363,-5.14 -4.898,-8.05 -5.637,-12.316 1.075,-1.836 2.575,-2.059 4.035,-1.754 3.075,0.649 6.106,1.504 9.149,2.289 1.359,0.356 2.707,0.758 4.219,1.18 0.933,-2.856 -1.207,-4.754 -0.977,-7.387 1.625,-2.547 4.387,-2.238 7.106,-1.851 2.687,0.382 5.351,0.91 8.91,1.527 -0.899,-1.551 -1.301,-2.41 -1.86,-3.164 -1.211,-1.637 -3.293,-2.672 -3.558,-5.184 1.328,-2.246 3.789,-2.523 5.961,-2.789 3.058,-0.375 5.312,-1.594 7.547,-3.765 1.699,-1.653 4.382,-2.317 6.668,-3.329 2.449,-1.082 5.304,-1.218 7.742,-3.242 -1.449,-2.136 -3.676,-2.898 -5.485,-4.16 -0.859,-0.601 -1.824,-1.055 -2.672,-1.672 -1.015,-0.738 -0.734,-2.734 0.489,-3.121 1.386,-0.441 2.84,-0.715 4.281,-0.976 3.719,-0.684 7.453,-1.282 11.168,-2 1.215,-0.235 2.379,-0.743 3.949,-1.247 -0.375,-1.332 -0.594,-2.492 -1.031,-3.57 -1.34,-3.308 -2.856,-6.555 -4.117,-9.894 -0.586,-1.547 -0.867,-3.246 -1.043,-4.899 -0.184,-1.719 0.601,-2.64 2.394,-3.156 1.371,-0.399 2.774,-0.695 4.332,-1.082 -0.214,-2.156 -0.394,-4.004 -0.586,-5.922 1.954,-3.613 6.247,-4.004 9.024,-6.25 -0.258,-2.066 -1.852,-1.594 -2.895,-1.961 z m -56.023,-90.32 c -1.367,-4.852 -2.965,-9.641 -4.352,-14.489 -0.91,-3.175 -3,-5.011 -6.109,-5.667 -3.481,-0.727 -6.996,-1.27 -10.66,-1.922 -0.992,0.933 -1.879,2.32 -3.113,2.785 -1.254,0.469 -2.868,-0.098 -4.297,0.039 -1.391,0.129 -2.75,0.574 -3.914,0.836 -0.551,1.742 0.39,2.429 1.253,2.883 1.665,0.879 3.442,1.543 5.192,2.3 5.137,7.465 5.445,16.118 5.719,25.309 5.351,-1.707 9.863,-4.379 14.32,-0.25 2.269,-1.816 4.359,-3.492 6.82,-5.457 0.512,-1.957 -0.246,-4.191 -0.859,-6.367 z m -37.508,-11.348 c -2.328,0.871 -4.539,2.055 -7.43,3.402 2.969,3.219 6.145,4.293 9.196,5.532 1.711,3.761 2.183,7.679 2.633,11.613 0.777,6.848 2.214,8.434 9.414,5.516 -0.309,-3.844 -0.707,-7.723 -0.907,-11.614 -0.152,-2.98 -1.226,-5.668 -2.074,-8.465 -1.133,-3.73 -4.105,-5.074 -7.223,-6.218 -1.046,-0.387 -2.511,-0.176 -3.609,0.234 z m -141.601,2.547 c -1.719,-0.348 -3.438,-0.688 -5.61,-1.121 -1.09,-2.418 -2.164,-5.129 -3.523,-7.688 -0.93,-1.754 -1.371,-4.086 -3.996,-4.398 -2.379,-0.285 -2.969,2.066 -4.539,2.957 -0.18,0.102 -0.391,0.152 -0.989,0.379 -1.398,-0.649 -3.008,-1.621 -4.754,-2.149 -2.664,-0.8 -5.41,-1.363 -7.019,1.977 -0.742,1.535 -2.215,1.809 -3.746,1.75 -1.449,-0.059 -2.895,-0.199 -4.961,-0.352 0.426,1.43 0.449,2.508 0.996,3.114 1.238,1.386 2.68,2.609 4.141,3.777 2.117,1.691 4.285,3.324 6.5,4.887 3.843,2.703 4.531,6.5 3.273,10.59 -1.352,4.39 -3.195,8.629 -4.875,12.914 -0.457,1.156 -1.098,2.234 -1.914,3.867 1.691,1.867 3.058,3.379 4.402,4.863 2.442,-0.914 3.106,-3.07 4.403,-4.644 1.73,-2.106 3.195,-2.395 5.41,-0.875 1.527,1.047 2.922,2.277 4.394,3.441 1.735,-2.894 11.461,-28.934 12.407,-33.289 z m -42.071,-3.801 c -0.793,-1.113 -2.015,-1.586 -3.328,-1.351 -3.484,0.629 -6.949,1.367 -10.437,2.066 -0.801,2.578 0.164,3.699 1.476,4.449 2.731,1.563 5.543,2.977 8.328,4.442 4.567,2.406 5.75,4.582 4.746,9.652 -0.73,3.695 -1.828,7.316 -2.726,10.977 -0.238,0.961 -0.363,1.949 -0.606,3.304 2.032,-0.074 3.637,-0.101 5.239,-0.203 1.453,-0.09 2.902,-0.258 4.636,-0.418 3.739,-5.18 5.7,-11.07 6.754,-17.32 0.332,-1.969 -0.125,-3.758 -1.679,-5.149 -1.25,-1.117 -2.348,-2.523 -3.786,-3.289 -3.39,-1.808 -6.371,-4.007 -8.617,-7.16 z m -32.101,47.543 c -1.489,-3.101 -3.903,-4.89 -7.422,-4.965 -3.356,-0.066 -6.758,-0.441 -10.071,-0.05 -13.472,1.589 -26.386,-0.52 -38.878,-5.516 -4.665,-1.863 -9.145,-4.18 -13.774,-6.141 -2.699,-1.144 -5.476,-2.144 -8.297,-2.941 -3.394,-0.965 -6.672,-0.777 -9.844,2.617 2.739,1.75 5.055,3.121 7.258,4.656 4.914,3.426 8.785,7.774 11.258,13.278 0.762,1.687 0.242,2.824 -1.973,3.414 -0.648,-0.828 -1.531,-1.696 -2.105,-2.735 -3.371,-6.097 -8.227,-10.586 -14.563,-13.418 -5.933,-2.656 -11.929,-5.171 -17.91,-7.714 -0.726,-0.309 -1.543,-0.403 -2.226,-0.575 -1.328,1.578 -0.297,2.957 -0.114,4.34 0.684,5.059 -0.316,9.235 -5.722,11.188 -0.332,0.121 -0.543,0.586 -1.121,1.242 0.531,0.894 1.008,2.023 1.765,2.918 3.387,4 6.887,7.906 10.282,11.902 1.847,2.172 2.566,4.871 2.589,7.617 0.036,3.563 -0.261,7.129 -0.531,10.684 -0.426,5.656 -0.969,11.305 -1.426,16.961 -0.394,4.867 1.411,9.094 4.137,12.93 2.535,3.578 4.926,3.781 8.399,1.039 0.496,-0.391 0.941,-0.844 1.449,-1.219 3.32,-2.434 5.594,-2.238 8.176,0.797 0.937,1.105 1.718,2.347 2.382,3.261 2.27,0.821 3.493,-0.675 4.996,-1.273 3.266,-1.293 4.954,-0.75 6.954,2.156 0.925,1.356 1.847,2.711 2.937,4.305 1.301,-0.902 2.336,-1.551 3.289,-2.301 4.035,-3.172 4.203,-3.191 8.875,-0.551 0.539,0.305 1.082,0.594 1.863,1.02 1.125,-0.852 2.29,-1.684 3.407,-2.578 3.504,-2.817 5.535,-2.617 8.449,0.953 2.519,3.086 5.012,6.203 7.465,9.348 1.594,2.035 3.625,3.394 5.914,4.574 6.14,3.152 14.062,0.621 16.949,-7.02 2.469,-6.547 3.27,-13.449 3.469,-20.402 0.16,-5.469 0.301,-10.918 1.988,-16.188 0.449,-1.398 0.77,-2.882 1.484,-4.132 2.254,-3.95 3.11,-8.196 3.227,-12.676 0.078,-2.934 0.414,-5.863 0.414,-8.797 -0.004,-1.426 -0.34,-2.91 -0.824,-4.258 -0.711,-1.969 -1.664,-3.855 -2.574,-5.75 z m 322.476,55.86 c -1.121,0.925 -2.324,1.769 -3.558,2.539 -3.036,1.894 -6.145,3.668 -9.153,5.601 -1.648,1.067 -1.636,3.11 -0.074,4.207 0.676,0.473 1.481,0.762 2.227,1.125 0.75,0.367 1.679,0.563 2.199,1.133 0.48,0.527 0.73,1.469 0.68,2.199 -0.036,0.457 -0.77,1.16 -1.262,1.231 -1.235,0.172 -2.508,0.039 -3.766,0.043 -2.715,0.007 -5.441,-0.075 -7.957,0.957 -0.219,5.312 1.613,9.031 8.801,17.914 -0.738,0.609 -1.391,1.523 -2.234,1.769 -2.622,0.758 -5.364,1.11 -7.969,1.903 -2.965,0.898 -6.192,1.117 -8.817,2.879 0.094,0.414 0.079,0.671 0.18,0.738 1.75,1.148 3.508,2.285 5.281,3.398 0.95,0.598 1.598,1.317 1.2,3.004 -4.446,3.004 -10.372,3.563 -15.481,6.828 1.527,0.551 2.785,0.801 3.797,1.438 0.738,0.465 1.156,1.441 1.777,2.269 -3.32,1.516 -3.32,1.524 -5.718,1.16 -4.633,-0.703 -9.094,-0.019 -13.786,1.508 1.09,2.934 3.75,3.602 5.618,5.117 2.015,1.641 5.214,1.528 7.265,5.063 -8.07,1.562 -15.469,-0.457 -23.047,-0.074 0.075,1.019 0.059,1.832 0.207,2.613 0.278,1.438 0.832,2.844 0.95,4.289 0.238,2.93 -1.805,4.317 -4.411,3.098 -1.714,-0.801 -3.316,-1.899 -5.093,-2.473 -2.289,-0.738 -4.547,-2.043 -7.352,-1.414 0.09,2.512 1.828,3.949 2.824,5.699 1.352,2.371 2.993,4.574 4.325,6.953 0.308,0.547 0.054,1.61 -0.29,2.25 -0.222,0.426 -1.054,0.676 -1.636,0.715 -0.59,0.043 -1.215,-0.246 -1.813,-0.426 -6.238,-1.863 -12.468,-3.75 -18.718,-5.57 -0.512,-0.148 -1.157,0.152 -2.075,0.301 0.114,1.336 0.215,2.531 0.317,3.723 0.16,1.878 0.472,3.757 0.441,5.632 -0.035,1.95 -1.582,3.032 -3.492,2.559 -1.207,-0.305 -2.356,-0.863 -3.524,-1.324 -1.695,-0.676 -3.382,-1.367 -5.5,-2.223 -0.144,2.012 -0.21,3.445 -0.359,4.871 -0.25,2.406 -1.707,3.492 -3.855,2.574 -4.254,-1.812 -8.399,-3.875 -12.625,-5.742 -1.043,-0.461 -1.977,-1.652 -3.594,-0.75 -0.637,2.688 -1.215,5.563 -2.016,8.375 -0.816,2.875 -2.343,3.805 -5.222,2.965 -2.192,-0.637 -4.289,-1.676 -6.348,-2.695 -1.652,-0.821 -3.188,-1.875 -5.09,-3.02 -0.535,1.297 -1.023,2.192 -1.289,3.149 -2.277,8.195 -4.125,6.179 -9.547,2.808 -1.707,-1.058 -2.855,-3.035 -5.387,-3.406 -0.539,1.254 -1.132,2.34 -1.48,3.496 -1.148,3.824 -1.969,7.766 -3.379,11.484 -1.18,3.11 -2.848,6.071 -4.601,8.911 -1.153,1.871 -3.469,1.539 -4.618,-0.387 -0.215,-0.359 -0.34,-0.77 -0.535,-1.145 -3.121,-5.957 -6.226,-11.921 -9.398,-17.855 -0.461,-0.856 -1.242,-1.543 -1.992,-2.449 -2.36,1.836 -3.086,4.293 -4.122,6.558 -0.695,1.524 -1.328,3.086 -2.148,4.539 -0.652,1.157 -2.363,1.481 -3.281,0.555 -1.469,-1.477 -2.75,-3.137 -4.074,-4.746 -1.141,-1.391 -1.606,-3.363 -3.766,-4.402 -0.676,1.226 -1.207,2.32 -1.856,3.336 -0.902,1.406 -2.207,1.953 -3.796,1.285 -1.348,-0.563 -2.766,-1.098 -3.918,-1.957 -2.184,-1.633 -4.172,-3.524 -6.305,-5.231 -0.922,-0.738 -1.992,-1.285 -3.316,-2.121 -1.633,2.617 -3.055,4.922 -4.504,7.215 -1.571,2.484 -3.051,5.035 -4.778,7.402 -1.351,1.856 -3.351,1.735 -4.644,-0.273 -1.36,-2.113 -2.41,-4.422 -3.641,-6.621 -1.203,-2.16 -1.922,-4.629 -3.742,-6.418 -0.516,0.347 -0.926,0.508 -1.164,0.808 -5.098,6.422 -5.313,6.395 -10.129,-0.234 -1.043,-1.437 -1.563,-3.559 -4.055,-3.723 -1.668,3.36 -3.254,6.782 -5.054,10.082 -1.274,2.336 -3.438,2.399 -5.012,0.286 -0.754,-1.012 -1.313,-2.161 -2.047,-3.184 -2.684,-3.758 -5.402,-7.492 -8.125,-11.219 -0.102,-0.137 -0.395,-0.125 -0.957,-0.289 -1.285,1.356 -2.625,2.906 -4.113,4.309 -2.004,1.89 -3.676,1.808 -5.274,-0.383 -1.851,-2.547 -3.469,-5.266 -5.242,-7.871 -0.539,-0.789 -0.855,-2.004 -2.703,-1.633 -0.981,1.738 -2.055,3.754 -3.231,5.707 -0.75,1.246 -1.535,2.504 -2.5,3.578 -1.046,1.168 -2.968,1.035 -3.921,-0.14 -0.528,-0.649 -0.993,-1.372 -1.36,-2.122 -1.75,-3.582 -3.426,-7.203 -5.195,-10.777 -0.59,-1.187 -0.656,-2.906 -2.824,-3.078 -0.836,2.105 -1.602,4.27 -2.547,6.352 -1.086,2.386 -3.278,2.699 -4.953,0.582 -2.219,-2.801 -4.188,-5.797 -6.301,-8.684 -1.223,-1.676 -2.063,-3.715 -4.238,-4.602 -1.426,0.832 -2.821,1.793 -4.336,2.5 -1.996,0.934 -3.766,0.27 -4.711,-1.695 -1.094,-2.273 -2.055,-4.609 -3.121,-6.894 -0.426,-0.911 -0.817,-2 -2.496,-1.575 -1.118,3.2 -2.2,6.575 -3.489,9.871 -0.515,1.321 -1.363,2.567 -2.277,3.668 -0.852,1.024 -2.711,0.75 -3.176,-0.496 -0.875,-2.34 -1.742,-4.73 -2.183,-7.175 -0.602,-3.313 -1.504,-6.426 -3.547,-9.512 -1.008,1.262 -1.868,2.18 -2.543,3.219 -0.801,1.226 -1.418,2.574 -2.172,3.836 -0.809,1.343 -2.028,2.257 -3.594,2.203 -1.664,-0.055 -2.527,-1.262 -3.012,-2.786 -0.765,-2.406 -1.472,-4.832 -2.406,-7.171 -0.508,-1.286 -1.422,-2.407 -2.394,-3.989 -1.164,1.61 -1.907,2.875 -2.879,3.926 -1.129,1.219 -2.325,2.484 -3.735,3.309 -3.074,1.797 -5.758,0.777 -6.976,-2.61 -1.274,-3.547 -2.313,-7.175 -3.442,-10.726 -0.39,0.035 -0.629,-0.016 -0.765,0.078 -1.215,0.816 -2.371,1.723 -3.621,2.476 -1.246,0.75 -2.524,1.516 -3.887,1.989 -2.234,0.765 -3.75,-0.192 -4.094,-2.489 -0.305,-2.031 0.129,-4.253 -1.555,-5.746 -2.492,0.727 -4.859,1.645 -7.308,2.071 -2.844,0.496 -4.559,-0.871 -4.703,-3.66 -0.141,-2.715 0.16,-5.45 0.148,-8.176 -0.008,-1.168 -0.316,-2.332 -0.535,-3.836 -1.758,0.801 -3.023,1.551 -4.391,1.945 -1.132,0.328 -2.593,0.668 -3.535,0.223 -1.625,-0.774 -1.203,-2.633 -0.785,-3.957 1.332,-4.196 2.453,-8.543 4.461,-12.414 2.535,-4.899 4.219,-10.071 6.23,-15.141 1.583,-3.977 1.543,-7.637 -0.691,-11.426 -2.293,-3.883 -3.117,-8.183 -2.668,-12.754 0.563,-5.648 0.938,-11.316 1.348,-16.984 0.195,-2.723 0.429,-5.457 0.394,-8.184 -0.027,-2.093 -0.445,-4.152 -1.902,-5.875 -2.441,-2.882 -4.832,-5.808 -7.184,-8.769 -3.652,-4.606 -7.398,-9.149 -10.828,-13.914 -3.117,-4.328 -3.297,-8.977 -0.316,-13.567 2.812,-4.32 7.082,-5.14 11.652,-4.281 3.274,0.617 6.426,1.926 9.582,3.051 2.172,0.773 4.274,1.75 6.387,2.672 2.937,1.281 5.566,1.293 8.129,-1.074 2.828,-2.614 6.414,-3.043 10.066,-2.356 2.254,0.43 4.52,1.031 6.637,1.902 5.055,2.082 10.051,4.305 15.012,6.59 7.523,3.461 15.324,5.696 23.629,6.305 5.711,0.422 11.343,-0.066 17.003,-0.527 5.04,-0.407 10.071,-0.629 14.907,1.316 1.488,0.598 2.886,0.367 4.203,-0.484 3.859,-2.496 8.176,-3.078 12.656,-3.227 3.121,-0.101 6.231,-0.535 9.367,-0.824 3.203,-6.41 4.813,-12.762 4.516,-19.305 -0.93,-0.746 -1.371,-1.219 -1.91,-1.519 -2.567,-1.438 -5.098,-2.977 -7.77,-4.188 -2.457,-1.113 -4.074,-2.867 -5.207,-5.226 -1.836,-3.817 -0.789,-6.637 3.199,-7.899 2.395,-0.762 4.883,-1.281 7.368,-1.683 2.707,-0.434 5.39,-0.586 7.226,-3.164 0.488,-0.684 1.836,-0.973 2.82,-1.043 1.446,-0.102 2.915,0.156 4.629,0.281 4.2,-5.508 9.825,-4.141 15.371,-2.684 0.668,-0.32 1.219,-0.605 1.79,-0.855 5.273,-2.328 6.64,-1.907 10.406,2.164 2.179,2.363 3.379,5.211 4.738,8.183 2.133,-0.05 4.117,-1.914 6.285,0.004 1.301,3.86 1.399,7.946 -0.23,12.008 -1.645,4.094 -3.383,8.149 -4.965,12.262 -0.473,1.234 -1.539,2.629 0.226,4.148 1.844,-1.863 3.688,-3.734 5.75,-5.828 2.907,0.817 5.704,1.602 8.411,2.36 2.183,-0.793 4.339,-2.235 6.437,-2.157 2.113,0.078 4.164,1.668 6.34,2.637 4.234,-0.41 8.875,-0.043 12.895,-1.449 5.292,-1.852 7.964,3.285 12.3,3.312 0.414,0 0.825,0.008 1.535,0.016 0.875,-0.477 1.997,-1.043 3.075,-1.684 1.769,-1.05 3.629,-1.289 5.386,-0.218 3.036,1.851 5.743,1.605 8.821,-0.192 2.699,-1.57 5.621,-1.273 8.125,1.078 1.504,1.41 3.234,2.574 4.906,3.879 0.945,-0.597 1.715,-0.949 2.32,-1.488 3.117,-2.789 6.641,-3.406 10.551,-2.078 2.02,0.683 4.066,0.66 6.188,0.707 6.261,0.144 12.621,-0.688 18.73,1.746 1.379,0.547 3.305,0.066 4.887,-0.317 4.601,-1.109 9.093,-1.421 13.64,0.344 1.25,0.489 2.782,0.262 4.504,0.387 -0.441,-2.863 -0.804,-5.34 -1.207,-7.805 -0.578,-3.523 -2.066,-6.172 -5.742,-7.558 -2.496,-0.946 -4.934,-2.383 -6.562,-4.746 -1.426,-2.071 -1.102,-4.7 0.929,-6.149 0.84,-0.601 1.86,-0.965 2.809,-1.41 2.082,-0.98 4.168,-1.949 6.437,-3.004 -0.093,-4.793 2.996,-6.66 6.969,-7.66 0.609,-0.156 1.274,-0.117 1.859,-0.324 0.957,-0.332 2.09,-0.575 2.766,-1.242 2.672,-2.633 5.949,-2.344 8.887,-1.387 2.832,0.922 5.715,1.25 8.543,1.945 5.16,1.27 9.074,3.899 10.383,9.688 1.746,7.738 3.992,15.367 6.054,23.171 1.149,1 2.535,0.7 4.039,0.485 1.621,-0.235 3.535,-0.551 4.907,0.078 2.871,1.316 5.574,1.211 8.574,0.727 5.09,-0.821 10.324,-0.247 14.683,2.371 5.219,3.129 10.004,6.914 16.121,8.304 1.54,0.352 1.833,2.676 0.461,3.551 -2.832,1.809 -5.82,3.371 -8.675,5.149 -1.137,0.707 -2.098,1.703 -3.289,2.695 5,4.883 10.867,3.637 16.796,3.629 0.141,1.051 0.707,2.312 0.305,2.855 -1.223,1.66 -2.765,3.106 -4.293,4.512 -1.176,1.086 -2.945,1.566 -3.578,3.742 4.207,1.61 9.367,0.031 12.898,3.801 -3.484,5.391 -9.597,7.859 -12.808,13.246 3.105,6.508 10.078,7.789 15.512,11.633 -4.543,4.933 -11.032,6.312 -16.114,10.695 3.418,1.117 6.309,1.356 9.223,1.578 2.492,0.188 4.973,0.586 7.441,1.012 0.95,0.164 1.383,1.984 0.633,2.602" /><path
         id="path16"
         style="fill:#231f20;fill-opacity:1;fill-rule:nonzero;stroke:none"
         d="m 462.707,455.227 c 0.691,1.5 -0.492,2.914 -2.234,2.789 -0.418,-0.032 -0.84,-0.063 -1.246,-0.157 -4.094,-0.929 -8.192,-1.824 -12.262,-2.836 -1.199,-0.3 -2.375,-0.843 -3.426,-1.492 -0.363,-0.226 -0.316,-1.113 -0.496,-1.875 4.277,-1.371 8.238,1.309 13.191,0.762 -1.953,-2.336 -3.168,-4.059 -4.664,-5.488 -1.187,-1.137 -2.707,-1.942 -4.105,-2.844 -2.211,-1.426 -3.563,-3.516 -4.52,-5.875 -0.195,-0.481 -0.082,-1.563 0.157,-1.652 0.691,-0.262 1.839,-0.512 2.246,-0.149 5.293,4.766 10.922,9.207 15.215,14.977 0.867,1.168 1.535,2.511 2.144,3.84" /><path
         id="path18"
         style="fill:#231f20;fill-opacity:1;fill-rule:nonzero;stroke:none"
         d="m 393.137,415.637 c -0.266,-0.356 -0.117,-1.289 0.187,-1.707 0.313,-0.422 1.235,-0.895 1.567,-0.723 1.847,0.961 3.656,2.023 5.359,3.219 1.863,1.308 3.219,3.351 6.621,4.125 -0.91,-4.153 -1.699,-7.582 -2.398,-11.035 -0.282,-1.407 -0.473,-2.852 -0.485,-4.282 0,-0.421 0.696,-1.093 1.172,-1.199 0.453,-0.101 1.25,0.242 1.516,0.645 0.445,0.668 0.644,1.519 0.855,2.32 1.453,5.469 2.883,10.945 4.313,16.418 0.211,0.812 0.402,1.633 0.551,2.457 0.074,0.406 0.187,0.926 0.011,1.234 -0.386,0.672 -0.847,1.414 -1.476,1.793 -0.383,0.227 -1.344,0.028 -1.696,-0.324 -4.164,-4.191 -8.808,-7.75 -13.824,-10.855 -0.863,-0.539 -1.676,-1.27 -2.273,-2.086" /><path
         id="path20"
         style="fill:#231f20;fill-opacity:1;fill-rule:nonzero;stroke:none"
         d="m 353.336,449.121 c -0.203,-0.797 -0.309,-1.672 -0.199,-2.476 0.074,-0.528 0.668,-1.438 0.933,-1.403 0.723,0.09 1.606,0.426 2.035,0.969 0.481,0.602 0.54,1.543 0.758,2.34 0.774,2.82 1.832,5.504 3.953,8.414 2.075,-2.149 1.727,-4.383 2.207,-6.356 0.395,-1.601 0.715,-3.25 1.348,-4.757 0.402,-0.954 1.465,-1.684 2.543,-0.961 0.559,0.375 1.113,1.371 1.024,1.996 -0.719,4.949 -1.579,9.875 -2.434,14.804 -0.25,1.438 -0.512,2.903 -1.02,4.258 -0.242,0.645 -1.043,1.449 -1.644,1.496 -0.645,0.047 -1.692,-0.543 -1.981,-1.136 -2.195,-4.5 -4.269,-9.063 -6.328,-13.629 -0.511,-1.137 -0.886,-2.348 -1.195,-3.559" /><path
         id="path22"
         style="fill:#231f20;fill-opacity:1;fill-rule:nonzero;stroke:none"
         d="m 591.043,392.211 c 0.957,0.613 1.836,1.269 1.523,2.426 -0.398,1.484 -1.75,1.707 -3.05,1.508 -2.071,-0.321 -4.129,-0.735 -6.172,-1.204 -4.098,-0.945 -8.199,-1.824 -12.453,-1.414 -0.621,0.059 -1.325,0.149 -1.86,-0.082 -0.476,-0.199 -1.023,-0.789 -1.078,-1.261 -0.051,-0.477 0.352,-1.336 0.746,-1.473 1.36,-0.473 2.789,-0.859 4.219,-0.988 1.801,-0.164 3.633,-0.047 5.895,-0.055 -0.59,-2.316 -2.102,-3.492 -3.196,-4.93 -1.004,-1.324 -0.992,-2.707 -0.043,-3.32 1.102,-0.707 2.008,-0.18 2.805,0.539 2.18,1.965 4.242,4.063 6.508,5.918 1.933,1.59 4.043,2.98 6.156,4.336" /><path
         id="path24"
         style="fill:#231f20;fill-opacity:1;fill-rule:nonzero;stroke:none"
         d="m 425.531,416.805 c 1.203,-0.196 2.485,-0.25 3.688,-0.059 2.246,0.363 4.461,0.938 7.992,1.707 -1.121,-1.762 -1.449,-2.512 -1.981,-3.07 -1.433,-1.508 -2.968,-2.922 -4.437,-4.403 -1.281,-1.285 -1.438,-2.406 -0.477,-3.203 1.336,-1.105 2.36,-0.218 3.25,0.649 4.329,4.226 8.625,8.492 12.903,12.769 0.426,0.426 0.695,1.024 0.969,1.578 0.394,0.797 -0.747,2.309 -1.649,2.141 -0.805,-0.152 -1.601,-0.394 -2.359,-0.699 -5.071,-2.027 -10.301,-3.391 -15.723,-4.039 -0.812,-0.098 -1.684,-0.207 -2.387,-0.574 -0.441,-0.231 -0.898,-0.977 -0.855,-1.446 0.051,-0.5 0.629,-1.277 1.066,-1.351" /><path
         id="path26"
         style="fill:#231f20;fill-opacity:1;fill-rule:nonzero;stroke:none"
         d="m 503.652,458.57 c 1.305,1.602 2.496,3.301 4.059,5.387 0.695,-1.031 1.082,-1.34 1.098,-1.664 0.117,-2.512 0.148,-5.023 0.234,-7.531 0.059,-1.664 0.012,-3.356 0.316,-4.977 0.118,-0.621 1.032,-1.422 1.68,-1.527 0.902,-0.145 1.336,0.73 1.395,1.656 0.355,5.641 0.765,11.277 1.054,16.922 0.075,1.445 -0.078,2.941 -0.386,4.352 -0.414,1.867 -2.762,2.488 -3.914,1.015 -3.34,-4.262 -6.563,-8.613 -9.813,-12.906 2.363,-2.02 3.109,-2.152 4.277,-0.727" /><path
         id="path28"
         style="fill:#231f20;fill-opacity:1;fill-rule:nonzero;stroke:none"
         d="m 386.465,475.23 c 0.359,-3.128 0.586,-6.273 0.894,-9.406 0.168,-1.664 0.262,-3.363 0.696,-4.961 0.144,-0.531 1.32,-1.168 1.906,-1.07 0.519,0.09 1.281,1.156 1.246,1.75 -0.32,5.027 -0.672,10.062 -1.297,15.059 -0.226,1.82 -1.082,3.601 -1.883,5.293 -0.687,1.449 -2.726,1.82 -3.738,0.675 -3.469,-3.929 -6.828,-7.953 -10.219,-11.949 -0.125,-0.144 -0.23,-0.418 -0.183,-0.578 0.176,-0.559 0.277,-1.301 0.679,-1.582 0.414,-0.289 1.426,-0.383 1.696,-0.102 1.297,1.348 2.461,2.825 3.613,4.301 1.504,1.918 2.73,4.137 5.645,5.012 0.386,-0.973 0.855,-1.684 0.945,-2.442" /><path
         id="path30"
         style="fill:#231f20;fill-opacity:1;fill-rule:nonzero;stroke:none"
         d="m 533.297,391.629 c 0.543,-1.914 1.574,-2.422 2.949,-1.742 0.914,0.453 1.734,1.168 2.457,1.902 1.59,1.617 3.09,3.32 4.625,4.988 0.395,-0.187 0.785,-0.375 1.18,-0.558 -0.797,-2.754 -1.653,-5.496 -2.36,-8.278 -0.246,-0.964 -0.246,-2.039 -0.109,-3.027 0.039,-0.277 1.258,-0.754 1.438,-0.59 0.742,0.668 1.523,1.461 1.871,2.367 1.722,4.489 3.343,9.016 4.929,13.551 0.34,0.973 0.512,2.039 0.536,3.067 0.007,0.546 -0.333,1.418 -0.743,1.586 -0.66,0.273 -1.711,0.39 -2.246,0.043 -5.625,-3.692 -9.808,-8.915 -14.527,-13.309" /><path
         id="path32"
         style="fill:#231f20;fill-opacity:1;fill-rule:nonzero;stroke:none"
         d="m 489.715,466.797 c -0.371,1.137 -1.539,1.605 -2.547,1.199 -1.328,-0.531 -2.699,-1.266 -3.695,-2.269 -3.528,-3.551 -6.946,-7.219 -10.293,-10.942 -0.364,-0.41 -0.285,-1.742 0.105,-2.16 0.414,-0.441 1.766,-0.672 2.156,-0.344 1.418,1.192 2.684,2.59 3.856,4.035 1.816,2.247 3.433,4.68 6.715,6.2 0.101,-1.387 0.426,-2.411 0.191,-3.286 -0.754,-2.808 -1.683,-5.578 -2.605,-8.339 -0.325,-0.981 -0.95,-1.879 -1.176,-2.871 -0.106,-0.457 0.289,-1.247 0.699,-1.536 0.422,-0.296 1.207,-0.347 1.715,-0.168 0.523,0.192 1.074,0.704 1.32,1.215 2.391,4.926 4.18,10.035 4.18,15.59 -0.004,1.231 -0.242,2.504 -0.621,3.676" /><path
         id="path34"
         style="fill:#231f20;fill-opacity:1;fill-rule:nonzero;stroke:none"
         d="m 330.027,458.195 c 2.715,3.332 2.328,8.403 6,11.828 0.766,-1.429 1.411,-2.695 2.11,-3.925 1.133,-2 2.191,-4.059 3.515,-5.926 0.485,-0.68 1.645,-0.875 2.661,-1.371 0.23,1.023 0.64,1.726 0.46,2.211 -1.804,4.91 -3.671,9.801 -5.613,14.66 -0.363,0.914 -1.117,1.672 -1.871,2.754 -1.059,-0.485 -1.582,-0.551 -1.785,-0.844 -3.731,-5.391 -6.367,-11.32 -8.164,-17.59 -0.422,-1.469 0.988,-2.101 2.687,-1.797" /><path
         id="path36"
         style="fill:#231f20;fill-opacity:1;fill-rule:nonzero;stroke:none"
         d="m 492.313,426.293 c 1.097,0.512 2.015,1.426 2.968,2.223 1.082,0.902 2.117,1.855 3.696,3.254 1.117,-3.254 0.503,-5.485 0.066,-7.739 -0.516,-2.672 -0.992,-5.355 -1.258,-8.054 -0.051,-0.539 0.856,-1.539 1.453,-1.664 0.567,-0.118 1.321,0.625 1.965,1.035 0.149,0.09 0.215,0.359 0.258,0.558 0.715,3.473 1.594,6.922 2.078,10.43 0.426,3.086 0.566,6.238 0.527,9.355 -0.023,1.864 -2.238,3.09 -3.644,2.012 -3.629,-2.781 -7.09,-5.789 -10.504,-8.832 -0.352,-0.316 -0.23,-1.742 0.18,-2.172 0.433,-0.457 1.629,-0.679 2.215,-0.406" /><path
         id="path38"
         style="fill:#231f20;fill-opacity:1;fill-rule:nonzero;stroke:none"
         d="m 452.535,386.961 c -1.176,0.832 -2.476,1.578 -3.832,2.043 -4.492,1.539 -9.137,0.633 -13.715,0.519 -0.547,-0.011 -1.062,-1.41 -1.597,-2.175 3.511,-3.047 7.632,-0.094 11.25,-1.91 -1.293,-1.7 -3.008,-1.918 -4.504,-2.536 -1.926,-0.789 -3.86,-1.578 -5.711,-2.519 -0.379,-0.192 -0.641,-1.113 -0.539,-1.613 0.101,-0.489 0.718,-1.227 1.125,-1.239 1.222,-0.027 2.531,0.02 3.66,0.434 3.937,1.441 7.812,3.047 11.715,4.594 0.582,0.23 1.183,0.433 1.73,0.738 1.43,0.789 1.711,2.75 0.418,3.664" /><path
         id="path40"
         style="fill:#231f20;fill-opacity:1;fill-rule:nonzero;stroke:none"
         d="m 414.898,380.895 c -0.546,0.3 -1.117,0.597 -1.714,0.769 -5.618,1.613 -11.243,3.203 -16.871,4.774 -0.368,0.101 -0.833,0.054 -1.192,-0.083 -0.367,-0.144 -0.863,-0.441 -0.933,-0.75 -0.125,-0.562 -0.196,-1.367 0.113,-1.746 0.5,-0.617 1.258,-1.179 2.015,-1.41 2.793,-0.84 5.625,-1.551 8.454,-2.265 0.996,-0.254 2.093,-0.293 2.039,-1.848 -2.692,-1.957 -5.684,-3.246 -9.657,-3.188 0.75,-3.527 1.43,-4.515 2.852,-3.949 5.019,1.996 9.937,4.254 14.887,6.43 0.172,0.078 0.273,0.309 0.414,0.465 0.582,0.64 0.351,2.383 -0.407,2.801" /><path
         id="path42"
         style="fill:#231f20;fill-opacity:1;fill-rule:nonzero;stroke:none"
         d="m 398.852,446.398 c 0.863,0.915 1.961,1.641 2.675,2.653 0.379,0.539 0.485,1.777 0.125,2.187 -0.394,0.453 -1.683,0.688 -2.203,0.379 -4.906,-2.933 -10.164,-4.894 -15.91,-5.668 -0.203,-4.246 3.645,-1.922 5.149,-3.812 -1.723,-2.188 -3.586,-4.414 -5.235,-6.785 -0.289,-0.418 0.145,-1.559 0.551,-2.157 0.219,-0.316 1.305,-0.449 1.648,-0.195 1.332,0.988 2.61,2.09 3.754,3.289 3.188,3.332 6.285,6.75 9.446,10.109" /><path
         id="path44"
         style="fill:#231f20;fill-opacity:1;fill-rule:nonzero;stroke:none"
         d="m 550.777,363.98 c -5.234,1.434 -10.511,2.723 -15.789,3.997 -0.554,0.136 -1.308,-0.028 -1.8,-0.332 -0.477,-0.293 -0.977,-0.922 -1.012,-1.442 -0.039,-0.48 0.402,-1.215 0.844,-1.465 0.699,-0.398 1.566,-0.543 2.378,-0.703 2.856,-0.558 5.715,-1.074 9.711,-1.816 -3.168,-2.903 -5.894,-3.766 -8.757,-4.356 -1.004,-0.207 -2.067,-0.3 -2.993,-0.703 -0.437,-0.187 -0.863,-0.996 -0.836,-1.5 0.028,-0.492 0.563,-1.246 1.012,-1.363 0.973,-0.258 2.063,-0.363 3.055,-0.215 5.504,0.824 10.246,3.477 14.824,6.441 1.359,0.879 1.012,3.004 -0.637,3.457" /><path
         id="path46"
         style="fill:#231f20;fill-opacity:1;fill-rule:nonzero;stroke:none"
         d="m 524.723,449.18 c -0.192,-0.543 -0.453,-1.426 -0.2,-1.684 0.504,-0.508 1.493,-1.105 2.008,-0.918 1.34,0.481 2.528,1.383 3.789,2.09 0.692,0.387 1.41,0.969 2.403,-0.16 -0.446,-1.797 -1.039,-3.762 -1.399,-5.77 -0.297,-1.675 0.41,-2.824 2.68,-3 2.207,5.696 4.301,11.121 6.418,16.539 0.43,1.098 0.316,2.016 -0.656,2.75 -0.985,0.739 -1.918,0.578 -2.836,-0.132 -3.797,-2.934 -7.598,-5.86 -11.387,-8.801 -0.32,-0.254 -0.699,-0.555 -0.82,-0.914" /><path
         id="path48"
         style="fill:#231f20;fill-opacity:1;fill-rule:nonzero;stroke:none"
         d="m 439.258,358.059 c -0.578,0.234 -1.188,0.492 -1.801,0.546 -3.844,0.352 -7.402,1.458 -10.523,3.801 -0.161,0.117 -0.43,0.227 -0.594,0.172 -0.547,-0.183 -1.293,-0.308 -1.535,-0.711 -0.266,-0.437 -0.282,-1.32 -0.004,-1.734 1.851,-2.746 4.976,-3.598 8.304,-5.059 -2.14,-1.363 -3.429,-0.992 -4.722,-0.043 -1.055,0.782 -2.016,0.407 -2.621,-0.629 -0.676,-1.144 -0.348,-2.847 0.633,-3.379 0.714,-0.382 1.527,-0.652 2.328,-0.781 3.652,-0.59 7.14,0.227 10.441,1.668 1.559,0.68 4.172,0.625 3.887,3.297 -0.215,2.012 -2.266,2.234 -3.793,2.852" /><path
         id="path50"
         style="fill:#231f20;fill-opacity:1;fill-rule:nonzero;stroke:none"
         d="m 519.191,388.977 c -0.507,0.039 -1.136,-0.469 -1.582,-0.872 -3.754,-3.375 -7.484,-6.773 -11.199,-10.187 -0.453,-0.418 -0.933,-0.93 -1.109,-1.488 -0.16,-0.52 -0.133,-1.332 0.179,-1.707 0.333,-0.403 1.215,-0.739 1.657,-0.575 0.937,0.356 1.816,0.965 2.593,1.625 2.196,1.868 3.735,4.508 7.075,5.969 -0.133,-1.402 -0.114,-2.406 -0.344,-3.351 -0.395,-1.629 -1,-3.207 -1.402,-4.832 -0.274,-1.102 0.07,-2.079 1.164,-2.629 0.89,-0.45 2.172,0.105 2.488,1.226 1.019,3.641 2.102,7.278 2.848,10.977 0.32,1.57 0.004,3.332 -0.34,4.937 -0.094,0.45 -1.301,0.852 -2.028,0.907" /><path
         id="path52"
         style="fill:#231f20;fill-opacity:1;fill-rule:nonzero;stroke:none"
         d="m 422.25,469.727 c 0.473,-1.575 1.18,-3.129 2.063,-4.512 0.304,-0.481 1.597,-0.742 2.187,-0.5 0.535,0.223 1.203,1.515 1,1.91 -2.102,4.016 -2.129,8.527 -3.25,12.77 -0.371,1.41 -0.781,2.832 -1.375,4.156 -0.664,1.496 -2.836,1.746 -3.59,0.402 -1.539,-2.738 -3.101,-5.5 -4.273,-8.402 -1.008,-2.492 -1.117,-5.172 0.398,-8 3.34,1.808 1.481,5.828 4.524,8.16 1.453,-1.988 1.73,-4.031 2.316,-5.984" /><path
         id="path54"
         style="fill:#231f20;fill-opacity:1;fill-rule:nonzero;stroke:none"
         d="m 505.977,352.969 c -4.645,-1.586 -9.321,-2.192 -14.2,-1.465 -0.476,0.07 -1.277,-0.844 -1.597,-1.473 -0.149,-0.285 0.394,-1.265 0.824,-1.441 1.687,-0.684 3.449,-1.172 6.051,-2.016 -1.703,-1.863 -2.86,-3.051 -3.922,-4.32 -0.52,-0.625 -1.137,-1.371 -1.207,-2.109 -0.067,-0.692 0.39,-1.579 0.894,-2.114 0.258,-0.269 1.321,-0.179 1.703,0.133 4.52,3.703 8.981,7.477 13.454,11.238 0.871,0.731 1.484,1.774 0.656,2.657 -0.582,0.621 -1.93,1.16 -2.656,0.91" /><path
         id="path56"
         style="fill:#231f20;fill-opacity:1;fill-rule:nonzero;stroke:none"
         d="m 375.07,394.059 c -0.324,-0.262 -0.656,-0.532 -0.922,-0.848 -3.355,-4.027 -6.718,-8.047 -10.003,-12.129 -0.29,-0.359 -0.258,-1.477 0.039,-1.703 0.586,-0.457 1.785,-0.973 2.164,-0.695 1.476,1.089 2.851,2.382 4.039,3.789 1.437,1.695 2.218,3.965 4.836,5.539 1.011,-3.887 0.59,-6.992 0.105,-10.117 -0.219,-1.43 0.84,-2.926 1.832,-2.786 1.192,0.172 1.805,1.063 1.836,2.168 0.125,4.192 0.211,8.379 0.211,12.571 0,1.027 -0.293,2.082 -0.602,3.078 -0.472,1.554 -2.312,2.109 -3.535,1.133" /><path
         id="path58"
         style="fill:#231f20;fill-opacity:1;fill-rule:nonzero;stroke:none"
         d="m 276.582,427.742 c -3.387,1.356 -4.223,4.367 -5.113,7.426 -0.699,2.406 -1.516,4.793 -2.457,7.117 -0.227,0.567 -1.141,0.852 -1.801,1.313 -2.668,-5.938 -7.238,-21.625 -7.645,-26.012 1.247,-1.082 2.278,-0.871 2.95,0.602 0.246,0.55 0.203,1.234 0.289,1.855 0.73,5.391 2.738,10.406 4.472,16.48 0.973,-1.867 1.551,-2.906 2.067,-3.976 0.906,-1.871 1.578,-3.895 2.734,-5.59 0.613,-0.894 1.996,-1.352 3.125,-1.746 0.375,-0.133 1.238,0.434 1.5,0.894 0.238,0.411 0.121,1.54 -0.121,1.637" /><path
         id="path60"
         style="fill:#231f20;fill-opacity:1;fill-rule:nonzero;stroke:none"
         d="m 566.27,442.141 c 0.921,1.179 -0.278,3.058 -2,3.043 -4.165,-0.032 -8.329,-0.211 -12.489,-0.442 -0.433,-0.023 -1.183,-0.781 -1.172,-1.176 0.028,-0.722 0.332,-1.777 0.86,-2.058 0.851,-0.453 1.972,-0.442 2.992,-0.551 1.34,-0.144 2.844,0.629 4.23,-0.844 -0.343,-0.73 -0.55,-1.558 -1.043,-2.136 -1.48,-1.731 -3.07,-3.375 -4.628,-5.039 -1.211,-1.293 -1.079,-1.848 1.183,-4.102 4.91,3.609 8.367,8.582 12.067,13.305" /><path
         id="path62"
         style="fill:#231f20;fill-opacity:1;fill-rule:nonzero;stroke:none"
         d="m 323.656,428.602 c 0.207,0.347 0.461,0.886 0.332,1.168 -0.308,0.671 -0.722,1.421 -1.312,1.8 -0.414,0.266 -1.278,0.145 -1.789,-0.109 -4.844,-2.395 -9.762,-4.664 -14.18,-7.766 0.969,-2.332 1.332,-2.715 2.309,-2.308 2.031,0.84 4.031,1.761 6.515,2.859 -0.355,-3.605 -2.73,-5.726 -3.476,-8.851 1.004,-0.547 2.004,-1.098 2.855,-1.559 3.031,5.109 5.903,9.93 8.746,14.766" /><path
         id="path64"
         style="fill:#231f20;fill-opacity:1;fill-rule:nonzero;stroke:none"
         d="m 355.477,400.707 c -0.368,0.203 -0.723,0.465 -1.122,0.57 -4.468,1.161 -8.933,2.328 -13.425,3.403 -0.77,0.187 -1.696,0.09 -2.45,-0.164 -0.453,-0.157 -0.828,-0.828 -1.027,-1.352 -0.113,-0.297 0.082,-0.953 0.344,-1.109 0.867,-0.516 1.797,-0.965 2.754,-1.278 2.558,-0.828 5.426,-0.539 8.66,-2.449 -1.195,-1.152 -1.883,-1.91 -2.664,-2.547 -1.461,-1.183 -3.027,-2.234 -4.434,-3.48 -0.34,-0.301 -0.484,-1.328 -0.234,-1.672 0.434,-0.602 1.207,-1.012 1.914,-1.332 0.297,-0.141 0.859,0.039 1.18,0.254 3.64,2.465 7.304,4.906 10.863,7.492 1.363,0.984 1.07,2.867 -0.359,3.664" /><path
         id="path66"
         style="fill:#231f20;fill-opacity:1;fill-rule:nonzero;stroke:none"
         d="m 440.91,471.035 c 1.656,2.992 1.039,7.266 4.309,10.055 0.441,-1.727 0.636,-3.356 1.289,-4.774 0.594,-1.285 1.816,-1.617 3.234,-0.468 -0.234,5.066 -0.461,10.25 -0.738,15.433 -0.031,0.598 -0.199,1.418 -0.606,1.707 -0.57,0.403 -1.464,0.617 -2.144,0.492 -0.457,-0.085 -0.922,-0.835 -1.149,-1.386 -2.152,-5.203 -4.292,-10.414 -6.343,-15.656 -0.449,-1.153 -0.731,-2.442 -0.731,-3.668 0,-1.516 0.965,-2.192 2.879,-1.735" /><path
         id="path68"
         style="fill:#231f20;fill-opacity:1;fill-rule:nonzero;stroke:none"
         d="m 566.203,414.5 c 1.863,-0.207 3.735,-0.355 6.789,-0.641 -1.597,-1.582 -2.465,-2.421 -3.312,-3.281 -1.18,-1.191 -2.461,-2.308 -3.461,-3.64 -0.375,-0.5 -0.387,-1.731 -0.02,-2.204 0.332,-0.421 1.641,-0.609 2.125,-0.296 4.399,2.847 8.715,5.828 13.051,8.777 0.168,0.117 0.379,0.269 0.43,0.445 0.226,0.754 0.605,1.547 0.511,2.274 -0.054,0.464 -0.8,1.148 -1.296,1.203 -3.34,0.375 -6.692,0.761 -10.043,0.832 -2.028,0.043 -4.215,0.312 -6.043,-1.043 0.546,-2.211 0.578,-2.348 1.269,-2.426" /><path
         id="path70"
         style="fill:#231f20;fill-opacity:1;fill-rule:nonzero;stroke:none"
         d="m 480.68,397.469 c -0.414,0.066 -0.836,0.176 -1.242,0.144 -4.395,-0.336 -8.793,-0.64 -13.172,-1.121 -0.551,-0.062 -1.176,-1.012 -1.411,-1.672 -0.113,-0.312 0.579,-1.293 0.985,-1.34 2.445,-0.296 4.914,-0.41 8.387,-0.656 -1.161,-1.765 -1.832,-2.773 -2.493,-3.793 -1.14,-1.754 -2.386,-3.457 -3.336,-5.312 -0.238,-0.461 0.301,-1.727 0.832,-2.055 0.512,-0.316 1.848,-0.184 2.184,0.246 3.332,4.309 6.293,8.91 10.399,12.594 0.925,0.828 0.093,2.766 -1.133,2.965" /><path
         id="path72"
         style="fill:#231f20;fill-opacity:1;fill-rule:nonzero;stroke:none"
         d="m 572.176,345.559 c -2.559,0.929 -5.199,1.632 -7.785,2.484 -1.786,0.586 -3.512,1.363 -5.317,1.867 -0.414,0.113 -1.277,-0.43 -1.511,-0.887 -0.231,-0.445 -0.145,-1.429 0.195,-1.718 0.933,-0.789 2.039,-1.414 3.14,-1.965 1.43,-0.719 3.438,-0.305 4.43,-2.629 -1.789,-0.609 -3.531,-1.223 -5.289,-1.785 -0.996,-0.321 -2.117,-0.391 -2.984,-0.903 -0.602,-0.359 -1.223,-1.293 -1.2,-1.949 0.043,-1.215 1.161,-1.738 2.247,-1.621 1.449,0.156 2.941,0.41 4.289,0.942 3.492,1.375 6.945,2.863 10.339,4.468 0.571,0.266 1.118,1.391 1.02,2.02 -0.098,0.64 -0.902,1.43 -1.574,1.676" /><path
         id="path74"
         style="fill:#231f20;fill-opacity:1;fill-rule:nonzero;stroke:none"
         d="m 469.121,363.645 c -3.207,-2.969 -6.367,-5.989 -9.492,-9.047 -1.027,-1 -2.211,-2.121 -1.133,-3.758 0.742,-1.129 2.449,-0.555 4.133,1.148 1.25,1.266 1.84,3.367 4.355,3.469 0.168,-1.391 0.153,-2.824 0.575,-4.113 0.199,-0.617 1.218,-1.309 1.886,-1.328 0.606,-0.02 1.672,0.734 1.789,1.3 0.704,3.454 1.258,6.946 1.692,10.446 0.082,0.676 -0.442,1.629 -0.985,2.133 -0.886,0.82 -2.031,0.48 -2.82,-0.25" /><path
         id="path76"
         style="fill:#231f20;fill-opacity:1;fill-rule:nonzero;stroke:none"
         d="m 403.426,343.027 c -5.031,2.059 -10.145,3.918 -15.246,5.797 -0.352,0.129 -0.899,0.074 -1.215,-0.121 -0.488,-0.301 -1.098,-0.734 -1.219,-1.219 -0.121,-0.476 0.141,-1.398 0.512,-1.589 1.789,-0.918 3.668,-1.653 6.242,-2.77 -2.004,-0.891 -3.309,-1.457 -4.598,-2.055 -1.144,-0.531 -2.324,-1.082 -2.14,-2.664 0.125,-1.047 1.261,-1.347 3.156,-0.965 3.484,0.711 6.969,1.426 10.469,2.055 1.597,0.285 3.234,0.371 5.41,0.609 -0.578,1.301 -0.746,2.668 -1.371,2.922" /><path
         id="path78"
         style="fill:#231f20;fill-opacity:1;fill-rule:nonzero;stroke:none"
         d="m 364.148,423.445 c -2.453,-2.371 -4.019,-5.343 -4.945,-8.621 -0.305,-1.07 -0.015,-2.238 1.16,-2.543 0.629,-0.164 1.637,0.207 2.133,0.688 0.715,0.691 1.121,1.703 2.18,3.426 0.394,-1.364 0.562,-1.965 0.738,-2.567 0.414,-1.394 1.43,-2.258 2.77,-1.828 0.785,0.254 1.636,1.309 1.843,2.152 0.493,2.016 0.707,4.11 0.875,6.188 0.176,2.215 1.563,5.187 -0.73,6.414 -2.758,1.476 -4.317,-1.656 -6.024,-3.309" /><path
         id="path80"
         style="fill:#231f20;fill-opacity:1;fill-rule:nonzero;stroke:none"
         d="m 310.824,455.52 c 0.914,-2.118 1.68,-4.305 2.711,-6.36 0.274,-0.547 1.434,-1.121 1.934,-0.949 0.531,0.176 1.191,1.344 1.054,1.894 -0.921,3.661 -1.875,7.329 -3.187,10.86 -0.449,1.215 -1.832,2.223 -3.012,2.984 -1.426,0.926 -2.945,0.516 -3.797,-0.957 -1.972,-3.426 -3.8,-6.933 -5.644,-10.324 2.219,-1.824 2.992,-1.965 3.758,-0.781 0.683,1.054 1.222,2.199 1.843,3.293 0.684,1.203 1.383,2.394 2.438,4.215 0.855,-1.731 1.43,-2.782 1.902,-3.875" /><path
         id="path82"
         style="fill:#231f20;fill-opacity:1;fill-rule:nonzero;stroke:none"
         d="m 459.285,417.391 c 0.988,0.691 1.715,1.785 2.488,2.757 0.848,1.067 1.633,2.184 3.024,4.059 0.453,-1.84 0.844,-2.762 0.871,-3.699 0.043,-1.453 -0.336,-2.93 -0.184,-4.36 0.063,-0.609 0.957,-1.484 1.571,-1.574 0.539,-0.078 1.609,0.668 1.761,1.231 1.219,4.566 0.891,9.117 -0.632,13.562 -0.301,0.879 -1.02,1.617 -1.809,2.817 -3.969,-4.121 -6.754,-8.493 -9.605,-12.801 -0.235,-0.348 -0.032,-1.434 0.285,-1.61 0.648,-0.355 1.773,-0.703 2.23,-0.382" /><path
         id="path84"
         style="fill:#231f20;fill-opacity:1;fill-rule:nonzero;stroke:none"
         d="m 330.211,396.461 c -4.777,2.086 -9.719,1.949 -14.648,0.715 -0.512,-0.129 -0.958,-1.27 -1.059,-1.996 -0.055,-0.391 0.601,-1.024 1.082,-1.309 0.5,-0.297 1.172,-0.312 1.758,-0.449 -0.43,-0.707 -1.02,-1.363 -1.254,-2.133 -0.516,-1.676 0.695,-3.309 2.176,-2.785 4.105,1.449 8.144,3.094 12.144,4.809 1.113,0.476 0.938,2.652 -0.199,3.148" /><path
         id="path86"
         style="fill:#231f20;fill-opacity:1;fill-rule:nonzero;stroke:none"
         d="m 500.699,382.191 c 0.43,2.02 0.672,4.102 1.336,6.039 0.676,1.977 1.766,3.813 2.664,5.711 0.453,0.95 1.114,1.868 1.274,2.868 0.144,0.914 -0.012,2.082 -0.512,2.816 -0.305,0.457 -1.734,0.691 -2.258,0.371 -3.019,-1.848 -5.98,-3.808 -8.824,-5.914 -1.113,-0.824 -0.395,-2.633 1.039,-2.766 1.004,-0.089 2.031,0.118 3.187,0.2 -0.425,-2.34 -0.886,-4.375 -1.144,-6.442 -0.203,-1.636 0.43,-2.129 3.238,-2.883" /><path
         id="path88"
         style="fill:#231f20;fill-opacity:1;fill-rule:nonzero;stroke:none"
         d="m 529.609,425.547 c -4.101,-1.359 -7.285,-4.07 -10.168,-7.16 -0.281,-0.301 -0.218,-1.309 0.079,-1.668 0.324,-0.399 1.218,-0.723 1.656,-0.547 1.137,0.461 2.168,1.199 3.23,1.844 0.953,0.578 1.516,1.976 3.274,1.39 0.09,-3.246 -1.95,-5.871 -2.813,-9.289 2.707,-1.312 3.203,-1.277 3.852,0.172 1.199,2.684 2.469,5.352 3.406,8.125 0.52,1.547 0.57,3.293 0.578,4.953 0.008,1.61 -1.59,2.68 -3.094,2.18" /><path
         id="path90"
         style="fill:#231f20;fill-opacity:1;fill-rule:nonzero;stroke:none"
         d="m 341.02,431.531 c 0.41,-1.093 1.339,-2.047 2.21,-2.879 0.317,-0.3 1.247,-0.273 1.7,-0.027 0.441,0.238 0.961,1.016 0.875,1.441 -0.789,3.864 -1.629,7.723 -2.641,11.532 -0.242,0.914 -1.039,1.933 -1.863,2.367 -0.766,0.398 -2.367,0.496 -2.805,0.012 -1.777,-1.989 -3.301,-4.223 -4.793,-6.45 -0.223,-0.332 0.055,-1.265 0.402,-1.644 0.348,-0.375 1.172,-0.688 1.618,-0.531 1.285,0.445 2.48,1.14 3.922,1.839 0.476,-2.07 0.722,-3.941 1.375,-5.66" /><path
         id="path92"
         style="fill:#231f20;fill-opacity:1;fill-rule:nonzero;stroke:none"
         d="m 594.105,367.043 c -0.82,0.082 -1.66,0.039 -2.488,-0.023 -3.73,-0.293 -7.465,-0.59 -11.191,-0.954 -0.539,-0.05 -1.043,-0.464 -1.727,-0.785 0.387,-3.98 3.719,-2.48 6.379,-3.535 -0.797,-1.113 -1.41,-1.699 -1.676,-2.418 -0.261,-0.691 -0.488,-1.769 -0.14,-2.219 0.379,-0.488 1.742,-0.863 2.156,-0.566 3.359,2.418 6.637,4.953 9.844,7.57 0.914,0.75 0.051,2.809 -1.157,2.93" /><path
         id="path94"
         style="fill:#231f20;fill-opacity:1;fill-rule:nonzero;stroke:none"
         d="m 325.398,375.699 c -3.156,-2.844 -5.601,-6.222 -7.089,-10.207 -0.188,-0.508 0.429,-1.726 0.968,-1.98 0.543,-0.254 1.746,0.047 2.157,0.531 1.07,1.266 1.871,2.766 3.539,5.352 0.515,-1.825 0.793,-2.524 0.894,-3.247 0.117,-0.808 -0.179,-1.781 0.176,-2.418 0.34,-0.605 1.25,-1.058 1.984,-1.207 0.379,-0.078 1.207,0.567 1.34,1.028 1.168,3.996 0.699,7.871 -1.191,11.562 -0.442,0.864 -2.067,1.227 -2.778,0.586" /><path
         id="path96"
         style="fill:#231f20;fill-opacity:1;fill-rule:nonzero;stroke:none"
         d="m 240.191,430.484 c -0.3,0.469 -1.082,1.079 -1.445,0.969 -0.691,-0.207 -1.523,-0.765 -1.797,-1.394 -1.668,-3.852 -3.191,-7.762 -4.769,-11.657 -0.313,-0.777 -0.688,-1.531 -0.946,-2.328 -0.347,-1.074 -0.355,-2.148 0.954,-2.554 1.332,-0.411 1.91,0.621 2.312,1.589 0.484,1.157 0.719,2.414 1.195,3.575 0.778,1.902 1.664,3.761 2.797,6.293 1.793,-2.043 2.789,-3.403 4.031,-4.485 0.485,-0.418 1.723,-0.523 2.235,-0.187 0.418,0.273 0.605,1.601 0.308,2.14 -1.507,2.743 -3.179,5.403 -4.875,8.039" /><path
         id="path98"
         style="fill:#231f20;fill-opacity:1;fill-rule:nonzero;stroke:none"
         d="m 254.246,446.203 c -1.394,3.953 -4.203,3.777 -6.715,1.324 -0.582,-0.57 -1.004,-1.351 -1.355,-2.101 -0.512,-1.098 -1.504,-2.41 -0.285,-3.434 1.828,-1.531 2.386,0.594 3.367,1.473 0.293,0.265 0.715,0.383 1.308,0.687 0.567,-1.078 1.258,-2.109 1.676,-3.242 0.805,-2.16 1.317,-4.441 2.223,-6.551 0.457,-1.07 1.433,-1.976 2.348,-2.761 0.324,-0.274 1.296,-0.16 1.707,0.14 0.418,0.309 0.839,1.188 0.683,1.606 -1.598,4.304 -3.43,8.527 -4.957,12.859" /><path
         id="path100"
         style="fill:#231f20;fill-opacity:1;fill-rule:nonzero;stroke:none"
         d="m 285.93,454.332 c -0.778,0.879 -1.852,1.488 -2.719,2.172 -3.137,-2.453 -3.188,-2.434 -4.098,-4.828 -0.48,-1.274 -1.511,-2.602 -0.148,-3.973 2.601,-0.375 2.265,2.664 4.258,3.485 0.476,-0.333 0.679,-0.426 0.812,-0.579 2.492,-2.847 4.586,-5.875 5.403,-9.718 0.292,-1.383 0.75,-3.301 3.246,-3.067 0.015,0.942 0.234,1.813 0.011,2.559 -1.476,5.019 -3.215,9.945 -6.765,13.949" /><path
         id="path102"
         style="fill:#231f20;fill-opacity:1;fill-rule:nonzero;stroke:none"
         d="m 366.641,357.961 c -4.383,0.019 -8.77,-0.063 -13.149,-0.231 -0.402,-0.011 -1.129,-0.906 -1.078,-1.308 0.094,-0.715 0.512,-1.625 1.082,-1.977 0.645,-0.39 1.625,-0.199 2.434,-0.367 0.336,-0.066 0.617,-0.418 0.922,-0.637 -0.403,-1.347 -0.801,-2.691 -1.2,-4.035 0.356,-0.285 0.711,-0.566 1.067,-0.851 3.254,1.804 6.523,3.586 9.75,5.441 0.5,0.289 0.851,0.891 1.191,1.399 0.52,0.777 -0.113,2.562 -1.019,2.566" /><path
         id="path104"
         style="fill:#231f20;fill-opacity:1;fill-rule:nonzero;stroke:none"
         d="m 426.559,438.164 c 0.379,-0.969 1.504,-1.644 2.574,-1.019 0.59,0.343 1.226,1.328 1.16,1.949 -0.352,3.316 -0.898,6.609 -1.43,9.906 -0.097,0.602 -0.39,1.184 -0.668,1.738 -0.847,1.707 -2.886,2.043 -4.105,0.633 -1.094,-1.258 -2.121,-2.578 -3.117,-3.918 -0.727,-0.973 -1.743,-2.015 -0.93,-3.324 1.113,-1.809 2.555,-0.504 3.875,-0.207 0.18,0.039 0.395,-0.055 1.113,-0.164 0.528,-2.004 0.856,-3.867 1.528,-5.594" /><path
         id="path106"
         style="fill:#231f20;fill-opacity:1;fill-rule:nonzero;stroke:none"
         d="m 461.18,477.16 c 0.804,0.61 1.586,1.25 3.238,2.567 0.172,-2.368 0.293,-3.579 0.34,-4.789 0.113,-2.891 1.113,-4.821 2.312,-4.325 1.977,0.825 1.746,2.672 1.664,4.305 -0.132,2.699 -0.199,5.434 -0.714,8.07 -0.415,2.137 -2.719,2.77 -4.442,1.328 -1.758,-1.468 -3.383,-3.125 -4.887,-4.851 -0.414,-0.477 -0.496,-1.699 -0.171,-2.254 0.683,-1.168 1.757,-0.738 2.66,-0.051" /><path
         id="path108"
         style="fill:#231f20;fill-opacity:1;fill-rule:nonzero;stroke:none"
         d="m 402.75,467.734 c 0.809,-1.875 1.34,-3.464 2.176,-4.875 0.336,-0.558 1.32,-0.929 2.054,-1.007 0.856,-0.09 1.946,1.449 1.61,2.285 -1.481,3.66 -3.027,7.293 -4.637,10.894 -0.223,0.5 -0.894,0.93 -1.445,1.114 -0.52,0.168 -1.313,0.183 -1.727,-0.106 -2.636,-1.844 -3.117,-4.586 -1.531,-8.152 1.012,-0.043 2.035,-0.086 3.5,-0.153" /><path
         id="path110"
         style="fill:#231f20;fill-opacity:1;fill-rule:nonzero;stroke:none"
         d="m 349.301,475.602 c 1.019,-0.625 1.922,0.062 2.683,0.867 0.383,0.406 0.918,0.664 1.653,1.168 1.261,-1.821 2.375,-3.508 3.582,-5.129 0.652,-0.879 2.273,-1.106 2.715,-0.36 0.382,0.641 0.754,1.684 0.488,2.239 -1.43,2.984 -2.899,5.968 -4.656,8.761 -1.489,2.368 -3.481,2.125 -4.664,-0.324 -0.715,-1.488 -1.356,-3.015 -2.09,-4.496 -0.504,-1.012 -0.758,-2.086 0.289,-2.726" /><path
         id="path112"
         style="fill:#231f20;fill-opacity:1;fill-rule:nonzero;stroke:none"
         d="m 224.344,434.906 c -1.203,1.387 -2.52,2.778 -5.047,3.074 -2.442,-2.75 -2.445,-5.878 -2.309,-8.992 0.024,-0.523 0.832,-1.011 1.551,-1.824 0.809,2.211 1.41,3.863 2.024,5.543 2.316,-0.723 3.05,-2.566 4.226,-3.965 0.93,-1.101 1.809,-2.285 2.918,-3.172 0.492,-0.39 1.703,-0.433 2.211,-0.086 0.395,0.274 0.543,1.641 0.211,2.102 -1.82,2.519 -3.75,4.969 -5.785,7.32" /><path
         id="path114"
         style="fill:#231f20;fill-opacity:1;fill-rule:nonzero;stroke:none"
         d="m 207.559,422.531 c -0.254,0.184 -0.793,-0.027 -1.594,-0.086 -1.246,-3.41 -1.711,-7.019 -0.746,-10.746 0.113,-0.437 0.836,-0.722 1.449,-1.215 1.762,2.125 0.184,4.817 2.641,5.981 1.39,-0.969 2.714,-1.985 4.14,-2.836 0.688,-0.41 1.559,-0.672 2.356,-0.695 0.511,-0.012 1.285,0.41 1.496,0.847 0.215,0.446 0.101,1.438 -0.242,1.703 -3.114,2.422 -6.297,4.746 -9.5,7.047" /><path
         id="path116"
         style="fill:#231f20;fill-opacity:1;fill-rule:nonzero;stroke:none"
         d="m 523.344,461.512 c -0.106,-0.336 0.031,-0.899 0.269,-1.164 0.375,-0.422 0.899,-0.785 1.43,-0.957 0.25,-0.082 0.828,0.265 0.973,0.558 1.386,2.762 2.75,5.531 4.015,8.348 0.219,0.488 -0.051,1.195 -0.093,1.762 -4.727,1.136 -6.454,0.464 -9.262,-3.606 1.254,-1.41 3.472,-2.371 2.668,-4.941" /><path
         id="path118"
         style="fill:#231f20;fill-opacity:1;fill-rule:nonzero;stroke:none"
         d="m 238.27,376.734 c -0.555,-2.367 -1.86,-3.992 -4.817,-4.578 -0.289,3.809 0.899,5.731 3.504,6.239 0.633,0.125 1.481,-0.946 1.313,-1.661 z m 6.757,8.43 c -2.91,0.996 -6.183,0.934 -9.293,1.348 -2.273,-0.117 -4.082,-1.035 -5.621,-2.617 -3.152,-3.243 -4.136,-7.133 -3.64,-11.555 0.968,-8.656 10.007,-13.621 17.769,-9.621 3.274,1.687 5.625,4.398 7.02,7.781 2.265,5.492 -0.66,12.746 -6.235,14.664" /><path
         id="path120"
         style="fill:#231f20;fill-opacity:1;fill-rule:nonzero;stroke:none"
         d="m 280.965,410.891 c -0.789,-0.051 -1.75,-0.325 -2.285,-0.848 -3.188,-3.121 -5.328,-6.926 -6.739,-11.129 -0.121,-0.359 0.454,-1.246 0.891,-1.422 0.441,-0.176 1.32,0.055 1.641,0.422 0.668,0.77 1.078,1.762 1.625,2.641 0.996,1.593 1.91,3.254 3.058,4.73 1.383,1.781 3.098,1.774 4.899,0.281 1.027,-0.855 1.629,-1.882 1.625,-3.23 -0.012,-3.344 0.019,-6.684 -0.055,-10.023 -0.039,-1.875 -0.258,-3.747 -0.406,-5.797 0.355,-1.278 0.582,-2.743 1.203,-4.004 0.266,-0.539 1.359,-0.871 2.094,-0.903 0.449,-0.019 1.074,0.621 1.367,1.118 0.301,0.5 0.515,1.246 0.375,1.785 -1.078,4.183 -0.164,8.332 0.062,12.492 0.114,2.082 0.282,4.203 0.028,6.258 -0.508,4.121 -5.258,7.906 -9.383,7.629" /></g></g></svg>