<?xml version="1.0" encoding="UTF-8" standalone="no"?>
<svg
   xmlns:dc="http://purl.org/dc/elements/1.1/"
   xmlns:cc="http://creativecommons.org/ns#"
   xmlns:rdf="http://www.w3.org/1999/02/22-rdf-syntax-ns#"
   xmlns:svg="http://www.w3.org/2000/svg"
   xmlns="http://www.w3.org/2000/svg"
   viewBox="0 0 100 100"
   height="100"
   width="100"
   xml:space="preserve"
   version="1.1"
   id="svg2"><metadata
     id="metadata8"><rdf:RDF><cc:Work
         rdf:about=""><dc:format>image/svg+xml</dc:format><dc:type
           rdf:resource="http://purl.org/dc/dcmitype/StillImage" /></cc:Work></rdf:RDF></metadata><defs
     id="defs6" /><g
     transform="matrix(1.25,0,0,-1.25,0,100)"
     id="g10"><g
       transform="scale(0.1,0.1)"
       id="g12"><path
         id="path14"
         style="fill:#171717;fill-opacity:1;fill-rule:nonzero;stroke:none"
         d="m 532.863,610.141 c 0.121,-4.907 -2.629,-7.414 -5.617,-9.391 -2.125,-1.406 -4.305,-1.707 -5.973,-0.832 -1.656,0.875 -2.632,2.82 -2.671,5.34 -0.024,1.332 0.511,2.957 1.359,4.14 1.422,1.977 3.187,3.965 5.254,5.903 0.933,0.875 1.976,1.332 3.015,1.332 0.274,0 0.551,-0.031 0.825,-0.098 1.347,-0.328 2.457,-1.461 3.039,-3.105 0.312,-0.879 0.484,-1.805 0.625,-2.547 0.051,-0.281 0.097,-0.531 0.144,-0.742 z M 408.359,403.785 c -0.461,-1 -0.933,-2.023 -1.437,-3.07 -3.969,3.16 -7.051,6.871 -9.676,11.648 l 0.391,0.657 c 0.375,0.632 0.754,1.277 1.16,1.91 0.676,1.054 1.367,2.093 2.062,3.14 1.36,2.047 2.77,4.168 4.012,6.332 2.492,4.34 4.957,8.782 7.34,13.082 1.543,2.778 3.082,5.559 4.641,8.329 0.695,1.234 1.5,2.441 2.281,3.609 l 0.566,0.851 c 1.27,1.922 2.559,3.836 3.844,5.75 2.617,3.895 5.324,7.915 7.844,11.965 4.648,7.469 9.254,15.133 13.707,22.547 1.277,2.125 2.558,4.25 3.836,6.375 2.953,4.903 5.89,9.817 8.828,14.727 6.594,11.027 13.41,22.429 20.312,33.519 2.317,3.719 5.157,7.207 7.907,10.578 1.242,1.524 2.527,3.102 3.746,4.676 l 2.613,3.387 c 2.461,3.187 5.004,6.484 7.543,9.695 2.559,3.238 5.223,6.465 7.957,9.758 2.195,2.652 4.41,5.289 6.742,8.066 1.027,1.223 2.078,2.473 3.16,3.762 0.164,-0.234 0.317,-0.43 0.446,-0.598 0.156,-0.207 0.336,-0.441 0.359,-0.46 -0.484,-1.196 -0.949,-2.395 -1.41,-3.594 -1.473,-3.824 -3,-7.785 -5.301,-11.395 -3.391,-5.316 -6.184,-11.133 -8.879,-16.758 l -0.699,-1.457 c -5.051,-10.5 -10.598,-20.41 -16.492,-29.457 -1.321,-2.027 -2.66,-4.043 -4,-6.058 -3.867,-5.821 -7.864,-11.836 -11.317,-18.024 -6.371,-11.418 -13.593,-22.562 -20.578,-33.339 -6.023,-9.297 -12.254,-18.907 -17.914,-28.657 -2.652,-4.578 -5.324,-9.144 -8,-13.715 -4.062,-6.957 -8.273,-14.156 -12.355,-21.261 -1.184,-2.067 -2.184,-4.231 -3.239,-6.52 z m -27.476,-16.488 c 0.789,1.23 1.601,2.5 2.422,3.824 l 8.144,-13.543 c -1.386,-4.547 -3.719,-8.699 -5.972,-12.719 -0.692,-1.226 -1.407,-2.5 -2.082,-3.761 -1.707,-3.188 -3.739,-6.493 -6.586,-10.711 -4.137,-6.121 -8.391,-12.313 -12.504,-18.297 -2.457,-3.578 -4.914,-7.156 -7.364,-10.742 -0.918,-1.344 -1.82,-2.739 -2.687,-4.086 -0.676,-1.047 -1.352,-2.09 -2.043,-3.129 -0.438,-0.664 -0.871,-1.336 -1.301,-2.016 -1.097,-1.715 -2.23,-3.496 -3.555,-5.058 -11.414,-13.524 -20.023,-28.625 -27.621,-42.93 -4.5,-8.477 -8.839,-15.984 -13.261,-22.957 -2.825,-4.457 -5.891,-8.867 -8.86,-13.133 -2.5,-3.594 -5.082,-7.309 -7.508,-11.031 -1.625,-2.492 -3,-5.195 -4.332,-7.813 -0.746,-1.461 -1.515,-2.976 -2.32,-4.429 l -0.754,-1.371 c -2.273,-4.122 -4.625,-8.383 -7.121,-12.465 -1.105,-1.805 -2.648,-3.367 -4.265,-4.938 -0.473,-0.461 -1.036,-0.644 -1.633,-0.578 -0.723,0.102 -1.395,0.606 -1.844,1.387 -1.789,3.109 -1.902,6.168 -0.328,8.605 2.433,3.77 4.055,7.957 5.625,12 1.172,3.028 2.387,6.153 3.926,9.074 1.519,2.879 3.011,5.77 4.507,8.661 5.118,9.886 10.411,20.109 16.539,29.66 1.981,3.086 3.833,6.328 5.618,9.461 1.449,2.539 2.949,5.164 4.507,7.691 1.583,2.563 3.293,5.113 4.942,7.582 1.617,2.414 3.289,4.906 4.844,7.418 2.16,3.485 4.257,7.082 6.285,10.563 1.277,2.195 2.554,4.386 3.855,6.566 2.414,4.047 5.289,8.828 8.278,13.594 6.859,10.933 12.894,20.476 18.453,29.168 0.718,1.125 1.613,2.176 2.476,3.195 0.41,0.484 0.821,0.965 1.215,1.453 5.688,7.098 12.102,15.469 16.199,25.043 1.598,3.731 3.786,7.149 6.106,10.762 z M 507.012,186.324 c -6.735,10.125 -14.496,22.239 -21.016,35.313 -2.641,5.297 -5.699,10.484 -8.66,15.504 -1.356,2.297 -2.754,4.675 -4.098,7.027 -0.23,0.406 -0.468,0.805 -0.707,1.211 -0.648,1.101 -1.316,2.238 -1.84,3.418 -3.328,7.539 -7.55,14.738 -11.636,21.707 -0.664,1.125 -1.328,2.258 -1.985,3.387 -1.05,1.797 -2.074,3.652 -3.066,5.445 -0.602,1.078 -1.195,2.16 -1.805,3.234 -1.597,2.832 -3.211,5.657 -4.82,8.481 -3.484,6.101 -7.09,12.414 -10.477,18.703 -2.562,4.758 -5.035,9.668 -7.425,14.418 -1.911,3.801 -3.887,7.726 -5.899,11.555 -0.555,1.05 -1.101,2.109 -1.652,3.168 -3.465,6.683 -7.047,13.593 -12.125,19.515 -1.86,2.176 -3.293,4.797 -4.68,7.332 -0.402,0.746 -0.808,1.485 -1.223,2.215 -1.957,3.445 -4.078,6.871 -6.125,10.184 -3.441,5.562 -7,11.316 -9.894,17.332 -1.613,3.343 -3.281,6.804 -6.649,9.097 -0.613,0.414 -0.984,1.231 -1.371,2.09 -0.179,0.399 -0.363,0.809 -0.574,1.176 -1.832,3.184 -3.648,6.371 -5.469,9.559 -4.14,7.257 -8.421,14.761 -12.757,22.07 -3.446,5.812 -6.243,12.051 -8.942,18.086 -0.863,1.926 -1.726,3.847 -2.609,5.765 -4.383,9.497 -8.332,19.204 -11.742,28.86 -1.176,3.332 -3.02,6.484 -4.805,9.535 -0.441,0.754 -0.883,1.508 -1.313,2.262 -1.332,2.328 -2.652,4.664 -3.976,6.996 -4.813,8.488 -9.789,17.265 -15.004,25.699 -1.434,2.316 -2.965,4.621 -4.445,6.855 -2.723,4.102 -5.539,8.344 -7.844,12.801 -5.758,11.125 -10.348,22.477 -13.649,33.731 l -0.21,0.718 c -0.727,2.473 -1.477,5.032 -2.114,7.567 -0.109,0.437 -0.047,0.933 0.035,1.555 0.028,0.214 0.055,0.441 0.082,0.679 0.207,-0.097 0.403,-0.179 0.582,-0.258 0.477,-0.203 0.817,-0.351 1.012,-0.589 7.594,-9.243 14.297,-18.965 19.918,-28.899 2.676,-4.73 5.629,-9.183 8.164,-12.918 7.137,-10.5 13.742,-21.347 19.641,-32.246 2.191,-4.055 4.14,-8.332 6.027,-12.469 0.914,-2 1.86,-4.066 2.817,-6.09 0.82,-1.726 1.605,-3.281 2.406,-4.75 3.566,-6.57 6.031,-12.14 7.762,-17.535 1.558,-4.859 3.804,-9.808 6.871,-15.132 1.761,-3.067 3.304,-6.325 4.793,-9.481 1.019,-2.148 2.07,-4.375 3.179,-6.519 4.762,-9.18 10.399,-19.985 16.133,-30.516 1.102,-2.031 2.453,-3.961 3.762,-5.824 0.82,-1.172 1.672,-2.383 2.449,-3.61 4.047,-6.355 8.051,-12.035 12.234,-17.359 6.352,-8.07 11.2,-15.754 14.825,-23.488 0.8,-1.703 1.672,-3.278 2.597,-4.672 6.801,-10.293 12.891,-20.692 18.098,-30.903 3.816,-7.492 8.379,-16.351 13.285,-25.269 1.918,-3.481 4.301,-7.109 7.289,-11.094 8.688,-11.582 17.727,-24.098 24.379,-38.57 4.797,-10.434 10.563,-22.461 18.285,-33.125 6.864,-9.477 11.305,-20.246 14.746,-29.531 1.852,-4.985 2.457,-10.34 1.918,-16.868 -0.105,-1.332 -0.859,-2.418 -2.011,-2.906 -1.121,-0.469 -2.383,-0.254 -3.399,0.582 -2.062,1.695 -3.883,3.699 -5.273,5.789 z M 283.344,609.242 c -0.317,-0.547 -0.989,-1.086 -1.844,-1.476 -1.961,-0.907 -3.035,-0.911 -8.684,0.031 -0.211,0.59 -0.437,1.16 -0.66,1.719 -0.515,1.289 -0.996,2.504 -1.222,3.761 -0.289,1.621 0.101,3.137 1.089,4.258 1.024,1.16 2.594,1.789 4.336,1.688 1.289,-0.067 2.582,-0.328 3.743,-0.762 1.984,-0.746 3.402,-2.066 3.992,-3.715 0.597,-1.668 0.332,-3.621 -0.75,-5.504 z m 252.504,9.766 c -3.02,3.793 -7.696,4.847 -11.641,2.621 -8.348,-4.723 -12.148,-10.676 -11.617,-18.195 0.32,-4.567 -1.418,-7.778 -4.125,-11.188 -3.735,-4.699 -7.485,-9.516 -11.11,-14.172 -3.851,-4.957 -7.843,-10.082 -11.82,-15.074 -2.113,-2.652 -4,-5.527 -5.824,-8.305 -2.59,-3.937 -5.262,-8.011 -8.609,-11.492 -1.063,-1.109 -1.75,-2.582 -2.43,-4.043 -3.406,-7.301 -7.809,-14.172 -12.063,-20.816 -2.191,-3.422 -4.457,-6.957 -6.562,-10.516 -4.274,-7.219 -8.879,-14.785 -14.504,-23.805 -3.949,-6.339 -8.039,-12.742 -11.992,-18.929 -1.336,-2.098 -2.68,-4.199 -4.016,-6.297 -0.847,-1.328 -1.711,-2.645 -2.574,-3.961 -1.539,-2.344 -3.129,-4.766 -4.59,-7.215 -2.375,-3.996 -4.746,-8.086 -7.039,-12.039 -2.293,-3.953 -4.664,-8.039 -7.039,-12.031 -1.188,-1.996 -2.527,-4.25 -5.379,-5.453 -0.25,0.578 -0.484,1.136 -0.711,1.683 -0.527,1.289 -1.031,2.504 -1.668,3.645 -1.39,2.496 -2.847,5.012 -4.254,7.441 -2.301,3.969 -4.676,8.067 -6.836,12.192 -1.347,2.578 -2.765,5.175 -4.136,7.691 -3.414,6.254 -6.942,12.723 -9.723,19.43 -0.301,0.718 -0.703,1.398 -1.09,2.062 -0.277,0.469 -0.562,0.961 -0.805,1.453 -0.472,0.953 -0.953,1.907 -1.429,2.864 -1.375,2.746 -2.801,5.589 -4.047,8.449 -1.414,3.246 -2.781,6.574 -4.106,9.797 -1.238,3.011 -2.519,6.125 -3.836,9.168 -2.164,5.011 -4.179,9.347 -6.16,13.25 -0.894,1.769 -1.785,3.547 -2.672,5.32 -3.121,6.242 -6.347,12.699 -9.976,18.785 -4.18,7.004 -8.656,13.985 -12.985,20.738 -2.957,4.606 -6.007,9.368 -8.941,14.098 -0.828,1.34 -1.648,2.684 -2.469,4.027 -3.847,6.305 -7.824,12.821 -12.746,18.571 -4.008,4.676 -5.344,9.047 -4.195,13.758 0.73,2.996 -0.66,5.316 -1.953,7.003 -3.539,4.629 -10.332,6.676 -15.805,4.762 -1.105,-0.387 -2.133,-1.039 -2.816,-1.785 -3.086,-3.352 -4.395,-7.645 -3.598,-11.773 0.766,-3.977 3.445,-7.325 7.344,-9.188 3.164,-1.512 5.062,-3.672 6.148,-7.004 l 0.856,-2.625 c 1.328,-4.105 2.699,-8.347 4.273,-12.441 0.754,-1.957 1.485,-3.961 2.192,-5.903 2.937,-8.062 5.976,-16.398 11.343,-23.527 0.27,-0.359 0.446,-0.797 0.629,-1.258 0.067,-0.164 0.133,-0.32 0.203,-0.48 2.032,-4.649 4.844,-8.633 8.043,-12.992 0.516,-0.704 1.039,-1.407 1.563,-2.11 2.617,-3.511 5.316,-7.14 7.222,-11.062 3.122,-6.422 6.657,-12.739 10.079,-18.844 1.273,-2.277 2.55,-4.555 3.808,-6.84 1.235,-2.25 2.445,-4.785 3.699,-7.75 l 1.918,-4.519 c 3.028,-7.129 6.161,-14.496 9.047,-21.821 5.422,-13.758 10.961,-24.652 17.438,-34.293 1.984,-2.957 3.711,-6.164 5.379,-9.265 0.613,-1.133 1.222,-2.27 1.847,-3.395 1.696,-3.058 3.434,-6.305 5.313,-9.933 1.101,-2.125 2.172,-4.278 3.301,-6.551 0.511,-1.024 1.031,-2.071 1.574,-3.156 -0.676,-1.364 -1.36,-2.723 -2.043,-4.082 -1.563,-3.102 -3.176,-6.309 -4.61,-9.528 -3.3,-7.406 -6.39,-13.457 -10.75,-18.937 -10.375,-13.032 -19.101,-27.473 -27.535,-41.442 -0.925,-1.527 -1.847,-3.054 -2.769,-4.582 -1.84,-3.027 -3.664,-6.129 -5.434,-9.129 -2.648,-4.504 -5.39,-9.16 -8.215,-13.66 -3.191,-5.074 -6.519,-10.18 -9.734,-15.121 -3.438,-5.273 -6.992,-10.734 -10.391,-16.164 -5.183,-8.297 -9.582,-15.793 -13.441,-22.918 -5.469,-10.09 -10.512,-20.164 -15.149,-29.547 -0.812,-1.644 -1.726,-3.273 -2.617,-4.847 -1.664,-2.961 -3.386,-6.02 -4.515,-9.364 -1.836,-5.433 -1.047,-10.191 2.41,-14.551 2.039,-2.574 5.133,-3.246 8.062,-1.757 3.235,1.64 5.285,3.488 6.453,5.804 1.157,2.289 2.508,4.528 3.821,6.692 2.183,3.609 4.437,7.343 5.867,11.468 1.766,5.09 4.762,9.477 8.211,14.27 l 0.109,0.156 c 4.934,6.86 10.032,13.957 14.274,21.391 1.425,2.496 2.91,5.016 4.343,7.449 3.418,5.809 6.957,11.813 9.985,18 4.469,9.141 10.109,18.125 17.246,27.465 3.32,4.348 6.43,8.969 9.434,13.441 2.339,3.477 4.761,7.075 7.265,10.52 13.785,18.953 24.922,35.187 34.469,52.816 0.16,0.305 0.476,0.559 0.875,0.883 0.168,0.141 0.355,0.289 0.551,0.465 0.265,-0.324 0.531,-0.633 0.797,-0.941 0.687,-0.801 1.335,-1.555 1.847,-2.395 0.906,-1.492 1.766,-3.066 2.594,-4.586 1.582,-2.894 3.219,-5.891 5.281,-8.496 3.567,-4.508 6.313,-9.57 8.969,-14.465 0.551,-1.012 1.094,-2.019 1.652,-3.027 3.2,-5.793 6.375,-11.727 9.446,-17.465 2.371,-4.426 4.82,-9.004 7.269,-13.484 2.051,-3.766 4.262,-7.524 6.399,-11.157 3.703,-6.297 7.535,-12.812 10.671,-19.562 0.258,-0.563 0.586,-1.09 0.903,-1.602 0.148,-0.238 0.297,-0.476 0.437,-0.718 1.063,-1.825 2.141,-3.641 3.215,-5.454 2.383,-4.011 4.844,-8.16 7.09,-12.336 0.914,-1.699 1.816,-3.402 2.719,-5.105 2.57,-4.855 5.226,-9.871 8.117,-14.672 3.82,-6.336 7.555,-12.863 11.168,-19.18 2.656,-4.64 5.402,-9.437 8.16,-14.128 1.844,-3.137 4.07,-6.356 6.797,-9.84 l 0.07,-0.09 c 1.324,-1.695 2.578,-3.297 3.285,-5.414 1.309,-3.895 3.879,-7.254 7.645,-9.992 1.703,-1.235 3.426,-1.852 5.238,-1.852 1.571,0 3.215,0.465 4.977,1.391 3.515,1.847 4.91,5.027 5.89,8.187 l 0.039,0.117 -0.07,0.106 c -1.621,2.465 -2.41,4.715 -2.484,7.07 -0.063,2.074 -0.758,4.145 -1.43,6.149 l -0.117,0.351 c -0.856,2.559 -1.836,5.121 -2.785,7.598 -0.301,0.789 -0.602,1.578 -0.903,2.367 -4.125,10.926 -8.675,19.242 -14.324,26.172 -0.937,1.144 -1.898,2.39 -2.59,3.722 -1.57,3.036 -3.164,6.059 -4.757,9.079 -4.313,8.179 -8.774,16.632 -12.641,25.207 -0.195,0.441 -0.449,0.855 -0.692,1.261 -0.207,0.348 -0.421,0.703 -0.597,1.067 -3.656,7.523 -8.742,14.23 -13.66,20.715 -2.059,2.714 -4.188,5.519 -6.176,8.343 -3.488,4.946 -7.117,10.344 -10.035,16.317 -1.192,2.441 -2.469,4.836 -3.672,7.082 l -1.738,3.23 c -2.622,4.879 -5.332,9.926 -8.063,14.852 -2.562,4.617 -5.625,10.074 -8.922,15.558 -1.109,1.844 -2.32,3.661 -3.488,5.418 -1.481,2.231 -3.016,4.536 -4.348,6.899 -2.746,4.867 -5.285,9.711 -7.976,14.836 -1.094,2.086 -2.196,4.179 -3.317,6.285 l 0.192,0.508 c 2.457,6.593 5,13.414 8.988,19.593 3.016,4.657 5.777,9.583 8.445,14.344 0.86,1.528 1.715,3.051 2.578,4.571 0.872,1.527 1.704,3.109 2.508,4.64 1.223,2.32 2.485,4.723 3.895,6.969 4.847,7.699 9.824,15.496 14.64,23.035 3.688,5.766 7.371,11.535 11.032,17.32 2.203,3.477 4.297,7.094 6.32,10.598 l 1.969,3.402 c 3.519,6.11 7.168,12.426 11.461,18.239 3.957,5.359 7.82,11.402 12.148,19.019 5.731,10.063 11.285,20.446 16.66,30.485 l 1.774,3.308 c 1.043,1.945 2.215,3.867 3.343,5.727 2.258,3.711 4.594,7.547 6.075,11.812 1.082,3.121 3.324,5.59 6.855,7.539 2.731,1.508 4.949,4.008 6.328,5.836 3.61,4.793 3.34,12.727 -0.601,17.684" /></g></g></svg>