<?xml version="1.0" encoding="UTF-8" standalone="no"?>
<svg
   xmlns:dc="http://purl.org/dc/elements/1.1/"
   xmlns:cc="http://creativecommons.org/ns#"
   xmlns:rdf="http://www.w3.org/1999/02/22-rdf-syntax-ns#"
   xmlns:svg="http://www.w3.org/2000/svg"
   xmlns="http://www.w3.org/2000/svg"
   viewBox="0 0 100 100"
   height="100"
   width="100"
   xml:space="preserve"
   version="1.1"
   id="svg2"><metadata
     id="metadata8"><rdf:RDF><cc:Work
         rdf:about=""><dc:format>image/svg+xml</dc:format><dc:type
           rdf:resource="http://purl.org/dc/dcmitype/StillImage" /></cc:Work></rdf:RDF></metadata><defs
     id="defs6" /><g
     transform="matrix(1.25,0,0,-1.25,0,100)"
     id="g10"><g
       transform="scale(0.1,0.1)"
       id="g12"><path
         id="path14"
         style="fill:#231f20;fill-opacity:1;fill-rule:nonzero;stroke:none"
         d="m 409.68,461.828 c 1.031,2.313 -0.242,4.473 -0.532,6.699 -0.289,2.219 -1.765,3.266 -3.789,3.575 -7.281,1.109 -14.582,1.203 -21.886,0.234 -1.985,-0.266 -3.442,-1.285 -4.539,-2.992 -1.282,-1.985 -2.106,-4.016 -1.696,-6.371 5.516,-1.735 23.84,-2.368 32.442,-1.145 z M 541.098,246.793 c 6.039,-0.012 12.925,0.305 19.722,1.703 4.91,1.012 9.778,2.277 14.715,3.109 5.235,0.887 10.172,2.579 14.715,5.18 5.617,3.219 11.148,6.625 16.461,10.32 10.309,7.176 17.73,17.016 24.441,27.446 0.336,0.523 0.563,1.121 0.789,1.703 3.145,7.969 6.289,15.937 9.403,23.918 0.453,1.164 0.926,2.375 1.062,3.598 1.063,9.566 2.071,19.132 3.024,28.71 0.164,1.653 0.187,3.372 -0.075,5.008 -1.019,6.399 -1.921,12.84 -3.382,19.145 -0.938,4.031 -2.184,8.219 -4.332,11.687 -4.5,7.274 -8.059,15.18 -13.883,21.598 -2.813,3.098 -5.75,6.082 -8.41,9.301 -4.348,5.258 -9.758,9.082 -15.614,12.418 -2.722,1.547 -5.293,3.355 -7.941,5.027 -6.535,4.133 -13.066,8.266 -19.617,12.363 -0.883,0.555 -1.824,1.09 -2.813,1.371 -8.039,2.282 -16.078,4.582 -24.16,6.7 -3.019,0.789 -6.148,1.449 -9.25,1.574 -9.199,0.363 -18.418,0.808 -27.609,0.535 -13.574,-0.398 -27.121,-1.484 -40.731,-1.387 -12.117,0.086 -24.238,-0.648 -36.359,-0.648 -12.547,0 -25.109,0.09 -37.633,0.789 -14.433,0.809 -28.84,0.797 -43.273,0.48 -7.102,-0.156 -14.215,0.254 -21.321,0.504 -4.593,0.164 -9.203,-0.09 -13.785,-0.199 -8.351,-0.203 -16.672,-0.019 -25.023,-0.324 -12.324,-0.453 -24.664,-0.086 -36.977,-1.359 -6.883,-0.715 -13.512,-1.61 -20.066,-4.204 -10.09,-3.992 -20.656,-6.765 -30.09,-12.375 -1.422,-0.847 -3.113,-1.234 -4.582,-2.019 -1.816,-0.969 -3.719,-1.918 -5.262,-3.25 -3.793,-3.277 -6.953,-7.203 -10.398,-10.82 -6.989,-7.34 -12.297,-15.844 -17.961,-24.086 -4.934,-7.176 -9.328,-22.758 -10.004,-31.36 -0.531,-6.722 -0.324,-13.398 0.559,-20.031 1.546,-11.621 3.613,-23.141 8.703,-33.867 1.789,-3.778 3.437,-7.625 5.222,-11.403 4.504,-9.535 10.11,-18.156 18.317,-25.132 4.367,-3.707 9.09,-6.657 13.914,-9.543 12.011,-7.196 23.906,-14.68 37.527,-18.621 3.399,-0.981 6.875,-1.813 10.375,-2.301 4.555,-0.633 9.16,-0.938 13.754,-1.223 2.492,-0.156 5.031,-0.211 7.504,0.082 12.535,1.492 24.684,4.344 35.832,10.59 2,1.117 4.07,2.188 6.23,2.926 4.247,1.449 7.868,3.738 11.086,6.859 1.317,1.274 3.133,2.047 4.758,2.977 1.813,1.039 3.758,1.863 5.481,3.023 2.191,1.477 4.507,1.93 7.105,1.914 5.426,-0.031 10.856,0.188 16.281,0.227 2.922,0.019 5.852,-0.078 8.77,-0.211 2.703,-0.125 5.398,-0.508 8.101,-0.535 7.934,-0.078 15.868,-0.133 23.797,-0.012 8.567,0.137 13.301,-0.355 21.973,-0.348 2.621,0.118 5.07,-0.09 7.414,-0.047 5.504,-0.351 9.848,0.329 14.996,-0.195 1.027,0.106 2.645,0.106 3.637,-0.008 7.883,-0.898 15.769,-1.812 23.625,-2.922 1.805,-0.257 3.551,-1.179 5.226,-1.996 1.875,-0.91 3.579,-2.179 5.465,-3.058 7.367,-3.449 14.836,-6.692 22.168,-10.223 11.875,-5.719 24.399,-8.586 38.399,-9.078 z M 387.27,478.004 c 3.609,-1.363 7.316,-0.332 11.316,-0.715 0.234,1.84 0.516,3.223 0.57,4.617 0.16,4.164 0,8.324 1.157,12.438 2.097,7.461 6.73,13.031 13.085,16.992 7.903,4.922 13.434,11.785 18,19.66 4.411,7.609 8.649,15.293 11.723,23.563 0.359,0.964 0.836,1.98 1.543,2.683 0.465,0.457 1.598,0.731 2.156,0.477 0.582,-0.262 0.91,-1.227 1.188,-1.949 0.121,-0.309 -0.129,-0.797 -0.285,-1.172 -4.977,-12.239 -10.996,-23.91 -18.703,-34.68 -3.336,-4.66 -7.372,-8.59 -12.227,-11.57 -9.66,-5.93 -13.852,-14.688 -13.797,-25.762 0.004,-1.258 -0.008,-2.512 0.031,-3.77 0.016,-0.406 0.172,-0.804 0.36,-1.617 1.16,-0.328 2.488,-0.82 3.863,-1.074 3.051,-0.562 4.758,-2.422 5.488,-5.32 0.41,-1.625 0.735,-3.274 1.223,-4.871 0.477,-1.563 1.105,-3.075 1.769,-4.879 5.614,-0.102 11.04,-0.375 16.458,-0.262 12.332,0.262 24.671,1.238 36.984,0.93 10.707,-0.274 21.297,0.949 31.933,1.355 7.485,0.285 14.985,-0.25 22.454,0.488 1.441,0.145 2.929,-0.003 4.386,-0.16 14.157,-1.531 28.203,-3.664 41.782,-8.152 1.777,-0.586 3.511,-1.391 5.128,-2.332 11.563,-6.754 22.676,-14.199 33.575,-21.969 7.05,-5.031 12.394,-11.785 18.125,-18.16 5.644,-6.281 9.84,-13.535 14.074,-20.715 2.301,-3.902 3.91,-8.383 4.969,-12.808 1.75,-7.301 3.039,-14.739 4.074,-22.18 0.871,-6.25 -0.164,-12.52 -1.016,-18.742 -0.312,-2.278 -0.847,-4.528 -1.054,-6.813 -0.508,-5.648 -1.903,-11.008 -3.723,-16.418 -2.617,-7.762 -6.176,-15.082 -9.375,-22.562 -1.453,-3.391 -3.891,-6.426 -6.215,-9.36 -4.406,-5.558 -8.418,-11.48 -14.144,-15.886 -7.629,-5.875 -15.348,-11.61 -24.223,-15.532 -3.824,-1.687 -7.695,-3.152 -11.848,-4.015 -8.183,-1.696 -16.226,-4.098 -24.574,-4.926 -10.687,-1.059 -21.344,-0.77 -31.816,1.711 -7.93,1.879 -15.778,4.043 -22.95,8.203 -2.863,1.66 -6.164,2.555 -9.203,3.934 -4.558,2.07 -9.14,4.117 -13.566,6.453 -3.543,1.867 -7.16,3.144 -11.078,4.109 -10.317,2.535 -20.793,1.91 -31.215,2.442 -19.875,1.007 -39.742,0.453 -59.613,-0.04 -1.465,-0.039 -2.93,-0.113 -4.391,-0.074 -8.359,0.203 -16.719,0.379 -25.074,0.692 -3.426,0.129 -6.414,-0.571 -9.563,-2.176 -4.687,-2.387 -9.215,-4.856 -13.254,-8.242 -1.093,-0.918 -2.531,-1.442 -3.847,-2.071 -3.207,-1.527 -6.547,-2.812 -9.637,-4.55 -10.387,-5.836 -21.77,-8.469 -33.324,-10.45 -3.879,-0.668 -7.926,-0.648 -11.883,-0.531 -5.223,0.156 -10.465,0.484 -15.641,1.18 -3.699,0.496 -7.386,1.461 -10.929,2.664 -7.317,2.488 -14.512,5.262 -21.125,9.437 -7.77,4.907 -15.883,9.282 -23.602,14.266 -9.062,5.855 -16.266,13.52 -21.844,22.895 -5.066,8.507 -8.16,17.847 -12.363,26.71 -0.977,2.055 -1.543,4.336 -2.078,6.571 -1.117,4.676 -1.996,9.41 -3.137,14.078 -2.863,11.758 -2.871,23.613 -1.394,35.527 0.156,1.227 0.586,2.426 0.949,3.621 1.035,3.399 2.266,6.75 3.125,10.192 1.394,5.57 3.633,11.742 6.98,16.289 5.7,7.746 10.032,13.363 16.297,20.644 3.653,4.246 8.09,8.172 12.43,11.774 2.539,2.109 6.516,4.574 10.144,6.14 0.981,0.114 3.754,2.204 4.629,2.754 8.086,5.063 13.856,4.934 22.618,8.317 1.558,0.601 4.043,1.293 5.492,2.082 4.715,2.562 10.957,3.222 16.343,3.109 3.333,-0.07 6.672,0.539 10.012,0.649 11.078,0.367 22.176,0.402 33.238,1.015 14.649,0.82 29.258,0.559 43.903,0.059 10.871,-0.371 21.762,-0.02 32.644,0.039 0.809,0.004 1.614,0.258 2.727,0.449 0.379,1.164 0.781,2.301 1.109,3.457 0.172,0.598 0.153,1.25 0.313,1.856 1.25,4.668 3.179,6.742 8.476,9.128 0.668,6.426 1.289,12.872 2.016,19.301 1.215,10.801 5.957,19.442 15.422,25.258 10.93,6.723 19.355,15.856 25.656,27.008 1.024,1.808 2.18,3.562 3.484,5.176 0.379,0.464 1.684,0.707 2.184,0.41 0.535,-0.321 0.922,-1.434 0.832,-2.129 -0.129,-0.981 -0.68,-1.942 -1.183,-2.836 -6.883,-12.195 -15.583,-22.754 -27.504,-30.395 -1.055,-0.675 -2.055,-1.449 -3.121,-2.105 -5.899,-3.645 -8.915,-9.262 -10.657,-15.695 -1.593,-5.875 -2.457,-15.332 -2.261,-23.137" /><path
         id="path16"
         style="fill:#231f20;fill-opacity:1;fill-rule:nonzero;stroke:none"
         d="m 455.336,347.949 c -0.043,-2.355 -0.051,-4.027 -0.109,-5.699 -0.18,-5.059 0.195,-10.105 1.8,-14.879 2.856,-8.5 5.793,-17 10.606,-24.676 0.996,-1.586 2.097,-3.117 3.031,-4.738 7.762,-13.5 19.438,-22.121 33.965,-27.082 4.937,-1.687 10.098,-2.738 15.023,-4.449 3.379,-1.176 6.735,-2.227 10.282,-2.672 5.179,-0.652 10.343,-1.789 15.535,-1.926 6.019,-0.156 12.125,-0.258 18.031,1.594 8.172,2.566 16.383,4.988 24.551,7.555 1.375,0.429 2.773,1.089 3.894,1.976 5.235,4.145 10.973,7.863 15.434,12.735 9.644,10.535 17.559,22.238 21.637,36.273 2.07,7.129 3.781,14.262 2.738,21.578 -1.027,7.234 -2.395,14.406 -2.742,21.727 -0.157,3.324 -0.426,6.64 -0.754,9.953 -0.262,2.683 -0.496,5.394 -1.074,8.019 -1.243,5.668 -4.86,10.075 -8.051,14.735 -6.028,8.789 -14.199,15.246 -22.621,21.465 -0.828,0.613 -1.856,0.953 -2.785,1.433 -3.707,1.93 -7.543,3.645 -11.082,5.84 -5.555,3.441 -11.653,5.644 -17.653,8.012 -3.644,1.437 -7.73,1.722 -11.519,2.851 -4.149,1.235 -8.305,1.344 -12.407,0.399 -6.5,-1.496 -12.984,-3.145 -19.363,-5.098 -4.773,-1.461 -9.39,-3.453 -14.043,-5.301 -7.867,-3.129 -14.398,-8.476 -21.156,-13.328 -5.574,-3.996 -10.727,-8.676 -13.633,-15.273 -0.91,-2.063 -2.316,-4 -3.836,-5.688 -3.027,-3.355 -4.773,-7.305 -6.117,-11.523 -1.332,-4.176 -2.5,-8.43 -4.172,-12.477 -2.93,-7.101 -4.473,-14.34 -3.41,-21.336 z m -4.93,-1.523 c 0.004,0.207 0.028,0.418 0.008,0.625 -0.797,8.105 0.598,15.738 4.219,23.109 1.633,3.332 2.305,7.149 3.336,10.766 1.566,5.472 3.668,10.66 7.363,15.109 1.191,1.438 2.238,3.055 3.07,4.727 3.657,7.34 9.356,12.902 15.934,17.426 5.824,4.011 11.574,8.152 17.859,11.562 7.262,3.938 14.953,6.508 22.754,8.805 6.395,1.883 12.989,3.117 19.531,4.429 1.786,0.36 3.782,0.278 5.571,-0.109 7.953,-1.723 15.996,-3.199 23.394,-6.84 3.18,-1.562 6.36,-3.125 9.52,-4.722 4.289,-2.168 8.562,-4.364 12.836,-6.563 1.672,-0.859 3.512,-1.523 4.933,-2.691 6.618,-5.426 13.758,-10.305 19.004,-17.223 4.414,-5.816 9.016,-11.504 11.535,-18.551 1.223,-3.418 1.93,-6.816 1.829,-10.41 -0.024,-0.836 -0.231,-1.684 -0.137,-2.504 0.933,-8.09 1.519,-16.242 3,-24.234 1.168,-6.321 1.168,-12.551 0.082,-18.703 -2.402,-13.59 -8.133,-25.879 -16.254,-36.969 -6.828,-9.328 -14.777,-17.621 -24.648,-23.84 -1.934,-1.215 -3.965,-2.387 -6.102,-3.152 -7.863,-2.813 -15.691,-5.735 -23.91,-7.477 -8.031,-1.699 -16.028,-2.816 -24.242,-1.476 -4.321,0.703 -8.707,1.007 -13.043,1.617 -2.067,0.289 -4.129,0.73 -6.118,1.343 -4.992,1.532 -9.929,3.231 -14.906,4.805 -5.797,1.832 -11.453,4.094 -16.699,7.094 -7.637,4.363 -14.82,9.391 -19.246,17.422 -1.203,2.183 -2.688,4.23 -4.203,6.219 -4.762,6.242 -7.438,13.488 -10.176,20.714 -1.477,3.899 -2.883,7.821 -4.391,11.707 -1.464,3.782 -1.839,7.7 -1.703,11.707 0.071,2.09 0.082,4.184 0.117,6.274 -0.039,0 -0.078,0.004 -0.117,0.004" /><path
         id="path18"
         style="fill:#231f20;fill-opacity:1;fill-rule:nonzero;stroke:none"
         d="m 261.324,296.012 c 0.004,-0.192 0.906,-0.016 0.91,-0.203 3.536,0.101 7.106,-0.059 10.602,0.382 3.5,0.438 6.898,1.622 10.383,2.223 8.941,1.543 14.953,7.309 19.769,14.27 3.668,5.296 6.61,11.132 8.426,17.429 2.152,7.465 2.996,15.149 3.785,22.828 0.184,1.786 -0.273,3.766 -0.906,5.477 -1.602,4.305 -3.207,8.648 -5.289,12.73 -5.234,10.258 -13.844,18.348 -24.066,24.122 -6.278,3.543 -11.661,6.003 -18.45,8.003 -3.972,1.165 -8.203,2.145 -12.289,2.043 -5.172,-0.132 -10.304,-1.531 -15.472,-2.238 -6.997,-0.957 -12.387,-4.75 -17.231,-9.519 -1.633,-1.61 -3.051,-3.434 -4.539,-5.184 -4.371,-5.129 -7.598,-10.988 -10.574,-16.973 -4.457,-8.961 -5.817,-18.265 -2.074,-27.836 2.054,-5.246 4.101,-10.535 6.671,-15.539 3.961,-7.707 9.305,-14.511 16.524,-19.375 5.348,-3.597 11.226,-6.429 16.969,-9.41 3.363,-1.742 7.039,-2.64 10.863,-2.738 2.297,-0.059 3.691,-0.453 5.988,-0.492 z m 2.321,-4.875 c -14.957,-0.059 -27.625,6.144 -39.633,14.113 -2.047,1.359 -3.688,3.379 -5.399,5.199 -5.027,5.34 -9.675,10.903 -12.246,17.985 -1.562,4.304 -3.976,8.296 -5.582,12.589 -4.265,11.422 -3.293,22.551 2.551,33.231 4.434,8.09 9.562,15.691 15.898,22.449 6.305,6.727 14.051,10.317 23.196,11.035 3.961,0.309 7.91,0.746 11.871,0.992 4.461,0.278 11.215,-1.429 15.344,-2.714 9.378,-2.922 16.058,-6.137 24.203,-11.805 7.683,-5.348 13.746,-12.207 17.937,-20.586 2.238,-4.48 4.184,-9.117 6.024,-13.781 0.746,-1.899 1.382,-4.106 1.168,-6.071 -0.961,-8.695 -1.149,-17.531 -4.278,-25.886 -2.879,-7.688 -6.668,-14.844 -11.719,-21.328 -2.593,-3.329 -5.578,-6.246 -9.152,-8.473 -1.562,-0.977 -3.301,-1.801 -5.07,-2.297 -5.227,-1.461 -10.469,-2.918 -15.785,-3.992 -3.032,-0.609 -6.215,-0.465 -9.328,-0.66" /><path
         id="path20"
         style="fill:#231f20;fill-opacity:1;fill-rule:nonzero;stroke:none"
         d="m 348.988,319.988 c 2.563,0.012 3.758,0.453 6.403,2.575 3.89,3.128 7.789,6.257 11.57,9.515 1.883,1.621 3.629,3.442 5.211,5.356 1.035,1.257 1.879,2.769 2.43,4.304 1.16,3.235 -1.282,6.11 -4.543,5.348 -3.036,-0.707 -5.981,-1.684 -8.274,-4.074 -1.574,-1.645 -3.445,-3 -5.133,-4.543 -3.992,-3.645 -8.136,-7.149 -11.871,-11.047 -2.961,-3.094 -1.57,-6.539 2.574,-7.266 0.614,-0.105 1.239,-0.129 1.633,-0.168 z m -0.101,-4.465 c -0.61,0.129 -1.617,0.45 -2.645,0.54 -6.426,0.578 -9.492,8.148 -4.601,13.816 2.437,2.824 5.359,5.238 8.144,7.746 3.254,2.926 6.625,5.715 9.891,8.621 3.246,2.887 7.336,3.969 11.324,4.91 3.922,0.926 7.293,-2.035 8.023,-6.043 0.653,-3.562 -0.277,-6.664 -2.605,-9.289 -1.934,-2.176 -3.984,-4.285 -6.199,-6.168 -4.606,-3.914 -9.367,-7.636 -14.043,-11.472 -2.008,-1.645 -4.258,-2.582 -7.289,-2.661" /><path
         id="path22"
         style="fill:#231f20;fill-opacity:1;fill-rule:nonzero;stroke:none"
         d="m 423.898,347.172 c -0.929,-0.406 -1.773,-0.613 -2.429,-1.082 -6.621,-4.746 -13.235,-9.512 -19.793,-14.344 -0.981,-0.723 -1.809,-1.742 -2.492,-2.769 -1.02,-1.528 -0.973,-3.141 0.148,-4.668 2.254,-3.075 5.387,-3.782 8.766,-1.282 6.039,4.461 11.832,9.254 17.703,13.938 0.644,0.515 1.191,1.183 1.672,1.859 1.05,1.481 0.988,3.176 -0.196,4.598 -1.062,1.281 -2.226,2.48 -3.379,3.75 z m -19.39,-30.059 c -5.238,0.164 -10.098,4.41 -10.61,8.575 -0.121,0.976 0.094,2.105 0.497,3.015 1.281,2.899 3.132,5.36 5.793,7.223 6.312,4.422 12.554,8.945 18.839,13.414 0.676,0.48 1.387,0.937 2.149,1.265 2.285,0.985 4.988,1.172 6.289,-0.917 1.937,-3.11 7.164,-4.614 5.289,-9.684 -0.641,-1.734 -1.707,-3.332 -2.734,-4.887 -0.563,-0.847 -1.383,-1.574 -2.207,-2.199 -6.141,-4.656 -12.25,-9.363 -18.52,-13.844 -1.609,-1.152 -3.758,-1.558 -4.785,-1.961" /><path
         id="path24"
         style="fill:#231f20;fill-opacity:1;fill-rule:nonzero;stroke:none"
         d="m 536.242,408.281 c -7.762,-5.621 -14.824,-10.785 -21.949,-15.863 -4.082,-2.914 -8.41,-5.496 -12.379,-8.555 -8.137,-6.269 -15.34,-13.574 -22.226,-21.172 -1.516,-1.675 -3.083,-3.621 -3.711,-5.714 -1.192,-3.973 -2.133,-8.118 -2.434,-12.243 -0.652,-8.906 4.055,-15.5 10.215,-21.242 0.894,-0.832 2.078,-1.433 3.222,-1.91 9.805,-4.074 19.188,-3.422 27.911,2.859 5.089,3.664 10.043,7.512 15.062,11.266 6.524,4.879 13.172,9.594 19.539,14.66 5.719,4.551 11.383,9.223 16.606,14.321 4.847,4.73 7.925,10.699 9.254,17.445 0.121,0.605 0.117,1.25 0.082,1.871 -0.536,9.25 -7.672,18.687 -16.598,21.652 -5.164,1.719 -10.449,2.91 -15.992,2.539 -2.489,-0.164 -5.004,0.055 -6.602,0.086 z m 4.11,-123.152 c 6.418,-1.133 12.066,0.988 17.472,4.691 8.625,5.903 17.164,11.899 24.918,18.922 6.656,6.031 13.262,12.16 20.692,17.199 5.32,3.606 9.222,8.426 13.222,13.223 4.399,5.27 4.766,10.852 1.172,16.777 -1.512,2.489 -3.144,4.969 -5.086,7.129 -5.168,5.75 -11.676,8.45 -19.488,8.266 -7.836,-0.188 -14.758,-2.84 -20.82,-7.555 -6.918,-5.375 -13.532,-11.144 -20.321,-16.683 -5.168,-4.215 -10.371,-8.387 -15.625,-12.489 -2.953,-2.308 -6.086,-4.382 -9.062,-6.66 -6.797,-5.207 -9.399,-12.535 -10.004,-20.703 -0.32,-4.269 0.871,-8.273 3.308,-11.851 4.668,-6.856 10.797,-10.969 19.622,-10.266 z m 37.593,87.734 c 4.735,0.871 8.977,1.934 13.282,2.391 11.046,1.184 20.132,-2.539 26.863,-11.539 1.25,-1.676 2.445,-3.399 3.558,-5.168 4.2,-6.672 3.774,-15.555 -1.132,-21.707 -2.606,-3.266 -5.25,-6.527 -8.164,-9.512 -2.012,-2.062 -4.403,-3.82 -6.825,-5.41 -6.136,-4.035 -11.625,-8.84 -17.086,-13.711 -7.168,-6.391 -14.257,-12.891 -22.531,-17.926 -2.66,-1.621 -5.066,-3.652 -7.594,-5.488 -4.921,-3.586 -10.367,-5.27 -16.488,-4.602 -1.66,0.184 -3.344,0.125 -5.012,0.247 -6.796,0.492 -12.484,3.175 -16.785,8.566 -0.519,0.656 -1.011,1.336 -1.566,1.961 -6.281,7.117 -7.176,15.242 -4.52,24.039 0.118,0.394 0.207,0.805 0.266,1.215 0.027,0.183 -0.055,0.386 -0.094,0.621 -1.195,1.023 -2.285,0.008 -3.394,-0.25 -1.02,-0.238 -2.004,-0.602 -3.004,-0.906 -5.75,-1.774 -11.582,-1.625 -17.36,-0.36 -7.3,1.602 -12.671,5.774 -16.699,12.203 -4.965,7.934 -6.332,16.086 -4.133,25.168 1.434,5.91 4.145,10.782 8.383,15.106 6.602,6.726 13.383,13.242 20.758,19.094 3.598,2.851 7.586,5.203 11.32,7.882 7.641,5.481 13.875,9.879 21.516,15.36 0.625,0.449 2.316,1.593 3.598,1.898 2.66,0.442 5.195,0.692 7.652,0.516 12.418,0.972 22.805,-3.094 31.387,-12.242 0.847,-0.903 1.683,-1.95 2.117,-3.086 2.633,-6.887 4.949,-13.832 2.234,-21.309 -0.328,-0.902 -0.351,-1.914 -0.547,-3.051" /><path
         id="path26"
         style="fill:#231f20;fill-opacity:1;fill-rule:nonzero;stroke:none"
         d="m 215.082,363.137 c -1.414,-5.852 -0.574,-11.418 0.481,-16.946 0.917,-4.793 3.3,-6.906 8.042,-7.14 3.965,-0.199 7.942,-0.153 11.915,-0.203 6.593,-0.09 8.046,-1.668 7.511,-8.399 -0.539,-6.789 0.969,-13.246 2.524,-19.469 4.765,-1.851 12.871,-2.886 16.968,-2.285 7.125,1.055 8.04,2.071 8.563,9.059 0.262,3.543 0.535,7.098 1.105,10.601 0.645,3.965 2.672,5.625 6.282,5.458 3.937,-0.18 7.941,0.339 11.871,0.882 4.492,0.618 5.683,1.953 5.918,6.539 0.332,6.477 0.472,12.957 0.586,19.442 0.015,0.941 -0.567,1.898 -0.969,3.148 -1.832,0.035 -3.481,0.094 -5.125,0.09 -4.395,-0.012 -8.789,-0.137 -13.18,-0.031 -1.613,0.039 -3.363,0.285 -4.785,0.98 -2.699,1.325 -3.508,3.805 -3.629,6.778 -0.238,6.015 -0.773,12.015 -1.187,18.047 -4.555,0.437 -8.575,1.691 -12.789,0.574 -3.996,-1.063 -8.371,-0.266 -12.098,-2.199 -1.379,-2.727 -1.207,-5.411 -0.887,-8.153 0.442,-3.734 0.867,-7.48 1.016,-11.234 0.121,-3 -0.985,-4.367 -3.93,-4.625 -2.68,-0.235 -5.422,0.043 -8.117,0.277 -5.227,0.453 -10.43,0.867 -16.086,-1.191 z m 56.41,31.59 c 0.336,-1.582 0.594,-2.36 0.656,-3.153 0.536,-6.445 0.981,-12.898 1.567,-19.34 0.301,-3.273 1.113,-4.105 4.301,-4.16 4.589,-0.074 9.195,-0.015 13.785,0.196 7.172,0.332 9.062,-1.5 8.75,-8.59 -0.156,-3.543 -0.043,-7.098 -0.102,-10.649 -0.058,-3.551 -0.09,-7.105 -0.293,-10.652 -0.207,-3.559 -2.351,-5.813 -5.593,-6.801 -2.379,-0.723 -4.915,-0.973 -7.391,-1.32 -3.504,-0.492 -7.024,-0.879 -10.383,-1.293 -1.59,-1.957 -1.351,-4.137 -1.512,-6.176 -0.265,-3.328 -0.23,-6.687 -0.547,-10.012 -0.32,-3.39 -1.835,-5.648 -5.554,-6.609 -3.696,-0.949 -7.297,-1.703 -11.11,-1.371 -3.75,0.32 -7.5,0.644 -11.253,0.855 -2.883,0.164 -4.637,1.668 -5.559,4.274 -0.348,0.98 -0.641,1.996 -0.828,3.019 -1.082,5.95 -2.375,11.879 -1.961,18.004 0.062,0.965 -0.352,1.961 -0.555,3.004 -2.836,1.082 -5.574,0.676 -8.246,0.77 -2.922,0.105 -5.851,0.027 -8.777,0.132 -4.621,0.172 -7.606,3.313 -8.653,7.043 -1.851,6.594 -2.875,13.473 -2.23,20.43 0.059,0.621 0.176,1.242 0.316,1.852 0.469,2.011 1.586,3.355 3.758,3.648 4.133,0.551 8.215,1.434 12.457,1.106 3.723,-0.293 7.481,-0.184 11.153,-0.25 1.824,1.894 1.175,4.007 0.996,6.035 -0.274,3.117 -0.692,6.23 -0.821,9.355 -0.07,1.645 0.16,3.356 0.586,4.949 0.578,2.168 2.028,3.614 4.399,3.899 0.414,0.051 0.82,0.172 1.238,0.195 8.949,0.531 17.902,1.055 27.406,1.61" /><path
         id="path28"
         style="fill:#231f20;fill-opacity:1;fill-rule:nonzero;stroke:none"
         d="m 609.316,346.758 c 0.067,5.449 -1.898,9.945 -7.304,12.512 -2.071,0.98 -4.125,2.023 -6.082,3.21 -3.075,1.872 -5.957,1.547 -8.731,-0.503 -4.015,-2.969 -6.394,-7.118 -7.961,-11.731 -0.453,-1.332 -0.457,-2.898 -0.343,-4.332 0.55,-6.922 5.886,-11.773 13.371,-13.609 6.66,-1.637 17.543,5.457 17.05,14.453 z m -17.753,20.262 c 7.929,-0.637 13.789,-3.52 18.855,-8.141 0.602,-0.551 1.066,-1.281 1.488,-1.996 3.848,-6.524 2.985,-16.094 -2.234,-21.567 -2.129,-2.23 -4.617,-4.289 -7.301,-5.789 -7.058,-3.945 -16.199,-2.422 -21.902,3.379 -2.324,2.364 -4.184,4.934 -5.629,8.102 -3.762,8.254 3.281,21.754 12.223,25.285 1.675,0.66 3.636,0.598 4.5,0.727" /><path
         id="path30"
         style="fill:#231f20;fill-opacity:1;fill-rule:nonzero;stroke:none"
         d="m 545.461,297.57 c 5.918,-0.199 10.203,2.618 13.113,7.797 3.266,5.809 -0.402,15.11 -6.375,16.594 -3.949,0.984 -7.773,1.625 -11.734,0.828 -3.977,-0.797 -6.875,-3.203 -8.231,-6.984 -3.211,-8.953 3.493,-18.196 13.227,-18.235 z m -0.574,-4.949 c -11.864,0.121 -20.699,11.281 -17.805,22.723 1.625,6.426 5.617,10.633 12.445,11.636 2.473,0.368 4.946,0.997 7.414,0.981 2.004,-0.012 4.071,-0.606 5.997,-1.273 7.898,-2.75 11.765,-8.266 11.82,-16.458 0.015,-2.367 -0.528,-4.531 -1.668,-6.597 -3.953,-7.188 -9.77,-11.254 -18.203,-11.012" /><path
         id="path32"
         style="fill:#231f20;fill-opacity:1;fill-rule:nonzero;stroke:none"
         d="m 499.613,328.445 c 5.676,-0.156 9.832,2.395 12.86,6.743 4.144,5.957 3.605,13.394 -0.035,19.453 -2.297,3.82 -5.903,6.418 -9.204,9.273 -0.597,0.516 -1.507,1.008 -2.242,0.965 -4.832,-0.289 -9.742,-0.84 -12.707,-5.289 -3.394,-5.09 -5.504,-10.684 -5.394,-16.977 0.097,-5.922 3.019,-9.855 8.355,-11.937 2.672,-1.047 5.57,-1.508 8.367,-2.231 z m 0.266,-4.593 c -2.477,0.41 -4.945,0.82 -7.418,1.23 -6.328,1.055 -10.297,5.219 -13.484,10.348 -0.536,0.855 -0.911,1.925 -0.997,2.929 -0.457,5.446 -0.539,10.868 2.079,15.914 1.152,2.223 2.355,4.418 3.492,6.649 2.91,5.711 8.086,7.629 13.953,8.082 4.519,0.348 8.723,-0.574 11.914,-4.281 1.223,-1.418 2.832,-2.489 4.133,-3.848 7.629,-7.961 8.75,-18.711 2.82,-28.246 -2.98,-4.797 -9.351,-9.152 -16.492,-8.777" /><path
         id="path34"
         style="fill:#231f20;fill-opacity:1;fill-rule:nonzero;stroke:none"
         d="m 546.813,399.383 c -7.864,1.476 -12.219,-1.844 -14.918,-8.735 -0.383,-0.968 -0.832,-1.921 -1.114,-2.921 -3.066,-10.883 3.356,-22.098 17.543,-21.961 5.879,0.054 10.942,3.062 13.5,8.761 2.551,5.672 1.789,11.403 -0.758,16.942 -0.25,0.554 -0.699,1.051 -1.148,1.472 -3.828,3.575 -7.504,7.497 -13.105,6.442 z m 21.234,-19.82 c -0.977,-6.172 -3.785,-12.036 -10.461,-15.825 -7.832,-4.441 -15.297,-3.066 -22.672,0.692 -1.961,1 -3.785,2.734 -5.047,4.562 -6.808,9.875 -6.75,17.992 1.281,29.367 1.727,2.446 3.965,4.258 6.829,5.286 3.527,1.269 15.714,0.007 18.91,-2.024 7.84,-4.976 11.476,-11.824 11.16,-22.058" /><path
         id="path36"
         style="fill:#231f20;fill-opacity:1;fill-rule:nonzero;stroke:none"
         d="m 258.594,373.027 c -0.774,2.633 -2.426,3.86 -4.258,4.879 -0.289,0.164 -0.781,-0.043 -1.227,-0.082 -0.671,-1.719 -1.39,-3.441 -0.062,-5.265 1.781,-0.707 3.508,-0.926 5.547,0.468 z m 5.324,-2.949 c -3.859,-2.32 -7.887,-3.43 -12.375,-2 -2.57,0.82 -3.809,2.317 -3.773,5.012 0.019,1.43 0.406,2.863 0.695,4.281 0.125,0.606 0.418,1.176 0.644,1.758 0.676,1.726 1.36,3.449 1.985,5.027 1.875,1.032 3.422,0.75 4.73,-0.539 1.774,-1.746 3.516,-3.539 5.176,-5.394 1.996,-2.235 3.238,-4.793 2.918,-8.145" /><path
         id="path38"
         style="fill:#231f20;fill-opacity:1;fill-rule:nonzero;stroke:none"
         d="m 282.594,348.492 c 2.047,0.426 3.199,1.379 3.578,3.582 -0.977,0.438 -1.988,0.891 -3.484,1.559 -0.04,-2 -0.067,-3.52 -0.094,-5.141 z m -3.852,11.375 c 3.176,-1.301 5.625,-2.472 8.188,-3.308 2.672,-0.868 4.023,-2.746 5.09,-5.426 -0.497,-0.82 -0.864,-1.844 -1.567,-2.508 -2.871,-2.719 -5.812,-5.371 -8.82,-7.941 -0.543,-0.465 -1.738,-0.805 -2.25,-0.52 -0.778,0.43 -1.512,1.391 -1.731,2.262 -0.297,1.176 -0.261,2.508 -0.066,3.722 0.602,3.727 0.785,7.426 0.227,11.18 -0.102,0.668 0.503,1.438 0.929,2.539" /><path
         id="path40"
         style="fill:#231f20;fill-opacity:1;fill-rule:nonzero;stroke:none"
         d="m 225.816,351.203 c 3.012,-2.332 3.012,-2.332 5.485,-2.41 0.851,1.949 0.984,3.816 -0.813,5.945 -1.457,-1.101 -2.82,-2.133 -4.672,-3.535 z m 10.336,-1.543 c -0.019,-0.961 0.008,-2.832 -0.109,-4.691 -0.078,-1.266 -1.289,-2.196 -2.598,-2.121 -4.066,0.23 -7.664,1.742 -10.808,4.25 -2.36,1.882 -2.422,4.195 -0.422,6.425 2.871,3.204 6.617,4.922 10.609,6.168 1.465,0.457 2.852,-0.609 2.992,-2.293 0.188,-2.269 0.207,-4.554 0.336,-7.738" /><path
         id="path42"
         style="fill:#231f20;fill-opacity:1;fill-rule:nonzero;stroke:none"
         d="m 257.211,322.246 c 1.93,1.805 2.758,3.813 3.25,6.41 -2.199,0.504 -4.309,1.242 -5.699,-0.765 -1.071,-1.536 0.332,-3.106 1.058,-4.543 0.164,-0.321 0.61,-0.496 1.391,-1.102 z m 1.066,-6.824 c -4.851,1.633 -6.222,5.094 -7.648,8.539 -1.117,2.715 -2.129,5.394 -0.215,8.195 3.781,0.379 7.445,0.817 11.121,1.098 2.012,0.152 3.219,-0.934 3.117,-2.945 -0.093,-1.821 -0.285,-3.782 -1.043,-5.395 -1.476,-3.144 -3.386,-6.086 -5.332,-9.492" /></g></g></svg>