<?xml version="1.0" encoding="UTF-8" standalone="no"?>
<svg
   xmlns:dc="http://purl.org/dc/elements/1.1/"
   xmlns:cc="http://creativecommons.org/ns#"
   xmlns:rdf="http://www.w3.org/1999/02/22-rdf-syntax-ns#"
   xmlns:svg="http://www.w3.org/2000/svg"
   xmlns="http://www.w3.org/2000/svg"
   viewBox="0 0 100 100"
   height="100"
   width="100"
   xml:space="preserve"
   version="1.1"
   id="svg2"><metadata
     id="metadata8"><rdf:RDF><cc:Work
         rdf:about=""><dc:format>image/svg+xml</dc:format><dc:type
           rdf:resource="http://purl.org/dc/dcmitype/StillImage" /></cc:Work></rdf:RDF></metadata><defs
     id="defs6" /><g
     transform="matrix(1.25,0,0,-1.25,0,100)"
     id="g10"><g
       transform="scale(0.1,0.1)"
       id="g12"><path
         id="path14"
         style="fill:#050607;fill-opacity:1;fill-rule:nonzero;stroke:none"
         d="m 196.473,497.715 c 0.375,5.719 1.98,11.355 2.359,17.07 0.496,7.442 2.168,14.512 5.434,21.133 2.468,5.016 5.277,9.906 8.32,14.609 3.227,4.993 6.586,9.965 10.469,14.442 3.425,3.957 7.3,7.746 11.617,10.652 5.609,3.77 11.656,7.055 17.883,9.688 5.836,2.464 12.133,3.867 18.254,5.632 3.308,0.95 6.765,1.434 10.004,2.551 6.972,2.418 13.996,1.981 21.003,0.633 10.586,-2.035 21.329,-3.645 31.633,-6.672 10.656,-3.133 20.797,-7.668 29.739,-14.82 6.722,-5.383 12.054,-11.836 16.91,-18.656 3.437,-4.829 5.918,-10.477 8.054,-16.055 2.68,-7.004 4.969,-14.223 6.672,-21.527 1.141,-4.895 1.352,-10.098 1.309,-15.161 -0.067,-6.617 -0.852,-13.23 -1.188,-19.851 -0.109,-2.059 -0.906,-2.813 -2.922,-2.672 -5.339,0.367 -10.695,0.707 -16.046,0.957 -4.754,0.227 -9.512,0.309 -14.266,0.473 -0.852,0.031 -1.699,0.152 -2.773,0.254 2.019,2.339 3.98,4.257 5.515,6.464 5.258,7.539 6.848,15.899 5.309,24.934 -1.625,9.547 -6.946,16.656 -14.664,22.07 -5.934,4.164 -12.875,4.258 -19.75,4.184 -7.383,-0.078 -13.508,-2.824 -19.325,-7.633 -8.382,-6.93 -12.183,-15.926 -13.402,-26.066 -1.012,-8.457 2.578,-15.782 8.488,-21.887 0.481,-0.496 0.957,-1 1.668,-1.742 -9.222,-4.168 -9.968,-13.793 -14.371,-20.918 -1.636,-2.641 -2.625,-5.68 -4.304,-8.598 -3.754,10.266 -5.25,21.664 -16.672,28.438 1.597,1.14 2.543,2.093 3.691,2.593 5.188,2.239 7.039,7.079 8.914,11.696 3.711,9.148 4.024,18.414 0.57,27.851 -3,8.199 -8.687,13.657 -16.406,17.024 -8.074,3.523 -16.625,3.593 -25.277,2.613 -5.637,-0.641 -11.137,-1.883 -15.586,-5.316 -4.879,-3.758 -8.055,-9.122 -10.5,-14.766 -2.953,-6.848 -4.168,-13.984 -3.047,-21.465 0.684,-4.558 2.848,-8.375 5.637,-11.863 2.199,-2.754 4.66,-5.293 7.664,-8.672 -2.395,0.133 -3.883,0.187 -5.367,0.297 -7.86,0.59 -15.711,1.199 -23.571,1.781 -0.968,0.074 -1.957,0.141 -2.918,0.039 -2.613,-0.281 -3.773,0.809 -3.91,3.387 -0.226,4.301 -1.129,8.625 -0.851,12.875 z m 143.726,-16.203 c -5.328,0 -10.656,0.09 -15.984,-0.032 -3.625,-0.085 -6.492,1.915 -8.613,4.106 -6.149,6.344 -9.676,13.73 -6.856,22.98 2.68,8.829 7,16.672 15.246,21.047 4.067,2.157 9.262,2.797 13.977,2.918 5.054,0.133 10.379,-0.554 14.578,-4.027 5.715,-4.727 10.289,-10.238 11.687,-17.856 1.528,-8.296 -0.125,-16.125 -6.046,-21.824 -4.708,-4.527 -10.68,-8.215 -17.989,-7.312 z m -79.047,-0.235 c -4.336,-0.5 -8.617,-1.406 -12.953,-1.886 -3.738,-0.407 -7.14,0.695 -10.215,2.937 -5.296,3.86 -10.113,8.356 -11.902,14.707 -1.164,4.137 -1.301,8.879 -0.613,13.145 1.031,6.441 3.703,12.445 7.625,17.832 3.855,5.301 9.406,6.918 15.433,7.707 8.039,1.051 15.977,1.113 23.606,-2.242 6.492,-2.864 11.14,-7.446 13.449,-14.219 0.723,-2.113 1.231,-4.301 1.836,-6.457 0.953,-6.59 -0.551,-12.688 -3.133,-18.571 -0.769,-1.746 -1.738,-3.707 -3.199,-4.792 -3.844,-2.864 -7.813,-5.708 -12.113,-7.747 -2.18,-1.031 -5.215,-0.117 -7.821,-0.414 z m -69.425,-1.105 c -0.047,-2.203 1.16,-3.477 3.07,-3.692 5.016,-0.57 10.055,-1.046 15.098,-1.234 8.543,-0.332 17.101,-0.637 25.652,-0.512 5.93,0.082 11.707,-1.742 17.82,-0.339 4.953,1.132 10.289,0.55 15.442,0.855 4.523,0.27 8.347,-1.184 10.879,-4.883 2.097,-3.066 4.097,-6.367 5.304,-9.855 2.168,-6.235 3.914,-12.637 5.391,-19.074 0.496,-2.165 1.144,-3.524 3.242,-3.934 2.555,-0.496 2.965,1.601 3.406,3.262 2.766,10.297 7.668,19.691 12.352,29.16 0.941,1.91 3.133,4.277 4.972,4.48 7.739,0.875 15.567,1.41 23.352,1.309 9.078,-0.129 18.141,-1.219 27.219,-1.582 9.304,-0.375 18.668,0.148 28.332,-2.231 -0.969,-2.554 -1.887,-4.828 -2.699,-7.132 -1.934,-5.5 -3.352,-11.235 -5.832,-16.473 -4.856,-10.227 -11.274,-19.551 -19.039,-27.797 -3.836,-4.07 -7.93,-8.215 -12.672,-11.027 -6.871,-4.078 -14.317,-7.289 -21.75,-10.293 -7.453,-3.012 -15.192,-5.313 -22.809,-7.91 -4.273,-1.461 -8.578,-1.286 -12.98,-0.555 -1.039,0.176 -2.317,-1.11 -3.485,-1.727 0.699,-1.144 1.199,-3.039 2.137,-3.285 2.523,-0.672 5.359,-1.269 7.844,-0.765 7.023,1.429 14.023,3.148 20.875,5.281 6.761,2.101 13.632,4.246 19.91,7.453 8.121,4.148 16.051,8.551 22.793,15.226 7.426,7.364 14.031,15.168 18.976,24.27 3.387,6.234 6,12.902 8.801,19.445 5.324,12.438 8.356,25.356 8.063,38.992 -0.098,4.692 0.968,9.477 0.375,14.071 -0.731,5.629 -2.414,11.179 -4.098,16.633 -2.617,8.476 -4.684,17.175 -9.453,24.859 -4.977,8.016 -10.406,15.605 -17.512,21.949 -8.219,7.356 -17.344,13.176 -27.789,16.672 -6.051,2.027 -12.269,3.629 -18.5,5.004 -5.992,1.32 -12.176,1.785 -18.137,3.199 -7.129,1.692 -14.277,2.824 -21.449,1.278 -9.273,-2 -18.433,-4.528 -27.617,-6.911 -1.613,-0.414 -3.184,-1.101 -4.668,-1.871 -6.813,-3.543 -13.691,-6.976 -20.332,-10.808 -3.273,-1.891 -6.508,-4.192 -9,-6.985 -4.117,-4.625 -7.375,-10 -11.43,-14.691 -7.504,-8.68 -12.582,-18.621 -16.199,-29.383 -0.773,-2.312 -1.078,-4.808 -1.406,-7.246 -0.641,-4.777 -1.004,-9.602 -1.754,-14.363 -0.832,-5.282 -2.508,-10.328 -0.867,-15.922 0.988,-3.367 0.238,-7.266 0.172,-10.918" /><path
         id="path16"
         style="fill:#050607;fill-opacity:1;fill-rule:nonzero;stroke:none"
         d="m 482.09,213.602 c -6.121,6.621 -12.262,13.226 -18.363,19.867 -4.86,5.285 -9.543,10.742 -14.547,15.875 -4.797,4.91 -9.93,9.48 -14.871,14.242 -5.77,5.559 -11.2,11.504 -17.317,16.637 -5.371,4.507 -10.23,9.32 -14.105,15.121 -0.692,1.023 -1.41,2.308 -1.407,3.472 0.012,3.184 -1.707,3.883 -4.398,3.782 -3.133,-0.118 -6.316,-0.481 -9.391,-0.094 -8.957,1.137 -17.91,2.371 -26.785,3.992 -7.883,1.434 -15.773,3.055 -23.461,5.281 -13.297,3.868 -26.648,7.711 -39.601,12.575 -15.895,5.972 -30.547,14.578 -44.489,24.238 -7.687,5.328 -14.347,11.844 -19.527,19.785 -3.098,4.734 -6.656,9.168 -9.851,13.848 -3.125,4.574 -6.344,9.129 -8.985,13.984 -2.988,5.477 -5.058,11.449 -8.094,16.891 -6.343,11.336 -9.406,23.468 -10.156,36.343 -0.062,1.114 -1.695,2.821 -2.832,3.032 -1.664,0.3 -2.402,-1.266 -2.222,-3.016 0.449,-4.336 0.558,-8.742 1.371,-13.004 1,-5.211 2.086,-10.5 4.015,-15.406 2.778,-7.051 6.168,-13.887 9.656,-20.629 3.301,-6.395 6.778,-12.734 10.7,-18.766 3.871,-5.949 8.699,-11.281 12.558,-17.242 5.117,-7.898 11.594,-14.535 19.278,-19.574 10.582,-6.941 21.863,-12.809 32.804,-19.199 11.938,-6.973 24.95,-11.328 38.09,-15.098 12.363,-3.547 24.969,-6.246 37.52,-9.101 4.519,-1.024 9.195,-1.387 13.793,-2.075 4.472,-0.668 8.933,-1.875 13.418,-1.933 6.597,-0.082 12.105,-2.035 15.625,-7.657 2.41,-3.851 5.558,-6.781 8.953,-9.628 3.996,-3.36 8.008,-6.727 11.754,-10.36 4.539,-4.394 8.746,-9.121 13.207,-13.594 3.89,-3.902 7.968,-7.621 11.925,-11.461 3.606,-3.503 7.208,-7.011 10.704,-10.617 1.629,-1.672 2.984,-3.597 4.496,-5.39 2.965,-3.512 5.933,-7.028 8.941,-10.5 1.504,-1.739 3.106,-3.399 5.266,-5.746 -2.035,-0.114 -3.086,-0.293 -4.114,-0.207 -2.234,0.195 -4.449,0.679 -6.679,0.777 -7.403,0.328 -14.813,0.406 -22.203,0.84 -6.129,0.355 -12.223,1.426 -18.352,1.547 -8.918,0.171 -17.848,-0.145 -26.769,-0.418 -4.055,-0.121 -8.133,-0.418 -12.141,-1.028 -4.492,-0.675 -4.473,-0.871 -6.469,3.301 -0.422,0.887 -0.648,1.871 -1.09,2.742 -2.367,4.664 -4.351,9.582 -7.254,13.879 -4.527,6.699 -10,12.957 -17.933,15.465 -7.195,2.277 -14.774,3.445 -22.246,4.699 -8.352,1.41 -16.141,-0.875 -23.321,-4.996 -6.683,-3.84 -11.574,-9.605 -15.757,-15.988 -4.875,-7.438 -9.973,-14.801 -10.789,-24.02 -0.086,-0.992 1.144,-2.105 1.769,-3.164 0.934,0.762 2.07,1.371 2.734,2.324 0.52,0.747 0.407,1.915 0.653,2.875 2.219,8.739 7.254,16.032 12.469,23.098 7.226,9.793 17.027,15.297 29.425,14.918 4.59,-0.141 9.118,-1.641 13.715,-2.203 12.746,-1.574 21.363,-9.309 27.555,-19.586 3.594,-5.977 5.355,-13.07 7.808,-19.707 1.028,-2.777 3.106,-3.477 5.442,-1.66 1.234,0.965 2.582,2.121 4.039,2.418 3.379,0.687 6.844,1.051 10.289,1.281 3.48,0.223 6.977,0.098 10.461,0.172 6.601,0.129 13.215,0.57 19.809,0.379 8.726,-0.262 17.429,-1.086 26.156,-1.516 5.551,-0.265 11.14,0.012 16.672,-0.469 3.714,-0.312 7.336,-1.66 11.047,-2.246 1.265,-0.199 3.14,0.102 3.921,0.934 1.219,1.301 0.938,3.121 -0.515,4.508 -0.707,0.676 -1.332,1.449 -2.004,2.176" /><path
         id="path18"
         style="fill:#050607;fill-opacity:1;fill-rule:nonzero;stroke:none"
         d="m 609.023,209.793 c -1.472,8.469 -3.293,16.914 -5.605,25.191 -2.848,10.188 -5.98,20.329 -9.609,30.262 -3.399,9.274 -7.457,18.32 -11.489,27.348 -4.644,10.39 -9.586,20.644 -14.375,30.972 -4.89,10.547 -9.41,21.282 -14.718,31.606 -4.872,9.469 -10.625,18.484 -15.907,27.75 -3.961,6.93 -7.468,14.144 -11.765,20.855 -6.926,10.821 -14.371,21.313 -21.535,31.985 -5.957,8.89 -11.754,17.89 -17.762,26.746 -5.399,7.941 -10.824,15.879 -16.547,23.586 -2.977,4.011 -6.738,7.429 -9.961,11.269 -6.02,7.188 -11.727,14.633 -17.902,21.68 -4.153,4.742 -9.11,8.785 -13.293,13.504 -4.938,5.562 -10.637,9.734 -17.731,12.035 -2,0.648 -3.859,0.258 -4.453,-1.516 -0.656,-1.98 0.895,-3.066 2.871,-3.753 2.188,-0.758 4.356,-1.809 6.242,-3.137 3.149,-2.227 6.196,-4.625 9.047,-7.219 3.383,-3.074 6.707,-6.262 9.711,-9.699 4.668,-5.332 8.992,-10.961 13.567,-16.371 6,-7.094 12.457,-13.84 18.089,-21.211 7.532,-9.867 14.625,-20.082 21.61,-30.352 8.523,-12.535 16.918,-25.168 25.043,-37.969 7.512,-11.832 14.679,-23.882 21.824,-35.945 3.613,-6.113 6.496,-12.676 10.301,-18.656 6.625,-10.402 11.961,-21.336 16.476,-32.82 4.496,-11.426 10.164,-22.387 15.118,-33.645 5.085,-11.555 10.011,-23.18 14.847,-34.848 4.813,-11.605 6.754,-24.015 9.692,-36.14 0.519,-2.145 0.82,-4.426 0.687,-6.613 -0.094,-1.508 -1.101,-2.969 -1.918,-4.981 -3.262,2.035 -6.894,4.152 -10.367,6.52 -7.367,5.007 -14.59,10.234 -21.981,15.207 -9.757,6.566 -19.789,12.746 -29.386,19.535 -7.641,5.41 -14.758,11.547 -22.199,17.246 -6.219,4.762 -12.758,9.133 -18.817,14.09 -7.449,6.097 -14.578,12.593 -21.789,18.976 -2.969,2.625 -5.707,5.508 -8.73,8.063 -0.817,0.691 -2.805,1.191 -3.348,0.726 -0.777,-0.672 -1.273,-2.523 -0.895,-3.484 0.528,-1.313 1.922,-2.316 3.043,-3.352 5.352,-4.988 10.575,-10.129 16.153,-14.847 5.504,-4.657 11.461,-8.778 17.07,-13.317 6.348,-5.14 12.387,-10.656 18.813,-15.683 7.148,-5.602 14.445,-11.035 21.929,-16.18 8.231,-5.652 16.516,-11.187 25.301,-16.07 8.402,-4.676 15.797,-11.145 23.742,-16.672 4.871,-3.387 9.93,-6.516 14.942,-9.699 1.582,-1 3.726,-1.227 4.421,0.589 1.012,2.653 2.004,5.77 1.543,8.438" /><path
         id="path20"
         style="fill:#050607;fill-opacity:1;fill-rule:nonzero;stroke:none"
         d="m 260.492,517.359 c -0.277,0.032 -0.535,0.243 -0.801,0.375 -7.003,3.473 -15.933,-1.898 -16.312,-9.82 -0.207,-4.351 4.203,-10.203 8.441,-10.867 0.934,-0.145 2.328,0.441 2.926,1.172 0.332,0.394 -0.351,1.972 -0.961,2.699 -0.66,0.793 -1.719,1.301 -2.68,1.785 -2.593,1.309 -3.281,3.445 -3.015,6.164 0.305,3.125 2.226,4.961 4.992,5.504 1.402,0.274 3.035,-0.922 4.609,-1.215 4.563,-0.859 4.465,-0.816 4.004,-6.406 -0.031,-0.391 -0.394,-0.871 -0.257,-1.141 0.425,-0.847 0.949,-2.214 1.558,-2.285 0.899,-0.105 2.688,0.688 2.727,1.196 0.234,3.222 0.457,6.531 -0.043,9.695 -0.395,2.473 -2.965,2.859 -5.188,3.144" /><path
         id="path22"
         style="fill:#050607;fill-opacity:1;fill-rule:nonzero;stroke:none"
         d="m 337.902,515.574 c -2.086,-0.457 -4.281,-0.648 -6.242,-1.426 -4.109,-1.636 -5.672,-5.46 -4.512,-10.257 0.77,-3.192 5.657,-7.161 8.684,-7.121 1.984,0.031 2.699,1.203 1.746,2.652 -0.914,1.394 -2.707,2.172 -3.793,3.484 -1.035,1.25 -2.14,2.774 -2.34,4.297 -0.238,1.785 0.703,3.082 3.039,3.563 3.215,0.668 5.668,-0.43 7.844,-2.297 0.899,-0.774 1.684,-2.578 1.41,-3.625 -0.523,-2.008 0.16,-3.465 1.711,-3.711 0.946,-0.156 2.469,1.258 3.188,2.34 0.57,0.851 0.582,2.308 0.371,3.41 -0.875,4.699 -5.922,8.476 -11.106,8.691" /></g></g></svg>