<?xml version="1.0" encoding="UTF-8" standalone="no"?>
<svg
   xmlns:dc="http://purl.org/dc/elements/1.1/"
   xmlns:cc="http://creativecommons.org/ns#"
   xmlns:rdf="http://www.w3.org/1999/02/22-rdf-syntax-ns#"
   xmlns:svg="http://www.w3.org/2000/svg"
   xmlns="http://www.w3.org/2000/svg"
   viewBox="0 0 100 100"
   height="100"
   width="100"
   xml:space="preserve"
   version="1.1"
   id="svg2"><metadata
     id="metadata8"><rdf:RDF><cc:Work
         rdf:about=""><dc:format>image/svg+xml</dc:format><dc:type
           rdf:resource="http://purl.org/dc/dcmitype/StillImage" /></cc:Work></rdf:RDF></metadata><defs
     id="defs6" /><g
     transform="matrix(1.25,0,0,-1.25,0,100)"
     id="g10"><g
       transform="scale(0.1,0.1)"
       id="g12"><path
         id="path14"
         style="fill:#050607;fill-opacity:1;fill-rule:nonzero;stroke:none"
         d="m 315.492,249.754 c 3.977,-0.766 8.02,-1.274 11.903,-2.359 5.632,-1.559 8.421,-6.352 11.293,-10.915 3.726,-5.925 5.722,-12.48 6.996,-19.304 0.933,-5.028 1.644,-9.981 -0.079,-15.039 -1.199,-3.516 -1.656,-7.301 -2.988,-10.762 -1.859,-4.836 -5.66,-8.355 -10.094,-10.645 -9.351,-4.82 -19.582,-6.089 -29.687,-3.8 -5.094,1.148 -10.301,4.144 -14.16,7.703 -4.324,3.984 -7.785,9.25 -10.52,14.519 -2.902,5.598 -2.41,12.106 -1.554,18.231 0.683,4.894 2.246,9.676 3.464,14.492 1.395,5.5 5.563,8.609 9.961,11.551 7.727,5.164 16.368,6.074 25.328,5.566 0.043,0.25 0.09,0.508 0.137,0.762 M 331.414,186.5 c -1.711,0.969 -3.023,1.539 -4.113,2.391 -0.715,0.558 -1.117,1.527 -1.66,2.316 0.949,0.445 1.922,1.281 2.847,1.234 1.145,-0.062 2.293,-0.789 3.371,-1.355 3.731,-1.949 4.801,-1.414 5.438,2.402 -2.336,1.762 -4.512,3.399 -6.688,5.035 0.118,0.387 0.235,0.778 0.344,1.165 1.11,0.144 2.344,0.675 3.293,0.363 5.332,-1.785 5.332,-1.863 6.859,3.469 0.293,1.007 0.387,2.082 0.469,3.136 0.711,9.446 -2.133,18.176 -6.426,26.27 -2.027,3.816 -4.343,8.207 -9.238,9.668 -0.426,0.129 -0.847,0.441 -1.258,0.426 -5.902,-0.215 -11.531,2.437 -17.519,1.527 -4.68,-0.711 -9.215,-1.613 -13.352,-4.871 1.754,-1.93 3.371,-3.797 5.086,-5.571 1.113,-1.156 2.555,-2.41 0.821,-3.796 -1.454,-1.172 -2.793,-0.086 -3.899,1.238 -1.305,1.558 -2.723,3.047 -4.25,4.387 -0.57,0.504 -1.98,0.953 -2.316,0.648 -0.789,-0.695 -1.758,-1.988 -1.594,-2.828 0.59,-3.02 1.652,-5.891 4.434,-7.801 0.855,-0.59 1.41,-1.742 1.828,-2.75 0.093,-0.246 -0.942,-1.379 -1.414,-1.355 -1.231,0.062 -2.75,0.187 -3.582,0.933 -1.672,1.485 -2.954,3.403 -4.442,5.196 -7,-12.372 -2.715,-31.516 8.496,-40.704 7.121,-5.832 15.176,-6.613 23.641,-5.554 4.933,0.617 10.234,0.652 14.824,4.781" /><path
         id="path16"
         style="fill:#050607;fill-opacity:1;fill-rule:nonzero;stroke:none"
         d="m 302.797,222.594 c 1.305,2.398 2.355,2.226 4.004,0.48 1.871,-1.98 4.012,-3.886 6.394,-5.148 1.465,-0.774 2.149,-1.602 1.485,-2.703 -0.477,-0.797 -2.285,-1.621 -2.981,-1.301 -1.746,0.808 -3.344,2.101 -4.722,3.488 -1.532,1.531 -2.754,3.379 -4.18,5.184" /><path
         id="path18"
         style="fill:#050607;fill-opacity:1;fill-rule:nonzero;stroke:none"
         d="m 305.535,207.91 c -2.707,-0.008 -8.609,5.313 -8.754,7.426 -0.039,0.57 0.215,1.523 0.59,1.684 0.606,0.25 1.621,0.25 2.113,-0.114 2.371,-1.73 4.68,-3.558 6.883,-5.496 0.52,-0.453 0.953,-1.609 0.731,-2.16 -0.278,-0.699 -1.27,-1.113 -1.563,-1.34" /><path
         id="path20"
         style="fill:#050607;fill-opacity:1;fill-rule:nonzero;stroke:none"
         d="m 321.711,196.332 c -1.215,-0.437 -2.578,-1.426 -3.227,-1.078 -2.41,1.309 -4.636,2.98 -6.8,4.687 -0.403,0.317 -0.317,1.465 -0.157,2.164 0.071,0.29 1.086,0.7 1.391,0.536 2.687,-1.461 5.32,-3.024 7.941,-4.606 0.262,-0.16 0.332,-0.633 0.852,-1.703" /><path
         id="path22"
         style="fill:#050607;fill-opacity:1;fill-rule:nonzero;stroke:none"
         d="m 319.293,207.125 c 0.176,3.137 1.867,3.207 3.898,2.324 1.489,-0.648 3.043,-1.332 4.258,-2.367 0.656,-0.559 0.664,-1.891 0.973,-2.871 -0.992,-0.137 -2.145,-0.66 -2.942,-0.324 -2.175,0.902 -4.21,2.176 -6.187,3.238" /><path
         id="path24"
         style="fill:#050607;fill-opacity:1;fill-rule:nonzero;stroke:none"
         d="m 292.477,221.848 c 0.472,-0.024 1.507,1.109 1.414,1.355 -0.321,0.766 -0.766,1.551 -1.321,2.176 -0.847,-1.035 -1.707,-2.059 -2.554,-3.09 0.785,-0.258 1.652,-0.398 2.461,-0.441" /><path
         id="path26"
         style="fill:#050607;fill-opacity:1;fill-rule:nonzero;stroke:none"
         d="m 605.398,604.207 c -1.761,-2.328 -3.812,-4.43 -5.75,-6.629 -1.117,-1.265 -2.285,-2.5 -3.308,-3.84 -1.641,-2.148 -2.695,-2.047 -4.07,0.274 -0.657,1.105 -1.637,2.062 -2.618,2.929 -4.246,3.754 -8.613,7.387 -12.757,11.254 -0.516,0.481 -0.399,2.426 0.148,3.125 1.918,2.453 4.176,4.633 6.246,6.965 1.785,2.012 3.969,2.863 6.492,1.953 2.852,-1.027 5.594,-2.375 7.903,-3.375 2.949,-3.675 5.468,-6.64 7.75,-9.785 0.468,-0.64 0.449,-2.238 -0.036,-2.871 z m -17.375,-16.035 c -1.414,-1.656 -2.636,-3.469 -4.074,-5.098 -2.355,-2.672 -4.812,-5.258 -7.234,-7.863 -4.481,-4.824 -8.957,-9.641 -13.449,-14.449 -2.485,-2.653 -4.973,-5.289 -7.496,-7.899 -3.094,-3.211 -6.278,-6.336 -9.325,-9.593 -6.011,-6.415 -11.914,-12.938 -17.949,-19.329 -5.008,-5.289 -10.195,-10.414 -15.215,-15.683 -8.125,-8.528 -16.152,-17.137 -24.269,-25.664 -2.797,-2.946 -5.766,-5.735 -8.578,-8.664 -0.512,-0.535 -0.743,-1.407 -0.954,-2.16 -0.609,-2.149 -1.14,-4.317 -1.886,-7.165 -6,6.11 -11.457,11.672 -17.086,17.399 0.648,0.648 1.051,1.305 1.633,1.586 6.16,2.945 10.238,8.25 14.769,13.015 4.774,5.016 9.352,10.223 14.051,15.309 8.746,9.457 17.551,18.856 26.273,28.328 4.239,4.598 8.375,9.281 12.496,13.985 1.411,1.605 2.602,3.41 3.961,5.074 4.645,5.691 9.868,10.816 15.133,15.945 7.418,7.234 14.121,15.195 21.129,22.84 1.508,1.644 3.02,3.297 4.789,5.227 4.625,-3.95 8.914,-7.676 13.289,-11.309 1.688,-1.395 1.125,-2.5 -0.008,-3.832 z M 476.91,429.371 c -4.031,-4.508 -7.847,-9.207 -11.793,-13.808 -0.961,-1.125 -1.969,-2.262 -3.133,-3.153 -0.355,-0.265 -1.535,0.059 -1.984,0.477 -2.277,2.14 -4.512,4.332 -6.625,6.629 -2.09,2.273 -4.02,4.695 -6.078,7.129 1.305,1.421 2.418,2.582 3.473,3.796 4.835,5.536 9.656,11.082 14.468,16.637 0.407,0.473 0.692,1.035 1.055,1.539 2.965,4.164 3.074,4.473 7.027,0.289 3.383,-3.57 4.25,-8.336 5.453,-12.847 0.633,-2.368 -0.058,-4.668 -1.863,-6.688 z m -30.422,-34.844 c -5.332,4.887 -10.496,9.618 -15.812,14.489 4.16,4.535 8.34,9.097 12.789,13.953 4.941,-5.309 9.484,-10.184 14.129,-15.164 -3.727,-4.453 -7.321,-8.746 -11.106,-13.278 z m -14.394,-16.773 c -2.824,2.586 -5.742,5.164 -8.547,7.855 -2.758,2.645 -5.402,5.407 -8.469,8.493 3.742,3.496 7.281,6.859 10.926,10.113 0.383,0.336 1.57,0.277 2.027,-0.07 2.34,-1.782 4.664,-3.606 6.797,-5.622 2.777,-2.617 5.371,-5.433 8.442,-8.57 -3.899,-4.258 -7.762,-8.469 -11.176,-12.199 z m -6.446,-7.418 c -2.765,-2.75 -5.562,-5.469 -8.351,-8.195 -1.039,-1.024 -1.902,-1.536 -3.332,-0.227 -4.59,4.168 -9.336,8.164 -14.043,12.207 -1.16,1 -1.379,1.926 -0.242,3.145 3.613,3.855 7.203,7.734 10.718,11.675 1.098,1.231 2.028,0.93 2.942,-0.003 4.34,-4.458 8.644,-8.946 12.953,-13.43 0.574,-0.594 1.098,-1.246 2.012,-2.289 -0.871,-0.949 -1.723,-1.957 -2.657,-2.883 z m -36.14,2.789 c -4.406,-4.605 -9.086,-8.949 -13.57,-13.484 -3.161,-3.203 -6.149,-6.575 -9.34,-9.739 -0.551,-0.543 -2.196,-0.906 -2.594,-0.543 -5.402,4.973 -12.227,8.516 -15.77,15.653 3.262,3.566 6.614,7.258 10.004,10.914 6.539,7.054 13.106,14.094 19.657,21.133 8.296,8.902 16.613,17.789 24.882,26.718 1.934,2.078 3.661,4.352 5.59,6.434 6.774,7.277 13.574,14.527 20.395,21.766 4.539,4.812 9.16,9.554 13.687,14.386 1.34,1.434 2.442,3.086 3.715,4.586 0.816,0.969 1.531,1.074 2.649,0.031 4.757,-4.445 9.652,-8.746 14.476,-13.121 0.781,-0.699 1.469,-1.496 2.414,-2.488 -4.808,-5.738 -9.344,-11.449 -14.211,-16.871 -4.57,-5.102 -9.512,-9.871 -14.238,-14.84 -3.309,-3.469 -6.496,-7.051 -9.789,-10.535 -12.629,-13.348 -25.25,-26.719 -37.957,-40 z m -29.078,36.41 c -1.504,1.387 -0.328,2.512 0.504,3.449 3.496,3.934 7.086,7.786 11.027,12.082 4.312,-4.941 8.144,-9.332 12.117,-13.886 -3.953,-4.313 -7.855,-8.575 -11.613,-12.672 -4.145,3.797 -8.094,7.41 -12.035,11.027 z m 26.476,31.481 c 1.153,1.269 2.094,0.976 3.121,-0.118 3.52,-3.742 7.063,-7.46 10.817,-11.429 -4.008,-4.371 -7.946,-8.77 -12.063,-12.989 -0.371,-0.378 -2.242,0.028 -2.832,0.637 -3.465,3.578 -6.758,7.328 -10.461,11.414 4,4.364 7.735,8.403 11.418,12.485 z m 17.153,17.781 c 2.457,-2.25 4.703,-4.156 6.761,-6.238 1.969,-1.993 3.743,-4.172 5.672,-6.34 -3.699,-4.039 -7.633,-8.332 -11.621,-12.688 -4.625,4.239 -8.828,8.086 -13.019,11.938 4.242,4.629 8.187,8.937 12.207,13.328 z m 14.964,16.586 c 4.153,3.344 8.368,5.504 13.625,6.074 4.473,0.488 8.122,-0.449 10.415,-4.566 0.328,-0.59 0.378,-1.789 -0.004,-2.239 -3.692,-4.382 -7.399,-8.761 -11.305,-12.945 -3.535,-3.781 -7.336,-7.32 -11.152,-11.098 -4.438,4.067 -8.786,8.051 -13.231,12.125 3.57,4.922 7.188,9.043 11.652,12.649 z m 38.274,2.367 c 5.887,-6.473 12.402,-12.367 18.398,-18.738 1.028,-1.09 0.778,-3.391 1.114,-5.129 -0.309,-0.137 -0.618,-0.278 -0.934,-0.414 -9.402,8.469 -19.34,16.371 -28.125,26.375 3.91,0.437 6.762,0.969 9.547,-2.094 z m 153.801,128.918 c -2.106,3.773 -4.317,7.762 -7.43,10.617 -3.117,2.848 -7.313,4.61 -11.199,6.492 -4.672,2.258 -8.614,1.344 -12.074,-2.355 -1.918,-2.063 -3.86,-4.113 -5.665,-6.274 -1.75,-2.101 -4.289,-3.668 -4.242,-7.003 0.02,-1.278 -0.636,-2.821 -1.492,-3.809 -4.023,-4.633 -8.195,-9.145 -12.367,-13.648 -4.078,-4.391 -8.172,-8.766 -12.359,-13.047 -2.594,-2.657 -5.622,-4.911 -8.032,-7.703 -7.843,-9.11 -15.277,-18.579 -23.273,-27.551 -8.453,-9.485 -17.36,-18.567 -26.09,-27.801 -6.219,-6.586 -12.687,-12.945 -18.656,-19.746 -6.871,-7.82 -15,-11.02 -25.215,-8.402 -0.418,0.105 -0.891,0.093 -1.324,0.042 -1.621,-0.171 -3.27,-0.71 -4.848,-0.535 -9.492,1.075 -17.262,-2.648 -23.812,-8.957 -4.305,-4.152 -7.934,-9.004 -11.848,-13.562 -1.57,-1.828 -2.945,-3.84 -4.629,-5.555 -3.016,-3.055 -6.313,-5.832 -9.27,-8.941 -5.136,-5.403 -10.097,-10.965 -15.132,-16.461 -0.012,0.008 -0.016,0.015 -0.028,0.023 -1.386,-1.519 -2.797,-3.019 -4.168,-4.554 -7.105,-7.997 -14.097,-16.094 -21.324,-23.977 -7.183,-7.832 -14.668,-15.383 -21.875,-23.195 -4.461,-4.836 -8.535,-10.039 -13,-14.883 -9.648,-10.445 -19.578,-20.633 -29.129,-31.172 -7.23,-7.977 -14.133,-16.254 -21.015,-24.527 -4.329,-5.207 -8.258,-10.739 -12.551,-15.973 -4.617,-5.629 -9.289,-11.231 -14.238,-16.566 -3.387,-3.649 -7.391,-6.707 -10.938,-10.215 -4.828,-4.766 -9.508,-9.676 -14.195,-14.575 -6.801,-7.105 -13.571,-14.246 -20.301,-21.417 -0.547,-0.586 -1.109,-1.618 -0.977,-2.305 0.809,-4.192 -0.488,-8.52 1.614,-12.684 3.785,-7.5 6.324,-15.687 13.113,-21.332 2.617,-2.172 4.93,-4.75 7.699,-6.679 7.223,-5.024 15.242,-8.586 23.645,-10.95 5.078,-1.433 10.515,-1.523 15.757,-2.398 2.559,-0.434 3.942,0.742 5.375,2.601 2.516,3.25 5.215,6.364 7.977,9.414 1.664,1.836 3.676,3.36 5.383,5.161 2.445,2.586 4.758,5.297 7.125,7.957 1.918,2.16 3.816,4.332 5.746,6.484 -0.344,1.664 -0.566,3.344 -0.68,5.02 -2.875,-3.317 -5.851,-6.555 -8.902,-9.719 -5.641,-5.84 -11.875,-11.184 -16.953,-17.473 -5.235,-6.472 -11.629,-5.262 -17.77,-3.68 -5.902,1.524 -11.383,4.657 -17.086,6.981 -7.082,2.875 -12.773,7.637 -17.457,13.484 -2.422,3.024 -3.957,6.77 -5.824,10.223 -0.711,1.316 -1.172,2.762 -1.855,4.098 -2.09,4.082 -2.231,8.382 -1.489,12.773 0.11,0.652 0.571,1.313 1.024,1.828 4.715,5.387 9.301,10.903 14.25,16.067 4.554,4.746 9.578,9.05 14.277,13.671 4,3.926 7.961,7.915 11.734,12.059 7.629,8.379 15.239,16.774 22.606,25.379 3.051,3.566 5.359,7.762 8.211,11.516 1.476,1.941 3.449,3.492 5.109,5.296 6.121,6.665 12.203,13.372 18.317,20.043 9.015,9.844 18.086,19.633 27.043,29.532 4.937,5.449 9.605,11.148 14.535,16.609 8.027,8.899 16.172,17.691 24.629,26.91 4.672,-4.734 8.675,-8.793 12.957,-13.125 -2.504,-2.961 -4.934,-6.094 -7.641,-8.969 -3.797,-4.027 -7.769,-7.89 -11.73,-11.761 -1.887,-1.848 -3.774,-3.778 -5.95,-5.235 -1.886,-1.261 -2.253,-2.543 -0.918,-4.113 3.559,-4.187 7.172,-8.332 10.946,-12.332 2.265,-2.398 5.066,-4.309 7.273,-6.758 3.887,-4.308 5.082,-3.398 8.625,-0.211 4.375,3.946 7.828,8.903 11.852,13.278 3.019,3.293 6.285,6.371 9.484,9.504 1.469,1.433 3.027,2.781 4.774,4.367 2.796,-2.559 5.593,-5.129 8.402,-7.696 2.226,-2.046 4.445,-4.101 6.691,-6.125 1.082,-0.96 1.211,-1.832 0.16,-2.945 -2.136,-2.269 -4.191,-4.613 -6.292,-6.922 -3.059,-3.359 -6.102,-6.734 -9.2,-10.062 -2.597,-2.797 -5.34,-5.457 -7.871,-8.313 -5.566,-6.261 -11.015,-12.633 -16.558,-18.922 -6.321,-7.168 -12.563,-14.414 -19.082,-21.398 -5.305,-5.68 -11.067,-10.926 -16.461,-16.527 -4.02,-4.172 -7.758,-8.61 -11.645,-12.911 -1.84,-2.031 -3.746,-4.003 -5.598,-6.015 -2.929,-3.188 -5.886,-6.348 -8.812,-9.539 1.742,0.074 3.465,-0.028 5.168,-0.293 4.711,5.125 9.582,10.109 14.32,15.211 1.75,1.883 3.094,4.144 4.895,5.965 3.398,3.433 7.109,6.558 10.492,10.007 6.152,6.282 12.23,12.641 18.203,19.094 4.441,4.793 8.629,9.824 12.992,14.692 7.469,8.32 14.961,16.613 22.496,24.875 5.801,6.359 11.563,12.769 17.571,18.929 7.496,7.696 15.277,15.117 22.847,22.742 2.707,2.731 5.262,5.633 7.692,8.614 4.062,4.984 7.875,10.179 11.976,15.133 4.227,5.109 8.633,10.066 13.035,15.027 3.372,3.812 6.887,7.492 10.278,11.289 3.328,3.73 4.652,7.937 2.945,12.871 -0.668,1.922 -1.437,3.895 -1.582,5.887 -0.289,3.91 -0.363,7.851 -0.191,11.765 0.297,6.883 1.886,13.379 6.773,18.621 1.524,1.629 3.133,3.188 4.625,4.84 6.266,6.934 12.328,14.047 18.793,20.785 7.43,7.754 15.281,15.106 22.789,22.786 3.238,3.316 5.938,7.14 9.106,10.519 5.004,5.352 10.265,10.469 15.308,15.789 6.321,6.68 12.567,13.442 18.774,20.223 3.074,3.351 6.125,6.734 8.957,10.289 2.621,3.305 4.429,7.449 9.476,7.773 0.395,0.024 0.832,0.356 1.141,0.661 3.519,3.539 7.242,6.91 10.426,10.73 1.629,1.953 4.543,4.168 2.832,7.25" /><path
         id="path28"
         style="fill:#050607;fill-opacity:1;fill-rule:nonzero;stroke:none"
         d="m 299.688,230.309 c 1.468,1.175 0.652,2.25 -0.305,3.254 -0.848,-1.02 -1.699,-2.036 -2.543,-3.055 0.867,-0.703 1.828,-1.024 2.848,-0.199" /></g></g></svg>