<?xml version="1.0" encoding="UTF-8" standalone="no"?>
<svg
   xmlns:dc="http://purl.org/dc/elements/1.1/"
   xmlns:cc="http://creativecommons.org/ns#"
   xmlns:rdf="http://www.w3.org/1999/02/22-rdf-syntax-ns#"
   xmlns:svg="http://www.w3.org/2000/svg"
   xmlns="http://www.w3.org/2000/svg"
   viewBox="0 0 100 100"
   height="100"
   width="100"
   xml:space="preserve"
   version="1.1"
   id="svg2"><metadata
     id="metadata8"><rdf:RDF><cc:Work
         rdf:about=""><dc:format>image/svg+xml</dc:format><dc:type
           rdf:resource="http://purl.org/dc/dcmitype/StillImage" /></cc:Work></rdf:RDF></metadata><defs
     id="defs6" /><g
     transform="matrix(1.25,0,0,-1.25,0,100)"
     id="g10"><g
       transform="scale(0.1,0.1)"
       id="g12"><path
         id="path14"
         style="fill:#1b181a;fill-opacity:1;fill-rule:nonzero;stroke:none"
         d="m 273.582,519.609 c 1.559,2.551 2.996,4.539 4.035,6.715 1.918,3.989 3.832,8.012 5.317,12.164 2.593,7.262 4.921,14.617 7.214,21.977 0.532,1.707 1.754,2.269 3.11,2.609 4.308,1.078 8.664,1.985 12.996,2.996 1.246,0.293 2.445,0.801 3.695,1.094 2.485,0.57 4.977,1.199 7.5,1.547 3.828,0.539 7.789,0.445 11.512,1.352 6.32,1.542 12.699,0.96 18.871,0.273 10.074,-1.133 20.102,-0.859 30.156,-0.719 9.321,0.133 18.637,0.156 27.942,0.477 6.41,0.222 12.812,0 19.246,0.664 9.101,0.933 18.277,1.035 27.469,0.851 10.199,-0.203 20.425,0.528 30.617,1.164 4.277,0.27 8.508,1.293 12.738,2.106 1.758,0.34 3.188,-0.016 4.25,-1.367 1.777,-2.266 3.668,-4.485 5.109,-6.953 3.504,-6.008 7.926,-11.246 12.758,-16.207 2.086,-2.145 3.742,-4.711 5.602,-7.082 1.82,-2.317 2.98,-5.188 6.281,-6.211 1.105,-0.34 1.781,-2.086 2.719,-3.274 0.148,-0.051 0.437,-0.269 0.683,-0.226 6.063,0.929 8.457,-2.207 10.25,-10.09 1.551,-6.828 0.461,-13.735 0.922,-20.586 0.153,-2.344 -1.34,-3.645 -3.523,-2.86 -4.465,1.598 -9.09,0.7 -13.625,1.161 -3.391,0.347 -3.871,-0.852 -3.996,-4.364 -0.207,-5.882 -0.582,-11.789 -1.348,-17.629 -1.301,-9.828 -2.957,-19.613 -4.473,-29.414 -0.461,-2.988 -0.906,-5.972 -1.453,-8.949 -1.363,-7.5 -2.812,-14.992 -4.183,-22.496 -1.344,-7.352 -2.461,-14.75 -3.965,-22.07 -1.602,-7.746 -3.629,-15.407 -5.309,-23.133 -1.258,-5.762 -2.203,-11.594 -3.383,-17.375 -1.066,-5.211 -2.546,-10.352 -3.351,-15.602 -1.836,-11.949 -3.547,-23.925 -4.969,-35.929 -1.207,-10.157 -2.023,-20.364 -2.808,-30.567 -0.153,-1.89 1.082,-3.906 0.871,-5.773 -0.2,-1.809 -1.957,-3.449 -2.149,-5.258 -0.91,-8.582 -1.465,-17.195 -2.258,-25.789 -0.507,-5.543 -2.246,-7.09 -7.863,-7.594 -5.086,-0.461 -10.164,-1.054 -15.25,-1.512 -3.422,-0.3 -6.848,-0.496 -10.277,-0.675 -5.125,-0.27 -10.364,0.074 -15.367,-0.84 -8.442,-1.535 -16.868,-1.324 -25.305,-0.926 -15.777,0.742 -31.543,1.852 -47.317,2.684 -5.57,0.293 -11.156,0.136 -16.726,0.324 -4.719,0.152 -9.442,0.359 -14.133,0.84 -2.547,0.265 -5.152,0.89 -6.723,3.379 -0.207,0.332 -0.64,0.672 -1.015,0.734 -4.02,0.66 -4.129,3.777 -4.461,6.852 -0.238,2.265 -0.414,4.593 -1.09,6.742 -2.719,8.644 -3.984,17.586 -5.539,26.461 -1.684,9.613 -3.117,19.273 -4.606,28.925 -1.792,11.649 -3.07,23.403 -5.414,34.942 -2.355,11.586 -3.234,23.324 -4.921,34.969 -2.227,15.343 -4.512,30.668 -7.961,45.797 -1.559,6.859 -2.621,13.828 -4.102,20.699 -1.484,6.879 -3.234,13.703 -4.805,20.566 -0.98,4.309 -1.769,8.668 -2.804,12.961 -0.938,3.891 -2.063,7.746 -3.16,11.602 -0.465,1.632 -1.727,2.097 -3.333,2.101 -3.019,0.008 -6.042,0.031 -9.054,0.242 -2.262,0.161 -4.508,0.61 -6.992,0.965 -1.204,4.364 -1.204,8.86 -0.704,13.188 0.59,5.136 1.262,10.199 0.782,15.375 -0.199,2.226 0.918,3.758 3.367,4.086 2.953,0.394 5.988,0.293 8.988,0.285 1.567,-0.004 3.137,-0.258 4.715,-0.399 m 143.086,-69.105 c 0.117,-2.57 0.109,-4.672 0.32,-6.746 0.664,-6.59 2.063,-13.18 2,-19.754 -0.183,-18.609 0.907,-37.152 1.86,-55.707 0.617,-11.949 1.164,-23.887 0.172,-35.848 -0.512,-6.16 -0.95,-12.359 -0.872,-18.535 0.11,-8.613 0.719,-17.223 1.137,-25.84 0.164,-3.414 0.395,-6.832 0.59,-10.179 -4.879,-1.032 -5.277,-0.836 -5.492,3.199 -0.336,6.277 -0.879,12.562 -0.77,18.836 0.188,11.078 0.914,22.14 1.207,33.218 0.309,11.649 0.641,23.301 0.485,34.954 -0.141,10.062 -0.985,20.117 -1.461,30.179 -0.176,3.735 -0.16,7.477 -0.293,11.211 -0.5,13.649 -1.598,27.223 -4.789,40.508 -8.184,-0.23 -16.25,-0.457 -24.028,-0.68 0,-4.484 -0.269,-8.515 0.051,-12.5 0.711,-8.89 1.922,-17.742 2.551,-26.636 0.848,-12.059 1.328,-24.149 1.996,-36.223 0.332,-6.035 0.738,-12.07 1.09,-18.109 0.277,-4.743 0.508,-9.485 0.793,-14.223 0.258,-4.305 0.621,-8.606 0.832,-12.91 0.789,-16.379 -0.035,-32.844 3.215,-49.078 1.027,-5.118 1.504,-4.465 5.027,-4.969 9.539,-1.359 19.094,-2.699 28.68,-3.555 6.703,-0.597 13.48,-0.504 20.23,-0.5 3.856,0.008 7.715,0.449 11.981,0.719 0.617,3.383 1.285,6.586 1.761,9.816 0.539,3.703 0.907,7.434 1.356,11.145 1.394,11.719 2.984,23.414 4.105,35.152 0.614,6.438 0.418,12.953 0.606,19.43 0.207,7.336 0.633,14.672 0.605,22.004 -0.035,8.625 -0.164,17.23 0.141,25.875 0.59,16.691 0.117,33.418 0.016,50.133 -0.012,1.793 -0.45,3.582 -0.731,5.656 -8.086,-0.727 -15.781,2.082 -23.57,-0.516 -0.727,-10.25 -0.11,-20.265 0.879,-30.285 0.59,-6.016 1.078,-12.043 1.433,-18.078 0.352,-5.895 0.207,-11.828 0.735,-17.707 1.39,-15.488 0.363,-30.793 -2.875,-45.977 -0.422,-1.972 -0.895,-4 -0.825,-5.988 0.414,-12.531 -2.39,-24.922 -1.574,-37.461 0.043,-0.715 -0.097,-1.441 -0.078,-2.16 0.074,-2.426 0.078,-4.859 0.293,-7.273 0.309,-3.446 0.856,-6.868 1.148,-10.309 0.153,-1.805 -0.773,-3.125 -2.679,-3.266 -1.836,-0.14 -2.895,0.715 -2.996,2.743 -0.305,5.875 -1.106,11.75 -1.004,17.609 0.148,8.758 0.719,17.523 1.453,26.262 0.668,7.886 1.527,15.769 2.793,23.578 1.883,11.551 3.141,23.156 2.625,34.824 -0.723,16.398 -1.996,32.773 -3.121,49.152 -0.524,7.61 -1.305,15.207 -1.852,22.817 -0.129,1.824 -0.937,2.73 -2.629,2.687 -7.297,-0.183 -14.605,-0.441 -22.527,-0.695 m -136.262,69.043 c 1.418,-0.231 2.239,-0.434 3.063,-0.481 8.644,-0.496 17.211,0.516 25.789,1.391 5.004,0.512 10.051,1.613 15.012,1.305 6.941,-0.422 13.73,0.554 20.585,0.937 7.184,0.399 14.352,1.117 21.54,1.422 8.195,0.352 16.402,0.238 24.585,0.641 7.176,0.351 14.321,1.347 21.489,1.703 17.527,0.883 35.066,1.512 52.59,2.336 6.32,0.297 12.613,0.988 18.929,1.285 8.18,0.391 16.367,0.574 24.555,0.82 2.953,0.086 6.047,-0.191 7,3.602 2.734,-0.641 5.121,-1.981 8.059,-0.496 -0.875,1.601 -1.465,3.246 -2.504,4.515 -4.375,5.332 -8.938,10.516 -13.325,15.836 -1.992,2.426 -4.207,4.832 -5.507,7.625 -2.188,4.719 -5.532,6.047 -10.426,5.489 -8.059,-0.93 -16.141,-1.899 -24.235,-2.18 -15.207,-0.543 -30.429,-0.563 -45.648,-0.891 -10.066,-0.215 -20.129,-0.648 -30.199,-0.851 -8.153,-0.168 -16.309,-0.293 -24.461,-0.149 -12.801,0.223 -25.598,0.801 -38.399,0.989 -3.398,0.046 -6.851,-0.559 -10.203,-1.239 -5.488,-1.121 -10.922,-2.508 -16.355,-3.863 -1.805,-0.449 -3.606,-1.004 -5.301,-1.762 -0.82,-0.367 -1.656,-1.183 -2.027,-2.011 -1.715,-3.797 -3.606,-7.567 -4.809,-11.54 -2.133,-7.027 -3.973,-14.125 -8.035,-20.39 -0.676,-1.047 -1.023,-2.313 -1.762,-4.043 m -20.457,-27.223 c 1.571,-0.133 2.832,-0.254 4.094,-0.34 5.293,-0.359 10.598,-0.625 15.879,-1.093 5.129,-0.457 10.23,-1.239 15.363,-1.672 4.57,-0.379 9.297,0.136 13.719,-0.828 9.285,-2.032 18.629,-1.707 27.93,-1.407 12.785,0.418 25.531,1.657 38.312,2.379 5.731,0.328 11.492,0.16 17.231,0.407 16.562,0.703 32.824,4.07 49.285,5.714 9.715,0.965 19.359,2.567 29.043,3.864 1,0.132 2.011,0.164 3.019,0.199 9.653,0.336 19.141,2.008 28.664,3.492 11.602,1.809 23.098,4.746 35.008,3.801 0.231,-0.016 0.481,0.246 0.871,0.461 0.141,1.883 0.121,3.898 0.461,5.847 0.649,3.688 -0.262,7.106 -1.23,10.594 -0.766,2.735 -2.5,3.645 -5.102,3.598 -2.012,-0.035 -4.023,0.008 -6.035,0.023 -1.586,0.008 -2.973,-0.011 -4.066,-1.687 -0.5,-0.762 -2.235,-0.856 -3.434,-0.981 -1.094,-0.117 -2.227,0.254 -3.336,0.196 -5.437,-0.293 -10.879,-0.793 -16.328,-0.969 -11.918,-0.391 -23.836,-0.602 -35.758,-0.938 -2.719,-0.078 -5.437,-0.351 -8.152,-0.562 -4.867,-0.387 -9.727,-1.008 -14.606,-1.156 -12.07,-0.364 -24.148,-0.52 -36.23,-0.762 -2.004,-0.043 -4.02,0 -6.016,-0.16 -5.14,-0.438 -10.262,-1.164 -15.41,-1.395 -9.309,-0.418 -18.641,-0.488 -27.957,-0.871 -2.844,-0.113 -5.66,-0.933 -8.508,-1.121 -10.457,-0.695 -20.922,-1.242 -31.383,-1.891 -5.437,-0.336 -10.906,-0.519 -16.308,-1.187 -9.981,-1.238 -19.938,-1.504 -29.938,-0.305 -2.215,0.262 -4.5,-0.031 -6.793,-0.078 -0.793,-7.308 -1.523,-14.078 -2.289,-21.172 m 28.262,-38.179 c 3.43,2.39 6.43,2.589 9.695,2 3.809,-0.692 7.676,-1.29 11.528,-1.379 4.578,-0.11 9.168,0.422 13.754,0.589 8.48,0.313 16.96,0.653 25.441,0.813 8.312,0.156 16.637,0.195 24.949,0.125 7.332,-0.07 14.66,-0.578 21.981,-0.496 7.597,0.09 15.187,0.781 22.789,0.984 12.937,0.344 25.882,0.547 38.816,0.739 8.77,0.128 17.543,0.062 26.309,0.25 3,0.066 5.98,0.804 8.984,0.929 6.281,0.254 12.512,0.606 18.164,3.793 0.727,-0.668 1.223,-1.168 1.766,-1.621 0.468,-0.398 0.984,-0.746 2.136,-1.609 2.372,13.5 3.243,26.406 3.399,39.847 -2.516,-0.265 -4.496,-0.379 -6.453,-0.691 -7.239,-1.152 -14.457,-2.457 -21.715,-3.551 -9.789,-1.461 -19.727,-1.097 -29.551,-2.836 -12.605,-2.234 -25.379,-3.511 -38.09,-5.172 -2.543,-0.336 -5.105,-0.488 -7.652,-0.8 -4.691,-0.579 -9.363,-1.442 -14.074,-1.762 -7.301,-0.496 -14.629,-0.524 -21.942,-0.961 -8.152,-0.488 -16.285,-1.316 -24.441,-1.801 -6.734,-0.402 -13.484,-0.555 -20.234,-0.746 -2.282,-0.062 -4.571,0.078 -6.852,0.164 -5.027,0.176 -10.188,-0.301 -15.039,0.723 -8.969,1.89 -18,1.828 -27.031,2.304 -1.067,0.055 -2.149,-0.136 -3.414,-0.218 2.254,-9.864 4.429,-19.375 6.777,-29.617 m 38.781,-216.032 c 3.66,-2.23 7.735,-2.179 11.727,-2.398 7.551,-0.418 15.117,-0.629 22.668,-1.074 7.031,-0.407 14.043,-1.102 21.066,-1.5 8.305,-0.465 16.613,-0.746 24.918,-1.118 3.442,-0.16 6.891,-0.644 10.305,-0.46 6.883,0.359 13.75,1.046 20.617,1.644 3,0.262 5.984,0.824 8.988,0.938 9.153,0.324 18.282,0.796 27.313,2.445 2.023,0.371 3.508,1.316 4.414,3.551 1.773,4.379 1.437,8.718 0.531,13.074 -0.41,1.992 -0.402,3.473 0.949,5.148 1.364,1.684 2.008,3.785 0.582,6.2 -1.957,0.164 -3.949,0.507 -5.933,0.46 -8.614,-0.214 -17.242,-0.242 -25.824,-0.933 -7.657,-0.621 -15.18,-0.082 -22.715,0.953 -2.375,0.324 -4.672,1.219 -7.047,1.57 -3.078,0.45 -6.203,0.602 -9.309,0.914 -5.582,0.571 -11.152,1.289 -16.746,1.711 -3.402,0.246 -6.84,0.071 -10.254,0.071 -2.012,-0.008 -4.152,0.41 -6.004,-0.141 -7.746,-2.285 -15.664,-1.109 -23.496,-1.43 -4.961,-0.203 -9.961,0.563 -14.918,0.34 -6.211,-0.273 -12.39,-1.125 -19.039,-1.777 1.848,-9.824 3.512,-19.27 7.207,-28.188 m 64.383,37.731 c 0,2.543 0.063,4.808 -0.016,7.074 -0.293,8.91 -0.714,17.812 -0.937,26.727 -0.34,13.222 -0.309,26.457 -0.875,39.668 -0.606,14.187 -1.672,28.363 -2.629,42.535 -0.504,7.472 -1.094,14.937 -1.859,22.386 -0.68,6.711 -1.715,13.387 -2.473,20.098 -0.555,4.961 -0.906,9.953 -1.356,15.02 -8.421,0.753 -16.765,0.57 -25.656,0.625 0.239,-6.047 0.285,-11.5 0.727,-16.926 0.621,-7.586 1.851,-15.129 2.269,-22.719 1.075,-19.57 3.407,-38.996 6.313,-58.363 1.601,-10.668 3.101,-21.336 3.844,-32.11 0.457,-6.73 0.765,-13.519 1.894,-20.156 1.406,-8.281 3.586,-16.433 5.465,-24.785 4.98,0.305 9.832,0.598 15.289,0.926 m -37.687,-1.34 16.296,0 c -1.089,7.242 -1.707,14.121 -3.277,20.773 -1.039,4.414 -1.246,8.801 -1.605,13.235 -0.094,1.136 0.191,2.312 0.062,3.437 -1.082,9.719 -2.242,19.434 -3.328,29.153 -1.387,12.293 -2.742,24.586 -4.078,36.886 -0.918,8.442 -1.848,16.887 -2.653,25.34 -0.464,4.867 -0.546,9.77 -1.07,14.625 -0.476,4.402 -1.359,8.766 -1.972,13.164 -0.856,6.098 -1.625,12.211 -2.477,18.621 -7.711,0.231 -15.254,0.496 -23.027,-1.097 0,-1.711 -0.164,-3.149 0.027,-4.536 1.098,-7.824 2.316,-15.632 3.434,-23.46 1.812,-12.676 3.48,-25.375 5.375,-38.043 1.554,-10.375 3.378,-20.711 5.035,-31.075 0.617,-3.832 1.254,-7.679 1.609,-11.539 0.75,-8.164 1.195,-16.343 3.164,-24.359 2.758,-11.18 5.328,-22.406 7.836,-33.649 0.535,-2.406 0.449,-4.953 0.649,-7.476 m 122.597,176.504 c 0.235,-3.805 0.649,-7.336 0.629,-10.867 -0.027,-5.469 -0.297,-10.942 -0.559,-16.403 -0.468,-9.918 -0.996,-19.828 -1.515,-29.742 -0.086,-1.719 -0.383,-3.437 -0.313,-5.141 0.293,-7.027 0.727,-14.046 1.02,-21.074 0.066,-1.574 -0.246,-3.16 -0.32,-4.742 -0.266,-5.719 -0.547,-11.445 -0.715,-17.176 -0.039,-1.269 0.59,-2.578 0.484,-3.828 -0.66,-7.715 -1.406,-15.43 -2.195,-23.133 -0.375,-3.691 -1.555,-7.425 -1.219,-11.035 0.52,-5.597 -0.727,-10.883 -1.801,-16.156 -1.386,-6.836 -0.629,-13.359 0.879,-20.473 2.778,0.239 5.371,0.196 7.832,0.735 4.621,1.007 7.184,5.004 3.914,9.914 -1.203,1.804 -1.367,3.652 -0.777,5.754 0.769,2.754 1.414,5.566 1.863,8.39 0.813,5.086 1.547,10.188 2.117,15.301 0.493,4.426 0.657,8.879 1.059,13.309 0.691,7.589 1.512,15.164 2.168,22.754 0.883,10.183 1.637,20.375 2.48,30.562 0.754,9.176 1.664,18.344 2.289,27.535 0.356,5.153 0.239,10.34 0.395,15.516 0.27,9.195 0.598,18.394 0.875,27.594 0.031,0.961 -0.125,1.925 -0.211,3.109 -6.363,-0.242 -12.492,-0.481 -18.379,-0.703 M 305.656,447.93 c 0.168,-1.094 0.227,-1.789 0.391,-2.461 1.414,-5.832 3.371,-11.473 3.824,-17.598 0.699,-9.598 2.524,-19.109 3.305,-28.699 0.683,-8.336 1.844,-16.586 3.679,-24.699 3.118,-13.789 5.379,-27.731 6.614,-41.762 1.105,-12.539 4.285,-24.637 6.289,-36.977 1.168,-7.156 2.574,-14.269 3.828,-21.195 2.398,0 5.102,-0.023 7.805,0.012 2.597,0.035 5.269,-0.684 7.629,0.191 -1.622,7.043 -3.286,13.676 -4.645,20.375 -0.914,4.496 -1.309,9.094 -2.098,13.617 -1.175,6.762 -2.918,13.457 -3.648,20.262 -1.43,13.141 -2.973,26.234 -5.852,39.152 -0.871,3.918 -1.945,7.942 -1.851,11.887 0.254,10.781 -3.317,20.996 -4.043,31.649 -0.586,8.546 -2.672,17 -4.11,25.496 -0.613,3.629 -1.261,7.254 -1.867,10.75 l -15.25,0 z m -15.902,1.351 c 0.82,-4.199 1.613,-8.133 2.355,-12.066 3.832,-20.219 8.364,-40.301 10.387,-60.832 0.914,-9.309 2.442,-18.555 3.848,-27.801 1.855,-12.223 3.844,-24.434 5.808,-36.641 1.856,-11.5 3.727,-22.992 5.661,-34.476 0.296,-1.766 0.957,-3.469 1.421,-5.102 3.293,0.492 6.059,0.903 9.106,1.356 -0.621,1.933 -1.168,3.394 -1.555,4.894 -0.597,2.336 -1.246,4.672 -1.586,7.059 -0.922,6.387 -1.617,12.808 -2.535,19.195 -0.934,6.531 -2.137,13.02 -3.019,19.551 -0.868,6.418 -1.356,12.883 -2.223,19.293 -0.801,5.965 -1.789,11.898 -2.867,17.82 -1.465,8.047 -3.305,16.028 -4.582,24.106 -1.321,8.355 -2.157,16.789 -3.215,25.183 -0.938,7.414 -1.785,14.844 -2.871,22.235 -0.567,3.84 -1.407,7.656 -2.414,11.402 -0.575,2.148 -1.246,4.648 -4.203,4.797 -2.27,0.117 -4.551,0.027 -7.516,0.027 m 204.531,-89.793 c 8.824,31.114 14.848,62.707 19.531,94.946 -5.027,-0.676 -9.347,-1.258 -13.843,-1.868 -0.442,-5.875 -0.973,-11.445 -1.243,-17.031 -0.308,-6.305 -0.312,-12.625 -0.578,-18.933 -0.109,-2.684 -1.246,-5.516 -0.668,-7.989 0.911,-3.894 -0.156,-7.402 -0.629,-11.082 -0.546,-4.379 -1.023,-8.785 -1.296,-13.191 -0.516,-8.277 -0.86,-16.57 -1.274,-24.852" /></g></g></svg>