<?xml version="1.0" encoding="UTF-8" standalone="no"?>
<svg
   xmlns:dc="http://purl.org/dc/elements/1.1/"
   xmlns:cc="http://creativecommons.org/ns#"
   xmlns:rdf="http://www.w3.org/1999/02/22-rdf-syntax-ns#"
   xmlns:svg="http://www.w3.org/2000/svg"
   xmlns="http://www.w3.org/2000/svg"
   viewBox="0 0 100 100"
   height="100"
   width="100"
   xml:space="preserve"
   version="1.1"
   id="svg2"><metadata
     id="metadata8"><rdf:RDF><cc:Work
         rdf:about=""><dc:format>image/svg+xml</dc:format><dc:type
           rdf:resource="http://purl.org/dc/dcmitype/StillImage" /></cc:Work></rdf:RDF></metadata><defs
     id="defs6" /><g
     transform="matrix(1.25,0,0,-1.25,0,100)"
     id="g10"><g
       transform="scale(0.1,0.1)"
       id="g12"><path
         id="path14"
         style="fill:#171717;fill-opacity:1;fill-rule:nonzero;stroke:none"
         d="m 399.656,466.527 c -0.121,0 -0.246,0 -0.371,0.008 -1.879,0.125 -3.433,1.258 -4.383,3.184 -1.031,2.097 -2.015,4.222 -2.992,6.312 l -1.531,3.285 0.476,0.512 c 2.688,2.867 5.821,4.043 9.586,3.578 0.926,-0.113 1.735,-0.523 2.516,-0.922 0.332,-0.168 0.664,-0.336 1,-0.472 l 0.445,-0.184 c 0.832,-0.344 1.668,-0.683 2.524,-0.965 0.777,-0.25 1.855,-0.703 2.262,-1.742 0.296,-0.75 0.164,-1.598 -0.395,-2.598 -1.531,-2.722 -3.031,-5.171 -4.578,-7.488 -1.031,-1.539 -2.789,-2.492 -4.559,-2.508 z M 266.438,446.859 c -0.29,-0.004 -0.614,0.063 -0.969,0.188 -0.653,0.238 -1.461,0.726 -1.766,1.387 -1.039,2.25 -2.105,4.656 -2.719,7.156 -1.265,5.121 -2.226,9.719 -2.929,14.066 l -0.078,0.477 c -1.039,6.387 -2.114,12.984 -2.629,19.543 -0.227,2.859 -0.012,5.762 0.191,8.566 0.117,1.621 0.234,3.238 0.27,4.856 0.05,2.328 -0.032,4.711 -0.114,7.015 l -0.07,2.09 c -0.121,4.012 1.004,6.871 3.535,9.012 1.645,1.383 3.274,2.781 4.903,4.18 2.437,2.089 4.875,4.179 7.347,6.226 4.512,3.731 9.645,6.547 14.613,9.27 2.043,1.121 4.086,2.238 6.086,3.422 1.637,0.964 3.356,1.812 5.012,2.628 l 1.043,0.516 c 0.399,0.199 0.789,0.227 1.242,0.254 0.203,0.016 0.442,0.027 0.731,0.066 l 2.16,0.266 -1.156,-1.844 c -0.215,-0.34 -0.395,-0.664 -0.559,-0.961 -0.359,-0.644 -0.699,-1.25 -1.211,-1.746 -1.234,-1.187 -1.785,-2.765 -2.367,-4.437 -0.285,-0.821 -0.574,-1.637 -0.934,-2.418 -0.929,-2 -1.664,-4.203 -2.304,-6.153 -1.348,-4.07 -2.633,-8.156 -3.914,-12.246 l -0.403,-1.289 c -0.949,-3.027 -1.894,-6.047 -2.75,-9.094 -0.609,-2.191 -1.148,-4.402 -1.683,-6.613 l -1.27,-5.101 c -0.441,-1.743 -0.887,-3.489 -1.285,-5.239 -0.356,-1.535 -0.68,-3.082 -1.008,-4.629 -0.324,-1.539 -0.644,-3.074 -0.996,-4.609 l -0.246,-1.07 c -0.676,-2.965 -1.375,-6.028 -2.207,-9.016 -0.504,-1.816 -0.188,-3.148 0.965,-4.082 1.504,-1.215 3.195,-1.418 4.648,-0.551 1.727,1.032 3.414,2.243 5.043,3.41 0.703,0.508 1.406,1.012 2.121,1.508 0.254,0.18 0.504,0.364 0.836,0.617 l 2.375,1.758 0.102,-4.511 c 0.035,-2.743 -1.117,-4.747 -3.625,-6.305 -1.754,-1.086 -3.41,-2.469 -5.012,-3.809 -0.684,-0.57 -1.371,-1.144 -2.066,-1.699 -0.844,-0.672 -1.672,-1.359 -2.504,-2.047 -1.809,-1.5 -3.68,-3.051 -5.668,-4.406 -2.492,-1.707 -5.149,-3.027 -8.106,-4.453 -0.203,-0.098 -0.425,-0.149 -0.675,-0.149 z m 273.285,-1.574 c -0.793,-0.008 -1.629,0.367 -2.082,0.735 -1.598,1.304 -3.172,2.632 -4.75,3.957 -1.844,1.554 -3.688,3.109 -5.567,4.621 -1.148,0.922 -2.344,1.785 -3.543,2.644 -1.297,0.938 -2.59,1.871 -3.828,2.879 -1.019,0.824 -1.91,1.781 -2.773,2.707 -0.422,0.453 -0.844,0.906 -1.282,1.344 -0.175,0.176 -0.363,0.344 -0.546,0.504 -0.832,0.738 -1.872,1.66 -1.95,3.461 -0.027,0.633 -0.39,1.351 -0.773,2.117 -0.203,0.398 -0.402,0.797 -0.57,1.195 l -0.266,0.649 -1.266,3.179 4.563,-2.734 c 0.84,-0.441 1.68,-0.891 2.508,-1.359 1.504,-0.856 2.718,-1.094 3.422,-0.664 0.726,0.441 1.121,1.718 1.058,3.418 -0.133,3.546 -0.578,7.167 -1.012,10.671 -0.168,1.375 -0.339,2.754 -0.492,4.129 l -0.164,1.571 c -0.168,1.679 -0.344,3.414 -0.695,5.05 -0.309,1.418 -0.598,2.84 -0.887,4.262 -1.285,6.301 -2.613,12.817 -5.375,18.731 -1.762,3.765 -3.703,7.543 -5.582,11.191 -1.09,2.125 -2.18,4.25 -3.246,6.387 -1.199,2.394 -2.355,4.816 -3.582,7.383 l -2.664,5.554 2.074,-0.461 c 0.445,-0.097 0.844,-0.164 1.203,-0.23 0.758,-0.129 1.414,-0.242 2.043,-0.535 l 2.246,-1.02 c 2.973,-1.344 6.047,-2.734 8.961,-4.336 4.723,-2.594 8.434,-5.637 11.344,-9.293 0.617,-0.777 1.395,-1.449 2.223,-2.16 0.558,-0.484 1.121,-0.969 1.636,-1.488 0.649,-0.653 1.239,-1.356 1.832,-2.067 0.278,-0.336 0.559,-0.672 0.848,-1.004 0.445,-0.503 0.918,-1 1.391,-1.492 1.097,-1.144 2.23,-2.332 3.05,-3.738 1.559,-2.684 2.559,-5.195 2.973,-7.473 1.07,-5.879 1.93,-11.89 2.762,-17.703 l 0.625,-4.359 c 0.113,-0.774 0.062,-1.524 0.012,-2.242 -0.02,-0.289 -0.039,-0.571 -0.047,-0.856 l -0.153,-5.707 c -0.125,-4.82 -0.25,-9.64 -0.472,-14.457 -0.075,-1.562 -0.313,-3.117 -0.547,-4.621 -0.176,-1.152 -0.356,-2.301 -0.457,-3.461 -0.082,-0.887 -0.028,-1.793 0.023,-2.758 0.039,-0.605 0.071,-1.215 0.074,-1.824 0.004,-2.605 0.012,-5.117 -0.089,-7.621 -0.036,-0.809 -0.504,-2.125 -1.442,-2.527 -0.242,-0.102 -0.504,-0.149 -0.769,-0.149 z m -59.551,-20.992 -0.723,0.797 c -4.039,4.453 -5.965,9.723 -7.312,14.285 -1.317,4.449 -4.387,7.59 -7.344,11.871 l -0.473,0.684 c -1.207,1.765 -2.453,3.582 -3.941,5.027 -1.352,1.309 -2.906,2.492 -4.414,3.637 -0.934,0.711 -1.867,1.426 -2.77,2.172 -0.726,0.605 -1.422,1.257 -2.109,1.91 -0.996,0.937 -1.934,1.82 -2.977,2.566 -3.48,2.485 -7.25,5.106 -11.234,7.449 -2.582,1.516 -5.453,2.707 -8.234,3.856 0,0 -3.543,1.387 -5.082,1.937 -1.661,0.602 -3.321,1.2 -4.946,1.887 -2.664,1.121 -9.152,3.887 -12.679,4.399 -0.86,0.125 -3.051,0.464 -3.832,0.605 -3.157,0.543 -5.782,0.871 -8.512,-0.133 -1.094,-0.402 -2.235,-0.582 -3.336,-0.75 -0.758,-0.121 -1.52,-0.234 -2.254,-0.433 l -0.672,-0.18 c -1.754,-0.465 -3.57,-0.945 -5.109,-1.758 -3.145,-1.66 -6.313,-3.574 -9.414,-5.691 -2.313,-1.582 -4.567,-3.258 -6.817,-4.934 -1.578,-1.176 -3.152,-2.348 -4.754,-3.488 -0.894,-0.645 -1.836,-1.235 -2.777,-1.82 -1.262,-0.79 -2.449,-1.536 -3.551,-2.411 -1.476,-1.179 -2.89,-2.437 -4.301,-3.699 -1.507,-1.344 -3.062,-2.73 -4.683,-4.004 -0.754,-0.594 -1.492,-1.203 -2.231,-1.812 -1.785,-1.485 -3.636,-3.016 -5.738,-4.282 -1.781,-1.07 -3.359,-2.691 -4.887,-4.261 -0.511,-0.528 -1.027,-1.059 -1.55,-1.567 -2.911,-2.847 -5.789,-5.722 -8.672,-8.601 l -4.125,-4.113 -1.793,0.695 -0.063,0.637 c -0.027,0.32 -0.07,0.644 -0.105,0.964 -0.094,0.762 -0.184,1.52 -0.176,2.278 0.047,3.465 -0.348,7.015 -3.504,9.492 -1.699,1.332 -4.148,1.445 -5.957,0.262 -1.316,-0.864 -2.625,-1.735 -3.93,-2.61 -1.203,-0.801 -2.402,-1.601 -3.609,-2.394 -0.32,-0.207 -0.668,-0.364 -1.144,-0.567 l -2.43,-1.105 0.5,4.715 c 0.219,2.019 0.422,3.902 0.59,5.789 0.125,1.441 0.222,2.883 0.324,4.328 0.183,2.656 0.375,5.406 0.742,8.101 0.316,2.301 0.848,4.582 1.363,6.79 0.27,1.156 0.539,2.316 0.782,3.476 0.504,2.445 0.785,5.281 -0.965,7.82 -0.746,1.082 -1.664,1.68 -2.66,1.719 -1.067,-0.015 -2.196,-0.566 -3.098,-1.668 -1.223,-1.488 -2.672,-2.773 -4.074,-4.019 -0.614,-0.539 -1.227,-1.086 -1.821,-1.645 l -0.566,-0.531 -2.336,-1.735 0.664,4.657 c 0.106,0.785 0.215,1.574 0.293,2.359 0.422,4.082 1.59,8 2.715,11.789 0.578,1.953 1.16,3.899 1.641,5.875 0.476,1.957 0.929,3.922 1.386,5.887 0.688,2.973 1.375,5.949 2.145,8.902 0.629,2.43 1.508,4.805 2.359,7.102 l 1.344,3.668 c 1.488,4.074 3.027,8.293 4.758,12.359 1.23,2.895 2.965,5.555 4.5,7.774 1.465,2.113 3.105,4.128 4.699,6.074 l 1.512,1.859 c 0.289,0.363 0.629,0.61 1.058,0.922 0.207,0.152 0.453,0.328 0.735,0.555 l 1.41,1.113 0.527,-3.578 c 0.192,-1.238 0.36,-2.336 0.457,-3.442 0.153,-1.718 0.801,-2.734 1.926,-3.019 0.723,-0.184 1.348,-0.078 1.809,0.297 0.535,0.433 0.824,1.23 0.785,2.18 l -0.157,3.785 c -0.144,3.562 -0.292,7.125 -0.394,10.683 -0.059,2.055 -0.02,4.239 0.125,6.676 0.035,0.676 0.469,1.168 0.812,1.559 0.098,0.117 0.2,0.226 0.282,0.343 l 0.656,0.938 0.867,-0.75 c 0.102,-0.086 0.219,-0.164 0.332,-0.246 0.371,-0.262 0.84,-0.586 1.09,-1.129 l 0.176,-0.387 c 1.914,-4.168 3.722,-8.109 6.625,-11.484 0.363,-0.434 0.566,-0.672 0.789,-0.891 1.328,-1.297 2.461,-1.91 3.223,-1.707 0.75,0.203 1.453,1.301 1.972,3.098 0.367,1.262 0.719,2.527 1.07,3.793 0.665,2.394 1.329,4.785 2.09,7.148 0.821,2.543 1.801,5.067 2.75,7.508 l 0.629,1.621 c 0.465,1.199 0.973,2.379 1.481,3.563 l 0.98,2.293 2.082,-0.329 0.184,-0.636 c 0.133,-0.465 0.281,-0.926 0.426,-1.387 0.343,-1.066 0.695,-2.168 0.867,-3.32 0.437,-2.969 1.871,-5.481 3.386,-8.141 0.348,-0.609 0.696,-1.219 1.032,-1.836 1.636,-2.996 3.996,-5.656 7.648,-8.629 1.02,-0.824 2.168,-1.765 3.086,-2.898 0.945,-1.168 1.949,-1.52 3.262,-1.141 1.215,0.352 1.933,1.274 2.195,2.82 0.242,1.411 -0.797,2.704 -1.848,3.446 -1.769,1.246 -3.476,2.578 -5.179,3.914 l -1.961,1.527 c -0.277,0.211 -0.516,0.442 -0.703,0.676 -1.129,1.391 -1.965,2.547 -1.617,3.707 0.343,1.148 1.625,1.633 3.402,2.195 4.918,1.555 9.668,2.34 14.519,2.399 3.793,0.051 7.59,0.215 11.383,0.375 2.778,0.121 5.559,0.242 8.34,0.312 l 1.191,0.035 c 3.961,0.11 8.059,0.219 12.086,-0.039 2.414,-0.148 4.813,-0.613 7.129,-1.062 1.067,-0.203 2.133,-0.41 3.203,-0.586 l 9.336,-1.52 -0.828,-3.324 c -0.426,-1.691 -0.855,-3.383 -1.215,-5.082 -0.101,-0.473 0.047,-1.039 0.407,-1.562 0.425,-0.625 1.078,-1.075 1.703,-1.176 0.965,-0.145 1.894,0.625 2.203,1.855 1.176,4.66 2.793,8.231 5.098,11.235 0.937,1.226 1.859,2.468 2.781,3.707 1.797,2.418 3.656,4.918 5.629,7.281 1.133,1.359 2.504,2.5 3.824,3.602 0.582,0.488 1.16,0.968 1.715,1.468 l 0.504,0.453 1.988,-0.91 -0.02,-0.683 c -0.015,-0.469 -0.011,-0.938 -0.011,-1.407 0.004,-1.066 0.008,-2.168 -0.16,-3.265 -0.922,-5.938 -0.45,-11.988 1.453,-18.496 0.511,-1.758 0.984,-3.02 2.379,-3.246 1.113,-0.18 2.093,-0.118 2.625,0.171 2.359,1.29 4.699,2.731 6.961,4.125 0.929,0.575 1.863,1.149 2.796,1.715 0.161,0.098 0.332,0.168 0.618,0.282 l 2.3,0.964 -0.504,-2.75 c -0.097,-0.55 -0.175,-1.011 -0.289,-1.464 -0.351,-1.434 -0.718,-2.868 -1.082,-4.297 -0.796,-3.141 -1.625,-6.383 -2.32,-9.59 -0.34,-1.567 -0.418,-3.328 -0.223,-5.098 0.047,-0.426 0.422,-0.957 0.973,-1.383 0.617,-0.468 1.25,-0.668 1.57,-0.625 1.411,0.211 3.153,2.016 3.008,3.11 -0.539,4 0.844,7.445 2.176,10.781 l 0.711,1.781 1.027,-0.558 c 6.11,-3.344 11.102,-8.239 15.258,-14.973 1.875,-3.043 3.508,-6.281 5.082,-9.414 0.652,-1.305 1.309,-2.606 1.981,-3.898 0.48,-0.918 0.972,-1.836 1.464,-2.75 1.27,-2.36 2.582,-4.801 3.668,-7.321 l 0.516,-1.183 c 1.988,-4.586 4.047,-9.329 5.465,-14.207 1.281,-4.411 2.183,-8.985 3.055,-13.411 0.339,-1.711 0.675,-3.418 1.035,-5.117 0.465,-2.203 0.836,-4.426 1.199,-6.648 0.074,-0.453 -0.024,-0.863 -0.109,-1.223 -0.036,-0.133 -0.071,-0.269 -0.094,-0.418 l -0.289,-1.695 -3.375,2.605 c -1.563,1.215 -3.074,2.383 -4.602,3.532 -0.648,0.496 -1.316,0.961 -1.984,1.429 -0.684,0.473 -1.36,0.949 -2.02,1.449 -0.543,0.411 -1.074,0.942 -1.586,1.583 -0.476,0.601 -1.07,0.929 -1.668,0.925 l -0.004,0 c -0.585,-0.004 -1.156,-0.328 -1.613,-0.914 -1,-1.293 -1.137,-2.261 -0.504,-3.578 1.102,-2.277 2.129,-4.59 3.16,-6.902 1.25,-2.805 2.543,-5.703 3.938,-8.481 2.672,-5.328 4.402,-11.054 5.144,-17.031 0.106,-0.848 0.028,-1.66 -0.062,-2.605 -0.039,-0.446 -0.086,-0.926 -0.117,-1.457 l -0.102,-1.883 -1.531,1.097 c -0.672,0.481 -1.32,0.934 -1.949,1.371 -1.403,0.981 -2.703,1.891 -3.938,2.879 -1.023,0.821 -2.011,1.696 -2.996,2.571 -1.058,0.937 -2.113,1.879 -3.226,2.75 -0.579,0.453 -1.469,0.812 -2.508,1.019 -0.223,0.051 -0.434,-0.027 -0.664,-0.211 -0.555,-0.433 -0.953,-1.328 -0.992,-2.218 l -0.043,-1.293 c -0.04,-1.465 -0.082,-2.981 -0.403,-4.457 -0.164,-0.743 -0.316,-1.493 -0.469,-2.243 -0.644,-3.144 -1.312,-6.394 -2.625,-9.363 -1.503,-3.406 -3.453,-6.644 -5.339,-9.777 -0.754,-1.258 -1.512,-2.516 -2.243,-3.785 -0.222,-0.387 -0.535,-0.661 -0.808,-0.895 -0.106,-0.09 -0.211,-0.18 -0.317,-0.285 l -0.769,-0.754 z m -48.313,-51.957 c -1.004,-0.008 -2.007,0.48 -2.871,1.406 -1.605,1.727 -3.133,3.559 -4.609,5.328 l -1.707,2.039 c -0.387,0.438 -0.852,0.965 -0.688,1.664 0.25,1.071 -0.187,2.016 -0.699,3.114 -0.363,0.773 -0.738,1.578 -0.894,2.5 -0.219,1.281 -0.473,2.562 -0.731,3.836 -0.363,1.828 -0.726,3.66 -0.988,5.5 -0.32,2.261 -0.563,4.535 -0.805,6.804 -0.191,1.84 -0.39,3.676 -0.629,5.508 -0.847,6.574 -1.593,13.582 -0.539,20.68 0.301,2.031 -0.027,3.363 -1.133,4.609 -1.175,1.313 -2.23,1.34 -3.894,0.91 -5.059,-1.308 -9.567,-1.574 -13.77,-0.82 -3.468,0.625 -6.515,1.246 -9.312,1.906 -0.965,0.219 -1.953,0.016 -2.641,-0.566 -0.406,-0.348 -0.879,-0.965 -0.812,-1.953 0.226,-3.508 -1.059,-6.492 -2.305,-9.371 l -0.144,-0.34 c -0.551,-1.277 -1.059,-2.57 -1.571,-3.863 -0.929,-2.36 -1.89,-4.793 -3.086,-7.094 -1.922,-3.707 -4.078,-7.348 -6.16,-10.875 -0.762,-1.285 -1.523,-2.574 -2.273,-3.867 -0.598,-1.024 -1.235,-2.028 -1.871,-3.032 -1.325,-2.082 -2.575,-4.046 -3.469,-6.183 -1.383,-3.309 -3.86,-5.012 -6.25,-6.653 -0.969,-0.664 -1.852,-1.441 -2.789,-2.265 -0.813,-0.719 -1.621,-1.434 -2.489,-2.074 l -0.671,-0.496 c -1.832,-1.364 -3.723,-2.77 -5.84,-3.727 -1.731,-0.777 -3.328,-0.75 -4.496,0.086 -1.246,0.887 -1.828,2.531 -1.633,4.633 0.23,2.453 1.043,4.871 2.562,7.605 1.102,1.985 2.145,3.934 2.758,5.957 0.324,1.078 -0.039,1.86 -0.398,2.328 -0.711,0.922 -2.004,1.434 -3.387,1.41 -2.648,-0.097 -4.762,-1.316 -6.996,-2.613 -0.93,-0.535 -1.859,-1.07 -2.824,-1.531 -0.867,-0.41 -1.727,-0.844 -2.586,-1.273 -1.524,-0.766 -3.102,-1.559 -4.715,-2.235 -0.832,-0.348 -1.734,-0.398 -2.688,-0.457 -0.445,-0.023 -0.921,-0.051 -1.441,-0.109 l -1.441,-0.168 0.312,1.414 c 0.106,0.472 0.18,0.914 0.25,1.324 0.152,0.883 0.297,1.715 0.652,2.492 2.282,4.973 4.465,9.567 6.68,14.047 0.254,0.504 0.074,1.652 -0.652,2.621 -0.203,0.27 -0.934,1.106 -1.781,0.988 -0.93,-0.164 -1.731,-0.375 -2.446,-0.656 -3.906,-1.5 -17.457,-4.894 -19.242,-5.265 -1.785,-0.375 -2.324,-0.02 -2.324,-0.02 l 2.387,3.207 c 0.433,0.539 0.855,1.086 1.281,1.629 0.933,1.207 1.902,2.453 2.965,3.609 4.429,4.801 8.773,9.493 13.308,14.121 1.489,1.516 3.047,2.958 4.61,4.403 1.863,1.719 3.785,3.496 5.519,5.363 5.067,5.442 10.852,10.172 16.352,14.473 6.754,5.285 13.531,10.543 20.359,15.738 1.695,1.285 3.492,2.469 5.234,3.613 0.684,0.45 1.372,0.899 2.051,1.356 l 1.379,0.933 c 1.809,1.223 3.617,2.446 5.469,3.602 0.586,0.367 1.48,0.824 2.426,0.516 1.004,-0.325 1.519,-1.34 1.855,-2.188 1.77,-4.426 3.422,-7.91 5.207,-10.973 2.41,-4.128 6.586,-5.738 11.774,-4.546 4.437,1.023 6.554,4.476 8.796,8.136 l 0.333,0.535 c 0.89,1.45 1.734,2.93 2.597,4.446 l 1.695,2.949 0.805,-0.273 c 1.074,-0.368 2.176,-0.672 3.278,-0.977 2.785,-0.777 5.667,-1.582 8.296,-3.344 0.954,-0.637 2.051,-1.09 3.219,-1.566 1.051,-0.434 2.141,-0.879 3.152,-1.488 6.309,-3.793 11.114,-7.383 15.114,-11.29 0.594,-0.578 1.301,-1.066 2.047,-1.585 0.855,-0.594 1.738,-1.211 2.496,-2 1.652,-1.715 3.183,-3.579 4.664,-5.375 l 1.594,-1.922 c 0.191,-0.231 0.347,-0.489 0.496,-0.75 0.121,-0.207 0.238,-0.407 0.343,-0.508 2.102,-1.957 3.09,-4.449 4.051,-6.86 0.203,-0.519 0.41,-1.035 0.625,-1.546 0.676,-1.59 1.297,-3.204 1.918,-4.817 0.801,-2.086 1.625,-4.234 2.563,-6.281 1.699,-3.731 3.664,-7.438 5.558,-11.016 l 0.328,-0.617 c 0.883,-1.664 1.805,-3.312 2.723,-4.961 1.359,-2.433 2.77,-4.953 4.031,-7.504 1.43,-2.883 2.535,-5.949 3.606,-8.914 l 0.144,-0.402 c 0.278,-0.777 0.239,-1.582 0.199,-2.363 -0.015,-0.309 -0.035,-0.629 -0.027,-0.95 l 0.016,-0.82 -0.797,-0.203 c -2.957,-0.758 -4.965,0.684 -6.738,1.949 -0.387,0.277 -0.774,0.555 -1.176,0.813 -2.219,1.414 -4.039,2.297 -5.727,2.777 -0.527,0.148 -1.051,-0.09 -1.394,-0.316 -0.949,-0.625 -1.723,-1.891 -1.879,-3.082 -0.567,-4.247 -1.149,-7.758 -1.836,-11.051 -0.262,-1.246 -0.645,-2.465 -1.695,-2.996 -1.004,-0.496 -2.161,-0.164 -3.59,0.496 -0.746,0.344 -1.5,0.676 -2.254,1.011 -1.117,0.493 -2.235,0.989 -3.332,1.52 -2.91,1.406 -4.953,3.781 -6.727,6.145 -1,1.324 -2.129,2.617 -3.363,3.839 -1.254,1.235 -2.648,0.942 -4.316,0.321 l -0.813,-1.793 c -0.73,-1.621 -1.441,-3.207 -2.211,-4.762 -1.562,-3.16 -3.008,-5.957 -4.426,-8.551 -0.664,-1.211 -1.636,-1.953 -2.742,-2.09 -0.113,-0.015 -0.23,-0.023 -0.344,-0.023 z m -29.3,-2.906 -0.614,0.722 -0.129,0.153 c -2.668,3.148 -5.429,6.406 -6.707,10.683 -0.64,2.149 -1.738,4.231 -2.796,6.246 -0.27,0.512 -0.872,0.856 -1.649,0.942 -1.094,0.109 -2.223,-0.285 -2.828,-1 l -0.199,-0.238 c -3.11,-3.7 -6.324,-7.52 -9.742,-11.059 -1.114,-1.149 -2.481,-1.957 -3.93,-2.813 -0.641,-0.375 -1.297,-0.765 -1.953,-1.195 l -1.246,-0.824 -1.067,4.594 c -0.64,2.714 -1.246,5.285 -1.734,7.89 -0.285,1.532 0.555,3.121 0.816,3.574 1.067,1.821 2.153,3.625 3.242,5.426 3.731,6.192 7.59,12.59 10.403,19.391 0.633,1.519 1.289,3.031 1.949,4.547 0.852,1.949 1.707,3.902 2.492,5.883 0.367,0.914 0.625,1.878 0.899,2.89 0.222,0.828 0.445,1.653 0.722,2.453 0.395,1.125 0.899,2.231 1.93,2.692 1.02,0.465 2.156,0.101 3.141,-0.305 3.32,-1.387 6.789,-1.363 10.656,-1.219 l 0.488,0.024 c 1.664,0.066 3.391,0.136 5.09,0.082 0.871,-0.028 1.594,-0.903 1.676,-1.004 0.328,-0.41 0.453,-0.82 0.375,-1.219 -0.703,-3.519 -0.25,-6.957 0.23,-10.594 0.231,-1.742 0.465,-3.543 0.563,-5.336 0.367,-6.925 0.789,-13.691 1.859,-20.351 0.492,-3.051 -0.555,-5.274 -1.562,-7.426 l -0.43,-0.922 c -1.691,-3.758 -4.274,-7.426 -7.891,-11.207 -0.277,-0.289 -0.586,-0.488 -0.886,-0.676 l -1.168,-0.804 z M 281.176,250.352 c -0.211,-0.004 -0.414,0.015 -0.617,0.05 -1.192,0.211 -2.196,1.121 -3.047,1.957 -1.266,1.246 -2.453,2.594 -3.598,3.895 l -0.457,0.523 c -0.25,0.282 -0.457,0.598 -0.664,0.914 -0.156,0.247 -0.309,0.493 -0.5,0.7 -0.547,0.589 -1.098,0.894 -1.637,0.906 -0.558,-0.027 -1.14,-0.285 -1.734,-0.883 l -1.352,-1.367 c -0.945,-0.969 -1.89,-1.938 -2.882,-2.856 -2.516,-2.328 -5.196,-2.332 -7.551,-0.023 -1.371,1.352 -2.125,3.117 -2.114,4.969 0.008,1.832 0.77,3.57 2.137,4.886 1.067,1.024 2.211,1.957 3.387,2.903 2.144,1.719 2.902,4.285 3.32,6.328 0.797,3.871 1.352,7.871 1.887,11.746 l 0.059,0.434 c 0.152,1.097 0.234,2.207 0.32,3.316 0.101,1.398 0.211,2.844 0.457,4.266 0.398,2.308 0.89,4.597 1.383,6.882 0.351,1.653 0.707,3.297 1.027,4.957 0.246,1.27 0.441,2.555 0.637,3.836 0.246,1.61 0.492,3.219 0.832,4.813 1.183,5.566 2.543,11.637 4.273,19.094 0.781,3.347 1.563,6.617 2.555,9.8 1.262,4.04 2.668,8.098 4.027,12.02 l 0.828,2.391 c 0.121,0.351 0.235,0.711 0.348,1.07 0.426,1.34 0.867,2.726 1.691,3.914 0.934,1.336 1.579,2.812 2.254,4.371 0.571,1.301 1.157,2.645 1.926,3.91 1.578,2.586 3.067,5.309 4.504,7.934 l 0.25,0.461 c 0.285,0.519 0.488,1.09 0.695,1.648 0.106,0.289 0.211,0.571 0.325,0.852 l 0.367,0.929 2.117,3.02 -0.164,-4.551 -0.266,-2.988 c -0.195,-2.27 -0.39,-4.539 -0.672,-6.801 -0.597,-4.773 -1.242,-9.539 -1.886,-14.305 l -3.582,-26.55 c -0.149,-1.09 -0.317,-2.18 -0.485,-3.274 -0.367,-2.363 -0.746,-4.812 -0.883,-7.211 -0.164,-2.929 -0.175,-5.933 -0.187,-8.832 -0.008,-1.914 -0.016,-3.824 -0.063,-5.73 -0.062,-2.352 -0.179,-4.696 -0.296,-7.043 -0.075,-1.481 -0.153,-2.953 -0.211,-4.438 -0.043,-1.109 -0.047,-2.226 -0.055,-3.343 l -0.004,-1.196 c -0.012,-1.191 -0.051,-2.386 -0.09,-3.578 -0.086,-2.57 -0.172,-5.226 0.063,-7.773 0.515,-5.575 -0.028,-11.117 -0.551,-16.473 -0.18,-1.828 -0.356,-3.656 -0.496,-5.488 -0.094,-1.254 -0.965,-2.629 -2.328,-3.684 -1.09,-0.84 -2.258,-1.301 -3.297,-1.308 z m 229.929,1.738 c -0.777,-0.008 -1.402,0.219 -1.867,0.676 -0.547,0.539 -0.797,1.332 -0.738,2.363 l 0.211,3.66 c 0.258,4.481 0.527,9.117 0.633,13.668 0.07,3.027 0.019,6.121 -0.028,9.117 -0.035,2.242 -0.07,4.489 -0.058,6.735 0.012,2.328 0.027,5.226 0.465,7.964 0.664,4.176 0.996,8.149 1.011,12.137 0.016,3.078 0.235,6.188 0.45,9.195 0.136,1.981 0.277,3.961 0.363,5.942 0.074,1.758 0.058,3.516 0.043,5.273 -0.012,1.313 -0.024,2.625 0,3.938 0.043,2.09 0.105,4.183 0.168,6.277 0.105,3.625 0.219,7.375 0.203,11.055 -0.008,1.586 -0.184,3.226 -0.356,4.812 -0.175,1.618 -0.355,3.286 -0.367,4.953 -0.015,2.176 0.086,4.372 0.188,6.493 0.109,2.351 0.226,4.789 0.172,7.16 -0.051,2.363 -0.368,4.785 -0.668,7.129 -0.153,1.164 -0.305,2.328 -0.426,3.492 -0.051,0.469 -0.051,0.941 -0.051,1.422 l -0.023,1.387 -0.559,5.699 3.367,-5.879 c 0.367,-0.938 0.754,-1.867 1.141,-2.797 0.875,-2.106 1.777,-4.281 2.441,-6.516 0.715,-2.429 1.289,-4.929 1.84,-7.343 0.418,-1.825 0.836,-3.649 1.317,-5.457 l 0.128,-0.481 c 1.583,-5.953 3.223,-12.113 3.797,-18.453 0.133,-1.457 0.496,-2.891 0.883,-4.41 0.262,-1.02 0.52,-2.043 0.711,-3.074 0.41,-2.231 0.723,-4.481 1.031,-6.723 l 0.321,-2.301 c 0.332,-2.336 0.664,-4.676 0.91,-7.023 0.148,-1.407 0.258,-2.817 0.367,-4.231 0.148,-1.89 0.297,-3.785 0.539,-5.664 0.359,-2.789 0.781,-5.566 1.207,-8.347 0.328,-2.137 0.656,-4.282 0.953,-6.426 0.344,-2.465 0.656,-4.938 0.973,-7.407 0.426,-3.343 0.855,-6.687 1.348,-10.023 0.484,-3.269 1.503,-4.43 4.199,-4.758 3.426,-0.422 6.566,-4.105 7.082,-7.117 0.394,-2.297 -0.164,-4.359 -0.707,-6.352 -0.125,-0.46 -0.25,-0.921 -0.364,-1.39 -0.203,-0.824 -1.05,-1.707 -1.89,-1.969 -3.129,-0.965 -8.574,1.082 -10.61,3.965 l -0.269,0.41 c -0.18,0.281 -0.352,0.543 -0.516,0.672 -1.461,1.145 -2.519,1.613 -3.269,1.41 -0.778,-0.203 -1.539,-1.203 -2.274,-2.976 -0.699,-1.692 -0.949,-3.653 -1.148,-5.512 -0.223,-2.043 -1.363,-3.301 -3.211,-3.547 -2.926,-0.383 -5.828,-0.605 -8.797,-0.82 -0.09,-0.004 -0.18,-0.008 -0.266,-0.008 z M 311.582,205.051 c -2.41,-0.024 -4.922,0.687 -7.473,2.125 -1.058,0.594 -1.777,1.894 -2.097,2.918 -0.543,1.73 -0.903,3.527 -1.25,5.258 l -0.11,0.554 c -0.211,1.043 -0.636,2.36 -1.472,2.707 -0.864,0.367 -2.16,-0.289 -3.098,-0.902 -3.027,-1.988 -6.715,-3.059 -11.262,-3.277 -2.191,-0.164 -4.007,1.453 -4.562,4.074 -0.75,3.519 -0.164,6.84 0.433,9.336 0.661,2.758 2.313,4.523 5.055,5.402 1.633,0.524 3.457,1.207 4.598,2.313 0.617,0.601 1.066,2 1.168,3.64 0.093,1.485 0.031,2.957 -0.032,4.52 -0.054,1.301 -0.109,2.597 -0.07,3.89 0.07,2.469 0.203,4.934 0.34,7.399 0.125,2.285 0.246,4.566 0.324,6.851 0.106,3.274 0.16,6.551 0.215,9.829 0.043,2.386 0.082,4.781 0.145,7.171 0.05,2.067 0.132,4.133 0.214,6.196 0.067,1.66 0.129,3.32 0.18,4.98 0.164,5.317 0.309,10.637 0.453,15.957 l 0.055,1.938 c 0.184,6.929 0.437,13.175 1.656,19.437 0.43,2.211 0.555,4.555 0.672,6.824 0.078,1.524 0.16,3.047 0.324,4.559 0.391,3.527 0.828,7.055 1.266,10.574 0.355,2.836 0.707,5.672 1.035,8.512 0.168,1.477 0.289,2.961 0.41,4.445 0.184,2.262 0.375,4.602 0.742,6.895 0.618,3.844 1.395,7.722 2.145,11.472 0.324,1.633 0.652,3.27 0.969,4.903 0.191,0.988 0.398,1.98 0.605,2.972 0.469,2.231 0.953,4.532 1.219,6.797 0.437,3.762 1.258,5.18 5.246,6.141 0.816,0.195 1.625,0.426 2.434,0.652 0.769,0.211 1.535,0.43 2.308,0.621 0.43,0.106 0.848,0.09 1.25,0.086 0.168,-0.004 0.352,-0.004 0.543,-0.007 l 2.305,0.91 -1.254,-2.946 c -0.285,-0.914 -0.555,-1.773 -0.781,-2.644 -0.407,-1.563 -0.793,-3.125 -1.18,-4.695 -0.418,-1.676 -0.832,-3.356 -1.27,-5.032 -0.445,-1.703 -0.167,-3.105 0.864,-4.422 0.566,-0.722 1.101,-0.945 2.469,-1.046 4.988,-0.344 9.156,1.621 13.574,3.722 0.922,0.438 1.843,0.875 2.777,1.293 0.289,0.129 0.559,0.149 0.816,0.168 l 2.227,0.266 -0.773,-1.688 c -1.286,-2.808 -0.926,-5.594 -0.547,-8.543 l 0.066,-0.535 c 0.262,-2.07 0.813,-4.336 1.738,-7.121 0.672,-2.023 2.52,-2.941 4.805,-2.422 0.68,0.156 1.367,0.289 2.055,0.418 1.121,0.211 2.183,0.41 3.211,0.727 1.664,0.504 2.863,1.047 3.781,1.707 1.883,1.351 3.734,2.832 5.527,4.261 0.914,0.731 1.825,1.457 2.746,2.172 0.434,0.34 0.899,0.641 1.418,0.981 l 1.954,1.304 0.855,-3.238 c 0.363,-1.347 0.711,-2.64 0.992,-3.945 0.199,-0.922 0.356,-1.856 0.508,-2.785 0.176,-1.078 0.355,-2.157 0.609,-3.211 0.293,-1.215 0.946,-2.133 1.832,-2.594 0.856,-0.437 1.875,-0.437 2.954,-0.004 5.25,2.125 9.792,5.211 13.503,9.168 0.844,0.899 1.567,1.988 2.329,3.145 0.382,0.582 0.781,1.183 1.21,1.793 l 0.833,1.168 0.847,-1.157 c 0.352,-0.476 0.684,-0.898 0.996,-1.293 0.672,-0.851 1.254,-1.586 1.684,-2.457 1.777,-3.625 4.496,-6.425 7.375,-9.39 l 1.566,-1.621 c 0.492,-0.52 3.547,-0.622 4.778,0.148 2.367,1.488 4.379,3.566 6.32,6.559 0.351,0.539 0.75,1.054 1.144,1.562 0.309,0.399 0.622,0.801 0.907,1.219 0.558,0.82 1.093,1.668 1.679,2.586 l 1.614,2.519 0.898,-1.136 c 0.32,-0.411 0.617,-0.809 0.906,-1.2 0.571,-0.765 1.11,-1.488 1.711,-2.093 2.914,-2.934 5.821,-5.727 9.305,-7.707 1.238,-0.7 2.398,-0.508 3.875,0.035 2.871,1.051 5.07,3.051 6.535,5.949 0.867,1.707 1.762,3.398 2.66,5.086 l 0.969,1.832 c 0.426,0.809 1.047,1.289 1.742,1.352 0.371,0.066 1.074,-0.024 1.711,-0.821 2.52,-3.176 5.985,-4.933 9.66,-6.797 l 0.832,-0.422 c 0.739,-0.375 1.465,-0.777 2.192,-1.179 1.472,-0.817 2.871,-1.59 4.355,-2.16 1.867,-0.711 5.805,1.058 6.692,3.004 1.132,2.496 2.207,5.019 3.312,7.609 l 1.848,4.312 1.715,-0.476 c 0.812,-0.203 1.828,-0.465 2.804,-0.844 3.602,-1.387 6.407,-0.781 9.594,-0.238 1.758,0.301 3.156,1.996 3.328,4.035 0.535,6.387 -0.351,11.477 -3.664,17.453 -0.594,1.063 -1.156,2.145 -1.723,3.227 -1.046,2 -2.128,4.074 -3.359,5.976 -1.762,2.735 -0.531,4.938 0.457,6.707 l 0.168,0.305 c 1.113,2.019 2.293,4 3.473,5.98 0.953,1.598 1.906,3.2 2.824,4.821 0.578,1.019 1.066,2.093 1.625,3.324 0.281,0.625 0.586,1.289 0.922,2.004 l 0.867,1.832 0.977,-1.777 c 0.281,-0.512 0.562,-0.977 0.824,-1.411 0.558,-0.922 1.09,-1.797 1.394,-2.769 0.446,-1.418 0.703,-2.891 0.957,-4.309 l 1.176,-6.031 c 0.801,-4.004 1.633,-8.141 2.289,-12.242 0.266,-1.641 0.281,-3.301 0.297,-4.914 0.012,-1.063 0.02,-2.125 0.102,-3.18 0.418,-5.344 0.898,-10.664 1.425,-15.805 0.137,-1.347 0.332,-2.691 0.532,-4.031 0.254,-1.75 0.519,-3.562 0.648,-5.371 0.113,-1.574 0.031,-3.156 -0.047,-4.687 -0.043,-0.833 -0.086,-1.672 -0.097,-2.504 -0.02,-1.403 -0.075,-2.805 -0.133,-4.215 -0.137,-3.239 -0.274,-6.59 0.101,-9.785 0.516,-4.407 0.411,-8.825 0.313,-13.094 -0.051,-2.102 -0.102,-4.203 -0.078,-6.309 0.011,-1.398 0.047,-2.797 0.078,-4.199 0.055,-2.414 0.109,-4.828 0.082,-7.246 -0.02,-1.301 -0.141,-2.602 -0.266,-3.902 -0.113,-1.168 -0.222,-2.332 -0.25,-3.5 -0.051,-2.098 -0.035,-4.2 -0.023,-6.301 0.012,-1.656 0.019,-3.317 0.004,-4.977 -0.02,-1.566 -0.067,-3.386 -0.371,-5.164 -0.86,-4.988 -1.145,-10.363 -0.871,-16.441 0.214,-4.735 -0.086,-9.547 -0.379,-14.199 l -0.192,-3.067 c -0.101,-1.801 -0.304,-3.601 -0.508,-5.402 -0.253,-2.281 -0.519,-4.641 -0.558,-6.942 -0.078,-4.398 0.168,-8.976 4.023,-12.339 5.157,-4.504 6.668,-10.715 8.129,-16.727 l 0.332,-1.367 c 0.25,-1.004 0,-2.356 -0.605,-3.281 -2.129,-3.266 -4.805,-5.422 -7.953,-6.411 -1.418,-0.445 -3.047,-0.152 -4.465,0.797 -1.551,1.039 -2.571,2.645 -2.715,4.289 l -0.043,0.485 c -0.066,0.726 -0.137,1.453 -0.133,2.179 0.012,1.43 -0.871,2.118 -2.305,3.125 -0.269,0.188 -0.535,0.372 -0.793,0.567 -0.253,-0.035 -1.519,-0.86 -1.816,-1.68 -0.402,-1.117 -0.766,-2.254 -1.125,-3.383 -0.258,-0.82 -0.516,-1.636 -0.793,-2.449 -1.226,-3.625 -5.535,-6.801 -9.605,-7.086 -2.985,-0.219 -5.094,0.813 -6.657,3.211 -0.089,0.137 -0.363,0.309 -0.601,0.469 -0.199,0.125 -0.399,0.254 -0.578,0.398 -0.325,0.25 -0.66,0.489 -0.996,0.727 -0.84,0.594 -1.707,1.211 -2.403,2.035 -0.851,1.016 -1.879,1.488 -2.886,1.336 -1.071,-0.16 -2.028,-1.004 -2.551,-2.25 -1.063,-2.516 -3.035,-4.367 -5.418,-5.074 -2.41,-0.723 -5.035,-0.235 -7.403,1.359 -1.175,0.793 -2.437,2.609 -2.425,4.168 0.035,3.602 0.523,7.195 0.953,9.922 0.383,2.477 2.012,4.312 4.836,5.449 3.074,1.238 3.117,1.535 2.711,5.043 -0.293,2.524 -0.438,5.094 -0.578,7.578 -0.122,2.227 -0.247,4.453 -0.477,6.668 -0.441,4.281 -1.094,8.824 -1.934,13.512 -0.925,5.16 -1.902,9.727 -2.976,13.957 -1.75,6.883 -3.465,13.02 -5.246,18.77 -0.848,2.753 -1.985,5.496 -3.086,8.144 l -1.028,2.492 c -0.382,0.942 -0.816,2.004 -1.453,2.66 -0.734,0.75 -1.64,1.207 -1.894,1.133 -0.235,-0.043 -0.442,-0.203 -0.613,-0.484 -0.348,-0.567 -0.442,-1.442 -0.227,-2.129 0.297,-0.957 0.602,-1.91 0.91,-2.863 0.379,-1.184 0.762,-2.368 1.121,-3.559 l 0.641,-2.086 c 0.847,-2.777 1.703,-5.558 2.472,-8.359 l 0.129,-0.465 c 1.321,-4.809 2.692,-9.777 3.836,-14.727 0.481,-2.066 0.754,-4.117 1.043,-6.289 0.125,-0.961 0.254,-1.929 0.403,-2.906 l 0.121,-0.785 -0.727,-0.32 c -1.465,-0.633 -2.93,-1.329 -4.402,-2.028 -3.363,-1.59 -6.836,-3.238 -10.488,-4.301 -6.758,-1.961 -14.051,-3.671 -21.645,-3 -3.504,0.321 -7.121,0.649 -10.687,0.735 -1.118,0.039 -2.235,-0.09 -3.418,-0.223 -1.129,-0.117 -2.309,-0.242 -3.473,-0.234 -2.512,0.027 -5.016,0.316 -7.57,0.636 -1.293,0.165 -2.586,0.301 -3.883,0.438 -3.555,0.375 -7.231,0.762 -10.742,1.68 -3.258,0.855 -6.438,2.117 -9.512,3.336 -1.93,0.765 -3.86,1.535 -5.817,2.203 -3.128,1.07 -5.199,3.187 -7.218,5.453 -0.543,0.601 -0.578,1.594 -0.442,2.262 0.289,1.445 0.602,2.89 0.914,4.332 0.399,1.832 0.793,3.66 1.149,5.5 0.164,0.863 0.265,1.734 0.371,2.609 0.129,1.109 0.266,2.262 0.527,3.391 0.371,1.593 0.809,3.171 1.25,4.75 0.473,1.703 0.946,3.406 1.332,5.129 0.391,1.753 0.586,3.089 -0.457,4.285 -0.617,0.707 -1.379,1.054 -2.039,0.91 -0.594,-0.125 -1.062,-0.633 -1.308,-1.43 -0.375,-1.195 -0.594,-2.441 -0.829,-3.758 -0.113,-0.625 -0.226,-1.254 -0.351,-1.871 l -1.535,-7.398 c -1.215,-5.832 -2.426,-11.664 -3.59,-17.508 -0.41,-2.063 -0.746,-4.145 -1.082,-6.227 -0.293,-1.836 -0.59,-3.668 -0.938,-5.496 -0.371,-1.957 -0.875,-3.902 -1.363,-5.785 l -0.312,-1.211 c -0.36,-1.402 -0.743,-2.804 -1.129,-4.207 -0.813,-2.949 -1.653,-6 -2.211,-9.023 -0.367,-1.985 -0.297,-4.324 0.211,-7.16 0.07,-0.375 0.5,-1.071 2.179,-2.254 5.676,-3.989 7.52,-9.86 8.578,-15.078 0.176,-0.887 -0.097,-2.032 -0.648,-2.719 -1.816,-2.254 -3.871,-4.809 -7.551,-5.043 -3.593,-0.215 -7.691,-0.195 -10.91,2.973 -1.187,1.167 -2.223,2.632 -3,4.23 -0.75,1.555 -1.504,2.191 -2.781,2.359 -0.664,0.075 -1.285,-0.07 -1.695,-0.429 -0.325,-0.289 -0.489,-0.684 -0.485,-1.168 0.028,-2.555 -0.519,-4.778 -1.664,-6.801 -0.488,-0.859 -1.254,-1.547 -1.789,-1.988 -2.469,-2.036 -5.164,-3.063 -8,-3.09 z m -16.105,5.871 c 1.281,0.008 1.863,-0.652 2.57,-2.43 0.598,-1.504 1.414,-3.004 2.359,-4.332 0.934,-1.308 2.473,-1.828 4.098,-2.371 0.543,-0.184 1.086,-0.367 1.605,-0.574 5.446,-2.192 10.715,-1.41 15.661,2.305 1.093,0.824 2.074,1.8 3.113,2.835 0.48,0.481 0.969,0.961 1.469,1.434 l 0.543,0.512 0.656,-0.356 c 0.226,-0.121 0.461,-0.222 0.691,-0.32 0.586,-0.258 1.25,-0.551 1.731,-1.102 2.543,-2.89 6.226,-3.097 9.789,-3.3 5.261,-0.317 9.457,1.304 12.539,4.765 1.519,1.703 2.785,3.309 2.883,5.688 0.136,3.445 -0.996,6.527 -2.2,9.793 -0.261,0.715 -0.527,1.429 -0.773,2.148 -1.336,3.852 -3.902,7.192 -7.637,9.93 -0.566,0.41 -1.375,1.383 -1.273,2.351 0.238,2.27 0.554,4.321 0.969,6.262 0.46,2.156 1.058,4.309 1.64,6.387 1.055,3.773 2.145,7.676 2.383,11.644 0.043,0.735 0.293,1.411 0.535,2.063 0.106,0.285 0.211,0.574 0.309,0.883 l 0.39,1.269 1.703,-1.039 c 0.297,-0.183 0.54,-0.336 0.793,-0.469 1.219,-0.632 2.426,-1.296 3.633,-1.96 2.742,-1.504 5.578,-3.059 8.477,-4.235 3.93,-1.586 8.109,-2.719 12.437,-3.367 6.461,-0.965 13.348,-1.922 20.211,-2.012 0.727,-0.008 1.449,0 2.184,0.008 1.305,0.012 2.605,0.031 3.906,-0.055 2.09,-0.132 4.176,-0.308 6.262,-0.48 3.144,-0.266 6.394,-0.535 9.586,-0.668 2.941,-0.117 5.797,0.504 8.808,1.168 0.985,0.219 1.969,0.437 2.957,0.625 5.196,0.996 10.223,2.828 15.082,4.601 l 3.02,1.09 c 1.566,0.555 2.512,0.891 3.344,0.356 0.851,-0.547 0.953,-1.696 1.07,-3.031 0.012,-0.129 0.012,-0.266 0.012,-0.399 0.09,-1.601 0.168,-3.031 0.242,-4.457 0.187,-3.496 0.379,-7.113 0.762,-10.633 0.269,-2.457 -0.375,-3.847 -2.379,-5.125 -2.813,-1.797 -4.469,-3.879 -5.071,-6.371 -0.543,-2.25 -0.91,-4.074 -1.156,-5.738 -0.762,-5.211 -0.808,-11.117 4.637,-15.414 5.527,-4.356 11.976,-4.391 17.246,-0.082 2.75,2.25 4.426,2.219 7.168,-0.114 l 0.523,-0.453 c 1.09,-0.941 2.219,-1.922 3.352,-2.203 7.141,-1.773 12.957,0.078 17.773,5.68 l 0.579,0.676 1.242,-0.762 c 0.472,-0.27 1.062,-0.605 1.582,-1.059 3.129,-2.695 7.062,-3.089 10.527,-1.05 1.731,1.011 3.727,2.214 5.543,3.574 2.102,1.582 4.094,3.398 4.422,5.988 0.769,6.098 -0.59,12.242 -4.047,18.262 -0.82,1.43 -1.656,2.855 -2.508,4.312 l -1.668,2.86 0.832,0.535 c 2.418,1.555 5.059,1.715 7.61,1.871 l 1.355,0.09 c 2.27,0.179 4.031,1.101 5.387,2.824 0.824,1.047 1.508,2.254 2.168,3.422 0.297,0.527 0.59,1.047 0.89,1.543 l 0.403,0.664 0.75,-0.199 c 0.82,-0.219 1.633,-0.45 2.441,-0.676 1.707,-0.477 3.403,-0.953 5.121,-1.32 3.164,-0.68 5.504,-0.473 7.16,0.64 1.614,1.082 2.661,3.059 3.196,6.039 0.051,0.274 0.086,0.547 0.121,0.825 0.058,0.476 0.125,0.949 0.234,1.41 1.203,4.914 0.555,8.789 -1.98,11.847 -2.153,2.598 -4.399,4.7 -6.672,6.25 -1.27,0.868 -2.707,1.852 -3.008,4.008 -0.066,0.473 -0.144,0.938 -0.223,1.406 -0.105,0.618 -0.211,1.243 -0.289,1.864 -0.148,1.207 -0.281,2.418 -0.414,3.625 -0.254,2.293 -0.504,4.586 -0.867,6.863 -0.262,1.648 -0.609,3.281 -0.957,4.918 -0.375,1.754 -0.75,3.512 -1.019,5.281 -0.293,1.91 -0.465,3.852 -0.637,5.731 -0.129,1.429 -0.262,2.867 -0.442,4.293 -0.753,5.968 -1.57,12.328 -2.511,18.632 l -0.293,1.993 c -0.778,5.246 -1.582,10.671 -2.696,15.925 -0.746,3.52 -1.75,7.063 -2.718,10.489 -0.52,1.84 -1.043,3.687 -1.528,5.539 -0.297,1.129 -0.554,2.273 -0.812,3.418 -0.418,1.851 -0.852,3.765 -1.457,5.566 -0.895,2.668 -2.184,5.289 -3.434,7.82 -1.527,3.11 -3.094,6.036 -4.679,8.739 -0.309,0.531 -1.032,1.078 -1.575,1.199 -1.847,0.402 -2.187,1.609 -2.281,2.613 -0.035,0.391 -0.109,0.781 -0.18,1.172 -0.066,0.383 -0.136,0.77 -0.183,1.156 -0.192,1.676 -0.371,3.356 -0.547,5.032 -0.371,3.449 -0.754,7.015 -1.242,10.496 -0.211,1.515 -0.547,3.058 -0.871,4.558 -0.473,2.153 -0.957,4.379 -1.11,6.633 -0.109,1.668 -0.609,3.195 -1.144,4.816 -0.399,1.211 -0.809,2.465 -1.047,3.79 -0.266,1.472 -0.567,2.949 -0.863,4.418 l -0.989,4.875 2.207,-1.336 0.961,-0.45 c 0.43,-0.187 0.914,-0.398 1.356,-0.718 2.609,-1.887 5.675,-2.649 8.332,-3.149 1.668,-0.328 2.312,0.848 2.566,1.875 0.231,0.938 0.367,1.766 0.426,2.528 0.101,1.503 0.172,3.007 0.238,4.574 l 0.168,3.515 1.352,-0.55 c 0.312,-0.125 0.621,-0.231 0.914,-0.329 0.687,-0.23 1.394,-0.468 1.992,-0.933 0.801,-0.629 1.555,-1.313 2.309,-1.996 0.796,-0.731 1.597,-1.461 2.461,-2.11 2.625,-1.961 5.437,-3.925 8.597,-6.011 1.371,-0.907 2.824,-1.668 4.313,-2.262 0.742,-0.301 1.55,-0.484 2.406,-0.68 0.641,-0.144 1.281,-0.293 1.906,-0.484 0.973,-0.293 2.266,-0.172 2.727,1.152 0.472,1.352 0.984,2.922 1.133,4.461 0.308,3.172 0.425,6.356 0.527,9.606 0.031,1.101 0.004,2.203 -0.02,3.304 -0.023,1.086 -0.05,2.176 -0.019,3.27 0.055,2.121 0.14,4.246 0.222,6.371 0.106,2.648 0.208,5.297 0.258,7.941 0.071,3.586 0.063,7.172 0.055,10.758 l -0.004,3.516 c 0,1.148 0.027,2.301 0.051,3.453 0.055,2.687 0.113,5.465 -0.152,8.133 -0.247,2.433 -0.75,4.91 -1.239,7.304 -0.359,1.786 -0.722,3.571 -0.996,5.368 -0.765,5.101 -2.941,9.754 -6.469,13.824 -3.687,4.254 -6.839,7.687 -9.925,10.801 -2.313,2.336 -5.028,5 -8.024,7.035 -2.039,1.386 -4.324,2.539 -6.535,3.66 -1.324,0.668 -2.648,1.34 -3.937,2.062 -4.34,2.426 -9.118,3.664 -14.2,3.692 -2.148,0.012 -3.617,0.691 -5.066,2.351 -2.77,3.172 -5.918,6.34 -10.145,7.993 -1.168,0.457 -2.816,2.168 -2.613,3.503 0.391,2.586 1.149,5.079 2.027,7.836 0.539,1.688 0.274,2.969 -0.812,3.922 -1.156,1.016 -1.774,1.168 -3.625,0.196 -1.141,-0.598 -2.289,-1.192 -3.438,-1.786 -1.851,-0.953 -3.707,-1.914 -5.543,-2.906 -0.824,-0.441 -1.617,-0.949 -2.406,-1.453 -0.523,-0.332 -1.047,-0.664 -1.578,-0.98 -0.758,-0.454 -1.652,-0.883 -2.539,-0.551 -0.879,0.328 -1.277,1.226 -1.574,2.144 -0.844,2.602 -0.629,5.153 -0.43,7.621 0.09,1.02 0.172,2.043 0.18,3.063 0.012,2.113 0.094,4.23 0.179,6.348 0.075,1.859 0.149,3.714 0.172,5.574 0.02,1.312 -0.781,2.66 -1.675,2.82 -1.079,0.184 -2.618,-0.187 -4.473,-1.105 -1.645,-0.813 -3.152,-2.102 -4.609,-3.348 l -0.5,-0.43 c -2.043,-1.746 -4.153,-3.55 -5.957,-5.531 -2.165,-2.379 -4.211,-4.867 -6.188,-7.273 -0.82,-0.993 -1.621,-1.969 -2.41,-2.911 l -0.496,-0.593 -0.711,0.308 c -0.598,0.262 -1.168,0.532 -1.715,0.793 -1.129,0.535 -2.195,1.043 -3.262,1.344 -1.168,0.328 -2.402,0.449 -3.711,0.578 -0.453,0.043 -0.902,0.09 -1.351,0.141 -1.11,0.133 -2.223,0.273 -3.332,0.418 -2.739,0.359 -5.571,0.726 -8.344,0.851 -2.652,0.118 -5.375,0.012 -8.004,-0.093 -1.25,-0.047 -2.5,-0.098 -3.754,-0.125 -3.406,-0.071 -6.812,-0.137 -10.222,-0.2 -0.766,-0.027 -1.528,-0.007 -2.29,0 -1.578,0.016 -3.066,0.032 -4.546,-0.129 -4.84,-0.527 -9.7,-1.179 -14.438,-1.933 -2.328,-0.375 -4.613,-0.879 -7.035,-1.41 -1.07,-0.235 -2.156,-0.469 -3.258,-0.7 l -0.918,-0.191 -0.281,0.895 c -0.067,0.207 -0.152,0.421 -0.238,0.636 -0.235,0.59 -0.504,1.266 -0.504,2.012 l -0.012,1.969 c -0.016,3.387 -0.031,6.887 0.25,10.332 0.125,1.496 -0.32,2.844 -1.156,3.512 -0.59,0.476 -1.352,0.585 -2.199,0.328 -0.696,-0.219 -1.504,-0.809 -2.118,-1.547 -1.601,-1.934 -3.074,-3.934 -4.789,-6.348 -0.336,-0.476 -0.687,-0.945 -1.043,-1.418 -1.078,-1.441 -2.093,-2.801 -2.715,-4.301 -1.386,-3.355 -2.597,-6.867 -3.769,-10.261 -0.481,-1.387 -0.957,-2.778 -1.449,-4.157 l -1.989,-5.64 -1.16,1.582 c -0.203,0.277 -0.386,0.512 -0.551,0.719 -0.335,0.425 -0.628,0.793 -0.843,1.234 -1.836,3.738 -4.407,7.164 -7.856,10.469 -2.004,1.925 -2.976,1.879 -4.875,0.781 -2.5,-1.457 -3.832,-5.195 -3.027,-8.516 0.629,-2.597 0.973,-5.715 -1.246,-9.086 -2.692,-4.089 -6.766,-5.488 -10.356,-6.722 -1.175,-0.403 -2.367,-0.746 -3.554,-1.09 -3.114,-0.902 -6.051,-1.754 -8.653,-3.613 -1.449,-1.039 -3.062,-1.825 -4.621,-2.582 l -1.289,-0.637 c -1.023,-0.512 -2.066,-0.996 -3.109,-1.473 -1.778,-0.824 -3.617,-1.676 -5.297,-2.672 -2.066,-1.222 -4.066,-2.683 -5.996,-4.101 -0.664,-0.485 -1.324,-0.973 -1.988,-1.449 -0.797,-0.567 -1.594,-1.125 -2.395,-1.684 -2.234,-1.57 -4.551,-3.188 -6.648,-4.957 -2.735,-2.305 -5.223,-5 -7.086,-7.098 -0.961,-1.074 -2.286,-2.691 -2.696,-4.304 -0.687,-2.704 -0.984,-5.465 -0.851,-7.973 l 0.176,-3.059 c 0.242,-4.152 0.492,-8.453 0.363,-12.734 -0.113,-3.77 0.152,-7.641 0.41,-11.383 l 0.195,-2.906 c 0.075,-1.227 0.297,-2.438 0.528,-3.723 0.097,-0.535 0.195,-1.066 0.281,-1.601 0.113,-0.7 0.211,-1.407 0.312,-2.114 0.227,-1.586 0.457,-3.234 0.852,-4.781 l 0.695,-2.707 c 1.02,-3.933 2.074,-8.004 2.742,-12.152 0.489,-3.028 1.961,-6.028 3.391,-8.926 l 0.777,-1.59 c 0.329,-0.687 1.329,-1.449 2.676,-2.035 2.863,-1.234 5.758,-0.703 9.676,1.785 2.102,1.336 4.105,2.969 6.047,4.547 1.406,1.145 2.812,2.289 4.281,3.352 1.5,1.086 3.133,1.996 4.711,2.875 0.672,0.371 3.266,1.957 3.93,2.343 0.308,0.188 0.453,-1.019 0.453,-1.019 l -0.32,-3.25 c -0.145,-1.488 -0.286,-2.961 -0.473,-4.426 l -0.238,-1.715 c -0.426,-2.976 -0.832,-5.793 -0.204,-8.644 0.243,-1.106 0.758,-2.539 1.844,-3.106 0.766,-0.398 1.785,-0.347 3.016,0.156 2.121,0.872 4.168,2.153 6.148,3.395 l 1.289,0.805 c 0.434,0.265 0.832,0.586 1.239,0.91 1.14,0.906 2.429,1.937 4.429,2.051 l 1.071,0.062 0.023,-1.07 c 0.012,-0.543 0.051,-1.082 0.09,-1.614 0.09,-1.226 0.184,-2.496 -0.055,-3.734 -0.426,-2.203 0.305,-3.793 2.699,-5.859 l 0.856,-0.742 -2.176,-2.079 c -1.027,-0.972 -2.031,-1.918 -2.965,-2.929 -0.359,-0.391 -0.64,-0.852 -0.925,-1.309 -0.372,-0.594 -0.758,-1.211 -1.293,-1.75 -4.364,-4.383 -9.207,-9.769 -12.055,-16.445 -0.387,-0.914 -0.352,-1.887 0.098,-2.664 0.457,-0.793 1.289,-1.321 2.285,-1.446 0.48,-0.058 0.961,-0.152 1.543,-0.257 l 2.636,-0.477 -1.035,-1.351 c -0.531,-0.696 -1.054,-1.344 -1.558,-1.965 -1.004,-1.243 -1.95,-2.414 -2.688,-3.645 -2.996,-4.98 -6.094,-10.133 -8.848,-15.41 -3.421,-6.57 -6.648,-13.223 -9.589,-19.773 -1.364,-3.04 -2.395,-6.329 -3.387,-9.508 l -0.555,-1.758 c -0.406,-1.297 -0.738,-2.617 -1.07,-3.941 -0.477,-1.911 -0.973,-3.883 -1.703,-5.766 -2.496,-6.434 -3.637,-13.219 -4.504,-19.074 -0.172,-1.164 -0.336,-2.328 -0.496,-3.496 -0.375,-2.696 -0.762,-5.481 -1.285,-8.207 -0.36,-1.844 -0.797,-3.672 -1.235,-5.5 -0.929,-3.895 -1.89,-7.922 -1.996,-11.989 l -0.012,-0.527 c -0.039,-1.582 -0.078,-3.223 -0.336,-4.828 -0.183,-1.125 -0.488,-2.215 -0.785,-3.27 -0.195,-0.695 -0.39,-1.39 -0.55,-2.097 -0.579,-2.571 -1.625,-5.758 -4.649,-7.614 -2.519,-1.55 -3.558,-4.074 -4.656,-7.211 -1.606,-4.589 2.195,-12.55 7.012,-14.687 3.765,-1.672 6.761,-1.207 9.406,1.476 0.414,0.418 0.906,0.688 1.344,0.93 0.253,0.137 0.511,0.274 0.738,0.445 1.758,1.387 3.133,-0.066 3.586,-0.539 0.34,-0.359 0.66,-0.738 0.98,-1.113 0.539,-0.644 1.051,-1.25 1.637,-1.711 2.687,-2.121 5.285,-2.922 7.937,-2.422 1.461,0.27 2.27,0.422 2.942,-0.105 0.672,-0.539 0.711,-1.348 0.777,-2.817 0.106,-2.289 -1.789,-2.765 -2.699,-2.996 -3.742,-0.988 -6.141,-3.457 -7.363,-7.39 -1.524,-4.91 -1.828,-9.676 -0.895,-14.164 1.012,-4.864 4.996,-8.36 9.227,-8.176 2.492,0.121 5.054,0.711 7.531,1.281 l 1.449,0.332 c 0.606,0.137 1.106,0.215 1.528,0.219" /><path
         id="path16"
         style="fill:#171717;fill-opacity:1;fill-rule:nonzero;stroke:none"
         d="m 455.664,522.648 c -0.531,-0.003 -1.043,-0.367 -1.867,-1.113 -0.465,-0.418 -0.746,-0.887 -0.738,-1.222 0.004,-0.075 0.011,-0.274 0.343,-0.54 1.278,-1.003 2.676,-1.839 4.161,-2.718 0.554,-0.332 1.109,-0.66 1.656,-1 0.562,-0.352 1.152,-0.664 1.746,-0.985 1.324,-0.711 2.691,-1.445 3.793,-2.531 2.504,-2.476 4.68,-5.281 6.695,-7.945 2.664,-3.52 5.242,-7.106 7.82,-10.692 l 2.204,-3.058 c 0.863,-1.199 1.402,-1.496 2.281,-1.278 l 0.742,0.184 0.105,-0.176 c 0.512,0.313 0.985,0.61 1.25,0.957 0.856,1.141 0.684,2.844 -0.406,4.059 -0.746,0.828 -1.488,1.664 -2.191,2.523 l -4.766,5.864 c -3.07,3.781 -6.14,7.562 -9.25,11.308 -2.308,2.778 -4.422,4.457 -6.863,5.43 -1.676,0.672 -3.32,1.461 -4.91,2.226 l -1.098,0.528 c -0.254,0.121 -0.48,0.183 -0.707,0.179" /><path
         id="path18"
         style="fill:#171717;fill-opacity:1;fill-rule:nonzero;stroke:none"
         d="m 341.602,518.043 c -0.329,-0.004 -0.676,-0.133 -0.946,-0.262 -0.601,-0.285 -1.234,-0.492 -1.875,-0.695 -0.426,-0.137 -0.851,-0.273 -1.265,-0.441 -0.969,-0.395 -1.95,-0.758 -2.934,-1.122 -3.309,-1.226 -6.43,-2.382 -9.027,-4.652 -0.45,-0.391 -0.918,-0.762 -1.383,-1.133 -0.531,-0.418 -1.063,-0.836 -1.563,-1.289 l -1.804,-1.648 c -2.438,-2.211 -4.953,-4.5 -7.305,-6.86 -0.723,-0.722 -1.281,-1.664 -1.879,-2.656 -0.281,-0.476 -0.566,-0.949 -0.867,-1.406 -0.363,-0.543 -0.754,-1.082 -1.145,-1.617 -0.851,-1.176 -1.656,-2.282 -2.175,-3.489 -0.36,-0.828 -0.016,-1.546 0.222,-1.898 0.496,-0.742 1.356,-1.215 2.27,-1.246 0.16,0.055 0.363,0.117 0.57,0.156 0.992,0.18 1.442,0.899 2.094,2.051 0.168,0.297 0.336,0.594 0.515,0.871 0.508,0.785 0.961,1.606 1.415,2.426 0.828,1.492 1.679,3.039 2.835,4.363 2.493,2.848 5.364,5.332 7.844,7.387 2.242,1.855 4.723,3.34 6.629,4.43 1.703,0.968 3.449,1.867 5.195,2.765 1.622,0.832 3.247,1.668 4.836,2.563 0.735,0.414 1.368,1.242 0.93,2.343 -0.141,0.364 -0.398,0.832 -0.809,0.993 -0.117,0.046 -0.246,0.066 -0.378,0.066" /><path
         id="path20"
         style="fill:#171717;fill-opacity:1;fill-rule:nonzero;stroke:none"
         d="m 452.734,505.336 c -0.546,-0.113 -1.101,-0.203 -1.656,-0.297 -1.265,-0.211 -2.457,-0.41 -3.535,-0.836 -1.352,-0.543 -1.832,-1.855 -2.387,-3.379 -0.199,-0.547 -0.398,-1.094 -0.64,-1.609 -1.77,-3.793 -0.778,-5.707 1.672,-7.91 0.636,-0.578 1.347,-1.078 2.05,-1.582 l 0.461,-0.328 c 3.176,-2.286 6.348,-1.887 8.481,1.058 0.855,1.18 1.34,2.68 1.851,4.274 0.16,0.496 0.317,0.992 0.489,1.472 0.863,2.461 0.636,4.77 -0.637,6.504 -1.278,1.742 -3.531,2.809 -6.149,2.633" /><path
         id="path22"
         style="fill:#171717;fill-opacity:1;fill-rule:nonzero;stroke:none"
         d="m 353.949,506.785 c -0.051,0 -0.101,0 -0.152,-0.004 -2.887,-0.101 -5.004,-0.343 -5.965,-2.492 -1.914,-4.301 -1.859,-8.238 0.168,-12.039 0.66,-1.238 2.234,-2.297 4.113,-2.758 1.582,-0.394 3.117,-0.265 3.996,0.324 3.313,2.235 5.004,5.172 5.032,8.727 l 0,0 c 0.015,2.094 -0.68,4.133 -2.254,6.605 -0.719,1.137 -1.555,1.555 -3.11,1.579 -0.324,0 -0.652,0.011 -0.98,0.031 -0.281,0.015 -0.563,0.027 -0.848,0.027" /></g></g></svg>