<?xml version="1.0" encoding="UTF-8" standalone="no"?>
<svg
   xmlns:dc="http://purl.org/dc/elements/1.1/"
   xmlns:cc="http://creativecommons.org/ns#"
   xmlns:rdf="http://www.w3.org/1999/02/22-rdf-syntax-ns#"
   xmlns:svg="http://www.w3.org/2000/svg"
   xmlns="http://www.w3.org/2000/svg"
   viewBox="0 0 100 100"
   height="100"
   width="100"
   xml:space="preserve"
   version="1.1"
   id="svg2"><metadata
     id="metadata8"><rdf:RDF><cc:Work
         rdf:about=""><dc:format>image/svg+xml</dc:format><dc:type
           rdf:resource="http://purl.org/dc/dcmitype/StillImage" /></cc:Work></rdf:RDF></metadata><defs
     id="defs6" /><g
     transform="matrix(1.25,0,0,-1.25,0,100)"
     id="g10"><g
       transform="scale(0.1,0.1)"
       id="g12"><path
         id="path14"
         style="fill:#171717;fill-opacity:1;fill-rule:nonzero;stroke:none"
         d="m 335.789,401.742 c 3.481,1.731 7.043,3.106 9.938,5.477 0.019,0.437 0.125,0.722 0.031,0.898 -1.27,2.321 -1.992,4.836 -2.746,7.36 -1.27,4.238 -2.657,8.445 -4.578,12.449 -2.7,5.617 -4.575,11.566 -6.907,17.32 -2.523,6.215 -4.922,12.453 -7.086,18.793 -0.113,0.336 -0.273,0.645 -0.394,0.938 -3.969,1.113 -4.027,1.191 -4.434,6.211 0.52,0.367 1.285,0.91 1.981,1.41 -0.059,0.554 -0.02,0.937 -0.153,1.242 -2.031,4.723 -4.101,9.426 -6.132,14.144 -1.942,4.5 -3.946,8.985 -5.758,13.539 -0.969,2.438 -1.59,5.008 -2.363,7.52 -0.075,0.227 -0.114,0.473 -0.2,0.687 -1.941,5.016 -3.859,10.043 -5.851,15.04 -0.528,1.308 -1.285,2.535 -1.922,3.761 -1.746,0.114 -3.289,0.293 -4.832,0.293 -6.406,0.004 -12.606,1.317 -18.762,2.832 -2.933,0.727 -5.117,2.43 -6.168,5.449 -0.715,2.075 -1.223,4.114 -0.863,6.325 0.176,1.054 0.066,2.152 0.195,3.218 0.403,3.313 2.742,5.957 6.028,6.7 1.601,0.371 3.109,1.195 4.902,0.742 1.363,-0.348 2.836,-0.11 3.801,-1.582 0.324,-0.504 1.214,-0.703 1.89,-0.899 3.68,-1.05 7.352,-2.121 11.067,-3.05 2.457,-0.614 4.945,-0.52 7.472,-0.016 4.805,0.949 9.633,1.816 14.485,2.496 4.261,0.606 8.562,0.953 12.851,1.336 4.762,0.43 9.282,-0.602 13.66,-2.422 2.317,-0.965 3.618,-2.668 3.875,-5.164 0.231,-2.301 -0.757,-3.699 -2.996,-4.129 -0.703,-0.14 -1.429,-0.152 -2.144,-0.176 -4.305,-0.14 -8.613,-0.218 -12.871,-0.988 -4,-0.726 -8.047,-1.25 -12.032,-2.051 -2.441,-0.496 -4.828,-1.32 -7.043,-2.89 0.118,-0.703 0.145,-1.414 0.364,-2.059 2.219,-6.574 4.469,-13.137 6.715,-19.703 3.246,-9.508 7.152,-18.789 10.039,-28.43 0.543,-1.832 1.347,-3.578 2.058,-5.359 0.453,-1.125 1.02,-2.125 2.367,-2.469 1.461,-0.367 2.032,-1.609 2.415,-2.89 0.238,-0.79 0.324,-1.649 0.332,-2.485 0.054,-4.074 1.453,-7.719 3.449,-11.191 0.773,-1.34 1.535,-2.696 2.371,-4.16 4.16,-1.055 8.465,-1.051 12.758,-0.911 7.89,0.254 15.785,0.575 23.672,1.024 4.179,0.238 8.347,0.711 12.5,1.242 4.64,0.602 8.574,2.899 12.324,5.531 1.664,1.164 3.308,2.383 4.84,3.715 4.265,3.699 9.152,6.52 13.687,9.828 4.059,2.953 8.176,5.809 12.051,9.024 5.789,4.812 11.383,9.886 17.695,14.035 0.805,0.527 1.602,1.062 2.43,1.539 2.805,1.621 5.469,3.422 7.844,5.652 2.714,2.555 5.847,4.547 8.968,6.555 2.016,1.297 3.95,2.715 5.864,4.152 1.136,0.856 2.164,1.856 3.304,2.844 -0.457,2.676 -1.422,5.106 -2.293,7.563 -0.8,2.246 -1.617,4.496 -2.398,6.753 -0.43,1.254 -0.512,2.555 -0.539,3.989 2.523,1.469 4.637,3.441 7.422,4.347 5.027,1.629 9.597,4.305 14.433,6.383 1.313,0.567 2.664,1.063 3.93,1.719 2.063,1.07 2.344,1.738 1.863,4.066 -0.41,1.985 -0.898,3.954 -1.351,5.93 -0.106,0.465 -0.262,0.926 -0.305,1.399 -0.289,3.117 1.098,5.32 4.094,6.335 1.125,0.379 2.324,0.645 3.5,0.7 3.285,0.14 5.113,-1.43 5.691,-4.653 1.008,-5.547 1.492,-11.152 1.844,-16.773 0.258,-4.137 -0.43,-4.953 -4.457,-5.938 -0.695,-0.168 -1.414,-0.332 -2.047,-0.648 -3.418,-1.723 -6.809,-3.484 -10.215,-5.238 -1.699,-0.871 -3.418,-1.715 -5.097,-2.633 -1.141,-0.617 -2.223,-1.332 -3.379,-2.035 0.101,-0.989 0.023,-1.867 0.297,-2.614 0.988,-2.675 1.519,-5.543 3.476,-7.808 0.602,-0.699 1.008,-1.645 1.254,-2.547 0.898,-3.293 2.633,-6.137 4.434,-8.973 1.601,-2.523 2.996,-5.168 4.543,-7.718 0.921,-1.524 0.464,-3 -0.059,-4.707 1.047,-1.059 2.113,-2.145 3.34,-3.387 1.379,0.301 2.762,0.605 4.152,0.914 1.793,0.394 2.887,0.066 3.606,-1.453 1.129,-2.367 2.121,-4.805 3.082,-7.246 0.195,-0.508 0.211,-1.293 -0.047,-1.731 -0.758,-1.269 -0.449,-2.422 -0.172,-3.758 0.777,-3.777 2.363,-7.269 3.476,-10.925 0.809,-2.625 1.762,-5.207 2.528,-7.852 0.672,-2.316 1.851,-4.371 2.816,-6.66 0.649,0.094 1.145,0.062 1.543,0.238 4.215,1.856 8.809,2.149 13.231,3.113 2.55,0.555 5.25,0.375 7.855,0.727 5.926,0.801 11.836,1.723 17.754,2.605 0.59,0.094 1.16,0.329 1.746,0.383 4.914,0.426 9.856,0.36 14.668,-0.558 5.399,-1.024 10.676,-2.653 15.754,-4.836 1.543,-0.66 3.117,-1.254 4.602,-2.02 2.117,-1.105 4.222,-2.242 6.218,-3.547 3.129,-2.031 6.301,-3.851 9.946,-4.863 1.933,-0.539 3.8,-1.48 5.539,-2.504 4.754,-2.801 9.066,-6.238 13.343,-9.695 3.567,-2.871 6.266,-6.582 8.911,-10.289 2.992,-4.196 5.992,-8.379 8.824,-12.676 4.019,-6.094 7.742,-12.398 10.883,-18.984 1.332,-2.782 2.195,-5.84 2.836,-8.864 1.359,-6.437 2.429,-12.937 3.613,-19.422 0.105,-0.582 0.215,-1.187 0.207,-1.781 -0.086,-6.578 0.75,-13.156 0.039,-19.734 -0.59,-5.492 -1.77,-10.836 -3.473,-16.106 -2.679,-8.336 -6.652,-16.132 -9.906,-24.23 -1.191,-2.973 -3.109,-5.652 -4.637,-8.496 -3.328,-6.18 -8.054,-11.285 -12.675,-16.469 -0.79,-0.883 -1.739,-1.637 -2.649,-2.41 -1.996,-1.711 -4,-3.414 -6.019,-5.094 -1.567,-1.297 -3.098,-2.637 -4.754,-3.82 -5.16,-3.692 -10.496,-7.129 -16.016,-10.266 -0.824,-0.465 -1.719,-0.832 -2.621,-1.129 -2.266,-0.75 -4.578,-1.386 -6.84,-2.164 -2.367,-0.816 -4.758,-1.617 -7.047,-2.629 -5.832,-2.578 -11.886,-4.394 -18.152,-5.523 -0.469,-0.086 -0.945,-0.164 -1.426,-0.188 -11.406,-0.558 -22.695,0.121 -33.914,2.547 -5.105,1.102 -9.859,2.746 -14.355,5.371 -2.368,1.387 -4.899,2.528 -7.438,3.571 -8.059,3.308 -15.027,8.359 -21.934,13.531 -5.281,3.953 -10.062,8.445 -14.679,13.164 -3.106,3.164 -6.266,6.273 -8.973,9.777 -5.191,6.731 -10.203,13.61 -14.125,21.188 -3.187,6.148 -4.84,12.754 -4.961,19.66 -0.082,4.687 -0.558,9.312 -1.07,13.953 -0.098,0.949 -0.258,1.902 -0.254,2.859 0.051,5.629 0.031,11.262 0.238,16.879 0.223,5.817 1.934,11.329 4.328,16.571 2.192,4.808 4.043,9.683 5.442,14.789 1.262,4.613 3.273,8.957 5.976,12.976 2.735,4.067 5.266,8.293 8.664,11.864 4.446,4.679 8.215,10.023 13.375,14.007 2.551,1.961 5.18,3.836 7.856,5.637 2.277,1.527 4.641,2.942 7.019,4.317 1.536,0.886 3.168,1.601 5.11,2.57 0.367,1.226 0.242,2.84 -0.356,4.433 -0.082,0.223 -0.105,0.481 -0.207,0.684 -3.086,6.133 -4.422,12.891 -6.945,19.223 -0.656,1.648 -1.008,3.418 -1.531,5.254 -1.117,0.304 -2.387,0.39 -3.34,0.984 -0.957,0.598 -1.59,1.711 -2.567,2.824 -1.113,-0.183 -2.394,-0.394 -3.667,-0.605 -1.872,-0.317 -3.02,0.121 -3.922,1.734 -0.52,0.926 -0.793,1.988 -1.211,2.977 -0.309,0.734 -0.676,1.449 -1.071,2.293 -3.32,-1.051 -5.972,-2.883 -8.531,-4.809 -5.75,-4.324 -10.148,-9.781 -13.195,-16.316 -0.504,-1.086 -1.125,-2.118 -1.672,-3.176 -2.074,-4.051 -4.098,-8.121 -6.215,-12.141 -1.894,-3.601 -3.859,-7.164 -5.844,-10.719 -2.625,-4.699 -5.293,-9.378 -7.957,-14.054 -3.074,-5.403 -6.082,-10.86 -9.289,-16.188 -2.668,-4.422 -4.89,-9.05 -7.133,-13.679 -2.191,-4.524 -4.3,-9.082 -6.582,-13.555 -0.968,-1.91 -2.382,-3.59 -3.441,-5.465 -2.414,-4.266 -4.844,-8.535 -7.055,-12.906 -1.3,-2.582 -2.621,-5.113 -4.418,-7.379 -0.746,-0.941 -1.394,-1.856 -1.394,-3.203 0,-0.742 -0.543,-1.539 -0.977,-2.223 -2.457,-3.855 -4.293,-8.004 -5.902,-12.262 -0.121,-0.32 -0.117,-0.687 -0.16,-0.968 0.511,-0.844 1.265,-0.645 1.945,-0.629 3.113,0.066 6.231,0.203 9.344,0.187 1.906,-0.011 3.816,-0.238 5.726,-0.414 1.063,-0.097 1.817,-0.683 1.934,-1.789 0.273,-2.613 0.527,-5.238 0.707,-7.863 0.047,-0.692 -0.109,-1.43 -0.312,-2.102 -0.356,-1.129 -1.219,-1.742 -2.372,-1.949 -0.23,-0.043 -0.488,-0.066 -0.714,-0.016 -5.067,1.024 -9.993,-0.535 -14.989,-0.796 -0.597,-0.028 -1.195,-0.071 -1.789,-0.133 -1.64,-0.176 -2.769,0.527 -3.461,1.988 -0.195,0.422 -0.312,0.887 -0.519,1.481 -1.528,0.21 -3.035,0.425 -4.809,0.671 -0.086,-1.054 -0.215,-1.843 -0.191,-2.629 0.031,-1.07 -0.41,-1.828 -1.235,-2.445 -0.953,-0.703 -1.832,-1.519 -2.832,-2.144 -0.738,-0.461 -1.379,-0.899 -1.687,-1.758 -0.36,-0.988 -1.145,-1.469 -2.18,-1.633 -0.574,-0.09 -1.39,-0.102 -1.668,-0.473 -1.332,-1.777 -2.836,-1.382 -4.449,-0.589 -0.207,0.105 -0.465,0.117 -0.859,0.207 -0.813,-0.45 -1.684,-1.2 -2.664,-1.387 -0.852,-0.16 -1.821,0.332 -2.985,0.594 -0.199,-0.129 -0.629,-0.332 -0.969,-0.637 -0.933,-0.844 -1.902,-1 -2.894,-0.176 -0.883,0.723 -1.805,1.024 -2.981,0.914 -0.64,-0.055 -1.378,0.285 -1.98,0.613 -0.723,0.403 -1.344,0.985 -2.066,1.524 -1.016,-0.227 -2.036,-0.457 -2.954,-0.656 -1.382,0.976 -1.039,2.558 -1.929,3.757 -0.157,0.039 -0.469,0.149 -0.789,0.172 -0.578,0.055 -1.289,-0.144 -1.703,0.125 -0.547,0.364 -0.926,1.043 -1.25,1.657 -0.215,0.402 -0.192,0.929 -0.297,1.394 -0.231,0.988 -0.993,1.258 -2.106,1.383 -0.262,-1 -0.633,-2.008 -0.781,-3.051 -0.953,-6.703 -3.008,-13.035 -6.184,-19.019 -1.574,-2.965 -2.89,-6.032 -3.941,-9.235 -1.535,-4.691 -4.102,-8.898 -6.492,-13.179 -0.821,-1.461 -1.781,-2.836 -2.699,-4.247 -1.442,-2.199 -3.02,-4.25 -4.973,-6.086 -3.395,-3.187 -6.602,-6.589 -9.762,-10.019 -3.015,-3.266 -6.433,-6.055 -9.918,-8.77 -1.316,-1.031 -2.734,-1.937 -4.019,-3 -4.414,-3.644 -9.473,-5.961 -14.887,-7.695 -7.176,-2.305 -14.313,-4.746 -21.422,-7.238 -6.269,-2.203 -12.738,-3.242 -19.332,-3.715 -0.473,-0.039 -0.957,-0.02 -1.437,-0.008 -5.024,0.133 -10.047,0.367 -15.071,0.383 -10.121,0.016 -19.668,2.395 -28.804,6.633 -1.516,0.703 -3.082,1.328 -4.668,1.855 -7.336,2.418 -13.918,6.352 -20.508,10.266 -3.449,2.043 -6.016,5.078 -8.715,7.969 -2.445,2.629 -4.957,5.199 -7.457,7.769 -1,1.024 -2.094,1.965 -3.082,3 -3.461,3.633 -6.942,7.25 -10.328,10.957 -2.266,2.485 -4.114,5.262 -5.547,8.336 -2.785,5.965 -5.692,11.871 -8.531,17.809 -1.571,3.265 -2.344,6.797 -2.875,10.336 -0.704,4.726 -1.211,9.496 -1.594,14.261 -0.434,5.375 -0.113,10.762 0.101,16.153 0.227,5.769 1.207,11.402 2.247,17.054 0.566,3.079 1.578,5.989 3.027,8.786 1.101,2.113 1.937,4.363 2.89,6.558 0.141,0.332 0.227,0.692 0.399,1.008 2.777,5.008 4.805,10.426 8.109,15.156 2.532,3.633 4.93,7.36 7.594,10.891 1.867,2.476 4.133,4.648 6.125,7.039 2.676,3.211 5.356,6.437 7.852,9.789 2.027,2.723 4.304,5.125 7.101,7.043 0.395,0.269 0.801,0.531 1.164,0.84 5.774,5.004 12.449,8.429 19.446,11.351 3.085,1.289 6.121,2.735 9.089,4.286 4.727,2.468 9.809,3.8 14.977,4.843 10.141,2.051 20.43,2.434 30.738,2.403 0.481,-0.008 0.961,-0.024 1.434,-0.079 4.394,-0.511 8.805,-0.917 13.176,-1.582 4.625,-0.71 9.046,-2.117 13.367,-4.003 5.582,-2.442 10.922,-5.446 16.754,-7.348 1.574,-0.508 3.019,-1.43 4.508,-2.188 6.3,-3.218 12.414,-6.726 17.718,-11.484 1.157,-1.043 2.317,-2.078 3.453,-3.141 1.305,-1.23 2.528,-2.558 3.903,-3.711 2.867,-2.406 5.308,-5.175 7.418,-8.257 1.691,-2.469 3.414,-4.918 5.086,-7.399 0.679,-1.004 1.425,-1.914 2.898,-2.625 M 209.109,260.965 c -0.082,-0.055 -0.16,-0.125 -0.246,-0.156 -0.066,-0.024 -0.148,0.011 -0.226,0.019 0.172,0.035 0.343,0.067 0.511,0.098 0.133,-0.196 0.215,-0.481 0.399,-0.571 6.473,-3.437 13.476,-4.457 20.691,-4.5 0.246,-0.007 0.489,0.266 1.153,0.661 -7.61,2.187 -14.836,3.843 -22.282,4.449 m 383.993,1.5 c 0.316,0.156 0.613,0.398 0.945,0.461 4.851,0.859 9.516,2.293 13.883,4.621 3.59,1.914 7.211,3.769 10.769,5.726 4.953,2.719 8.512,6.887 11.774,11.375 1.547,2.122 3.16,4.215 4.906,6.168 5.797,6.446 10.883,13.336 14.035,21.493 1.289,3.339 2.848,6.652 3.563,10.125 0.953,4.601 2.425,9.004 3.941,13.406 1.105,3.211 1.738,6.512 1.742,9.844 0,4.558 0.207,9.089 0.653,13.621 0.355,3.605 0.187,7.195 -0.782,10.679 -1.113,4.032 -2.199,8.102 -3.711,11.989 -2.113,5.461 -4.484,10.828 -6.98,16.129 -1.367,2.91 -3.246,5.55 -5.641,7.808 -3.394,3.207 -6.449,6.735 -9.304,10.438 -1.387,1.797 -2.813,3.586 -4.407,5.199 -2.097,2.113 -4.148,4.418 -6.633,5.984 -4.937,3.114 -9.941,6.196 -15.605,7.957 -1.703,0.535 -3.441,1.149 -4.953,2.071 -2.707,1.636 -5.637,2.593 -8.629,3.457 -1.262,0.367 -2.586,0.609 -3.766,1.156 -1.996,0.933 -4.089,1.34 -6.23,1.582 -2.969,0.34 -5.942,0.66 -8.918,0.867 -4.922,0.352 -9.813,-0.195 -14.676,-0.816 -2.008,-0.262 -3.984,-0.809 -5.953,-1.313 -0.367,-0.097 -0.625,-0.609 -0.937,-0.933 -3.575,0.328 -7.122,0.054 -10.653,-0.516 -1.523,-0.246 -3.051,-0.625 -4.262,-1.664 -0.293,-0.25 -0.507,-0.887 -0.394,-1.227 0.094,-0.308 0.676,-0.593 1.074,-0.644 1.363,-0.168 2.516,0.535 3.719,1.055 3.371,1.468 6.738,2.949 10.512,2.996 0.476,0.05 0.945,0.121 1.421,0.14 5.379,0.153 10.766,0.254 16.141,0.461 4.34,0.168 8.609,-0.023 12.715,-1.633 0.664,-0.254 1.383,-0.406 2.086,-0.519 6.293,-1.09 12.293,-3.121 18.074,-5.766 3.149,-1.441 6.34,-2.922 8.711,-5.578 2.434,-2.734 5.336,-4.785 8.613,-6.359 2.055,-0.996 3.942,-2.235 5.649,-3.774 1.957,-1.769 3.961,-3.484 6.035,-5.105 2.496,-1.949 4.504,-4.348 6.078,-7.02 3.395,-5.777 6.996,-11.433 9.949,-17.461 1.004,-2.054 1.832,-4.14 2.403,-6.359 0.679,-2.668 1.363,-5.348 2.293,-7.926 3.121,-8.609 4.187,-17.43 3,-26.508 -0.657,-4.984 -1.332,-9.972 -2.227,-14.914 -0.512,-2.812 -1.137,-5.699 -2.309,-8.277 -3.468,-7.621 -6.367,-15.484 -10.093,-23.004 -3.028,-6.098 -7.008,-11.391 -11.754,-16.164 -2.617,-2.629 -5.449,-5.043 -8.016,-7.711 -4.418,-4.598 -9.746,-7.668 -15.59,-9.992 -1.554,-0.617 -3.125,-1.242 -4.59,-2.043 -2.007,-1.098 -4.074,-1.988 -6.273,-2.613 -0.508,-0.141 -0.902,-0.661 -1.387,-0.981 -0.582,0.121 -1.164,0.34 -1.746,0.332 -4.66,-0.035 -9.324,-0.144 -13.984,-0.168 -1.789,-0.015 -3.594,0.016 -5.367,0.223 -4.039,0.469 -8.063,1.031 -12.09,1.613 -1.293,0.188 -2.613,0.43 -3.84,0.871 -3.387,1.227 -6.859,2.031 -10.398,2.656 -5.192,0.922 -10.329,2.122 -15.184,4.215 -7.289,3.129 -14.121,7.043 -20.227,12.157 -0.394,0.332 -0.812,0.957 -1.527,0.222 1.301,-1.719 2.746,-3.301 4.512,-4.562 2.726,-1.953 5.453,-3.899 8.218,-5.793 4.583,-3.141 9.571,-5.442 14.969,-6.754 3.836,-0.934 7.711,-1.703 11.582,-2.504 3.512,-0.734 7.086,-1.242 10.543,-2.176 5.723,-1.535 11.555,-1.879 17.414,-2.074 1.305,-0.043 2.629,0.129 3.934,0.293 4.387,0.551 8.754,1.273 13.18,1.461 M 331.746,399.75 c -2.476,3.66 -4.891,7.34 -7.433,10.941 -1.172,1.657 -2.477,3.247 -3.915,4.668 -2.64,2.61 -5.394,5.106 -8.16,7.582 -3.847,3.426 -7.777,6.789 -12.32,9.258 -6.094,3.317 -12.156,6.699 -18.758,8.973 -1.461,0.504 -2.816,1.305 -4.238,1.914 -2.961,1.293 -5.856,2.797 -8.918,3.793 -7.914,2.555 -16.145,3.484 -24.402,3.801 -7.18,0.277 -14.364,-0.262 -21.497,-1.141 -7.16,-0.887 -14.132,-2.496 -20.707,-5.586 -1.187,-0.558 -2.347,-1.211 -3.582,-1.652 -5.554,-1.965 -10.644,-4.903 -15.808,-7.653 -2.102,-1.117 -4.012,-2.589 -5.977,-3.949 -2.535,-1.75 -4.429,-4.273 -7.16,-5.824 -0.887,-0.504 -1.508,-1.516 -2.183,-2.352 -3.09,-3.816 -5.973,-7.816 -9.27,-11.437 -4.785,-5.242 -9.035,-10.852 -12.828,-16.824 -3.086,-4.864 -5.559,-10.047 -7.949,-15.274 -1.293,-2.832 -2.411,-5.742 -3.735,-8.554 -1.746,-3.723 -2.691,-7.633 -3.312,-11.688 -0.696,-4.512 -1.114,-9.035 -1.289,-13.582 -0.219,-5.5 -0.496,-11.004 0.129,-16.504 0.257,-2.262 0.496,-4.523 0.632,-6.797 0.313,-5.195 1.457,-10.168 3.645,-14.91 1.957,-4.238 3.84,-8.504 5.816,-12.73 1.934,-4.129 4.125,-8.118 6.926,-11.735 4.567,-5.875 9.828,-11.097 15.16,-16.258 2.492,-2.421 4.934,-4.886 7.426,-7.296 1.461,-1.411 2.899,-2.871 4.504,-4.114 4.371,-3.39 9.23,-6.023 14.199,-8.375 5.727,-2.711 11.641,-5.031 17.496,-7.465 7.5,-3.109 15.34,-4.578 23.45,-4.679 4.191,-0.047 8.386,0.008 12.57,-0.168 8.012,-0.348 15.746,1.015 23.308,3.547 7.258,2.422 14.508,4.886 21.75,7.367 1.805,0.617 3.633,1.242 5.34,2.09 4.512,2.25 8.684,5.051 12.524,8.336 3.91,3.347 7.883,6.617 11.453,10.34 2.894,3.015 6.121,5.777 8.691,9.05 3.996,5.075 7.41,10.578 9.746,16.668 0.938,2.461 1.856,4.93 2.895,7.34 1.23,2.852 2.586,5.652 3.875,8.484 0.445,0.977 0.863,1.965 1.265,2.965 1.973,4.922 2.833,10.114 3.536,15.328 0.175,1.278 0.347,2.555 0.515,3.793 -2.59,0.954 -6.656,1.164 -10.144,0.536 -0.668,-2.297 -1.367,-4.696 -2.074,-7.09 -0.79,-2.629 -1.461,-5.309 -2.422,-7.879 -1.078,-2.91 -2.508,-5.695 -3.629,-8.594 -2.52,-6.535 -6.407,-12.289 -10.332,-18.008 -2.032,-2.957 -4.289,-5.758 -6.571,-8.527 -2.121,-2.59 -4.453,-4.961 -7.234,-6.934 -3.703,-2.625 -7.332,-5.398 -10.738,-8.402 -2.602,-2.289 -5.5,-3.738 -8.735,-4.754 -2.394,-0.75 -4.722,-1.707 -7.109,-2.492 -3.637,-1.188 -7.258,-2.438 -10.957,-3.41 -3.574,-0.949 -7.227,-1.653 -10.871,-2.317 -1.985,-0.367 -4.055,-0.742 -6.039,-0.578 -9.664,0.793 -19.309,1.758 -28.953,2.711 -1.301,0.125 -2.637,0.375 -3.852,0.836 -4.598,1.723 -9.293,3.109 -13.996,4.488 -0.344,0.102 -0.695,0.192 -1.031,0.309 -4.758,1.617 -9.516,3.238 -14.266,4.875 -2.367,0.824 -4.855,1.43 -7.066,2.562 -8.328,4.278 -15.297,10.321 -21.067,17.61 -2.976,3.765 -6.039,7.445 -9.328,10.898 -5.414,5.696 -8.113,12.625 -9.715,20.078 -0.574,2.68 -0.613,5.465 -0.941,8.204 -0.715,5.957 -0.656,11.953 -0.609,17.933 0.078,9.871 1.308,19.547 5.406,28.703 2.683,6.008 5.39,11.973 9.277,17.34 2.039,2.805 3.981,5.688 5.965,8.535 2.457,3.528 4.848,7.114 7.387,10.586 3.133,4.281 6.945,7.906 11.254,11.004 2.519,1.809 5.312,3.227 7.566,5.426 0.746,0.734 1.785,1.203 2.746,1.668 2.051,0.984 4.11,1.961 6.211,2.82 5.758,2.363 11.566,4.602 17.301,7.016 6.262,2.629 12.812,4.039 19.539,4.281 7.527,0.27 15.082,0.145 22.621,0.027 2,-0.027 4.031,-0.507 5.984,-1.023 3.813,-1.012 7.582,-2.184 11.364,-3.32 4.015,-1.207 7.929,-2.664 11.695,-4.543 1.711,-0.848 3.477,-1.582 5.23,-2.352 2.625,-1.164 5.2,-2.348 7.536,-4.117 3.136,-2.375 6.589,-4.336 9.757,-6.684 2.196,-1.629 4.442,-3.363 6.122,-5.48 4.152,-5.227 7.988,-10.695 11.984,-16.102 3.187,0.508 7.101,2.375 9.324,4.469 m 203.664,42.441 c 3.481,0.969 6.59,1.739 9.817,2.067 3.207,0.332 6.371,1.035 9.562,1.547 2.828,0.449 5.656,0.91 8.492,1.261 1.782,0.223 3.578,0.336 5.371,0.352 2.512,0.023 5.028,0.012 7.528,-0.184 2.976,-0.23 5.945,-0.617 8.906,-1.046 1.41,-0.196 2.867,-0.446 4.16,-0.997 2.867,-1.242 5.828,-2.164 8.781,-3.117 1.246,-0.406 2.411,-1.035 3.618,-1.551 1.652,-0.703 3.3,-1.418 4.964,-2.082 1.661,-0.664 3.426,-1.105 4.996,-1.933 3.708,-1.938 7.333,-4.043 10.981,-6.098 0.512,-0.293 1.023,-0.644 1.445,-1.055 3.157,-3.097 6.375,-6.14 9.403,-9.363 3.605,-3.836 6.929,-7.941 10.574,-11.73 2.949,-3.074 5.281,-6.469 6.961,-10.356 1.234,-2.855 2.304,-5.804 3.765,-8.539 3.188,-5.988 4.746,-12.508 6.446,-18.98 0.855,-3.27 1.062,-6.578 0.722,-9.977 -0.332,-3.328 -0.519,-6.699 -0.414,-10.039 0.164,-5.109 -0.808,-10.004 -2.226,-14.844 -1.043,-3.558 -2.516,-7.019 -3.215,-10.632 -0.926,-4.758 -2.715,-9.18 -4.453,-13.625 -1.18,-2.993 -2.383,-6.067 -4.125,-8.743 -3.524,-5.406 -6.93,-10.925 -11.586,-15.504 -1.27,-1.246 -2.285,-2.757 -3.375,-4.179 -4.106,-5.375 -8.746,-10.188 -14.77,-13.414 -5.785,-3.098 -11.425,-6.477 -17.867,-8.258 -4.625,-1.274 -9.16,-2.734 -14.027,-2.684 -1.555,0.016 -3.125,-0.031 -4.66,-0.258 -8.418,-1.21 -16.68,-0.539 -24.891,1.625 -4.395,1.161 -8.863,2.083 -13.34,2.84 -4.383,0.739 -8.644,1.899 -12.871,3.211 -2.293,0.711 -4.437,1.754 -6.445,3.106 -2.481,1.668 -5.074,3.172 -7.555,4.84 -4.391,2.953 -8.437,6.261 -11.711,10.5 -3.953,5.117 -8.219,9.98 -12.949,14.406 -2.551,2.387 -4.793,5.012 -6.789,7.871 -0.754,1.078 -1.574,2.109 -2.406,3.125 -3.2,3.961 -5.86,8.176 -6.563,13.363 -0.109,0.821 -0.449,1.61 -0.66,2.426 -1.484,5.816 -2.574,11.672 -2.496,17.719 0.027,2.383 -0.285,4.773 -0.547,7.152 -0.426,3.801 -1.023,7.59 -1.371,11.399 -0.168,1.89 -0.133,3.843 0.156,5.718 0.5,3.184 1.195,6.348 1.949,9.481 1.012,4.183 1.899,8.418 4.059,12.218 1.766,3.122 3.547,6.231 5.351,9.333 0.844,1.441 1.829,2.812 2.625,4.277 1.774,3.273 3.774,6.387 5.973,9.383 1.414,1.918 2.684,3.945 3.981,5.953 1.558,2.418 3.289,4.672 5.449,6.633 3.402,3.078 7.285,5.425 11.219,7.711 1.429,0.824 2.867,1.636 4.453,2.539 -0.692,3.203 -1.434,6.183 -2.739,9.011 -0.121,0.258 -0.543,0.383 -0.832,0.575 -5.957,-2.79 -11.168,-6.582 -16.171,-10.68 -1.571,-1.289 -3.086,-2.664 -4.473,-4.137 -2.211,-2.351 -4.246,-4.867 -6.434,-7.246 -3.254,-3.543 -6.054,-7.414 -8.769,-11.367 -3.137,-4.567 -5.707,-9.406 -7.02,-14.848 -1.215,-5.027 -3.164,-9.773 -5.402,-14.426 -1.031,-2.144 -1.836,-4.429 -2.434,-6.73 -2.336,-9.051 -1.894,-18.285 -1.59,-27.5 0.008,-0.238 0.098,-0.473 0.114,-0.711 0.316,-4.77 1.105,-9.508 1.011,-14.324 -0.058,-3.356 0.493,-6.692 1.504,-9.903 1.618,-5.156 3.668,-10.07 6.739,-14.613 4.16,-6.14 8,-12.519 13.039,-18.012 3.562,-3.882 7.32,-7.578 10.941,-11.406 2.149,-2.265 4.492,-4.277 6.957,-6.195 3.125,-2.434 6.301,-4.734 9.633,-6.883 3.734,-2.406 7.566,-4.59 11.555,-6.516 4.519,-2.195 9.05,-4.367 13.613,-6.468 1.844,-0.844 3.723,-1.688 5.676,-2.192 7.187,-1.867 14.441,-3.398 21.882,-3.925 10.879,-0.766 21.567,-0.161 31.731,4.222 4.746,2.039 9.648,3.543 14.559,5.082 1.48,0.469 2.996,0.942 4.347,1.68 3.039,1.672 5.992,3.492 8.961,5.289 6.801,4.102 12.762,9.281 18.695,14.492 1.079,0.949 2.047,2.027 3.036,3.063 4.308,4.531 8.027,9.492 11.191,14.898 2.004,3.422 3.84,6.883 5.223,10.606 1.211,3.25 2.48,6.492 3.988,9.613 1.824,3.785 3.539,7.594 4.609,11.668 0.785,3 1.606,6.008 2.219,9.051 0.52,2.57 0.981,5.191 1.082,7.804 0.184,4.899 0.07,9.817 0.109,14.719 0.012,1.809 -0.093,3.559 -0.55,5.336 -0.688,2.656 -1.188,5.371 -1.688,8.074 -0.547,2.942 -0.871,5.926 -1.535,8.836 -0.641,2.789 -1.269,5.656 -2.469,8.227 -3.336,7.16 -7.035,14.152 -11.531,20.675 -2.105,3.055 -4.164,6.149 -6.324,9.168 -4.403,6.133 -9.012,12.071 -15.078,16.747 -5.157,3.976 -10.481,7.542 -16.809,9.39 -0.906,0.262 -1.797,0.668 -2.629,1.121 -2.719,1.492 -5.359,3.16 -8.133,4.547 -4.39,2.192 -8.933,4.051 -13.574,5.656 -5.574,1.938 -11.324,2.965 -17.207,3.262 -2.754,0.141 -5.508,0.02 -8.199,-0.695 -1.039,-0.274 -2.094,-0.559 -3.156,-0.68 -5.938,-0.691 -11.754,-2.328 -17.782,-2.336 -0.828,0 -1.66,-0.234 -2.472,-0.433 -2.778,-0.684 -5.555,-1.372 -8.313,-2.133 -0.914,-0.258 -1.183,-1.106 -1.222,-2.008 -0.149,-3.141 0.453,-6.145 1.726,-9.313 M 640.734,308.289 c -4.656,2.68 -9.132,5.414 -13.836,7.762 -2.777,1.387 -5.617,2.773 -8.085,4.625 -6.583,4.941 -13.801,8.531 -21.567,11.156 -3.055,1.031 -6.058,2.234 -9.078,3.375 -0.551,0.215 -1.117,0.469 -1.578,0.82 -0.645,0.485 -0.731,1.207 -0.438,1.942 0.243,0.621 1.059,0.847 1.848,0.554 0.113,-0.035 0.227,-0.082 0.336,-0.125 5.059,-2.16 10.055,-4.468 15.191,-6.433 5.762,-2.199 10.907,-5.426 15.985,-8.817 0.898,-0.601 1.746,-1.293 2.695,-1.777 5.223,-2.66 10.473,-5.273 15.715,-7.906 1.367,-0.684 2.738,-1.363 4.277,-2.133 0.34,0.637 0.653,1.113 0.879,1.637 1.578,3.621 3.172,7.226 4.699,10.871 0.641,1.539 1.168,3.133 1.653,4.734 1.922,6.332 2.504,12.91 3.461,19.414 0.109,0.754 -0.184,1.559 -0.289,2.328 -5.758,0.305 -11.243,-0.097 -16.704,-0.679 -5.371,-0.574 -10.765,-0.836 -16.136,-0.543 -6.348,0.34 -12.676,0.422 -19.012,-0.031 -3.328,-0.239 -6.656,-0.54 -9.762,-0.793 -1.043,-2.239 -1.718,-4.332 -2.906,-6.09 -2.402,-3.567 -4.922,-7.082 -8.41,-9.75 -0.539,-0.41 -0.93,-1.032 -1.453,-1.629 1.39,-3.031 2.722,-5.961 4.406,-8.727 1.117,-1.836 2.219,-3.695 3.152,-5.636 1.801,-3.77 3.465,-7.61 5.203,-11.411 0.997,-2.175 2.094,-4.304 3.012,-6.511 1.192,-2.875 2.235,-5.805 3.371,-8.703 1.797,-4.563 3.625,-9.11 5.422,-13.676 0.215,-0.551 0.387,-1.129 0.477,-1.711 0.101,-0.672 -0.543,-1.559 -1.203,-1.508 -0.508,0.027 -1.153,0.344 -1.446,0.75 -0.402,0.562 -0.519,1.32 -0.781,1.988 -2.797,7.125 -5.523,14.282 -8.437,21.36 -1.727,4.203 -4.04,8.175 -5.579,12.437 -2.382,6.59 -6.336,12.34 -9.351,18.582 -0.336,0.688 -1.02,1.207 -1.449,1.699 -3.082,-0.941 -5.903,-1.808 -8.68,-2.656 0,-1.371 0.086,-2.578 -0.016,-3.765 -0.332,-3.954 -0.027,-7.887 0.2,-11.836 0.25,-4.297 0.375,-8.614 0.316,-12.926 -0.102,-7.301 -0.371,-14.602 -0.598,-21.899 -0.05,-1.437 -0.207,-2.867 -0.359,-4.3 -0.055,-0.461 -0.191,-0.946 -0.414,-1.344 -0.305,-0.535 -0.817,-0.985 -1.457,-0.699 -0.379,0.164 -0.778,0.609 -0.867,1 -0.137,0.558 -0.032,1.183 0.019,1.769 0.137,1.555 0.371,3.094 0.434,4.649 0.152,3.707 0.23,7.418 0.332,11.128 0.148,5.497 0.672,10.981 0.441,16.493 -0.23,5.5 -0.359,11.004 -0.48,16.507 -0.043,1.844 -0.133,3.708 0.648,5.465 -2.722,0.45 -5.199,0.789 -7.648,1.274 -2.52,0.496 -3.028,0.304 -4.297,-1.965 -2.988,-5.348 -5.559,-10.871 -7.485,-16.684 -1.511,-4.562 -3.597,-8.871 -5.82,-13.109 -2.445,-4.664 -4.976,-9.27 -7.449,-13.922 -1.051,-1.976 -2.02,-3.996 -3.078,-6.094 2.109,-1.781 4.558,-2.711 7.105,-3.336 4.524,-1.113 9.117,-1.961 13.625,-3.164 7.184,-1.902 14.457,-3.308 21.793,-4.414 2.121,-0.32 4.289,-0.445 6.43,-0.445 3.113,-0.016 6.223,0.246 9.336,0.246 4.273,0 8.312,0.961 12.187,2.676 3.504,1.551 6.95,3.219 10.473,4.722 2.789,1.2 5.258,2.868 7.504,4.856 6.738,5.961 13.133,12.246 18.406,19.59 2.317,3.226 3.922,6.789 5.117,10.738 M 304.055,290.688 c -1.59,1.007 -3.149,1.886 -4.59,2.921 -2.711,1.954 -5.242,4.176 -8.051,5.965 -5.762,3.676 -11.32,7.617 -16.644,11.887 -5.047,4.043 -9.895,8.297 -13.864,13.477 -0.918,1.195 -2.238,2.109 -3.461,3.039 -0.777,0.593 -1.863,0.253 -2.461,-0.622 -0.539,-0.781 -1.011,-1.613 -1.601,-2.558 0.332,-1.309 0.344,-2.922 1.101,-4.008 1.246,-1.773 1.684,-3.644 1.793,-5.687 0.328,-5.985 0.946,-11.914 2.469,-17.739 0.945,-3.582 1.926,-7.211 2.301,-10.871 0.508,-4.976 1.777,-9.621 4.109,-14.019 0.614,-1.153 1.039,-2.418 1.379,-3.684 0.137,-0.484 -0.117,-1.152 -0.363,-1.652 -0.34,-0.672 -1.422,-0.672 -1.805,-0.039 -0.242,0.398 -0.453,0.836 -0.629,1.277 -0.933,2.328 -1.808,4.676 -2.793,6.984 -1.039,2.45 -1.605,5.004 -1.918,7.621 -0.379,3.176 -0.851,6.239 -2.25,9.266 -1.793,3.887 -2.644,8.172 -3.148,12.473 -0.277,2.371 -0.457,4.765 -0.906,7.109 -0.434,2.231 -0.95,4.438 -0.965,6.731 -0.004,0.711 -0.078,1.437 -0.25,2.129 -0.293,1.199 -1.52,1.671 -2.488,0.867 -0.758,-0.629 -1.461,-1.211 -2.465,-1.328 -1.285,-0.153 -1.817,-1.051 -2.086,-2.161 -0.196,-0.808 -0.321,-1.64 -0.465,-2.464 -0.75,-4.239 -1.191,-8.539 -2.731,-12.614 -0.246,-0.66 -0.335,-1.394 -0.445,-2.101 -0.672,-4.371 -1.344,-8.75 -1.996,-13.129 -0.598,-4.02 -1.039,-8.07 -1.797,-12.059 -0.648,-3.426 -1.113,-6.851 -1.125,-10.336 0,-0.715 0.047,-1.457 -0.125,-2.136 -0.101,-0.375 -0.625,-0.922 -0.933,-0.911 -0.524,0.032 -1.133,0.34 -1.489,0.731 -0.269,0.297 -0.293,0.902 -0.265,1.363 0.101,1.668 0.175,3.348 0.429,5 0.832,5.434 2.411,10.727 2.965,16.223 0.348,3.449 0.949,6.875 1.469,10.305 0.82,5.437 1.644,10.878 2.523,16.304 0.207,1.289 0.543,2.571 0.965,3.809 0.418,1.258 0.699,2.476 0.332,3.879 -1.504,0.582 -2.933,1.047 -4.57,0.355 -0.172,-0.719 -0.27,-1.43 -0.508,-2.086 -0.465,-1.281 -1.367,-1.66 -2.531,-1.066 -1.059,0.543 -2.078,1.152 -3.035,1.687 -1.403,-0.394 -2.641,-0.742 -3.801,-1.066 -4.629,-8.539 -9.164,-16.949 -13.746,-25.328 -4.582,-8.379 -7.953,-17.317 -12.223,-26.059 0.571,-0.234 1.078,-0.527 1.629,-0.664 2.902,-0.719 5.785,-1.558 8.727,-2.051 7.543,-1.265 15.023,-2.964 22.664,-3.593 3.461,-0.282 6.961,-0.856 10.386,-0.59 5.114,0.394 10.25,0.801 15.282,2.008 7.14,1.711 14.097,3.988 20.433,7.656 4.84,2.801 9.75,5.543 13.989,9.367 4.265,3.855 8.5,7.699 12.183,12.145 6.106,7.367 10.723,15.546 13.832,24.574 0.336,0.976 0.91,1.953 0.496,3.043 -2.343,1.043 -4.621,2.082 -6.922,3.066 -0.878,0.383 -1.812,0.621 -2.707,0.965 -5.574,2.16 -11.589,2.855 -17.105,5.227 -1.082,0.468 -2.301,0.621 -3.469,0.867 -2.574,0.547 -5.195,0.886 -7.715,1.621 -3.476,1.004 -7.007,1.555 -10.586,1.89 -0.945,0.09 -1.918,0.165 -2.8,0.473 -0.383,0.133 -0.567,0.844 -0.946,1.469 0.735,0.199 1.192,0.445 1.625,0.418 2.27,-0.141 4.563,-0.18 6.789,-0.59 3.993,-0.723 7.942,-1.715 11.918,-2.547 3.278,-0.683 6.578,-1.25 9.594,-2.836 0.723,-0.383 1.59,-0.504 2.399,-0.711 3.363,-0.836 6.726,-1.679 10.097,-2.496 2.555,-0.621 5.055,-1.39 7.473,-2.445 1.039,-0.453 2.133,-1.098 3.535,-0.707 0.195,0.629 0.48,1.289 0.613,1.98 0.16,0.821 0.199,1.66 0.27,2.492 0.058,0.715 -0.008,1.45 0.179,2.129 0.11,0.399 0.602,0.977 0.911,0.969 0.523,-0.012 1.14,-0.328 1.527,-0.711 0.289,-0.281 0.406,-0.879 0.391,-1.324 -0.059,-1.313 -0.141,-2.633 -0.36,-3.926 -0.613,-3.68 -2.086,-7.082 -3.328,-10.57 -2.426,-6.836 -5.992,-13.051 -10.016,-18.969 -5.21,-7.66 -11.589,-14.363 -19.023,-19.902 -6.723,-5.008 -13.801,-9.5 -21.832,-12.25 -2.488,-0.848 -4.887,-1.961 -7.391,-2.758 -7.738,-2.441 -15.796,-2.453 -23.785,-3 -0.832,-0.055 -1.676,0.09 -2.511,0.129 -0.465,0.015 -0.934,0 -1.75,0 0.609,-0.414 0.867,-0.699 1.183,-0.785 4.789,-1.344 9.676,-1.66 14.567,-0.86 4.128,0.68 8.222,1.582 12.308,2.496 3.258,0.735 6.5,1.567 9.711,2.489 2.301,0.656 4.504,1.636 6.809,2.261 4,1.09 7.515,2.989 10.687,5.661 2.652,2.238 5.504,4.226 8.211,6.39 2.707,2.172 5.547,4.203 7.742,6.93 1.5,1.871 2.985,3.754 4.461,5.633 4.149,5.281 7.778,10.89 10.817,16.898 1.679,3.324 2.921,6.805 4.379,10.203 1.898,4.434 3.058,9.067 4.261,13.692 0.235,0.898 0.219,1.847 0.317,2.757 -1.696,0.813 -3.258,0.34 -4.789,0.383 -3.946,0.121 -7.903,0.11 -11.829,0.473 -7.019,0.656 -14.023,1.555 -21.035,2.34 -0.593,0.066 -1.195,0.094 -1.793,0.082 -2.777,-0.039 -5.472,0.461 -8.179,0.992 -7.188,1.418 -14.457,2.02 -21.77,2.121 -0.773,0.012 -1.723,0.176 -2.195,-0.781 1.031,-3.281 1.031,-3.281 0.34,-5.824 0.187,-0.25 0.375,-0.567 0.629,-0.801 2.207,-2.027 4.433,-4.012 5.793,-6.781 0.402,-0.829 1.167,-1.528 1.89,-2.145 3.36,-2.875 6.727,-5.746 10.164,-8.535 7.262,-5.875 15.227,-10.758 22.988,-15.91 0.473,-0.317 1.094,-0.516 1.657,-0.551 1.14,-0.082 1.758,-0.746 2.09,-1.695 0.371,-1.055 -0.176,-1.813 -1.422,-2.66 M 501.18,499.273 c -1.582,3.426 -2.989,6.696 -5.157,9.598 -1.64,2.199 -2.925,4.668 -3.617,7.379 -0.429,1.672 -1.465,3 -2.457,4.348 -0.777,1.047 -1.297,1.175 -2.476,0.793 -1.75,-0.563 -3.102,-1.727 -4.539,-2.821 -3.805,-2.894 -7.614,-5.808 -11.618,-8.422 -2.711,-1.769 -5.425,-3.492 -7.82,-5.683 -2.211,-2.031 -4.527,-3.926 -7.191,-5.336 -5.332,-2.84 -9.883,-6.762 -14.481,-10.57 -6.547,-5.418 -13.008,-10.918 -20.14,-15.586 -3.5,-2.285 -6.848,-4.817 -10.2,-7.325 -2.101,-1.578 -4.011,-3.421 -6.132,-4.972 -3.782,-2.758 -7.707,-5.356 -12.465,-6.074 -4.61,-0.7 -9.235,-1.45 -13.879,-1.731 -9.195,-0.555 -18.414,-0.851 -27.629,-1.148 -3.469,-0.11 -6.941,0.054 -10.367,0.793 -1.039,0.222 -1.735,0.746 -2.129,1.699 -0.274,0.664 -0.496,1.355 -0.809,2 -1.832,3.754 -3.383,7.621 -4.73,11.566 -0.031,0.09 -0.188,0.133 -0.528,0.352 -1.785,-0.707 -3.941,-0.922 -5.738,-2.25 -0.109,-1.328 0.238,-2.449 0.672,-3.563 1.68,-4.355 3.148,-8.793 5.074,-13.031 3.168,-6.976 5.485,-14.285 8.707,-21.25 2.602,-5.621 4.379,-11.629 6.547,-17.457 0.195,-0.516 0.578,-0.961 0.891,-1.465 2.984,0.715 4.844,2.738 7,4.473 -0.641,1.582 -1.106,3.082 -1.836,4.437 -1.207,2.239 -1.906,4.641 -2.629,7.047 -0.824,2.746 -1.707,5.481 -2.512,8.239 -0.398,1.371 -0.742,2.777 -0.996,4.183 -0.211,1.172 -0.332,2.383 0.543,3.766 0.805,0.203 1.82,0.601 2.859,0.672 4.176,0.304 8.356,0.492 12.54,0.742 1.667,0.097 3.332,0.273 5.003,0.351 4.418,0.2 8.774,1.075 13.247,0.766 3.449,-0.238 6.96,-0.152 10.394,0.238 2.883,0.336 5.715,0.258 8.578,0.141 3.141,-0.121 6.203,-0.496 8.668,-2.758 0.07,-0.062 0.235,-0.019 0.625,-0.035 0.485,0.773 1.125,1.637 1.574,2.574 0.774,1.625 1.489,3.274 2.121,4.949 1.774,4.715 4.606,8.52 8.731,11.543 6.18,4.532 11.812,9.743 17.504,14.879 4.347,3.922 8.746,7.789 13.14,11.664 0.536,0.473 1.137,0.887 1.731,1.285 3.652,2.5 7.316,4.985 10.973,7.477 0.296,0.199 0.586,0.512 0.906,0.559 0.68,0.097 1.484,0.277 2.039,0.011 0.738,-0.351 0.57,-1.254 0.355,-1.937 -0.211,-0.684 -0.554,-1.317 -0.859,-1.965 -1.074,-2.281 -2.09,-4.586 -3.242,-6.813 -2.043,-3.925 -4.113,-7.843 -6.278,-11.707 -2.222,-3.964 -4.57,-7.855 -6.859,-11.781 -2.414,-4.133 -4.676,-8.363 -7.266,-12.387 -3.445,-5.343 -6.492,-10.882 -9.418,-16.519 -3.582,-6.906 -7.269,-13.773 -11.312,-20.414 -4.25,-6.969 -8.254,-14.02 -11.176,-21.656 -0.418,-1.11 -1.043,-2.153 -1.687,-3.161 -4.645,-7.3 -8.153,-15.164 -11.621,-23.058 -0.817,-1.856 -1.704,-3.692 -2.668,-5.481 -1.352,-2.515 -2.825,-4.976 -4.219,-7.468 -1.02,-1.825 -1.192,-3.875 -1.094,-5.86 0.063,-1.355 0.793,-2.672 1.274,-4.14 0.753,0.152 1.429,0.351 2.121,0.414 1.886,0.164 3,1.261 3.765,2.886 0.813,1.735 1.703,3.426 2.543,5.141 0.317,0.649 0.903,1.332 0.844,1.953 -0.215,2.262 0.941,3.903 2.207,5.504 3.445,4.328 5.961,9.199 8.395,14.141 1.421,2.886 3.097,5.687 4.949,8.324 2.144,3.055 3.965,6.269 5.597,9.598 2.793,5.687 5.524,11.418 8.29,17.121 0.367,0.754 0.765,1.492 1.179,2.215 2.867,4.968 5.774,9.921 8.61,14.906 3.371,5.929 6.722,11.867 10.015,17.832 2.086,3.769 4.074,7.59 6.063,11.41 3.312,6.367 6.425,12.836 9.922,19.098 3.734,6.687 8.933,12.109 15.488,16.16 2.844,1.75 5.719,3.457 8.605,5.148 1.649,0.957 3.313,1.883 5.012,2.739 1.484,0.753 3.133,1.214 4.473,2.71 m -37.16,-9.968 c -0.446,0.843 -0.899,0.797 -1.313,0.504 -2.746,-1.922 -5.617,-3.7 -8.191,-5.829 -4.692,-3.89 -9.192,-8.007 -13.805,-12.003 -5.875,-5.09 -11.781,-10.161 -17.684,-15.231 -1.832,-1.57 -3.535,-3.234 -4.566,-5.469 -0.703,-1.515 -1.406,-3.031 -2.121,-4.539 -1.633,-3.449 -3.34,-6.863 -4.883,-10.355 -0.926,-2.094 -2.391,-3.512 -4.348,-4.586 -1.57,-0.867 -3.082,-1.844 -4.558,-2.859 -0.684,-0.473 -1.301,-1.133 -0.84,-2.118 0.375,-0.8 0.605,-1.66 0.062,-2.39 -0.554,-0.75 -1.222,-1.496 -2.015,-1.961 -2.156,-1.274 -4.406,-2.403 -6.621,-3.586 -4.75,-2.528 -9.508,-5.043 -14.254,-7.582 -1.758,-0.949 -3.281,-2.481 -5.586,-1.949 -0.387,0.086 -0.899,-0.278 -1.332,-0.485 -1.934,-0.926 -3.914,-1.789 -5.781,-2.844 -3.977,-2.238 -4.211,-2.875 -2.7,-7.171 0.754,-2.133 1.832,-4.172 2.496,-6.336 1.653,-5.368 3.153,-10.782 4.708,-16.176 0.128,-0.461 0.277,-0.922 0.339,-1.391 0.801,-5.347 2.539,-10.445 3.996,-15.617 0.176,-0.609 0.79,-1.09 1.286,-1.738 1.504,0.562 2.828,1.086 4.164,1.558 0.738,0.258 1.687,0.188 1.836,-0.57 0.281,-1.457 1.214,-1.898 2.41,-2.301 0.523,-0.168 1.156,-0.586 1.351,-1.054 0.692,-1.641 2.274,-1.993 3.664,-2.977 0.371,0.59 0.942,1.066 0.926,1.535 -0.047,1.574 0.738,2.68 1.637,3.852 1.16,1.508 2.312,3.078 3.156,4.769 2.461,4.922 4.817,9.895 7.106,14.899 1.652,3.593 3.574,7.027 5.66,10.386 1.066,1.715 1.871,3.594 2.777,5.407 2.457,4.91 4.387,10.09 7.367,14.75 2.258,3.523 4.504,7.078 6.516,10.746 2.984,5.449 5.719,11.039 8.641,16.527 1.91,3.59 3.902,7.137 5.968,10.633 3.106,5.254 6.469,10.355 9.422,15.691 3.371,6.071 6.766,12.114 10.309,18.082 1.886,3.168 3.273,6.625 4.801,9.778 M 265.23,423.996 c -0.714,-1.027 -1.187,-2.242 -1.179,-3.578 0.015,-1.738 -0.649,-3.258 -1.321,-4.789 -0.714,-1.645 -1.523,-3.27 -2.046,-4.973 -1.614,-5.246 -3.977,-10.285 -4.438,-15.847 -0.027,-0.36 -0.133,-0.704 -0.223,-1.055 -0.914,-3.598 -1.808,-7.191 -2.753,-10.777 -0.368,-1.379 -0.817,-2.747 -1.262,-4.11 -0.742,-2.273 -1.469,-4.547 -2.285,-6.797 -0.625,-1.738 -0.75,-3.484 -0.371,-5.492 1.851,-0.219 2.929,-1.633 3.945,-3.195 0.715,0.207 1.293,0.32 1.828,0.535 4.434,1.785 8.855,3.59 13.277,5.395 2.543,1.042 5.106,2.05 7.621,3.152 3.059,1.351 6.071,2.808 9.114,4.191 6.965,3.157 13.941,6.282 20.898,9.457 1.735,0.793 3.406,1.727 5.078,2.649 0.5,0.281 0.903,0.722 1.309,1.054 -1.527,4.817 -5.734,10.899 -10.059,14.504 -1.402,-1 -2.914,-1.957 -4.3,-3.074 -3.731,-2.996 -7.34,-6.148 -11.122,-9.082 -5.664,-4.402 -11.453,-8.641 -17.144,-13.012 -2.938,-2.25 -5.785,-4.625 -8.66,-6.961 -1.207,-0.976 -2.332,-2.046 -3.578,-2.968 -0.852,-0.621 -1.821,-1.118 -2.789,-1.547 -0.633,-0.285 -1.489,0.207 -1.743,0.89 -0.25,0.668 0.086,1.129 0.653,1.473 1.429,0.863 2.957,1.609 4.273,2.621 7.402,5.66 14.703,11.453 22.141,17.074 6.312,4.762 12.187,10.032 18.101,15.258 0.614,0.535 1.086,1.219 1.723,1.949 -3.227,3.274 -6.48,6.231 -10.402,8.391 -7.387,4.066 -15.274,6.797 -23.442,8.773 -0.215,0.047 -0.465,-0.054 -0.844,-0.109 m 271.93,-54.933 c -0.863,0.73 -1.625,1.48 -2.488,2.093 -5.063,3.625 -10.363,6.875 -15.852,9.817 -8.355,4.48 -16.164,9.754 -23.125,16.23 -0.429,0.406 -0.898,0.789 -1.324,1.207 -0.492,0.485 -0.555,1.078 -0.125,1.594 0.399,0.476 0.996,0.746 1.602,0.43 0.738,-0.383 1.48,-0.789 2.121,-1.309 2.222,-1.809 4.441,-3.633 6.597,-5.523 3.344,-2.942 7.063,-5.36 10.938,-7.485 7.035,-3.847 14.066,-7.676 20.668,-12.25 0.426,-0.293 1,-0.379 1.941,-0.719 -0.269,0.997 -0.359,1.555 -0.566,2.063 -0.992,2.434 -2.188,4.805 -2.988,7.301 -2.442,7.621 -5.532,15.047 -6.985,22.965 -0.34,1.843 -1.344,3.289 -2.617,4.543 -3.738,3.687 -7.523,7.335 -11.32,10.972 -0.582,0.559 -1.297,0.985 -2.055,1.547 -3.703,-2.668 -6.848,-5.754 -9.59,-9.238 -1.769,-2.258 -3.449,-4.586 -5.121,-6.918 -3.762,-5.266 -7.211,-10.672 -9.621,-16.746 -2.004,-5.039 -3.031,-10.309 -4.437,-15.492 -0.079,-0.29 0.125,-0.661 0.214,-1.059 2.688,-0.68 5.453,-1.074 7.973,-2.074 6.191,-2.449 12.754,-3.184 19.188,-4.426 7.628,-1.481 15.332,-2.555 23.007,-3.754 0.774,-0.129 1.586,0.023 2.422,0.047 0.543,2.172 1.028,4.125 1.543,6.184 m 106.438,20.75 c -0.555,1.363 -0.887,2.527 -1.473,3.55 -2.484,4.36 -4.945,8.742 -7.633,12.969 -1.137,1.797 -2.746,3.313 -4.277,4.809 -1.535,1.511 -3.332,2.746 -4.844,4.261 -3.785,3.797 -8.422,6.149 -13.211,8.231 -1.191,-1.676 -2.355,-3.289 -3.5,-4.926 -0.961,-1.367 -1.926,-2.734 -2.832,-4.141 -2.652,-4.109 -5.859,-7.851 -8.051,-12.265 -0.207,-0.418 -0.582,-0.758 -0.875,-1.133 -5.113,-6.625 -10.027,-13.387 -14.601,-20.395 -0.84,-1.289 -1.813,-2.519 -2.008,-4.257 3.047,-2.836 4.84,-6.731 7.973,-9.563 5.582,2.098 10.902,4.508 16.132,7.145 2.766,1.398 5.582,2.734 8.473,3.855 6.234,2.418 12.551,4.645 18.805,7.027 3.894,1.493 7.73,3.129 11.922,4.833 m -324.465,3.472 c -0.102,0.442 -0.09,0.715 -0.219,0.887 -3.633,5.051 -7.262,10.101 -10.937,15.121 -0.559,0.762 -1.332,1.367 -1.997,2.062 -3.183,3.321 -7.359,5.29 -11.011,7.989 -2.676,1.984 -5.531,3.855 -8.567,5.203 -5.129,2.273 -10.136,4.844 -15.531,6.531 -4.676,1.461 -9.285,3.141 -14.07,4.254 -3.297,0.777 -6.649,0.68 -9.992,0.836 -6.59,0.301 -13.172,0.23 -19.731,-0.285 -4.64,-0.363 -9.273,-1.219 -13.633,-2.903 -7.582,-2.933 -15.074,-6.093 -22.586,-9.222 -2.761,-1.153 -5.234,-2.809 -7.675,-4.57 -2.11,-1.524 -4.082,-3.274 -6.469,-4.434 -0.942,-0.453 -1.754,-1.234 -2.531,-1.969 -3.145,-2.965 -5.762,-6.336 -8.164,-9.949 -4.356,-6.574 -9.168,-12.848 -13.551,-19.402 -4.281,-6.403 -7.301,-13.485 -9.614,-20.789 -1.734,-5.477 -2.41,-11.176 -2.574,-16.977 -0.218,-8.035 -0.031,-16.031 0.813,-24.016 0.476,-4.543 1.398,-8.957 3.09,-13.238 1.605,-4.074 3.851,-7.656 6.808,-10.863 2.594,-2.813 5.25,-5.613 7.457,-8.719 3.574,-5.031 8.156,-9.059 12.52,-13.312 0.508,-0.493 1.152,-0.856 1.75,-1.25 5.254,-3.395 10.82,-6.114 16.883,-7.762 0.738,-0.199 1.488,-0.371 2.351,-0.582 -6.465,4.863 -12.871,9.484 -19.043,14.394 -4.203,3.352 -8.121,7.071 -12.074,10.719 -1.219,1.121 -2.18,2.535 -3.184,3.875 -2.761,3.649 -4.586,7.852 -6.648,11.891 -1.738,3.398 -3.117,6.976 -3.684,10.828 -0.5,3.43 -1.175,6.832 -1.832,10.238 -1.054,5.469 -0.793,10.981 -0.425,16.461 0.218,3.328 0.542,6.672 1.511,9.914 0.821,2.754 1.614,5.516 2.219,8.324 0.523,2.403 1.523,4.512 3.023,6.426 0.368,0.469 0.719,0.957 1.008,1.481 3.906,6.996 7.801,13.992 11.688,20.996 2.968,5.359 6.156,10.531 11.199,14.277 1.242,0.922 2.301,2.086 3.492,3.094 0.91,0.761 1.832,1.551 2.848,2.16 8.203,4.957 16.562,9.601 25.441,13.258 0.887,0.355 1.727,0.804 2.598,1.199 6.465,2.937 13.051,5.402 20.269,5.602 0.95,0.031 1.954,0.085 2.836,0.402 2.098,0.746 4.246,0.695 6.391,0.629 3.23,-0.098 6.473,-0.121 9.687,-0.418 5.723,-0.528 11.379,-1.332 16.715,-3.766 2.594,-1.176 5.391,-1.969 8.153,-2.726 11.683,-3.184 21.824,-9.016 30.449,-17.5 0.34,-0.332 0.664,-0.692 0.976,-1.047 3.504,-3.965 6.442,-8.324 9.094,-12.883 0.34,-0.598 0.727,-1.164 1.18,-1.883 1.23,0.535 2.277,0.977 3.293,1.414 m 271.793,-42.301 c 1.527,0 2.609,-0.129 3.648,0.024 7.606,1.094 15.254,0.765 22.883,0.5 6.707,-0.238 13.387,-0.051 20.039,0.664 4.754,0.512 9.484,1.215 14.274,1.187 0.316,0 0.628,0.219 1.003,0.368 0.086,0.511 0.204,0.972 0.239,1.433 0.371,4.719 -0.375,9.289 -1.77,13.781 -1.344,4.336 -2.609,8.696 -3.976,13.024 -0.571,1.801 -1.133,3.64 -2.621,5.203 -1.672,-0.66 -3.325,-1.316 -4.973,-1.965 -3.117,-1.219 -6.211,-2.484 -9.356,-3.625 -4.601,-1.66 -9.312,-3.051 -13.847,-4.887 -5.758,-2.328 -11.391,-4.964 -17.055,-7.519 -3.363,-1.508 -6.691,-3.109 -10.101,-4.703 0.445,-2.164 1.015,-4.235 1.265,-6.336 0.27,-2.231 0.235,-4.488 0.348,-7.149 m -74.617,93.954 c 0.242,-1.481 0.269,-2.708 0.668,-3.797 1.183,-3.254 2.238,-6.602 3.855,-9.641 2.871,-5.402 5.426,-10.906 7.395,-16.703 0.621,-1.824 1.113,-3.649 1.457,-5.535 0.808,-4.477 1.793,-8.907 3.273,-13.211 0.82,-2.383 1.816,-4.707 2.461,-7.125 1.781,-6.653 4.867,-12.719 8.062,-18.754 0.614,-1.164 1.208,-2.34 1.715,-3.559 2.067,-4.957 4.625,-9.722 6.227,-14.883 0.133,-0.429 0.453,-0.804 0.644,-1.144 4.563,0.016 10.047,1.824 13.09,4.262 0.153,3.746 -0.633,7.109 -2.586,10.25 -3.113,4.996 -5.293,10.422 -7.41,15.886 -0.734,1.887 -1.59,3.731 -2.344,5.61 -0.664,1.66 -1.289,3.332 -1.871,5.023 -1.433,4.184 -2.707,8.43 -4.265,12.563 -2.075,5.476 -4.321,10.894 -6.578,16.304 -0.875,2.086 -2.094,4.028 -2.981,6.106 -2.547,5.953 -4.152,12.207 -5.754,18.469 -0.34,1.339 -0.371,2.855 -1.648,4.14 -1.071,-0.129 -2.324,-0.039 -3.395,-0.437 -3.226,-1.196 -6.609,-2.004 -10.015,-3.824 m 61.589,-67.161 c 0.805,1.278 1.602,2.586 2.446,3.875 1.5,2.297 3.019,4.594 4.551,6.879 1.132,1.688 2.238,3.391 3.449,5.016 2.281,3.074 4.758,6.016 6.933,9.152 2.45,3.535 4.387,7.422 7.196,10.723 0.457,0.531 0.672,1.266 1.054,1.867 2.133,3.406 4.258,6.809 6.778,10.074 -0.848,1.172 -1.86,2.141 -3.082,2.938 -5.344,3.496 -11.11,6.054 -17.25,7.769 -3.563,1.004 -7.164,1.883 -10.75,2.797 -1.274,0.328 -2.555,0.68 -3.981,0.031 -0.742,-2.589 -1.25,-5.261 -1.398,-8.015 -0.321,-5.965 -0.781,-11.922 -1.614,-17.852 -0.496,-3.547 -0.917,-7.129 -1.039,-10.707 -0.222,-6.469 -0.882,-12.883 -1.929,-19.273 -0.11,-0.66 -0.016,-1.363 -0.016,-1.871 2.945,-1.16 5.699,-2.246 8.652,-3.403 M 165.734,291.664 c 0.184,-0.363 0.27,-0.734 0.5,-0.973 2.493,-2.586 4.985,-5.164 7.926,-7.265 3.02,-2.16 5.903,-4.5 8.903,-6.684 3.765,-2.738 7.406,-5.679 11.546,-7.883 1.446,-0.761 2.868,-1.531 4.239,-1.625 0.703,1.614 1.218,2.922 1.828,4.18 0.472,0.965 1.137,1.836 1.597,2.805 3.086,6.472 6.137,12.957 9.211,19.437 0.563,1.192 1.153,2.367 1.782,3.524 2.336,4.304 4.738,8.582 7.031,12.91 1.449,2.726 2.758,5.527 4.566,8.062 0.442,0.618 0.575,1.539 0.61,2.34 0.043,0.922 -0.754,1.469 -1.715,1.227 -0.688,-0.176 -1.27,-0.485 -2.047,-0.176 -0.477,0.18 -1.191,0.09 -1.672,-0.141 -4.758,-2.265 -9.273,-4.953 -13.668,-7.855 -1.594,-1.051 -3.141,-2.215 -4.844,-3.074 -4.902,-2.493 -9.906,-4.797 -14.812,-7.278 -6.086,-3.074 -12.125,-6.238 -18.16,-9.402 -1.024,-0.539 -2.176,-0.984 -2.821,-2.129 m -15.699,31.297 c -0.328,-2.758 0.176,-6.359 1.313,-9.117 2.238,-5.442 4.914,-10.649 8.023,-15.641 1.012,-1.621 2.078,-3.207 3.801,-4.344 2.137,1.114 4.266,2.196 6.363,3.344 9.02,4.949 18.289,9.418 27.563,13.887 2.359,1.14 4.672,2.426 6.89,3.82 4.852,3.055 9.442,6.539 14.774,8.785 0.187,0.078 0.281,0.368 0.418,0.563 -2.059,1.019 -2.157,0.98 -2.883,3.125 -0.418,1.254 -1.473,1.816 -2.195,2.719 -1.051,1.328 -2.219,1.535 -3.789,1.273 -3.895,-0.648 -7.801,-1.187 -11.719,-1.691 -2.727,-0.356 -5.555,-0.243 -8.18,-0.946 -3.738,-0.992 -7.527,-1.289 -11.328,-1.734 -0.949,-0.109 -1.906,-0.18 -2.844,-0.375 -8.336,-1.699 -16.75,-2.832 -25.242,-3.363 -0.336,-0.028 -0.66,-0.207 -0.965,-0.305 m 416.117,57.582 c 0.446,1.934 0.821,3.301 1.075,4.703 0.378,2.117 0.785,4.231 0.976,6.359 0.313,3.571 0.477,7.157 0.692,10.735 0.316,5.254 1.117,10.449 1.671,15.676 0.754,7.093 0.969,14.254 1.426,21.554 -0.801,0.055 -1.617,0.172 -2.429,0.153 -4.895,-0.098 -9.782,-0.469 -14.672,-0.625 -6.2,-0.2 -11.504,-2.7 -16.981,-5.371 0.156,-0.946 0.16,-1.801 0.445,-2.547 0.68,-1.778 1.383,-3.571 2.286,-5.25 1.812,-3.383 3.238,-6.918 4.445,-10.559 0.184,-0.562 0.379,-1.133 0.644,-1.664 2.684,-5.367 4.61,-11.023 6.43,-16.719 1.742,-5.461 3.617,-10.855 6.262,-16.211 1.183,-0.074 2.484,-0.187 3.789,-0.222 1.297,-0.043 2.598,-0.012 3.941,-0.012 m -65.304,-81.105 c 6.601,-8.868 17.023,-18.356 24.66,-20.754 0.515,0.582 1.121,1.164 1.605,1.843 0.832,1.164 1.645,2.344 2.36,3.586 2.621,4.567 5.183,9.157 7.789,13.731 2.672,4.695 4.687,9.668 6.441,14.765 1.914,5.551 4.293,10.891 6.961,16.114 0.203,0.39 0.246,0.871 0.348,1.246 -2.282,2.437 -5.188,3.586 -7.797,5.183 -1.777,-0.914 -3.024,-2.238 -4.16,-3.593 -4.508,-5.399 -10.059,-9.594 -15.84,-13.418 -7.621,-5.051 -14.613,-10.813 -21.098,-17.219 -0.41,-0.414 -0.762,-0.891 -1.269,-1.484 m -2.188,2.816 c 2.125,1.687 4.106,3.047 5.836,4.672 4.211,3.922 8.82,7.32 13.512,10.644 3.512,2.489 7.086,4.895 10.504,7.508 2.265,1.738 4.371,3.707 6.426,5.699 1.542,1.493 2.902,3.168 4.32,4.789 0.449,0.508 0.82,1.09 1.183,1.582 -1.589,2.461 -3.07,4.747 -4.429,6.852 -2.266,0.332 -4.106,-0.098 -5.949,-0.687 -1.59,-0.508 -3.204,-0.993 -4.848,-1.286 -5.883,-1.035 -11.781,-2.023 -17.688,-2.953 -2.949,-0.461 -5.961,-0.562 -8.879,-1.176 -4.554,-0.949 -9.054,-2.179 -13.562,-3.339 -0.66,-0.168 -1.25,-0.594 -1.949,-0.942 0.16,-0.82 0.246,-1.523 0.437,-2.199 2.149,-7.402 5.969,-14.07 9.281,-20.957 1.133,-2.356 2.754,-4.477 4.196,-6.672 0.308,-0.473 0.832,-0.805 1.609,-1.535 m 36.176,56.601 c -2.082,1.321 -4.145,1.418 -6.129,1.758 -3.891,0.66 -7.805,1.176 -11.676,1.914 -4.816,0.918 -9.586,2.082 -14.402,2.973 -3.645,0.68 -7.285,1.32 -10.832,2.426 -2.055,0.64 -4.168,1.09 -6.281,1.496 -1.391,0.266 -2.852,0.508 -4.098,-0.438 -2.691,-8.586 -3.313,-22.754 0.004,-30.086 0.293,-0.121 0.648,-0.21 0.941,-0.406 1.532,-1 3.012,-0.84 4.758,-0.359 3.793,1.039 7.649,1.984 11.539,2.515 7.586,1.028 15.203,1.868 22.699,3.454 2.797,0.601 5.559,1.378 8.336,2.086 1.157,0.296 2.313,0.593 3.45,0.945 0.535,0.164 1.027,0.457 1.605,0.722 -0.668,3.723 -0.562,7.278 0.086,11 m -321.527,-5.488 c -1.168,0.684 -2.414,1.211 -3.426,2.031 -3.766,3.055 -8.133,5.008 -12.485,6.977 -2.421,1.098 -4.683,2.379 -6.593,4.254 -1.641,1.605 -3.524,2.851 -5.61,3.816 -2.293,1.051 -4.406,2.368 -6.336,4.028 -1.164,1 -2.558,1.746 -3.918,2.492 -3.25,1.781 -6.578,3.426 -9.574,5.644 -0.531,0.399 -1.125,0.707 -1.777,1.114 -0.414,-0.606 -0.699,-0.977 -0.93,-1.379 -2.926,-5.078 -5.488,-10.364 -8.844,-15.196 -0.269,-0.386 -0.5,-0.812 -0.726,-1.238 -1.36,-2.558 -2.055,-5.308 -2.375,-8.039 0.941,-1.551 2.461,-1.726 3.812,-2.098 4.153,-1.121 8.313,-2.25 12.504,-3.195 6.532,-1.48 13.078,-2.887 19.793,-3.281 4.91,-0.285 9.711,-1.383 14.457,-2.531 3.282,-0.797 6.582,-1.203 9.895,-1.676 0.543,-0.078 1.121,0.121 2.129,0.242 -1.731,2.477 1.156,3.172 1.343,4.371 -0.523,1.438 -0.878,2.414 -1.339,3.664 m -0.934,-11.461 c -1.98,0.348 -3.391,0.555 -4.793,0.836 -2.457,0.492 -4.918,1.004 -7.359,1.567 -3.602,0.824 -7.184,1.742 -10.797,2.527 -1.153,0.258 -2.367,0.242 -3.555,0.328 -1.781,0.129 -3.605,0.031 -5.351,0.375 -7.735,1.524 -15.45,3.149 -23.165,4.774 -2.437,0.515 -4.847,1.144 -7.222,1.722 -1.43,-2.722 -1.653,-3.109 -2.106,-10.547 -0.339,-5.711 -0.609,-11.476 1.11,-17.101 3.176,-0.887 6.285,-0.485 9.351,-0.09 10.68,1.371 21.356,2.738 31.934,4.781 0.937,0.184 1.891,0.317 2.84,0.418 6.777,0.734 13.535,1.656 20.304,3.016 0.211,0.375 0.508,0.769 0.649,1.207 0.133,0.429 0.105,0.91 0.156,1.515 -2.113,0.77 -3.41,2.004 -1.996,4.672 m 328.402,26.164 c -1.527,-2.066 -2.199,-3.961 -1.91,-6.015 0.149,-1.024 0.196,-1.871 -0.453,-2.68 -1.043,-1.297 -1.113,-2.852 -1.246,-4.406 -0.406,-4.766 1.395,-8.895 3.68,-12.879 0.976,-1.699 2.312,-3.063 3.961,-4.094 2.629,-1.652 5.242,-3.336 7.949,-4.855 1.125,-0.629 2.449,-0.934 3.711,-1.286 1.035,-0.285 2.105,-0.429 3.168,-0.613 9.258,-1.601 17.008,1 23.051,8.313 0.914,1.109 1.777,2.258 2.628,3.414 1.602,2.176 2.539,4.578 2.434,7.344 -0.055,1.429 0.004,2.871 0.078,4.308 0.141,2.438 -0.437,4.746 -1.215,7.027 -1.476,4.301 -4.441,7.61 -7.343,10.957 -0.457,0.532 -1.075,0.977 -1.7,1.309 -1.898,1.012 -3.812,2.008 -5.773,2.895 -0.859,0.39 -1.836,0.675 -2.77,0.718 -2.5,0.098 -5.011,0.075 -7.515,0.02 -0.52,-0.008 -1.032,-0.359 -1.762,-0.625 1.391,-2.922 2.785,-5.567 3.918,-8.32 0.809,-1.969 2.09,-3.067 4.141,-3.493 2.711,-0.574 4.316,-2.492 5.328,-4.898 2.066,-4.902 0.89,-9.391 -2.106,-13.508 -0.593,-0.812 -1.574,-1.57 -2.527,-1.867 -2.441,-0.77 -4.941,-0.879 -7.324,0.398 -1.469,0.789 -2.957,1.543 -4.641,2.414 -1.094,-0.269 -2.363,-0.597 -3.644,-0.894 -1.965,-0.461 -2.864,-0.016 -3.5,1.937 -1.332,4.098 -2.864,8.114 -4.7,12.012 -1.113,2.363 -2.007,4.844 -3.918,7.367 m -303.242,0.508 c 0.844,0.129 1.192,0.176 1.539,0.227 1.887,0.297 3.742,0.586 5.453,-0.731 0.36,-0.265 1.098,-0.035 1.637,-0.035 0.195,0.449 0.41,0.758 0.473,1.106 0.64,3.789 1.933,7.371 3.351,10.921 0.532,1.325 0.95,2.707 1.266,4.094 1.098,4.774 2.195,9.543 3.152,14.348 0.543,2.715 1.543,5.254 2.367,7.875 1.434,4.558 2.707,9.152 4.536,13.586 0.711,1.726 1.41,3.535 1.367,5.621 -0.758,0.371 -1.465,0.848 -2.238,1.055 -4.043,1.097 -8.118,2.027 -12.329,2.25 -2.621,0.136 -5.242,0.351 -7.867,0.527 -2.148,0.141 -4.277,0.129 -6.375,-1.078 -0.031,-0.664 -0.105,-1.36 -0.09,-2.051 0.149,-6.105 0.989,-12.137 1.684,-18.188 0.246,-2.128 0.285,-4.289 0.234,-6.429 -0.074,-3.102 -0.297,-6.196 0.348,-9.289 0.363,-1.746 0.469,-3.559 0.555,-5.344 0.242,-5.137 0.402,-10.273 0.621,-15.414 0.035,-0.922 0.187,-1.844 0.316,-3.051 m -72.637,17.426 c 3.438,-2.121 6.61,-4.262 9.95,-6.094 2.843,-1.562 5.566,-3.25 8.035,-5.351 0.535,-0.461 1.211,-0.754 1.832,-1.114 3.098,-1.797 6.262,-3.461 8.949,-5.925 1.199,-1.106 2.785,-1.856 4.293,-2.547 4.777,-2.203 9.707,-4.082 13.957,-7.282 0.668,-0.503 1.32,-1.054 2.051,-1.449 0.582,-0.304 1.269,-0.402 1.875,-0.582 1.199,2.465 1.215,2.442 3.594,3.957 0.554,0.352 0.972,0.914 1.375,1.309 -0.157,0.461 -0.168,0.734 -0.313,0.898 -3.558,4.203 -7.016,8.489 -10.723,12.543 -3.25,3.547 -6.175,7.309 -8.91,11.25 -1.504,2.156 -3.109,4.242 -4.672,6.36 -0.925,1.25 -1.941,2.445 -2.773,3.746 -1.352,2.14 -2.949,4.054 -4.684,5.882 -1.796,1.891 -3.781,3.668 -4.613,6.293 -0.109,0.344 -0.652,0.551 -0.949,0.782 -10.305,-7.5 -14.094,-12.727 -18.274,-22.676 m 77.563,-37.899 c 2.816,0.989 5.414,1.84 7.973,2.813 3.574,1.352 7.129,2.754 10.664,4.207 5.644,2.316 11.672,3.496 17.281,5.965 3.504,1.547 7.043,2.965 10.34,4.949 2.66,1.602 5.414,2.988 8.398,3.988 3.395,1.129 6.66,2.637 9.719,4.571 1.406,0.894 2.937,1.597 4.465,2.281 2.613,1.176 5.301,2.187 7.894,3.414 2.594,1.219 5.34,2.297 7.59,4 2.235,1.691 4.633,2.926 7.09,4.125 1.719,0.836 3.531,1.477 5.246,2.332 4.051,2.016 7.981,4.211 11.422,7.246 2.586,2.285 5.305,4.469 8.176,6.387 4.168,2.781 8.531,5.273 12.801,7.902 0.293,0.184 0.527,0.469 0.941,0.844 -0.481,1.512 -0.699,3.152 -2.168,4.426 -0.816,-0.344 -1.594,-0.614 -2.309,-0.992 -1.89,-1.012 -3.718,-2.149 -5.64,-3.106 -2.688,-1.328 -5.297,-2.738 -7.633,-4.66 -1.184,-0.977 -2.602,-1.707 -3.965,-2.438 -6.535,-3.5 -13.191,-6.773 -19.473,-10.738 -1.109,-0.699 -2.32,-1.238 -3.515,-1.777 -3.262,-1.492 -6.602,-2.824 -9.805,-4.434 -4.594,-2.297 -9.07,-4.836 -13.644,-7.176 -2.231,-1.14 -4.579,-2.058 -6.868,-3.086 -2.503,-1.128 -4.992,-2.293 -7.503,-3.402 -4.047,-1.789 -8.106,-3.547 -12.165,-5.312 -2.406,-1.047 -4.808,-2.118 -7.222,-3.141 -3.742,-1.574 -7.52,-3.078 -11.246,-4.688 -3.617,-1.554 -7.141,-3.371 -10.825,-4.753 -2.718,-1.016 -5.246,-2.309 -7.628,-3.914 -0.547,-0.372 -0.918,-0.989 -1.352,-1.473 0.98,-1.445 1.848,-2.719 2.961,-4.36 m 17.602,3.063 c 1.664,-0.27 2.937,-0.504 4.214,-0.688 2.489,-0.332 5.012,-0.484 7.461,-0.992 4.34,-0.906 8.723,-1.457 13.129,-1.883 2.852,-0.277 5.707,-0.617 8.551,-0.992 5.926,-0.777 11.848,-1.59 17.836,-1.636 3.59,-0.032 7.18,-0.094 10.766,-0.129 0.816,-0.004 1.628,0.043 2.539,0.066 -0.098,1.129 -0.325,2.055 -0.235,2.945 0.371,3.633 -0.285,7.145 -1.035,10.668 -0.816,3.848 -1.48,7.743 -2.301,11.598 -0.367,1.746 -0.914,3.461 -1.461,5.16 -0.164,0.508 -0.605,0.934 -0.957,1.449 -4.304,-1.625 -8.414,-3.175 -12.316,-5.289 -2.727,-1.472 -5.645,-2.574 -8.481,-3.847 -1.847,-0.825 -3.738,-1.582 -5.543,-2.5 -2.882,-1.45 -5.632,-3.176 -8.578,-4.469 -6.57,-2.879 -13.363,-5.156 -20.195,-7.328 -1.102,-0.348 -2.379,-0.473 -3.394,-2.133 m -53.52,69.754 c -5.719,-2.051 -17.238,-8.231 -20.422,-10.922 1.234,-1.867 2.406,-3.781 3.727,-5.59 1.761,-2.414 3.66,-4.726 5.461,-7.109 2.457,-3.25 4.961,-6.465 7.281,-9.805 2.664,-3.84 5.351,-7.641 8.68,-10.957 0.847,-0.844 1.593,-1.789 2.363,-2.703 2.461,-2.934 4.906,-5.875 7.359,-8.816 0.231,-0.274 0.481,-0.54 0.723,-0.805 0.633,-0.719 1.476,-0.875 2.293,-0.57 0.754,0.285 1.441,0.781 2.097,1.273 0.833,0.617 1.598,1.328 2.606,2.176 -5.586,18.457 -12.523,36.578 -22.168,53.828 m 35.633,-78.777 c 1.25,-0.274 2.398,-0.723 3.547,-0.735 2.765,-0.035 5.461,-0.496 8.183,-0.914 7.215,-1.098 14.453,-2.074 21.782,-2.086 0.945,0 1.894,-0.226 2.839,-0.383 3.657,-0.617 7.289,-1.523 10.969,-1.808 6.442,-0.508 12.805,-1.653 19.262,-1.946 4.898,-0.222 9.773,-0.855 14.672,-1.003 6.582,-0.196 13.164,-0.106 19.75,-0.122 0.574,0 1.148,0.172 1.554,0.235 0.446,1.203 0.954,2.152 1.129,3.164 0.184,1.031 0.039,2.109 0.039,3.039 -0.933,0.855 -1.718,1.562 -2.457,2.238 -3.578,0.121 -7.054,0.496 -10.507,0.313 -8.872,-0.477 -17.696,0.203 -26.536,0.515 -2.625,0.098 -5.226,0.567 -7.843,0.821 -5.836,0.558 -11.684,1 -17.508,1.656 -3.199,0.355 -6.367,1.043 -9.547,1.562 -4.852,0.793 -9.707,1.375 -14.649,1.106 -1.769,-0.106 -3.558,0.223 -5.335,0.308 -0.579,0.028 -1.192,0.012 -1.739,-0.152 -1.488,-0.457 -2.941,-1.012 -4.422,-1.484 -1.867,-0.602 -3.152,-1.656 -3.183,-4.324 m -7.813,26.183 c 0.086,0.438 0.223,0.777 0.215,1.129 -0.109,8.375 0.094,16.766 -1.336,25.078 -0.238,1.399 -0.172,2.856 -0.183,4.293 -0.028,3.231 0.222,6.481 -0.063,9.695 -0.508,5.711 -1.308,11.403 -2.039,17.098 -0.113,0.895 -0.527,1.758 -0.785,2.582 -2.668,0.328 -5.008,-0.086 -7.297,-0.824 -2.395,-0.77 -4.824,-1.449 -7.117,-2.449 -2.145,-0.934 -4.59,-1.328 -6.406,-3.106 0.312,-1.902 1.265,-3.437 2.039,-5.039 2.867,-5.922 5.961,-11.742 8.578,-17.777 2.703,-6.25 4.996,-12.684 7.383,-19.067 1.25,-3.359 2.304,-6.793 3.492,-10.175 0.269,-0.77 0.722,-1.473 1.101,-2.231 0.489,0.094 0.832,0.121 1.149,0.238 0.437,0.153 0.855,0.375 1.269,0.555 m 110.879,175.926 c 0.246,1.633 -0.965,2.16 -2.027,2.625 -3.188,1.414 -6.52,2.516 -10.043,2.324 -5.246,-0.297 -10.481,-0.836 -15.719,-1.281 -0.234,-0.016 -0.465,-0.102 -0.703,-0.137 -5.059,-0.91 -10.133,-1.777 -15.176,-2.754 -1.332,-0.261 -2.578,-0.293 -3.89,0.032 -2.434,0.597 -4.875,1.164 -7.329,1.679 -3.515,0.738 -6.96,1.672 -10.238,3.184 -2.488,1.144 -4.605,0.703 -6.488,-1.203 -2.359,-2.387 -2.379,-5.36 -1.965,-8.348 0.441,-3.203 2.441,-5.062 5.559,-5.816 4.539,-1.094 9.14,-1.856 13.765,-2.43 2.242,-0.277 4.535,-0.254 6.805,-0.254 1.949,0 3.762,0.563 5.387,1.703 3.039,2.121 6.215,3.953 9.746,5.207 2.597,0.922 5.176,1.832 7.898,2.274 2.828,0.449 5.656,0.961 8.5,1.293 4.031,0.476 8.078,0.793 12.121,1.23 1.278,0.133 2.629,-0.008 3.797,0.672 M 493.258,301.973 c 0.125,0.093 0.246,0.191 0.371,0.289 -0.324,0.722 -0.602,1.472 -0.981,2.16 -0.703,1.254 -1.566,2.422 -2.175,3.715 -3.75,7.883 -7.688,15.691 -10.407,24.019 -1.445,4.442 -2.859,8.879 -3.468,13.535 -0.758,5.774 -0.043,11.469 0.621,17.184 0.156,1.301 0.375,2.605 0.687,3.879 0.969,3.953 1.977,7.887 3.02,11.816 0.73,2.766 1.344,5.59 2.367,8.25 1.977,5.133 4.23,10.145 7.187,14.801 1.086,1.711 2.25,3.379 3.45,5.016 1.265,1.734 2.785,3.304 3.898,5.136 1.949,3.211 4.434,5.915 7.145,8.461 1.129,1.063 2.125,2.336 3.406,3.157 3.121,1.988 6.383,3.757 9.574,5.636 0.176,0.098 0.266,0.344 0.527,0.703 -0.515,0.801 -1.07,1.661 -1.64,2.551 -0.777,-0.312 -1.363,-0.472 -1.875,-0.761 -3.012,-1.723 -6.141,-3.274 -8.961,-5.278 -3.82,-2.703 -7.266,-5.844 -9.508,-10.109 -0.824,-1.582 -1.879,-3.063 -2.965,-4.492 -2.027,-2.668 -3.883,-5.453 -5.574,-8.344 -2.836,-4.859 -5.781,-9.649 -8.598,-14.516 -1.5,-2.601 -2.531,-5.402 -3.144,-8.367 -0.781,-3.746 -1.715,-7.465 -2.543,-11.199 -0.203,-0.926 -0.356,-1.879 -0.375,-2.832 -0.082,-4.195 0.402,-8.336 1.144,-12.469 0.582,-3.293 0.997,-6.617 0.965,-9.992 -0.051,-6.016 0.629,-11.945 2.461,-17.711 0.254,-0.797 0.434,-1.617 0.586,-2.438 0.426,-2.261 1.145,-4.433 2.406,-6.347 1.704,-2.598 3.481,-5.149 5.36,-7.629 1.73,-2.285 3.617,-4.461 5.48,-6.637 0.41,-0.484 1.031,-0.801 1.559,-1.187 M 395.559,440.25 c -13.641,0.992 -27.157,-0.426 -40.684,-1.273 -1.164,-0.075 -2.418,0.144 -3.477,-0.692 -0.578,-1.152 -0.285,-2.32 0.043,-3.469 0.754,-2.64 1.68,-5.238 2.289,-7.91 0.774,-3.414 2.165,-6.586 3.504,-9.773 0.301,-0.711 0.903,-1.293 1.395,-1.977 4.019,1.746 7.801,3.453 11.062,6.098 -0.187,0.512 -0.312,0.836 -0.433,1.176 -0.977,2.769 0.062,5.496 2.629,6.883 3.367,1.824 6.734,3.632 10.093,5.46 2.204,1.196 4.383,2.438 6.59,3.622 1.379,0.738 2.703,1.386 4.352,0.359 1.043,-0.656 1.387,-0.328 2.637,1.496 m -46.063,-87.816 c -1.398,0.75 -2.168,1.66 -2.211,3.183 -0.055,1.789 -0.426,3.559 -0.57,5.34 -0.41,4.918 -1.582,9.664 -3.094,14.332 -0.844,2.613 -1.742,5.211 -2.66,7.793 -0.512,1.438 -0.926,2.922 -1.996,4.141 -3.637,-0.996 -6.844,-2.414 -9.074,-5.864 0.3,-0.843 0.652,-1.843 1,-2.843 1.254,-3.606 2.886,-7.098 3.437,-10.914 0.844,-5.922 1.223,-11.875 1.152,-17.86 -0.023,-1.547 -0.023,-3.082 0.836,-4.664 3.27,-0.164 6.551,-0.328 10.047,-0.496 -0.425,1.59 -0.066,2.727 1.301,3.453 0.266,0.149 0.387,0.567 0.535,0.797 -0.285,0.828 -0.543,1.582 -0.812,2.375 0.683,0.395 1.191,0.691 2.109,1.227 m -46.875,176.75 c -0.047,-0.438 -0.156,-0.704 -0.082,-0.899 1.324,-3.461 2.656,-6.918 4.016,-10.367 0.918,-2.336 1.914,-4.641 2.785,-6.984 1.715,-4.598 2.801,-9.411 4.988,-13.836 0.902,-1.821 1.582,-3.746 2.391,-5.61 2.09,-4.84 4.179,-9.672 6.304,-14.492 0.481,-1.078 0.895,-2.234 2.184,-3.012 1.141,0.133 2.426,0.243 3.59,1.27 -0.086,0.566 -0.086,1.168 -0.274,1.699 -6.425,18.41 -12.867,36.805 -19.324,55.195 -0.105,0.301 -0.469,0.512 -0.859,0.926 -2.141,-1.047 -3.875,-2.668 -5.719,-3.89 m -69.18,-207.477 c 2.145,2.383 2.18,2.59 4.782,2.152 2.293,-0.394 4.468,0.641 6.617,0 1.406,2.485 1.406,2.485 3.828,2.582 0.453,1.036 0.453,2.372 1.906,2.793 0.297,0.086 0.524,0.758 0.602,1.192 0.191,1.09 0.832,1.625 1.84,1.953 1.363,0.441 1.789,1.726 2.429,2.742 -0.386,0.789 -0.703,1.426 -0.996,2.027 -1.351,0.454 -2.613,0.672 -3.941,0.262 -0.426,-0.746 -0.817,-1.488 -1.25,-2.195 -1.028,-1.68 -2.418,-2.953 -4.215,-3.785 -4.063,-1.86 -8.305,-2.981 -12.797,-3.114 -3.746,-0.117 -6.426,1.582 -8.18,4.782 -0.972,1.785 -1.8,3.644 -2.652,5.488 -0.246,0.539 -0.41,1.129 -0.508,1.711 -0.926,5.359 0.239,10.269 3.567,14.531 2.511,3.215 5.898,5.18 10.011,5.723 1.067,0.14 2.149,0.172 3.219,0.304 2.418,0.297 4.707,-0.078 6.766,-1.351 1.558,0.73 3.222,1.012 4.527,2.266 -1.758,1.566 -3.433,2.933 -5.566,3.492 -2.219,0.578 -4.121,-0.508 -5.703,-1.516 -1.286,0.426 -2.282,0.75 -3.313,1.094 -0.625,-0.785 -1.137,-1.438 -1.66,-2.082 -1.352,-1.668 -1.566,-1.703 -3.555,-0.723 -0.312,0.153 -0.648,0.25 -1.222,0.461 -2.192,-1.652 -3.985,-4.008 -6.653,-5.172 -0.179,-0.078 -0.265,-0.379 -0.41,-0.566 -0.781,-1.039 -1.57,-2.07 -2.441,-3.215 1.183,-1.297 1.547,-2.668 0.289,-4.121 -0.438,-0.512 -0.43,-1.106 -0.028,-1.645 0.704,-0.945 0.387,-1.843 -0.171,-2.656 -0.817,-1.176 -1.735,-2.285 -2.567,-3.457 -0.183,-0.254 -0.183,-0.637 -0.269,-0.969 0.82,-0.55 1.582,-1.062 2.492,-1.679 -0.489,-1.813 -0.946,-3.516 -1.383,-5.149 1.57,-1.715 1.57,-1.715 2.562,-5.117 l 2.477,0 c 0.578,-1.035 1.145,-2.066 1.684,-3.043 0.316,-0.066 0.578,-0.219 0.769,-0.152 1.879,0.633 2.934,-0.242 3.664,-1.879 0.281,-0.625 0.731,-1.176 1.328,-2.098 1.36,1.606 2.696,0.809 4.121,0.129 m 137.516,38.063 c 0.305,1.418 -0.074,2.66 -0.406,3.933 -0.696,2.656 -1.305,5.332 -1.961,7.996 -0.57,2.313 -1.125,4.633 -1.746,6.934 -0.938,3.461 -1.844,6.93 -2.918,10.347 -1.067,3.407 -2.301,6.774 -3.512,10.137 -0.277,0.781 -0.687,1.547 -1.832,1.602 -2.102,-1.778 -4.73,-3.043 -6.586,-5.313 0.098,-0.551 0.184,-1.011 0.254,-1.476 0.93,-5.926 2.859,-11.582 4.668,-17.27 1.484,-4.664 3.215,-9.25 4.879,-13.851 0.609,-1.688 1.324,-3.332 2.859,-4.2 2.141,0.395 4.086,0.754 6.301,1.161 m 11.293,-30.868 c -0.238,-0.199 -0.488,-0.308 -0.59,-0.496 -1.648,-3.066 -4.398,-4.203 -7.68,-4.519 -4.656,-0.453 -9.046,0.613 -13.253,2.445 -2.481,1.074 -4.411,2.867 -5.344,5.516 -0.742,2.14 -1.695,4.25 -2.098,6.457 -0.941,5.191 1.028,9.386 5.074,12.633 0.625,0.496 1.489,0.753 2.282,0.968 1.265,0.34 2.566,0.539 3.851,0.805 4.117,0.863 8.125,0.457 11.836,-1.504 1.555,-0.816 2.961,-2.035 4.203,-3.297 1.703,-1.746 1.871,-4.055 1.692,-6.367 2.332,-0.891 2.332,-0.891 4.468,-0.703 0.555,1.019 1.102,2.031 1.696,3.125 -0.438,0.375 -0.774,0.699 -1.149,0.98 -0.711,0.535 -1.191,1.141 -1.054,2.118 0.062,0.449 0.148,1.195 -0.075,1.339 -1.191,0.758 -1.187,2.559 -2.257,3.043 -2.239,1.012 -3.399,3.219 -5.442,4.364 -0.23,-0.036 -0.515,0 -0.687,-0.121 -1.227,-0.868 -2.465,-1.333 -4.012,-0.793 -0.641,0.218 -1.43,-0.036 -2.137,0.046 -0.566,0.071 -1.242,0.164 -1.636,0.52 -1.54,1.367 -3.02,1.09 -4.59,0.105 -0.493,-0.312 -1.09,-0.648 -1.641,-0.648 -0.797,-0.004 -1.598,0.285 -2.297,0.43 -1.242,-0.598 -2.047,-2.121 -3.558,-1.489 -1.75,0.719 -2.918,-0.48 -3.629,-1.437 -0.657,-0.879 -1.571,-0.953 -2.282,-1.625 0.192,-1.086 0.747,-2.227 -0.226,-3.317 -0.246,-0.281 -0.246,-0.91 -0.156,-1.335 0.195,-0.922 -0.106,-1.653 -0.672,-2.309 -0.508,-0.574 -0.649,-1.195 -0.61,-1.973 0.028,-0.672 -0.273,-1.363 -0.363,-2.054 -0.117,-0.922 -0.496,-1.989 -0.184,-2.762 0.743,-1.867 0.708,-3.949 1.762,-5.731 0.528,-0.89 0.555,-2.023 1.77,-2.515 0.379,-0.153 0.578,-0.965 0.687,-1.512 0.117,-0.562 0.028,-1.164 0.028,-1.91 2.398,-0.188 3.453,-1.934 4.39,-3.766 1.645,0.285 3.055,0.36 4,-1.136 0.203,-0.309 0.852,-0.59 1.207,-0.504 1.352,0.32 2.281,-0.438 3.309,-1.028 0.293,-0.168 0.668,-0.191 0.937,-0.257 0.864,0.542 1.653,1.046 2.457,1.554 0.946,-0.441 1.786,-0.828 2.321,-1.078 1.371,0.395 2.386,0.719 3.422,0.984 1.351,0.356 2.703,0.793 4.082,0.977 1.687,0.219 1.961,1.914 3.082,2.75 0.992,0.742 1.902,1.68 3.171,2.227 -0.082,0.804 -0.152,1.496 -0.226,2.187 -1.324,0.645 -2.617,0.699 -3.879,0.613 m 8.469,106.715 c -6.305,-2.738 -12.121,-5.961 -17.848,-9.402 -0.043,-2.219 -0.598,-4.336 0.313,-6.442 0.882,-2.043 1.41,-4.261 2.992,-6.218 1.219,0.57 2.297,1.047 3.344,1.578 1.39,0.703 2.726,1.512 4.14,2.156 4.371,1.973 8.578,4.238 12.598,6.852 0.562,0.371 1.062,0.832 1.715,1.339 -2.512,3.45 -4.618,6.899 -7.254,10.137 m 97.605,89.934 c -0.035,2.176 -1.043,3.855 -1.582,5.664 -0.59,1.965 -0.344,2.551 1.504,3.277 2.223,0.867 4.492,1.637 6.637,2.676 3.98,1.926 7.89,4.008 11.816,6.039 0.938,0.488 1.832,1.059 3.035,1.758 -2.144,1.582 -4.027,2.969 -6.011,4.43 -2.387,-1.071 -4.762,-2.188 -7.172,-3.219 -5.164,-2.207 -10.137,-4.863 -15.469,-6.688 -1.113,-0.375 -2.144,-1.054 -3.152,-1.691 -0.985,-0.617 -1.2,-1.32 -0.891,-2.461 0.152,-0.582 0.383,-1.141 0.613,-1.688 1.426,-3.421 2.864,-6.835 4.321,-10.246 0.074,-0.175 0.363,-0.257 0.769,-0.527 1.688,0.813 3.492,1.676 5.582,2.676 M 342.402,388.703 c 0.063,-0.601 0.02,-1.098 0.168,-1.527 0.817,-2.371 1.602,-4.762 2.535,-7.09 1.825,-4.566 3.192,-9.266 4.071,-14.09 0.558,-3.051 0.777,-6.16 1.191,-9.234 0.071,-0.535 -0.062,-1.242 0.809,-1.516 0.367,0.399 0.726,1.152 1.144,1.184 1.871,0.148 3.469,1.668 5.465,1.09 1.02,-0.29 1.863,-0.102 2.383,0.789 -0.59,1.636 -1.176,3.175 -1.707,4.742 -1.465,4.293 -2.934,8.586 -4.356,12.89 -0.824,2.489 -1.648,4.989 -2.316,7.516 -0.644,2.422 -1.035,4.898 -1.656,7.32 -0.188,0.731 -0.18,1.696 -1.352,2.153 -1.965,-1.305 -4.027,-2.676 -6.379,-4.227 m 36.786,-47.055 c -0.602,3.594 -2.333,5.59 -5.188,6.856 -3.645,1.617 -7.371,1.687 -11.23,1.199 -2.231,-0.277 -3.782,-1.355 -4.883,-3.191 -1.543,-2.567 -2.285,-5.254 -1.188,-8.211 0.328,-0.899 0.629,-1.809 0.864,-2.735 1,-3.886 3.679,-6.062 7.367,-7.082 1.949,-0.539 3.972,-0.886 5.98,-1.097 1.41,-0.145 2.867,0.008 4.285,0.168 1.192,0.136 2.301,0.57 2.809,1.855 -1.492,1.11 -3.242,0.762 -4.875,0.965 -1.762,0.227 -3.527,0.402 -5.184,0.582 -2.648,4.141 -2.648,4.141 -2.582,7.336 0.078,3.863 2.836,5.828 6.465,4.598 2.254,-0.766 4.559,-1.2 7.36,-1.243 m -139.723,15.407 c -0.383,0.519 -0.438,0.683 -0.512,0.687 -4.648,0.488 -8.805,-0.422 -11.906,-4.254 -2.883,-3.57 -3.926,-7.718 -3.02,-12.125 0.571,-2.797 2.09,-5.343 3.832,-7.644 1.071,-1.403 2.621,-2.071 4.407,-2.047 3.988,0.062 7.859,0.766 11.468,2.527 0.938,0.461 1.793,1.196 2.496,1.981 0.375,0.41 0.352,1.191 0.5,1.781 -2.601,0.527 -4.933,1.012 -7.269,1.48 -0.469,0.09 -0.969,0.243 -1.418,0.164 -2.574,-0.472 -4.629,0.739 -6.887,1.981 -0.347,1.176 -0.758,2.418 -1.066,3.68 -0.516,2.125 0.023,4.097 1.273,5.781 0.758,1.027 1.84,1.859 2.899,2.617 1.636,1.176 3.379,2.215 5.203,3.391 m 275.316,124.496 c -3.328,-0.656 -3.801,-0.848 -5.879,-2.305 -0.339,-2.754 1.121,-5.066 1.879,-7.547 0.762,-2.511 1.59,-5.004 2.489,-7.469 0.89,-2.46 1.726,-4.972 2.91,-7.3 1.168,-2.293 1.168,-5.086 2.972,-7.18 2.098,0.395 4.028,0.781 5.762,2.121 -0.516,1.492 -0.957,2.844 -1.453,4.18 -0.336,0.89 -0.824,1.734 -1.109,2.637 -0.739,2.386 -1.348,4.82 -2.122,7.195 -1.472,4.535 -3.019,9.055 -4.55,13.57 -0.227,0.656 -0.547,1.281 -0.899,2.098 M 322.082,378.055 c 0.492,-1.871 1.176,-3.688 1.406,-5.547 0.571,-4.641 1.84,-9.129 2.672,-13.707 0.828,-4.508 1.938,-9.024 0.504,-13.758 2.008,-0.172 3.75,-0.406 5.5,0.156 0.211,1.918 0.52,3.68 0.566,5.453 0.051,1.782 -0.164,3.571 -0.25,5.352 -0.035,0.723 -0.023,1.437 -0.039,2.152 -0.156,6.504 -1.332,12.805 -3.921,18.801 -0.461,1.063 -0.731,2.305 -2.04,2.996 -1.589,-0.109 -3.117,-0.605 -4.398,-1.898 m 47.094,-37.379 c -1.328,-2.024 -0.906,-3.68 0.023,-5.27 0.207,-0.355 0.731,-0.64 1.156,-0.738 1.86,-0.441 3.715,-0.934 5.602,-1.164 5.551,-0.668 11.063,-1.684 16.652,-2.109 3.801,-0.286 7.579,-0.903 11.364,-1.375 0.605,-0.075 1.312,-0.129 1.539,0.527 0.168,0.496 0.121,1.18 -0.086,1.68 -0.485,1.156 -1.383,1.89 -2.68,2.113 -1.644,0.281 -3.273,0.656 -4.914,0.933 -4.93,0.852 -9.805,1.973 -14.816,2.379 -4.633,0.375 -9.254,0.946 -13.84,3.024 m 132.972,146.531 c 0.239,-0.785 0.442,-1.453 0.641,-2.121 0.145,-0.449 0.262,-0.914 0.453,-1.348 0.504,-1.156 1.254,-1.625 2.567,-1.34 3.117,0.68 6.211,1.461 9.125,3.043 -0.207,2.004 -0.797,3.754 -1.762,5.356 -1.168,0.574 -2.324,0.898 -3.5,0.461 -2.652,-0.981 -5.133,-2.309 -7.524,-4.051 M 395.426,435.086 c 1.133,-1.699 1.601,-3.508 3.363,-4.531 2.934,1.359 5.438,3.394 8.129,5.129 0.406,0.261 0.758,1.027 0.703,1.515 -0.207,2.098 -2.504,3.895 -4.348,3.172 -2.867,-1.117 -5.671,-2.469 -7.847,-5.285 m 105.793,59.941 c -3.192,-1.308 -6.633,-1.73 -8.571,-4.976 0.274,-0.824 0.493,-1.617 0.797,-2.375 1.266,-3.192 1.446,-3.262 4.676,-2.039 0.203,0.078 0.344,0.308 0.68,0.625 -0.125,2.636 1.437,4.129 3.996,4.894 0.703,0.211 1.289,0.813 1.937,1.235 -0.289,0.402 -0.386,0.656 -0.57,0.777 -0.887,0.582 -1.793,1.133 -2.945,1.859 M 416.527,328.605 c 0,1.461 0.032,2.645 -0.011,3.821 -0.028,0.711 -0.141,1.426 -0.274,2.121 -0.144,0.766 -0.629,1.242 -1.394,1.457 -1.848,0.516 -4.461,0.355 -6.715,-0.481 0.344,-1.109 0.785,-2.207 1.008,-3.347 0.222,-1.125 0.214,-2.289 0.32,-3.571 l 7.066,0 z m 95.071,229.723 c -2.25,-1.105 -4.532,-0.285 -6.52,-1.543 0.106,-1.281 0.137,-2.465 0.32,-3.625 0.09,-0.551 0.332,-1.207 0.727,-1.562 0.875,-0.793 1.84,-1.508 2.859,-2.098 0.977,-0.559 1.914,-1.383 3.368,-1.23 0.382,3.308 0.281,6.437 -0.754,10.058 m 3.336,-134.297 c 2.382,-3.226 5.906,-5.152 8.543,-7.984 0.175,-0.188 0.589,-0.164 1.191,-0.309 -1.098,4.133 -2.695,7.742 -4.859,11.18 -1.911,-0.648 -3.52,-1.293 -4.875,-2.887 m 48.199,-75.066 c 3.066,-1.902 5.18,-1.461 6.562,1.265 0.328,0.637 0.539,1.329 0.825,1.985 1.293,2.941 0.566,5.601 -1.122,8.117 -0.226,0.336 -0.71,0.496 -1.367,0.934 -0.066,-0.782 -0.183,-1.219 -0.129,-1.637 0.196,-1.418 0.442,-2.832 0.68,-4.242 0.324,-1.985 -0.125,-3.461 -2.184,-4.34 -1.136,-0.488 -2.363,-1.039 -3.265,-2.082 m -58.754,215.863 c 0.648,-4.476 2.465,-4.816 5.855,-3.629 0.106,0.039 0.196,0.129 0.34,0.227 0.879,1.406 0.438,2.765 -0.476,3.929 -0.836,1.055 -2.125,0.989 -3.332,0.797 -0.95,-0.144 -1.868,-0.418 -2.387,-1.324 M 234.328,349.676 c -0.34,-0.656 -0.894,-1.25 -0.945,-1.887 -0.192,-2.461 0.582,-4.656 3.605,-4.5 1.629,0.094 2.485,1.297 2.137,2.941 -0.508,2.364 -2.102,3.293 -4.797,3.446" /></g></g></svg>