<?xml version="1.0" encoding="utf-8"?>
<!-- Generator: Adobe Illustrator 18.1.0, SVG Export Plug-In . SVG Version: 6.00 Build 0)  -->
<!DOCTYPE svg PUBLIC "-//W3C//DTD SVG 1.1//EN" "http://www.w3.org/Graphics/SVG/1.1/DTD/svg11.dtd">
<svg version="1.1" id="Logo" xmlns="http://www.w3.org/2000/svg" xmlns:xlink="http://www.w3.org/1999/xlink" x="0px" y="0px"
	 viewBox="0 0 150 130" enable-background="new 0 0 150 130" xml:space="preserve">
<path id="e" fill="#0c0c0c" d="M136.3,76.5c0.5,0,1,0,1.5,0c3.5-0.2,6.5-1.5,8.9-3.7c1.6-1.5,2.3-3,2.2-3.4c0-0.4-1.4-1.5-2-1.6
	c-0.3,0-0.6,0.3-0.9,0.6c-0.1,0.1-0.2,0.3-0.4,0.4c-2.2,2.1-4.8,3.3-7.5,3.5c-0.2,0-0.5,0-0.7,0c-2.8-0.1-4.9-1.9-5.8-4.8l-0.1-0.2
	l0.2,0c10.4-0.8,13.9-7.2,13.7-11c-0.3-4.9-4.5-6.8-8-6.9c-0.4,0-0.9,0-1.3,0c-3.6,0.2-6.8,2-9,4.9c-2.2,2.9-3.3,6.9-3.1,11
	C124.5,70.2,127.9,76.2,136.3,76.5z M131.2,63.2c0.2-4.1,1.4-6.5,2.4-7.8c1.1-1.5,2.5-2.3,3.7-2.3c0.9,0,1.6,0.3,2,1
	c0.7,1.1,0.5,2.8-0.1,4c-1.9,4.1-5.7,5.1-7.8,5.3l-0.2,0L131.2,63.2z"/>
<path id="g_1_" fill="#0c0c0c" d="M61.7,90c4.2,0,7.8-0.9,10.4-2.5c2.6-1.6,3.9-3.9,3.9-6.6c0-4.8-4.8-6.1-9.1-6.7l-3.5-0.3
	c-4-0.6-5-0.8-5-1.7c0-0.4,0.3-0.8,0.9-1.3l0.1-0.1l0.1,0c0.9,0.2,1.9,0.3,2.8,0.4c3,0,5.9-1.1,8-3.2c2.1-2.1,3.3-4.8,3.3-7.8
	c0-2.8-1.1-5.5-3.1-7.6l-0.2-0.2l0.2-0.1c0.9-0.5,2-0.7,2.9-0.7c0.5,0,0.9,0.1,1.2,0.2c0.1,0,0.3,0.1,0.4,0.1l0,0
	c0.4,0,0.8-0.2,1-0.6c0.4-0.6,0.5-1.7,0.1-2.7c-0.3-0.9-1.3-1.5-2.7-1.5c-0.8,0-1.6,0.2-2.4,0.5c-1.4,0.6-2.7,1.5-3.8,2.7l-0.1,0.1
	l-0.1-0.1c-1.4-0.7-2.9-1-4.5-1.1c-0.1,0-0.3,0-0.4,0c-6.2,0-11.3,4.9-11.3,11c0,3.6,1.8,7,4.8,9l0.2,0.2l-0.2,0.1
	c-2.3,1.3-3.6,2.9-3.6,4.4c0,1,0.5,2,1.3,2.8l0.2,0.2l-0.2,0.1c-3.3,2-4.8,3.9-4.8,6.3C48.7,87.4,53.7,90,61.7,90z M62.4,53.1
	L62.4,53.1c2.3,0.1,4.1,3.2,4.1,7.1c0,3.9-1.8,7.1-4.1,7.1l-0.1,0c-2.2-0.1-4-3.2-4-7.1C58.4,56.3,60.2,53.1,62.4,53.1z M57.8,78.5
	L57.8,78.5l0.1,0c1.3,0.3,2.1,0.4,3.9,0.7l3.6,0.5c3.9,0.6,4.5,1.7,4.5,2.7c0,2.1-3.1,3.6-7.5,3.6c-0.3,0-0.5,0-0.8,0
	c-4.2-0.1-6.7-1.4-6.7-3.4C55.1,81.1,55.9,79.9,57.8,78.5z"/>
<path id="a" fill="#0c0c0c" d="M97.3,76.4L97.3,76.4c0.1,0,0.2,0,0.3-0.2c0.7-0.9,1.4-4,1.3-4.3c0-0.1-0.2-0.2-0.4-0.3
	c-0.5-0.3-1.2-0.8-1.3-1.8C97.2,68.3,97,59.3,97,58.9c0-4.5-1.4-7.3-4.3-8.6c-1.5-0.7-3.7-1.1-6-1.1c-8.8,0.1-9.7,4-9.7,5.6
	c0,0.4,0,0.8,0.2,1.2c0.5,1.6,2,2.7,3.7,2.7c0.4,0,0.7-0.1,1.1-0.2c0.6-0.2,1-0.8,1-1.4c0-1.5,0.3-2.6,0.9-3.4
	c0.6-0.8,1.6-1.2,2.8-1.2c0.1,0,0.2,0,0.3,0c2.4,0.1,3.5,1.5,3.5,4.5l0,2l-0.2,0c-10.6,1-15.6,4.3-15.6,10.2c0,4.4,3,7.2,7.5,7.2
	c3.1,0,6.1-1.6,8.4-4.3l0.2-0.2l0.1,0.3C91.7,74.8,95.2,76.4,97.3,76.4z M90.6,68.1c-1.7,1.7-4.2,3.4-6.1,3.4c-0.1,0-0.1,0-0.2,0
	c-1.8-0.1-2.9-1.1-2.9-2.9c0-1.8,1.1-5.1,9.1-6.1l0.2,0L90.6,68.1L90.6,68.1z"/>
<path id="g" fill="#0c0c0c" d="M109.8,90c8.5,0,14.3-3.7,14.3-9.1c0-4.8-4.8-6.1-9.1-6.7l-3.5-0.3c-4-0.6-5-0.8-5-1.7
	c0-0.4,0.3-0.8,0.9-1.3l0.1-0.1l0.1,0c0.9,0.2,1.9,0.4,2.8,0.4c3,0,5.9-1.1,8-3.2c2.1-2.1,3.3-4.8,3.3-7.8c0-2.8-1.1-5.5-3.1-7.6
	l-0.2-0.2l0.2-0.1c0.9-0.5,2-0.7,2.9-0.7c0.5,0,0.9,0.1,1.2,0.2c0.1,0,0.3,0.1,0.4,0.1l0,0c0.4,0,0.8-0.2,1-0.6
	c0.4-0.6,0.5-1.7,0.1-2.7c-0.3-0.9-1.3-1.5-2.7-1.5c-0.8,0-1.6,0.2-2.4,0.5c-1.4,0.6-2.7,1.5-3.8,2.7l-0.1,0.1l-0.1-0.1
	c-1.4-0.7-2.9-1-4.5-1.1c-0.1,0-0.3,0-0.4,0c-6.2,0-11.3,4.9-11.3,11c0,3.6,1.8,7,4.8,9l0.2,0.2l-0.2,0.1c-2.3,1.3-3.6,2.9-3.6,4.4
	c0,1,0.5,2,1.3,2.8l0.2,0.2l-0.2,0.1c-3.3,2-4.8,3.9-4.8,6.3C96.8,87.4,101.8,90,109.8,90z M110.5,53.1L110.5,53.1
	c2.3,0.1,4.1,3.2,4.1,7.1c0,3.9-1.8,7.1-4.1,7.1l-0.1,0c-2.2-0.1-4-3.2-4-7.1C106.4,56.3,108.3,53.1,110.5,53.1z M105.9,78.5
	L105.9,78.5l0.1,0c1.2,0.3,2.1,0.4,3.9,0.7l3.6,0.5c3.9,0.6,4.5,1.7,4.5,2.7c0,2.1-3.1,3.6-7.5,3.6c-0.3,0-0.5,0-0.8,0h0
	c-4.2-0.1-6.7-1.4-6.7-3.4C103.2,81.2,104,79.9,105.9,78.5z"/>
<path id="en" fill="#0c0c0c" d="M41.8,59.6l0,14.7c0,0.8,0.6,1.4,1.4,1.4l0,0l3.9,0c0.8,0,1.4-0.6,1.4-1.4l0-17.1c0-3.6-1-7.8-5.9-8
	c-0.1,0-0.2,0-0.3,0c-4.2,0-7.1,2.7-9,4.7l-0.2,0.3l-0.1-0.3c-0.2-1.3-0.7-3.3-1.2-3.8c0,0-0.1,0-0.3-0.1c-1.5-0.1-5.5,1.4-5.6,1.9
	c0,0.2,0,0.3,0.1,0.5c0.1,0.3,0.3,0.7,0.4,1.7c0.2,1.4,0,9.8,0,10.1l0,0l0,0c-3,5.1-7.3,8-11.9,8c-3.1,0-5.4-2-6.2-5.2l0-0.2l0.2,0
	c10.5-0.1,14.4-6.3,14.4-10.2c0-5-4.2-7.4-8.4-7.5c-0.2,0-0.3,0-0.5,0c-7.4,0-13,6.5-13,15.1c0,8.3,6.5,12.1,12.8,12.1
	c5,0,9-2.1,12.3-6.4l0.3-0.4l0,4.7c0,0.8,0.6,1.4,1.4,1.4l0,0l3.9,0c0.8,0,1.4-0.6,1.4-1.4l0-15.1l0,0c1.2-1.7,3.7-4.6,5.8-4.6
	C41,54.5,41.8,56,41.8,59.6z M8.1,63.4l0-0.2c0.2-4.1,1.4-6.5,2.4-7.8c1.1-1.5,2.5-2.3,3.7-2.3c0.9,0,1.6,0.3,2,1
	c0.7,1.1,0.5,2.8-0.1,4c-1.9,4.1-5.7,5.1-7.8,5.3L8.1,63.4z"/>
</svg>
