<?xml version="1.0" encoding="utf-8"?>
<!-- Generator: Adobe Illustrator 18.1.0, SVG Export Plug-In . SVG Version: 6.00 Build 0)  -->
<!DOCTYPE svg PUBLIC "-//W3C//DTD SVG 1.1//EN" "http://www.w3.org/Graphics/SVG/1.1/DTD/svg11.dtd">
<svg version="1.1" id="Layer_5" xmlns="http://www.w3.org/2000/svg" xmlns:xlink="http://www.w3.org/1999/xlink" x="0px" y="0px"
	 viewBox="0 0 78.3 85.9" enable-background="new 0 0 78.3 85.9" xml:space="preserve">
<path fill="#000000" d="M38.5,83.8c1.4,0,2.9,0,4.3-0.1c10.6-0.7,19.6-4.4,26.8-11.1c4.8-4.4,6.8-8.9,6.7-10.2c0-1.1-4.2-4.6-5.9-4.7
	c-1,0-1.7,0.8-2.6,1.8c-0.3,0.4-0.7,0.8-1.1,1.1c-6.7,6.3-14.5,9.9-22.6,10.4c-0.7,0-1.4,0.1-2,0c-8.4-0.3-14.7-5.6-17.5-14.5
	L24.4,56l0.6,0c31.3-2.4,41.8-21.6,41.1-33.1C65.2,8,52.7,2.4,42.2,2c-1.3,0-2.6,0-3.9,0.1C27.6,2.8,18,8,11.3,16.8
	c-6.7,8.8-9.9,20.6-9.2,33.1C3.1,65,13.2,83,38.5,83.8z M23.1,44.1c0.7-12.3,4.2-19.5,7.1-23.4c3.2-4.4,7.4-7,11.2-7
	c2.8,0,4.8,1,6,2.9c2,3.2,1.4,8.5-0.2,12.1C41.5,40.9,30,44,23.6,44.7l-0.6,0.1L23.1,44.1z"/>
</svg>
