<?xml version="1.0" encoding="UTF-8" standalone="no"?>
<!-- Created with Inkscape (http://www.inkscape.org/) -->
<svg id="svg2" xmlns:rdf="http://www.w3.org/1999/02/22-rdf-syntax-ns#" xmlns="http://www.w3.org/2000/svg" height="139.08mm" width="135.47mm" version="1.1" xmlns:cc="http://creativecommons.org/ns#" xmlns:dc="http://purl.org/dc/elements/1.1/" viewBox="0 0 479.99997 492.80396">



<!-- Calcul de duree de rotation du petit engrenage pour harmoniser la rotation
entre les 2 engrenage

Grand engrenage
	nombre de dent: 24
	Rotation duration: 10s

Petit engrenage
	nombre de dent: 15
	Durée de rotation:  
		((durée de rotation GrandE)* (nbr dent PetitE))/(nbr dent GrandE)=
		10*15/24 = 6.25
  -->
 
 <g id="smallEngrenageTranslate" transform="translate(359.3 367.15)">
  <path id="small_engrenage" d="m81.45-9.8766 6.9236-0.8322 5.8771 0.72704 13.175 5.804v8.3554l-13.175 5.804-5.8771 0.72704-6.9236-0.8322-3.0867 14.522 6.6635 2.0558 5.0733 3.0546 9.6751 10.661-3.3984 7.633-14.397-0.0564-5.6647-1.7262-5.9866-3.5764-8.7265 12.011 5.2513 4.5884 3.3922 4.854 4.5024 13.674-6.2092 5.5908-13.129-5.9072-4.4728-3.881-4.0144-5.7021-12.857 7.4232 2.931 6.3276 1.1247 5.8141-1.4487 14.324-7.9464 2.582-9.5912-10.736-2.5076-5.3648-1.348-6.8419-14.765 1.5519 0.10393 6.9727-1.3374 5.7689-7.1494 12.496-8.3096-0.87338-4.3951-13.709-0.10874-5.9209 1.5514-6.7987-14.12-4.5878-2.7411 6.4122-3.5682 4.7262-11.614 8.5077-7.236-4.1777 1.561-14.312 2.3089-5.4532 4.1825-5.5799-11.033-9.9342-5.1122 4.7429-5.182 2.8663-14.07 3.0484-4.9112-6.7596 7.2472-12.44 4.3273-4.0426 6.0905-3.3963-6.0386-13.563-6.5993 2.2535-5.8998 0.51076-14.094-2.938-1.7372-8.1728 11.68-8.4164 5.5975-1.9331 6.9454-0.62548v-14.846l-6.9454-0.62548-5.5975-1.9331-11.68-8.4164 1.7372-8.1728 14.094-2.938 5.8998 0.51076 6.5993 2.2535 6.0386-13.563-6.0905-3.3963-4.3273-4.0426-7.2472-12.44 4.9112-6.7596 14.07 3.0484 5.182 2.8663 5.1122 4.7429 11.033-9.9342-4.1825-5.5799-2.3089-5.4532-1.561-14.312 7.236-4.1777 11.614 8.5077 3.5682 4.7262 2.7411 6.4122 14.12-4.5878-1.5514-6.7987 0.10874-5.9209 4.3951-13.709 8.3096-0.87338 7.1494 12.496 1.3374 5.7689-0.10393 6.9727 14.765 1.5519 1.348-6.8419 2.5076-5.3648 9.5912-10.736 7.9464 2.582 1.4487 14.324-1.1247 5.8141-2.931 6.3276 12.857 7.4232 4.0144-5.7021 4.4728-3.881 13.129-5.9072 6.2092 5.5908-4.5024 13.674-3.3922 4.854-5.2513 4.5884 8.7265 12.011 5.9866-3.5764 5.6647-1.7262 14.397-0.0564 3.3984 7.633-9.6751 10.661-5.0733 3.0546-6.6635 2.0558z" stroke="#000" fill="none">
	
	<!-- Activation de l'annimation pour le petit engrenage-->
	<!-- -300° pour inverser le sens de rotation -->
	<animateTransform
		attributeName="transform"
		attributeType="XML"
		type="rotate"
		from="0"
		to="-360"
		dur="6.25s"
		repeatCount="indefinite"
		fill="freeze"
		 />
  <!-- ajout de la balise path -->
  </path>
  
  
 </g>
 <g id="bigEngrenageTranslate" transform="translate(176.7 178.67)">
  <path id="big_engrenage" d="m139.6-11.242 3.5068-0.28239 9.3504 1.5315 12.997 5.4381v9.1095l-12.997 5.4381-9.3504 1.5315-3.5068-0.28239-1.8473 14.031 3.4604 0.63484 8.6354 3.8994 11.147 8.6166-2.3577 8.7991-13.961 1.889-9.4282-0.94071-3.3142-1.1804-5.4159 13.075 3.1781 1.5088 7.3319 6.0016 8.5366 11.208-4.5548 7.8891-13.975-1.7889-8.8635-3.3489-2.8957-1.9979-8.6154 11.228 2.6793 2.28 5.5288 7.6947 5.3448 13.035-6.4414 6.4414-13.035-5.3448-7.6947-5.5288-2.28-2.6793-11.228 8.6154 1.9979 2.8957 3.3489 8.8635 1.7889 13.975-7.8891 4.5548-11.208-8.5366-6.0016-7.3319-1.5088-3.1781-13.075 5.4159 1.1804 3.3142 0.94071 9.4282-1.889 13.961-8.7991 2.3577-8.6166-11.147-3.8994-8.6354-0.63484-3.4604-14.031 1.8473 0.28239 3.5068-1.5315 9.3504-5.4381 12.997h-9.1095l-5.4381-12.997-1.5315-9.3504 0.28239-3.5068-14.031-1.8473-0.63484 3.4604-3.8994 8.6354-8.6166 11.147-8.7991-2.3577-1.889-13.961 0.94071-9.4282 1.1804-3.3142-13.075-5.4159-1.5088 3.1781-6.0016 7.3319-11.208 8.5366-7.8891-4.5548 1.7889-13.975 3.3489-8.8635 1.9979-2.8957-11.228-8.6154-2.28 2.6793-7.6947 5.5288-13.035 5.3448-6.4414-6.4414 5.3448-13.035 5.5288-7.6947 2.6793-2.28-8.6154-11.228-2.8957 1.9979-8.8635 3.3489-13.975 1.7889-4.5548-7.8891 8.5366-11.208 7.3319-6.0016 3.1781-1.5088-5.4159-13.075-3.3142 1.1804-9.4282 0.94071-13.961-1.889-2.3577-8.7991 11.147-8.6166 8.6354-3.8994 3.4604-0.63484-1.8473-14.031-3.5068 0.28239-9.3504-1.5315-12.997-5.4381v-9.1095l12.997-5.4381 9.3504-1.5315 3.5068 0.28239 1.8473-14.031-3.4604-0.63484-8.6354-3.8994-11.147-8.6166 2.3577-8.7991 13.961-1.889 9.4282 0.94071 3.3142 1.1804 5.4159-13.075-3.1781-1.5088-7.3319-6.0016-8.5366-11.208 4.5548-7.8891 13.975 1.7889 8.8635 3.3489 2.8957 1.9979 8.6154-11.228-2.6793-2.28-5.5288-7.6947-5.3448-13.035 6.4414-6.4414 13.035 5.3448 7.6947 5.5288 2.28 2.6793 11.228-8.6154-1.9979-2.8957-3.3489-8.8635-1.7889-13.975 7.8891-4.5548 11.208 8.5366 6.0016 7.3319 1.5088 3.1781 13.075-5.4159-1.1804-3.3142-0.94071-9.4282 1.889-13.961 8.7991-2.3577 8.6166 11.147 3.8994 8.6354 0.63484 3.4604 14.031-1.8473-0.28239-3.5068 1.5315-9.3504 5.4381-12.997h9.1095l5.4381 12.997 1.5315 9.3504-0.28239 3.5068 14.031 1.8473 0.63484-3.4604 3.8994-8.6354 8.6166-11.147 8.7991 2.3577 1.889 13.961-0.94071 9.4282-1.1804 3.3142 13.075 5.4159 1.5088-3.1781 6.0016-7.3319 11.208-8.5366 7.8891 4.5548-1.7889 13.975-3.3489 8.8635-1.9979 2.8957 11.228 8.6154 2.28-2.6793 7.6947-5.5288 13.035-5.3448 6.4414 6.4414-5.3448 13.035-5.5288 7.6947-2.6793 2.28 8.6154 11.228 2.8957-1.9979 8.8635-3.3489 13.975-1.7889 4.5548 7.8891-8.5366 11.208-7.3319 6.0016-3.1781 1.5088 5.4159 13.075 3.3142-1.1804 9.4282-0.94071 13.961 1.889 2.3577 8.7991-11.147 8.6166-8.6354 3.8994-3.4604 0.63484z" stroke="#000" fill="none">
	
	<!-- Activation de l'annimation pour le grand engrenage -->
	<animateTransform
		attributeName="transform"
		attributeType="XML"
		type="rotate"
		from="0"
		to="360"
		dur="10s"
		repeatCount="indefinite"
		fill="freeze"
		 />
    <!-- ajout de la balise path -->
  </path>
  
  
 </g>
</svg>
