<svg preserveAspectRatio="none" xmlns="http://www.w3.org/2000/svg" viewBox="0 0 900 60"><path fill="#D2D3D3" d="M900 60V11.2C900 5 895 0 888.8 0H11.2C5 0 0 5 0 11.2V60h900z"/><path fill="#FFF" d="M592.8 27h279.1c6.8 0 12.4 5.6 12.3 12.4 0 6.8-5.5 12.3-12.3 12.3H592.8c-6.8 0-12.4-5.6-12.3-12.4 0-6.8 5.5-12.3 12.3-12.3z"/><path fill="none" d="M595.4 38.2c0-2-1.7-3.7-3.7-3.7s-3.7 1.7-3.7 3.7 1.7 3.7 3.7 3.7c2.1 0 3.7-1.6 3.7-3.7z"/><path fill="#D2D3D3" d="M599.8 44.4l-3.2-3.2c.5-.9.8-1.9.8-2.9 0-3.1-2.5-5.6-5.6-5.6-3.1 0-5.6 2.5-5.6 5.6 0 3.1 2.5 5.6 5.6 5.6 1.1 0 2.1-.3 2.9-.8l3.2 3.2c.4.4 1.1.4 1.6 0l.3-.3c.4-.5.4-1.2 0-1.6zm-8.1-2.5c-2 0-3.7-1.7-3.7-3.7s1.7-3.7 3.7-3.7 3.7 1.7 3.7 3.7c0 2.1-1.6 3.7-3.7 3.7z"/><path fill="#FFF" d="M77.6 27H567c2.5 0 4.5 2 4.5 4.5v15.8c0 2.5-2 4.5-4.5 4.5H77.6c-2.5 0-4.5-2-4.5-4.5V31.5c0-2.5 2-4.5 4.5-4.5z"/><path fill="none" d="M556.9 37.1c-1.9 0-3.4 1.5-3.4 3.4s1.5 3.4 3.4 3.4 3.4-1.5 3.4-3.4-1.6-3.4-3.4-3.4z"/><path fill="#D2D3D3" d="M560.3 40.5c0 1.9-1.5 3.4-3.4 3.4s-3.4-1.5-3.4-3.4 1.5-3.4 3.4-3.4v2.3l5.6-3.4-5.6-3.3v2.2c-3.1 0-5.6 2.5-5.6 5.6 0 3.1 2.5 5.6 5.6 5.6 3.1 0 5.6-2.5 5.6-5.6h-2.2zM87.7 33.8H90V45h-2.3V33.8zm-4.5 4.5h11.3v2.2H83.2v-2.2z"/><g><path fill="#E6E6E5" d="M13.5 27h46.1c2.5 0 4.5 2 4.5 4.5v15.8c0 2.5-2 4.5-4.5 4.5H13.5c-2.5 0-4.5-2-4.5-4.5V31.5C9 29 11 27 13.5 27z"/><path fill="#969696" fill-opacity=".4" d="M45 34.9V45l9.6-5.1-9.6-5z"/><path fill="#969696" d="M28.1 34.9V45l-9.6-5.1 9.6-5z"/></g><g><ellipse fill="#59BE83" cx="60.8" cy="12.3" rx="6.8" ry="6.8"/><circle fill="#DFBC42" cx="38.2" cy="12.3" r="6.8"/><path fill="#E76D6C" d="M15.7 5.6c3.7 0 6.8 3 6.8 6.7s-3 6.8-6.7 6.8-6.8-3-6.8-6.7c0-3.8 3-6.8 6.7-6.8z"/></g></svg>