<?xml version="1.0" encoding="utf-8"?>
<!-- Generator: Adobe Illustrator 18.1.1, SVG Export Plug-In . SVG Version: 6.00 Build 0)  -->
<svg version="1.1" xmlns="http://www.w3.org/2000/svg" xmlns:xlink="http://www.w3.org/1999/xlink" x="0px" y="0px"
	 viewBox="0 0 100 100" enable-background="new 0 0 100 100" xml:space="preserve">
<g id="Layer_6">
	<polyline fill-rule="evenodd" clip-rule="evenodd" fill="#FDEB31" points="48.8,25 23.5,43.3 42.8,60 50,56 57.2,60.2 67,51.3 
		76.5,43.3 50,23.5 48.8,25 	"/>
</g>
<g id="Layer_5">
	<g>
		<path fill="none" stroke="#0F0F0F" stroke-width="4" stroke-linecap="round" stroke-linejoin="round" stroke-miterlimit="10" d="
			M61.2,31.9L50,23.5L23.5,43.3c-0.3,0.2-0.4,0.5-0.4,0.8v30.4c0,0.6,0.4,1,1,1h51.7c0.6,0,1-0.4,1-1V44.1c0-0.3-0.1-0.6-0.4-0.8
			l-7-5.2"/>
		
			<polyline fill="none" stroke="#0F0F0F" stroke-width="4" stroke-linecap="round" stroke-linejoin="round" stroke-miterlimit="10" points="
			23.5,75.2 50,55.6 76.1,74.9 		"/>
		
			<line fill="none" stroke="#0F0F0F" stroke-width="4" stroke-linecap="round" stroke-linejoin="round" stroke-miterlimit="10" x1="23.5" y1="43.8" x2="43.8" y2="60.1"/>
		
			<line fill="none" stroke="#0F0F0F" stroke-width="4" stroke-linecap="round" stroke-linejoin="round" stroke-miterlimit="10" x1="56.2" y1="60.1" x2="76.9" y2="44.1"/>
	</g>
	
		<line fill-rule="evenodd" clip-rule="evenodd" fill="#FDEB31" stroke="#0F0F0F" stroke-width="2" stroke-linecap="round" stroke-linejoin="round" stroke-miterlimit="10" x1="31.5" y1="44.1" x2="49.9" y2="30.4"/>
</g>
<g id="Layer_3">
</g>
</svg>
