<?xml version="1.0" encoding="utf-8"?>
<!-- Generator: Adobe Illustrator 18.1.1, SVG Export Plug-In . SVG Version: 6.00 Build 0)  -->
<svg version="1.1" xmlns="http://www.w3.org/2000/svg" xmlns:xlink="http://www.w3.org/1999/xlink" x="0px" y="0px"
	 viewBox="0 0 100 100" enable-background="new 0 0 100 100" xml:space="preserve">
<g id="Layer_6">
	<circle fill-rule="evenodd" clip-rule="evenodd" fill="#FDEB31" cx="43.2" cy="38.5" r="13.6"/>
</g>
<g id="Layer_5">
	
		<path fill-rule="evenodd" clip-rule="evenodd" fill="none" stroke="#0F0F0F" stroke-width="4" stroke-linecap="round" stroke-linejoin="round" stroke-miterlimit="10" d="
		M64.6,69.2c0,0-0.9-6.1-5-10.2c-3.5-3.6-5.4-4.2-6.9-4.9s-3.4-1-3.4-2l0,0c5.1-2.3,8.6-7.5,8.6-13.4c0-8.1-6.6-14.8-14.8-14.8
		s-14.8,6.6-14.8,14.8c0,6.1,3.6,11.3,8.9,13.5l-0.1,0.2c0,1-6.4,2.1-11.5,8.9c-4.9,6.6-3.8,9.3-3.8,13.2c0,0.5,0.4,1,1,1l53.9,0
		c0.5,0,1-0.4,1-1c0.1-1.7,0-5.4-1.7-9.5c-2.2-5.6-9.1-8.6-10.8-9.8s-1.5-2.1,0.1-3.5s5.3-5,5.3-9.5c0-10.2-7.3-13.1-9.8-13.9"/>
	
		<path fill-rule="evenodd" clip-rule="evenodd" fill="none" stroke="#0F0F0F" stroke-width="2" stroke-linecap="round" stroke-linejoin="round" stroke-miterlimit="10" d="
		M43,70.2"/>
	
		<path fill-rule="evenodd" clip-rule="evenodd" fill="none" stroke="#0F0F0F" stroke-width="2" stroke-linecap="round" stroke-linejoin="round" stroke-miterlimit="10" d="
		M27.8,70.2"/>
	
		<path fill-rule="evenodd" clip-rule="evenodd" fill="none" stroke="#0F0F0F" stroke-width="2" stroke-linecap="round" stroke-linejoin="round" stroke-miterlimit="10" d="
		M34.2,38.5c0-4.9,4-8.8,8.8-8.8"/>
</g>
<g id="Layer_3">
</g>
</svg>
