<?xml version="1.0" encoding="utf-8"?>
<!-- Generator: Adobe Illustrator 18.1.1, SVG Export Plug-In . SVG Version: 6.00 Build 0)  -->
<svg version="1.1" xmlns="http://www.w3.org/2000/svg" xmlns:xlink="http://www.w3.org/1999/xlink" x="0px" y="0px"
	 viewBox="0 0 100 100" enable-background="new 0 0 100 100" xml:space="preserve">
<g id="Layer_6">
	<rect x="23.5" y="28.3" fill-rule="evenodd" clip-rule="evenodd" fill="#FDEB31" width="53" height="12.4"/>
</g>
<g id="Layer_5">
	<g>
		
			<path fill-rule="evenodd" clip-rule="evenodd" fill="none" stroke="#0F0F0F" stroke-width="4" stroke-linecap="round" stroke-linejoin="round" stroke-miterlimit="10" d="
			M35.9,71.4H24.2c-0.6,0-1-0.4-1-1V29.2c0-0.6,0.4-1,1-1h51.5c0.6,0,1,0.4,1,1v41.2c0,0.6-0.4,1-1,1H63.9"/>
		
			<line fill-rule="evenodd" clip-rule="evenodd" fill="none" stroke="#0F0F0F" stroke-width="2" stroke-linecap="round" stroke-linejoin="round" stroke-miterlimit="10" x1="69.4" y1="35.3" x2="43.5" y2="35.3"/>
		<g>
			<path fill="#0F0F0F" d="M37.9,36.5c-0.3,0-0.7-0.1-0.9-0.4c-0.2-0.2-0.4-0.6-0.4-0.9c0-0.3,0.1-0.7,0.4-0.9
				c0.5-0.5,1.3-0.5,1.8,0c0.2,0.2,0.4,0.5,0.4,0.9c0,0.3-0.1,0.7-0.4,0.9C38.6,36.4,38.3,36.5,37.9,36.5z"/>
			<path fill="#0F0F0F" d="M34.2,36.5c-0.3,0-0.7-0.1-0.9-0.4c-0.2-0.2-0.4-0.6-0.4-0.9c0-0.3,0.1-0.7,0.4-0.9
				c0.5-0.5,1.3-0.5,1.8,0c0.2,0.2,0.4,0.5,0.4,0.9c0,0.3-0.1,0.7-0.4,0.9C34.8,36.4,34.5,36.5,34.2,36.5z"/>
			<path fill="#0F0F0F" d="M30.4,36.5c-0.3,0-0.7-0.1-0.9-0.4c-0.2-0.2-0.4-0.6-0.4-0.9c0-0.3,0.1-0.7,0.4-0.9
				c0.5-0.5,1.3-0.5,1.8,0c0.2,0.2,0.4,0.6,0.4,0.9c0,0.3-0.1,0.7-0.4,0.9C31.1,36.4,30.8,36.5,30.4,36.5z"/>
		</g>
		
			<path fill-rule="evenodd" clip-rule="evenodd" fill="none" stroke="#0F0F0F" stroke-width="4" stroke-linecap="round" stroke-linejoin="round" stroke-miterlimit="10" d="
			M49.1,35.3"/>
		
			<path fill-rule="evenodd" clip-rule="evenodd" fill="none" stroke="#0F0F0F" stroke-width="4" stroke-linecap="round" stroke-linejoin="round" stroke-miterlimit="10" d="
			M69.4,35.3"/>
		<path fill="none" stroke="#0F0F0F" stroke-width="4" stroke-linecap="round" stroke-linejoin="round" stroke-miterlimit="10" d="
			M54.1,58.7l5.1,5.3L54.1,58.7z"/>
		
			<circle fill-rule="evenodd" clip-rule="evenodd" fill="none" stroke="#0F0F0F" stroke-width="4" stroke-linecap="round" stroke-linejoin="round" stroke-miterlimit="10" cx="48.8" cy="52.8" r="7.8"/>
	</g>
</g>
<g id="Layer_3">
</g>
</svg>
