<?xml version="1.0" encoding="utf-8"?>
<!-- Generator: Adobe Illustrator 19.1.0, SVG Export Plug-In . SVG Version: 6.00 Build 0)  -->
<svg version="1.1" id="Layer_1" xmlns="http://www.w3.org/2000/svg" xmlns:xlink="http://www.w3.org/1999/xlink" x="0px" y="0px"
	 viewBox="0 0 283.5 283.5" enable-background="new 0 0 283.5 283.5" xml:space="preserve">
<g>
	<path d="M69.2,163.8c-0.1,0.3-0.4,0.5-0.4,0.8c-0.1,1.1,0.3,2,1.6,2c0.7,0,1.1-0.6,0.9-1.3C71,164.2,70.4,163.8,69.2,163.8
		 M187.4,69.5c0.3,2,1.1,2.1,2.6,1.6c0,0,0.1-0.1,0.2-0.1c0.4-0.6,0.2-1.2-0.2-1.7c-0.4-0.5-0.9-0.4-1.5-0.4
		C188.1,69,187.7,69.1,187.4,69.5 M213.2,164.1c1.3,0.8,2.3,0.6,2.9-0.6c0.1-0.3,0.2-0.6,0.4-0.9c0.6-1.3,0.2-2.5-0.5-3.6
		c-0.1-0.1-0.3-0.2-0.6-0.4c0,0.3-0.1,0.5-0.1,0.7c0.1,0.6,0.2,1.2,0.3,1.9c0.1,0.9-0.1,1.5-1,1.9
		C214.1,163.4,213.6,163.6,213.2,164.1 M192.1,131.2c1,1.4,2.6,2.3,3.7,3.5c0.1,0.1,0.3,0.1,0.5,0.1c-0.5-1.8-1.2-3.4-2.1-4.9
		C193.4,130.2,192.7,130.5,192.1,131.2 M190.6,72.4c-1,0.5-2,0.1-2.9,0.7c0,0.6,0.1,1.1,0.1,1.6c0,0.2,0.1,0.5,0.3,0.7
		c0.4,0.3,0.8,0.7,1.3,0.9c0.4,0.2,0.8,0.6,1.5,0.5C191.1,75.3,191.1,74,190.6,72.4 M149,173c0-0.6,0-1.2,0-1.7
		c0-0.3-0.1-0.6-0.1-0.9c-0.1-0.3-0.3-0.5-0.6-0.6c-0.8-0.2-2-0.2-2.9,0.2c0.1,0.5,0.3,1,0.4,1.5c0.1,0.5,0.1,1,0.1,1.6H149z
		 M186.1,100.1c-1.4,0.6-2.9,0.8-3.8,2.2c0.1,0.4,0.2,0.7,0.3,1c0.6,1.4,0.6,1.4,2,0.9c0.1,0,0.1-0.1,0.3-0.3
		c-0.1-1.2,0.6-1.8,1.8-2.1c0.3-0.1,0.6-0.4,0.8-0.5c-0.1-0.2-0.2-0.3-0.2-0.3C187,100.7,186.6,100.4,186.1,100.1 M139.7,126.4
		c0.5,0.7,0.7,1.5,1.5,2c1.3-0.6,2.4-1.5,3.6-2.2c0.2-0.1,0.3-0.4,0.3-0.7c-0.1-0.9-1.1-1.7-1.9-1.4
		C141.9,124.5,140.7,125.1,139.7,126.4 M186.5,103.5c0.1,0.3,0.2,0.6,0.3,0.9c0.1,0.2,0.1,0.4,0.2,0.6c0.2,0.5,0.5,0.7,1.1,0.6
		c1.4-0.3,2.7-0.6,4-1.3c-0.1-0.9-0.3-1.6-0.8-2.3c-0.5-0.3-1-0.4-1.5-0.2C188.6,102.2,187.5,102.8,186.5,103.5 M128.2,167.7
		c-0.6,0.9-0.4,1.6,0,2.3c0.1,0.2,0.3,0.3,0.5,0.3c0.8,0.2,1.6,0.4,2.5,0.5c2.4,0.3,4.8,0.7,7.3,0.9c1.7,0.1,3.3,0.4,5,0.6
		c0.3,0,0.6,0.1,0.7-0.2c0.1-0.2,0.1-0.5,0-0.7c-0.2-0.5-0.6-0.8-1.2-0.9c-0.7-0.1-1.4-0.3-2.2-0.4c-2.2-0.4-4.3-0.9-6.5-1
		C132.3,168.9,130.2,168.6,128.2,167.7 M107.6,151.3c0.2,0.8,0.5,1.6,0.6,2.4c0.2,2,0.8,4,1.2,6c0.4,2,0.8,4,0.2,6
		c0.9,0.1,1.6,0.2,2.4-0.1c0.1-0.8,0.2-1.6,0.2-2.4c0-0.8-0.1-1.6-0.1-2.3c0-0.3,0-0.6,0-0.9c-0.1-2.8-0.6-5.6-1.7-8.2
		c-0.2-0.5-0.3-1-0.9-1.3C108.8,150.6,108.2,150.8,107.6,151.3 M192,106c-1.5,0.3-1.7,0.4-2.6,1c-0.1,1.2,0.5,2.2,0.8,3.3
		c0.3,1.1,0.7,2.2,1.1,3.3c0.4,1.1,0.8,2.2,1.3,3.2c0.5,1,0.5,2.2,1.3,3.1c0.9-0.2,1.8-0.3,2.5-0.9c-0.2-0.7-0.4-1.2-0.6-1.8
		c-0.1-0.4-0.4-0.8-0.5-1.2c-0.3-1-0.6-2.1-0.9-3.2c-0.6-2-1.3-4-2-5.9C192.3,106.6,192.2,106.4,192,106 M71.4,160.5
		c-0.2-0.2-0.2-0.3-0.2-0.3c-2-0.2-3.9,0.2-5.2,1.9c-1.3,1.6-1.7,3.4-1.3,5.3c0.2,1.2,0.9,2.3,1.7,3.3c0.5,0.6,1.1,0.9,1.9,0.9
		c1.7,0,3.4-0.3,5-1.1c0.4-0.2,0.8-0.5,1.1-0.9c0.2-0.2,0.2-0.5,0.2-0.8c-1.1-0.2-2.2-0.4-3.2-0.6c-0.2,0-0.4-0.1-0.6-0.1
		c-1.1,0.2-2-0.3-3-0.9c-0.2-0.5-0.3-1.1-0.5-1.6c-0.2-0.9,0-1.8,0.6-2.5c0.3-0.5,0.8-0.8,1.3-1.1C69.9,161.5,70.6,161.1,71.4,160.5
		 M132.6,167.3c-0.3-1.6-1-2.4-2.3-3c-1.6-0.7-3.2-0.7-4.9-0.5c-1,0.1-1.7,0.6-2.1,1.4c-0.7,1.1-1,2.3-0.5,3.6
		c0.1,0.4,0.3,0.8,0.4,1.2c0.4,1.7,1.6,2.7,3.2,3.1c0.9,0.2,1.7,0.4,2.6,0.5c0.6,0.1,1.3,0,1.9-0.1c0.5-0.1,1-0.2,1.2-0.8
		c-0.7-0.5-1.4-0.3-2.1-0.4c-0.8-0.1-1.5-0.2-2.3-0.3c-1.2-1.8-1.2-1.8-1.1-3.2c0-1.7,1.2-2.6,2.8-2
		C130.4,167.1,131.4,167.3,132.6,167.3 M116.5,146.7c0,0.3,0,0.5,0.1,0.7c0.4,1,0.7,2.1,1.1,3.1c0.8,2,1.4,4.1,1.8,6.2
		c0.2,1.3,0.3,2.7,0.5,4c0,0.2,0,0.5,0.4,0.7c0.2-0.2,0.3-0.5,0.5-0.5c0.8-0.1,1.5-0.7,2.4-0.5c0.4,0.1,0.8,0,1-0.3
		c-0.3-0.7-0.5-1.4-0.7-2.1c-0.6-1.9-1.3-3.8-1.9-5.6c-0.4-1.1-0.7-2.2-1-3.3c-0.3-1.1-0.5-2.1-0.7-3.2c-0.1-0.3-0.1-0.7-0.6-0.9
		C118.4,145.4,117.5,146,116.5,146.7 M180.4,86.7c0-1-0.5-1.7-0.7-2.5c-0.3-0.9-0.1-1.1,0.7-1.4c1-0.4,2-0.7,2.9-1.2
		c1.7-0.8,3.5-1.8,5.2-2.6c0.4-0.2,0.8-0.5,1.3-0.8c-0.9-0.7-1.8-1.3-2.6-1.9c-1,0.5-2.1,1-3.1,1.4c-2.3,1-4.4,2.1-6.8,2.9
		c-0.5,0.2-0.9,0.5-1.4,0.7c-0.4,0.3-0.5,0.6-0.4,1.1c0.1,0.3,0.2,0.5,0.3,0.7c0.6,1.5,1.3,3,1.9,4.5c0,0.1,0.2,0.1,0.3,0.2
		C178.7,87.6,179.5,87.2,180.4,86.7 M137.7,126.1c-2.8,1.2-5.3,2.6-7.8,4.1c0,1-0.3,1.9,0.1,2.8c0.4,0.9,0.6,1.9,1.3,2.7
		c0.5-0.2,1-0.5,1.5-0.7c0.6-0.3,1.2-0.7,1.8-0.9c1.9-0.9,3.8-1.9,5.5-3c0.2-0.2,0.5-0.4,0.8-0.6
		C139.7,129.1,138.8,127.6,137.7,126.1 M134,172.9c-0.1,0.1-0.2,0.1-0.3,0.2c-0.7,1.3-1.9,1.8-3.4,2c-2,0.2-4-0.3-5.8-1.1
		c-1.1-0.5-1.9-1.3-2.3-2.4c-0.3-0.9-0.7-1.9-0.9-2.8c-0.4-2.3,0.4-4.1,2.2-5.5c0.3-0.2,0.7-0.3,1-0.4c0.6-0.1,1.1-0.2,1.7-0.4
		c1.8-0.4,3.6-0.2,5.2,0.7c0.7,0.4,1.3,0.9,1.8,1.4c0.7,0.8,0.8,1.8,0.7,2.8c1,0.4,1,0.4,2,0.3c0.2-0.4,0.5-0.9,0.7-1.4
		c-0.2-0.2-0.3-0.3-0.5-0.4c-0.3-0.2-0.5-0.5-0.5-0.9c0-0.2,0.1-0.5,0-0.6c-0.5-0.3-0.5-1.1-1-1.3c-1-0.4-1.5-1.4-2.4-1.9
		c-0.1,0-0.2,0-0.3,0.1c-0.5,0.4-1.1,0.6-1.8,0.3c-0.3-0.1-0.6,0-0.9,0c-0.2,0-0.5-0.1-0.7-0.2c-0.7-0.6-1.3-0.5-2,0
		c-0.2,0.1-0.5,0.3-0.7,0.3c-0.3,0-0.7-0.1-1-0.2c-0.5,0.3-0.9,0.9-1.6,0.7c-0.8-0.3-1.3,0.2-1.6,0.6c-0.3,0.4-0.7,0.4-1,0.7
		c0.1,0.5,0.3,1-0.1,1.5c-0.1,0.1-0.1,0.4-0.1,0.6c0.1,0.4,0,0.7-0.3,1c-0.2,0.3-0.3,0.5-0.3,0.9c0,0.3-0.1,0.6-0.2,0.9
		c-0.1,0.4-0.2,0.9-0.1,1.2c0.3,0.8,0.3,1.7,0.8,2.5c0.2,0.4,0.2,0.9,0.8,1.1c0.2,0.1,0.3,0.4,0.3,0.7c0.1,0.2,0,0.5,0,0.8
		c1.1,0.1,1.5,0.8,1.9,1.6c0.7-0.1,1.3-0.2,1.8,0.5c0.1,0.1,0.4,0.3,0.5,0.2c0.6-0.1,1,0.2,1.4,0.4c0.1,0.1,0.3,0.1,0.4,0.1
		c0.4-0.2,0.7-0.5,1.1-0.7c0.4,0.2,0.8,0.4,1,0.5c0.6-0.2,1-0.3,1.5-0.4c0.6-0.2,1.2-0.3,1.8-0.4c0.7-0.1,0.9-0.8,1.3-1.2
		c0.4-0.3,0.8-0.7,1.4-1c0-0.4-0.1-0.7-0.1-1C135.1,172.9,134.5,172.8,134,172.9 M129,159.4c0.1-0.6,0-1.2-0.2-1.7
		c-0.3-1.2-0.6-2.3-0.9-3.5c-0.2-1-0.5-2-0.8-3c-0.4-1.5-0.8-3-1.3-4.5c-0.5-1.5-1-3-1.5-4.4c-0.1-0.3-0.3-0.7-0.8-0.7
		c-0.9,0.8-2.1,1.3-2.9,2.3c0,0.2,0.1,0.4,0.1,0.6c0.4,2.6,1.3,5.1,2,7.6c0.7,2,1.4,4.1,2.1,6.1c0.3,0.7,0.6,1.5,1.3,1.8
		C127.2,159.7,128,159.5,129,159.4 M68.8,176c0.9-1,1-1.1,2.1-0.9c1,0.2,2-0.3,2.9,0c0.6-1.1,0.6-1.1,1.7-1.1c0.2-0.5,0.2-1,0.8-1.2
		c0.1,0,0.2-0.3,0.3-0.5c0.1-0.5,0.4-0.7,0.8-0.9c0.6-0.2,0.8-0.8,1.1-1.2c-0.2-0.3-0.3-0.6-0.4-0.9c-0.6-0.2-1.1-0.3-1.7-0.1
		c-0.2,0.3-0.4,0.7-0.5,1c-0.5,0.7-1.1,1.3-1.8,1.7c-1.8,0.8-3.6,1.3-5.6,1.4c-1.6,0.1-2.8-0.7-3.6-2.1c-0.4-0.8-0.8-1.6-1.2-2.4
		c-0.1-0.2-0.2-0.5-0.2-0.7c-0.4-2.3,0.1-4.5,1.6-6.4c1.1-1.4,2.6-2.3,4.4-2.5c0.5-0.1,0.9-0.1,1.4-0.1c1.1-0.1,2.1,0,3,0.6
		c0.7-0.3,1.4-0.4,2-1c-0.8-0.7-1.5-1.3-2.4-1.5c-1-0.3-1.8,0.2-2.5,0.7c-0.6-0.2-1-0.3-1.4-0.5c-0.3,0.3-0.5,0.6-0.7,0.9
		c-0.6,0.7-0.7,0.7-1.6,0.3c-0.1-0.1-0.3-0.1-0.5-0.2c-1,0.7-1.7,1.8-2.9,2.3c-0.1,0-0.1,0.2-0.2,0.2c-0.3,0.5-0.7,0.9-1.1,1.4
		c0.5,0.6,0.7,1.2,0.1,1.8c-0.2,0.2-0.2,0.5,0,0.7c0.3,0.4,0.2,0.8-0.1,1.2c-0.4,0.5-0.8,1-1.1,1.5c-0.1,0.1-0.1,0.3-0.1,0.4
		c0.4,0.2,0.7,0.5,1.1,0.7c-0.2,0.8-0.4,1.5-0.6,2.3c0.7,0.8,0.7,0.8,1.1,2.2h1.1c0.3,0.5,0.5,0.9,0.7,1.3c0.1,0,0.3,0.1,0.3,0.1
		c0.8-0.3,1.3,0.1,1.6,0.8c0.1,0.3,0.3,0.5,0.6,0.9C67.6,175.4,68.2,175.7,68.8,176 M99.1,85.2c0,0.2-0.1,0.3,0,0.4
		c0.6,1.5,1.2,3,1.8,4.5c0.4,1,0.8,2,1.2,3.1c0.8,2,1.2,4.1,2.2,6.1c0.4,0.8,0.7,1.6,1,2.5c0.9,2.1,1.8,4.2,2.8,6.3
		c0.2,0.5,0.4,1,1,1.3c0.5-0.1,1.1-0.1,1.6-0.6c0-0.2,0-0.5-0.1-0.7c-2.8-8.1-5.6-16.1-8.5-24.2c0-0.1-0.2-0.2-0.4-0.4
		C100.6,83.9,99.9,84.6,99.1,85.2 M119.6,162.6c-0.6-0.3-0.9-0.7-1-1.4c0-0.8-0.2-1.6-0.2-2.3c-0.2-2.2-0.7-4.2-1.4-6.3
		c-0.4-1.1-0.8-2.3-1.2-3.4c-0.2-0.6-0.4-1.3-0.9-1.8c-1.6,0.4-3,1.1-4,2.6c0.1,0.4,0.3,0.8,0.4,1.2c0.5,1.6,1.3,3.1,1.5,4.8
		c0.4,2.6,0.5,5.2,0.5,7.8c0,0.7,0,1.3,0.4,2c1.4,0.1,2.9,0.1,4.4,0.2c-0.2-0.7,0-1.2,0.6-1.5c0.1-0.1,0.2-0.2,0.2-0.3
		c-0.1-0.4-0.2-0.7-0.4-1C119,162.9,119.2,162.8,119.6,162.6 M139.8,124.1c-6-0.4-11.9,0.2-17.8,0.6c-0.5,0-1.1-0.1-1.5,0.3
		c-0.3,0.5-0.1,1,0,1.5c0.3,1.2,0.7,2.3,1,3.5c0.3,1.5,0.9,2.9,1.5,4.3c0.1,0.3,0.4,0.6,0.6,0.9c1.8-0.8,3.4-1.5,4.8-2.7
		c-0.1-0.2-0.1-0.4-0.2-0.5c-0.4-1.2,0-2.4,1.2-3c1.5-0.8,3-1.6,4.4-2.4c1-0.5,1.9-1.1,2.9-1.6c0.6-0.3,1.2-0.6,1.9-0.2
		C139.1,125,139.2,124.9,139.8,124.1 M182.6,184.7c0.1,0,0.1-0.1,0.2-0.1c-0.1-0.3-0.3-0.6-0.4-0.9c-0.3-0.5-0.7-1.1-1-1.6
		c-1.6-3.5-3.4-6.9-4.6-10.5c-0.6-1.9-1.3-3.9-1.5-5.9c-0.3-2.5,0-5,0.3-7.5c0.1-0.6,0.2-1.1,0.3-1.7c0.4-1.7,0.9-3.5,1.3-5.2
		c0.3-1.2,0.6-2.4,1-3.6c0.9-2.2,1.9-4.4,3.1-6.5c0.5-0.7,1-1.5,1.5-2.2c0.6-0.8,1.2-1.4,1.7-2.2c0.9-1.4,1.9-2.6,3.1-3.7
		c0.5-0.5,0.9-1,1.5-1.4c1.4-0.9,2.8-1.6,4.2-2.5c0.1,0,0.1-0.2,0.2-0.3c-0.2-0.4-0.5-0.7-0.7-1.1c-0.3,0.1-0.6,0.2-0.8,0.3
		c-1.3,0.8-2.7,1.4-3.9,2.3c-1.7,1.2-3.2,2.6-4.2,4.4c-0.4,0.7-0.8,1.3-1.3,2c-0.9,1.2-1.7,2.4-2.4,3.7c-1.2,2.1-2.5,4.2-3.8,6.4
		c-0.7,1.1-1.1,2.4-1.4,3.7c-0.3,1.6-0.8,3.3-1.1,4.9c-0.1,0.4-0.2,0.8-0.2,1.2c0,1.8,0.2,3.7,0.5,5.5c0.3,1.4,0.4,2.9,0.4,4.4
		c0,2.6,0.3,5.2,1.1,7.8c0.1,0.3,0.2,0.7,0.3,1.1c0.2,1,0.5,1.9,1.1,2.8c0.7,1.1,1.5,2.3,2.3,3.3c0.8,1,1.6,2,2.4,2.9
		C182.1,184.4,182.3,184.5,182.6,184.7 M117.7,78.5c0.1-0.7-0.4-0.9-0.9-1.1c-1.4-0.6-2.9-1.1-4.4-1c-2.3,0.1-4.6,0.4-6.9,0.6
		c-0.1,0-0.2,0-0.3,0.1c-2.2,0.4-4.4,0.8-6.6,1.2c-0.6,0.1-1.1,0.1-1.7,0c-1.1-0.3-2.1-0.5-3.2-0.7c-1.5-0.3-3-0.7-4.5-1.4
		c-1.1-0.5-2-0.3-2.8,0.5c-1,1-1,2.3-0.9,3.7c0.2,1.4,1.1,2.2,2.4,2.5c2,0.5,4,0.8,6,1.1c1,0.1,2,0.1,3,0.1c0.9,0,1.6-0.2,2.4-0.7
		c1.3-0.9,2.7-1.7,4.3-2.3c1.1-0.4,2.3-0.8,3.5-1c1.2-0.2,2.5-0.4,3.7-0.6c1.8-0.2,3.5-0.3,5.3-0.5
		C116.6,78.8,117.2,78.8,117.7,78.5 M69.2,155.6c0-0.2,0.1-0.3,0.1-0.5c0-3.7,0-7.3-0.6-11c-0.1-0.6-0.1-1.3-0.1-1.9
		c0-1.4,0.1-2.8,0-4.2c-0.2-2.5-0.6-5-0.9-7.5c0-0.4-0.2-0.8-0.3-1.1c-1.2-0.1-2.2,0-3.2,0.4c-1,0.3-2.1,0.6-3.1,1.1
		c-0.9,0.4-2,0.6-2.8,1.4c0.1,0.8,0.6,1.5,0.9,2.2c1.3,2.6,2.6,5.1,3.8,7.8c1.2,2.7,2.2,5.6,3.2,8.4c0.5,1.5,1,3,1.5,4.5
		c0.1,0.3,0.3,0.6,0.5,1c0.2,0,0.4-0.1,0.5-0.1C68.8,155.8,69,155.7,69.2,155.6 M72.6,167.1c0.5,0.1,1.1,0.3,1.6,0.3
		c1.2,0,2.4,0.2,3.6,0.4c3.2,0.5,6.3,0.9,9.5,0.9c0.4,0,0.8,0.1,1.2,0.2c1.6,0.3,3.2,0.7,4.8,0.8c2.8,0.2,5.6,0.7,8.4,0.9
		c2.1,0.1,4.3,0.4,6.4,0.4c2.9,0.1,5.8,0,8.7,0.1c0.3,0,0.5-0.1,0.7-0.1c0.2-0.5,0.4-0.9,0.5-1.4c0.1-0.5,0-0.9,0-1.3
		c-0.4-0.4-0.8-0.7-1.1-1c-1.6-0.1-3.1-0.2-4.6-0.1c-3.9,0.2-7.8-0.1-11.6-0.2c-1.1,0-2.3-0.2-3.4-0.4c-2.6-0.2-5.1-0.4-7.7-0.7
		c-1.4-0.2-2.8-0.5-4.2-0.7c-2.1-0.3-4.3-0.6-6.4-0.5c-0.8,0-1.6-0.1-2.3-0.1c-0.3,0-0.5,0-0.8,0.1c-0.7,0.2-1.3,0.4-1.9,0.7
		C73.2,165.4,72.6,165.9,72.6,167.1 M57,132.6c-2.5,0.9-7.5,3.6-8.9,4.8c0.5,0.8,1.1,1.7,1.6,2.4c0.8,1.1,1.6,2.1,2.4,3.1
		c1.1,1.4,2.2,2.8,3.2,4.3c1.2,1.7,2.3,3.3,3.8,4.8c0.4,0.4,0.7,0.8,1,1.2c1.1,1.3,2.1,2.6,3.2,3.9c0.1,0.1,0.2,0.2,0.3,0.4
		c0.3,0.3,0.6,0.4,1,0.2c0.3-0.1,0.6-0.3,0.9-0.6c0.4-0.3,0.7-0.6,1.1-1C64.3,148.1,61.2,140.1,57,132.6 M80.4,163.1
		c0.7,0.1,1.3,0.2,1.8,0.3c1.1,0.1,2.2,0.2,3.3,0.4c1.9,0.4,3.8,0.6,5.8,0.8c1.2,0.1,2.5,0.3,3.7,0.4c2.6,0.3,5.2,0.7,7.8,0.7
		c1.6,0,3.1,0,4.7,0.1c0.4,0,0.7,0,1.1,0c0-0.5-0.1-0.9-0.1-1.3c0.2-1.6-0.1-3.1-0.5-4.7c-0.4-1.7-0.6-3.4-1-5.1
		c-0.2-0.8-0.4-1.5-0.6-2.3c-0.1-0.2-0.3-0.4-0.4-0.6c-1.9,0.7-3.7,1.4-5.4,2.3c-1.2,0.6-2.5,1.1-3.7,1.7c-0.8,0.4-1.6,0.7-2.4,1.1
		c-1.3,0.6-2.5,1.4-3.8,2c-2.9,1.3-5.9,2.3-8.8,3.2C81.4,162.3,80.9,162.4,80.4,163.1 M72.7,164.5c1.2-0.4,2.4-0.8,3.5-1.2
		c1.6-0.6,3.1-1.2,4.7-1.8c2.5-1,5.1-1.5,7.6-2.6c1.5-0.7,3.1-1.3,4.5-2.2c1.2-0.7,2.4-1.3,3.7-1.7c1.5-0.5,2.9-1.2,4.3-2
		c0.6-0.4,1.3-0.7,2-1c1.1-0.5,2.3-1,3.5-1.5c1.1-0.5,2.3-1,3.3-1.8c1-0.7,2-1.3,3.1-1.8c0.8-0.4,1.5-0.6,2.3-1
		c1.8-0.9,3.5-1.8,5-3.2c1.1-1,2.3-2,3.6-2.8c1.8-1.2,3.7-2.3,5.6-3.5c0.1-0.1,0.2-0.2,0.4-0.4c-0.2-0.7-0.3-1.4-0.9-1.9
		c-0.4,0.2-0.7,0.3-1,0.4c-0.8,0.4-1.6,0.9-2.5,1.4c-1.2,0.6-2.3,1.2-3.3,2c-0.5,0.4-1.1,0.7-1.7,1.1c-2.9,1.5-5.8,3-8.5,4.7
		c-0.5,0.3-1,0.5-1.5,0.8c-1.4,0.7-2.9,1.2-4.3,1.9c-2,1-4,2.1-6,3.1c-1,0.5-2,0.9-3,1.4c-1.1,0.5-2.2,1-3.3,1.5
		c-1.8,0.8-3.6,1.6-5.3,2.3c-1.1,0.5-2.1,0.9-3.2,1.4c-1.6,0.7-3.3,1.3-4.9,2.1c-1.6,0.7-3.1,1.5-4.7,2.1c-1.2,0.4-2.3,1-3.3,1.7
		c-0.2,0.2-0.4,0.4-0.6,0.6C71.9,163.2,72.2,163.7,72.7,164.5 M38.8,147.9c1.5,0.9,2.9,1.9,4.4,2.7c1.2,0.7,2.4,1.4,3.5,2.3
		c0.2,0.2,0.5,0.3,0.8,0.5c1.4,0.8,2.7,1.5,3.9,2.6c0.5,0.5,1.2,0.8,1.9,1.1c2.1,1,4.3,1.8,6.1,3.2c0.3,0.2,0.6,0.5,0.9,0.6
		c0.3,0.1,0.6,0.2,0.8,0.3c0.5-1.1,0.5-1.1,1.6-1.7c0.2-0.2,0.4-0.4,0.6-0.6c-0.1-0.2-0.1-0.3-0.1-0.4c-1.6-1.8-3.1-3.7-4.7-5.5
		c-1.4-1.6-2.7-3.2-3.9-4.9c-0.7-0.9-1.4-1.9-2-2.8c-0.4-0.5-0.8-1.1-1.2-1.6c-0.6-0.9-1.3-1.8-2.1-2.6c-0.8-0.8-1.7-1.6-2-2.8
		c0-0.2-0.3-0.2-0.4-0.3C42.2,141.2,40.6,143.5,38.8,147.9 M70.6,155.5c0.4-0.1,0.5-0.1,0.7-0.1c0.8-0.1,1.6-0.3,2.4,0.3
		c0.2,0.1,0.5,0,0.7,0c0.1-0.2,0.2-0.3,0.2-0.5c0.3-1.7,0.8-3.2,1.5-4.8c0.2-0.6,0.4-1.2,0.6-1.8c0.5-2.1,1-4.2,1.4-6.3
		c0.2-1.2,0.7-2.3,1-3.4c0.6-2,1.2-4,2-6c0.3-0.8,0.6-1.5,0.6-2.5c-0.3-0.2-0.6-0.4-1-0.5c-1.8-0.5-3.6-0.9-5.4-1
		c-1.1-0.1-2.3-0.2-3.4-0.2c-0.9-0.1-1.9-0.1-2.8,0.5c0,0.3,0,0.6,0,0.9c0.1,2.7,0.4,5.3,0.7,8c0.1,0.9,0.1,1.9,0.1,2.8
		c0,1.4-0.1,2.7,0.2,4.1c0.2,0.8,0.2,1.6,0.2,2.3c0.1,2.2,0.2,4.5,0.3,6.8C70.5,154.6,70.5,155,70.6,155.5 M203.4,155.7
		c-0.7,0.9-1,1.7-0.8,2.6c0.1,0.4,0.1,0.8-0.2,1.2c-0.5,0.6-0.5,1.2-0.5,1.9c-0.2,2.1,0.6,3.9,1.6,5.6c0.4,0.7,1,1.3,1.7,1.8
		c1.2,0.7,2.3,1.5,3.5,2.1c0.5,0.3,1.1,0.4,1.6,0.6c0.5,0.1,0.9,0.2,1.4,0.3c4.1,0.7,7.4-0.4,10.1-3.6c0.4-0.5,0.8-1,1.2-1.5
		c0.7-1,1.1-2,1.1-3.2c0-0.6,0-1.3,0-1.9c0.1-1.1-0.2-2.1-0.5-3.1c-0.6-1.9-1.9-3.3-3.2-4.8c-0.2-0.2-0.5-0.4-0.7-0.6
		c-0.8-0.4-1.7-0.9-2.5-1.3c-0.4-0.2-0.8-0.3-1.2-0.3c-1.1,0-2.2,0-3.3,0c-0.2,0-0.5,0.2-0.8,0.3c0.6,1.3,1.2,2.4,1.7,3.6
		c0.4,0.9,0.9,1.3,1.8,1.5c1.2,0.3,1.9,1.1,2.3,2.1c0.9,2.1,0.4,4.1-0.9,5.9c-0.3,0.4-0.7,0.7-1.1,0.8c-1.1,0.3-2.2,0.4-3.2-0.2
		c-0.6-0.3-1.3-0.7-2-1.1c-0.5,0.1-1,0.3-1.6,0.4c-0.9,0.2-1.3,0-1.5-0.8c-0.6-1.8-1.3-3.6-2.1-5.3
		C204.6,157.9,204.2,156.8,203.4,155.7 M59.6,167.2c-0.9-0.2-1.5-0.2-2.1-0.4c-1.1-0.2-2.2-0.4-3.2-0.7c-1.6-0.4-3.1-0.8-4.7-1.1
		c-0.5-0.1-1-0.1-1.6-0.1c-0.8-0.1-1.6,0-2.3-0.2c-3.4-0.7-6.8-1.4-10.1-2.1c-1.1-0.2-2.1-0.5-3.2-0.8c-0.6,1.2-0.7,1.4-0.9,4.6
		c-0.1,2.5-0.3,5,0.5,7.5c1.4,0.4,2.8,0.2,4.1,0c4.7-0.6,9.4-1.2,14-2.1c0.4-0.1,0.8-0.1,1.2-0.2c3-0.3,5.9-0.7,8.9-1.3
		c0.1-0.2,0.2-0.3,0.3-0.5c0.1-0.2,0-0.4,0.1-0.7C59.5,168.9,58.9,168.3,59.6,167.2 M60,162.2c-0.5-0.3-1.1-0.5-1.5-0.9
		c-1.6-1.3-3.6-2.2-5.5-3.1c-1.1-0.5-2.1-1-2.9-1.9c-0.7-0.7-1.5-1.3-2.5-1.7c-1-0.5-1.9-1-2.8-1.8c-0.5-0.4-1.1-0.8-1.7-1.1
		c-1.4-0.8-2.9-1.5-4.2-2.5c-0.2-0.2-0.5-0.3-0.8-0.5c-0.2,0.3-0.3,0.4-0.4,0.6c-1.3,2.2-2.4,4.5-3.9,6.7c-0.1,0.2-0.2,0.4-0.3,0.5
		c-0.6,1.1-0.9,2.3-1,3.5c0.4,0.7,1.1,0.8,1.7,0.9c1.8,0.5,3.6,1,5.5,1.4c2.9,0.6,5.7,1.3,8.7,1.4c2.2,0.1,4.3,0.6,6.3,1.1
		c1.4,0.3,2.9,0.5,4.3,0.7c0.2,0,0.5-0.1,0.9-0.1c-0.8-1.1,0.5-1.4,0.6-1.9C60.3,163.1,60.2,162.7,60,162.2 M200.8,159.8
		c-0.9-0.6-1.8-0.6-2.7-0.8c-1.7-0.3-3.4-0.5-5.1-0.8c-2.1-0.4-4.2-0.9-6.3-1.3c-1.6-0.3-3.2-0.6-4.7-1.1c-0.9-0.3-1.8-0.5-2.8-0.7
		c-0.6-0.1-1.2-0.2-1.8,0.2c-1.2,3.8-1.4,10,0,13.2c0.1,0.1,0.3,0.1,0.4,0.2c0.7,0.4,1.3,0.4,2.1,0.2c1.7-0.5,3.4-0.9,5.1-1.1
		c3.3-0.5,6.7-0.8,9.9-1.5c1.2-0.3,2.4-0.6,3.7-0.9c0.5-0.1,1-0.3,1.5-0.4c0.2-0.1,0.4-0.2,0.7-0.3
		C200.5,162.9,200.5,161.4,200.8,159.8 M184.9,184.5c0.9-0.7,1.8-1.3,2.6-2c1.8-1.7,3.9-3.2,5.9-4.7c1.5-1.1,3.1-2.1,4.6-3.3
		c1-0.8,1.9-1.6,2.8-2.5c0.7-0.7,1.3-1.4,1.9-2.1c0.2-0.2,0.4-0.5,0.5-0.7c-0.7-1.1-1.3-2.1-1.9-3c-1-0.1-1.8,0-2.6,0.3
		c-0.7,0.2-1.4,0.4-2.1,0.6c-2.6,0.5-5.2,0.9-7.7,1.3c-1.3,0.2-2.6,0.2-3.9,0.5c-2,0.4-4,1-5.9,1.5c-0.3,0.1-0.5,0.3-0.9,0.4
		c0.1,0.4,0.1,0.7,0.2,1c0.9,3.2,2.6,6.2,4.1,9.2c0.5,1,1.2,2,1.8,2.9C184.4,184.1,184.6,184.2,184.9,184.5 M185.9,185.8
		c2.9,3.9,7.5,8,10.8,9.1c0.2-0.3,0.5-0.5,0.7-0.8c0.4-0.5,0.7-1,1-1.6c1.1-2,2.3-4,3.4-6c1.2-2.1,2.1-4.2,2.8-6.5
		c0.8-2.4,1.9-4.8,3-7.1c0.1-0.2,0.1-0.4,0.2-0.5c-1-1.1-2.3-1.6-3.4-2.3c-0.8,0.4-1.3,1-1.8,1.6c-2,2.4-4.4,4.2-6.9,5.9
		c-3.3,2.2-6.4,4.7-9.2,7.5C186.3,185.3,186.1,185.5,185.9,185.8 M214.5,150.3c0.2-0.8,0.4-1.4,0.5-2.1c0.2-0.9,0.3-1.9,0.4-2.8
		c0.1-1.6,0.2-3.1,0.3-4.7c0.1-2.3,0.5-4.6,0.7-6.9c0.3-3.1,0.4-6.2,0.6-9.4c-0.4,0-0.7-0.1-1.1-0.1c-2.1,0-4.3,0.2-6.4,0.3
		c-2.7,0.1-5,1.2-7.4,2.4c0.1,0.4,0.1,0.8,0.2,1.1c0.3,0.8,0.6,1.6,1,2.3c0.8,1.5,1.4,3,1.9,4.6c0.1,0.2,0.2,0.5,0.3,0.7
		c1.2,2.4,2,4.8,2.8,7.3c0.8,2.4,1.6,4.8,2.7,7.1c0.5,0,1.1,0.1,1.7,0.1C213.3,150.3,213.9,150.3,214.5,150.3 M32.3,175.5
		c-0.1,1.2,0.1,2.8,0.6,4c1,2.4,2.2,4.7,3.5,6.8c0.4,0.7,0.9,1.4,1.7,1.9c0.9-0.5,1.9-1,2.8-1.5c4-2.2,8-4.1,12.1-6.1
		c1-0.5,2-1.1,3-1.7c2.1-1.3,4.1-2.9,6.5-3.8c0.1,0,0.1-0.2,0.2-0.2c-0.9-0.4-0.9-0.4-1.3-1.4c-0.2-0.5-0.6-0.8-1-1.2
		c-0.5-0.6-1-0.7-1.7-0.6c-1.7,0.3-3.4,0.5-5.1,0.7c-1.2,0.2-2.4,0.1-3.6,0.4c-1.6,0.4-3.3,0.6-5,0.8c-0.4,0-0.8,0.1-1.2,0.2
		c-3.7,0.7-7.3,1.2-11.1,1.5C32.5,175.4,32.4,175.4,32.3,175.5 M39.1,189.2c0.1,0.2,0.1,0.3,0.2,0.4c1.1,1.1,2.2,2.3,3.5,3.2
		c1.3,0.9,2.6,2,3.9,2.9c1.7,1.2,3.2,2.5,5.1,3.5c0.6,0.3,1.3,0.7,1.9,0.7c0.3-0.7,0.5-1.3,0.8-1.8c0.2-0.4,0.5-0.8,0.7-1.2
		c1.4-2.8,2.7-5.7,4-8.5c0.2-0.5,0.5-1,0.8-1.5c1-1.9,2.1-3.8,3.1-5.7c0.6-1.2,1.2-2.4,2-3.5c0.2-0.3,0.3-0.7,0.3-1
		c0-0.4-0.3-0.6-0.8-0.5c-0.3,0.1-0.6,0.2-0.9,0.1c-0.2-0.1-0.5,0-0.7,0.1c-2.1,1-4.1,2.2-6,3.4c-0.7,0.5-1.4,1-2.1,1.3
		c-2.1,1.1-4.3,2.1-6.5,3.2c-2.7,1.3-5.3,2.7-8,4.1C39.9,188.5,39.4,188.7,39.1,189.2 M219.6,151.5c0.4-0.6,0.7-1.1,1.1-1.7
		c0.7-1,1.3-2,2-3c0.5-0.7,1-1.5,1.5-2.2c1-1.3,2.1-2.6,3-4c1.1-1.5,1.9-3.3,3.2-4.7c0.2-0.2,0.3-0.6,0.5-0.8c0.9-1.5,1.9-3,3-4.4
		c-0.4-0.5-0.8-0.9-1.3-1.3c-2.3-1.5-4.9-2.7-7.6-3.4c-1.6-0.4-3.1-0.8-4.7-1.2c-0.6-0.1-1.1-0.3-1.7,0c-0.3,1.1-0.5,2.3-0.6,3.5
		c-0.1,2.6-0.3,5.2-0.7,7.8c-0.2,1.6-0.4,3.1-0.5,4.7c-0.1,2.8-0.4,5.6-0.8,8.4c0,0.3,0,0.6,0,0.8
		C217.2,150.5,218.4,151,219.6,151.5 M192.7,122.1c0.1,0.6,0.1,1.2,0.3,1.7c0.5,1.4,1,2.9,1.7,4.2c1.3,2.4,2.4,4.8,3.2,7.3
		c0.3,0.8,0.5,1.6,0.6,2.4c0.4,2,0.8,3.9,1.4,5.8c0.4,1,0.8,2.1,1.1,3.1c0.8,2.9,2.1,5.6,3.5,8.2c0.3,0.5,0.5,1,0.8,1.6
		c0.9,2.2,2,4.3,2.7,6.5c0.1,0.2,0.2,0.4,0.3,0.5c2,0,4.4-0.8,5.7-1.9c0.1-1.6-0.3-3.1-1.1-4.5c-1.4-2.2-2.3-4.6-3.2-7
		c-0.3-0.8-0.7-1.6-1-2.5c-0.3-0.7-0.6-1.5-0.8-2.2c-0.6-1.8-1.2-3.7-1.9-5.5c-0.9-2.4-1.9-4.8-2.9-7.1c-0.4-0.9-0.9-1.8-1.3-2.7
		c-1.1-2.6-1.8-5.3-2.5-8.1c-0.1-0.6-0.2-1.3-0.7-1.8c-0.5,0.1-1,0-1.5,0.2C195.6,120.9,194.2,121.3,192.7,122.1 M225.4,163.2
		c0.7,0,1.1,0.1,1.6,0c3.3-0.5,6.7-0.3,10-0.2c2.9,0.1,5.9,0,8.8-0.3c2.1-0.2,4.2-0.5,6.3-0.5c0.1,0,0.3-0.1,0.4-0.2
		c0-0.2,0.1-0.4,0.1-0.6c0.2-2.1-0.2-4.1-0.8-6c-0.6-1.9-1.1-3.8-1.7-5.7c-0.2-0.8-0.5-1.6-1.1-2.3c-0.7,0.3-1.5,0.6-2.2,0.9
		c-1.4,0.5-2.7,1.1-4.1,1.6c-2,0.7-4.1,1.3-6.1,2.1c-2.5,1-5,2.2-7.5,3.3c-1.5,0.7-2.9,1.4-4.4,2.1c0.2,0.9,0.4,1.9,0.6,2.8
		C225.3,161,225.3,162,225.4,163.2 M106.3,144.7c0-0.2,0-0.3-0.1-0.4c-1.6-2.2-3.2-4.4-4.8-6.6c-0.2-0.3-0.6-0.6-0.9-0.9
		c-1.4-1.5-3.2-2.3-4.8-3.5c-1.2-0.9-2.4-1.7-3.8-2.3c-2.2-1-4.4-2.1-6.8-2.9c-2-0.6-4.1-1.4-6.2-1.9c-1.4-0.3-2.9-0.3-4.4-0.4
		c-2.9-0.1-5.8-0.1-8.6,0.1c-2,0.2-4.1,0.5-6,1.3c-3.3,1.3-6.6,2.7-9.9,4c-1.2,0.5-2.3,1.2-3.4,2c-0.9,0.7-1.8,1.4-2.8,1.9
		c-0.4,0.2-0.8,0.5-1.1,0.9c-1.4,1.3-2.5,2.8-3.6,4.4c-1.9,2.9-4,5.6-5.9,8.5c-1.9,2.8-3.2,5.9-4.2,9.1c-0.8,2.4-1.1,4.9-1.1,7.4
		c-0.1,3.5,0,7,0.4,10.5c0.2,2,0.6,3.9,1.4,5.8c0.7,1.8,1.7,3.4,3,4.8c1.1,1.2,2.3,2.5,3.3,3.8c1.6,2.2,3.6,4,5.5,5.8
		c0.2,0.2,0.5,0.4,0.8,0.5c2.3,1.5,4.7,2.7,7.4,3.4c0.3,0.1,0.7,0.2,1,0.3c-2.8-2.1-5.6-4.2-8.3-6.3c-1.8-1.5-3.6-3.1-5.3-4.7
		c-0.5-0.5-1-1.1-1.4-1.7c-1.2-1.6-2-3.4-2.9-5.2c-0.8-1.5-1.4-3.1-1.6-4.7c-0.2-1.5-0.5-3-0.8-4.5c-0.5-2.4-0.3-4.8-0.2-7.2
		c0.1-1.5,0.2-2.9,0.7-4.3c0.4-1.2,0.7-2.4,1-3.6c0.2-1.1,0.7-2,1.3-2.8c0.2-0.2,0.3-0.4,0.4-0.6c1.7-3.1,3.4-6.1,5.1-9.2
		c1.3-2.3,2.7-4.6,4.9-6.3c0.5-0.4,1-0.9,1.5-1.4c0.4-0.3,0.8-0.7,1.2-0.9c3.6-2.2,7.3-4.2,11.1-5.8c0.4-0.2,0.8-0.4,1.1-0.5
		c2.8-1.3,5.7-2.4,8.9-2.5c0.4,0,0.9,0,1.2-0.2c0.9-0.3,1.9-0.3,2.8-0.3c1.4,0,2.8,0.1,4.2,0.2c2.5,0.2,5,0.6,7.3,1.6
		c1.1,0.5,2.4,0.9,3.6,1.2c5.1,1.4,9.6,3.9,13.3,7.7c0.1,0.1,0.3,0.3,0.4,0.5c1.5,1.7,2.8,3.6,4,5.6c0.1,0.3,0.3,0.5,0.5,0.8
		C105.4,145.1,105.9,144.9,106.3,144.7 M248.4,146.2c-0.2-0.6-0.4-1.1-0.6-1.6c-1.1-1.9-2.2-3.8-3.3-5.7c-0.5-0.8-1.2-1.4-1.9-2.1
		c-0.7-0.7-1.5-1.2-2.1-1.9c-1.7-1.7-3.7-2.7-5.8-3.6c-0.5,0.7-1,1.4-1.5,2.2c-0.4,0.6-0.8,1.2-1.2,1.8c-1.2,1.8-2.6,3.4-3.5,5.4
		c-0.1,0.2-0.3,0.3-0.4,0.5c-2.2,2.9-4.4,5.9-6.4,8.9c-0.4,0.6-0.8,1.1-0.9,1.9c1.3,1.2,2.1,2.9,3.5,4.2c2.4-0.9,4.8-2,7.1-3.1
		c1.2-0.6,2.4-1.2,3.7-1.7c2.7-1.1,5.5-2,8.2-3.1C244.9,147.7,246.6,146.9,248.4,146.2 M201.8,155.3c-0.4-0.3-0.7-0.6-1.1-0.9
		c-2.2-1.6-4.5-3-6.9-4.3c-3.7-2-7.1-4.3-10.1-7.1c-0.2-0.2-0.4-0.3-0.6-0.5c-0.2-0.2-0.2-0.5-0.1-0.7c0.2-0.2,0.4-0.3,0.7-0.2
		c0.3,0.2,0.6,0.3,0.9,0.6c1,0.8,1.9,1.6,2.9,2.4c1.5,1.3,3.1,2.3,4.8,3.3c3.1,1.7,6.2,3.4,9.1,5.4c0.2,0.1,0.4,0.2,0.9,0.3
		c-0.1-0.4-0.2-0.7-0.2-0.9c-0.4-1.1-1-2.1-1.3-3.2c-1.1-3.3-2.4-6.6-3.1-10.1c-0.1-0.8-0.6-1.4-1.1-2c-1.6-1.6-3.3-3.2-5-4.8
		c-0.3-0.2-0.6-0.4-0.9-0.7c-1.6,1.2-3,2.5-4.2,4c-0.8,1-1.5,2-2.2,3c-1.6,2.3-3.2,4.7-4.2,7.3c-0.9,2.2-1.3,4.5-1.9,6.8
		c0,0.1,0.1,0.3,0.1,0.5c1.2,0.3,2.4,0.5,3.5,0.9c2.7,1.1,5.6,1.4,8.4,1.9c3.3,0.6,6.7,1.1,10.1,1.6c0.3,0.1,0.7,0,1.1,0
		C201.4,157,201.6,156.2,201.8,155.3 M82.7,131.2c-0.3,0.4-0.5,1-0.5,1.6c0,0.8-0.3,1.4-0.6,2.1c-0.3,0.7-0.7,1.4-0.9,2.2
		c-0.7,2.3-1.7,4.5-1.9,6.9c0,0.2-0.1,0.3-0.1,0.5c-0.4,1.6-0.8,3.1-1.2,4.7c-0.2,0.6-0.4,1.2-0.6,1.8c-0.3,1-0.6,2-1,3
		c-0.3,0.8-0.3,1.5-0.2,2.4c0.8,0.1,1.3,0.7,1.7,1.4c0.3-0.1,0.6-0.1,0.8-0.2c1.9-0.8,3.9-1.6,5.8-2.4c1.1-0.5,2.2-0.9,3.3-1.4
		c1.3-0.6,2.7-1.2,4-1.8c3-1.4,6.1-2.8,9.2-4.1c0.8-0.3,1.5-0.8,2.2-1.2c0.2-0.1,0.4-0.3,0.6-0.5c-0.7-2.1-2.5-4.8-4.4-6.4
		c-0.6,0.4-1.3,0.9-1.9,1.3c-1.6,1.3-3.2,2.7-4.9,4c-2.5,1.9-5,3.8-7.5,5.7c-1.3,1-2.5,2-3.8,3c-0.5,0.4-1,0.9-1.6,1.3
		c-0.4,0.3-0.8,0.5-1.2,0.7c-0.3,0.1-0.7-0.1-0.8-0.4c-0.1-0.3,0-0.5,0.3-0.6c0.6-0.4,1.3-0.7,1.9-1.1c3.2-2.5,6.4-5,9.7-7.5
		c2.8-2.1,5.3-4.4,7.9-6.7c0.3-0.2,0.5-0.5,0.8-0.9c-1.4-1.4-2.8-2.7-4.6-3.7c-3.2-1.8-6.7-3-10.3-3.8
		C83,131.2,82.9,131.2,82.7,131.2 M169.8,102.6c-0.2-0.4-0.4-0.3-0.6-0.2c-1.2,0.8-2.5,1.6-3.6,2.6c-2.1,1.7-4,3.5-6,5.3
		c-2.6,2.2-5.2,4.5-7.7,6.7c-0.8,0.7-1.5,1.4-2,2.4c-0.3,0.7-0.6,1.3-0.9,2c-0.7,1.5-1.5,3-2.1,4.5c-0.4,0.9-1,1.5-1.9,2
		c-0.7,0.4-1.4,0.8-2,1.3c-0.3,0.2-0.6,0.5-0.4,0.9c0.2,0.4,0.3,0.7,0,1c-0.2,0.3-0.5,0.7-0.9,0.9c-0.9,0.6-1.9,1.1-2.9,1.6
		c-2.1,1.1-4.2,2.2-6.2,3.3c-0.8,0.4-1.4,1.1-2.4,0.9c-0.2,0-0.4,0.1-0.6,0.2c-0.8,0.4-1.7,0.8-2.5,1.2c-1.7,1-1.8,1.3-1.2,3.1
		c0.3,0.9,0.8,1.8,1.1,2.8c0.7,2.4,1.4,4.7,2.1,7.1c0.1,0.2,0.1,0.4,0.1,0.6c0.3,2.3,1.1,4.6,1.8,6.8c0.1,0.3,0.3,0.5,0.6,0.8
		c0.7-0.2,1.2-0.5,1.8-0.7c0.3-0.1,0.7-0.1,0.8,0.2c0.1,0.6,0.5,0.8,1.1,1c0.2,0.1,0.5,0.3,0.6,0.5c0.3,0.7,1,0.9,1.6,1.3
		c0.2-0.3,0.4-0.5,0.4-0.7c0-0.7,0.3-1.2,0.7-1.7c0.5-0.7,1-1.3,1.4-2.1c1.1-2.2,2.1-4.3,3.1-6.5c0.7-1.6,1.6-3.1,2.5-4.5
		c0.5-0.8,0.8-1.6,1.2-2.4c1.1-2.2,1.9-4.4,3.2-6.5c1-1.5,2-3.1,2.9-4.7c1.3-2.4,2.5-4.8,3.8-7.2c0.8-1.6,1.7-3.1,2.6-4.7
		c1.4-2.3,2.8-4.5,4.1-6.9c1.5-2.7,3-5.3,4.5-7.9C168.5,105.5,169.1,104,169.8,102.6 M186,98.3c-0.7-1.5-1.3-2.9-2.3-4.2
		c-0.7-1-1.3-2-1.6-3.2c-0.2-0.7-0.6-1.3-1.1-1.9c-0.3-0.5-0.6-0.5-1.1-0.3c-0.8,0.2-1.4,0.8-2,1.2c-1.7,1.3-3.3,2.5-5.1,3.7
		c-1.2,0.8-2.4,1.5-3.4,2.5c-1,0.9-2,1.7-3.1,2.3c-2.3,1.2-4.3,3-6.3,4.6c-2.9,2.4-5.7,4.8-8.8,6.8c-1.5,1-3,2.1-4.5,3.2
		c-0.9,0.7-1.8,1.5-2.7,2.2c-1.7,1.2-3.4,2.3-5.5,2.7c-2,0.3-4,0.6-6.1,0.8c-4,0.2-8.1,0.4-12.1,0.5c-1.5,0-3,0-4.5-0.3
		c-0.5-0.1-0.8-0.3-0.9-0.7c-0.1-0.3-0.2-0.6-0.4-0.9c-0.8-1.6-1.5-3.3-2.1-5.1c0,0-0.1-0.1-0.2-0.2c-0.8,0.3-1.7,0.4-2.5,1
		c0,0.6,0.1,1.1,0.3,1.6c0.7,1.9,1.4,3.9,2.2,5.7c1.4,3.1,2.4,6.3,3.8,9.3c1.1,2.5,1.9,5.1,2.9,7.6c0.1,0.2,0.3,0.4,0.4,0.6
		c1.3-0.3,2.1-1.2,3.1-2c-0.3-0.7-0.5-1.3-0.8-1.9c-0.5-1-0.8-2-1.2-3.1c-0.4-1.2-0.7-2.4-1.1-3.6c-0.2-0.6-0.3-1.2-0.4-1.8
		c-0.1-0.5-0.1-1,0.2-1.6c0.4-0.1,0.8-0.3,1.3-0.3c1.8-0.1,3.7-0.2,5.5-0.3c0.7,0,1.5-0.1,2.2-0.2c1.9-0.1,3.8-0.5,5.8-0.3
		c1.5,0.1,3,0.1,4.6-0.1c1.3-0.1,2.5-0.1,3.8-0.1c1.4,0.1,2.7,0.2,3.8,1.2c0,0,0.1,0,0.3,0c0.2-0.3,0.5-0.7,0.7-1.1
		c0.3-0.7,0.7-1.4,0.9-2.2c0.8-2.1,2-3.7,3.8-5.1c2.7-2,5.2-4.3,7.7-6.5c1.9-1.7,3.8-3.4,5.8-5.1c0.2-0.2,0.5-0.4,0.8-0.6
		c1.6-1.1,3.2-2.2,4.8-3.3c0.1-0.1,0.3-0.2,0.4-0.2c0.3,0,0.6-0.1,0.9,0c0.3,0.2,0.2,0.5,0.2,0.8c-0.1,0.3-0.2,0.6-0.4,0.9
		c-0.5,1-0.9,2-1.4,3c-0.9,1.7-1.8,3.4-2.7,5.1c-1,1.7-2,3.4-3,5.2c-1.1,1.8-2,3.7-3.2,5.4c-1.5,2.3-2.8,4.8-4.1,7.2
		c-1.6,3-3.2,6-5,8.9c-1.9,3.1-3.6,6.1-4.9,9.5c-0.2,0.5-0.5,0.9-0.7,1.4c-2,3.2-3.6,6.6-5.1,10.1c-0.4,0.8-0.7,1.6-1.2,2.4
		c-0.6,1.1-1.2,2.2-1.8,3.3c-0.4,0.8-0.5,1.7-0.5,2.6c0,0.6,0.3,1.2,0.6,1.8c0.3-0.1,0.6-0.2,0.9-0.2c0.8-0.1,1.3-0.6,1.6-1.3
		c0.4-0.8,0.7-1.5,1.1-2.3c0.1-0.3,0.4-0.6,0.4-0.9c-0.1-1,0.4-1.7,1-2.4c1.5-1.9,2.6-4,3.7-6.2c0.6-1.3,1.4-2.5,2.2-3.6
		c0.9-1.3,1.7-2.7,2.5-4.2c1.2-2.5,2.4-5,3.6-7.5c0.2-0.3,0.3-0.7,0.5-1c1.3-2.2,2.5-4.3,3.8-6.5c1.5-2.6,2.9-5.2,4.4-7.8
		c0.9-1.7,1.8-3.3,2.7-5c1.5-2.8,2.8-5.6,4.3-8.4c1.6-2.9,3.9-5.3,6.8-7.1c1.2-0.8,2.5-1.5,3.8-2.3c0.7-0.4,1.5-0.8,2.2-1.2
		C184.7,99.1,185.5,98.9,186,98.3 M99.7,189.6c-0.7-0.4-1.4-0.8-2-1.3c-1.2-0.9-2.3-1.8-3.5-2.6c-2.5-1.6-5-3.3-7.3-5.2
		c-2.2-1.8-4.3-3.6-6.1-5.9c-0.4-0.5-1-0.9-1.5-1.3c-0.3-0.3-0.8-0.1-1.1,0.3c-0.2,0.3-0.4,0.7-0.7,1.1c0.1,0.6,0.2,1.3,0.5,1.8
		c0.5,0.8,0.7,1.6,0.8,2.5c0.1,2.6,0.4,5.2,1.1,7.8c0.4,1.6,0.8,3.2,1,4.8c0.2,2.2,0.8,4.2,1.8,6.1c0.3,0.5,0.5,1.1,0.6,1.6
		c0.1,0.2-0.1,0.5-0.2,0.7c-0.1,0.3-0.6,0.3-0.8,0c-0.1-0.2-0.2-0.4-0.3-0.6c-0.4-1-0.8-2-1.2-3.1c-0.5-1.1-0.7-2.2-0.8-3.3
		c-0.2-1.4-0.4-2.7-1-4.1c-0.8-1.7-1.2-3.6-1.4-5.5c-0.1-1-0.2-2.1-0.4-3.1c-0.2-1-0.4-1.9-0.4-2.9c0-0.3,0-0.6-0.1-0.9
		c-0.1-0.5-0.7-0.7-1.1-0.4c-0.3,0.3-0.6,0.5-1.1,0.6c-0.6,0.1-0.8,0.5-0.9,0.9c-0.1,0.4-0.1,0.7-0.2,1.1c-0.3,1.9-0.5,3.7-1.2,5.5
		c-0.1,0.3-0.1,0.6-0.2,0.9c-0.3,1.9-0.6,3.8-0.9,5.7c-0.3,1.8-0.5,3.5-0.8,5.3c-0.3,1.5-0.5,3-0.5,4.5c0,0.3,0,0.6-0.1,0.9
		c0,0.2-0.3,0.4-0.4,0.4c-0.2,0-0.5-0.1-0.7-0.3c-0.1-0.1-0.1-0.4-0.1-0.6c0-0.7,0.1-1.5,0.2-2.2c0.4-2.4,1.1-4.7,1.3-7.1
		c0.2-1.5,0.4-3,0.6-4.5c0.4-2.4,0.7-4.8,1.1-7.1c0.1-0.6,0.2-1.1,0.4-1.7c0.2-0.6,0.3-1.1,0.1-1.7c-0.7-0.3-1.3-0.5-2-0.2
		c-0.1,0.3-0.1,0.6-0.2,0.9c-0.2,0.6-0.6,0.7-1.1,0.5c-0.5-0.2-0.9-0.5-1.3-0.7c-0.6,0.2-1.2,0.3-1.7,0.5c-2,3.7-4,7.4-6,11.1
		c-2,3.7-3.5,7.6-5.4,11.4c0.2,0.1,0.5,0.2,0.7,0.3c1.3,0.3,2.5,0.7,3.8,0.9c3.3,0.6,6.6,1.3,9.9,1.6c1.5,0.1,3,0.4,4.5,0.3
		c2.2-0.2,4.5-0.4,6.7-0.9c3.1-0.7,6.2-1.7,8.9-3.4c2.1-1.2,4.3-2.4,6.1-4.1c1.9-1.7,3.7-3.4,5.3-5.3c2.7-3.2,4.7-6.8,6.1-10.8
		c0.1-0.4,0.4-0.9,0.2-1.3c-1-0.5-2-0.9-3-1.3c-0.4-0.2-0.8-0.3-1.2-0.4c-2.4-0.9-5.1-1.3-7.5-2.3c-0.5-0.2-1-0.3-1.5-0.4
		c-1.1-0.2-2.3-0.4-3.4-0.7c-1.5-0.4-3.1-0.7-4.6-0.8c-0.4,0-0.8-0.1-1.2-0.2c-0.2-0.1-0.2-0.4-0.4-0.6c0.3-0.1,0.5-0.2,0.7-0.2
		c1,0.1,2,0.1,3,0.3c1.7,0.3,3.5,0.8,5.2,1.1c1.4,0.3,2.9,0.5,4.2,1.2c0.3,0.2,0.7,0.2,1.1,0.3c1.5,0.4,2.9,0.7,4.4,1.1
		c1.1,0.3,2.2,0.6,3.3,1.1c0.5,0.2,0.9,0.5,1.5,0.3c0.1-0.3,0.2-0.6,0.3-0.9c0.1-0.4,0.1-0.7,0.1-1.1c0-0.3,0-0.6,0.1-0.9
		c0-0.2,0.3-0.4,0.4-0.4c0.2,0,0.5,0.1,0.7,0.3c0.1,0.1,0.2,0.4,0.2,0.6c0,0.6-0.1,1.2-0.2,1.7c-0.3,1.6-0.9,3.1-1.5,4.6
		c-1.1,3-2.6,5.7-4.4,8.3c-2.3,3.4-5.1,6.3-8.3,8.7c-2.9,2.2-6,4.2-9.6,5.4c-1.1,0.4-2.1,0.9-3.2,1.2c-3.4,1.1-6.9,1.1-10.4,1.3
		c-0.4,0-0.7,0-1.1-0.1c-0.2,0-0.4,0-0.8,0c0.3,0.2,0.4,0.3,0.5,0.3c2.1,0.6,4.2,0.7,6.4,0.4c1.8-0.3,3.6-0.7,5.4-1.1
		c1.4-0.3,2.8-0.7,4.3-1.1c1-0.3,2-0.7,3-1c1.8-0.5,3.3-1.3,4.7-2.5c1.2-1,2.4-1.9,3.6-2.8c1.2-1,2.4-1.8,3.4-3
		c0.7-0.8,1.3-1.6,2-2.5c1.8-2.3,3.4-4.8,4.7-7.4c0.7-1.5,1.3-3,1.9-4.5c0.8-1.9,1.3-4,1.9-6c0.1-0.4,0.1-0.8,0.1-1.2
		c-0.7-0.4-1.4-0.1-2.1-0.2c-1.7-0.1-3.5,0-5.2-0.2c-3.1-0.3-6.1-0.7-9.2-1c-0.3,0-0.5,0-0.8,0c-1.2,0-2.4-0.2-3.6-0.4
		c-3.1-0.6-6.3-0.9-9.5-0.9c-0.3,0-0.8-0.1-1,0.3c0.5,1.4,0.5,1.4,0.1,2.6c0.1,0.1,0.2,0.2,0.3,0.4c1,0.9,1.9,1.8,2.5,3
		c0.2,0.4,0.5,0.7,0.8,0.9c1.5,1.3,2.9,2.5,4.5,3.7c3.2,2.6,6.7,4.7,10.1,7c0.2,0.1,0.5,0.2,0.7,0.2c0.5,0,0.8,0.3,0.9,0.7
		C100.5,188.9,100.3,189.2,99.7,189.6 M247.2,181.9c-2-1.2-4-2.4-6.1-3.4c-1.2-0.6-2.5-1.2-3.5-2c-2.9-2.2-6-3.7-9.4-4.9
		c-1.3-0.5-2.7-1-4-1.5c-0.2-0.1-0.5-0.2-0.7-0.4c-0.3-0.2-0.3-0.5-0.2-0.8c0.1-0.3,0.5-0.4,0.8-0.2c0,0,0.1,0,0.1,0.1
		c2.2,0.9,4.4,2,6.7,2.8c2.5,1,4.8,2.4,7,3.9c0.4,0.3,0.8,0.6,1.2,0.8c2.3,1.2,4.6,2.3,6.9,3.5c0.6,0.3,1.2,0.6,1.9,0.9
		c0.1-0.3,0.3-0.5,0.4-0.7c0.7-1.6,1.4-3.2,2.1-4.8c0.3-0.7,0.5-1.4,0.7-2.1c0.8-2.8,1.1-5.7,1.5-8.5c0-0.3-0.1-0.7-0.1-1
		c-2.5-0.1-4.9,0-7.3,0.3c-2.4,0.3-4.7,0.4-7.1,0.2c-2.8-0.1-5.6-0.2-8.3,0c-1.5,0.1-2.9,0.2-4.3,0.3c-0.5,1-0.8,1.9-1.3,2.7
		c-1.1,1.6-2.2,3.1-3.7,4.3c-0.2,0.2-0.4,0.5-0.6,0.7c0.6,1.3,1.2,2.6,1.9,3.8c0.5,0.8,1,1.6,1.4,2.5c0.8,1.7,1.5,3.3,2.3,5
		c0.4,1,0.9,1.9,1.3,2.9c0.5,1.3,1,2.5,1.5,3.8c0.8,2,1.6,4,2.4,6c0.1,0.2,0.2,0.5,0.2,0.7c0,0.3-0.2,0.7-0.5,0.7
		c-0.2,0-0.5-0.2-0.6-0.3c-0.2-0.2-0.2-0.6-0.3-0.9c-1.2-3.1-2.4-6.3-3.7-9.4c-0.8-1.8-1.8-3.6-2.4-5.4c-1-2.9-2.8-5.4-4.1-8.1
		c-0.1-0.3-0.4-0.5-0.6-0.7c-1.3,0.4-2.6,0.8-3.8,1.2c0,0.6,0,1.1,0,1.6c-0.1,1.7,0,3.5,0.1,5.2c0.1,1.9,0.2,3.8,0.1,5.7
		c0,3.2-0.2,6.4-0.3,9.6c0,0.6-0.1,1.3-0.2,1.9c0,0.2-0.1,0.4-0.2,0.6c-0.1,0.2-0.4,0.4-0.6,0.3c-0.2-0.1-0.3-0.3-0.4-0.4
		c-0.1-0.2,0-0.5,0-0.8c0.1-0.7,0.2-1.4,0.2-2c0.1-1.6,0.1-3.3,0.1-4.9c0.1-2.4,0.3-4.8,0.2-7.2c-0.1-2.4-0.2-4.8-0.2-7.2
		c0-0.8-0.1-1.6,0.3-2.4c-1.2-0.2-2.3-0.3-3.4-0.6c-1.1-0.2-1.3-0.1-1.9,0.9c-1.3,2.3-2.4,4.8-3.3,7.3c-0.7,2-1.6,3.9-2.5,5.7
		c-1.1,2-2.2,4.1-3.3,6.1c-0.5,0.9-0.9,1.8-1.3,2.7c0.9,0.8,2,1.2,3.1,1.5c2,0.5,4,0.9,6,1.4c3.1,0.8,6.3,1.4,9.5,1.9
		c0.9,0.1,1.9,0.2,2.8,0.2c1.4,0,2.7-0.1,4.1-0.1c1.9,0,3.6-0.4,5.3-1.2c1.5-0.7,3-1.4,4.6-2.1c1.2-0.5,2.3-1.3,3.3-2.1
		c3-2.6,5.8-5.4,8.1-8.6C245.9,185.2,246.6,183.6,247.2,181.9 M201,123.3c1.5-0.4,2.9-0.8,4.3-0.9c1.4-0.1,2.8-0.5,4.2-0.7
		c1.2-0.2,2.5-0.4,3.7-0.6c0.8-0.1,1.6-0.1,2.4-0.2c1.1,0,2.2,0,3.3,0.1c1.3,0.1,2.6,0.3,3.9,0.5c0.6,0.1,1.3,0.2,1.8,0.4
		c1.3,0.5,2.6,0.9,3.8,1.4c0.5,0.2,1.1,0.5,1.6,0.7c0.7,0.3,1.4,0.6,2.2,0.9c0.7,0.3,1.5,0.5,2.2,0.8c1.6,0.8,3.2,1.8,4.8,2.7
		c0.2,0.1,0.4,0.3,0.6,0.5c1.4,1.4,2.8,2.7,4.1,4.1c1.6,1.7,3,3.5,4.6,5.1c1.3,1.3,2.3,2.8,3,4.5c0.5,1.3,1,2.5,1.6,3.7
		c1.4,2.6,2.1,5.5,2.8,8.3c0.4,1.4,0.5,2.9,0.3,4.4c-0.1,1.5-0.2,2.9-0.2,4.4c0.1,2.2-0.4,4.4-1,6.5c-0.5,1.6-1.1,3.1-1.4,4.7
		c-0.4,2.1-1.2,4-2,6c-0.5,1.3-1,2.7-1.8,3.8c-1.5,2.4-3,4.8-5.1,6.8c-0.6,0.5-1,1.2-1.5,1.8c-1.8,2.4-3.8,4.5-6.5,5.9
		c-2.5,1.4-5,2.8-7.8,3.6c-2,0.6-4,1.2-6.1,1.2c-0.7,0-1.4,0-2,0.1c-3.7,0.5-7.3,0.2-10.9-0.7c-1.9-0.5-3.9-0.9-5.8-1.2
		c-1.9-0.3-3.8-0.8-5.6-1.4c-1-0.3-1.9-0.8-2.8-1.4c-1.1-0.7-2.2-1.4-3.3-2.1c-1.9-1.3-3.7-2.7-5.1-4.6c-1.7-2.2-3.6-4.4-5.7-6.3
		c-1.1-1-2.1-2.2-3-3.4c-0.3-0.5-0.7-0.9-1.1-1.4c-1.4-1.7-2.6-3.6-2.9-5.9c0-0.4-0.2-0.7-0.3-1.1c-0.7-2.5-1.1-5.1-1.1-7.8
		c0-1-0.1-2.1-0.2-3.1c-0.2-1.7-0.4-3.3-0.6-5c-0.1-0.8-0.1-1.7,0.1-2.5c0.2-1.4,0.5-2.8,0.9-4.2c0.4-1.8,0.8-3.7,1.8-5.4
		c0.8-1.4,1.6-2.7,2.3-4.1c0.4-0.6,0.8-1.2,1.1-1.9c0.8-1.4,1.7-2.8,2.6-4.1c0.6-0.8,1.2-1.7,1.7-2.6c0.7-1.1,1.4-2,2.4-2.9
		c1.5-1.3,3.2-2.4,4.9-3.4c0.6-0.4,1.3-0.7,2-1.1c-0.3-1.4-0.6-2.7-1.2-3.9c-0.1-0.1-0.2-0.2-0.4-0.3c-2.6,1.2-4.9,2.9-7.1,4.7
		c-0.7,0.6-1.4,1.2-2,1.8c-1,1-1.9,2.1-2.8,3.2c-1.4,1.6-2.7,3.2-3.8,5c-1.4,2-2.5,4.1-3.1,6.5c-0.5,2.2-1.4,4.3-2.4,6.3
		c-0.5,0.9-0.8,1.9-1.1,2.9c-1,4-0.8,8-0.7,12c0,0.1,0,0.2,0,0.3c0.1,2.1,0.5,4.2,0.4,6.3c0,1.5,0.2,2.9,0.7,4.3
		c0.7,2.3,1.6,4.4,3,6.4c1.8,2.7,3.5,5.5,5.7,7.9c1.6,1.7,3.2,3.3,4.8,5c0.9,1,2,1.9,3,2.7c1.4,1.1,2.8,2.1,4.2,3
		c1.6,1.1,3.3,2,5.1,2.9c2,1,4,1.9,6,2.8c0.8,0.4,1.6,0.7,2.5,1c3.1,0.8,6.3,1.5,9.6,1.7c4.8,0.3,9.4,0.1,13.9-1.9
		c2.1-0.9,4.2-1.6,6.4-2.2c0.6-0.2,1.3-0.4,1.9-0.7c1.3-0.7,2.6-1.5,3.9-2.3c3-1.8,5.6-4.1,8.2-6.3c0.5-0.4,0.9-0.9,1.3-1.3
		c1.9-2,3.5-4.2,4.9-6.5c0.9-1.5,1.7-3,2.3-4.6c0.5-1.4,1.1-2.8,1.7-4.2c0.8-1.7,1.6-3.3,2-5.1c0.3-1.3,0.7-2.6,1-4
		c0.2-1.1,0.4-2.3,0.5-3.4c0.1-2.1,0-4.3,0-6.4c0-0.8,0-1.6-0.2-2.3c-0.3-1.2-0.5-2.4-0.7-3.5c-0.2-1.3-0.4-2.6-0.7-3.9
		c-0.3-1.2-0.6-2.5-1.1-3.6c-1.5-3.1-3.1-6.2-5.1-9.1c-0.9-1.3-1.8-2.7-2.8-4c-1.9-2.7-3.9-5.3-6.6-7.3c-2.3-1.7-4.6-3.3-7.4-4.1
		c-0.4-0.1-0.8-0.3-1.2-0.5c-1.2-0.7-2.3-1.4-3.6-2c-1.9-1-3.9-1.8-5.9-2.5c-2.4-0.8-5-1.3-7.5-1.4c-1.2-0.1-2.4,0-3.6,0.3
		c-0.5,0.1-0.9,0.2-1.4,0.3c-2.6,0.3-5.1,1-7.8,1c-0.4,0-0.7,0.1-1.1,0.2c-1.2,0.3-2.4,0.6-3.6,0.9c-0.4,0.1-0.5,0.5-0.5,0.9
		C200.2,120.6,200.5,121.9,201,123.3 M111.8,141.8c-1.1-1.6-2.1-3.2-3.3-4.8c-0.5-0.7-1.1-1.4-1.7-2c-1.2-1.1-2.4-2.2-3.6-3.3
		c-1.7-1.5-3.4-3-5.4-4.1c-2.7-1.5-5.3-2.9-8.2-3.9c-0.6-0.2-1.2-0.6-1.9-0.8c-1.3-0.6-2.6-1.2-3.9-1.7c-3.5-1.1-7.1-1.5-10.7-1.7
		c-3.1-0.1-6.3,0.1-9.4,0.5c-3.1,0.4-6.2,1.1-9.1,2.4c-0.5,0.2-1,0.5-1.6,0.7c-2.4,0.9-4.7,2.1-6.9,3.4c-0.9,0.5-1.8,1.1-2.6,1.7
		c-1.1,0.8-1.9,1.9-3.1,2.6c-0.4,0.2-0.7,0.7-1,1c-1.4,1.7-2.6,3.4-4.1,5c-2.1,2.3-4,4.8-5.6,7.4c-1.4,2.1-2.4,4.4-3.5,6.7
		c-0.6,1.2-1.1,2.5-1.6,3.7c-0.8,1.6-1.2,3.3-1.5,5.1c-0.3,2-0.5,4-0.6,5.9c-0.1,2.4-0.2,4.8,0.1,7.2c0.1,1,0.2,2,0.3,3
		c0.1,2.3,0.6,4.5,1.6,6.5c0.9,1.9,1.7,3.7,2.5,5.6c0.8,1.8,1.8,3.6,3,5.1c2,2.6,4.3,4.9,6.6,7.1c1.1,1.1,2.2,2.1,3.3,3.2
		c0.6,0.6,1.3,1.3,2,1.8c1.9,1.5,4,2.6,6.2,3.7c2.5,1.2,5.1,2.2,7.7,3.3c3.3,1.4,6.7,2,10.3,2.1c1.8,0,3.7,0,5.5,0.1
		c3.5,0.2,6.9-0.4,10.2-1.6c3.2-1.1,6.4-2.1,9.5-3.2c0.8-0.3,1.6-0.5,2.3-0.9c2-1,3.8-2.2,5.5-3.7c1.7-1.5,3.5-2.9,5-4.5
		c1.3-1.3,2.7-2.5,3.8-4c1.7-2.2,3.2-4.6,4.3-7.3c0.4-1.1,0.8-2.2,1.3-3.2c0.5-1.2,1.1-2.5,1.7-3.7c0.2-0.4,0.4-0.9,0.6-1.3
		c0.9-2.2,1.2-4.4,1.5-6.7c0.1-0.6,0.2-1.1,0.2-1.7c-1.1-0.4-2.9-0.5-4.4-0.2c-0.3,1-0.6,2.1-0.9,3.1c-0.3,1.2-0.6,2.3-1.1,3.5
		c-0.5,1.3-1.1,2.5-1.6,3.8c-1.1,2.9-2.8,5.4-4.5,7.9c-0.9,1.3-1.9,2.5-2.9,3.7c-0.9,1.1-2,2.2-3.2,3c-1.6,1.1-3.2,2.4-4.7,3.7
		c-1.1,1-2.4,1.6-3.8,2.1c-1,0.3-2.1,0.7-3.1,1.1c-1.6,0.5-3.2,1.1-4.8,1.5c-1.6,0.4-3.2,0.7-4.8,1c-0.9,0.2-1.8,0.3-2.6,0.3
		c-4.2-0.3-8.5-0.8-12.7-1.2c-0.6-0.1-1.2-0.2-1.7-0.4c-2-0.8-4.1-1.4-6.1-2c-0.2,0-0.3-0.1-0.5-0.1c-2.1-0.7-4.2-1.4-6.2-2.1
		c-1-0.4-2.1-0.6-3.1-1.1c-3.6-1.9-6.7-4.5-9.2-7.7c-1.3-1.6-2.6-3.3-4.1-4.8c-2.4-2.5-3.6-5.5-4.3-8.8c-0.3-1.2-0.3-2.4-0.4-3.6
		c-0.3-2.6-0.3-5.2-0.3-7.9c0-4.3,0.6-8.6,2.4-12.6c1.2-2.6,2.4-5.2,4.1-7.6c0.9-1.2,1.7-2.5,2.6-3.7c1.1-1.5,2.1-3.1,3.2-4.6
		c1.4-1.9,3-3.5,4.9-4.8c1.1-0.8,2.3-1.4,3.3-2.4c0.3-0.3,0.8-0.5,1.2-0.7c0.9-0.4,1.8-0.9,2.7-1.2c2.5-1,5.1-2,7.6-3.1
		c2.7-1.2,5.6-1.8,8.6-1.9c3.3-0.1,6.6-0.1,9.9,0c0.9,0,1.8,0.2,2.6,0.4c1.7,0.4,3.3,1,5,1.5c1.8,0.5,3.5,1.2,5.1,2
		c0.8,0.4,1.5,0.7,2.3,1c1.1,0.5,2.3,1,3.3,1.8c1.4,1,2.9,1.9,4.3,2.9c1,0.7,1.9,1.5,2.7,2.4c1.8,2.3,3.5,4.7,5.2,7.1
		C109.1,143.6,110.9,142.8,111.8,141.8 M226.3,202c0.1-0.1,0.3-0.2,0.4-0.2c2.1-0.4,4.2-1,6.1-2c1.6-0.8,3.2-1.7,4.7-2.5
		c2.2-1.2,3.7-3,5.2-5c0.7-0.9,1.4-1.8,2.1-2.7c2.5-2.8,4.8-5.8,6.1-9.4c0.6-1.5,1.2-2.9,1.6-4.4c0.4-2,1.1-3.9,1.7-5.9
		c0.5-1.4,0.8-2.9,0.8-4.3c0-2,0.1-4,0.3-6c0.2-1.6,0.1-3.2-0.3-4.7c-0.5-1.8-1-3.5-1.6-5.2c-0.9-2.4-2-4.7-3.1-7.1
		c-0.6-1.3-1.4-2.4-2.5-3.4c-1.5-1.4-2.8-3-4.1-4.6c-0.6-0.8-1.2-1.6-1.9-2.3c-0.9-0.9-1.8-1.9-2.9-2.6c-2.2-1.4-4.4-2.7-6.8-3.5
		c-0.7-0.2-1.5-0.5-2.2-0.9c-1.2-0.7-2.5-1.1-3.8-1.5c-0.6-0.2-1.1-0.3-1.7-0.5c-0.9-0.4-1.8-0.6-2.7-0.7c-1.3-0.1-2.6-0.3-3.9-0.4
		c-2.2-0.2-4.3,0.1-6.4,0.4c-0.9,0.1-1.7,0.4-2.6,0.6c-0.2,0-0.3,0.3-0.4,0.4c-1.6-0.1-3.1,0-4.7,0.2c-0.7,0.1-1.3,0.3-1.9,0.7
		c-0.1,0.1-0.2,0.4-0.2,0.5c0,0.1,0.3,0.3,0.5,0.3c0.6,0.1,1.1-0.2,1.6-0.5c1.5-0.6,3-1.3,4.6-1.3c0.2,0,0.4-0.1,0.6-0.1
		c2.4-0.1,4.7-0.1,7.1-0.2c1.9-0.1,3.8,0,5.6,0.7c0.3,0.1,0.6,0.2,0.9,0.2c2.8,0.5,5.4,1.4,7.9,2.5c1.4,0.6,2.8,1.3,3.8,2.4
		c1.1,1.2,2.3,2.1,3.8,2.8c0.9,0.4,1.7,1,2.5,1.7c0.9,0.8,1.7,1.5,2.6,2.2c1.1,0.9,2,1.9,2.7,3.1c1.5,2.5,3.1,5,4.4,7.6
		c0.4,0.9,0.8,1.8,1.1,2.8c0.3,1.2,0.6,2.3,1,3.5c1.4,3.8,1.8,7.6,1.3,11.6c-0.3,2.2-0.6,4.4-1,6.5c-0.2,1.2-0.5,2.5-1,3.6
		c-1.5,3.3-2.8,6.8-4.4,10.1c-1.3,2.7-3.1,5-5.1,7.1c-1.1,1.2-2.4,2.2-3.5,3.4c-1.9,2-4.3,3.4-6.8,4.4c-0.7,0.3-1.4,0.5-2,0.9
		c-0.9,0.5-1.8,0.9-2.7,1.1C226.7,201.6,226.5,201.8,226.3,202c-0.2,0-0.5-0.1-0.8-0.1c-2,0-4.1,0.1-6.1,0.1c-0.8,0-1.6,0-2.4-0.1
		c-1.8-0.2-3.5-0.5-5.3-0.7c-0.6-0.1-1.1-0.2-1.7-0.4c-1.5-0.5-3-0.9-4.6-1.2c-2.3-0.4-4.5-0.9-6.7-1.8c-3.2-1.4-6.2-3.1-8.9-5.3
		c-0.2-0.1-0.4-0.4-0.7-0.1c0.6,0.8,1.2,1.4,2,2c1.2,0.9,2.4,1.7,3.6,2.5c2,1.4,4.2,2.4,6.6,3c1.7,0.4,3.4,0.7,5.1,1.1
		c1.5,0.3,3.1,0.5,4.6,1c2.5,0.7,5.1,0.8,7.6,0.9c0.6,0,1.2-0.1,1.7-0.1C222.5,202.4,224.4,202.1,226.3,202 M58.1,202.6
		c0,0-0.1,0.1-0.1,0.1c0,0-0.1,0-0.1,0C58,202.7,58.1,202.7,58.1,202.6c0.1,0.1,0.1,0.2,0.2,0.3c2.8,1.5,5.9,2,9.1,2
		c0.1,0,0.2-0.1,0.5-0.3C64.6,203.6,61.4,202.9,58.1,202.6 M113.6,141c1.5-0.8,3.1-1.4,4.4-2.4c0-0.2,0.1-0.3,0-0.4
		c-0.6-1-0.9-2.1-1.2-3.2c-0.6-1.9-1.2-3.7-2-5.5c-1.2-2.5-2-5.1-3-7.6c-1.1-2.7-2.2-5.5-3.1-8.2c0-0.1-0.1-0.3-0.2-0.4
		c-1.7-0.5-1.8-0.5-1.9-2.7c0.2-0.2,0.6-0.4,0.9-0.6c0-0.2,0-0.4-0.1-0.5c-0.9-2.1-1.8-4.1-2.7-6.2c-0.8-2-1.7-3.9-2.5-5.9
		c-0.4-1.1-0.7-2.2-1-3.3c0-0.1,0-0.2-0.1-0.3c-0.9-2.2-1.7-4.4-2.6-6.6c-0.2-0.6-0.6-1.1-0.8-1.6c-0.8,0-1.4-0.1-2.1-0.1
		c-2.8,0-5.5-0.6-8.2-1.2C86,83.7,85,83,84.6,81.7c-0.3-0.9-0.5-1.8-0.4-2.8c0.1-0.5,0-0.9,0.1-1.4c0.2-1.4,1.2-2.6,2.6-2.9
		c0.7-0.2,1.4-0.5,2.1-0.3c0.6,0.2,1.2,0,1.7,0.7c0.1,0.2,0.5,0.3,0.8,0.4c1.6,0.5,3.2,0.9,4.8,1.3c1.1,0.3,2.2,0.2,3.3,0
		c2.1-0.4,4.2-0.8,6.3-1.1c1.9-0.3,3.7-0.4,5.6-0.6c2.1-0.2,4.1,0.3,6,1.1c1,0.4,1.6,1.2,1.7,2.3c0.1,1-0.3,1.6-1.3,1.8
		c-0.3,0.1-0.6,0.1-0.9,0.1c-1.9,0.1-3.8,0.1-5.6,0.4c-1.8,0.3-3.5,0.5-5.3,0.9c-1.1,0.2-2.1,0.6-3.1,1.3c0.1,0.3,0.1,0.6,0.2,0.9
		c1,2.9,2,5.8,2.9,8.6c1.4,4.2,3.1,8.2,4.4,12.5c0.2,0.8,0.6,1.6,0.9,2.3c0.2,0.5,0.4,0.9,1,1.1c0.6,0.2,0.9,0.7,1.1,1.3
		c0.1,0.3,0.1,0.7,0.1,1.1c0,1.8,0.6,3.4,1.5,4.9c0.3,0.6,0.7,1.2,1,1.8c1.8,0.5,3.7,0.5,5.6,0.4c3.5-0.1,6.9-0.3,10.4-0.4
		c1.8-0.1,3.7-0.3,5.5-0.5c2-0.3,3.8-1.3,5.4-2.4c0.7-0.5,1.4-1,2.1-1.6c1.9-1.6,4-2.9,6-4.3c1.8-1.3,3.6-2.5,5.3-4
		c2.5-2.1,5-4.3,7.8-6.1c0.4-0.2,0.7-0.5,1.1-0.7c1.2-0.7,2.4-1.5,3.4-2.5c1.2-1.1,2.6-2,3.9-2.9c0.9-0.6,1.7-1.2,2.6-1.8
		c0.5-0.4,0.9-0.8,1.4-1.2c-0.2-1.2-0.6-2.2-1-3.3c-0.4-1-0.7-2-1.1-3c-0.2-0.5-0.2-1.1-0.2-1.7c1.1-0.6,2-1.5,3.3-1.9
		c2.2-0.7,4.2-1.9,6.3-2.8c0.6-0.2,1.2-0.5,1.7-0.8c0.9-0.5,1-0.8,0.8-1.8c-0.2-0.9-0.4-1.7-0.6-2.6c0-0.2-0.1-0.4-0.1-0.6
		c-0.1-1.4,0.5-2.3,1.8-2.8c0.5-0.2,1-0.3,1.5-0.3c1.4-0.1,2.2,0.6,2.5,2c0.4,2.4,0.7,4.9,0.8,7.3c0.1,1.8-0.2,2.2-2,2.6
		c-0.3,0.1-0.6,0.1-0.9,0.3c-1.5,0.8-3,1.5-4.5,2.3c-0.7,0.4-1.5,0.8-2.2,1.2c-0.5,0.3-1,0.6-1.5,0.9c0,0.4,0,0.8,0.1,1.1
		c0.4,1.2,0.7,2.4,1.5,3.4c0.3,0.3,0.4,0.7,0.5,1.1c0.4,1.4,1.2,2.7,1.9,3.9c0.7,1.1,1.3,2.3,2,3.4c0.4,0.7,0.2,1.3,0,2.1
		c0.5,0.5,0.9,0.9,1.5,1.5c0.6-0.1,1.2-0.3,1.8-0.4c0.8-0.2,1.3,0,1.6,0.6c0.5,1,0.9,2.1,1.4,3.2c0.1,0.2,0.1,0.6,0,0.8
		c-0.3,0.6-0.2,1.1-0.1,1.6c0.3,1.7,1,3.2,1.5,4.8c0.4,1.1,0.8,2.3,1.1,3.4c0.3,1,0.8,1.9,1.2,2.9c0.3,0,0.5,0,0.7-0.1
		c1.8-0.8,3.9-0.9,5.8-1.4c1.1-0.2,2.3-0.2,3.4-0.3c2.6-0.4,5.2-0.8,7.8-1.1c0.3,0,0.5-0.1,0.8-0.2c2.2-0.2,4.3-0.2,6.4,0.2
		c2.4,0.4,4.7,1.2,6.9,2.1c0.7,0.3,1.4,0.5,2,0.9c0.9,0.5,1.9,1,2.7,1.6c1.4,0.9,2.8,1.7,4.4,2.1c0.8,0.2,1.7,0.6,2.4,1.1
		c2.1,1.2,4,2.7,5.8,4.2c1.6,1.3,2.7,2.9,3.9,4.5c1.3,1.8,2.6,3.7,3.9,5.6c1.8,2.7,3.4,5.4,4.8,8.3c0.6,1.2,1,2.6,1.2,3.9
		c0.6,2.8,1.1,5.7,1.6,8.5c0,0.3,0.1,0.5,0.1,0.8c0,2.9,0.3,5.8,0,8.6c-0.3,2.4-0.8,4.7-1.5,7.1c-1.2,3.7-2.9,7.1-4.3,10.6
		c-0.5,1.3-1.4,2.5-2,3.7c-1.5,2.7-3.5,4.9-5.6,7.2c-0.3,0.4-0.8,0.7-1.2,1.1c-0.9,0.7-1.8,1.5-2.6,2.2c-0.7,0.6-1.4,1.2-2.1,1.7
		c-2.3,1.6-4.6,3.1-7,4.5c-0.4,0.2-0.8,0.4-1.1,0.5c-1,0.3-2,0.6-3,0.9c-1,0.4-2.1,0.7-3.1,1.2c-2.6,1.1-5.2,1.9-8,2.4
		c-0.2,0-0.4,0.1-0.6,0.1c-5,0.2-9.9-0.1-14.9-1.1c-2.2-0.5-4.3-1.2-6.3-2.4c-1-0.6-2.1-1.1-3.3-1.6c-3.5-1.4-6.6-3.7-9.6-5.9
		c-2.3-1.7-4.4-3.7-6.4-5.8c-1.4-1.4-2.7-2.7-3.9-4.3c-2.3-2.9-4.5-6-6.2-9.3c-1.4-2.7-2.1-5.6-2.2-8.6c0-2.1-0.2-4.1-0.5-6.1
		c0-0.4-0.1-0.8-0.1-1.3c0-2.5,0-4.9,0.1-7.4c0.1-2.5,0.8-5,1.9-7.3c1-2.1,1.8-4.2,2.4-6.5c0.6-2,1.4-3.9,2.6-5.7
		c1.2-1.8,2.3-3.6,3.8-5.2c1.9-2.1,3.6-4.4,5.9-6.1c1.1-0.9,2.3-1.7,3.4-2.5c1-0.7,2-1.3,3.1-1.9c0.7-0.4,1.4-0.7,2.2-1.1
		c0.2-0.5,0.1-1.2-0.2-1.9c0-0.1,0-0.2-0.1-0.3c-1.4-2.7-1.9-5.6-3-8.4c-0.3-0.7-0.4-1.5-0.7-2.3c-0.5-0.1-1-0.2-1.5-0.4
		c-0.4-0.3-0.7-0.7-1.1-1.2c-0.5,0.1-1,0.2-1.6,0.3c-0.8,0.1-1.3-0.1-1.7-0.8c-0.2-0.4-0.3-0.9-0.5-1.3c-0.1-0.3-0.3-0.6-0.5-1
		c-1.5,0.5-2.6,1.3-3.7,2.1c-2.5,1.9-4.4,4.3-5.8,7.1c-0.2,0.5-0.5,0.9-0.7,1.4c-0.9,1.8-1.8,3.6-2.7,5.3c-0.8,1.6-1.7,3.1-2.6,4.7
		c-1.1,2.1-2.3,4.1-3.5,6.2c-1.3,2.4-2.7,4.8-4.1,7.1c-1.2,1.9-2.1,4-3.1,6c-1,2-1.9,4-2.9,5.9c-0.4,0.8-1,1.6-1.5,2.4
		c-1.1,1.9-2.1,3.7-3.1,5.7c-0.6,1.1-1.1,2.2-1.9,3.2c-0.3,0.4-0.6,0.8-0.6,1.4c0,0.3-0.2,0.7-0.4,1c-1.1,1.7-1.9,3.5-2.6,5.4
		c-0.1,0.1-0.1,0.3-0.1,0.4c0.2,0.4,0.6,0.3,0.9,0.3c1.4,0,2.7-0.1,4.1-0.1c0.8,0,1.7,0.1,2.5,0.2c0.5,0,0.8,0.3,0.8,0.8
		c0.1,1.1,0.2,2.3,0.3,3.4c0,0.3,0,0.6-0.1,0.9c-0.2,0.5-0.5,0.8-1,0.9c-0.1,0-0.2,0-0.3,0c-2.2-0.4-4.4,0.2-6.6,0.3
		c-0.3,0-0.5,0-0.8,0.1c-0.7,0.1-1.2-0.2-1.5-0.9c-0.1-0.2-0.1-0.4-0.2-0.6c-0.7-0.1-1.3-0.2-2.1-0.3c0,0.5-0.1,0.8-0.1,1.2
		c0,0.5-0.2,0.8-0.5,1.1c-0.4,0.3-0.8,0.7-1.2,0.9c-0.3,0.2-0.6,0.4-0.7,0.8c-0.2,0.4-0.5,0.6-1,0.7c-0.3,0-0.6,0-0.7,0.2
		c-0.6,0.8-1.2,0.6-1.9,0.3c-0.1,0-0.2-0.1-0.4-0.1c-0.4,0.2-0.7,0.5-1.2,0.6c-0.4,0.1-0.8-0.1-1.3-0.3c-0.1,0.1-0.3,0.1-0.4,0.3
		c-0.4,0.4-0.8,0.4-1.3,0.1c-0.4-0.3-0.8-0.4-1.3-0.4c-0.3,0-0.6-0.1-0.9-0.3c-0.3-0.2-0.6-0.4-0.9-0.7c-0.4,0.1-0.9,0.2-1.3,0.3
		c-0.6-0.4-0.5-1.1-0.8-1.6c-0.1,0-0.2-0.1-0.3-0.1c-0.3,0-0.6,0.1-0.7-0.1c-0.2-0.2-0.4-0.5-0.5-0.7c-0.1-0.2-0.1-0.4-0.1-0.6
		c-0.1-0.4-0.4-0.5-0.9-0.6c-0.1,0.4-0.3,0.9-0.3,1.3c-0.4,2.9-1.3,5.7-2.7,8.3c-0.7,1.3-1.3,2.6-1.7,4c-0.7,2.1-1.8,3.9-2.8,5.8
		c-0.4,0.6-0.8,1.2-1.2,1.9c-0.6,1-1.3,1.9-2.2,2.7c-1.5,1.4-2.9,2.9-4.3,4.4c-1.3,1.4-2.8,2.7-4.3,3.8c-0.6,0.5-1.2,0.8-1.8,1.3
		c-1.9,1.6-4.1,2.6-6.5,3.4c-3.1,1-6.3,2.1-9.4,3.2c-2.7,1-5.6,1.4-8.5,1.6c-0.2,0-0.4,0-0.6,0c-2.2-0.1-4.4-0.2-6.6-0.2
		c-4.4,0-8.6-1-12.6-2.9c-0.7-0.3-1.3-0.6-2-0.8c-3.2-1.1-6.1-2.8-9-4.5c-1.5-0.9-2.6-2.2-3.8-3.5c-1.1-1.1-2.2-2.3-3.3-3.4
		c-0.4-0.4-0.9-0.9-1.4-1.3c-1.5-1.6-3-3.2-4.5-4.8c-1-1.1-1.8-2.3-2.4-3.7c-1.2-2.6-2.5-5.2-3.7-7.8c-0.7-1.4-1-3-1.3-4.5
		c-0.3-2.1-0.5-4.2-0.7-6.2c-0.2-2.4,0-4.7,0-7.1c0.1-2.5,0.5-5,1-7.5c0.2-1.3,0.7-2.6,1.3-3.8c0.5-0.9,0.8-1.9,1.3-2.9
		c0.1-0.1,0.1-0.3,0.2-0.4c1.2-2.2,2.1-4.6,3.6-6.6c1.1-1.6,2.2-3.2,3.3-4.8c0.8-1.1,1.8-2,2.7-3.1c1.2-1.4,2.3-2.8,3.4-4.3
		c0.9-1.2,1.9-2.2,3.1-3.1c0.2-0.1,0.4-0.2,0.5-0.4c2.5-2.2,5.5-3.7,8.5-5c1.4-0.6,2.7-1.2,4-1.9c2.1-1.1,4.3-1.7,6.6-2.1
		c4.4-0.9,8.9-1.1,13.5-1.1c0.2,0,0.4,0,0.6,0c1.9,0.2,3.9,0.4,5.8,0.7c2,0.3,4,0.9,5.9,1.8c2.4,1.1,4.8,2.4,7.3,3.2
		c0.7,0.2,1.3,0.6,2,1c2.8,1.4,5.4,2.9,7.8,5c0.5,0.5,1,0.9,1.5,1.4c0.6,0.5,1.1,1.1,1.7,1.6c1.3,1.1,2.3,2.3,3.2,3.6
		c0.7,1.1,1.5,2.2,2.2,3.2C112.6,140.3,113,140.7,113.6,141"/>
</g>
</svg>
