<svg xmlns="http://www.w3.org/2000/svg" viewBox="-337 139.5 283.5 283.5"><g fill="#1D1D1B"><path d="M-255.2 276.1c-.2-1 0-2 .3-3v-.2c.4-1.8 1-3.6 2.1-5.9.8-1.7 2-3.3 3.6-4.8.6-.5 1.3-1.2 2.2-1.7 1.4-.8 2.8-1.2 4.1-1.2h2.2c2.4 0 4.2 1.3 6.2 2.9.1.2.3.5.4.7.3.6.6 1.1.9 1.6.8 2.1 1.1 4.5 1.1 7.3v4.9c0 1.1 0 2.1-.1 3.2v2.4l.1.4v1.7c0 1.6.1 3.2.1 4.7 0 1.7 0 3.4-.1 5.1v.3c0 1.6-.5 3.1-.9 4.5-.6 2-2 3.6-3.3 4.9-.5.5-1.3.8-2.1.8-2.2-.1-4-.7-5.5-1.9l-.5-.4c-1.3-1-2.6-2-3.7-3.3-.1-.1-.2-.2-.2-.3-.2-.2-.4-.4-.5-.6-1.3-2.1-2.9-4.5-4.4-7-.9-1.5-1.4-3-1.5-4.6-.1-2.6-.2-5.3-.2-7.9v-1.3c-.2-.3-.2-.8-.3-1.3m24.9 5.9v-.8c0-.8.1-1.7.1-2.6V277c0-.9-.1-1.8-.1-2.7-.1-1.9-.1-3.8-.1-5.7 0-1.3-.2-2.6-.7-4.2-.7-2.2-2-3.9-4.1-5.2-1.8-1.1-3.3-1.7-4.9-1.7-.4 0-.8 0-1.2-.1-.6 0-1.3-.1-1.9-.1-.3 0-.6.1-.9.2l-.2.1c-.6.2-1.2.3-1.8.6-.4.2-.9.3-1.3.6-2.2 1.5-4.6 3.3-6.2 6.1-.6 1-1.1 2.1-1.5 3.2-.1.3-.2.5-.4.8-.3.8-.6 1.5-.8 2.2-.6 2-1.1 4.3-.7 6.7v3c0 1.7.1 3.4.1 5 .1 2.2.5 3.9 1.3 5.5.9 1.9 2.1 3.6 3.2 5.3.4.6.8 1.3 1.2 1.9 1.2 1.9 2.4 3.3 3.8 4.4.3.2.6.5.9.7.5.4 1 .7 1.4 1.1 1.7 1.4 3.9 2.1 6.5 2.1h1.2c.4 0 .9-.2 1.2-.4.1-.1.3-.2.4-.3.7-.5 1.3-.9 1.9-1.5 1.5-1.7 2.6-3.6 3.3-5.7.3-.9.4-1.6.4-2.4V295c0-.8 0-1.7.1-2.5.1-2.1.1-4.2.1-6.3 0-.9-.1-1.8-.1-2.8-.2-.5-.2-.9-.2-1.4m33.7 37.5c-.5 0-.6.3-.7.7-.1.2-.1.5-.1.7-.1.9-.1 1.9-.2 2.8 0 .2 0 .5-.3.5-.1-.1-.3-.2-.3-.4-.4-.8-.8-1.5-1.2-2.3-.4-.8-1.2-1.3-1.3-2.2 0-.1-.3-.2-.4-.2-.2 0-.4.2-.5.3-.1.2-.1.5-.1.7-.1 1.9-.1 3.7-.2 5.6 0 .3.1.6.3.8.1.1.3.2.5.2.1 0 .3-.1.4-.3.1-.2.1-.4.1-.7v-2.5c0-.4.1-.9.1-1.3.5 0 .5.4.7.6.4.9.9 1.8 1.3 2.7.3.6.6 1.1 1.4 1.3.8-.3 1.1-.9.9-1.8-.2-1.4-.2-2.9.2-4.3-.1-.5-.3-.9-.6-.9m-8.4 14.2c-.1.7-.9 1.1-1.8 1.2-.7 0-1.3-.3-1.5-.9-.3-1.1-.3-2.3.3-3.4.5-.9 1.4-1.2 2.4-.9.9 1.3.8 2.7.6 4m-.2-5c-1.9-.5-3.7.5-4 2.1-.2.8-.3 1.6-.5 2.4.1.5.1 1.1.3 1.5.6 1.1 1.8 1.6 3 1.4 1.2-.2 2.5-1.1 2.6-2.4.1-1.5-.2-2.9-.7-4.3 0-.3-.4-.6-.7-.7m7.7 6.7c-.5-.1-1-.1-1.8-.2.3-.5.4-.8.6-1 1.1-1 1.3-2.4 1.4-3.8 0-.3-.1-.7-.3-1-.8-.9-2.7-1-3.5-.2-.4.5-.7 1.1-1 1.6-.1.1.1.5.3.6.1.1.5 0 .6-.1.4-.4.6-.8 1-1.2.4-.3.9-.3 1.3 0 .3.3.3.6.2 1-.2 1.2-.8 2.3-1.6 3.2-.3.4-.6.7-.9 1.1-.1.2-.2.5-.1.6.1.2.4.5.7.5 1.1.1 2.2 0 3.3 0 .1 0 .2-.1.3-.1.1-.6 0-.9-.5-1m20.6-15.6c-.3.1-.5.3-.5.6s.1.6.1.9c0 .4 0 .8-.1 1.2 0 .4.1.8-.3 1.2-.2-.1-.4-.3-.5-.4-.8-.9-1.6-1.9-2.4-2.8-.2-.3-.4-.6-.9-.4-.4.2-.4.5-.4.9 0 .8-.1 1.6-.2 2.4-.1.7-.1 1.4-.2 2.1 0 .4.2.7.6.7.4 0 .7-.2.7-.6v-1c0-.7-.1-1.5.1-2.1.5-.2.7.1.8.3.8 1 1.5 1.9 2.3 2.9.3.4.7.6 1.2.3 0-.2.1-.3.1-.5 0-1.6 0-3.2.1-4.7v-.2c.1-.5-.2-.8-.5-.8m-29.7 2.3c-.1-.6-.2-1.1.3-2 .4.9.6 1.4.9 2-.4.5-.8.2-1.2 0m2.8 2c-.2-.4-.4-.7-.4-1.1-.2-1.3-.8-2.6-1.3-3.8-.4-1-.7-1-1.8-.4-.2 1.6-.3 3.2-.9 4.8-.2.6-.2 1.3-.2 1.9 0 .2.3.4.4.5.2 0 .5-.2.5-.3.1-.3.2-.7.2-1 .1-.4.1-.9.2-1.4.6.1 1.1.1 1.7.2.3.6.5 1.1.7 1.7l.3.6c.1.3.4.4.7.3.3-.2.4-.4.3-.7 0-.5-.2-.9-.4-1.3m-8.2-3.2c-.1-.4-.2-.7-.2-1-.1-.8.3-1.2 1.1-1.1.5.1 1 .2 1.4.8-.4 1.1-1.2 1.3-2.3 1.3m2.6-2.6c-.8-.4-1.7-.5-2.5-.6-.8 0-1.4.5-1.4 1.4-.1 1.6-.2 3.2-.2 4.9v.5c0 .1 0 .2.1.3.1.3.4.5.7.3.2-.1.4-.3.4-.5v-2.5c.5-.1.7-.2.9-.2.9 0 1.7-.5 2.4-1 .9-.7.7-2-.4-2.6m24.6 6.8c-.7 0-1.2-.4-1.7-.7-.1-.1-.3-.2-.3-.4-.2-.7 0-1.4.2-2 .2-.6.5-1 1.3-1.2 1.4 1.5 1.6 2.7.5 4.3m-.8-5.9c-1.3.9-2.1 1.9-2.3 3.3-.3 1.8-.1 2.4 1.5 3.3.3.1.5.3.8.4.8.4 1.4.3 1.8-.5.8-1.2 1.1-2.5.6-3.8-.5-1.1-1.2-2.1-2.4-2.7m-3.6 16.7c-.5.1-1.1 0-1.5-.4-.2-.2-.5-.4-.5-.7-.1-.9-.1-1.7 0-2.6.1-1 .9-1.4 1.9-1.4.3 0 .7.1 1 0 .2 0 .3-.3.4-.5 0-.1-.1-.4-.2-.4-2-.9-3.5-.2-4.3 1.8-.4 1.1-.3 2.2 0 3.3.1.6.5 1.2 1.1 1.5.6.3 1.3.5 2 .6.8.1 1.4-.3 1.8-1.1 0-.1-.1-.2-.2-.4-.5.2-1 .3-1.5.3m18.4-10.8c-.3-.1-.6 0-.9 0h-1.4c-.4-.1-.7-.5-.6-.9.1-.4.3-.6.6-.8.5-.2 1-.3 1.5-.5.2-.1.2-.3.4-.6h-2.4c-.1-1.1 0-1.3.7-1.6.4-.1.8-.1 1.2-.3.3-.1.7-.3.6-.9-1.4 0-2.9-.2-3.9 1.3.2 1.2.2 2.5 0 3.8-.2 1 .2 1.4 1.2 1.5.9.1 1.8 0 2.6 0 .1 0 .2-.1.3-.1.1-.1.2-.3.2-.4.2-.3 0-.5-.1-.5m-21 1.1c.1-.2.2-.5.1-.7-.5-1.6.1-3.2.2-5 .5 0 .8-.1 1.1-.1h.9c.1 0 .3-.2.3-.3 0-.2 0-.5-.1-.6-.1-.2-.4-.3-.6-.3-1.3.1-2.7.2-4 .3-.2 0-.3.1-.5.2-.1.1-.2.3-.2.4 0 .1.2.4.3.4.5.1 1 .1 1.6.1 0 .7-.1 1.3-.1 2-.1 1-.1 2-.2 3 0 .2 0 .5.1.7.1.2.4.3.5.3.3 0 .5-.2.6-.4m-19.9 2.5c0-.2-.2-.5-.4-.7-.1-.1-.5 0-.6.2-.6.5-1.1 1-1.7 1.4.2 1 1 .2 1.7.6 0 1.1 0 2.2-.1 3.3-.1.5-.1 1 0 1.6 0 .1.2.3.3.4.1 0 .3 0 .5-.1.5-.4.6-1 .6-1.6v-3.7c-.3-.5-.2-1-.3-1.4"/><path d="M-143.1 250.9c-.1.6-.1 1.3-.1 1.9v1.3c0 .6-.1 1.2-.1 1.8-.1 2.2-.2 4.4-.4 6.6-.2 2.4-.2 4.8-.2 7.1v27.8c0 1.9.1 3.8.2 5.7.1 1.1.1 2.2.1 3.3v3c-.3.1-.7.3-1 .4-1 .4-1.9.7-2.8 1-.6.2-1.1.3-1.6.3-1.1.1-2.3.3-3.7.7-1.8.5-3.7.9-5.8 1.1-1.6.2-3.1.4-4.7.6-1 .1-2 .3-3 .4-.8.1-1.5.2-2.4.2l-1 .1c-1.2.1-2.5.1-3.8.2h-9c-.8.1-1.7.2-2.8.2h-6.2c-1.8 0-3.6-.2-5.2-.4-5.1-.6-10.2-1.2-14-1.7-3.8-.4-7.3-1-10.6-1.6-.3-.1-.5-.1-.8-.1-.6-.1-1.3-.2-1.9-.4-.7-.2-.8-.4-.7-1.2 0-.1 0-.2.1-.4 0-.2.1-.3.1-.5s0-.4.1-.6c.1-.5.1-1.1 0-1.6-.4-2-.4-4.1-.3-6.2v-3.2c0-.3 0-.7-.1-1v-1.3c.3-1.8.3-3.7.2-5.4v-2.3c0-3.5 0-6.8-.1-10 0-1.5-.1-3.1-.3-4.6-.4-2.9-.4-5.8-.3-8.3 0-3.4.1-6.8.1-10v-7.4c0-1 0-2.2-.3-3.4-.1-.7-.1-1.5-.1-2.3v-.8c0-.1 0-.2.1-.3.4 0 .8 0 1.2.1.1 0 .3.1.4.1l3.3.6c2.2.4 4.4.8 6.6 1.1 1.5.2 3.1.3 4.6.4.7 0 1.3.1 2 .1h.9c.5 0 1.1 0 1.6.1 2.5.4 5.1.6 7.6.7l4.2.3c.4 0 .9.1 1.3.2.5.1 1 .2 1.5.2 1.7.1 3.4.2 5 .4h2c1.6.1 3.3.2 5.3.2 1.7 0 3.4-.1 4.8-.1.8 0 1.5-.1 2.3-.2.3 0 .6-.1.9-.1.2 0 .5-.1.7-.1.4-.1.7-.1 1-.1 1.9-.1 3.9-.2 5.8-.4l2-.1h.3c.2 0 .4 0 .6-.1 1-.2 2-.3 3-.5 1.9-.3 3.8-.6 5.7-1.1.7-.2 1.5-.4 2.2-.5 1.2-.3 2.4-.5 3.6-1l1.5-.6h.1c.4-.2.7-.3 1-.2v.1c0 .3.1.5.1.8-.5 3.7-.5 7.4-.8 11m-.5 63.9c0 2.6-.1 6.5-.1 8.1 0 1.7-.2 3.4-.4 5l-.1.9c-.1.9-.2 2-.2 3 0 .4 0 .8-.1 1.2-.1.6-.2 1.3 0 2 0 .1-.1.4-.3.6-.2.3-.5.5-.8.6-.9.4-1.8.7-2.7 1.1-2.4 1-4.9 2.1-7.5 2.5-1.3.2-2.5.6-3.8 1.1l-.2.1c-2.1.7-4.4 1.1-6.6 1.5-.7.1-1.4.3-2.1.4-2.8.6-5.7.9-8.5.9-.7 0-1.3.1-2 .2-.9.1-1.8.2-2.7.2-.9 0-1.8-.1-2.8-.2-.7-.1-1.4-.1-2-.2-1.3 0-2.5-.1-3.8-.1-2.3-.1-4.6-.1-6.9-.2-3-.1-5.4-.5-7.6-1.1-.5-.2-1.1-.2-1.6-.3-3.2-.2-6.4-.9-9.2-1.5-1.2-.3-2.3-.6-3.4-1-.6-.2-1.2-.4-1.8-.5l-1.2-.3c-.4-.1-.7-.2-1.1-.3-.1 0-.3-.1-.4-.1-.5-.1-1-.2-1.4-.6-.3-.3-.8-.4-1.1-.5-.1 0-.2-.1-.3-.1-.5-.1-.9-.3-1.4-.4l-1.8-.6c-.4-.1-.8-.3-1.2-.5-.1-.1-.2-.1-.3-.2v-.8c0-.7.1-1.4.2-2.1.2-1.2.2-2.4.1-3.6v-9.4c0-1.2 0-2.9-.2-4.6-.1-1.3-1.1-2.2-2.5-2.4-1.6-.2-3.4-.4-5-.8-2.3-.6-4-1.1-5.5-1.7-1.6-.7-3.2-1.6-4.8-2.7-1.7-1.2-3.3-2.5-4.6-3.7-1.4-1.2-2.4-2.8-3.2-4.6-.3-.7-.5-1.4-.8-2.2-.1-.4-.3-.9-.4-1.3l-.1-.2c-.3-.9-.6-1.8-1-2.7-.6-1.5-1.1-3.3-1.4-5.5l-.1-.9c-.3-2.2-.6-4.6-.6-6.9 0-1.5 0-3 .2-4.5.1-.7.2-1.3.2-2 0-.4.1-.9.1-1.4.4-2.8 1.4-5.5 3-8.2.5-.8 1.1-1.8 1.7-2.6 2.8-3.5 6.4-5.9 11.2-7.5 2.2-.7 4.6-1.1 6.8-1.4.4-.1.8-.1 1.2-.2 1.2-.2 2-.1 2.8.1.9.3 1.7.2 2.4-.4l.2-.1v-.2c-.3-4.1-.3-8.5.1-13.2h.4c.7 0 .9.1 2 .6v.1c0 1.6.2 3.2.3 4.8.2 1.7.3 3.5.3 5.3v2.2c0 1.6 0 3.2-.1 4.8v7.2c0 3.4.1 6.7.6 9.8.1.9.2 1.9.2 2.8v9.4c0 1.1.1 2.2.1 3.3 0 .6 0 1.2.1 1.8v1c0 .6-.1 1.1-.1 1.7-.1 1.4-.2 2.8-.4 4.2-.2 1.8-.2 3.7 0 5.7.3 2 .3 4.1.3 5.9v1.3l.3.9c0 .1.1.2.1.3v.1l.1.1c.7.6 1.6.8 2.3.9 1.1.2 2.2.4 3.4.5 2 .3 4.1.7 6.2 1 .9.1 1.9.2 2.8.3.6.1 1.3.1 1.9.2 2.2.3 4.4.5 6.6.8 1.5.2 3.1.4 4.6.6 2 .2 4.4.5 6.8.5h5.6c1.3 0 2.6.1 3.8 0h5.5c1.7 0 3.5 0 5.3-.2.6-.1 1.2-.1 1.8-.1.7 0 1.4 0 2-.1.6-.1 1.2-.1 1.8-.2 1.9-.2 3.8-.4 5.7-.8.5-.1 1.1-.2 1.6-.2h.2c1.9-.2 3.9-.5 6.1-1.2.6-.2 1.2-.2 1.8-.3 2.2-.2 4.3-.7 6.3-1.5.1 0 .2 0 .3-.1v1.6l.8 2zm-84.5-78.9c2.1-.8 4.3-1.4 6.2-1.8 5.6-1.3 11.3-2 16.8-2.6l3.6-.3c.8-.1 1.7-.1 2.5-.2 1.2-.1 2.3-.2 3.5-.3 1.6-.2 3.3-.3 4.9-.5 1.5-.1 3-.2 4.7-.2 2.6 0 5.1.1 7.9.3.7 0 1.4.1 2.1.1 1.4.1 2.8.1 4.3.3 1.6.2 3.3.4 4.9.6.9.1 1.9.2 2.8.4 1 .1 1.9.3 2.9.4h.1s4.7.8 7.7 1.5c2.7.6 8.1 2.8 9.1 3.2l.1.1c-.3.2-1.9 1.4-5.5 2-.2 0-.3.1-.5.1-6.2 1.8-12.5 2.3-17.3 2.6-1.4.1-2.7.2-3.9.3-3.3.4-6.8.4-10.3.2-1.4-.1-2.8-.1-4.1-.1h-2.9c-2.4-.4-4.8-.6-7.2-.7-1.4-.1-2.9-.2-4.3-.3-3.2-.3-6.8-.7-10.4-.9-4.3-.2-8.5-1.1-12.7-1.9l-.9-.2c-.5-.1-1.1-.2-1.6-.4-.5-.1-1.8-.5-2.1-.6-.1 0-1.4-.4-1.4-.5.3-.3.6-.4 1-.6m86-.7c-.3-.1-.6-.2-.8-.3-.3-.1-.6-.2-.8-.3l-2.7-.9c-2.1-.7-4.2-1.4-6.4-1.9-.6-.1-1.2-.3-1.7-.4-2.9-.7-5.8-1.4-8.9-1.7-1.4-.1-2.8-.3-4.2-.5-1.5-.2-3-.4-4.6-.5-4.6-.3-9.2-.4-13.2-.5-3.6-.1-7.3.1-11.3.7l-.5.1c-1.7.2-3.4.5-5.1.6-5 .3-10.1 1-14.4 1.7-2.1.3-4.2.8-6.3 1.3-.7.2-1.5.3-2.2.5-2.4.5-4.7 1.6-6.6 2.6-.5.3-1.1.7-.7 1.6.3.8.3 1.6.2 2.4-.2 1.9-.3 3.8-.2 5.8.1 1.1.1 2.2.1 3.2v1.1c0 .1 0 .2-.1.4h-.6c-.4-.2-.9-.2-1.4-.2-.5 0-1 .1-1.5.1-.4.1-.7.1-1.1.1-.6 0-1.2.2-1.7.3-.1 0-.3.1-.4.1-.4.1-.7.2-1.1.2-2 .4-4 .8-5.9 1.7-2.5 1.1-4.8 2.4-6.9 4-.5.4-.9.8-1.4 1.2l-.2.2c-1.4 1.3-2.4 2.8-3.4 4.3l-.3.5c-.7 1-1.3 2.2-1.9 3.7-1.6 4.1-2 8.4-2.1 12.5-.1 2.6.1 5.2.6 7.8.1.3.1.7.1 1 0 .3.1.6.1.9 0 .2.1.4.1.6.1.6.2 1.3.4 1.9 1 3.1 2.1 6.2 3 8.8.7 2 1.9 3.8 3.5 5.4 2.4 2.4 4.6 4 6.9 5.2 1.8.9 3.4 1.8 5.1 2.4 1.8.7 3.8 1.2 6.5 1.8.2 0 .3.1.5.1.7.2 1.5.4 2.3.4.3 0 .6 0 .9-.1v16.8c-.1.6-.1 1.1-.2 1.7-.1.8-.2 1.7-.3 2.5-.1.6.2 1 .6 1.3.2.1.4.2.5.3.5.3 1.1.6 1.8.8.8.2 1.6.6 2.4.9.4.2.8.3 1.2.5l.3.1c.5.2 1 .4 1.6.5.6.2 1.2.3 1.8.5l2.1.6c.5.1 1 .3 1.5.5.8.3 1.6.5 2.4.7 2.2.5 4.5.9 6.6 1.2l2.1.3c1.9.2 3.8.5 5.7.9 2.4.6 4.9.6 7.1.6.7 0 1.5.1 2.2.1h.4c.3 0 .6.1.9.1.6.1 1.2.2 1.8.1 2.1-.1 4.1-.1 6.1.2h2.3c1.6 0 3.2-.2 4.7-.4l2.7-.3c2.4-.2 4.9-.6 7.3-1l1.8-.3c1.3-.2 2.7-.5 4.2-.9 2.9-.8 5.9-1.7 8.7-2.5l1.6-.5c.5-.1 1-.4 1.4-.5.8-.4 1.9-.9 3.1-1.4.3-.2.7-.3 1-.5.3-.2.7-.4 1.1-.5 1.1-.5 1.6-1.3 1.6-2.7 0-1 0-2 .1-2.9 0-.8.1-1.7.1-2.5 0-.6.1-1.2.2-1.8.1-.6.2-1.3.2-2v-17.1c0-1.4 0-2.8-.1-4.4-.3-5.1-.3-9-.2-12.8.1-1.8.1-3.6 0-5.4 0-1.4 0-2.7-.1-4.1 0-1.8-.1-3.7-.1-5.6 0-1.4 0-2.9.1-4.3 0-.8 0-1.5.1-2.3v-2.2c0-1.4 0-2.8.1-4.2 0-1 .1-2 .2-2.9.1-.9.2-1.9.2-2.8.2-3.6.3-7.2.4-11.2.1-2.2.1-4.4.1-6.5 0-.9 0-1.9.1-2.8.1-1-.2-1.5-1.2-1.8"/></g></svg>